<svg width="1920" height="467" viewBox="0 0 1920 467" fill="none" xmlns="http://www.w3.org/2000/svg">
<mask id="mask0_201_3439" style="mask-type:alpha" maskUnits="userSpaceOnUse" x="0" y="18" width="1920" height="449">
<rect y="18" width="1920" height="449" fill="#C4C4C4"/>
</mask>
<g mask="url(#mask0_201_3439)">
<rect x="-1.41421" width="10.7578" height="10.7578" transform="matrix(-0.707107 -0.707107 -0.707107 0.707107 103.605 321.02)" stroke="#8AC186" stroke-width="2"/>
<path d="M181.04 170.38H100.457" stroke="#2D2D30" stroke-width="1.54" stroke-linecap="round" stroke-linejoin="round"/>
<path d="M577.303 459.731H377.701C366.667 459.698 356.094 455.287 348.292 447.462C340.49 439.637 336.092 429.034 336.059 417.968V310.079C336.092 299.013 340.49 288.409 348.292 280.585C356.094 272.76 366.667 268.349 377.701 268.316H577.303C588.337 268.349 598.909 272.76 606.712 280.585C614.514 288.409 618.912 299.013 618.945 310.079V417.968C618.912 429.034 614.514 439.637 606.712 447.462C598.909 455.287 588.337 459.698 577.303 459.731V459.731Z" stroke="#2D2D30" stroke-width="1.54" stroke-linecap="round" stroke-linejoin="round"/>
<path d="M498.309 399.758C572.723 399.758 633.048 339.257 633.048 264.626C633.048 189.994 572.723 129.494 498.309 129.494C423.895 129.494 363.571 189.994 363.571 264.626C363.571 339.257 423.895 399.758 498.309 399.758Z" fill="white" stroke="#2D2D30" stroke-width="1.44" stroke-linecap="round" stroke-linejoin="round"/>
<path d="M498.309 322.233C530.031 322.233 555.747 296.442 555.747 264.627C555.747 232.813 530.031 207.022 498.309 207.022C466.587 207.022 440.871 232.813 440.871 264.627C440.871 296.442 466.587 322.233 498.309 322.233Z" fill="#ECC916"/>
<path d="M498.308 270.917C501.773 270.917 504.582 268.1 504.582 264.625C504.582 261.15 501.773 258.333 498.308 258.333C494.843 258.333 492.034 261.15 492.034 264.625C492.034 268.1 494.843 270.917 498.308 270.917Z" fill="#2D2D30"/>
<path d="M565.019 202.051C562.576 203.506 560.403 210.049 560.403 210.049L497.289 263.826L497.774 265.17L497.844 265.225L497.885 265.302L498.885 266.13L562.305 212.318C562.305 212.318 569.1 211.232 570.925 209.054C572.75 206.875 582.161 193.469 582.161 193.469C582.161 193.469 567.462 200.597 565.019 202.051Z" fill="#2D2D30"/>
<path d="M501.84 265.219L468.603 246.328C468.603 246.328 473.135 238.845 465.022 234.446C456.909 230.047 443.986 232.128 431.292 226.727C442.452 234.85 447.338 247.017 455.285 251.722C463.231 256.428 467.285 248.674 467.285 248.674L500.32 267.105C500.722 266.398 501.235 265.761 501.84 265.219V265.219Z" fill="#2D2D30"/>
<path d="M557.966 167.728L497.051 265.67L498.391 266.172L499.425 267.153L560.166 169.107L564.504 159.654L557.966 167.728Z" fill="#2D2D30"/>
<path d="M601.359 323.919C602.654 323.919 603.705 322.865 603.705 321.566C603.705 320.267 602.654 319.213 601.359 319.213C600.063 319.213 599.013 320.267 599.013 321.566C599.013 322.865 600.063 323.919 601.359 323.919Z" fill="#2D2D30"/>
<path d="M395.259 210.042C396.555 210.042 397.605 208.989 397.605 207.689C397.605 206.39 396.555 205.337 395.259 205.337C393.964 205.337 392.914 206.39 392.914 207.689C392.914 208.989 393.964 210.042 395.259 210.042Z" fill="#2D2D30"/>
<path d="M560.924 366.877C562.219 366.877 563.27 365.824 563.27 364.525C563.27 363.225 562.219 362.172 560.924 362.172C559.628 362.172 558.578 363.225 558.578 364.525C558.578 365.824 559.628 366.877 560.924 366.877Z" fill="#2D2D30"/>
<path d="M435.694 167.088C436.99 167.088 438.04 166.035 438.04 164.735C438.04 163.436 436.99 162.383 435.694 162.383C434.399 162.383 433.348 163.436 433.348 164.735C433.348 166.035 434.399 167.088 435.694 167.088Z" fill="#2D2D30"/>
<path d="M437.29 367.864C438.585 367.864 439.636 366.811 439.636 365.512C439.636 364.212 438.585 363.159 437.29 363.159C435.994 363.159 434.944 364.212 434.944 365.512C434.944 366.811 435.994 367.864 437.29 367.864Z" fill="#2D2D30"/>
<path d="M559.328 166.099C560.624 166.099 561.674 165.045 561.674 163.746C561.674 162.447 560.624 161.393 559.328 161.393C558.033 161.393 556.982 162.447 556.982 163.746C556.982 165.045 558.033 166.099 559.328 166.099Z" fill="#2D2D30"/>
<path d="M393.99 321.545C395.286 321.545 396.336 320.492 396.336 319.192C396.336 317.893 395.286 316.84 393.99 316.84C392.695 316.84 391.645 317.893 391.645 319.192C391.645 320.492 392.695 321.545 393.99 321.545Z" fill="#2D2D30"/>
<path d="M602.628 212.423C603.923 212.423 604.974 211.369 604.974 210.07C604.974 208.771 603.923 207.717 602.628 207.717C601.332 207.717 600.282 208.771 600.282 210.07C600.282 211.369 601.332 212.423 602.628 212.423Z" fill="#2D2D30"/>
<path d="M491.802 152.114H489.101V141.703L485.877 142.703V140.506L491.513 138.488H491.802V152.114ZM505.559 152.114H496.232V150.263L500.634 145.572C501.238 144.911 501.684 144.335 501.97 143.843C502.263 143.351 502.41 142.883 502.41 142.441C502.41 141.837 502.257 141.363 501.952 141.02C501.646 140.672 501.21 140.497 500.643 140.497C500.033 140.497 499.55 140.709 499.195 141.133C498.846 141.55 498.671 142.101 498.671 142.787H495.961C495.961 141.958 496.157 141.201 496.55 140.516C496.949 139.83 497.509 139.295 498.232 138.908C498.955 138.516 499.774 138.32 500.69 138.32C502.092 138.32 503.179 138.656 503.952 139.329C504.731 140.002 505.12 140.952 505.12 142.179C505.12 142.852 504.945 143.538 504.597 144.235C504.248 144.933 503.65 145.746 502.802 146.675L499.709 149.936H505.559V152.114Z" fill="#2D2D30"/>
<path d="M499.271 379.391C500.062 379.391 500.77 379.551 501.395 379.87C502.033 380.189 502.531 380.648 502.888 381.248C503.258 381.835 503.443 382.524 503.443 383.315C503.443 384.157 503.22 384.923 502.774 385.612C502.34 386.301 501.721 386.85 500.917 387.258C500.126 387.654 499.226 387.851 498.218 387.851C497.146 387.851 496.215 387.609 495.424 387.124C494.633 386.626 494.014 385.886 493.567 384.904C493.133 383.921 492.916 382.715 492.916 381.286C492.916 379.717 493.178 378.396 493.701 377.324C494.224 376.252 494.926 375.461 495.807 374.951C496.7 374.428 497.701 374.166 498.812 374.166C499.986 374.166 500.955 374.402 501.721 374.874C502.499 375.334 502.888 375.997 502.888 376.865C502.888 377.363 502.742 377.777 502.448 378.109C502.167 378.428 501.778 378.588 501.281 378.588C500.821 378.588 500.438 378.454 500.132 378.186C499.826 377.918 499.673 377.58 499.673 377.171C499.673 376.967 499.737 376.763 499.864 376.559C500.005 376.355 500.183 376.195 500.4 376.08C500.247 375.889 500.024 375.748 499.73 375.659C499.45 375.557 499.143 375.506 498.812 375.506C498.046 375.506 497.427 375.876 496.955 376.616C496.483 377.343 496.247 378.53 496.247 380.176C496.247 380.278 496.253 380.348 496.266 380.387C496.598 380.08 497.032 379.838 497.567 379.659C498.116 379.481 498.684 379.391 499.271 379.391ZM498.276 386.416C498.837 386.416 499.303 386.212 499.673 385.803C500.056 385.382 500.247 384.706 500.247 383.774C500.247 382.817 500.049 382.109 499.654 381.65C499.271 381.191 498.773 380.961 498.161 380.961C497.714 380.961 497.325 381.044 496.993 381.21C496.662 381.376 496.413 381.624 496.247 381.956C496.234 382.135 496.228 382.396 496.228 382.741C496.228 384.042 496.419 384.98 496.802 385.555C497.185 386.129 497.676 386.416 498.276 386.416Z" fill="#2D2D30"/>
<path d="M611.63 261.873H613.069C613.755 261.873 614.263 261.701 614.593 261.359C614.923 261.016 615.088 260.561 615.088 259.994C615.088 259.446 614.923 259.019 614.593 258.714C614.269 258.408 613.82 258.256 613.247 258.256C612.73 258.256 612.297 258.399 611.948 258.686C611.599 258.966 611.425 259.334 611.425 259.788H608.724C608.724 259.078 608.914 258.443 609.294 257.882C609.68 257.315 610.216 256.873 610.901 256.555C611.593 256.237 612.353 256.078 613.182 256.078C614.621 256.078 615.748 256.424 616.565 257.116C617.381 257.801 617.789 258.748 617.789 259.957C617.789 260.58 617.599 261.153 617.219 261.676C616.839 262.2 616.34 262.602 615.724 262.882C616.49 263.156 617.06 263.567 617.434 264.116C617.814 264.664 618.004 265.312 618.004 266.059C618.004 267.268 617.562 268.237 616.677 268.966C615.798 269.695 614.633 270.059 613.182 270.059C611.823 270.059 610.711 269.701 609.845 268.985C608.985 268.268 608.555 267.321 608.555 266.144H611.256C611.256 266.654 611.446 267.072 611.826 267.396C612.213 267.72 612.686 267.882 613.247 267.882C613.889 267.882 614.39 267.714 614.752 267.377C615.119 267.035 615.303 266.583 615.303 266.022C615.303 264.664 614.555 263.985 613.06 263.985H611.63V261.873Z" fill="#2D2D30"/>
<path d="M382.007 264.433C381.303 265.125 380.481 265.471 379.54 265.471C378.337 265.471 377.375 265.059 376.652 264.237C375.929 263.408 375.568 262.293 375.568 260.891C375.568 260 375.761 259.184 376.147 258.443C376.54 257.695 377.085 257.116 377.783 256.704C378.481 256.287 379.266 256.078 380.138 256.078C381.035 256.078 381.833 256.303 382.53 256.751C383.228 257.2 383.77 257.845 384.157 258.686C384.543 259.527 384.739 260.489 384.745 261.574V262.574C384.745 264.841 384.182 266.623 383.054 267.919C381.926 269.215 380.328 269.907 378.259 269.994L377.596 270.003V267.751L378.194 267.742C380.543 267.636 381.814 266.533 382.007 264.433ZM380.203 263.405C380.639 263.405 381.013 263.293 381.325 263.069C381.643 262.845 381.882 262.574 382.044 262.256V261.144C382.044 260.228 381.87 259.517 381.521 259.013C381.172 258.508 380.705 258.256 380.119 258.256C379.577 258.256 379.132 258.505 378.783 259.003C378.434 259.496 378.259 260.116 378.259 260.863C378.259 261.605 378.428 262.215 378.764 262.695C379.107 263.169 379.587 263.405 380.203 263.405Z" fill="#2D2D30"/>
<mask id="mask1_201_3439" style="mask-type:alpha" maskUnits="userSpaceOnUse" x="335" y="86" width="285" height="375">
<path d="M577.485 460H377.973C366.944 459.936 356.376 451.341 348.578 436.093C340.779 420.845 336.383 400.182 336.35 378.618V168.382C336.383 146.818 340.779 126.155 348.578 110.907C356.376 95.6592 366.944 87.0644 377.973 87H577.485C588.514 87.0644 599.082 95.6592 606.881 110.907C614.679 126.155 619.075 146.818 619.108 168.382V378.618C619.075 400.182 614.679 420.845 606.881 436.093C599.082 451.341 588.514 459.936 577.485 460V460Z" fill="#C4C4C4" stroke="#2D2D30" stroke-width="1.54" stroke-linecap="round" stroke-linejoin="round"/>
</mask>
<g mask="url(#mask1_201_3439)">
<path d="M505.666 233.298C505.666 233.298 513.995 230.548 519.658 240.258C525.321 249.968 521.49 273.509 524.155 286.372C526.82 299.235 528.319 300.237 528.319 300.237C528.319 300.237 506.805 302.743 500.003 297.899C493.202 293.054 493.174 270.502 493.174 270.502L505.666 233.298Z" fill="#2D2D30"/>
<path d="M556.532 375.132C556.532 375.132 560.342 374.722 562.175 369.794C564.007 364.866 548.433 369.209 548.433 369.209C548.433 369.209 549.578 375.842 556.532 375.132Z" fill="#2D2D30"/>
<path d="M557.386 374.598L531.901 383.118L527.778 367.707L550.973 363.949C550.973 363.949 550.765 374.724 557.386 374.598Z" fill="white" stroke="#2D2D30" stroke-width="1.06" stroke-linecap="round" stroke-linejoin="round"/>
<path d="M543.741 379.136L531.901 383.118L527.778 367.707L545.421 365.006C540.819 367.227 539.133 374.605 543.741 379.136Z" fill="#2D2D30"/>
<path d="M507.249 284.93V299.38C507.249 299.38 517.493 299.881 521.823 304.726C526.154 309.571 541.312 322.127 543.338 327.779C545.365 333.431 537.835 351.167 537.835 351.167C537.835 351.167 536.002 377.561 534.67 383.241C503.688 383.241 484.006 382.907 484.006 382.907L484.339 369.877L464.684 313.079L465.85 300.049L489.669 298.044L488.003 266.638C488.003 266.638 506 282.341 507.249 284.93Z" fill="white" stroke="#2D2D30" stroke-width="1.06" stroke-linecap="round" stroke-linejoin="round"/>
<path d="M531.651 343.482L543.068 335.038C541.59 342.25 537.814 351.166 537.814 351.166C537.814 351.166 536.627 368.345 535.461 377.964L533.816 377.728L531.651 343.482Z" fill="#2D2D30"/>
<path d="M508.497 299.38C508.497 299.38 517.658 310.071 506.831 310.907C496.004 311.742 487.01 298.378 487.01 298.378" fill="white"/>
<path d="M508.497 299.38C508.497 299.38 517.658 310.071 506.831 310.907C496.004 311.742 487.01 298.378 487.01 298.378" stroke="#2D2D30" stroke-width="1.06" stroke-linecap="round" stroke-linejoin="round"/>
<path d="M507.249 284.93V295.622C497.887 292.42 493.369 278.123 493.369 278.123L500.198 277.594C503.738 280.893 506.764 283.914 507.249 284.93Z" fill="#2D2D30"/>
<path d="M484.012 382.908L484.345 369.878L472.672 336.147L479.515 326.611C479.515 326.611 487.469 339.307 496.866 340.811C501.966 341.697 507.139 342.102 512.315 342.022C512.315 342.022 501.516 355.484 505.166 383.138C491.744 383.04 484.012 382.908 484.012 382.908Z" fill="#2D2D30"/>
<path d="M483.847 265.97C482.514 260.541 486.679 241.824 493.674 239.151C500.67 236.478 510.498 239.318 510.498 239.318C510.498 239.318 519.617 243.703 519.867 256.991C522.032 267.348 519.659 284.722 510.581 286.016C505.292 286.768 498.685 282.842 493.355 278.123" fill="white"/>
<path d="M483.847 265.97C482.514 260.541 486.679 241.824 493.674 239.151C500.67 236.478 510.498 239.318 510.498 239.318C510.498 239.318 519.617 243.703 519.867 256.991C522.032 267.348 519.659 284.722 510.581 286.016C505.292 286.768 498.685 282.842 493.355 278.123" stroke="#2D2D30" stroke-width="1.06" stroke-linecap="round" stroke-linejoin="round"/>
<path d="M538.896 372.467L540.02 384.871C540.02 384.871 550.146 406.796 550.645 429.349C551.145 451.901 565.636 511.045 563.638 517.56C561.639 524.075 542.643 613.783 542.643 613.783C531.486 616.336 519.82 615.463 509.163 611.277C511.662 579.704 522.655 520.567 522.655 520.567L505.166 451.407L483.179 387.724L484.345 369.85C484.345 369.85 530.65 370.462 538.896 372.467Z" fill="#2D2D30"/>
<path d="M543.399 418.697C543.399 418.697 533.273 413.435 525.778 427.746C518.282 442.057 505.54 452.56 505.54 518.337C502.916 573.966 500.168 612.305 500.168 612.305C500.168 612.305 493.505 617.177 472.018 611.971C471.519 575.72 467.688 449.177 467.688 437.894C467.688 426.611 465.564 400.808 483.178 387.778" fill="#2D2D30"/>
<path d="M543.4 418.699C540.916 417.708 538.161 417.644 535.634 418.518C533.168 419.415 531.003 420.99 529.387 423.063C527.769 425.168 526.36 427.427 525.182 429.808C523.877 432.16 522.468 434.45 521.135 436.768C518.387 441.343 516.064 446.161 514.195 451.163C513.224 453.648 512.425 456.202 511.662 458.764L510.579 462.634C510.269 463.933 509.945 465.234 509.608 466.538C509.834 465.216 510.066 463.896 510.302 462.578L511.176 458.638C511.87 456.042 512.564 453.446 513.467 450.905C515.259 445.82 517.546 440.924 520.296 436.288C521.684 433.977 523.072 431.708 524.411 429.39C525.62 426.966 527.098 424.687 528.818 422.596C530.581 420.483 532.906 418.916 535.523 418.079C536.83 417.692 538.198 417.556 539.555 417.675C540.89 417.765 542.196 418.113 543.4 418.699V418.699Z" fill="white"/>
<path d="M522.474 351.447L525.66 346.366L528.97 342.587C528.97 342.587 533.19 338.939 533.828 339.197C534.467 339.454 533.96 342.26 531.233 344.473C530.457 345.894 529.472 347.189 528.311 348.315L524.993 353.884" fill="white"/>
<path d="M522.474 351.447L525.66 346.366L528.97 342.587C528.97 342.587 533.19 338.939 533.828 339.197C534.467 339.454 533.96 342.26 531.233 344.473C530.457 345.894 529.472 347.189 528.311 348.315L524.993 353.884" stroke="#2D2D30" stroke-width="0.82" stroke-linecap="round" stroke-linejoin="round"/>
<path d="M519.421 370.463C521.788 368.793 523.697 366.552 524.974 363.948C526.792 359.911 530.949 358.282 530.526 355.874C530.102 353.465 523.835 359.911 520.331 360.746" fill="white"/>
<path d="M519.421 370.463C521.788 368.793 523.697 366.552 524.974 363.948C526.792 359.911 530.949 358.282 530.526 355.874C530.102 353.465 523.835 359.911 520.331 360.746" stroke="#2D2D30" stroke-width="0.82" stroke-linecap="round" stroke-linejoin="round"/>
<path d="M512.065 371.376C512.065 371.376 518.499 373.784 521.088 369.684C523.677 365.584 524.072 357.635 524.072 357.635L526.279 352.359C526.279 352.359 534.788 349.881 533.913 346.888C532.609 346.561 525.467 349.624 522.809 349.881C521.254 351.837 513.717 361.673 513.717 361.673H506.236L506.104 371.376H512.065Z" fill="white" stroke="#2D2D30" stroke-width="0.82" stroke-linecap="round" stroke-linejoin="round"/>
<path d="M481.528 328.281C476.669 343.482 468.869 358.684 468.869 358.684C468.869 358.684 477.697 358.747 482.007 359.561C486.316 360.376 512.773 360.626 512.773 360.626L512.037 373.949C512.037 373.949 473.366 379.065 465.121 379.9C456.876 380.735 448.131 379.065 445.466 374.554C444.772 369.877 445.05 366.035 446.632 360.355C448.214 354.675 453.711 326.248 455.21 318.842C456.709 311.436 458.292 301.552 465.87 300.049" fill="white"/>
<path d="M481.528 328.281C476.669 343.482 468.869 358.684 468.869 358.684C468.869 358.684 477.697 358.747 482.007 359.561C486.316 360.376 512.773 360.626 512.773 360.626L512.037 373.949C512.037 373.949 473.366 379.065 465.121 379.9C456.876 380.735 448.131 379.065 445.466 374.554C444.772 369.877 445.05 366.035 446.632 360.355C448.214 354.675 453.711 326.248 455.21 318.842C456.709 311.436 458.292 301.552 465.87 300.049" stroke="#2D2D30" stroke-width="1.06" stroke-linecap="round" stroke-linejoin="round"/>
<path d="M561.39 361.036H556.907V357.792H560.849V348.131H556.907V344.88H561.39C562.106 344.882 562.792 345.168 563.297 345.676C563.803 346.183 564.088 346.871 564.09 347.588V358.328C564.09 359.046 563.806 359.735 563.299 360.243C562.793 360.751 562.106 361.036 561.39 361.036V361.036Z" fill="white" stroke="#2D2D30" stroke-width="0.85" stroke-linecap="round" stroke-linejoin="round"/>
<path d="M558.71 345.844C559.203 345.559 562.312 346.784 564.082 347.528C564.082 347.528 564.082 347.57 564.082 347.591V358.331C564.077 358.733 563.983 359.129 563.807 359.491C563.63 359.852 563.376 360.169 563.062 360.419L559.203 358.387L559.14 357.767H560.841V348.134H558.287C558.287 347.09 558.37 346.039 558.71 345.844Z" fill="#2D2D30"/>
<path d="M538.452 340.239H557.482V362.548C557.482 363.122 557.255 363.672 556.85 364.078C556.445 364.484 555.896 364.712 555.324 364.712H540.618C540.045 364.712 539.496 364.484 539.091 364.078C538.686 363.672 538.459 363.122 538.459 362.548V340.239H538.452Z" fill="white" stroke="#2D2D30" stroke-width="0.85" stroke-linecap="round" stroke-linejoin="round"/>
<path d="M557.421 347.249C551.124 347.75 544.798 347.75 538.501 347.249" stroke="#2D2D30" stroke-width="0.85" stroke-linecap="round" stroke-linejoin="round"/>
<path d="M557.421 348.608C551.124 349.109 544.798 349.109 538.501 348.608" stroke="#2D2D30" stroke-width="0.85" stroke-linecap="round" stroke-linejoin="round"/>
<path d="M557.421 354.389C551.124 354.89 544.798 354.89 538.501 354.389" stroke="#2D2D30" stroke-width="0.85" stroke-linecap="round" stroke-linejoin="round"/>
<path d="M557.421 355.747C551.124 356.248 544.798 356.248 538.501 355.747" stroke="#2D2D30" stroke-width="0.85" stroke-linecap="round" stroke-linejoin="round"/>
<path d="M544.817 359.518C545.268 357.43 547.829 357.91 547.829 357.91C547.556 357.353 547.418 356.74 547.427 356.119C547.435 355.499 547.589 354.889 547.877 354.34C548.662 352.6 555.213 353.692 557.483 354.131V362.546C557.483 363.121 557.256 363.672 556.851 364.079C556.446 364.486 555.897 364.716 555.324 364.718H544.914C545.226 363.945 545.844 362.741 545.844 362.741C545.392 362.352 545.056 361.845 544.875 361.276C544.693 360.707 544.673 360.098 544.817 359.518V359.518Z" fill="#2D2D30"/>
<path d="M564.812 360.634C564.812 360.634 565.506 354.056 564.715 352.455C563.923 350.854 559.856 347.583 559.246 347.583C558.635 347.583 558.35 351.759 561.23 353.771C561.036 356.555 560.641 357.251 560.641 357.251C560.641 357.251 549.8 354.363 548.703 355.163C547.607 355.963 550.091 358.358 551.479 358.852C552.867 359.346 558.336 361.149 558.336 361.149C558.336 361.149 548.197 359.548 546.906 359.548C545.615 359.548 545.906 361.045 547.995 362.646C548.294 364.636 552.271 366.432 552.271 366.432C552.271 366.432 552.139 370.991 555.047 372.516C557.531 373.81 559.273 372.314 561.508 369.773C563.431 367.595 564.444 366.133 563.847 364.734C564.273 364.15 564.577 363.486 564.743 362.782C564.909 362.078 564.932 361.347 564.812 360.634V360.634Z" fill="white" stroke="#2D2D30" stroke-width="0.84" stroke-linecap="round" stroke-linejoin="round"/>
<path d="M547.989 362.666C547.989 362.666 555.977 364.26 558.462 365.624Z" fill="white"/>
<path d="M547.989 362.666C547.989 362.666 555.977 364.26 558.462 365.624" stroke="#2D2D30" stroke-width="0.84" stroke-linecap="round" stroke-linejoin="round"/>
<path d="M558.329 361.133C558.329 361.133 560.348 361.864 561.41 362.331Z" fill="white"/>
<path d="M558.329 361.133C558.329 361.133 560.348 361.864 561.41 362.331" stroke="#2D2D30" stroke-width="0.84" stroke-linecap="round" stroke-linejoin="round"/>
<path d="M560.646 357.244C561.512 357.645 562.327 358.148 563.075 358.741Z" fill="white"/>
<path d="M560.646 357.244C561.512 357.645 562.327 358.148 563.075 358.741" stroke="#2D2D30" stroke-width="0.84" stroke-linecap="round" stroke-linejoin="round"/>
<path d="M510.086 257.165C509.921 258.101 510.017 259.064 510.364 259.949C511.238 261.912 513.494 267.919 513.619 268.378C513.744 268.838 513.161 270.174 510.662 270.383C508.164 270.592 507.664 269.882 507.664 269.882" fill="white"/>
<path d="M510.086 257.165C509.921 258.101 510.017 259.064 510.364 259.949C511.238 261.912 513.494 267.919 513.619 268.378C513.744 268.838 513.161 270.174 510.662 270.383C508.164 270.592 507.664 269.882 507.664 269.882" stroke="#2D2D30" stroke-width="1.06" stroke-linecap="round" stroke-linejoin="round"/>
<path d="M514.508 273.326C514.508 273.326 507.449 274.266 505.166 273.737C507.699 277.461 512.162 277.621 514.508 273.326Z" fill="white" stroke="#2D2D30" stroke-width="1.06" stroke-linecap="round" stroke-linejoin="round"/>
<path d="M504.577 255.947C504.577 255.947 499.386 251.652 494.534 256.246" stroke="#2D2D30" stroke-width="1.06" stroke-linecap="round" stroke-linejoin="round"/>
<path d="M511.1 254.506C511.1 254.506 513.515 250.643 518.595 252.815" stroke="#2D2D30" stroke-width="1.06" stroke-linecap="round" stroke-linejoin="round"/>
<path d="M511.745 239.464C511.745 239.464 498.732 248.673 495.012 258.801C493.416 263.144 487.093 290.673 501.751 298.692C481.18 302.367 467.341 301.476 464.53 287.409C461.699 273.195 465.689 258.682 472.164 249.16C478.64 239.638 484.116 232.991 489.779 230.485C495.442 227.979 504.659 229.991 508.06 234.119C509.419 235.806 510.651 237.593 511.745 239.464Z" fill="#2D2D30"/>
<path d="M515.707 259.608C516.482 259.608 517.109 258.978 517.109 258.202C517.109 257.425 516.482 256.796 515.707 256.796C514.933 256.796 514.305 257.425 514.305 258.202C514.305 258.978 514.933 259.608 515.707 259.608Z" fill="#2D2D30"/>
<path d="M501.21 261.563C501.984 261.563 502.612 260.934 502.612 260.157C502.612 259.381 501.984 258.751 501.21 258.751C500.436 258.751 499.808 259.381 499.808 260.157C499.808 260.934 500.436 261.563 501.21 261.563Z" fill="#2D2D30"/>
<path d="M483.491 383.028C484.63 382.728 485.789 382.499 486.962 382.248C488.135 381.997 489.294 381.858 490.432 381.656C492.778 381.343 495.137 381.092 497.497 380.96C502.216 380.626 506.957 380.598 511.683 380.717C516.409 380.835 521.129 381.169 525.834 381.642C528.189 381.879 530.537 382.144 532.879 382.436C535.217 382.77 537.556 383.083 539.881 383.501L532.823 382.916C530.477 382.721 528.124 382.54 525.772 382.394C521.066 382.095 516.361 381.823 511.655 381.698C506.95 381.573 502.237 381.559 497.532 381.698C495.179 381.768 492.833 381.928 490.487 382.144C489.321 382.276 488.141 382.345 486.975 382.519C485.81 382.693 484.65 382.853 483.491 383.028Z" fill="white"/>
<path d="M503.799 259.902C503.799 259.902 501.717 257.083 497.747 260.341" stroke="#2D2D30" stroke-width="1.06" stroke-linecap="round" stroke-linejoin="round"/>
<path d="M513.079 258.451C513.079 258.451 514.946 255.507 518.409 257.352" stroke="#2D2D30" stroke-width="1.06" stroke-linecap="round" stroke-linejoin="round"/>
<path d="M477.987 338.192C473.608 349.454 469.104 358.851 469.104 358.851C469.104 358.851 461.858 358.35 456.445 361.566C468.604 354.174 472.505 347.826 477.987 338.192Z" fill="#2D2D30"/>
<path d="M530.144 381.988C530.056 386.675 529.931 391.357 529.769 396.034C529.686 398.373 529.596 400.719 529.471 403.057C529.346 405.396 529.214 407.735 528.902 410.053C529.131 407.728 529.172 405.382 529.228 403.043C529.283 400.705 529.276 398.366 529.283 396.027C529.283 391.35 529.244 386.67 529.165 381.988H530.144Z" fill="white"/>
<path d="M523.905 432.605C525.439 439.253 526.897 445.907 528.382 452.554L532.719 472.531C534.17 479.193 535.544 485.861 536.932 492.536C538.32 499.211 539.708 505.879 540.985 512.575C541.152 513.411 541.291 514.26 541.443 515.095C541.596 515.93 541.749 516.773 541.86 517.643L541.95 518.29C541.993 518.519 542.009 518.753 541.999 518.986C541.999 519.459 541.95 519.87 541.915 520.308C541.825 521.172 541.721 522.021 541.596 522.87C541.117 526.253 540.534 529.608 539.951 532.97C538.764 539.687 537.536 546.39 536.217 553.072L532.227 573.125C530.839 579.793 529.451 586.469 528.063 593.13L535.509 552.933C536.71 546.23 537.966 539.534 539.111 532.817C539.681 529.462 540.25 526.1 540.708 522.738C540.826 521.895 540.923 521.06 541.006 520.218C541.006 519.814 541.089 519.376 541.083 519C541.09 518.799 541.073 518.598 541.034 518.401L540.944 517.782C540.84 516.967 540.673 516.125 540.52 515.29L540.055 512.784C537.529 499.399 534.711 486.063 532.018 472.705L527.951 452.673L523.905 432.605Z" fill="white"/>
</g>
<path d="M269.862 170.507H70.2457C47.2476 170.507 28.604 189.205 28.604 212.27V320.145C28.604 343.21 47.2476 361.908 70.2457 361.908H269.862C292.86 361.908 311.504 343.21 311.504 320.145V212.27C311.504 189.205 292.86 170.507 269.862 170.507Z" stroke="#2D2D30" stroke-width="1.54" stroke-linecap="round" stroke-linejoin="round"/>
<path d="M93.6272 170.38H84.8408" stroke="#2D2D30" stroke-width="1.54" stroke-linecap="round" stroke-linejoin="round"/>
<path d="M317.333 224.125C338.162 224.125 355.047 207.19 355.047 186.301C355.047 165.412 338.162 148.477 317.333 148.477C296.505 148.477 279.62 165.412 279.62 186.301C279.62 207.19 296.505 224.125 317.333 224.125Z" stroke="#ECC91A" stroke-width="2" stroke-miterlimit="10"/>
<path d="M92.1369 127.162H10.4707C8.56953 127.162 7.02832 128.708 7.02832 130.615V221.332C7.02832 223.238 8.56953 224.784 10.4707 224.784H92.1369C94.0381 224.784 95.5793 223.238 95.5793 221.332V130.615C95.5793 128.708 94.0381 127.162 92.1369 127.162Z" fill="white" stroke="#2D2D30" stroke-width="1.05" stroke-linejoin="round"/>
<path d="M92.1369 127.162H10.4707C8.56953 127.162 7.02832 128.708 7.02832 130.615V216.264C7.02832 218.171 8.56953 219.717 10.4707 219.717H92.1369C94.0381 219.717 95.5793 218.171 95.5793 216.264V130.615C95.5793 128.708 94.0381 127.162 92.1369 127.162Z" fill="white" stroke="#2D2D30" stroke-width="1.05" stroke-linejoin="round"/>
<path d="M81.5178 214.406H10.4701C9.5498 214.406 8.66717 214.039 8.01639 213.386C7.36561 212.734 7 211.848 7 210.925V130.614C7 129.691 7.36561 128.806 8.01639 128.154C8.66717 127.501 9.5498 127.134 10.4701 127.134H92.1364C93.0567 127.134 93.9394 127.501 94.5901 128.154C95.2409 128.806 95.6065 129.691 95.6065 130.614V203.519L81.5178 214.406Z" fill="white" stroke="#2D2D30" stroke-width="1.05" stroke-linejoin="round"/>
<path d="M85.2368 208.608L82.4606 210.063C81.9671 210.326 81.4163 210.462 80.8574 210.46H17.3886C16.4683 210.46 15.5856 210.093 14.9348 209.44C14.2841 208.788 13.9185 207.902 13.9185 206.979V157.497C13.9185 156.574 14.2841 155.688 14.9348 155.036C15.5856 154.383 16.4683 154.016 17.3886 154.016H85.2368C86.1571 154.016 87.0397 154.383 87.6905 155.036C88.3413 155.688 88.7069 156.574 88.7069 157.497V201.926C88.7097 202.404 88.6153 202.878 88.4293 203.318L86.8816 206.938C86.5428 207.669 85.9614 208.259 85.2368 208.608Z" fill="white" stroke="#2D2D30" stroke-width="1.05" stroke-linejoin="round"/>
<path d="M25.1541 154.052V210.571" stroke="#2D2D30" stroke-width="1.05" stroke-linejoin="round"/>
<path d="M35.7036 154.052V210.571" stroke="#2D2D30" stroke-width="1.05" stroke-linejoin="round"/>
<path d="M46.2529 154.052V210.571" stroke="#2D2D30" stroke-width="1.05" stroke-linejoin="round"/>
<path d="M56.7952 154.052V210.571" stroke="#2D2D30" stroke-width="1.05" stroke-linejoin="round"/>
<path d="M67.3445 154.052V210.571" stroke="#2D2D30" stroke-width="1.05" stroke-linejoin="round"/>
<path d="M77.894 154.052V210.571" stroke="#2D2D30" stroke-width="1.05" stroke-linejoin="round"/>
<path d="M13.9539 165.948H88.659" stroke="#2D2D30" stroke-width="1.05" stroke-linejoin="round"/>
<path d="M13.9539 176.965H88.659" stroke="#2D2D30" stroke-width="1.05" stroke-linejoin="round"/>
<path d="M13.9539 187.984H88.659" stroke="#2D2D30" stroke-width="1.05" stroke-linejoin="round"/>
<path d="M13.9539 199.003H88.659" stroke="#2D2D30" stroke-width="1.05" stroke-linejoin="round"/>
<path d="M81.5178 214.406L95.5788 203.498L85.5154 202.065C85.0309 202.001 84.5383 202.04 84.07 202.181C83.6018 202.321 83.1683 202.559 82.7982 202.879C82.428 203.199 82.1293 203.594 81.9219 204.038C81.7144 204.482 81.6027 204.964 81.5942 205.454L81.5178 214.406Z" fill="white" stroke="#2D2D30" stroke-width="1.05" stroke-linejoin="round"/>
<path d="M10.4776 127.162H92.1369C93.0573 127.162 93.9399 127.529 94.5907 128.182C95.2415 128.834 95.6071 129.72 95.6071 130.643V147.905H7.02832V130.615C7.0356 129.7 7.40156 128.825 8.04706 128.179C8.69256 127.533 9.5657 127.168 10.4776 127.162V127.162Z" fill="#8AC186" stroke="#2D2D30" stroke-width="1.05" stroke-linejoin="round"/>
<path d="M22.0815 125.556C22.0815 123.972 20.8028 122.688 19.2256 122.688C17.6483 122.688 16.3696 123.972 16.3696 125.556V131.723C16.3696 133.306 17.6483 134.59 19.2256 134.59C20.8028 134.59 22.0815 133.306 22.0815 131.723V125.556Z" fill="white" stroke="#2D2D30" stroke-width="1.05" stroke-linejoin="round"/>
<path d="M38.1205 125.556C38.1205 123.972 36.8419 122.688 35.2646 122.688C33.6873 122.688 32.4087 123.972 32.4087 125.556V131.723C32.4087 133.306 33.6873 134.59 35.2646 134.59C36.8419 134.59 38.1205 133.306 38.1205 131.723V125.556Z" fill="white" stroke="#2D2D30" stroke-width="1.05" stroke-linejoin="round"/>
<path d="M54.1596 125.556C54.1596 123.972 52.881 122.688 51.3037 122.688C49.7264 122.688 48.4478 123.972 48.4478 125.556V131.723C48.4478 133.306 49.7264 134.59 51.3037 134.59C52.881 134.59 54.1596 133.306 54.1596 131.723V125.556Z" fill="white" stroke="#2D2D30" stroke-width="1.05" stroke-linejoin="round"/>
<path d="M70.1965 125.556C70.1965 123.972 68.9178 122.688 67.3405 122.688C65.7633 122.688 64.4846 123.972 64.4846 125.556V131.723C64.4846 133.306 65.7633 134.59 67.3405 134.59C68.9178 134.59 70.1965 133.306 70.1965 131.723V125.556Z" fill="white" stroke="#2D2D30" stroke-width="1.05" stroke-linejoin="round"/>
<path d="M86.2426 125.556C86.2426 123.972 84.964 122.688 83.3867 122.688C81.8094 122.688 80.5308 123.972 80.5308 125.556V131.723C80.5308 133.306 81.8094 134.59 83.3867 134.59C84.964 134.59 86.2426 133.306 86.2426 131.723V125.556Z" fill="white" stroke="#2D2D30" stroke-width="1.05" stroke-linejoin="round"/>
<path d="M14.4263 142.297H89.9434" stroke="#2D2D30" stroke-width="1.05" stroke-linejoin="round" stroke-dasharray="5.06 5.06"/>
<path d="M91.6982 142.297H93.4194" stroke="#2D2D30" stroke-width="1.05" stroke-linejoin="round"/>
<path d="M69.1777 172.119L71.0794 174.618L75.6253 168.152" stroke="#8AC186" stroke-width="1.05" stroke-linejoin="round"/>
<path d="M37.6824 193.867L39.584 196.359L44.1299 189.899" stroke="#8AC186" stroke-width="1.05" stroke-linejoin="round"/>
<mask id="mask2_201_3439" style="mask-type:alpha" maskUnits="userSpaceOnUse" x="28" y="107" width="284" height="255">
<path d="M269.862 107.455H70.2457C47.2476 107.455 28.604 189.204 28.604 212.269V320.144C28.604 343.209 47.2476 361.907 70.2457 361.907H269.862C292.86 361.907 311.504 343.209 311.504 320.144V212.269C311.504 189.204 292.86 107.455 269.862 107.455Z" fill="#C4C4C4"/>
</mask>
<g mask="url(#mask2_201_3439)">
<path d="M162.802 209.666C162.802 209.666 155.001 210.557 150.615 232.072C147.193 248.86 141.162 284.707 141.162 284.707C141.162 284.707 142.911 304.26 152.523 304.392C162.136 304.524 164.981 294.313 164.981 294.313L174.947 237.821" fill="white"/>
<path d="M162.802 209.666C162.802 209.666 155.001 210.557 150.615 232.072C147.193 248.86 141.162 284.707 141.162 284.707C141.162 284.707 142.911 304.26 152.523 304.392C162.136 304.524 164.981 294.313 164.981 294.313L174.947 237.821" stroke="#2D2D30" stroke-width="1.05" stroke-linecap="round" stroke-linejoin="round"/>
<path d="M150.613 232.072C149.863 235.761 148.85 240.348 147.726 245.255L173.884 254.304L177.541 237.849L162.8 209.666C162.8 209.666 154.999 210.557 150.613 232.072Z" fill="white" stroke="#2D2D30" stroke-width="1.05" stroke-linecap="round" stroke-linejoin="round"/>
<path d="M162.897 235.575L161.246 277.986L179.908 278.466L162.897 235.575Z" fill="#2D2D30"/>
<path d="M165.529 291.669C165.529 291.669 165.793 306.064 153.3 306.064C140.808 306.064 129.849 280.094 129.849 280.094C122.673 264.836 107.571 224.277 107.571 224.277L117.759 219.266C126.67 234.725 148.831 264.627 156.222 274.518" fill="white"/>
<path d="M165.529 291.669C165.529 291.669 165.793 306.064 153.3 306.064C140.808 306.064 129.849 280.094 129.849 280.094C122.673 264.836 107.571 224.277 107.571 224.277L117.759 219.266C126.67 234.725 148.831 264.627 156.222 274.518" stroke="#2D2D30" stroke-width="1.05" stroke-linejoin="round"/>
<path d="M118.009 219.933C118.009 219.933 115.302 208.838 115.08 208.142C114.858 207.446 112.554 203.806 112.554 203.806L106.065 203.708C106.065 203.708 103.483 203.827 102.497 205.142C101.253 206.757 100.094 208.437 99.0271 210.175C98.6732 210.933 98.9647 217.038 98.9647 217.038C98.9647 217.038 104.343 224.151 108.265 224.847" fill="white"/>
<path d="M118.009 219.933C118.009 219.933 115.302 208.838 115.08 208.142C114.858 207.446 112.554 203.806 112.554 203.806L106.065 203.708C106.065 203.708 103.483 203.827 102.497 205.142C101.253 206.757 100.094 208.437 99.0271 210.175C98.6732 210.933 98.9647 217.038 98.9647 217.038C98.9647 217.038 104.343 224.151 108.265 224.847" stroke="#2D2D30" stroke-width="1.05" stroke-linecap="round" stroke-linejoin="round"/>
<path d="M113.331 208.523C113.331 208.523 109.916 200.95 107.14 198.938C104.364 196.927 96.8129 190.586 94.8558 189.89C92.8986 189.194 91.5869 190.864 93.2109 193.147C94.8349 195.43 103.073 202.14 104.357 204.013C105.367 205.619 106.256 207.299 107.015 209.038" fill="white"/>
<path d="M113.331 208.523C113.331 208.523 109.916 200.95 107.14 198.938C104.364 196.927 96.8129 190.586 94.8558 189.89C92.8986 189.194 91.5869 190.864 93.2109 193.147C94.8349 195.43 103.073 202.14 104.357 204.013C105.367 205.619 106.256 207.299 107.015 209.038" stroke="#2D2D30" stroke-width="1.05" stroke-linejoin="round"/>
<path d="M118.009 219.932C118.009 219.932 117.537 208.753 117.217 207.682C116.711 205.976 112.456 200.477 112.068 200.269C111.679 200.06 107.688 203.108 105.648 203.937C103.608 204.765 106.974 206.93 109.375 206.213L111.776 205.517C111.776 205.517 108.001 212.986 111.894 219.438" fill="white"/>
<path d="M118.009 219.932C118.009 219.932 117.537 208.753 117.217 207.682C116.711 205.976 112.456 200.477 112.068 200.269C111.679 200.06 107.688 203.108 105.648 203.937C103.608 204.765 106.974 206.93 109.375 206.213L111.776 205.517C111.776 205.517 108.001 212.986 111.894 219.438" stroke="#2D2D30" stroke-width="1.05" stroke-linejoin="round"/>
<path d="M96.9802 210.138C96.9802 210.138 95.5922 212.692 95.4326 214.259C95.2729 215.825 97.8686 218.609 99.3122 219.054C100.756 219.5 102.56 219.75 103.213 219.361C103.865 218.971 104.302 216.792 104.302 216.792L96.9802 210.138Z" fill="white" stroke="#2D2D30" stroke-width="1.05" stroke-linejoin="round"/>
<path d="M99.0623 205.419C99.0623 205.419 96.425 207.904 96.2862 209.039C96.1474 210.173 97.4799 213.215 97.9935 214.043C98.5071 214.872 102.935 217.642 104.441 217.579C105.947 217.517 108.362 215.199 107.557 213.967C106.752 212.735 99.0623 205.419 99.0623 205.419Z" fill="white" stroke="#2D2D30" stroke-width="1.05" stroke-linejoin="round"/>
<path d="M102.526 202.496C102.526 202.496 99.4094 203.95 98.6321 204.765C97.8548 205.579 99.451 209.47 99.8952 210.723C100.339 211.976 106.211 215.825 107.53 215.136C108.848 214.447 109.473 213.612 109.41 212.679C109.275 211.62 109.083 210.57 108.834 209.533L106.412 208.948L106.121 209.686L103.692 207.869L105.656 206.407" fill="white"/>
<path d="M102.526 202.496C102.526 202.496 99.4094 203.95 98.6321 204.765C97.8548 205.579 99.451 209.47 99.8952 210.723C100.339 211.976 106.211 215.825 107.53 215.136C108.848 214.447 109.473 213.612 109.41 212.679C109.275 211.62 109.083 210.57 108.834 209.533L106.412 208.948L106.121 209.686L103.692 207.869L105.656 206.407" stroke="#2D2D30" stroke-width="1.05" stroke-linejoin="round"/>
<path d="M189.714 178.581L189.978 198.662C189.978 198.662 182.83 221.325 203.269 220.79C223.708 220.254 215.227 195.196 215.227 195.196L208.981 172.539L204.608 160.81L189.714 178.581Z" fill="white" stroke="#2D2D30" stroke-width="1.05" stroke-linecap="round" stroke-linejoin="round"/>
<path d="M189.904 192.711C199.398 185.785 199.107 174.314 199.107 174.314L192.049 175.796L189.717 178.581L189.904 192.711Z" fill="#2D2D30"/>
<path d="M175.654 323.813L141.341 413.528H183.864L221.612 348.836L241.454 335.333L243.231 319.693" fill="#2D2D30"/>
<path d="M243.475 319.399C243.475 319.399 255.634 351.146 241.455 411.39H201.764L198.925 354.522L191.131 352.385" fill="#2D2D30"/>
<path d="M201.764 411.391C201.403 406.658 201.07 401.925 200.799 397.185C200.528 392.445 200.265 387.711 200.001 382.971C199.737 378.231 199.543 373.498 199.307 368.758C199.071 364.018 198.932 359.27 198.745 354.53L198.877 354.697C196.295 353.925 193.699 353.18 191.124 352.386C193.748 353.02 196.35 353.695 198.967 354.349H199.092V354.489C199.376 359.222 199.709 363.955 199.945 368.695C200.181 373.435 200.48 378.168 200.681 382.909C200.882 387.649 201.132 392.389 201.292 397.136C201.451 401.883 201.653 406.644 201.764 411.391Z" fill="white"/>
<path d="M162.822 234.48C166.674 267.849 175.89 323.951 175.89 323.951C175.89 323.951 224.799 328.573 243.211 319.692C246.05 259.086 249.457 193.093 249.457 193.093L216.616 195.111L204.818 203.729L199.959 212.346L194.109 203.109L187.925 199.35C182.005 201.397 164.953 207.167 161.739 210.098" fill="white"/>
<path d="M162.822 234.48C166.674 267.849 175.89 323.951 175.89 323.951C175.89 323.951 224.799 328.573 243.211 319.692C246.05 259.086 249.457 193.093 249.457 193.093L216.616 195.111L204.818 203.729L199.959 212.346L194.109 203.109L187.925 199.35C182.005 201.397 164.953 207.167 161.739 210.098" stroke="#2D2D30" stroke-width="1.05" stroke-linecap="round" stroke-linejoin="round"/>
<path d="M239.152 241.051L235.432 296.735C235.432 296.735 240.929 308.463 243.226 319.663C244.33 296.095 245.523 271.712 246.571 250.712L239.152 241.051Z" fill="#2D2D30"/>
<path d="M202.298 165.252C202.298 165.252 210.627 161.11 209.794 147.955C208.961 134.799 196.24 123.996 180.235 131.945C180.235 131.945 169.866 138.788 170.991 157.623C167.444 166.866 167.326 168.586 172.115 168.586C172.115 168.586 170.727 184.108 181.207 184.637C189.667 185.068 197.392 178.539 199.876 174.272" fill="white"/>
<path d="M202.298 165.252C202.298 165.252 210.627 161.11 209.794 147.955C208.961 134.799 196.24 123.996 180.235 131.945C180.235 131.945 169.866 138.788 170.991 157.623C167.444 166.866 167.326 168.586 172.115 168.586C172.115 168.586 170.727 184.108 181.207 184.637C189.667 185.068 197.392 178.539 199.876 174.272" stroke="#2D2D30" stroke-width="1.05" stroke-linecap="round" stroke-linejoin="round"/>
<path d="M202.299 155.937C201.147 156.145 200.114 156.777 199.402 157.709C198.691 158.642 198.353 159.807 198.454 160.977C196.372 160.977 195.858 160.914 195.858 160.914L195.678 153.216C195.678 153.216 187.294 148.712 188.356 139.705C188.356 139.705 170.179 143.777 168.632 134.763C167.299 127.03 173.233 121.879 173.233 121.879C173.233 121.879 175.537 125.429 181.506 124.664C184.9 124.218 207.136 120.87 210.919 132.954C210.919 132.954 221.433 135.919 212.571 160.441C211.183 164.311 209.975 166.364 209.503 172.97C208.441 172.852 205.839 171.578 205.839 171.578C205.839 171.578 207.615 156.543 202.299 155.937Z" fill="#2D2D30"/>
<path d="M200.106 158.297C200.106 158.297 202.73 151.517 207.609 153.856C212.488 156.195 205.846 167.227 203.167 168.014C200.488 168.801 200.196 165.362 200.196 165.362" fill="white"/>
<path d="M200.106 158.297C200.106 158.297 202.73 151.517 207.609 153.856C212.488 156.195 205.846 167.227 203.167 168.014C200.488 168.801 200.196 165.362 200.196 165.362" stroke="#2D2D30" stroke-width="1.05" stroke-linecap="round" stroke-linejoin="round"/>
<path d="M201.486 160.112C201.486 160.112 203.436 155.316 206.344 155.56Z" fill="white"/>
<path d="M201.486 160.112C201.486 160.112 203.436 155.316 206.344 155.56" stroke="#2D2D30" stroke-width="1.05" stroke-linecap="round" stroke-linejoin="round"/>
<path d="M172.232 151.867C172.232 151.867 175.536 149.02 180.144 152.222Z" fill="white"/>
<path d="M172.232 151.867C172.232 151.867 175.536 149.02 180.144 152.222" stroke="#2D2D30" stroke-width="1.05" stroke-linecap="round" stroke-linejoin="round"/>
<path d="M173.059 155.123L176.724 157.316" stroke="#2D2D30" stroke-width="1.05" stroke-linecap="round" stroke-linejoin="round"/>
<path d="M173.794 158.798C174.07 158.798 174.294 158.057 174.294 157.142C174.294 156.227 174.07 155.485 173.794 155.485C173.518 155.485 173.294 156.227 173.294 157.142C173.294 158.057 173.518 158.798 173.794 158.798Z" fill="#2D2D30"/>
<path d="M174.766 174.034C174.766 174.034 178.527 174.083 179.194 171.104Z" fill="white"/>
<path d="M174.766 174.034C174.766 174.034 178.527 174.083 179.194 171.104" stroke="#2D2D30" stroke-width="1.05" stroke-linecap="round" stroke-linejoin="round"/>
<path d="M237.923 239.894C243.205 259.21 249.777 285.883 252.921 289.238C257.675 294.312 269.071 295.648 272.479 289.029C275.886 282.409 266.087 229.975 263.831 215.247" fill="white"/>
<path d="M237.923 239.894C243.205 259.21 249.777 285.883 252.921 289.238C257.675 294.312 269.071 295.648 272.479 289.029C275.886 282.409 266.087 229.975 263.831 215.247" stroke="#2D2D30" stroke-width="1.05" stroke-linecap="round" stroke-linejoin="round"/>
<path d="M237.923 239.897C238.575 242.284 239.249 244.769 239.936 247.345L267.766 239.173C266.121 229.094 264.56 220.108 263.81 215.243C262.825 208.755 259.695 192.844 249.062 193.108" fill="white"/>
<path d="M237.923 239.897C238.575 242.284 239.249 244.769 239.936 247.345L267.766 239.173C266.121 229.094 264.56 220.108 263.81 215.243C262.825 208.755 259.695 192.844 249.062 193.108" stroke="#2D2D30" stroke-width="1.05" stroke-linecap="round" stroke-linejoin="round"/>
<path d="M273.116 279.523C273.116 279.523 275.004 290.069 271.346 293.507C267.689 296.946 247.007 298.63 228.206 297.419C209.404 296.208 186.855 295.4 186.855 295.4C186.855 295.4 184.496 287.11 186.737 285.656C214.381 282.934 254.19 275.946 256.793 275.709" fill="white"/>
<path d="M273.116 279.523C273.116 279.523 275.004 290.069 271.346 293.507C267.689 296.946 247.007 298.63 228.206 297.419C209.404 296.208 186.855 295.4 186.855 295.4C186.855 295.4 184.496 287.11 186.737 285.656C214.381 282.934 254.19 275.946 256.793 275.709" stroke="#2D2D30" stroke-width="1.05" stroke-linecap="round" stroke-linejoin="round"/>
<path d="M188.918 295.477C188.918 295.477 180.77 297.384 176.426 292.776C172.081 288.169 171.651 286.992 171.651 286.992L167.737 287.333C167.737 287.333 165.856 292.366 164.266 292.547C162.677 292.728 162.504 289.456 162.504 289.456C162.504 289.456 161.116 289.909 160.352 287.605C159.882 286.341 159.734 284.98 159.922 283.644L162.948 279.266C162.948 279.266 157.396 282.05 156.008 280.289C154.619 278.528 165.974 271.888 165.974 271.888L175.975 270.976L189.293 286.101" fill="white"/>
<path d="M188.918 295.477C188.918 295.477 180.77 297.384 176.426 292.776C172.081 288.169 171.651 286.992 171.651 286.992L167.737 287.333C167.737 287.333 165.856 292.366 164.266 292.547C162.677 292.728 162.504 289.456 162.504 289.456C162.504 289.456 161.116 289.909 160.352 287.605C159.882 286.341 159.734 284.98 159.922 283.644L162.948 279.266C162.948 279.266 157.396 282.05 156.008 280.289C154.619 278.528 165.974 271.888 165.974 271.888L175.975 270.976L189.293 286.101" stroke="#2D2D30" stroke-width="1.05" stroke-linecap="round" stroke-linejoin="round"/>
<path d="M212.841 187.733L204.512 203.547C204.512 203.547 210.71 201.862 215.763 210.125C217.359 197.86 217.623 194.401 217.623 194.401C217.623 194.401 217.359 189.598 212.841 187.733Z" fill="#2D2D30"/>
<path d="M189.715 192.919L194.407 202.796C194.407 202.796 188.299 204.529 187.938 210.571C186.55 201.327 187.113 198.843 187.113 198.843C187.113 198.843 188.299 194.576 189.715 192.919Z" fill="#2D2D30"/>
<path d="M199.995 212.352L199.815 227.456L204.25 227.393" fill="white"/>
<path d="M199.995 212.352L199.815 227.456L204.25 227.393" stroke="#2D2D30" stroke-width="1.05" stroke-linecap="round" stroke-linejoin="round"/>
<path d="M202.117 214.525C202.631 214.525 203.047 214.107 203.047 213.592C203.047 213.077 202.631 212.66 202.117 212.66C201.604 212.66 201.187 213.077 201.187 213.592C201.187 214.107 201.604 214.525 202.117 214.525Z" fill="#2D2D30"/>
<path d="M202.117 222.259C202.631 222.259 203.047 221.841 203.047 221.326C203.047 220.811 202.631 220.394 202.117 220.394C201.604 220.394 201.187 220.811 201.187 221.326C201.187 221.841 201.604 222.259 202.117 222.259Z" fill="#2D2D30"/>
</g>
<path d="M320.916 390.584L318.868 446.77L368.408 420.459L320.916 390.584Z" stroke="#8AC186" stroke-width="2" stroke-linejoin="round"/>
</g>
<g clip-path="url(#clip0_201_3439)">
<path d="M1365.11 461.762C1365.11 424.742 1379.78 389.238 1405.89 363.061C1432 336.884 1467.42 322.178 1504.35 322.178C1522.63 322.178 1540.74 325.788 1557.63 332.803C1574.53 339.818 1589.87 350.1 1602.8 363.062C1615.73 376.023 1625.99 391.411 1632.98 408.346C1639.98 425.281 1643.58 443.432 1643.58 461.762" fill="#8AC186"/>
<path d="M1383.63 429.865C1383.63 429.865 1361.36 403.813 1358.65 375.057" stroke="#2D2D30" stroke-width="1.21" stroke-linecap="round" stroke-linejoin="round"/>
<path d="M1390.06 429.527C1384.03 422.044 1379.71 413.323 1377.41 403.982C1372.79 385.852 1371 337.495 1367.28 323.281" stroke="#2D2D30" stroke-width="1.21" stroke-linecap="round" stroke-linejoin="round"/>
<path d="M1393.09 428.773C1393.09 428.773 1389.29 407.711 1392.1 388.169C1394.9 368.628 1406.78 327.537 1394.64 267.898" stroke="#2D2D30" stroke-width="1.21" stroke-linecap="round" stroke-linejoin="round"/>
<path d="M1396.01 363.419C1396.01 363.419 1385.76 350.497 1389.82 346.521C1393.87 342.546 1398.04 350.08 1397.53 356.173C1397.02 362.266 1396.01 363.419 1396.01 363.419Z" fill="#2D2D30"/>
<path d="M1397.47 429.866C1397.47 429.866 1394.44 421.407 1403.55 392.314C1412.66 363.22 1418.07 319.754 1418.07 319.754" stroke="#2D2D30" stroke-width="1.21" stroke-linecap="round" stroke-linejoin="round"/>
<path d="M1399.16 406.864C1399.16 406.864 1407.09 393.833 1414.52 395.354C1421.94 396.875 1415.02 404.996 1399.49 408.723C1398.82 409.23 1399.16 406.864 1399.16 406.864Z" fill="#2D2D30"/>
<path d="M1404.94 387.909C1404.94 387.909 1409.89 379.093 1414.44 382.522C1418.98 385.951 1408.1 390.891 1405.95 392.541C1404.76 393.424 1403.68 394.445 1402.73 395.583L1404.94 387.909Z" fill="#2D2D30"/>
<path d="M1406.82 380.872C1406.82 380.872 1416.31 376.896 1414.92 372.92C1413.53 368.944 1409.03 373.556 1407.98 375.972C1407.37 377.542 1406.97 379.192 1406.82 380.872Z" fill="#2D2D30"/>
<path d="M1405.8 384.234C1405.24 381.517 1404.26 378.905 1402.89 376.49C1400.61 372.435 1405.1 368.688 1407.14 371.352C1409.17 374.015 1407.51 378.777 1407.51 378.777L1405.8 384.234Z" fill="#2D2D30"/>
<path d="M1410.64 364.482C1410.64 364.482 1414.85 349.841 1422.87 354.155C1430.9 358.469 1409.54 369.72 1409.54 369.72L1410.64 364.482Z" fill="#2D2D30"/>
<path d="M1413.5 348.915C1413.5 348.915 1420.72 336.491 1424.64 341.55C1429.03 347.226 1412.92 352.802 1412.92 352.802L1413.5 348.915Z" fill="#2D2D30"/>
<path d="M1412.74 351.541C1412.74 351.541 1404.9 344.434 1407.59 341.213C1410.29 337.993 1413.93 341.044 1414.1 345.11C1414.27 347.339 1413.8 349.57 1412.74 351.541Z" fill="#2D2D30"/>
<path d="M1415.11 341.043C1415.11 341.043 1431.39 332.336 1427.93 325.736C1424.47 319.136 1417.64 328.44 1416.2 333.43C1415.53 338.728 1415.11 341.043 1415.11 341.043Z" fill="#2D2D30"/>
<path d="M1417.13 328.788C1417.13 328.788 1432.92 318.043 1428.53 312.377C1424.13 306.711 1418.07 322.188 1418.07 322.188L1417.13 328.788Z" fill="#2D2D30"/>
<path d="M1417.13 323.024C1417.13 323.024 1413.09 301.375 1417.98 299.765C1422.86 298.154 1422.28 306.782 1421.6 310.589C1420.93 314.396 1418.14 323.113 1418.14 323.113L1417.13 323.024Z" fill="#2D2D30"/>
<path d="M1391.69 389.938C1391.69 389.938 1381.38 379.343 1385.61 375.347C1389.85 371.351 1392.7 380.237 1392.45 386.072C1391.88 388.736 1391.69 389.938 1391.69 389.938Z" fill="#2D2D30"/>
<path d="M1393.47 378.009C1393.47 378.009 1393.32 349.035 1405.74 353.16C1417.26 356.947 1393.47 378.009 1393.47 378.009Z" fill="#2D2D30"/>
<path d="M1399.41 338.729C1399.41 338.729 1403.08 322.826 1410.81 326.543C1418.53 330.26 1401.06 343.172 1399.16 343.441C1399.41 340.717 1399.41 338.729 1399.41 338.729Z" fill="#2D2D30"/>
<path d="M1398.78 339.185C1398.78 339.185 1386.37 330.299 1390.04 323.828C1393.71 317.357 1399.79 335.13 1399.79 335.13L1398.78 339.185Z" fill="#2D2D30"/>
<path d="M1400.05 327.387C1400.05 327.387 1410.04 321.672 1408.53 316.602C1407.01 311.533 1400.05 318.252 1400.05 322.815V327.387Z" fill="#2D2D30"/>
<path d="M1400.05 319.136C1400.05 319.136 1394.35 300.867 1386.5 307.079C1378.66 313.292 1392.7 324.722 1400.05 322.814C1400.14 321.589 1400.14 320.36 1400.05 319.136V319.136Z" fill="#2D2D30"/>
<path d="M1399.92 315.589C1399.92 315.589 1414.48 308.094 1411.95 300.481C1409.42 292.867 1400.43 305.45 1399.92 312.031C1400.01 313.215 1400.01 314.404 1399.92 315.589V315.589Z" fill="#2D2D30"/>
<path d="M1399.41 307.08C1399.41 307.08 1387.39 301.752 1389.92 292.866C1392.44 283.98 1399.41 298.959 1399.66 303.024C1399.91 307.09 1399.41 307.08 1399.41 307.08Z" fill="#2D2D30"/>
<path d="M1398.65 295.411C1398.65 295.411 1401.94 272.192 1411.44 277.013C1420.94 281.834 1404.5 295.54 1399.16 297.439C1398.9 296.786 1398.73 296.105 1398.65 295.411V295.411Z" fill="#2D2D30"/>
<path d="M1396.76 277.767C1396.76 277.767 1397.13 254.3 1407.89 258.107C1418.65 261.913 1397 280.083 1397 280.083L1396.76 277.767Z" fill="#2D2D30"/>
<path d="M1397.64 288.175C1397.64 288.175 1384.35 280.939 1387.01 274.975C1389.67 269.011 1396.12 275.234 1397.77 284.497C1398.15 287.539 1397.64 288.175 1397.64 288.175Z" fill="#2D2D30"/>
<path d="M1395.02 269.528C1395.02 269.528 1395.53 243.386 1386.66 246.806C1377.8 250.225 1386.62 261.785 1395.02 269.528Z" fill="#2D2D30"/>
<path d="M1381.19 414.271C1381.19 414.271 1376.5 392.831 1387.14 396.002C1397.78 399.173 1381.81 415.166 1381.81 415.166L1381.19 414.271Z" fill="#2D2D30"/>
<path d="M1378.27 407.204C1378.27 407.204 1373.71 401.111 1372.32 403.516C1370.94 405.922 1371.33 409.103 1378.91 409.48C1378.88 408.681 1378.67 407.901 1378.27 407.204V407.204Z" fill="#2D2D30"/>
<path d="M1375.99 396.796C1375.99 396.796 1374.1 384.232 1379.66 385.753C1385.22 387.273 1376.76 398.446 1376.76 398.446L1375.99 396.796Z" fill="#2D2D30"/>
<path d="M1374.98 393.118C1374.98 393.118 1367.89 387.402 1369.54 384.48C1371.18 381.558 1373.5 384.739 1375.24 390.832C1375.86 393.237 1374.98 393.118 1374.98 393.118Z" fill="#2D2D30"/>
<path d="M1373.71 380.297C1373.71 380.297 1376.14 366.382 1383.21 370.526C1389.29 374.085 1374.22 382.713 1374.22 382.713L1373.71 380.297Z" fill="#2D2D30"/>
<path d="M1373.52 379.283C1373.52 379.283 1372.38 365.516 1366.88 367.544C1361.38 369.572 1371 379.859 1373.65 381.569C1373.97 379.73 1373.52 379.283 1373.52 379.283Z" fill="#2D2D30"/>
<path d="M1372.27 365.646C1372.27 365.646 1373.34 341.662 1383.85 344.385C1394.36 347.109 1379.66 367.356 1372.94 369.831C1372.45 367.555 1372.27 365.646 1372.27 365.646Z" fill="#2D2D30"/>
<path d="M1371.82 359.681C1371.82 359.681 1366 342.783 1360.99 346.759C1355.99 350.735 1371.56 361.599 1371.56 361.599L1371.82 359.681Z" fill="#2D2D30"/>
<path d="M1371.69 357.902C1371.69 357.902 1367.39 339.504 1373.39 339.951C1379.4 340.398 1372.07 359.83 1372.07 359.83L1371.69 357.902Z" fill="#2D2D30"/>
<path d="M1369.92 340.199C1369.92 340.199 1388.97 327.278 1382.07 316.722C1375.17 306.166 1369.8 331.323 1369.48 335.886C1369.26 337.337 1369.41 338.822 1369.92 340.199V340.199Z" fill="#2D2D30"/>
<path d="M1369.29 334.931C1369.29 334.931 1364.41 320.847 1359.16 318.372C1353.9 315.897 1346.27 321.861 1352.64 329.226C1359.02 336.591 1369.29 337.029 1369.29 337.029V334.931Z" fill="#2D2D30"/>
<path d="M1367.39 322.943C1367.39 322.943 1356.63 313.302 1356.48 300.927C1356.33 288.552 1368.19 287.856 1370.97 294.327C1373.74 300.797 1369.71 307.656 1369.07 312.089C1368.44 316.522 1367.39 322.943 1367.39 322.943Z" fill="#2D2D30"/>
<path d="M1368.47 327.795C1368.47 327.795 1376.82 313.264 1370.68 309.655C1364.54 306.047 1363.65 320.182 1367.64 326.782C1368.25 327.706 1368.47 327.795 1368.47 327.795Z" fill="#2D2D30"/>
<path d="M1366.17 401.915C1366.17 401.915 1363.55 389.431 1370.21 391.34C1376.88 393.248 1367.48 403.734 1367.48 403.734L1366.17 401.915Z" fill="#2D2D30"/>
<path d="M1363.12 394.083C1363.12 394.083 1359.16 385.137 1354.61 385.336C1350.06 385.535 1349.03 389.223 1353.62 392.433C1356.45 394.369 1359.84 395.322 1363.27 395.147L1363.12 394.083Z" fill="#2D2D30"/>
<path d="M1360.39 386.18C1360.39 386.18 1359.54 374.083 1364.98 374.59C1370.41 375.097 1361.01 386.985 1361.01 386.985L1360.39 386.18Z" fill="#2D2D30"/>
<path d="M1359.75 383.596C1359.75 383.596 1356.33 372.344 1351.9 374.422C1347.47 376.499 1354.73 383.367 1359.96 385.166C1360.13 383.596 1359.75 383.596 1359.75 383.596Z" fill="#2D2D30"/>
<path d="M1358.33 376.022C1358.33 376.022 1346.52 360.416 1353.61 357.136C1360.7 353.856 1360.49 370.634 1359.18 376.022C1359.12 376.499 1358.33 376.022 1358.33 376.022Z" fill="#2D2D30"/>
<path d="M1410.42 431.437L1389.67 431.179L1368.9 431.437C1368.9 431.437 1364.22 447.808 1378.91 460.998H1400.43C1415.11 447.808 1410.42 431.437 1410.42 431.437Z" fill="white" stroke="#2D2D30" stroke-linecap="round" stroke-linejoin="round"/>
<path d="M1412.25 426.735H1367.07C1365.36 426.735 1363.97 428.128 1363.97 429.846C1363.97 431.565 1365.36 432.958 1367.07 432.958H1412.25C1413.97 432.958 1415.36 431.565 1415.36 429.846C1415.36 428.128 1413.97 426.735 1412.25 426.735Z" fill="white" stroke="#2D2D30" stroke-linecap="round" stroke-linejoin="round"/>
<path d="M1749.65 318.989L1718.32 460.988H1713.76L1735.78 313.671L1749.65 318.989Z" fill="white" stroke="#2D2D30" stroke-linejoin="round"/>
<path d="M1732.05 338.689L1745.9 335.995L1748.52 324.127L1749.14 318.859L1735.78 313.74L1732.05 338.689Z" fill="#2D2D30"/>
<path d="M1796.95 318.989L1828.28 460.988H1832.84L1810.82 313.671L1796.95 318.989Z" fill="white" stroke="#2D2D30" stroke-linejoin="round"/>
<path d="M1813.53 331.801L1810.87 313.999L1803.93 316.315L1796.95 318.988L1801.51 339.633L1813.53 331.801Z" fill="#2D2D30"/>
<path d="M1814.31 300.699L1873.72 151.99C1873.72 151.99 1889.93 158.739 1882.64 179.583C1875.36 200.426 1842.21 289.029 1842.21 289.029C1841.46 291.037 1840.46 292.941 1839.23 294.695C1836.26 298.293 1830.31 301.096 1814.31 300.699Z" fill="white" stroke="#2D2D30" stroke-linejoin="round"/>
<path d="M1873.73 151.99L1814.09 301.305H1738.84L1805.21 152.139L1873.73 151.99Z" fill="white" stroke="#2D2D30" stroke-linejoin="round"/>
<path d="M1747.1 322.16H1669.56C1669.56 322.16 1662.22 313.731 1663.75 302.847H1737.12L1747.1 322.16Z" fill="#2D2D30"/>
<path d="M1740.02 405.146L1719.64 378.249L1699.61 393.914L1721.74 421.516C1721.74 421.516 1727.42 421.516 1734.13 416.606C1740.84 411.696 1740.02 405.146 1740.02 405.146Z" fill="white" stroke="#2D2D30" stroke-linecap="round" stroke-linejoin="round"/>
<path d="M1738.92 402.95C1738.92 402.95 1751.53 413.377 1754.47 420.285C1745.67 434.956 1731.04 455.859 1728.62 456.714C1726.2 457.569 1700.79 461.048 1697.33 461.048C1695.44 457.589 1696.59 445.502 1714.12 441.854C1716.51 434.611 1718.47 427.237 1720.01 419.768C1720.01 419.768 1736.68 413.824 1738.92 402.95Z" fill="#2D2D30"/>
<path d="M1751.18 415.572C1747.39 421.854 1743.44 428.037 1739.46 434.21L1733.4 443.394C1732.4 444.915 1731.41 446.455 1730.31 447.956L1728.72 450.203C1728.17 450.986 1727.58 451.736 1726.94 452.449L1726.86 452.528H1726.71L1719.22 453.721C1716.73 454.129 1714.26 454.477 1711.72 454.864C1709.18 455.252 1706.76 455.63 1704.21 455.968L1696.69 456.962L1704.15 455.53C1706.62 455.043 1709.1 454.626 1711.61 454.169C1714.12 453.711 1716.57 453.254 1719.09 452.837L1726.56 451.574L1726.34 451.674C1726.86 451.087 1727.41 450.302 1727.94 449.576L1729.5 447.32L1732.61 442.797L1738.76 433.673C1742.89 427.679 1747.02 421.596 1751.18 415.572Z" fill="white"/>
<path d="M1726.6 381.797L1702.55 401.846C1702.55 401.846 1629.38 315.559 1620.78 300.341C1612.17 285.123 1609.14 260.234 1643.06 254.618C1676.98 249.002 1729.64 250.553 1729.64 250.553L1776.24 253.605C1776.24 253.605 1782.32 298.264 1743.84 298.264C1705.36 298.264 1663.31 291.763 1663.31 291.763L1726.6 381.797Z" fill="#2D2D30"/>
<path d="M1743.82 298.304C1737.07 298.304 1730.34 298.255 1723.6 297.976C1716.86 297.698 1710.13 297.29 1703.42 296.754C1696.71 296.217 1689.99 295.611 1683.28 294.845C1676.58 294.08 1669.9 293.245 1663.22 292.271L1663.68 291.535L1679.54 314.029L1695.33 336.562L1711.03 359.145L1726.64 381.798L1710.6 359.453L1694.65 337.049L1678.78 314.576L1662.92 292.072L1662.29 291.177L1663.37 291.336C1670.03 292.33 1676.71 293.205 1683.39 293.99C1690.07 294.776 1696.78 295.471 1703.48 296.078C1710.18 296.684 1716.91 297.151 1723.63 297.569C1730.35 297.986 1737.1 298.195 1743.82 298.304Z" fill="white"/>
<path d="M1566.61 439.238L1581.73 417.013L1561.6 404.23L1546.73 425.104C1546.73 425.104 1544.3 435.382 1551.36 439.705C1558.42 444.029 1566.61 439.238 1566.61 439.238Z" fill="white" stroke="#2D2D30" stroke-linejoin="round"/>
<path d="M1568.24 437.718C1568.24 437.718 1560.61 457.677 1551.28 461.474C1531.86 449.387 1492.19 423.822 1492.19 423.822C1492.19 423.822 1496.51 407.422 1523.38 421.586C1531.34 422.733 1539.38 423.225 1547.42 423.057C1547.42 423.057 1548.43 436.684 1568.24 437.718Z" fill="#2D2D30"/>
<path d="M1495.64 418.992C1500.98 421.815 1506.25 424.737 1511.51 427.679C1516.76 430.621 1522 433.643 1527.25 436.625C1532.51 439.607 1537.7 442.668 1542.89 445.74L1550.67 450.372C1553.24 451.942 1555.84 453.483 1558.4 455.083C1555.73 453.682 1553.08 452.22 1550.47 450.789L1542.53 446.406C1537.26 443.424 1532.03 440.442 1526.79 437.46C1521.54 434.478 1516.34 431.417 1511.14 428.335C1505.95 425.254 1500.77 422.222 1495.64 418.992Z" fill="white"/>
<path d="M1799.17 256.347C1799.17 256.347 1802.6 292.567 1781.16 301.076C1759.72 309.584 1670.03 310.379 1670.03 310.379L1579.8 423.821C1579.8 423.821 1560.9 410.959 1555.49 405.93C1555.49 405.93 1646.64 273.96 1651.36 269.229C1656.07 264.497 1766.13 253.325 1766.13 253.325" fill="#2D2D30"/>
<path d="M1624.64 306.373L1636.1 289.675C1639.96 284.138 1643.83 278.602 1647.8 273.135C1648.79 271.763 1649.78 270.411 1650.89 269.07C1651.05 268.881 1651.25 268.72 1651.46 268.592C1651.66 268.476 1651.87 268.373 1652.08 268.284C1652.49 268.105 1652.89 267.976 1653.3 267.837C1654.12 267.579 1654.93 267.35 1655.76 267.151C1659.06 266.346 1662.38 265.75 1665.67 265.163C1672.33 264.03 1679 263.056 1685.67 262.132C1699.04 260.349 1712.42 258.736 1725.83 257.291L1745.94 255.184L1766.07 253.305L1725.91 258.046C1712.53 259.667 1699.14 261.267 1685.81 263.116C1679.14 264.01 1672.46 264.945 1665.82 266.098C1662.51 266.664 1659.19 267.251 1655.91 268.026C1655.09 268.211 1654.29 268.43 1653.5 268.682C1653.11 268.811 1652.71 268.94 1652.35 269.099C1652.16 269.169 1652 269.268 1651.83 269.348C1651.68 269.436 1651.55 269.547 1651.43 269.676C1650.37 270.898 1649.36 272.29 1648.35 273.652C1644.31 279.049 1640.42 284.536 1636.45 290.013L1624.64 306.373Z" fill="white"/>
<path d="M1781.16 301.097C1776.76 302.67 1772.23 303.832 1767.62 304.566C1763.03 305.401 1758.41 306.017 1753.74 306.554C1744.47 307.618 1735.18 308.373 1725.87 308.94C1716.56 309.506 1707.26 309.934 1697.94 310.252C1688.62 310.57 1679.31 310.749 1669.99 310.828L1670.31 310.669L1655.32 329.267L1640.24 347.784L1654.89 328.899L1669.65 310.113L1669.78 309.954H1669.98C1679.28 309.821 1688.59 309.586 1697.91 309.248C1707.22 308.92 1716.52 308.562 1725.82 308.025C1735.12 307.489 1744.41 306.862 1753.67 305.928C1758.3 305.451 1762.93 304.934 1767.55 304.208C1772.17 303.593 1776.73 302.551 1781.16 301.097V301.097Z" fill="white"/>
<path d="M1738.84 300.699H1831.82C1831.82 300.699 1832.28 322.159 1805.52 322.159H1747.1C1747.1 322.159 1720.95 323.431 1719.34 308.721C1732.77 306.921 1738.84 300.699 1738.84 300.699Z" fill="white" stroke="#2D2D30" stroke-linejoin="round"/>
<path d="M1555.42 254.289L1572.56 461.503H1567.25L1540.75 255.114L1555.42 254.289Z" fill="white" stroke="#2D2D30" stroke-linejoin="round"/>
<path d="M1555.42 254.289L1540.75 255.114L1543.65 279.864L1556.7 271.416L1555.42 254.289Z" fill="#2D2D30"/>
<path d="M1854.35 254.289L1871.48 461.503H1866.18L1839.67 255.114L1854.35 254.289Z" fill="white" stroke="#2D2D30" stroke-linejoin="round"/>
<path d="M1854.35 254.289L1839.67 255.114L1842.83 282.061L1855.84 273.97L1854.35 254.289Z" fill="#2D2D30"/>
<path d="M1800.42 100.592C1800.33 101.646 1804.5 127.111 1806.78 130.908C1809.06 134.705 1824.44 137.389 1824.44 137.389C1824.44 137.389 1812.84 178.798 1781.75 179.941C1750.67 181.084 1753.69 140.411 1753.69 140.411L1777.58 133.184L1778.34 107.719C1778.34 107.719 1779.33 86.5769 1786.27 82.2531C1796.6 75.8519 1800.42 100.592 1800.42 100.592Z" fill="white" stroke="#2D2D30" stroke-linecap="round" stroke-linejoin="round"/>
<path d="M1793.77 107.133L1778.15 114.091L1777.58 133.185L1765.1 136.952C1768.19 137.638 1772.71 137.37 1779.09 134.358C1794.11 127.261 1793.77 107.133 1793.77 107.133Z" fill="#2D2D30"/>
<path d="M1757.21 66.6884C1757.21 66.6884 1752.66 81.9856 1761.45 86.1305C1770.23 90.2754 1765.48 65.2769 1757.21 66.6884Z" fill="#2D2D30"/>
<path d="M1797.82 92.2221C1797.82 92.2221 1798.67 68.5655 1787.9 65.176C1777.13 61.7866 1761.43 66.5775 1759.98 73.9926C1759.98 73.9926 1759.31 86.9142 1759.34 89.6576C1759.38 92.401 1760.95 121.982 1776.49 122.588C1788.04 123.035 1793.69 108.841 1793.69 108.841" fill="white"/>
<path d="M1797.82 92.2221C1797.82 92.2221 1798.67 68.5655 1787.9 65.176C1777.13 61.7866 1761.43 66.5775 1759.98 73.9926C1759.98 73.9926 1759.31 86.9142 1759.34 89.6576C1759.38 92.401 1760.95 121.982 1776.49 122.588C1788.04 123.035 1793.69 108.841 1793.69 108.841" stroke="#2D2D30" stroke-linecap="round" stroke-linejoin="round"/>
<path d="M1793.24 94.479L1791.32 94.6281L1791.41 89.3699C1791.41 89.3699 1787.36 81.0703 1785.84 74.4603C1774.45 76.4483 1765.33 76.2395 1760.06 71.9257C1754.78 67.6118 1755.39 60.8329 1758.54 59.2326C1764.87 56.0221 1775.66 57.7119 1783.26 58.9841C1787.87 59.704 1792.58 58.7106 1796.51 56.1911C1796.51 56.1911 1794.42 60.664 1795.12 60.8826C1797.91 61.7772 1800.4 58.8251 1800.4 58.8251C1800.4 58.8251 1800.03 61.9959 1798.42 63.3775C1801.34 65.7233 1810.91 68.3474 1801.4 103.902C1798.83 104.24 1797.73 104.28 1797.73 104.28C1797.73 104.28 1799.08 92.6501 1797.22 91.9742C1795.37 91.2983 1793.73 91.3082 1793.24 94.479Z" fill="#2D2D30"/>
<path d="M1768.83 90.3144C1769.21 90.7178 1769.49 91.1977 1769.66 91.7211C1769.83 92.2445 1769.89 92.7989 1769.82 93.3461C1769.44 94.9066 1768.37 101.298 1768.37 101.298C1768.37 101.298 1768.37 103.435 1774.84 101.457" stroke="#2D2D30" stroke-linecap="round" stroke-linejoin="round"/>
<path d="M1794.13 94.4781C1794.13 94.4781 1796.94 88.1067 1801.51 90.5718C1806.09 93.0368 1799.21 103.285 1796.56 103.921C1793.9 104.557 1793.84 101.237 1793.84 101.237" fill="white"/>
<path d="M1794.13 94.4781C1794.13 94.4781 1796.94 88.1067 1801.51 90.5718C1806.09 93.0368 1799.21 103.285 1796.56 103.921C1793.9 104.557 1793.84 101.237 1793.84 101.237" stroke="#2D2D30" stroke-linecap="round" stroke-linejoin="round"/>
<path d="M1795.36 96.2977C1795.36 96.2977 1797.45 91.795 1800.2 92.1627Z" fill="white"/>
<path d="M1795.36 96.2977C1795.36 96.2977 1797.45 91.795 1800.2 92.1627" stroke="#2D2D30" stroke-linecap="round" stroke-linejoin="round"/>
<path d="M1779.74 106.655C1776.5 110.581 1769.26 109.061 1769.26 109.061" stroke="#2D2D30" stroke-linecap="round" stroke-linejoin="round"/>
<path d="M1775.11 87.4413C1775.11 87.4413 1779.69 81.5968 1786.02 85.4534" stroke="#2D2D30" stroke-linecap="round" stroke-linejoin="round"/>
<path d="M1767.74 87.4216C1767.74 87.4216 1764.24 83.8334 1759.27 87.362" stroke="#2D2D30" stroke-linecap="round" stroke-linejoin="round"/>
<path d="M1763.66 94.0327C1764.51 94.0327 1765.2 93.3385 1765.2 92.4821C1765.2 91.6258 1764.51 90.9315 1763.66 90.9315C1762.8 90.9315 1762.11 91.6258 1762.11 92.4821C1762.11 93.3385 1762.8 94.0327 1763.66 94.0327Z" fill="#2D2D30"/>
<path d="M1779.72 92.73C1780.58 92.73 1781.27 92.0358 1781.27 91.1794C1781.27 90.323 1780.58 89.6288 1779.72 89.6288C1778.87 89.6288 1778.17 90.323 1778.17 91.1794C1778.17 92.0358 1778.87 92.73 1779.72 92.73Z" fill="#2D2D30"/>
<path d="M1776.88 91.5168C1776.88 91.5168 1778.46 87.9882 1783.49 90.5228" stroke="#2D2D30" stroke-linecap="round" stroke-linejoin="round"/>
<path d="M1766.54 92.1327C1765.73 91.3606 1764.65 90.937 1763.53 90.9518C1762.41 90.9667 1761.34 91.4188 1760.54 92.2123" stroke="#2D2D30" stroke-linecap="round" stroke-linejoin="round"/>
<path d="M1762.49 100.125C1766.37 100.125 1769.52 96.9696 1769.52 93.0775C1769.52 89.1854 1766.37 86.0302 1762.49 86.0302C1758.6 86.0302 1755.46 89.1854 1755.46 93.0775C1755.46 96.9696 1758.6 100.125 1762.49 100.125Z" stroke="#2D2D30" stroke-miterlimit="10" stroke-linecap="round"/>
<path d="M1780.46 98.5633C1784.35 98.5633 1787.49 95.4081 1787.49 91.516C1787.49 87.6239 1784.35 84.4687 1780.46 84.4687C1776.58 84.4687 1773.43 87.6239 1773.43 91.516C1773.43 95.4081 1776.58 98.5633 1780.46 98.5633Z" stroke="#2D2D30" stroke-miterlimit="10" stroke-linecap="round"/>
<path d="M1787.42 91.0995L1795.59 90.9802" stroke="#2D2D30" stroke-miterlimit="10" stroke-linecap="round"/>
<path d="M1769.74 92.0334C1770.26 91.6576 1770.87 91.4407 1771.51 91.4089C1772.15 91.3772 1772.79 91.5319 1773.35 91.8545" stroke="#2D2D30" stroke-miterlimit="10" stroke-linecap="round"/>
<path d="M1753.21 139.815C1753.21 139.815 1736.47 138.682 1728.42 164.585C1722.91 182.208 1708.91 229.789 1708.91 229.789C1708.91 229.789 1711.18 240.862 1721.46 242.204C1731.73 243.546 1736.06 233.01 1736.06 233.01L1756.54 174.137" fill="white"/>
<path d="M1753.21 139.815C1753.21 139.815 1736.47 138.682 1728.42 164.585C1722.91 182.208 1708.91 229.789 1708.91 229.789C1708.91 229.789 1711.18 240.862 1721.46 242.204C1731.73 243.546 1736.06 233.01 1736.06 233.01L1756.54 174.137" stroke="#2D2D30" stroke-linecap="round" stroke-linejoin="round"/>
<path d="M1720.72 189.84C1716.05 205.446 1711.14 222.105 1709.47 227.77L1716.3 228.088L1720.72 189.84Z" fill="#2D2D30"/>
<path d="M1732 240.871C1729.86 245.015 1726.05 252.222 1708.76 248.127C1691.46 244.031 1668.03 230.712 1668.03 230.712L1670.59 217.731C1670.59 217.731 1714.15 225.146 1717.83 225.553" fill="white"/>
<path d="M1732 240.871C1729.86 245.015 1726.05 252.222 1708.76 248.127C1691.46 244.031 1668.03 230.712 1668.03 230.712L1670.59 217.731C1670.59 217.731 1714.15 225.146 1717.83 225.553" stroke="#2D2D30" stroke-linecap="round" stroke-linejoin="round"/>
<path d="M1647.87 221.022C1647.87 221.022 1631.23 212.653 1627.47 210.248C1623.71 207.842 1619.29 212.087 1626.09 216.629C1629.91 219.156 1633.94 221.329 1638.15 223.12" fill="white"/>
<path d="M1647.87 221.022C1647.87 221.022 1631.23 212.653 1627.47 210.248C1623.71 207.842 1619.29 212.087 1626.09 216.629C1629.91 219.156 1633.94 221.329 1638.15 223.12" stroke="#2D2D30" stroke-linecap="round" stroke-linejoin="round"/>
<path d="M1641.76 219.153C1641.76 219.153 1623.39 216.032 1619.1 214.85C1614.81 213.667 1611.81 219.004 1619.65 221.35C1624.03 222.644 1628.52 223.532 1633.07 224.004" fill="white"/>
<path d="M1641.76 219.153C1641.76 219.153 1623.39 216.032 1619.1 214.85C1614.81 213.667 1611.81 219.004 1619.65 221.35C1624.03 222.644 1628.52 223.532 1633.07 224.004" stroke="#2D2D30" stroke-linecap="round" stroke-linejoin="round"/>
<path d="M1671.9 217.871C1665.27 216.552 1658.55 215.725 1651.8 215.396C1651.8 215.396 1639.83 215.118 1633.95 217.871C1628.07 220.625 1621.17 231.151 1624.82 232.523C1628.47 233.894 1631.4 227.483 1633.6 225.565C1635.8 223.646 1643.1 222.722 1645.38 223.179C1647.66 223.636 1651.23 230.505 1657.8 230.505C1662.13 230.434 1666.44 229.765 1670.59 228.517" fill="white"/>
<path d="M1671.9 217.871C1665.27 216.552 1658.55 215.725 1651.8 215.396C1651.8 215.396 1639.83 215.118 1633.95 217.871C1628.07 220.625 1621.17 231.151 1624.82 232.523C1628.47 233.894 1631.4 227.483 1633.6 225.565C1635.8 223.646 1643.1 222.722 1645.38 223.179C1647.66 223.636 1651.23 230.505 1657.8 230.505C1662.13 230.434 1666.44 229.765 1670.59 228.517" stroke="#2D2D30" stroke-linecap="round" stroke-linejoin="round"/>
<path d="M1658.48 223.725C1658.48 223.725 1648.76 231.209 1643.85 227.76C1640.48 225.375 1650.79 218.815 1650.79 218.815" fill="white"/>
<path d="M1658.48 223.725C1658.48 223.725 1648.76 231.209 1643.85 227.76C1640.48 225.375 1650.79 218.815 1650.79 218.815" stroke="#2D2D30" stroke-linecap="round" stroke-linejoin="round"/>
<path d="M1753.21 139.815C1761.14 137.618 1774.23 134.318 1774.23 134.318C1774.23 134.318 1779.18 134.517 1780.52 138.423C1781.4 141.847 1782.07 145.322 1782.51 148.83C1782.51 148.83 1789.06 140.809 1792.81 138.682C1798.02 135.727 1803.59 133.475 1809.39 131.982C1809.39 131.982 1841.57 140.342 1845.16 142.737C1848.75 145.132 1799.06 255.056 1799.06 255.056H1756.3C1734.12 255.056 1726.55 253.068 1726.55 253.068C1726.55 253.068 1736.12 191.949 1740.11 176.771" fill="white"/>
<path d="M1753.21 139.815C1761.14 137.618 1774.23 134.318 1774.23 134.318C1774.23 134.318 1779.18 134.517 1780.52 138.423C1781.4 141.847 1782.07 145.322 1782.51 148.83C1782.51 148.83 1789.06 140.809 1792.81 138.682C1798.02 135.727 1803.59 133.475 1809.39 131.982C1809.39 131.982 1841.57 140.342 1845.16 142.737C1848.75 145.132 1799.06 255.056 1799.06 255.056H1756.3C1734.12 255.056 1726.55 253.068 1726.55 253.068C1726.55 253.068 1736.12 191.949 1740.11 176.771" stroke="#2D2D30" stroke-linecap="round" stroke-linejoin="round"/>
<path d="M1817.17 214.223L1821.66 170.399C1821.66 170.399 1808.88 211.768 1787.36 217.265C1773.59 220.783 1772.48 227.413 1772.48 227.413C1772.48 227.413 1785.59 244.311 1788.93 254.996H1799.05C1799.05 254.996 1807.5 236.349 1817.17 214.223Z" fill="#2D2D30"/>
<path d="M1785.45 151.688C1785.58 150.974 1785.16 150.303 1784.52 150.188C1783.88 150.073 1783.25 150.558 1783.12 151.271C1783 151.985 1783.41 152.656 1784.06 152.771C1784.7 152.886 1785.32 152.401 1785.45 151.688Z" fill="#2D2D30"/>
<path d="M1779.98 173.08C1780.1 172.367 1779.69 171.695 1779.04 171.58C1778.4 171.465 1777.78 171.95 1777.65 172.664C1777.53 173.377 1777.94 174.048 1778.58 174.163C1779.23 174.278 1779.85 173.793 1779.98 173.08Z" fill="#2D2D30"/>
<path d="M1774.52 194.464C1774.64 193.75 1774.23 193.079 1773.59 192.964C1772.94 192.849 1772.32 193.334 1772.19 194.047C1772.07 194.76 1772.48 195.432 1773.13 195.547C1773.77 195.662 1774.39 195.177 1774.52 194.464Z" fill="#2D2D30"/>
<path d="M1769.06 215.856C1769.19 215.143 1768.77 214.471 1768.13 214.356C1767.49 214.241 1766.86 214.726 1766.74 215.439C1766.61 216.153 1767.02 216.824 1767.67 216.939C1768.31 217.054 1768.93 216.569 1769.06 215.856Z" fill="#2D2D30"/>
<path d="M1763.59 237.239C1763.72 236.526 1763.3 235.855 1762.66 235.74C1762.02 235.625 1761.39 236.11 1761.27 236.823C1761.14 237.536 1761.56 238.208 1762.2 238.323C1762.84 238.438 1763.46 237.953 1763.59 237.239Z" fill="#2D2D30"/>
<path d="M1805.33 124.467C1805.33 124.467 1803.35 129.963 1792.85 138.68C1799.79 138.8 1801.2 149.336 1801.2 149.336L1809.77 132.08C1808.76 129.296 1807.25 126.717 1805.33 124.467V124.467Z" fill="white" stroke="#2D2D30" stroke-linecap="round" stroke-linejoin="round"/>
<path d="M1777.49 126.017L1773.19 133.889L1772.59 146.572C1772.59 146.572 1774.03 136.841 1780.52 138.452C1778.5 134.108 1777.49 126.017 1777.49 126.017Z" fill="white" stroke="#2D2D30" stroke-linecap="round" stroke-linejoin="round"/>
<path d="M1782.55 148.829L1754.71 254.399" stroke="#2D2D30" stroke-linecap="round" stroke-linejoin="round"/>
<path d="M1828.69 169.872L1808.6 237.979L1834.8 177.864L1828.69 169.872Z" fill="#2D2D30"/>
<path d="M1841.57 141.256C1841.57 141.256 1848.13 142.041 1850.9 150.013C1853.68 157.985 1852.73 173.57 1842.55 198.32C1822.3 247.552 1819.25 253.138 1811.15 254.152C1803.05 255.166 1798.84 242.811 1799.34 236.727C1799.85 230.644 1822.8 167.865 1822.8 167.865" fill="white"/>
<path d="M1841.57 141.256C1841.57 141.256 1848.13 142.041 1850.9 150.013C1853.68 157.985 1852.73 173.57 1842.55 198.32C1822.3 247.552 1819.25 253.138 1811.15 254.152C1803.05 255.166 1798.84 242.811 1799.34 236.727C1799.85 230.644 1822.8 167.865 1822.8 167.865" stroke="#2D2D30" stroke-linecap="round" stroke-linejoin="round"/>
<path d="M1751.98 206.927C1751.98 206.927 1744.71 211.728 1738.53 208.826C1732.36 205.924 1731.46 204.93 1731.46 204.93L1727.68 206.828C1727.68 206.828 1727.77 212.623 1726.28 213.418C1724.78 214.213 1723.3 211.023 1723.3 211.023C1723.3 211.023 1722.1 212.017 1720.41 210.029C1719.44 208.948 1718.76 207.643 1718.42 206.232L1719.72 200.636C1719.72 200.636 1715.24 205.605 1713.15 204.433C1711.06 203.26 1719.82 192.048 1719.82 192.048L1729.49 187.157L1748.82 197.047C1748.82 197.047 1753.24 203.031 1751.98 206.927Z" fill="white" stroke="#2D2D30" stroke-linecap="round" stroke-linejoin="round"/>
<path d="M1739.2 209.123C1745.2 211.369 1751.94 206.926 1751.94 206.926C1753.24 203.03 1748.75 197.046 1748.75 197.046L1740.53 192.842C1741.95 193.768 1743.1 195.055 1743.86 196.57C1744.62 198.086 1744.97 199.776 1744.87 201.469C1744.67 205.674 1740.84 208.208 1739.2 209.123Z" fill="#2D2D30"/>
<path d="M1808.21 253.873C1808.21 253.873 1802.5 253.466 1781.9 237.323C1761.31 221.181 1744.77 209.989 1744.77 209.989C1744.77 209.989 1746.65 208.995 1747.67 203.031C1748.01 200.827 1748.06 198.587 1747.8 196.372C1747.8 196.372 1809.8 222.294 1814.7 225.366" fill="white"/>
<path d="M1808.21 253.873C1808.21 253.873 1802.5 253.466 1781.9 237.323C1761.31 221.181 1744.77 209.989 1744.77 209.989C1744.77 209.989 1746.65 208.995 1747.67 203.031C1748.01 200.827 1748.06 198.587 1747.8 196.372C1747.8 196.372 1809.8 222.294 1814.7 225.366" stroke="#2D2D30" stroke-linecap="round" stroke-linejoin="round"/>
<path d="M1753.25 199.899C1753.25 199.899 1756.79 207.772 1749.45 213.229Z" fill="white"/>
<path d="M1753.25 199.899C1753.25 199.899 1756.79 207.772 1749.45 213.229" stroke="#2D2D30" stroke-linecap="round" stroke-linejoin="round"/>
<path d="M1596.72 249.24L1737.43 249.24C1738.98 249.24 1740.23 247.985 1740.23 246.437V246.427C1740.23 244.879 1738.98 243.624 1737.43 243.624L1596.72 243.624C1595.18 243.624 1593.93 244.879 1593.93 246.427V246.437C1593.93 247.985 1595.18 249.24 1596.72 249.24Z" fill="#2D2D30"/>
<path d="M1593.27 250.394L1738.84 250.394C1740.38 250.394 1741.64 249.139 1741.64 247.591V247.581C1741.64 246.033 1740.38 244.778 1738.84 244.778L1593.27 244.778C1591.73 244.778 1590.47 246.033 1590.47 247.581V247.591C1590.47 249.139 1591.73 250.394 1593.27 250.394Z" fill="white" stroke="#2D2D30" stroke-linejoin="round"/>
<path d="M1656.56 174.663H1572.28C1569.44 174.663 1566.27 177.884 1566.96 179.862L1591.48 240.902C1591.69 241.485 1592.08 241.987 1592.59 242.343C1593.1 242.698 1593.71 242.889 1594.33 242.889L1679.27 244.877C1681.4 244.877 1684.86 242.233 1683.75 238.735L1659.36 176.552C1659.14 175.99 1658.75 175.509 1658.25 175.172C1657.75 174.835 1657.16 174.657 1656.56 174.663V174.663Z" fill="#2D2D30"/>
<path d="M1654.24 176.711H1569.96C1569.47 176.71 1569 176.826 1568.57 177.049C1568.14 177.272 1567.77 177.595 1567.49 177.992C1567.21 178.388 1567.02 178.846 1566.96 179.327C1566.89 179.809 1566.94 180.299 1567.1 180.757L1589.16 242.95C1589.36 243.538 1589.75 244.046 1590.26 244.402C1590.77 244.759 1591.38 244.946 1592 244.937H1678.6C1679.1 244.95 1679.59 244.837 1680.03 244.61C1680.47 244.383 1680.85 244.049 1681.13 243.638C1681.41 243.227 1681.59 242.752 1681.64 242.257C1681.69 241.761 1681.61 241.262 1681.42 240.803L1657.03 178.61C1656.8 178.053 1656.42 177.575 1655.92 177.237C1655.42 176.899 1654.84 176.716 1654.24 176.711V176.711Z" fill="white" stroke="#2D2D30" stroke-linejoin="round"/>
<path d="M1629.49 214.024C1629.74 210.812 1626.65 207.947 1622.57 207.626C1618.5 207.305 1615 209.648 1614.74 212.861C1614.49 216.073 1617.59 218.938 1621.66 219.259C1625.73 219.581 1629.24 217.237 1629.49 214.024Z" fill="#8AC186"/>
<path d="M1472.23 254.289L1455.11 461.503H1460.4L1486.92 255.114L1472.23 254.289Z" fill="white" stroke="#2D2D30" stroke-linejoin="round"/>
<path d="M1470.21 281.107L1484.55 275.292L1486.92 255.114L1472.23 254.289L1470.21 281.107Z" fill="#2D2D30"/>
<path d="M1769.12 254.289L1752 461.503H1757.29L1783.81 255.114L1769.12 254.289Z" fill="white" stroke="#2D2D30" stroke-linejoin="round"/>
<path d="M1880.04 250.821H1753.83V257.978H1880.04V250.821Z" fill="white" stroke="#2D2D30" stroke-linejoin="round"/>
<path d="M1454.3 257.979L1753.83 257.979V250.822L1454.3 250.822V257.979Z" fill="white" stroke="#2D2D30" stroke-linejoin="round"/>
<path d="M1917 461.505H1156" stroke="#2D2D30" stroke-linejoin="round"/>
<path opacity="0.1" d="M1836.49 90.4602C1834.26 98.7612 1835.43 107.608 1839.75 115.054C1844.06 122.501 1851.15 127.937 1859.48 130.167C1867.8 132.396 1876.66 131.237 1884.12 126.944C1891.58 122.651 1897.01 115.576 1899.24 107.275C1901.46 98.9727 1900.29 90.1249 1895.98 82.677C1891.67 75.2291 1884.57 69.791 1876.25 67.5585C1867.93 65.3311 1859.06 66.4924 1851.61 70.7871C1844.15 75.0817 1838.71 82.1582 1836.49 90.4602V90.4602ZM1886.52 103.866C1885.19 108.799 1881.96 113.003 1877.53 115.553C1873.09 118.104 1867.82 118.792 1862.88 117.467C1860.43 116.814 1858.13 115.685 1856.11 114.145C1854.09 112.605 1852.4 110.684 1851.13 108.491C1849.86 106.299 1849.03 103.879 1848.69 101.368C1848.36 98.8578 1848.52 96.3069 1849.18 93.8611C1850.5 88.9257 1853.73 84.719 1858.17 82.1666C1862.6 79.6141 1867.87 78.9249 1872.82 80.2506C1875.27 80.907 1877.57 82.0383 1879.58 83.58C1881.59 85.1216 1883.28 87.0434 1884.55 89.2356C1885.82 91.4278 1886.64 93.8474 1886.98 96.3563C1887.31 98.8653 1887.14 101.414 1886.49 103.858L1886.52 103.866Z" fill="white" stroke="#2D2D30" stroke-linecap="round" stroke-linejoin="round"/>
<g style="mix-blend-mode:multiply">
<path d="M1876.22 67.5511C1867.9 65.3326 1859.04 66.4993 1851.59 70.7948C1844.14 75.0903 1838.71 82.1634 1836.49 90.4604L1849.18 93.8614C1850.5 88.926 1853.74 84.7193 1858.17 82.1668C1862.6 79.6144 1867.87 78.9252 1872.82 80.2509L1876.22 67.5511Z" fill="#8E96EB"/>
</g>
</g>
<defs>
<clipPath id="clip0_201_3439">
<rect width="761" height="419" fill="white" transform="translate(1156 43)"/>
</clipPath>
</defs>
</svg>
