<svg width="32" height="32" viewBox="0 0 32 32" fill="none" xmlns="http://www.w3.org/2000/svg">
<path d="M6.7481 27.89L7.18779 27.2824L6.7481 27.89ZM5.27322 26.421L5.87914 25.979L5.27322 26.421ZM26.7268 26.421L26.1209 25.979L26.7268 26.421ZM25.2519 27.89L24.8122 27.2824L25.2519 27.89ZM25.2519 3.8658L24.8122 4.4734L25.2519 3.8658ZM26.7268 5.33481L26.1209 5.7768L26.7268 5.33481ZM6.7481 3.8658L7.18779 4.4734L6.7481 3.8658ZM5.27322 5.33481L5.87914 5.7768L5.27322 5.33481ZM24.5873 3.46267L24.9239 2.79245L24.5873 3.46267ZM8.09629 3.17692L8.34005 3.88621L8.09629 3.17692ZM27.25 14.5499V17.2059H28.75V14.5499H27.25ZM4.75 17.2059V14.5499H3.25V17.2059H4.75ZM16 28.4081C13.4835 28.4081 11.6562 28.4071 10.2368 28.2539C8.83129 28.1022 7.91497 27.8086 7.18779 27.2824L6.30841 28.4976C7.33366 29.2395 8.54347 29.5799 10.0759 29.7453C11.5944 29.9091 13.5168 29.9081 16 29.9081V28.4081ZM3.25 17.2059C3.25 19.679 3.24896 21.5943 3.41355 23.1074C3.57968 24.6347 3.92179 25.8409 4.6673 26.8629L5.87914 25.979C5.35143 25.2555 5.05693 24.3441 4.90475 22.9452C4.75104 21.532 4.75 19.7125 4.75 17.2059H3.25ZM7.18779 27.2824C6.6855 26.9189 6.2439 26.479 5.87914 25.979L4.6673 26.8629C5.12493 27.4903 5.67877 28.0419 6.30841 28.4976L7.18779 27.2824ZM27.25 17.2059C27.25 19.7125 27.249 21.532 27.0952 22.9452C26.9431 24.3441 26.6486 25.2555 26.1209 25.979L27.3327 26.8629C28.0782 25.8409 28.4203 24.6347 28.5865 23.1074C28.751 21.5943 28.75 19.679 28.75 17.2059H27.25ZM16 29.9081C18.4832 29.9081 20.4056 29.9091 21.9241 29.7453C23.4565 29.5799 24.6663 29.2395 25.6916 28.4976L24.8122 27.2824C24.085 27.8086 23.1687 28.1022 21.7632 28.2539C20.3438 28.4071 18.5165 28.4081 16 28.4081V29.9081ZM26.1209 25.979C25.7561 26.479 25.3145 26.9189 24.8122 27.2824L25.6916 28.4976C26.3212 28.0419 26.8751 27.4903 27.3327 26.8629L26.1209 25.979ZM28.75 14.5499C28.75 12.0768 28.751 10.1615 28.5865 8.64838C28.4203 7.12108 28.0782 5.91483 27.3327 4.89282L26.1209 5.7768C26.6486 6.50025 26.9431 7.41166 27.0952 8.81059C27.249 10.2237 27.25 12.0432 27.25 14.5499H28.75ZM24.8122 4.4734C25.3145 4.83688 25.7561 5.27675 26.1209 5.7768L27.3327 4.89282C26.8751 4.26544 26.3212 3.71385 25.6916 3.25821L24.8122 4.4734ZM4.75 14.5499C4.75 12.0432 4.75104 10.2237 4.90475 8.81059C5.05693 7.41166 5.35143 6.50025 5.87914 5.7768L4.6673 4.89282C3.92179 5.91483 3.57968 7.12108 3.41355 8.64838C3.24896 10.1615 3.25 12.0768 3.25 14.5499H4.75ZM6.30841 3.25821C5.67877 3.71385 5.12493 4.26545 4.6673 4.89282L5.87914 5.7768C6.2439 5.27675 6.6855 4.83688 7.18779 4.4734L6.30841 3.25821ZM16 3.34766C18.2118 3.34766 19.8942 3.34818 21.2397 3.4535C22.5828 3.55862 23.5167 3.76426 24.2507 4.13288L24.9239 2.79245C23.9356 2.29607 22.7765 2.0692 21.3567 1.95807C19.9394 1.84713 18.1892 1.84766 16 1.84766V3.34766ZM24.2507 4.13288C24.4497 4.23282 24.6357 4.34563 24.8122 4.4734L25.6916 3.25821C25.4485 3.08231 25.1935 2.92782 24.9239 2.79245L24.2507 4.13288ZM16 1.84766C14.0824 1.84766 12.5038 1.84739 11.1941 1.92125C9.8851 1.99508 8.79167 2.14489 7.85254 2.46764L8.34005 3.88621C9.08646 3.62969 10.0197 3.48987 11.2785 3.41887C12.5367 3.34792 14.0672 3.34766 16 3.34766V1.84766ZM7.85254 2.46764C7.28635 2.66222 6.77677 2.91928 6.30841 3.25821L7.18779 4.4734C7.52506 4.22934 7.90008 4.03741 8.34005 3.88621L7.85254 2.46764Z" fill="#7B46B5"/>
<path d="M15 9H18" stroke="#7B46B5" stroke-width="1.5" stroke-linecap="round"/>
<path d="M15 16H21" stroke="#7B46B5" stroke-width="1.5" stroke-linecap="round"/>
<path d="M15 23H24" stroke="#7B46B5" stroke-width="1.5" stroke-linecap="round"/>
<path d="M11.7803 18.1113V19H8.30762V18.248L9.90723 16.5664C10.0485 16.4046 10.1624 16.2599 10.249 16.1323C10.3356 16.0024 10.3983 15.8851 10.437 15.7803C10.478 15.6755 10.4985 15.5809 10.4985 15.4966C10.4985 15.353 10.4769 15.2334 10.4336 15.1377C10.3926 15.0397 10.3311 14.9657 10.249 14.9155C10.1693 14.8654 10.0701 14.8403 9.95166 14.8403C9.83317 14.8403 9.72949 14.8745 9.64062 14.9429C9.55176 15.0112 9.48226 15.1047 9.43213 15.2231C9.38428 15.3416 9.36035 15.4749 9.36035 15.623H8.20508C8.20508 15.3177 8.27913 15.0386 8.42725 14.7856C8.57764 14.5327 8.78613 14.3311 9.05273 14.1807C9.31934 14.028 9.62809 13.9517 9.979 13.9517C10.3459 13.9517 10.6535 14.0086 10.9019 14.1226C11.1502 14.2365 11.3371 14.4017 11.4624 14.6182C11.59 14.8324 11.6538 15.091 11.6538 15.394C11.6538 15.5672 11.6265 15.7336 11.5718 15.8931C11.5171 16.0526 11.4385 16.2109 11.3359 16.3682C11.2334 16.5231 11.1081 16.6826 10.96 16.8467C10.8141 17.0107 10.6478 17.1851 10.4609 17.3696L9.81836 18.1113H11.7803Z" fill="#7B46B5"/>
<path d="M9.35693 23.0298H9.91748C10.061 23.0298 10.1784 23.0047 10.2695 22.9546C10.363 22.9022 10.4325 22.8293 10.478 22.7358C10.5236 22.6401 10.5464 22.5273 10.5464 22.3975C10.5464 22.2972 10.5247 22.2049 10.4814 22.1206C10.4404 22.0363 10.3766 21.9691 10.29 21.9189C10.2035 21.8665 10.0929 21.8403 9.9585 21.8403C9.86735 21.8403 9.77848 21.8597 9.69189 21.8984C9.60531 21.9349 9.53353 21.9873 9.47656 22.0557C9.42188 22.124 9.39453 22.2072 9.39453 22.3052H8.23926C8.23926 22.0226 8.31673 21.7811 8.47168 21.5806C8.62891 21.3778 8.83512 21.2228 9.09033 21.1157C9.34782 21.0063 9.62467 20.9517 9.9209 20.9517C10.2741 20.9517 10.584 21.0063 10.8506 21.1157C11.1172 21.2228 11.3245 21.3823 11.4727 21.5942C11.623 21.8039 11.6982 22.0636 11.6982 22.3735C11.6982 22.5444 11.6584 22.7051 11.5786 22.8555C11.4989 23.0059 11.3872 23.138 11.2437 23.252C11.1001 23.3659 10.9315 23.4559 10.7378 23.522C10.5464 23.5858 10.3368 23.6177 10.1089 23.6177H9.35693V23.0298ZM9.35693 23.8877V23.3135H10.1089C10.3573 23.3135 10.584 23.342 10.7891 23.3989C10.9941 23.4536 11.1707 23.5356 11.3188 23.645C11.467 23.7544 11.5809 23.89 11.6606 24.0518C11.7404 24.2113 11.7803 24.3947 11.7803 24.6021C11.7803 24.8345 11.7336 25.0418 11.6401 25.2241C11.5467 25.4064 11.4157 25.5602 11.2471 25.6855C11.0785 25.8109 10.8813 25.9066 10.6558 25.9727C10.4302 26.0365 10.1852 26.0684 9.9209 26.0684C9.71354 26.0684 9.50618 26.041 9.29883 25.9863C9.09147 25.9294 8.90234 25.8428 8.73145 25.7266C8.56055 25.6081 8.42269 25.4577 8.31787 25.2754C8.21533 25.0908 8.16406 24.8709 8.16406 24.6157H9.31934C9.31934 24.7205 9.34782 24.8162 9.40479 24.9028C9.46403 24.9871 9.54264 25.0544 9.64062 25.1045C9.73861 25.1546 9.84456 25.1797 9.9585 25.1797C10.0998 25.1797 10.2194 25.1535 10.3174 25.1011C10.4176 25.0464 10.494 24.9735 10.5464 24.8823C10.5988 24.7912 10.625 24.6898 10.625 24.5781C10.625 24.4095 10.5965 24.2751 10.5396 24.1748C10.4849 24.0745 10.404 24.0016 10.2969 23.9561C10.1921 23.9105 10.0656 23.8877 9.91748 23.8877H9.35693Z" fill="#7B46B5"/>
<path d="M10.8574 7.02344V12H9.70557V8.32227L8.5708 8.65381V7.77881L10.7515 7.02344H10.8574Z" fill="#7B46B5"/>
</svg>
