<svg width="26" height="30" viewBox="0 0 26 30" fill="none" xmlns="http://www.w3.org/2000/svg">
<path d="M5.48283 25.0759L5.96353 24.5002L5.96353 24.5002L5.48283 25.0759ZM4.28449 23.6987L4.91843 23.2979L4.91843 23.2979L4.28449 23.6987ZM21.7155 23.6987L21.0816 23.2979L21.0816 23.2979L21.7155 23.6987ZM20.5172 25.0759L20.0365 24.5002L20.0365 24.5002L20.5172 25.0759ZM20.5172 5.04326L20.0365 5.61896L20.5172 5.04326ZM21.7155 6.42045L22.3495 6.01968L21.7155 6.42045ZM5.48283 5.04326L5.96353 5.61896L5.48283 5.04326ZM4.28449 6.42045L4.91843 6.82122L4.91843 6.82122L4.28449 6.42045ZM22.7187 11.3245L23.4683 11.3021L22.7187 11.3245ZM11.1042 13.9871C10.69 13.9871 10.3542 14.3229 10.3542 14.7371C10.3542 15.1513 10.69 15.4871 11.1042 15.4871V13.9871ZM18.1458 15.4871C18.56 15.4871 18.8958 15.1513 18.8958 14.7371C18.8958 14.3229 18.56 13.9871 18.1458 13.9871V15.4871ZM10.9688 10.0312C10.5545 10.0312 10.2188 10.367 10.2188 10.7812C10.2188 11.1955 10.5545 11.5312 10.9688 11.5312V10.0312ZM15.0312 11.5312C15.4455 11.5312 15.7812 11.1955 15.7812 10.7812C15.7812 10.367 15.4455 10.0312 15.0312 10.0312V11.5312ZM11.1042 18.4687C10.69 18.4687 10.3542 18.8045 10.3542 19.2187C10.3542 19.633 10.69 19.9687 11.1042 19.9687V18.4687ZM18.1458 19.9687C18.56 19.9687 18.8958 19.633 18.8958 19.2187C18.8958 18.8045 18.56 18.4687 18.1458 18.4687V19.9687ZM13 25.5147C10.9498 25.5147 9.4812 25.5134 8.3447 25.3719C7.22932 25.233 6.52379 24.968 5.96353 24.5002L5.00213 25.6516C5.86573 26.3726 6.88767 26.702 8.15936 26.8604C9.40993 27.0161 10.988 27.0147 13 27.0147V25.5147ZM2.5 15.0596C2.5 17.3792 2.49922 19.1715 2.63262 20.5866C2.76685 22.0104 3.04267 23.1379 3.65055 24.0994L4.91843 23.2979C4.49182 22.6231 4.2504 21.7653 4.126 20.4458C4.00078 19.1175 4 17.4084 4 15.0596H2.5ZM5.96353 24.5002C5.56613 24.1683 5.21269 23.7634 4.91843 23.2979L3.65055 24.0994C4.02449 24.6909 4.47984 25.2155 5.00213 25.6516L5.96353 24.5002ZM22 15.0596C22 17.4084 21.9992 19.1175 21.874 20.4458C21.7496 21.7653 21.5082 22.6231 21.0816 23.2979L22.3495 24.0994C22.9573 23.1379 23.2332 22.0104 23.3674 20.5866C23.5008 19.1715 23.5 17.3792 23.5 15.0596H22ZM13 27.0147C15.012 27.0147 16.5901 27.0161 17.8406 26.8604C19.1123 26.702 20.1343 26.3726 20.9979 25.6516L20.0365 24.5002C19.4762 24.968 18.7707 25.233 17.6553 25.3719C16.5188 25.5134 15.0502 25.5147 13 25.5147V27.0147ZM21.0816 23.2979C20.7873 23.7634 20.4339 24.1683 20.0365 24.5002L20.9979 25.6516C21.5202 25.2155 21.9755 24.6909 22.3495 24.0994L21.0816 23.2979ZM20.0365 5.61896C20.4339 5.95078 20.7873 6.35577 21.0816 6.82122L22.3495 6.01968C21.9755 5.42818 21.5202 4.90366 20.9979 4.46756L20.0365 5.61896ZM13 3.10437C10.988 3.10437 9.40993 3.10302 8.15936 3.25873C6.88767 3.41707 5.86573 3.74647 5.00213 4.46756L5.96353 5.61896C6.52379 5.15116 7.22932 4.88611 8.3447 4.74723C9.4812 4.60572 10.9498 4.60437 13 4.60437V3.10437ZM4 15.0596C4 12.7107 4.00078 11.0016 4.126 9.67335C4.2504 8.35384 4.49182 7.49605 4.91843 6.82122L3.65055 6.01968C3.04267 6.98122 2.76685 8.10874 2.63262 9.53256C2.49922 10.9476 2.5 12.7399 2.5 15.0596H4ZM5.00213 4.46756C4.47984 4.90366 4.02449 5.42818 3.65055 6.01968L4.91843 6.82122C5.21269 6.35577 5.56612 5.95078 5.96353 5.61896L5.00213 4.46756ZM23.5 15.0596C23.5 13.6078 23.5001 12.3669 23.4683 11.3021L21.969 11.3468C21.9999 12.3845 22 13.6006 22 15.0596H23.5ZM23.4683 11.3021C23.3991 8.9786 23.1806 7.33444 22.3495 6.01968L21.0816 6.82122C21.6744 7.75897 21.8999 9.02849 21.969 11.3468L23.4683 11.3021ZM11.1042 15.4871H18.1458V13.9871H11.1042V15.4871ZM10.9688 11.5312H15.0312V10.0312H10.9688V11.5312ZM13 4.60437C15.0502 4.60437 16.5188 4.60572 17.6553 4.74723C18.7707 4.88611 19.4762 5.15116 20.0365 5.61896L20.9979 4.46756C20.1343 3.74647 19.1123 3.41707 17.8406 3.25873C16.5901 3.10302 15.012 3.10437 13 3.10437V4.60437ZM11.1042 19.9687H18.1458V18.4687H11.1042V19.9687Z" fill="#7B46B5"/>
<mask id="path-2-inside-1_1_983" fill="white">
<ellipse cx="8.125" cy="10.7812" rx="0.8125" ry="0.9375"/>
</mask>
<ellipse cx="8.125" cy="10.7812" rx="0.8125" ry="0.9375" fill="#050505"/>
<path d="M7.9375 10.7812C7.9375 10.8077 7.92804 10.8075 7.94384 10.7892C7.9614 10.769 8.02277 10.7188 8.125 10.7188V12.7188C9.25557 12.7188 9.9375 11.7122 9.9375 10.7812H7.9375ZM8.125 10.7188C8.22723 10.7188 8.2886 10.769 8.30616 10.7892C8.32196 10.8075 8.3125 10.8077 8.3125 10.7812H6.3125C6.3125 11.7122 6.99443 12.7188 8.125 12.7188V10.7188ZM8.3125 10.7812C8.3125 10.7548 8.32196 10.755 8.30616 10.7733C8.2886 10.7935 8.22723 10.8438 8.125 10.8438V8.84375C6.99443 8.84375 6.3125 9.85033 6.3125 10.7812H8.3125ZM8.125 10.8438C8.02277 10.8438 7.9614 10.7935 7.94384 10.7733C7.92804 10.755 7.9375 10.7548 7.9375 10.7812H9.9375C9.9375 9.85033 9.25557 8.84375 8.125 8.84375V10.8438Z" fill="#7B46B5" mask="url(#path-2-inside-1_1_983)"/>
<mask id="path-4-inside-2_1_983" fill="white">
<ellipse cx="8.125" cy="14.5312" rx="0.8125" ry="0.9375"/>
</mask>
<ellipse cx="8.125" cy="14.5312" rx="0.8125" ry="0.9375" fill="#050505"/>
<path d="M7.9375 14.5312C7.9375 14.5577 7.92804 14.5575 7.94384 14.5392C7.9614 14.519 8.02277 14.4688 8.125 14.4688V16.4688C9.25557 16.4688 9.9375 15.4622 9.9375 14.5312H7.9375ZM8.125 14.4688C8.22723 14.4688 8.2886 14.519 8.30616 14.5392C8.32196 14.5575 8.3125 14.5577 8.3125 14.5312H6.3125C6.3125 15.4622 6.99443 16.4688 8.125 16.4688V14.4688ZM8.3125 14.5312C8.3125 14.5048 8.32196 14.505 8.30616 14.5233C8.2886 14.5435 8.22723 14.5938 8.125 14.5938V12.5938C6.99443 12.5938 6.3125 13.6003 6.3125 14.5312H8.3125ZM8.125 14.5938C8.02277 14.5938 7.9614 14.5435 7.94384 14.5233C7.92804 14.505 7.9375 14.5048 7.9375 14.5312H9.9375C9.9375 13.6003 9.25557 12.5938 8.125 12.5938V14.5938Z" fill="#7B46B5" mask="url(#path-4-inside-2_1_983)"/>
<mask id="path-6-inside-3_1_983" fill="white">
<ellipse cx="8.125" cy="18.75" rx="0.8125" ry="0.9375"/>
</mask>
<ellipse cx="8.125" cy="18.75" rx="0.8125" ry="0.9375" fill="#050505"/>
<path d="M7.9375 18.75C7.9375 18.7764 7.92804 18.7762 7.94384 18.758C7.9614 18.7377 8.02277 18.6875 8.125 18.6875V20.6875C9.25557 20.6875 9.9375 19.6809 9.9375 18.75H7.9375ZM8.125 18.6875C8.22723 18.6875 8.2886 18.7377 8.30616 18.758C8.32196 18.7762 8.3125 18.7764 8.3125 18.75H6.3125C6.3125 19.6809 6.99443 20.6875 8.125 20.6875V18.6875ZM8.3125 18.75C8.3125 18.7236 8.32196 18.7238 8.30616 18.742C8.2886 18.7623 8.22723 18.8125 8.125 18.8125V16.8125C6.99443 16.8125 6.3125 17.8191 6.3125 18.75H8.3125ZM8.125 18.8125C8.02277 18.8125 7.9614 18.7623 7.94384 18.742C7.92804 18.7238 7.9375 18.7236 7.9375 18.75H9.9375C9.9375 17.8191 9.25557 16.8125 8.125 16.8125V18.8125Z" fill="#7B46B5" mask="url(#path-6-inside-3_1_983)"/>
<path d="M18.2812 4.21875V7.375C18.2812 8.47957 19.1767 9.375 20.2813 9.375H21.9375" stroke="#7B46B5" stroke-width="1.5" stroke-linecap="round"/>
</svg>
