<svg width="32" height="32" viewBox="0 0 32 32" fill="none" xmlns="http://www.w3.org/2000/svg">
<path d="M6.7481 27.89L7.18779 27.2824L7.18779 27.2824L6.7481 27.89ZM5.27322 26.421L5.87914 25.979L5.87914 25.979L5.27322 26.421ZM26.7268 26.421L26.1209 25.979L26.1209 25.979L26.7268 26.421ZM25.2519 27.89L24.8122 27.2824L24.8122 27.2824L25.2519 27.89ZM25.2519 3.8658L24.8122 4.4734L24.8122 4.4734L25.2519 3.8658ZM26.7268 5.33481L26.1209 5.7768L26.1209 5.7768L26.7268 5.33481ZM6.7481 3.8658L7.18779 4.4734L7.18779 4.4734L6.7481 3.8658ZM5.27322 5.33481L5.87914 5.7768L5.87914 5.7768L5.27322 5.33481ZM24.5873 3.46267L24.9239 2.79245L24.5873 3.46267ZM8.09629 3.17692L8.34005 3.88621L8.09629 3.17692ZM27.25 14.5499V17.2059H28.75V14.5499H27.25ZM4.75 17.2059V14.5499H3.25V17.2059H4.75ZM16 28.4081C13.4835 28.4081 11.6562 28.4071 10.2368 28.2539C8.83129 28.1022 7.91497 27.8086 7.18779 27.2824L6.30841 28.4976C7.33366 29.2395 8.54347 29.5799 10.0759 29.7453C11.5944 29.9091 13.5168 29.9081 16 29.9081V28.4081ZM3.25 17.2059C3.25 19.679 3.24896 21.5943 3.41355 23.1074C3.57968 24.6347 3.92179 25.8409 4.6673 26.8629L5.87914 25.979C5.35143 25.2555 5.05693 24.3441 4.90475 22.9452C4.75104 21.532 4.75 19.7125 4.75 17.2059H3.25ZM7.18779 27.2824C6.6855 26.9189 6.2439 26.479 5.87914 25.979L4.6673 26.8629C5.12493 27.4903 5.67877 28.0419 6.30841 28.4976L7.18779 27.2824ZM27.25 17.2059C27.25 19.7125 27.249 21.532 27.0952 22.9452C26.9431 24.3441 26.6486 25.2555 26.1209 25.979L27.3327 26.8629C28.0782 25.8409 28.4203 24.6347 28.5865 23.1074C28.751 21.5943 28.75 19.679 28.75 17.2059H27.25ZM16 29.9081C18.4832 29.9081 20.4056 29.9091 21.9241 29.7453C23.4565 29.5799 24.6663 29.2395 25.6916 28.4976L24.8122 27.2824C24.085 27.8086 23.1687 28.1022 21.7632 28.2539C20.3438 28.4071 18.5165 28.4081 16 28.4081V29.9081ZM26.1209 25.979C25.7561 26.479 25.3145 26.9189 24.8122 27.2824L25.6916 28.4976C26.3212 28.0419 26.8751 27.4903 27.3327 26.8629L26.1209 25.979ZM28.75 14.5499C28.75 12.0768 28.751 10.1615 28.5865 8.64838C28.4203 7.12108 28.0782 5.91483 27.3327 4.89282L26.1209 5.7768C26.6486 6.50025 26.9431 7.41166 27.0952 8.81058C27.249 10.2237 27.25 12.0432 27.25 14.5499H28.75ZM24.8122 4.4734C25.3145 4.83688 25.7561 5.27675 26.1209 5.7768L27.3327 4.89282C26.8751 4.26544 26.3212 3.71385 25.6916 3.25821L24.8122 4.4734ZM4.75 14.5499C4.75 12.0432 4.75104 10.2237 4.90475 8.81059C5.05693 7.41166 5.35143 6.50025 5.87914 5.7768L4.6673 4.89282C3.92179 5.91483 3.57968 7.12108 3.41355 8.64838C3.24896 10.1615 3.25 12.0768 3.25 14.5499H4.75ZM6.30841 3.25821C5.67877 3.71385 5.12493 4.26545 4.6673 4.89282L5.87914 5.7768C6.2439 5.27675 6.6855 4.83688 7.18779 4.4734L6.30841 3.25821ZM16 3.34766C18.2118 3.34766 19.8942 3.34818 21.2397 3.4535C22.5828 3.55862 23.5167 3.76426 24.2507 4.13288L24.9239 2.79245C23.9356 2.29607 22.7765 2.0692 21.3567 1.95807C19.9394 1.84713 18.1892 1.84766 16 1.84766V3.34766ZM24.2507 4.13288C24.4497 4.23282 24.6356 4.34563 24.8122 4.4734L25.6916 3.25821C25.4485 3.08231 25.1935 2.92782 24.9239 2.79245L24.2507 4.13288ZM16 1.84766C14.0824 1.84766 12.5038 1.84739 11.1941 1.92125C9.8851 1.99508 8.79167 2.14489 7.85254 2.46764L8.34005 3.88621C9.08646 3.62969 10.0197 3.48987 11.2785 3.41887C12.5367 3.34792 14.0672 3.34766 16 3.34766V1.84766ZM7.85254 2.46764C7.28635 2.66222 6.77677 2.91928 6.30841 3.25821L7.18779 4.4734C7.52506 4.22934 7.90008 4.03741 8.34005 3.88621L7.85254 2.46764Z" fill="#643992"/>
<path d="M15 9H18" stroke="#643992" stroke-width="1.5" stroke-linecap="round"/>
<path d="M15 16H21" stroke="#643992" stroke-width="1.5" stroke-linecap="round"/>
<path d="M15 23H24" stroke="#643992" stroke-width="1.5" stroke-linecap="round"/>
<path d="M11.7769 19H8.3042V18.248L9.90381 16.5664C10.298 16.1175 10.4951 15.7609 10.4951 15.4966C10.4951 15.2824 10.4484 15.1195 10.355 15.0078C10.2616 14.8962 10.126 14.8403 9.94824 14.8403C9.77279 14.8403 9.63037 14.9155 9.521 15.0659C9.41162 15.214 9.35693 15.3997 9.35693 15.623H8.20166C8.20166 15.3177 8.27799 15.0363 8.43066 14.7788C8.58333 14.519 8.79525 14.3162 9.06641 14.1704C9.33757 14.0246 9.64062 13.9517 9.97559 13.9517C10.5133 13.9517 10.9269 14.0758 11.2163 14.3242C11.508 14.5726 11.6538 14.9292 11.6538 15.394C11.6538 15.59 11.6174 15.7814 11.5444 15.9683C11.4715 16.1528 11.3576 16.3477 11.2026 16.5527C11.05 16.7555 10.8027 17.0278 10.4609 17.3696L9.81836 18.1113H11.7769V19Z" fill="#643992"/>
<path d="M9.35693 23.0298H9.90039C10.3311 23.0298 10.5464 22.819 10.5464 22.3975C10.5464 22.2334 10.4951 22.1001 10.3926 21.9976C10.29 21.8927 10.1453 21.8403 9.9585 21.8403C9.80583 21.8403 9.67253 21.8848 9.55859 21.9736C9.44694 22.0625 9.39111 22.173 9.39111 22.3052H8.23926C8.23926 22.0431 8.31217 21.8096 8.45801 21.6045C8.60384 21.3994 8.8055 21.2399 9.06299 21.126C9.32275 21.0098 9.60758 20.9517 9.91748 20.9517C10.4712 20.9517 10.9064 21.0781 11.2231 21.3311C11.5399 21.584 11.6982 21.9315 11.6982 22.3735C11.6982 22.5877 11.6322 22.7905 11.5 22.9819C11.3701 23.1711 11.1799 23.3249 10.9292 23.4434C11.1935 23.5391 11.4009 23.6849 11.5513 23.8809C11.7017 24.0745 11.7769 24.3149 11.7769 24.6021C11.7769 25.0464 11.606 25.4019 11.2642 25.6685C10.9224 25.9351 10.4735 26.0684 9.91748 26.0684C9.59163 26.0684 9.28857 26.0068 9.0083 25.8838C8.73031 25.7585 8.51953 25.5864 8.37598 25.3677C8.23242 25.1466 8.16064 24.896 8.16064 24.6157H9.31934C9.31934 24.7684 9.38086 24.9006 9.50391 25.0122C9.62695 25.1239 9.77848 25.1797 9.9585 25.1797C10.1613 25.1797 10.3231 25.1239 10.4438 25.0122C10.5646 24.8983 10.625 24.7536 10.625 24.5781C10.625 24.3275 10.5623 24.1497 10.437 24.0449C10.3117 23.9401 10.1385 23.8877 9.91748 23.8877H9.35693V23.0298Z" fill="#643992"/>
<path d="M10.8574 12H9.70215V8.32227L8.56738 8.65381V7.77881L10.7515 7.02344H10.8574V12Z" fill="#643992"/>
</svg>
