<svg width="725" height="577" viewBox="0 0 725 577" fill="none" xmlns="http://www.w3.org/2000/svg">
<path d="M452.301 46.7734H249.904V245.487H452.301V46.7734Z" fill="#ECC916"/>
<path d="M446.944 41H244.547V239.714H446.944V41Z" fill="white" stroke="#2D2D30" stroke-linecap="round" stroke-linejoin="round"/>
<path d="M274.777 68.9629V57.5879H278.676C279.962 57.5879 280.941 57.8457 281.613 58.3613C282.285 58.877 282.621 59.6452 282.621 60.666C282.621 61.1868 282.48 61.6556 282.199 62.0723C281.918 62.4889 281.507 62.8118 280.965 63.041C281.579 63.2077 282.053 63.5228 282.387 63.9863C282.725 64.4447 282.895 64.9967 282.895 65.6426C282.895 66.7103 282.551 67.5306 281.863 68.1035C281.181 68.6764 280.202 68.9629 278.926 68.9629H274.777ZM276.754 63.8301V67.3848H278.949C279.569 67.3848 280.053 67.2311 280.402 66.9238C280.751 66.6165 280.926 66.1895 280.926 65.6426C280.926 64.4603 280.322 63.8561 279.113 63.8301H276.754ZM276.754 62.377H278.691C279.306 62.377 279.785 62.2389 280.129 61.9629C280.478 61.6816 280.652 61.2858 280.652 60.7754C280.652 60.2129 280.491 59.8066 280.168 59.5566C279.85 59.3066 279.353 59.1816 278.676 59.1816H276.754V62.377ZM291.52 63.8848H286.848V67.3848H292.309V68.9629H284.871V57.5879H292.254V59.1816H286.848V62.3223H291.52V63.8848ZM302.941 68.9629H300.965L295.895 60.8926V68.9629H293.918V57.5879H295.895L300.98 65.6895V57.5879H302.941V68.9629ZM311.926 63.8848H307.254V67.3848H312.715V68.9629H305.277V57.5879H312.66V59.1816H307.254V62.3223H311.926V63.8848ZM320.879 64.1426H316.301V68.9629H314.324V57.5879H321.551V59.1816H316.301V62.5645H320.879V64.1426ZM325.207 68.9629H323.238V57.5879H325.207V68.9629ZM335.621 59.1816H332.074V68.9629H330.113V59.1816H326.598V57.5879H335.621V59.1816ZM342.941 66.0332C342.941 65.5332 342.764 65.1478 342.41 64.877C342.061 64.6061 341.428 64.3327 340.512 64.0566C339.595 63.7806 338.866 63.4733 338.324 63.1348C337.288 62.4837 336.77 61.6348 336.77 60.5879C336.77 59.6712 337.142 58.916 337.887 58.3223C338.637 57.7285 339.608 57.4316 340.801 57.4316C341.592 57.4316 342.298 57.5775 342.918 57.8691C343.538 58.1608 344.025 58.5775 344.379 59.1191C344.733 59.6556 344.91 60.252 344.91 60.9082H342.941C342.941 60.3145 342.754 59.8509 342.379 59.5176C342.009 59.179 341.478 59.0098 340.785 59.0098C340.139 59.0098 339.637 59.1478 339.277 59.4238C338.923 59.6999 338.746 60.0853 338.746 60.5801C338.746 60.9967 338.939 61.3457 339.324 61.627C339.71 61.903 340.345 62.1738 341.23 62.4395C342.116 62.6999 342.827 62.9993 343.363 63.3379C343.9 63.6712 344.293 64.0566 344.543 64.4941C344.793 64.9264 344.918 65.4342 344.918 66.0176C344.918 66.9655 344.553 67.7207 343.824 68.2832C343.1 68.8405 342.116 69.1191 340.871 69.1191C340.048 69.1191 339.29 68.9681 338.598 68.666C337.91 68.3587 337.374 67.9368 336.988 67.4004C336.608 66.8639 336.418 66.2389 336.418 65.5254H338.395C338.395 66.1712 338.608 66.6712 339.035 67.0254C339.462 67.3796 340.074 67.5566 340.871 67.5566C341.559 67.5566 342.074 67.4186 342.418 67.1426C342.767 66.8613 342.941 66.4915 342.941 66.0332Z" fill="#2D2D30"/>
<path d="M292.797 94.7031H371.243" stroke="#2D2D30" stroke-width="2" stroke-linecap="round" stroke-linejoin="round"/>
<path d="M278.37 98.1768C280.289 98.1768 281.845 96.6209 281.845 94.7017C281.845 92.7824 280.289 91.2266 278.37 91.2266C276.45 91.2266 274.895 92.7824 274.895 94.7017C274.895 96.6209 276.45 98.1768 278.37 98.1768Z" fill="#ECC916"/>
<path d="M277.352 98.1768C279.271 98.1768 280.827 96.6209 280.827 94.7017C280.827 92.7824 279.271 91.2266 277.352 91.2266C275.433 91.2266 273.877 92.7824 273.877 94.7017C273.877 96.6209 275.433 98.1768 277.352 98.1768Z" fill="#2D2D30"/>
<path d="M278.37 124.755C280.289 124.755 281.845 123.199 281.845 121.28C281.845 119.361 280.289 117.805 278.37 117.805C276.45 117.805 274.895 119.361 274.895 121.28C274.895 123.199 276.45 124.755 278.37 124.755Z" fill="#ECC916"/>
<path d="M277.352 124.755C279.271 124.755 280.827 123.199 280.827 121.28C280.827 119.361 279.271 117.805 277.352 117.805C275.433 117.805 273.877 119.361 273.877 121.28C273.877 123.199 275.433 124.755 277.352 124.755Z" fill="#2D2D30"/>
<path d="M278.37 151.329C280.289 151.329 281.845 149.773 281.845 147.854C281.845 145.935 280.289 144.379 278.37 144.379C276.45 144.379 274.895 145.935 274.895 147.854C274.895 149.773 276.45 151.329 278.37 151.329Z" fill="#ECC916"/>
<path d="M277.352 151.329C279.271 151.329 280.827 149.773 280.827 147.854C280.827 145.935 279.271 144.379 277.352 144.379C275.433 144.379 273.877 145.935 273.877 147.854C273.877 149.773 275.433 151.329 277.352 151.329Z" fill="#2D2D30"/>
<path d="M278.37 177.905C280.289 177.905 281.845 176.349 281.845 174.43C281.845 172.511 280.289 170.955 278.37 170.955C276.45 170.955 274.895 172.511 274.895 174.43C274.895 176.349 276.45 177.905 278.37 177.905Z" fill="#ECC916"/>
<path d="M277.352 177.905C279.271 177.905 280.827 176.349 280.827 174.43C280.827 172.511 279.271 170.955 277.352 170.955C275.433 170.955 273.877 172.511 273.877 174.43C273.877 176.349 275.433 177.905 277.352 177.905Z" fill="#2D2D30"/>
<path d="M278.37 204.481C280.289 204.481 281.845 202.926 281.845 201.006C281.845 199.087 280.289 197.531 278.37 197.531C276.45 197.531 274.895 199.087 274.895 201.006C274.895 202.926 276.45 204.481 278.37 204.481Z" fill="#ECC916"/>
<path d="M277.352 204.481C279.271 204.481 280.827 202.926 280.827 201.006C280.827 199.087 279.271 197.531 277.352 197.531C275.433 197.531 273.877 199.087 273.877 201.006C273.877 202.926 275.433 204.481 277.352 204.481Z" fill="#2D2D30"/>
<path d="M292.797 121.279H417.909" stroke="#2D2D30" stroke-width="2" stroke-linecap="round" stroke-linejoin="round"/>
<path d="M292.797 147.854H400.95" stroke="#2D2D30" stroke-width="2" stroke-linecap="round" stroke-linejoin="round"/>
<path d="M292.797 174.43H389.507" stroke="#2D2D30" stroke-width="2" stroke-linecap="round" stroke-linejoin="round"/>
<path d="M292.797 201.006H417.909" stroke="#2D2D30" stroke-width="2" stroke-linecap="round" stroke-linejoin="round"/>
<path d="M193.412 535.249C193.287 520.403 196.103 505.68 201.697 491.928C207.292 478.176 215.554 465.668 226.008 455.126C236.461 444.584 248.899 436.216 262.603 430.506C276.307 424.795 291.006 421.855 305.853 421.855C320.699 421.855 335.398 424.795 349.102 430.506C362.807 436.216 375.244 444.584 385.698 455.126C396.151 465.668 404.414 478.176 410.008 491.928C415.603 505.68 418.419 520.403 418.293 535.249" fill="#8AC186"/>
<path d="M185.879 509.556C185.879 509.556 167.895 488.569 165.709 465.396" stroke="#2D2D30" stroke-width="1.21" stroke-linecap="round" stroke-linejoin="round"/>
<path d="M191.061 509.282C186.189 503.253 182.701 496.228 180.843 488.703C177.112 474.09 175.663 435.136 172.66 423.693" stroke="#2D2D30" stroke-width="1.21" stroke-linecap="round" stroke-linejoin="round"/>
<path d="M193.516 508.633C193.516 508.633 190.449 491.666 192.715 475.924C194.981 460.182 204.574 427.08 194.765 379.037" stroke="#2D2D30" stroke-width="1.21" stroke-linecap="round" stroke-linejoin="round"/>
<path d="M195.863 456.025C195.863 456.025 187.583 445.616 190.858 442.413C194.133 439.21 197.496 445.279 197.088 450.18C196.679 455.08 195.863 456.025 195.863 456.025Z" fill="#2D2D30"/>
<path d="M197.058 509.555C197.058 509.555 194.607 502.741 201.966 479.296C209.325 455.851 213.688 420.844 213.688 420.844" stroke="#2D2D30" stroke-width="1.21" stroke-linecap="round" stroke-linejoin="round"/>
<path d="M198.418 491.018C198.418 491.018 204.823 480.529 210.821 481.754C216.818 482.979 211.229 489.521 198.69 492.515C198.145 492.924 198.418 491.018 198.418 491.018Z" fill="#2D2D30"/>
<path d="M203.071 475.756C203.071 475.756 207.074 468.654 210.742 471.408C214.409 474.163 205.625 478.158 203.887 479.487C202.926 480.199 202.053 481.021 201.285 481.938L203.071 475.756Z" fill="#2D2D30"/>
<path d="M204.607 470.08C204.607 470.08 212.27 466.877 211.149 463.674C210.028 460.471 206.393 464.187 205.544 466.124C205.047 467.392 204.731 468.724 204.607 470.08Z" fill="#2D2D30"/>
<path d="M203.791 472.795C203.333 470.606 202.539 468.502 201.437 466.557C199.595 463.282 203.222 460.271 204.864 462.417C206.505 464.563 205.168 468.399 205.168 468.399L203.791 472.795Z" fill="#2D2D30"/>
<path d="M207.69 456.874C207.69 456.874 211.093 445.088 217.57 448.563C224.048 452.038 206.801 461.102 206.801 461.102L207.69 456.874Z" fill="#2D2D30"/>
<path d="M210.004 444.334C210.004 444.334 215.833 434.325 219.004 438.409C222.543 442.973 209.531 447.473 209.531 447.473L210.004 444.334Z" fill="#2D2D30"/>
<path d="M209.395 446.449C209.395 446.449 203.053 440.723 205.231 438.137C207.409 435.551 210.347 438.001 210.483 441.268C210.621 443.063 210.243 444.861 209.395 446.449Z" fill="#2D2D30"/>
<path d="M211.301 438.004C211.301 438.004 224.449 430.982 221.654 425.665C218.86 420.349 213.343 427.851 212.182 431.871C211.637 436.163 211.301 438.004 211.301 438.004Z" fill="#2D2D30"/>
<path d="M212.936 428.121C212.936 428.121 225.683 419.465 222.136 414.901C218.589 410.337 213.688 422.804 213.688 422.804L212.936 428.121Z" fill="#2D2D30"/>
<path d="M212.936 423.486C212.936 423.486 209.669 406.039 213.616 404.75C217.564 403.46 217.091 410.403 216.547 413.469C216.002 416.536 213.752 423.558 213.752 423.558L212.936 423.486Z" fill="#2D2D30"/>
<path d="M192.389 477.404C192.389 477.404 184.061 468.869 187.48 465.65C190.899 462.431 193.205 469.581 193.005 474.289C192.541 476.419 192.389 477.404 192.389 477.404Z" fill="#2D2D30"/>
<path d="M193.805 467.799C193.805 467.799 193.685 444.458 203.718 447.781C213.022 450.816 193.805 467.799 193.805 467.799Z" fill="#2D2D30"/>
<path d="M198.611 436.097C198.611 436.097 201.573 423.285 207.811 426.28C214.048 429.275 199.94 439.668 198.402 439.892C198.611 437.73 198.611 436.097 198.611 436.097Z" fill="#2D2D30"/>
<path d="M198.112 436.506C198.112 436.506 188.095 429.348 191.058 424.135C194.02 418.922 198.929 433.231 198.929 433.231L198.112 436.506Z" fill="#2D2D30"/>
<path d="M199.139 426.961C199.139 426.961 207.21 422.365 205.985 418.274C204.76 414.182 199.139 419.603 199.139 423.286V426.961Z" fill="#2D2D30"/>
<path d="M199.138 420.355C199.138 420.355 194.534 405.63 188.2 410.642C181.867 415.655 193.205 424.847 199.138 423.317C199.209 422.331 199.209 421.341 199.138 420.355Z" fill="#2D2D30"/>
<path d="M199.033 417.487C199.033 417.487 210.788 411.458 208.746 405.325C206.704 399.191 199.41 409.344 199.033 414.629C199.103 415.58 199.103 416.536 199.033 417.487Z" fill="#2D2D30"/>
<path d="M198.611 410.641C198.611 410.641 188.898 406.349 190.94 399.191C192.982 392.032 198.611 404.099 198.811 407.366C199.011 410.633 198.611 410.641 198.611 410.641Z" fill="#2D2D30"/>
<path d="M198.01 401.235C198.01 401.235 200.668 382.53 208.339 386.413C216.01 390.297 202.734 401.339 198.418 402.876C198.216 402.348 198.079 401.796 198.01 401.235Z" fill="#2D2D30"/>
<path d="M196.48 387.028C196.48 387.028 196.785 368.115 205.473 371.182C214.16 374.249 196.665 388.87 196.665 388.87L196.48 387.028Z" fill="#2D2D30"/>
<path d="M197.192 395.412C197.192 395.412 186.462 389.583 188.608 384.778C190.754 379.974 195.967 384.987 197.296 392.449C197.6 394.931 197.192 395.412 197.192 395.412Z" fill="#2D2D30"/>
<path d="M195.046 380.382C195.046 380.382 195.455 359.323 188.304 362.086C181.154 364.848 188.304 374.113 195.046 380.382Z" fill="#2D2D30"/>
<path d="M183.908 497.014C183.908 497.014 180.12 479.743 188.712 482.297C197.304 484.851 184.412 497.727 184.412 497.727L183.908 497.014Z" fill="#2D2D30"/>
<path d="M181.554 491.292C181.554 491.292 177.87 486.383 176.749 488.329C175.628 490.275 175.949 492.829 182.066 493.134C182.047 492.487 181.871 491.855 181.554 491.292Z" fill="#2D2D30"/>
<path d="M179.712 482.905C179.712 482.905 178.183 472.792 182.675 474.017C187.167 475.242 180.328 484.234 180.328 484.234L179.712 482.905Z" fill="#2D2D30"/>
<path d="M178.897 479.944C178.897 479.944 173.172 475.348 174.501 472.994C175.83 470.64 177.704 473.202 179.105 478.103C179.61 480.048 178.897 479.944 178.897 479.944Z" fill="#2D2D30"/>
<path d="M177.871 469.621C177.871 469.621 179.833 458.411 185.542 461.75C190.45 464.609 178.279 471.559 178.279 471.559L177.871 469.621Z" fill="#2D2D30"/>
<path d="M177.719 468.804C177.719 468.804 176.798 457.714 172.354 459.348C167.91 460.981 175.677 469.261 177.823 470.638C178.079 469.157 177.719 468.804 177.719 468.804Z" fill="#2D2D30"/>
<path d="M176.703 457.813C176.703 457.813 177.568 438.499 186.055 440.693C194.543 442.887 182.676 459.198 177.248 461.192C176.855 459.35 176.703 457.813 176.703 457.813Z" fill="#2D2D30"/>
<path d="M176.342 453.009C176.342 453.009 171.642 439.396 167.598 442.599C163.554 445.802 176.134 454.562 176.134 454.562L176.342 453.009Z" fill="#2D2D30"/>
<path d="M176.238 451.583C176.238 451.583 172.763 436.761 177.616 437.114C182.468 437.466 176.543 453.128 176.543 453.128L176.238 451.583Z" fill="#2D2D30"/>
<path d="M174.803 437.323C174.803 437.323 190.193 426.913 184.62 418.41C179.047 409.906 174.707 430.164 174.451 433.848C174.273 435.017 174.394 436.213 174.803 437.323Z" fill="#2D2D30"/>
<path d="M174.299 433.078C174.299 433.078 170.36 421.731 166.116 419.738C161.872 417.744 155.747 422.548 160.855 428.481C165.964 434.415 174.299 434.767 174.299 434.767V433.078Z" fill="#2D2D30"/>
<path d="M172.764 423.421C172.764 423.421 164.076 415.646 163.956 405.685C163.836 395.724 173.413 395.156 175.663 400.368C177.913 405.581 174.638 411.098 174.125 414.677C173.613 418.256 172.764 423.421 172.764 423.421Z" fill="#2D2D30"/>
<path d="M173.636 427.305C173.636 427.305 180.378 415.599 175.422 412.684C170.465 409.77 169.785 421.172 172.988 426.488C173.428 427.249 173.636 427.305 173.636 427.305Z" fill="#2D2D30"/>
<path d="M171.778 487.016C171.778 487.016 169.665 476.967 175.045 478.496C180.426 480.026 172.835 488.481 172.835 488.481L171.778 487.016Z" fill="#2D2D30"/>
<path d="M169.319 480.731C169.319 480.731 166.156 473.524 162.441 473.676C158.726 473.828 157.941 476.815 161.64 479.401C163.934 480.956 166.672 481.721 169.439 481.579L169.319 480.731Z" fill="#2D2D30"/>
<path d="M167.108 474.355C167.108 474.355 166.428 464.61 170.824 465.018C175.22 465.427 167.581 475.003 167.581 475.003L167.108 474.355Z" fill="#2D2D30"/>
<path d="M166.582 472.281C166.582 472.281 163.82 463.217 160.24 464.882C156.661 466.548 162.522 472.088 166.75 473.538C166.902 472.281 166.582 472.281 166.582 472.281Z" fill="#2D2D30"/>
<path d="M165.468 466.196C165.468 466.196 155.931 453.625 161.656 450.982C167.381 448.34 167.205 461.848 166.156 466.196C166.084 466.588 165.468 466.196 165.468 466.196Z" fill="#2D2D30"/>
<path d="M207.523 510.812L190.756 510.611L173.989 510.812C173.989 510.812 170.209 523.999 182.068 534.633H199.411C211.302 523.999 207.523 510.812 207.523 510.812Z" fill="white" stroke="#2D2D30" stroke-width="1.21" stroke-linecap="round" stroke-linejoin="round"/>
<path d="M209.003 507.033H172.514C171.13 507.033 170.008 508.155 170.008 509.539C170.008 510.924 171.13 512.046 172.514 512.046H209.003C210.387 512.046 211.509 510.924 211.509 509.539C211.509 508.155 210.387 507.033 209.003 507.033Z" fill="white" stroke="#2D2D30" stroke-width="1.21" stroke-linecap="round" stroke-linejoin="round"/>
<path d="M618.393 156.222C617.889 156.839 609.833 174.719 609.681 178.082C609.529 181.445 618.185 189.628 618.185 189.628C618.185 189.628 593.419 210.959 573.209 198.588C552.999 186.217 572.016 161.755 572.016 161.755L590.16 167.232L601.37 151.426C601.37 151.426 610.906 138.47 617.128 138.654C626.352 138.935 618.393 156.222 618.393 156.222Z" fill="white" stroke="#2D2D30" stroke-linecap="round" stroke-linejoin="round"/>
<path d="M614.846 155.189L598.584 155.382L590.16 167.232L580.688 164.326C582.361 166.063 585.34 167.801 590.656 168.577C603.18 170.435 614.846 155.189 614.846 155.189Z" fill="#2D2D30"/>
<path d="M599.016 131.497C599.016 131.497 598.904 118.342 607.023 118.278C615.142 118.214 599.016 131.497 599.016 131.497Z" fill="#2D2D30"/>
<path d="M603.57 123.57C603.57 123.57 589.373 144.388 587.403 151.939C585.802 158.04 591.879 161.547 600.431 162.02C608.983 162.492 615.965 153.612 615.965 153.612C615.965 153.612 627.063 151.098 630.626 144.869C634.189 138.639 631.619 129.967 621.394 124.995C611.168 120.022 606.893 119.79 603.57 123.57Z" fill="white" stroke="#2D2D30" stroke-linecap="round" stroke-linejoin="round"/>
<path d="M615.83 148.536C615.83 148.536 609.313 153.908 606.27 153.34C603.227 152.771 596.661 147.078 594.627 146.366C592.594 145.653 590.624 145.036 590.624 143.779C584.875 153.452 581.616 159.489 588.31 164.077C595.004 168.666 610.85 160.418 613.132 157.544C614.748 155.318 616.074 152.897 617.079 150.337L615.83 148.536Z" fill="#2D2D30"/>
<path d="M627.936 122.632C632.797 124.826 638.137 131.32 635.399 137.846C637 144.252 626.711 153.212 622.435 155.862C619.673 157.584 617.223 159.065 617.223 159.065L615.085 157.752C615.085 157.752 617.487 154.341 618.528 153.54C620.754 151.867 622.531 151.899 622.179 150.337C621.635 148.023 619.337 147.134 616.878 150.665L615.141 149.368L617.487 146.165C617.027 143.009 617.788 139.796 619.617 137.181C621.218 134.779 622.98 132.633 619.497 131.464C615.037 129.967 610.633 127.813 607.486 124.258C604.643 121.055 605.404 117.3 608.351 113.472C609.728 111.679 613.371 110.758 613.371 110.758C613.088 111.895 613.2 113.095 613.689 114.16C614.178 115.225 615.015 116.092 616.062 116.619C619.833 118.685 627.936 122.632 627.936 122.632Z" fill="#2D2D30"/>
<path d="M618.281 148.808C618.281 148.808 623.462 145.485 624.951 149.833C626.304 153.789 618.033 156.175 616.256 155.438C614.478 154.701 615.991 152.363 615.991 152.363" fill="white"/>
<path d="M618.281 148.808C618.281 148.808 623.462 145.485 624.951 149.833C626.304 153.789 618.033 156.175 616.256 155.438C614.478 154.701 615.991 152.363 615.991 152.363" stroke="#2D2D30" stroke-linecap="round" stroke-linejoin="round"/>
<path d="M618.809 150.073C618.809 150.073 622.18 147.951 623.653 150.321L618.809 150.073Z" fill="white"/>
<path d="M618.809 150.073C618.809 150.073 622.18 147.951 623.653 150.321" stroke="#2D2D30" stroke-linecap="round" stroke-linejoin="round"/>
<path d="M601.289 137.574C601.342 137.975 601.306 138.383 601.185 138.769C601.063 139.155 600.858 139.51 600.585 139.808C599.688 140.609 596.325 143.996 596.325 143.996C596.325 143.996 595.444 145.293 600.16 146.839" stroke="#2D2D30" stroke-linecap="round" stroke-linejoin="round"/>
<path d="M600.129 152.244C597.741 151.872 595.554 150.687 593.939 148.889C593.884 149.673 594.068 150.456 594.465 151.134C594.862 151.813 595.455 152.356 596.165 152.692C596.813 152.943 597.512 153.033 598.202 152.955C598.892 152.877 599.553 152.633 600.129 152.244Z" fill="white"/>
<path d="M606.311 138.535C606.311 138.535 611.555 136.934 613.741 141.93" stroke="#2D2D30" stroke-linecap="round" stroke-linejoin="round"/>
<path d="M602.17 135.807C602.17 135.807 601.113 132.348 597.846 132.348" stroke="#2D2D30" stroke-linecap="round" stroke-linejoin="round"/>
<path d="M597.59 138.239C598.218 138.239 598.727 137.73 598.727 137.102C598.727 136.474 598.218 135.965 597.59 135.965C596.962 135.965 596.453 136.474 596.453 137.102C596.453 137.73 596.962 138.239 597.59 138.239Z" fill="#2D2D30"/>
<path d="M607.504 143.868C608.132 143.868 608.641 143.359 608.641 142.731C608.641 142.103 608.132 141.594 607.504 141.594C606.876 141.594 606.367 142.103 606.367 142.731C606.367 143.359 606.876 143.868 607.504 143.868Z" fill="#2D2D30"/>
<path d="M605.645 141.729C605.645 141.729 608.095 140.288 610.032 143.971" stroke="#2D2D30" stroke-linecap="round" stroke-linejoin="round"/>
<path d="M599.471 138.127C599.303 137.321 598.83 136.611 598.152 136.144C597.473 135.677 596.641 135.49 595.828 135.621" stroke="#2D2D30" stroke-linecap="round" stroke-linejoin="round"/>
<path d="M417.877 513.566L423.202 494.469L405.034 494.517L399.229 512.365C399.229 512.365 401.831 521.597 408.132 521.477C414.434 521.357 417.877 513.566 417.877 513.566Z" fill="white" stroke="#2D2D30" stroke-linejoin="round"/>
<path d="M419.168 508.937L402.057 503.66L405.035 494.516L408.19 494.508L422.579 496.702L419.168 508.937Z" fill="#2D2D30"/>
<path d="M417.879 513.567C417.879 513.567 419.737 530.43 417.007 535.426C399.567 535.635 363.679 535.426 363.679 535.426C363.679 535.426 359.755 523.143 382.8 521.238C388.481 518.666 393.972 515.693 399.231 512.342C399.231 512.342 404.724 521.006 417.879 513.567Z" fill="white" stroke="#2D2D30" stroke-linejoin="round"/>
<path d="M363.916 530.935L417.924 528.309" stroke="#2D2D30" stroke-linejoin="round"/>
<path d="M518.944 257.625C518.944 257.625 454.535 318.175 426.013 377.572C419.047 397.63 401.688 500.626 401.688 500.626C401.688 500.626 414.803 502.164 423.307 502.164C423.307 502.164 439.89 456.267 448.377 437.754C456.865 419.242 459.948 389.927 459.948 389.927L540.155 302.745L568.22 280.189L569.47 272.855L518.944 257.625Z" fill="white" stroke="#2D2D30" stroke-linecap="round" stroke-linejoin="round"/>
<path d="M532.213 311.385L470.854 378.117L470.582 378.181C485.619 357.931 523.229 287.348 523.229 287.348L532.213 311.385Z" fill="#2D2D30"/>
<path d="M628.259 513.527L617.754 497.217L601.371 496.744L611.997 512.822C611.997 512.822 610.932 520.029 617.77 519.949C624.608 519.869 628.259 513.527 628.259 513.527Z" fill="white" stroke="#2D2D30" stroke-linejoin="round"/>
<path d="M607.711 496.918L617.752 497.206L624.47 507.64L607.807 506.462L602.322 498.167L607.711 496.918Z" fill="#2D2D30"/>
<path d="M628.256 513.526C628.256 513.526 635.463 525.913 632.356 535.089H593.922C593.922 535.089 591.76 522.358 606.173 519.299L611.778 512.469C611.778 512.469 616.342 520.22 628.256 513.526Z" fill="white" stroke="#2D2D30" stroke-linejoin="round"/>
<path d="M606.174 519.298C606.174 519.298 618.897 518.826 622.428 526.833L606.174 519.298Z" fill="white"/>
<path d="M606.174 519.298C606.174 519.298 618.897 518.826 622.428 526.833" stroke="#2D2D30" stroke-linejoin="round"/>
<path d="M594.02 532.135C594.02 532.135 618.93 531.959 621.58 531.959C624.231 531.959 633.415 528.756 633.415 528.756" fill="white"/>
<path d="M594.02 532.135C594.02 532.135 618.93 531.959 621.58 531.959C624.231 531.959 633.415 528.756 633.415 528.756" stroke="#2D2D30" stroke-linejoin="round"/>
<path d="M568.701 275.361C568.701 275.361 571.591 287.324 570.631 306.589C569.83 322.772 564.841 400.705 564.841 400.705C564.841 400.705 571.015 409.962 587.982 443.52C599.368 466.012 623.342 500.371 623.342 500.371L601.674 502.556C601.674 502.556 542.085 429.691 533.99 410.754C524.341 376.043 522.78 295.451 522.78 295.451L519.305 286.964" fill="white"/>
<path d="M568.701 275.361C568.701 275.361 571.591 287.324 570.631 306.589C569.83 322.772 564.841 400.705 564.841 400.705C564.841 400.705 571.015 409.962 587.982 443.52C599.368 466.012 623.342 500.371 623.342 500.371L601.674 502.556C601.674 502.556 542.085 429.691 533.99 410.754C524.341 376.043 522.78 295.451 522.78 295.451L519.305 286.964" stroke="#2D2D30" stroke-linecap="round" stroke-linejoin="round"/>
<path d="M518.943 257.625C518.943 257.625 545.944 283.08 570.501 289.766C570.27 284.923 569.667 280.104 568.7 275.353L518.943 257.625Z" fill="#2D2D30"/>
<path d="M469.188 96.0078L471.31 102.181C471.31 102.181 467.306 106.113 463.039 106.017C461.886 100.132 461.693 99.3628 461.693 99.3628L469.188 96.0078Z" fill="white" stroke="#2D2D30" stroke-linecap="round" stroke-linejoin="round"/>
<path d="M469.852 97.9375L471.309 102.181C471.309 102.181 467.305 106.113 463.038 106.017C462.805 104.824 462.613 103.855 462.453 103.046C465.936 102.085 468.603 99.4028 469.852 97.9375Z" fill="#2D2D30"/>
<path d="M468.065 98.5638C468.578 98.386 469.015 98.04 469.306 97.582C469.597 97.124 469.724 96.5811 469.667 96.0416C469.499 93.9933 468.716 92.0436 467.42 90.4488C466.123 88.8539 464.375 87.6885 462.404 87.1056C454.886 84.5994 450.065 80.9401 448.904 81.1323C447.743 81.3244 450.065 84.215 451.026 85.1359C451.987 86.0567 454.501 87.9063 454.501 87.9063C454.501 87.9063 438.943 84.7515 438.103 88.8672C436.013 89.2515 436.95 91.5656 436.95 91.5656C436.858 91.9493 436.885 92.352 437.028 92.7197C437.171 93.0875 437.423 93.4028 437.75 93.6234C437.908 94.293 438.261 94.9007 438.764 95.3697C439.267 95.8386 439.898 96.1477 440.577 96.2578C442.699 96.8423 460.122 102.431 460.122 102.431C461.463 102.755 462.876 102.543 464.062 101.839" fill="white"/>
<path d="M468.065 98.5638C468.578 98.386 469.015 98.04 469.306 97.582C469.597 97.124 469.724 96.5811 469.667 96.0416C469.499 93.9933 468.716 92.0436 467.42 90.4488C466.123 88.8539 464.375 87.6885 462.404 87.1056C454.886 84.5994 450.065 80.9401 448.904 81.1323C447.743 81.3244 450.065 84.215 451.026 85.1359C451.987 86.0567 454.501 87.9063 454.501 87.9063C454.501 87.9063 438.943 84.7515 438.103 88.8672C436.013 89.2515 436.95 91.5656 436.95 91.5656C436.858 91.9493 436.885 92.352 437.028 92.7197C437.171 93.0875 437.423 93.4028 437.75 93.6234C437.908 94.293 438.261 94.9007 438.764 95.3697C439.267 95.8386 439.898 96.1477 440.577 96.2578C442.699 96.8423 460.122 102.431 460.122 102.431C461.463 102.755 462.876 102.543 464.062 101.839" stroke="#2D2D30" stroke-linecap="round" stroke-linejoin="round"/>
<path d="M462.245 95.3376C462.245 95.3376 460.124 93.6 453.758 94.7611L462.245 95.3376Z" fill="white"/>
<path d="M462.245 95.3376C462.245 95.3376 460.124 93.6 453.758 94.7611" stroke="#2D2D30" stroke-linecap="round" stroke-linejoin="round"/>
<path d="M454.535 87.8809C455.183 89.4978 456.148 90.9685 457.373 92.2063C458.598 93.444 460.059 94.4236 461.67 95.0873" fill="white"/>
<path d="M454.535 87.8809C455.183 89.4978 456.148 90.9685 457.373 92.2063C458.598 93.444 460.059 94.4236 461.67 95.0873" stroke="#2D2D30" stroke-linecap="round" stroke-linejoin="round"/>
<path d="M438.137 88.8418C438.137 88.8418 447.137 88.6176 451.925 90.1309L438.137 88.8418Z" fill="white"/>
<path d="M438.137 88.8418C438.137 88.8418 447.137 88.6176 451.925 90.1309" stroke="#2D2D30" stroke-linecap="round" stroke-linejoin="round"/>
<path d="M436.982 91.5413C441.509 91.3788 446.036 91.8449 450.434 92.9265L436.982 91.5413Z" fill="white"/>
<path d="M436.982 91.5413C441.509 91.3788 446.036 91.8449 450.434 92.9265" stroke="#2D2D30" stroke-linecap="round" stroke-linejoin="round"/>
<path d="M437.816 93.5977C437.816 93.5977 445.663 94.3984 449.082 95.6235L437.816 93.5977Z" fill="white"/>
<path d="M437.816 93.5977C437.816 93.5977 445.663 94.3984 449.082 95.6235" stroke="#2D2D30" stroke-linecap="round" stroke-linejoin="round"/>
<path d="M492.968 145.51C492.968 145.51 487.491 137.967 484.425 131.209C475.745 112.08 471.501 99.8691 471.501 99.8691C468.572 101.937 465.327 103.516 461.893 104.545C471.853 146.07 475.337 155.223 478.708 159.522C481.246 162.725 487.515 163.862 487.515 163.862" fill="#2D2D30"/>
<path d="M559.509 157.592C559.509 157.592 553.527 154.958 539.002 153.092C521.298 150.826 488.861 144.484 488.861 144.484C488.861 144.484 476.322 147.887 483.256 162.549C522.604 174.503 544.775 178.427 550.949 184.592" fill="#2D2D30"/>
<path d="M539.002 153.117C521.298 150.851 488.861 144.51 488.861 144.51L539.002 153.117Z" fill="#2D2D30"/>
<path d="M539.002 153.117C534.774 152.741 530.571 152.173 526.367 151.564C522.163 150.956 517.991 150.227 513.804 149.53C509.616 148.834 505.46 148.009 501.304 147.176C497.149 146.343 492.993 145.479 488.861 144.51L495.139 145.511L501.417 146.568L513.948 148.746L526.463 150.956L539.002 153.117Z" fill="white"/>
<path d="M549.945 183.728C543.348 178.643 524.683 174.776 494.104 165.912C538.359 174.055 552.5 173.119 552.5 173.119L549.945 183.728Z" fill="#2D2D30"/>
<path d="M558.668 157.334C562.271 158.135 582.201 164.54 582.201 164.54C582.201 164.54 575.627 175.15 583.226 182.284L581.72 187.889L586.525 184.582C596.582 189.635 612.628 183.421 612.628 183.421L632.302 203.223C626.513 208.235 568.661 275.344 568.661 275.344C568.661 275.344 548.603 271.492 518.904 257.608C521.17 243.995 539.563 195.953 550.621 171.635" fill="#2D2D30"/>
<path d="M611.985 225.621C593.272 246.864 570.18 273.985 570.18 273.985C570.18 273.985 565.808 273.92 555.391 265.977C548.985 261.117 531.529 244.358 531.529 244.358L575.128 249.338L611.897 218.223L611.985 225.621Z" fill="#2D2D30"/>
<path d="M631.603 202.455C631.603 202.455 636.127 204.633 636.175 211.047C636.223 217.461 631.715 228.438 618.311 243.74C591.631 274.167 588.076 277.442 581.982 276.177C575.889 274.912 575.881 264.967 577.739 260.739C579.596 256.511 611.537 216.98 611.537 216.98" fill="#2D2D30"/>
<path d="M577.74 260.74C579.598 256.488 611.538 216.98 611.538 216.98L577.74 260.74Z" fill="#2D2D30"/>
<path d="M577.74 260.74C578.856 258.719 580.099 256.772 581.464 254.911C582.809 253.037 584.17 251.169 585.547 249.306C588.302 245.606 591.152 241.971 593.971 238.336C596.789 234.701 599.712 231.13 602.643 227.558L607.046 222.226C608.544 220.472 610.017 218.702 611.538 216.965L607.359 222.474L603.123 227.943L594.603 238.832L586.036 249.682C584.594 251.484 583.185 253.301 581.776 255.127C580.331 256.924 578.984 258.798 577.74 260.74Z" fill="white"/>
<path d="M534.429 234.613C533.559 233.807 532.518 233.209 531.383 232.863C530.249 232.518 529.051 232.435 527.879 232.619C523.82 233.236 519.32 237.192 519.32 237.192L514.916 234.365C514.916 234.365 515.508 228.992 514.587 228.167C513.354 227.07 511.961 232.355 511.961 232.355C511.961 232.355 509.199 228.576 507.253 228.64C505.307 228.704 510.039 235.558 510.039 235.558C510.039 235.558 504.322 232.187 503.201 233.068C502.08 233.949 507.773 238.513 507.773 238.513L511.913 241.331C511.913 241.331 500.295 240.386 500.303 243.677L518.767 245.639L532.62 241.964C532.62 241.964 537.312 239.946 534.429 234.613Z" fill="white" stroke="#2D2D30" stroke-linecap="round" stroke-linejoin="round"/>
<path d="M511.961 232.354L513.458 235.228L518.062 238.087" fill="white"/>
<path d="M511.961 232.354L513.458 235.228L518.062 238.087" stroke="#2D2D30" stroke-linecap="round" stroke-linejoin="round"/>
<path d="M510.049 235.549L513.003 238.087L516.014 239.416" fill="white"/>
<path d="M510.049 235.549L513.003 238.087L516.014 239.416" stroke="#2D2D30" stroke-linecap="round" stroke-linejoin="round"/>
<path d="M524.749 233.723C522.688 234.427 520.826 235.616 519.32 237.19C516.918 239.744 511.681 238.879 511.16 240.449C510.64 242.018 512.842 243.355 517.934 242.162C521.618 241.297 524.564 242.827 528.264 241.682" fill="white"/>
<path d="M524.749 233.723C522.688 234.427 520.826 235.616 519.32 237.19C516.918 239.744 511.681 238.879 511.16 240.449C510.64 242.018 512.842 243.355 517.934 242.162C521.618 241.297 524.564 242.827 528.264 241.682" stroke="#2D2D30" stroke-linecap="round" stroke-linejoin="round"/>
<path d="M581.23 275.881C581.23 275.881 575.977 273.583 559.154 262.926C540.906 251.364 531.529 244.397 531.529 244.397C531.529 244.397 532.202 242.796 533.691 238.128C534.222 236.499 534.579 234.819 534.756 233.115C534.756 233.115 580.445 250.731 584.24 252.925" fill="#2D2D30"/>
<path d="M581.23 275.883C581.23 275.883 575.977 273.585 559.154 262.927C540.906 251.365 531.529 244.398 531.529 244.398" fill="#2D2D30"/>
<path d="M581.23 275.88C576.784 273.792 572.452 271.473 568.25 268.93C564.014 266.448 559.859 263.821 555.711 261.203C551.563 258.585 547.48 255.846 543.444 253.06C539.408 250.273 535.437 247.455 531.529 244.412C533.555 245.781 535.589 247.159 537.639 248.504C539.689 249.849 541.73 251.218 543.788 252.547C547.896 255.23 551.996 257.912 556.143 260.555C560.291 263.197 564.407 265.807 568.538 268.418C570.61 269.72 572.699 270.999 574.808 272.253C576.946 273.502 579.06 274.743 581.23 275.88Z" fill="white"/>
<path d="M533.693 238.143C534.225 236.515 534.582 234.835 534.758 233.131C534.758 233.131 580.447 250.747 584.243 252.941" fill="#2D2D30"/>
<path d="M533.693 238.143C534.166 236.502 534.474 234.817 534.614 233.115C534.618 233.078 534.636 233.044 534.665 233.02C534.693 232.996 534.729 232.984 534.766 232.987C538.957 234.492 543.126 236.035 547.274 237.615C551.413 239.216 555.577 240.778 559.701 242.419C563.824 244.061 567.956 245.694 572.048 247.432C576.139 249.169 580.271 250.835 584.203 252.916C582.193 251.972 580.111 251.203 578.045 250.386L571.831 247.984C567.684 246.383 563.56 244.781 559.412 243.18L547.017 238.287C542.891 236.638 538.775 234.967 534.67 233.275L534.862 233.155C534.658 234.856 534.266 236.529 533.693 238.143Z" fill="white"/>
<path d="M581.722 187.898L574.684 198.7L576.838 200.286" fill="#2D2D30"/>
<path d="M581.721 187.906C580.749 189.828 579.68 191.699 578.518 193.511C577.365 195.329 576.164 197.106 574.875 198.828L574.819 198.5C575.163 198.78 575.499 199.076 575.836 199.372C576.172 199.669 576.508 199.965 576.829 200.277C576.436 200.069 576.028 199.829 575.668 199.605C575.307 199.38 574.867 199.14 574.523 198.892C574.476 198.858 574.444 198.809 574.43 198.753C574.417 198.697 574.424 198.639 574.451 198.588C575.508 196.706 576.653 194.888 577.854 193.111C579.046 191.306 580.337 189.569 581.721 187.906Z" fill="white"/>
<path d="M583.148 190.829C583.391 190.269 583.293 189.687 582.928 189.528C582.564 189.369 582.07 189.693 581.826 190.253C581.582 190.812 581.681 191.395 582.045 191.554C582.41 191.713 582.904 191.388 583.148 190.829Z" fill="white"/>
<path d="M579.421 196.163C579.665 195.603 579.567 195.021 579.202 194.862C578.837 194.703 578.344 195.027 578.1 195.587C577.856 196.146 577.954 196.729 578.319 196.888C578.684 197.047 579.177 196.722 579.421 196.163Z" fill="white"/>
<path d="M317.405 382.145L330.08 535.081H326.156L306.547 382.753L317.405 382.145Z" fill="white" stroke="#2D2D30" stroke-linejoin="round"/>
<path d="M317.405 382.145L306.547 382.753L308.693 401.017L318.349 394.78L317.405 382.145Z" fill="#2D2D30"/>
<path d="M538.569 382.145L551.236 535.081H547.321L527.703 382.753L538.569 382.145Z" fill="white" stroke="#2D2D30" stroke-linejoin="round"/>
<path d="M538.569 382.145L527.703 382.753L530.041 402.643L539.666 396.67L538.569 382.145Z" fill="#2D2D30"/>
<path d="M327.157 378.422H431.258C432.404 378.422 433.332 377.495 433.332 376.352C433.332 375.209 432.404 374.282 431.258 374.282H327.157C326.012 374.282 325.083 375.209 325.083 376.352C325.083 377.495 326.012 378.422 327.157 378.422Z" fill="#2D2D30"/>
<path d="M324.625 379.277H432.313C433.458 379.277 434.387 378.351 434.387 377.208C434.387 376.064 433.458 375.138 432.313 375.138H324.625C323.479 375.138 322.551 376.064 322.551 377.208C322.551 378.351 323.479 379.277 324.625 379.277Z" fill="white" stroke="#2D2D30" stroke-linejoin="round"/>
<path d="M371.436 323.381H309.108C307.01 323.381 304.656 325.783 305.177 327.216L323.313 372.265C323.468 372.699 323.753 373.076 324.13 373.342C324.507 373.609 324.957 373.753 325.419 373.754L388.259 375.227C389.86 375.227 392.399 373.274 391.582 370.695L373.534 324.798C373.369 324.377 373.08 324.017 372.705 323.764C372.33 323.511 371.888 323.377 371.436 323.381Z" fill="#2D2D30"/>
<path d="M369.723 324.9H307.379C307.021 324.9 306.668 324.986 306.349 325.151C306.031 325.315 305.757 325.554 305.551 325.847C305.344 326.14 305.211 326.478 305.163 326.833C305.115 327.188 305.152 327.55 305.273 327.887L321.584 373.784C321.738 374.22 322.023 374.597 322.4 374.863C322.777 375.13 323.228 375.273 323.69 375.273H387.747C388.112 375.274 388.472 375.186 388.795 375.015C389.118 374.845 389.394 374.598 389.599 374.296C389.805 373.995 389.933 373.647 389.973 373.284C390.013 372.921 389.964 372.554 389.829 372.215L371.805 326.318C371.64 325.899 371.354 325.541 370.983 325.288C370.611 325.035 370.172 324.9 369.723 324.9Z" fill="white" stroke="#2D2D30" stroke-linejoin="round"/>
<path d="M351.404 352.425C351.59 350.058 349.3 347.946 346.289 347.709C343.278 347.472 340.686 349.2 340.499 351.567C340.313 353.934 342.603 356.046 345.614 356.283C348.625 356.52 351.217 354.793 351.404 352.425Z" fill="#643992"/>
<path d="M255.853 382.145L243.186 535.081H247.109L266.719 382.753L255.853 382.145Z" fill="white" stroke="#2D2D30" stroke-linejoin="round"/>
<path d="M254.355 401.938L264.965 397.646L266.719 382.753L255.853 382.145L254.355 401.938Z" fill="#2D2D30"/>
<path d="M475.505 382.145L462.838 535.081H466.761L486.371 382.753L475.505 382.145Z" fill="white" stroke="#2D2D30" stroke-linejoin="round"/>
<path d="M473.615 407.159L484.113 401.906L486.371 382.753L475.505 382.145L473.615 407.159Z" fill="#2D2D30"/>
<path d="M557.571 379.582H464.191V384.859H557.571V379.582Z" fill="white" stroke="#2D2D30" stroke-linejoin="round"/>
<path d="M242.585 384.867H464.199V379.59H242.585V384.867Z" fill="white" stroke="#2D2D30" stroke-linejoin="round"/>
<path d="M698 534.807H27" stroke="#2D2D30" stroke-linejoin="round"/>
</svg>
