<svg width="25" height="25" viewBox="0 0 25 25" fill="none" xmlns="http://www.w3.org/2000/svg">
<path d="M2.43724 1C1.64604 1 1 1.64604 1 2.43724V9.91088C1 10.7021 1.64604 11.3481 2.43724 11.3481H9.91088C10.7021 11.3481 11.3481 10.7021 11.3481 9.91088V2.43724C11.3481 1.64604 10.7021 1 9.91088 1H2.43724ZM15.0849 1C14.2937 1 13.6477 1.64604 13.6477 2.43724V9.91088C13.6477 10.7021 14.2937 11.3481 15.0849 11.3481H22.5586C23.3498 11.3481 23.9958 10.7021 23.9958 9.91088V2.43724C23.9958 1.64604 23.3498 1 22.5586 1H15.0849ZM2.43724 1.57484H9.91088C10.3935 1.57484 10.7731 1.9546 10.7731 2.43724V9.91088C10.7731 10.3935 10.3935 10.7731 9.91088 10.7731H2.43724C1.95462 10.7731 1.57484 10.3935 1.57484 9.91088V2.43724C1.57484 1.95462 1.9546 1.57484 2.43724 1.57484ZM15.0849 1.57484H22.5586C23.0412 1.57484 23.421 1.9546 23.421 2.43724V9.91088C23.421 10.3935 23.0412 10.7731 22.5586 10.7731H15.0849C14.6023 10.7731 14.2228 10.3935 14.2228 9.91088V2.43724C14.2228 1.95462 14.6023 1.57484 15.0849 1.57484ZM18.7859 13.6389C18.638 13.6574 18.5287 13.7861 18.5345 13.9353V18.5345H13.9352C13.9174 18.5327 13.8993 18.5327 13.8813 18.5345C13.7225 18.5494 13.606 18.6901 13.6208 18.8489C13.6357 19.0075 13.7764 19.1242 13.9352 19.1094H18.5345V23.7085C18.5333 23.7855 18.5632 23.8596 18.6171 23.9144C18.6713 23.9693 18.7448 24 18.8218 24C18.8988 24 18.9726 23.9693 19.0266 23.9144C19.0807 23.8596 19.1104 23.7855 19.1094 23.7085V19.1094H23.7084C23.7854 19.1104 23.8596 19.0807 23.9143 19.0266C23.9693 18.9727 24 18.8989 24 18.8219C24 18.7449 23.9693 18.6713 23.9143 18.6171C23.8596 18.5632 23.7854 18.5333 23.7084 18.5345H19.1094V13.9353C19.1126 13.8509 19.0787 13.7692 19.0163 13.7121C18.954 13.655 18.8698 13.6283 18.7859 13.6389L18.7859 13.6389ZM2.43734 13.6477C1.64614 13.6477 1.0001 14.2938 1.0001 15.085V22.5586C1.0001 23.3498 1.64614 23.9959 2.43734 23.9959H9.91098C10.7022 23.9959 11.3482 23.3498 11.3482 22.5586V15.085C11.3482 14.2938 10.7022 13.6477 9.91098 13.6477H2.43734ZM2.43734 14.2228H9.91098C10.3936 14.2228 10.7732 14.6024 10.7732 15.085V22.5586C10.7732 23.0413 10.3936 23.421 9.91098 23.421H2.43734C1.95472 23.421 1.57495 23.0413 1.57495 22.5586V15.085C1.57495 14.6024 1.95471 14.2228 2.43734 14.2228V14.2228Z" fill="#7B46B5" stroke="#7B46B5"/>
</svg>
