<svg width="32" height="32" viewBox="0 0 32 32" fill="none" xmlns="http://www.w3.org/2000/svg">
<mask id="mask0_1_980" style="mask-type:alpha" maskUnits="userSpaceOnUse" x="0" y="0" width="32" height="32">
<rect width="31.1795" height="32" fill="#C4C4C4"/>
</mask>
<g mask="url(#mask0_1_980)">
<path d="M29.7836 17.7837C29.7836 9.61888 23.3344 3 15.379 3C7.42353 3 0.974365 9.61888 0.974365 17.7837" stroke="#7B46B5" stroke-width="1.5" stroke-linecap="round"/>
<path d="M30.5835 5.87464L16.8613 19.7609C16.0853 20.5462 14.8178 20.4631 14.1559 19.5836C13.5184 18.7362 13.7166 17.5085 14.5881 16.9074L30.5835 5.87464Z" fill="#7B46B5" stroke="white" stroke-width="0.5" stroke-linecap="round"/>
<path d="M4.17529 17.7837C4.4954 17.7837 5.37568 17.7837 5.7758 17.7837" stroke="#7B46B5" stroke-width="1.5" stroke-linecap="round"/>
<path d="M5.0416 14.1714C5.33528 14.3021 6.1429 14.6616 6.51 14.8249" stroke="#7B46B5" stroke-width="1.5" stroke-linecap="round"/>
<path d="M6.67114 11.0459C6.92686 11.2435 7.63008 11.7869 7.94973 12.034" stroke="#7B46B5" stroke-width="1.5" stroke-linecap="round"/>
<path d="M8.97668 8.74902C9.14791 9.0266 9.61878 9.78993 9.83281 10.1369" stroke="#7B46B5" stroke-width="1.5" stroke-linecap="round"/>
<path d="M12.1781 7.10645C12.2767 7.419 12.5478 8.27853 12.671 8.66923" stroke="#7B46B5" stroke-width="1.5" stroke-linecap="round"/>
<path d="M15.379 6.28516C15.379 6.61368 15.379 7.51713 15.379 7.92779" stroke="#7B46B5" stroke-width="1.5" stroke-linecap="round"/>
<path d="M26.5822 17.7836C26.2621 17.7836 25.3818 17.7836 24.9817 17.7836" stroke="#7B46B5" stroke-width="1.5" stroke-linecap="round"/>
<path d="M25.7159 14.1714C25.4222 14.3021 24.6146 14.6616 24.2475 14.8249" stroke="#7B46B5" stroke-width="1.5" stroke-linecap="round"/>
<path d="M21.7808 8.74902C21.6096 9.0266 21.1387 9.78993 20.9247 10.1369" stroke="#7B46B5" stroke-width="1.5" stroke-linecap="round"/>
<path d="M18.5794 7.10645C18.4808 7.419 18.2097 8.27853 18.0865 8.66923" stroke="#7B46B5" stroke-width="1.5" stroke-linecap="round"/>
</g>
</svg>
