<svg width="33" height="33" viewBox="0 0 33 33" fill="none" xmlns="http://www.w3.org/2000/svg">
<path d="M2.93715 1C1.87075 1 1 1.87075 1 2.93715V13.0103C1 14.0767 1.87075 14.9475 2.93715 14.9475H13.0103C14.0767 14.9475 14.9475 14.0767 14.9475 13.0103V2.93715C14.9475 1.87075 14.0767 1 13.0103 1H2.93715ZM19.9841 1C18.9177 1 18.0469 1.87075 18.0469 2.93715V13.0103C18.0469 14.0767 18.9177 14.9475 19.9841 14.9475H30.0572C31.1236 14.9475 31.9944 14.0767 31.9944 13.0103V2.93715C31.9944 1.87075 31.1236 1 30.0572 1H19.9841ZM2.93715 1.77479H13.0103C13.6608 1.77479 14.1724 2.28664 14.1724 2.93715V13.0103C14.1724 13.6608 13.6608 14.1724 13.0103 14.1724H2.93715C2.28666 14.1724 1.77479 13.6608 1.77479 13.0103V2.93715C1.77479 2.28666 2.28664 1.77479 2.93715 1.77479ZM19.9841 1.77479H30.0572C30.7077 1.77479 31.2196 2.28664 31.2196 2.93715V13.0103C31.2196 13.6608 30.7077 14.1724 30.0572 14.1724H19.9841C19.3336 14.1724 18.822 13.6608 18.822 13.0103V2.93715C18.822 2.28666 19.3336 1.77479 19.9841 1.77479ZM24.9724 18.0351C24.7729 18.0599 24.6256 18.2334 24.6335 18.4345V24.6335H18.4344C18.4104 24.6311 18.3861 24.6311 18.3618 24.6335C18.1477 24.6535 17.9907 24.8432 18.0107 25.0573C18.0307 25.271 18.2204 25.4283 18.4344 25.4083H24.6335V31.6071C24.6318 31.7108 24.6721 31.8108 24.7448 31.8846C24.8178 31.9586 24.917 32 25.0207 32C25.1245 32 25.224 31.9587 25.2967 31.8846C25.3696 31.8108 25.4096 31.7108 25.4083 31.6071V25.4083H31.607C31.7108 25.4097 31.8108 25.3697 31.8846 25.2967C31.9586 25.224 32 25.1246 32 25.0208C32 24.917 31.9586 24.8178 31.8846 24.7449C31.8108 24.6722 31.7108 24.6319 31.607 24.6335H25.4083V18.4345C25.4126 18.3207 25.3669 18.2107 25.2829 18.1337C25.1988 18.0567 25.0853 18.0207 24.9724 18.0351L24.9724 18.0351ZM2.93729 18.047C1.87089 18.047 1.00014 18.9177 1.00014 19.9841V30.0573C1.00014 31.1237 1.87089 31.9944 2.93729 31.9944H13.0105C14.0769 31.9944 14.9476 31.1237 14.9476 30.0573V19.9841C14.9476 18.9177 14.0769 18.047 13.0105 18.047H2.93729ZM2.93729 18.822H13.0105C13.6609 18.822 14.1725 19.3336 14.1725 19.9841V30.0573C14.1725 30.7078 13.661 31.2196 13.0105 31.2196H2.93729C2.2868 31.2196 1.77493 30.7078 1.77493 30.0573V19.9841C1.77493 19.3336 2.28678 18.822 2.93729 18.822V18.822Z" fill="#7B46B5" stroke="#7B46B5"/>
</svg>
