<svg width="32" height="32" viewBox="0 0 32 32" fill="none" xmlns="http://www.w3.org/2000/svg">
<path d="M6.7481 26.7476L7.18779 26.14L6.7481 26.7476ZM5.27322 25.2786L5.87914 24.8366L5.87914 24.8366L5.27322 25.2786ZM26.7268 25.2786L26.1209 24.8366L26.1209 24.8366L26.7268 25.2786ZM25.2519 26.7476L24.8122 26.14L25.2519 26.7476ZM25.2519 5.37948L24.8122 5.98707L25.2519 5.37948ZM26.7268 6.84848L27.3327 6.40649L26.7268 6.84848ZM6.7481 5.37948L7.18779 5.98707L6.7481 5.37948ZM5.27322 6.84848L5.87914 7.29047L5.87914 7.29047L5.27322 6.84848ZM27.9614 12.0795L28.711 12.0537L27.9614 12.0795ZM13.6667 14.9696C13.2525 14.9696 12.9167 15.3054 12.9167 15.7196C12.9167 16.1338 13.2525 16.4696 13.6667 16.4696V14.9696ZM22.3333 16.4696C22.7475 16.4696 23.0833 16.1338 23.0833 15.7196C23.0833 15.3054 22.7475 14.9696 22.3333 14.9696V16.4696ZM13.5 10.75C13.0858 10.75 12.75 11.0858 12.75 11.5C12.75 11.9142 13.0858 12.25 13.5 12.25V10.75ZM18.5 12.25C18.9142 12.25 19.25 11.9142 19.25 11.5C19.25 11.0858 18.9142 10.75 18.5 10.75V12.25ZM13.6667 19.75C13.2525 19.75 12.9167 20.0858 12.9167 20.5C12.9167 20.9142 13.2525 21.25 13.6667 21.25V19.75ZM22.3333 21.25C22.7475 21.25 23.0833 20.9142 23.0833 20.5C23.0833 20.0858 22.7475 19.75 22.3333 19.75V21.25ZM16 27.2657C13.4835 27.2657 11.6562 27.2647 10.2368 27.1115C8.83129 26.9599 7.91497 26.6662 7.18779 26.14L6.30841 27.3552C7.33367 28.0971 8.54347 28.4375 10.0759 28.6029C11.5944 28.7668 13.5168 28.7657 16 28.7657V27.2657ZM3.25 16.0635C3.25 18.5366 3.24896 20.4519 3.41355 21.965C3.57968 23.4923 3.92179 24.6986 4.6673 25.7206L5.87914 24.8366C5.35143 24.1131 5.05693 23.2017 4.90475 21.8028C4.75104 20.3897 4.75 18.5702 4.75 16.0635H3.25ZM7.18779 26.14C6.6855 25.7765 6.2439 25.3366 5.87914 24.8366L4.6673 25.7206C5.12493 26.3479 5.67877 26.8995 6.30841 27.3552L7.18779 26.14ZM27.25 16.0635C27.25 18.5702 27.249 20.3897 27.0952 21.8028C26.9431 23.2017 26.6486 24.1131 26.1209 24.8366L27.3327 25.7206C28.0782 24.6986 28.4203 23.4923 28.5865 21.965C28.751 20.4519 28.75 18.5366 28.75 16.0635H27.25ZM16 28.7657C18.4832 28.7657 20.4056 28.7668 21.9241 28.6029C23.4565 28.4375 24.6663 28.0971 25.6916 27.3552L24.8122 26.14C24.085 26.6662 23.1687 26.9599 21.7632 27.1115C20.3438 27.2647 18.5165 27.2657 16 27.2657V28.7657ZM26.1209 24.8366C25.7561 25.3366 25.3145 25.7765 24.8122 26.14L25.6916 27.3552C26.3212 26.8995 26.8751 26.3479 27.3327 25.7206L26.1209 24.8366ZM24.8122 5.98707C25.3145 6.35055 25.7561 6.79042 26.1209 7.29047L27.3327 6.40649C26.8751 5.77912 26.3212 5.22752 25.6916 4.77188L24.8122 5.98707ZM16 3.36133C13.5168 3.36133 11.5944 3.36031 10.0759 3.52418C8.54347 3.68954 7.33366 4.02996 6.30841 4.77188L7.18779 5.98707C7.91497 5.46085 8.83129 5.16719 10.2368 5.01552C11.6562 4.86235 13.4835 4.86133 16 4.86133V3.36133ZM4.75 16.0635C4.75 13.5569 4.75104 11.7374 4.90475 10.3243C5.05693 8.92533 5.35143 8.01392 5.87914 7.29047L4.6673 6.40649C3.92179 7.4285 3.57968 8.63475 3.41355 10.162C3.24896 11.6751 3.25 13.5904 3.25 16.0635H4.75ZM6.30841 4.77188C5.67877 5.22752 5.12493 5.77912 4.6673 6.40649L5.87914 7.29047C6.2439 6.79042 6.6855 6.35055 7.18779 5.98707L6.30841 4.77188ZM28.75 16.0635C28.75 14.5153 28.7501 13.1906 28.711 12.0537L27.2119 12.1052C27.2499 13.2109 27.25 14.507 27.25 16.0635H28.75ZM28.711 12.0537C28.6255 9.56851 28.3544 7.80714 27.3327 6.40649L26.1209 7.29047C26.8518 8.29249 27.127 9.63906 27.2119 12.1052L28.711 12.0537ZM13.6667 16.4696H22.3333V14.9696H13.6667V16.4696ZM13.5 12.25H18.5V10.75H13.5V12.25ZM16 4.86133C18.5165 4.86133 20.3438 4.86235 21.7632 5.01552C23.1687 5.16719 24.085 5.46085 24.8122 5.98707L25.6916 4.77188C24.6663 4.02996 23.4565 3.68954 21.9241 3.52418C20.4056 3.36031 18.4832 3.36133 16 3.36133V4.86133ZM13.6667 21.25H22.3333V19.75H13.6667V21.25Z" fill="#643992"/>
<circle cx="10" cy="11.5" r="0.5" fill="#3A3E62" stroke="#643992"/>
<circle cx="10" cy="15.5" r="0.5" fill="#3A3E62" stroke="#643992"/>
<circle cx="10" cy="20" r="0.5" fill="#3A3E62" stroke="#643992"/>
<path d="M22.5 4.5V8C22.5 9.10457 23.3954 10 24.5 10H27" stroke="#643992" stroke-width="1.5" stroke-linecap="round"/>
</svg>
