<svg width="155" height="155" viewBox="0 0 155 155" fill="none" xmlns="http://www.w3.org/2000/svg">
<path d="M9.62833 0C4.32794 0 0 4.32794 0 9.62833V59.6957C0 64.9961 4.32794 69.324 9.62833 69.324H59.6957C64.9961 69.324 69.324 64.9961 69.324 59.6957V9.62833C69.324 4.32794 64.9961 0 59.6957 0H9.62833ZM94.3577 0C89.0573 0 84.7293 4.32794 84.7293 9.62833V59.6957C84.7293 64.9961 89.0573 69.324 94.3577 69.324H144.425C149.725 69.324 154.053 64.9961 154.053 59.6957V9.62833C154.053 4.32794 149.725 0 144.425 0H94.3577ZM9.62833 3.85099H59.6957C62.9288 3.85099 65.4716 6.39507 65.4716 9.62833V59.6957C65.4716 62.9288 62.9289 65.4716 59.6957 65.4716H9.62833C6.39517 65.4716 3.85099 62.9289 3.85099 59.6957V9.62833C3.85099 6.39517 6.39507 3.85099 9.62833 3.85099ZM94.3577 3.85099H144.425C147.658 3.85099 150.202 6.39507 150.202 9.62833V59.6957C150.202 62.9288 147.658 65.4716 144.425 65.4716H94.3577C91.1245 65.4716 88.5817 62.9289 88.5817 59.6957V9.62833C88.5817 6.39517 91.1244 3.85099 94.3577 3.85099ZM119.151 84.6705C118.16 84.7941 117.428 85.6565 117.467 86.6558V117.467H86.6555C86.536 117.455 86.4151 117.455 86.2942 117.467C85.2304 117.567 84.4499 118.51 84.5494 119.573C84.6487 120.636 85.5917 121.418 86.6555 121.318H117.467V152.128C117.459 152.644 117.659 153.141 118.02 153.508C118.383 153.876 118.876 154.081 119.392 154.081C119.908 154.081 120.402 153.876 120.763 153.508C121.126 153.141 121.325 152.644 121.318 152.128V121.318H152.128C152.644 121.325 153.141 121.126 153.507 120.763C153.876 120.402 154.081 119.908 154.081 119.392C154.081 118.876 153.876 118.383 153.507 118.021C153.141 117.659 152.644 117.459 152.128 117.467H121.318V86.6558C121.339 86.0903 121.112 85.5436 120.695 85.1608C120.277 84.7779 119.713 84.5993 119.151 84.6705L119.151 84.6705ZM9.62902 84.7296C4.32862 84.7296 0.00068736 89.0576 0.00068736 94.358V144.425C0.00068736 149.726 4.32862 154.054 9.62902 154.054H59.6964C64.9968 154.054 69.3247 149.726 69.3247 144.425V94.358C69.3247 89.0576 64.9968 84.7296 59.6964 84.7296H9.62902ZM9.62902 88.582H59.6964C62.9295 88.582 65.4723 91.1247 65.4723 94.358V144.425C65.4723 147.658 62.9296 150.203 59.6964 150.203H9.62902C6.39586 150.203 3.85168 147.659 3.85168 144.425V94.358C3.85168 91.1248 6.39576 88.582 9.62902 88.582V88.582Z" fill="#7B46B5"/>
</svg>
