<svg width="28" height="28" viewBox="0 0 28 28" fill="none" xmlns="http://www.w3.org/2000/svg">
<g opacity="0.6">
<rect width="28" height="28" rx="5" fill="#4C4059"/>
<rect width="28" height="28" rx="5" stroke="white"/>
</g>
<path d="M14 8.28333C15.8667 8.28333 16.1 8.28333 16.8583 8.34167C18.7833 8.4 19.6583 9.33333 19.7167 11.2C19.775 11.9583 19.775 12.1333 19.775 14C19.775 15.8667 19.775 16.1 19.7167 16.8C19.6583 18.6667 18.725 19.6 16.8583 19.6583C16.1 19.7167 15.925 19.7167 14 19.7167C12.1333 19.7167 11.9 19.7167 11.2 19.6583C9.275 19.6 8.4 18.6667 8.34167 16.8C8.28333 16.0417 8.28333 15.8667 8.28333 14C8.28333 12.1333 8.28333 11.9 8.34167 11.2C8.4 9.33333 9.33333 8.4 11.2 8.34167C11.9 8.28333 12.1333 8.28333 14 8.28333ZM14 7C12.075 7 11.8417 7 11.1417 7.05833C8.575 7.175 7.175 8.575 7.05833 11.1417C7 11.8417 7 12.075 7 14C7 15.925 7 16.1583 7.05833 16.8583C7.175 19.425 8.575 20.825 11.1417 20.9417C11.8417 21 12.075 21 14 21C15.925 21 16.1583 21 16.8583 20.9417C19.425 20.825 20.825 19.425 20.9417 16.8583C21 16.1583 21 15.925 21 14C21 12.075 21 11.8417 20.9417 11.1417C20.825 8.575 19.425 7.175 16.8583 7.05833C16.1583 7 15.925 7 14 7ZM14 10.3833C12.0167 10.3833 10.3833 12.0167 10.3833 14C10.3833 15.9833 12.0167 17.6167 14 17.6167C15.9833 17.6167 17.6167 15.9833 17.6167 14C17.6167 12.0167 15.9833 10.3833 14 10.3833ZM14 16.3333C12.7167 16.3333 11.6667 15.2833 11.6667 14C11.6667 12.7167 12.7167 11.6667 14 11.6667C15.2833 11.6667 16.3333 12.7167 16.3333 14C16.3333 15.2833 15.2833 16.3333 14 16.3333ZM17.7333 9.45C17.2667 9.45 16.9167 9.8 16.9167 10.2667C16.9167 10.7333 17.2667 11.0833 17.7333 11.0833C18.2 11.0833 18.55 10.7333 18.55 10.2667C18.55 9.8 18.2 9.45 17.7333 9.45Z" fill="#E2D9EC"/>
</svg>
