<svg width="1920" height="262" viewBox="0 0 1920 262" fill="none" xmlns="http://www.w3.org/2000/svg">
<mask id="mask0_201_3438" style="mask-type:alpha" maskUnits="userSpaceOnUse" x="0" y="0" width="1920" height="702">
<rect width="1920" height="702" fill="#C4C4C4"/>
</mask>
<g mask="url(#mask0_201_3438)">
<path d="M2126.98 33.1309C2126.98 33.1309 2084.51 -17.2079 1984.84 17.0255C1885.17 51.2589 1728 196.082 1626.28 218.161C1525.68 249.419 1438.95 243.9 1438.95 243.9" stroke="#2D2D30" stroke-miterlimit="10"/>
<path d="M1725 155.482C1725 155.482 1578.47 247.872 1379.04 218.084C1198.87 191.18 999.632 22.6343 732.879 15.1663C508.793 8.91693 383.24 181.01 0 155.482" stroke="#2D2D30" stroke-miterlimit="10"/>
<path d="M1540.9 176.385C1566.81 176.385 1587.81 155.389 1587.81 129.489C1587.81 103.59 1566.81 82.594 1540.9 82.594C1515 82.594 1494 103.59 1494 129.489C1494 155.389 1515 176.385 1540.9 176.385Z" stroke="#2D2D30" stroke-miterlimit="10"/>
<path d="M1540.91 133.122C1542.91 133.122 1544.54 131.496 1544.54 129.49C1544.54 127.484 1542.91 125.858 1540.91 125.858C1538.9 125.858 1537.27 127.484 1537.27 129.49C1537.27 131.496 1538.9 133.122 1540.91 133.122Z" fill="#2D2D30"/>
<path d="M1540.91 129.49V107.698" stroke="#2D2D30" stroke-width="2" stroke-miterlimit="10" stroke-linecap="round"/>
<path d="M1540.91 129.489L1567.67 108.026" stroke="#2D2D30" stroke-miterlimit="10" stroke-linecap="round"/>
</g>
</svg>
