<svg width="1440" height="263" viewBox="0 0 1440 263" fill="none" xmlns="http://www.w3.org/2000/svg">
<path d="M1697.73 44.4941C1697.73 44.4941 1659.49 -0.837676 1569.73 29.9906C1479.98 60.819 1338.44 191.237 1246.84 211.12C1156.25 239.269 1078.14 234.299 1078.14 234.299" stroke="#2D2D30" stroke-miterlimit="10"/>
<path d="M1325 163.907C1325 163.907 1209.22 236.847 1051.64 213.329C909.278 192.09 751.854 59.0271 541.081 53.1313C364.02 48.1976 264.815 184.061 -38 163.907" stroke="#2D2D30" stroke-miterlimit="10"/>
<path d="M1145.42 98C1142.25 98 1139.08 98.3169 1136.07 98.7923C1137.5 98.6339 1138.93 98.5546 1140.35 98.5546C1165.94 98.5546 1186.7 119.313 1186.7 144.905C1186.7 170.497 1165.94 191.255 1140.35 191.255C1138.93 191.255 1137.5 191.176 1136.07 191.018C1139.08 191.493 1142.25 191.81 1145.42 191.81C1173.87 191.81 1196.92 170.814 1196.92 144.905C1196.92 118.996 1173.87 98 1145.42 98Z" fill="#ECC916"/>
<path d="M1140.35 191.256C1165.95 191.256 1186.7 170.504 1186.7 144.905C1186.7 119.307 1165.95 98.5549 1140.35 98.5549C1114.75 98.5549 1094 119.307 1094 144.905C1094 170.504 1114.75 191.256 1140.35 191.256Z" stroke="#2D2D30" stroke-miterlimit="10"/>
<path d="M1140.35 148.471C1142.32 148.471 1143.92 146.874 1143.92 144.905C1143.92 142.936 1142.32 141.34 1140.35 141.34C1138.38 141.34 1136.79 142.936 1136.79 144.905C1136.79 146.874 1138.38 148.471 1140.35 148.471Z" fill="#2D2D30"/>
<path d="M1140.35 144.905V123.354" stroke="#2D2D30" stroke-width="2" stroke-miterlimit="10" stroke-linecap="round"/>
<path d="M1140.35 144.906L1166.73 123.672" stroke="#2D2D30" stroke-miterlimit="10" stroke-linecap="round"/>
</svg>
