<svg width="28" height="28" viewBox="0 0 28 28" fill="none" xmlns="http://www.w3.org/2000/svg">
<rect width="28" height="28" rx="5" fill="#0077B5"/>
<rect width="28" height="28" rx="5" stroke="white"/>
<path d="M10.0435 8.52174C10.0435 9.37391 9.37391 10.0435 8.52174 10.0435C7.66957 10.0435 7 9.37391 7 8.52174C7 7.66957 7.66957 7 8.52174 7C9.37391 7 10.0435 7.66957 10.0435 8.52174ZM10.0435 11.2609H7V21H10.0435V11.2609ZM14.913 11.2609H11.8696V21H14.913V15.887C14.913 13.0261 18.5652 12.7826 18.5652 15.887V21H21.6087V14.8522C21.6087 10.0435 16.1913 10.2261 14.913 12.6V11.2609Z" fill="white"/>
</svg>
