<svg width="32" height="32" viewBox="0 0 32 32" fill="none" xmlns="http://www.w3.org/2000/svg">
<rect x="1" y="1" width="30" height="30" rx="4" fill="#0077B5" stroke="white" stroke-width="2"/>
<path d="M12.0435 10.5217C12.0435 11.3739 11.3739 12.0435 10.5217 12.0435C9.66957 12.0435 9 11.3739 9 10.5217C9 9.66957 9.66957 9 10.5217 9C11.3739 9 12.0435 9.66957 12.0435 10.5217ZM12.0435 13.2609H9V23H12.0435V13.2609ZM16.913 13.2609H13.8696V23H16.913V17.887C16.913 15.0261 20.5652 14.7826 20.5652 17.887V23H23.6087V16.8522C23.6087 12.0435 18.1913 12.2261 16.913 14.6V13.2609Z" fill="white"/>
</svg>
