<svg width="168" height="48" viewBox="0 0 168 48" fill="none" xmlns="http://www.w3.org/2000/svg">
<g clip-path="url(#clip0_1_1077)">
<path d="M76.4024 22.0255V30.519H71.9565V23.4212C71.9799 23.2005 71.9564 22.9773 71.8874 22.7665C71.8183 22.5557 71.7055 22.3622 71.5563 22.1988C71.4072 22.0354 71.2251 21.906 71.0223 21.8191C70.8196 21.7321 70.6008 21.6898 70.3805 21.6948C70.1479 21.6861 69.9162 21.7264 69.7001 21.8133C69.484 21.9002 69.2883 22.0316 69.1256 22.1992C68.963 22.3668 68.837 22.5668 68.7556 22.7864C68.6743 23.0059 68.6394 23.2402 68.6533 23.4742V30.519H64.214V23.4212C64.2375 23.2 64.2137 22.9762 64.1443 22.7649C64.0749 22.5537 63.9615 22.3598 63.8116 22.1963C63.6617 22.0328 63.4789 21.9034 63.2753 21.817C63.0717 21.7305 62.8522 21.6888 62.6313 21.6948C62.3988 21.6861 62.167 21.7264 61.9509 21.8133C61.7348 21.9002 61.5392 22.0316 61.3765 22.1992C61.2139 22.3668 61.0878 22.5668 61.0065 22.7864C60.9251 23.0059 60.8903 23.2402 60.9042 23.4742V30.519H56.4648V17.5936H60.9042V18.5527C61.7893 17.7101 62.9703 17.2557 64.1877 17.2893C64.8878 17.2583 65.5847 17.4014 66.217 17.7059C66.8492 18.0105 67.3972 18.4672 67.8127 19.0356C68.3128 18.4687 68.9298 18.0186 69.6207 17.717C70.3115 17.4153 71.0594 17.2694 71.8121 17.2893C74.6228 17.2893 76.409 19.1613 76.409 22.0255" fill="white"/>
<path d="M91.0206 17.5938L85.4714 32.239C85.147 33.2034 84.538 34.0451 83.726 34.6515C82.9139 35.2579 81.9374 35.6001 80.927 35.6325C79.5551 35.6016 78.2302 35.1234 77.151 34.2698L78.8321 30.6912C79.2084 31.0257 79.6898 31.2154 80.1915 31.227C80.4552 31.2336 80.7142 31.1558 80.9313 31.0049C81.1484 30.854 81.3124 30.6376 81.3998 30.3869L81.4721 30.2149L76.7109 17.5938H81.7676L83.915 24.4335L86.0625 17.5938H91.0206Z" fill="white"/>
<path d="M104.811 17.5928H100.47V30.5182H95.7549V17.5928H91.4141V13.0352H104.811V17.5928Z" fill="white"/>
<path d="M106.611 17.5931H111.051V30.5186H106.611V17.5931ZM106.138 13.7367C106.127 13.3764 106.188 13.0175 106.319 12.682C106.45 12.3465 106.647 12.0415 106.9 11.7857C107.152 11.5299 107.453 11.3287 107.785 11.1944C108.117 11.0601 108.473 10.9956 108.831 11.0048C109.188 10.9965 109.543 11.0617 109.874 11.1964C110.206 11.3311 110.506 11.5324 110.758 11.7881C111.009 12.0439 111.206 12.3486 111.337 12.6836C111.467 13.0187 111.528 13.377 111.517 13.7367C111.529 14.097 111.469 14.456 111.339 14.7918C111.209 15.1276 111.012 15.4331 110.76 15.6896C110.509 15.946 110.208 16.148 109.876 16.2831C109.544 16.4182 109.189 16.4836 108.831 16.4752C108.473 16.4845 108.116 16.4198 107.784 16.2851C107.451 16.1504 107.149 15.9485 106.897 15.692C106.645 15.4355 106.447 15.1297 106.317 14.7934C106.186 14.4571 106.126 14.0975 106.138 13.7367Z" fill="white"/>
<path d="M121.446 17.3633V22.0532H120.829C118.905 22.0532 117.939 23.0918 117.939 24.6992V30.4805H113.5V17.5551H117.939V18.6863C118.304 18.276 118.749 17.9465 119.246 17.7187C119.743 17.491 120.282 17.3699 120.829 17.3633H121.446Z" fill="white"/>
<path d="M131.289 24.0555C131.301 23.7482 131.252 23.4415 131.143 23.1541C131.034 22.8667 130.868 22.6046 130.656 22.3838C130.443 22.1629 130.188 21.9878 129.907 21.8693C129.625 21.7507 129.322 21.6911 129.017 21.694C128.711 21.6911 128.409 21.7507 128.127 21.8693C127.845 21.9878 127.59 22.1629 127.378 22.3838C127.165 22.6046 126.999 22.8667 126.891 23.1541C126.782 23.4415 126.732 23.7482 126.744 24.0555C126.732 24.3625 126.782 24.6689 126.891 24.956C127 25.243 127.165 25.5047 127.378 25.725C127.591 25.9454 127.846 26.1198 128.127 26.2376C128.409 26.3555 128.712 26.4143 129.017 26.4104C129.322 26.4143 129.624 26.3555 129.906 26.2376C130.188 26.1198 130.443 25.9454 130.655 25.725C130.868 25.5047 131.034 25.243 131.143 24.956C131.252 24.6689 131.301 24.3625 131.289 24.0555ZM122.18 24.0555C122.167 23.1532 122.336 22.2575 122.677 21.4228C123.017 20.5881 123.522 19.8316 124.161 19.1991C124.8 18.5665 125.56 18.0711 126.395 17.7427C127.229 17.4143 128.121 17.2598 129.017 17.2885C129.912 17.2598 130.804 17.4143 131.639 17.7427C132.473 18.0711 133.233 18.5665 133.872 19.1991C134.511 19.8316 135.016 20.5881 135.356 21.4228C135.697 22.2575 135.866 23.1532 135.853 24.0555C135.865 24.9576 135.695 25.8528 135.355 26.6871C135.014 27.5214 134.509 28.2775 133.87 28.9099C133.231 29.5422 132.472 30.0377 131.638 30.3664C130.803 30.6951 129.912 30.8503 129.017 30.8225C128.121 30.8503 127.23 30.6951 126.396 30.3664C125.562 30.0377 124.802 29.5422 124.164 28.9099C123.525 28.2775 123.02 27.5214 122.679 26.6871C122.338 25.8528 122.168 24.9576 122.18 24.0555Z" fill="white"/>
<path d="M17.3435 19.4802C17.3435 19.672 17.3435 19.8242 17.3894 19.9829L17.5339 20.049C17.6652 19.8638 17.7966 19.6852 17.9214 19.5L17.8163 19.3809L17.3435 19.4802ZM28.7898 28.5557C29.4466 28.6086 29.4465 28.5557 29.2758 27.8942C29.0985 28.1522 28.9672 28.3374 28.7898 28.5557ZM18.6831 18.6864L18.5912 18.5673C18.0789 18.4879 18.0067 18.5673 18.1643 19.2288L18.6831 18.7128V18.6864ZM30.5038 23.6343C30.1821 23.9319 30.2149 24.1635 30.5038 24.4148L30.8716 24.0047L30.517 23.6343H30.5038ZM19.6157 30.1698C19.4836 30.0163 19.3385 29.8747 19.1822 29.7464C19.1297 29.7464 18.9458 29.7795 18.9458 29.7927C18.9585 29.9526 18.9804 30.1117 19.0115 30.269L19.6157 30.1698ZM16.6999 26.6506C16.91 26.2471 16.91 26.2405 16.5029 25.9429C16.4306 26.0884 16.3518 26.2273 16.2599 26.3993L16.6999 26.6506ZM30.7928 22.7677C30.5826 22.7016 30.32 22.5627 30.2872 22.609C30.1033 22.8471 30.1886 23.072 30.4579 23.2705L30.7928 22.7744V22.7677ZM27.7326 18.4218C27.8245 17.7603 27.7982 17.7603 27.1415 17.9323L27.7326 18.4218ZM30.4842 24.8448H30.3266L30.2083 25.5063L30.3528 25.5592L30.7402 25.2351L30.5367 24.9109L30.4842 24.8514V24.8448ZM24.1272 31.2215C24.1272 31.2678 24.1272 31.3207 24.1272 31.367L24.5541 31.6449L24.8365 31.2149L24.7642 31.0694L24.1075 31.2215H24.1272ZM29.4006 19.5132L28.908 19.4405C28.8737 19.4819 28.8429 19.5261 28.8161 19.5728L29.2298 20.0887L29.3415 20.016C29.3415 19.8704 29.3415 19.7249 29.4006 19.5132ZM25.6639 16.6887L25.2042 16.9467V17.0988L25.8609 17.3039C25.8876 17.259 25.9117 17.2126 25.9332 17.165L25.6902 16.6887H25.6639ZM18.8998 18.2763L19.0312 18.4152L19.5631 18.005C19.5386 17.9601 19.5166 17.9137 19.4974 17.8661L19.0115 17.8066C18.9721 17.9852 18.9327 18.1307 18.8998 18.2763ZM20.9225 30.7717C20.9225 30.8246 20.9225 30.8776 20.87 30.9305C21.0604 31.4332 21.0998 31.4464 21.6186 31.0231L20.9225 30.7717ZM23.0043 16.6953C23.2866 17.0062 23.5165 16.9996 23.7595 16.6953L23.3786 16.3513L23.0043 16.7085V16.6953ZM30.228 25.9693C29.9588 26.1413 29.8078 26.3398 30.0376 26.6639C30.5564 26.4588 30.5564 26.4456 30.228 25.9693ZM25.2239 30.99C25.2265 31.0407 25.2265 31.0915 25.2239 31.1422C25.6902 31.4663 25.6902 31.4596 25.9332 30.7849L25.1977 30.99H25.2239ZM16.4175 25.5989C16.6079 25.2285 16.5882 24.9969 16.2533 24.8448C16.1614 24.9903 16.0826 25.116 15.9906 25.2748C16.1285 25.3872 16.2533 25.4798 16.4175 25.5989ZM22.6103 16.8937V16.7218L22.1965 16.4638L21.9076 16.8739C21.9076 16.9268 21.9404 16.9731 21.9601 17.0194L22.6168 16.8937H22.6103ZM17.3631 27.6826C17.2187 27.418 17.107 27.2129 16.9626 26.9351C16.6539 27.5966 16.7064 27.6759 17.3631 27.6826ZM24.784 17.026C24.803 16.9698 24.8249 16.9146 24.8496 16.8607L24.5278 16.4572L24.1272 16.7681V16.9004L24.784 17.026ZM30.0376 21.4514C29.8012 21.8086 29.9719 21.9938 30.2477 22.1592C30.5432 21.6631 30.5433 21.6631 30.0376 21.4514ZM16.2862 24.4281C16.5488 24.1701 16.5883 23.9386 16.2862 23.7071C15.8921 24.0775 15.8921 24.0775 16.2862 24.4281ZM16.0038 22.8604L16.2993 23.2837H16.4306C16.4766 23.0588 16.516 22.8339 16.562 22.6222L16.424 22.5561L16.0038 22.867V22.8604ZM17.8163 28.688L17.9476 28.5491L17.5142 28.0199L17.3894 28.0927C17.3894 28.2581 17.3894 28.4168 17.35 28.602L17.8163 28.688ZM29.4334 27.6231C30.0901 27.6231 30.1427 27.5238 29.7683 26.9616L29.4334 27.6231ZM18.6503 29.5678C18.6109 29.2238 18.5321 28.999 18.2234 28.999C18.1709 28.999 18.0855 29.1842 18.0855 29.2768C18.0855 29.667 18.381 29.5149 18.6503 29.5678ZM26.2746 17.3899C26.5242 17.8331 26.5702 17.8529 26.9314 17.6611C26.8197 17.1451 26.8131 17.1451 26.2746 17.3899ZM27.772 30.2954C27.772 30.1168 27.8311 29.9449 27.8573 29.7795L27.726 29.6869L27.2203 30.1234C27.3057 30.2081 27.4166 30.2616 27.5356 30.2756H27.772V30.2954ZM26.2352 30.6328C26.2375 30.6769 26.2375 30.721 26.2352 30.7651C26.406 30.7982 26.5964 30.904 26.7212 30.8445C26.846 30.7849 26.8526 30.5601 26.9182 30.4013L26.7869 30.2822L26.2024 30.6328H26.2352ZM20.476 30.7386C20.2001 30.2822 20.1542 30.2624 19.8193 30.4674C19.8784 30.613 19.944 30.7585 20.0097 30.9305L20.5022 30.7386H20.476ZM22.2162 31.6581L22.6431 31.3472C22.6115 31.2783 22.5631 31.2185 22.5024 31.1735C22.4416 31.1285 22.3706 31.0997 22.2959 31.0898C22.2212 31.0799 22.1452 31.0892 22.075 31.1168C22.0048 31.1445 21.9427 31.1896 21.8944 31.248L22.2162 31.6581ZM19.99 17.165C19.9309 17.3634 19.8718 17.5288 19.8193 17.7008L19.9309 17.8132L20.5219 17.4692L20.476 17.3502L19.99 17.165ZM21.612 17.0724C21.0735 16.6358 21.0013 16.6622 20.8437 17.3435L21.612 17.0724ZM16.9626 21.167L17.3697 20.4327C16.713 20.4327 16.6605 20.5319 16.9626 21.167ZM28.1266 29.4752C28.6519 29.5744 28.6979 29.5281 28.6322 28.9658C28.2908 28.9658 28.1134 29.1114 28.1266 29.4752ZM16.8378 21.5043L16.6933 21.4514C16.1877 21.6564 16.1679 21.7491 16.6211 22.1989C16.6999 21.9409 16.7721 21.7226 16.8378 21.5043ZM29.4991 20.4261C29.3809 20.7767 29.4991 20.9619 29.8471 21.0876C30.077 20.5452 30.031 20.4724 29.4991 20.4261ZM22.932 31.2678L23.2932 31.7706L23.7463 31.42L23.6872 31.2678H22.932ZM28.1003 18.5739C28.1003 19.0171 28.3105 19.1693 28.6782 19.1164C28.6782 18.9444 28.6782 18.7922 28.6322 18.6004H28.1003V18.5739ZM42.2458 20.1946H42.1341C41.9831 21.0347 42.0225 21.2728 42.5019 21.7623C42.4034 21.1604 42.3246 20.6642 42.2458 20.1681V20.1946ZM21.0341 43.7765V43.6442C20.8378 43.4697 20.5897 43.3654 20.3285 43.3474C20.0672 43.3295 19.8074 43.3989 19.5894 43.545L21.0144 43.7765H21.0341ZM25.6114 43.6508V43.7831L27.0561 43.5384C26.8326 43.3957 26.5693 43.3295 26.3054 43.3498C26.0415 43.3701 25.7912 43.4756 25.5917 43.6508H25.6114ZM6.47497 14.3404L5.81826 15.7097C6.079 15.607 6.29153 15.4088 6.41332 15.1549C6.53511 14.901 6.55715 14.61 6.47497 14.3404ZM4.16335 26.4258L4.39975 27.9273C4.55407 27.6926 4.61539 27.4082 4.57162 27.1302C4.52785 26.8522 4.38218 26.6008 4.16335 26.4258ZM13.8892 6.70028C14.1556 6.78102 14.443 6.75269 14.6889 6.62143C14.9347 6.49017 15.1193 6.26656 15.2026 5.99911L13.8892 6.70028ZM6.48154 33.7616C6.56372 33.492 6.54168 33.2011 6.41989 32.9472C6.29811 32.6933 6.08558 32.4951 5.82483 32.3923C6.05468 32.8488 6.28453 33.3052 6.48154 33.7616ZM32.7498 41.3819C32.4816 41.3053 32.1944 41.3371 31.9491 41.4705C31.7038 41.6039 31.5199 41.8284 31.4364 42.0963L32.7498 41.3819ZM15.2157 42.0963C15.1759 41.9628 15.1103 41.8385 15.0227 41.7306C14.935 41.6227 14.8271 41.5333 14.705 41.4675C14.583 41.4017 14.4492 41.3609 14.3115 41.3474C14.1737 41.3338 14.0347 41.3478 13.9023 41.3886L15.2157 42.0963ZM42.2261 27.9141C42.2983 27.4246 42.364 26.9285 42.4362 26.4324H42.318C42.1473 26.6396 42.0465 26.896 42.03 27.1647C42.0134 27.4334 42.0821 27.7005 42.2261 27.9273V27.9141ZM4.41947 20.188L4.20279 21.6895C4.41598 21.5099 4.55593 21.2575 4.59591 20.9804C4.6359 20.7034 4.57307 20.4213 4.41947 20.188ZM40.1312 14.347C40.0518 14.6176 40.0751 14.9082 40.1964 15.1624C40.3178 15.4166 40.5286 15.6164 40.7879 15.7229C40.558 15.2599 40.3348 14.8035 40.1312 14.347ZM36.4208 38.6368L37.4518 37.5652C37.1765 37.577 36.9161 37.6947 36.7243 37.894C36.5325 38.0934 36.4239 38.3592 36.4208 38.6368ZM40.1246 33.7815L40.7813 32.4122C40.5206 32.5149 40.308 32.7131 40.1862 32.967C40.0644 33.2209 40.0424 33.5119 40.1246 33.7815ZM31.3904 5.99911C31.4766 6.26456 31.6616 6.486 31.9066 6.61679C32.1516 6.74757 32.4374 6.7775 32.7038 6.70028L31.3904 5.99911ZM18.1184 4.90764L16.6999 5.38393C16.9507 5.51024 17.241 5.53102 17.507 5.44171C17.773 5.35239 17.993 5.16027 18.1184 4.90764ZM4.16335 24.858C4.35484 24.6218 4.45947 24.3262 4.45947 24.0213C4.45947 23.7163 4.35484 23.4207 4.16335 23.1845V24.858ZM4.82005 18.6203C5.06497 18.4792 5.24866 18.251 5.33495 17.9804C5.42123 17.7099 5.40384 17.4167 5.28629 17.1584C5.13525 17.6412 4.97766 18.1308 4.82005 18.6203ZM7.32864 12.9778C7.61653 12.9054 7.86985 12.733 8.04402 12.491C8.2182 12.249 8.30211 11.9529 8.28091 11.6548L7.32864 12.9778ZM21.1195 4.37846V4.26602L19.6551 4.50414C19.8805 4.65433 20.1495 4.72361 20.4188 4.70081C20.6881 4.678 20.9419 4.56444 21.1392 4.37846H21.1195ZM25.7361 4.2594C25.7393 4.29681 25.7393 4.33442 25.7361 4.37184C26.3929 4.8018 26.5833 4.82827 27.2203 4.49752L25.7624 4.2594H25.7361ZM41.832 18.6864L41.9371 18.6467L41.4643 17.1914C41.363 17.4481 41.344 17.7303 41.4099 17.9984C41.4759 18.2665 41.6235 18.5071 41.832 18.6864ZM30.0113 5.35745L28.5928 4.88782C28.722 5.13679 28.9424 5.32516 29.2073 5.41288C29.4723 5.50059 29.7607 5.4807 30.0113 5.35745ZM37.5438 10.5369L36.4733 9.42559C36.4749 9.71003 36.586 9.98277 36.7832 10.1864C36.9804 10.3899 37.2484 10.5085 37.5306 10.5171L37.5438 10.5369ZM24.1929 4.18002H22.5117C22.7528 4.36669 23.0483 4.46789 23.3523 4.46789C23.6563 4.46789 23.9519 4.36669 24.1929 4.18002ZM39.4285 12.991L38.4631 11.668C38.4526 11.9658 38.5422 12.2585 38.7174 12.4986C38.8926 12.7387 39.1432 12.9122 39.4285 12.991ZM35.3503 39.5827C35.0591 39.5635 34.7708 39.6505 34.5381 39.8279C34.3054 40.0052 34.1438 40.261 34.0829 40.5485L35.3503 39.5827ZM24.2389 43.8625C24.0116 43.6543 23.7154 43.5389 23.4081 43.5389C23.1009 43.5389 22.8047 43.6543 22.5774 43.8625H24.2389ZM30.0113 42.6785L29.9719 42.5528C29.7119 42.4858 29.4371 42.508 29.1909 42.6158C28.9448 42.7236 28.7413 42.9109 28.6125 43.1481L30.0113 42.6785ZM18.1578 43.1547C18.1578 43.115 18.1578 43.0753 18.1906 43.0356C18.0246 42.8214 17.7918 42.6696 17.5297 42.6048C17.2676 42.54 16.9915 42.566 16.7458 42.6785L18.1578 43.1547ZM5.28629 30.8445L5.39796 30.8048C5.46148 30.535 5.43926 30.2519 5.33439 29.9955C5.22951 29.7391 5.04727 29.5224 4.81348 29.376L5.28629 30.8445ZM9.22653 10.4972L9.3119 10.5832C9.57798 10.5216 9.82122 10.3851 10.0131 10.1895C10.205 9.99385 10.3376 9.74726 10.3955 9.47852L10.297 9.37928C9.94234 9.74972 9.58115 10.1201 9.22653 10.4972ZM39.4351 35.0383C39.151 35.1183 38.9019 35.2923 38.7279 35.5323C38.554 35.7723 38.4654 36.0643 38.4763 36.3612L39.4351 35.0383ZM10.2838 38.65L10.3758 38.5574C10.1459 37.8231 9.82415 37.499 9.24625 37.4792L10.2838 38.65ZM42.6267 24.8911V23.1646C42.4287 23.4082 42.3206 23.7132 42.3206 24.0279C42.3206 24.3426 42.4287 24.6476 42.6267 24.8911ZM11.42 39.5761L12.7334 40.5683C12.6589 40.2772 12.4883 40.0204 12.2495 39.84C12.0108 39.6597 11.7183 39.5666 11.42 39.5761ZM41.9437 29.3892L41.8386 29.3495C41.626 29.5274 41.4769 29.7703 41.4141 30.0414C41.3513 30.3125 41.3781 30.5968 41.4906 30.8511L41.9437 29.3892ZM11.3871 8.42674C11.6864 8.44552 11.9826 8.35681 12.2231 8.17635C12.4636 7.99589 12.6327 7.73538 12.7005 7.44114L11.3871 8.42674ZM7.32864 35.0251L8.27434 36.348C8.29718 36.0506 8.21478 35.7545 8.0417 35.5124C7.86861 35.2702 7.61597 35.0976 7.32864 35.0251ZM34.0501 7.44114C34.1129 7.73804 34.2808 8.00177 34.5225 8.18313C34.7642 8.36449 35.0631 8.45108 35.3635 8.42674L34.0501 7.44114ZM21.4741 15.7891C21.3822 16.0669 21.0145 16.2984 21.3362 16.5961C21.3739 16.6431 21.4232 16.6793 21.4791 16.701C21.5351 16.7227 21.5958 16.7292 21.655 16.7199C21.7143 16.7105 21.77 16.6855 21.8167 16.6475C21.8633 16.6096 21.8992 16.5599 21.9207 16.5035C22.1768 16.0272 21.6514 16.0338 21.4741 15.7891ZM30.5826 26.5581C30.2477 26.6838 29.9259 26.7962 30.1295 27.2196C30.3331 27.6429 30.6746 27.2195 31.0292 27.3254C30.8453 27.0145 30.7271 26.8028 30.5826 26.5647V26.5581ZM20.9094 31.4464C20.7846 31.1223 20.7124 30.7849 20.3052 30.9635C19.7536 31.1752 20.3052 31.5258 20.2329 31.85L20.8896 31.4464H20.9094ZM31.397 22.0599C31.0752 21.9078 30.8322 21.6101 30.5498 21.8681C30.4917 21.9052 30.445 21.958 30.4152 22.0205C30.3853 22.083 30.3735 22.1526 30.381 22.2216C30.3886 22.2905 30.4151 22.3559 30.4577 22.4103C30.5004 22.4648 30.5573 22.5061 30.622 22.5296C31.108 22.814 31.0883 22.2452 31.397 22.093V22.0599ZM19.7799 30.9768C19.7142 30.646 19.701 30.3153 19.2479 30.4211C18.7948 30.527 19.1494 30.9636 19.0312 31.3075L19.7799 30.9768ZM26.5242 31.85C26.4126 31.5655 26.9708 31.1884 26.4323 30.99C26.3808 30.9607 26.3228 30.9451 26.2637 30.9446C26.2047 30.9441 26.1464 30.9588 26.0945 30.9872C26.0426 31.0157 25.9988 31.057 25.9671 31.1072C25.9354 31.1575 25.917 31.215 25.9135 31.2745C25.8018 31.7706 26.3075 31.6383 26.5242 31.85ZM15.7673 27.2196L15.8199 27.3254C16.0694 27.1666 16.4372 27.7752 16.6276 27.1468C16.7655 26.6837 16.4109 26.7036 16.1482 26.5713C16.0169 26.8028 15.8921 27.0145 15.7673 27.2328V27.2196ZM26.8788 17.1319C26.9657 17.3297 27.0856 17.5109 27.2335 17.6677C27.3188 17.7272 27.6472 17.6677 27.6603 17.5685C27.691 17.2981 27.691 17.0252 27.6603 16.7549L26.8591 17.1319H26.8788ZM26.5111 16.2191C26.2747 16.3977 25.8544 16.3116 25.8544 16.7747C25.8872 17.0194 26.0317 17.1981 26.3469 17.0856C26.938 16.8673 26.3469 16.5035 26.4782 16.2191H26.5111ZM31.3247 26.0156C31.0686 25.7841 31.0358 25.3542 30.6024 25.5195C30.5367 25.5404 30.478 25.5791 30.4328 25.6314C30.3875 25.6837 30.3575 25.7475 30.3459 25.8159C30.3344 25.8843 30.3418 25.9545 30.3674 26.019C30.3929 26.0834 30.4356 26.1395 30.4907 26.181C30.7797 26.4522 31.0095 26.1281 31.3247 26.0223V26.0156ZM15.2354 26.0223C15.5966 26.1546 15.833 26.4654 16.1154 26.2008C16.1636 26.1646 16.202 26.1168 16.2272 26.0618C16.2523 26.0067 16.2635 25.9463 16.2596 25.8858C16.2556 25.8254 16.2368 25.7668 16.2047 25.7156C16.1727 25.6643 16.1284 25.622 16.076 25.5923C15.6032 25.2748 15.5835 25.8304 15.2354 26.0223ZM16.5882 20.3732C17.1727 20.2276 17.2449 20.1284 17.1136 19.7646C16.9822 19.4008 16.5948 19.7051 16.2664 19.6125C16.3978 19.9168 16.4832 20.135 16.5882 20.3732ZM30.3397 19.6191C30.0179 19.6984 29.683 19.3082 29.4925 19.7779C29.3021 20.2475 29.4925 20.2607 30.031 20.36C30.123 20.1417 30.2215 19.9101 30.3397 19.6191ZM21.4282 32.2799C21.5464 32.0087 22.144 32.0418 21.8353 31.5324C21.8096 31.4792 21.7711 31.4335 21.7232 31.3994C21.6752 31.3653 21.6195 31.3439 21.5611 31.3373C21.5028 31.3307 21.4438 31.3391 21.3896 31.3616C21.3353 31.3842 21.2876 31.4202 21.2509 31.4663C20.9553 31.7639 21.2508 32.0021 21.4282 32.2799ZM26.8066 30.9569L27.6144 31.3009C27.6381 31.0302 27.6381 30.758 27.6144 30.4873C27.5572 30.4459 27.4915 30.4178 27.4222 30.4053C27.3529 30.3927 27.2817 30.3958 27.2137 30.4145C27.056 30.5728 26.9251 30.756 26.8263 30.9569H26.8066ZM24.3899 31.8367C23.8711 31.3869 23.858 31.3869 23.4771 31.9359L23.9762 32.5379L24.3899 31.8367ZM22.6562 15.5973L22.2556 16.2587L22.7285 16.6159C23.2735 16.2058 23.2669 16.133 22.6562 15.5774V15.5973ZM16.2664 28.5227C16.5448 28.5216 16.8222 28.4906 17.0939 28.43C17.1339 28.3694 17.16 28.3005 17.1702 28.2284C17.1804 28.1563 17.1746 28.0828 17.153 28.0133C16.9971 27.8696 16.8198 27.7513 16.6276 27.6627C16.5029 27.967 16.4109 28.1787 16.2664 28.5227ZM30.8782 22.9331C30.4382 23.4557 30.4382 23.4557 30.957 23.879L31.548 23.3631L30.8913 22.9331H30.8782ZM16.1285 21.4713C16.4766 21.3588 16.7852 21.2463 16.5882 20.8098C16.3912 20.3732 16.0497 20.8098 15.7477 20.8098L16.1285 21.4713ZM30.5761 21.4713C30.7074 21.2331 30.8388 21.0082 30.9635 20.8098C30.9418 20.7708 30.9177 20.7332 30.8913 20.6973C30.6615 20.9553 30.2871 20.2872 30.0967 20.9023C29.9653 21.3455 30.2871 21.372 30.5761 21.5043V21.4713ZM25.3224 32.3858C25.3947 31.9889 25.7558 31.7243 25.4538 31.4597C25.4154 31.4097 25.3644 31.371 25.3061 31.3479C25.2477 31.3247 25.1843 31.3178 25.1224 31.328C25.0605 31.3382 25.0024 31.365 24.9544 31.4056C24.9064 31.4463 24.8702 31.4992 24.8496 31.5589C24.6263 32.0219 25.0991 32.0418 25.3224 32.3858ZM20.2724 16.2191L20.1739 16.2786C20.3315 16.5365 19.7273 16.9864 20.4103 17.1187C20.824 17.2047 20.8043 16.8739 20.9094 16.6093L20.2527 16.2191H20.2724ZM30.425 28.5227L30.0835 27.7355C29.7552 27.8215 29.394 27.8479 29.5516 28.3176C29.7092 28.7873 30.0639 28.4367 30.425 28.5227ZM15.7608 23.8923C16.273 23.4028 16.273 23.4028 15.7936 22.9463L15.1369 23.3697L15.7477 23.8923H15.7608ZM23.4836 16.1926L23.9433 16.6292L24.4359 16.2587L24.009 15.5443L23.4836 16.2058V16.1926ZM25.2633 15.8354C25.0729 16.0603 24.6066 16.0669 24.8102 16.4969C24.8311 16.5569 24.8676 16.6103 24.9159 16.6514C24.9641 16.6925 25.0224 16.7198 25.0847 16.7306C25.147 16.7414 25.211 16.7352 25.2701 16.7127C25.3292 16.6903 25.3813 16.6523 25.4209 16.6027C25.723 16.305 25.3553 16.0735 25.2633 15.8023V15.8354ZM22.295 31.8036C22.4263 32.0153 22.5577 32.2336 22.7219 32.4651L23.2078 31.8565C22.8072 31.3141 22.8072 31.3141 22.295 31.7772V31.8036ZM15.3799 22.0467C15.6557 22.146 15.6295 22.7942 16.122 22.4569C16.1748 22.4278 16.2196 22.3859 16.2523 22.3349C16.285 22.284 16.3044 22.2256 16.309 22.1652C16.3136 22.1047 16.3031 22.044 16.2784 21.9887C16.2538 21.9333 16.2158 21.8851 16.168 21.8483C15.8856 21.5771 15.6492 21.9012 15.3799 22.0467ZM18.9984 16.7019C19.1494 17.0724 18.7094 17.4693 19.261 17.6214C19.8127 17.7735 19.6879 17.3502 19.7995 17.0591L18.9984 16.7019ZM28.757 17.4957L27.9164 17.7272C27.9755 17.9389 27.9821 18.177 28.1003 18.3027C28.1746 18.3405 28.2567 18.3602 28.34 18.3602C28.4233 18.3602 28.5054 18.3405 28.5797 18.3027C28.6686 18.039 28.7281 17.7661 28.757 17.4891V17.4957ZM29.6436 29.5546C29.5582 29.204 29.4925 28.9592 29.4334 28.7211C29.0788 28.7211 28.7767 28.7211 28.7767 29.1841C28.7767 29.6472 29.2955 29.3495 29.6107 29.5546H29.6436ZM30.8782 25.0697L31.5349 24.6397L30.9176 24.1304C30.4119 24.567 30.4119 24.567 30.8519 25.0697H30.8782ZM17.2975 19.3479C17.5004 19.3098 17.6929 19.2287 17.8622 19.1097C17.8965 19.0386 17.9143 18.9606 17.9143 18.8815C17.9143 18.8025 17.8965 18.7244 17.8622 18.6533C17.6029 18.5602 17.3343 18.4958 17.0611 18.4615L17.2909 19.3479H17.2975ZM29.6501 18.4284C29.3086 18.6401 28.8621 18.2564 28.803 18.8451C28.7439 19.4339 29.1051 19.2619 29.4203 19.2817C29.486 19.0304 29.5516 18.7988 29.6501 18.4284ZM15.1238 24.6927L15.7805 25.1226C16.2468 24.6 16.2468 24.5934 15.7017 24.1833L15.1106 24.6927H15.1238ZM17.0479 29.5943C17.3193 29.5693 17.5864 29.5092 17.8426 29.4156C17.9082 29.4156 17.9148 29.0188 17.8426 28.9262C17.7703 28.8335 17.4945 28.7939 17.2909 28.7277L17.0611 29.5943H17.0479ZM28.7767 30.5336C28.5666 30.183 28.9606 29.6869 28.3499 29.6538C27.9887 29.6538 27.9296 29.7597 27.9887 30.3153L28.7767 30.5402V30.5336ZM18.8276 30.2822C18.7749 30.0752 18.6884 29.8785 18.5715 29.7001C18.5022 29.6652 18.4257 29.647 18.3482 29.647C18.2707 29.647 18.1943 29.6652 18.1249 29.7001C18.0417 29.9666 17.9888 30.2418 17.9673 30.5204L18.8276 30.2756V30.2822ZM17.941 17.5354C17.9838 17.8202 18.0564 18.0996 18.1578 18.3689C18.2258 18.4043 18.3012 18.4227 18.3778 18.4227C18.4543 18.4227 18.5297 18.4043 18.5977 18.3689C18.6952 18.1902 18.7598 17.9952 18.7882 17.7934L17.941 17.5552V17.5354ZM41.9962 26.6242C42.2403 26.31 42.3867 25.9301 42.4171 25.5323C42.4474 25.1345 42.3604 24.7365 42.167 24.3884C42.0087 24.523 41.8786 24.688 41.7843 24.8738C41.6899 25.0595 41.6331 25.2623 41.6172 25.4703C41.6013 25.6784 41.6266 25.8875 41.6917 26.0856C41.7568 26.2837 41.8603 26.4668 41.9962 26.6242ZM8.43194 35.7395C8.45261 36.1335 8.59942 36.5101 8.8504 36.813C9.10138 37.1159 9.44302 37.3287 9.82415 37.4196C9.84872 37.2161 9.83165 37.0096 9.77397 36.813C9.71629 36.6163 9.61927 36.4337 9.48883 36.2763C9.35839 36.1188 9.1973 35.99 9.01554 35.8977C8.83377 35.8053 8.63515 35.7515 8.43194 35.7395ZM39.9145 33.1729C38.936 33.6161 38.6667 34.0791 38.8178 35.0648C39.171 34.9006 39.4657 34.6312 39.6618 34.2928C39.858 33.9544 39.9462 33.5635 39.9145 33.1729ZM12.6611 39.9399C12.8102 40.2982 13.0673 40.6001 13.3961 40.8031C13.7249 41.0061 14.1087 41.0999 14.4933 41.0711C14.4556 40.8708 14.3768 40.6806 14.2619 40.5129C14.1469 40.3451 13.9984 40.2034 13.8258 40.0969C13.6533 39.9904 13.4605 39.9214 13.26 39.8944C13.0594 39.8673 12.8554 39.8828 12.6611 39.9399ZM17.153 19.2685C17.0348 18.9774 16.9888 18.5541 16.7918 18.4416C16.3177 18.2392 15.825 18.0842 15.3208 17.9786C15.5375 18.2961 15.7279 18.5541 15.8921 18.8253C16.2664 19.4339 16.3321 19.4868 17.153 19.2685ZM20.8568 43.2209C21.1491 43.4765 21.5159 43.6295 21.902 43.6569C22.2881 43.6844 22.6727 43.5847 22.9977 43.373C22.8738 43.2115 22.7174 43.0782 22.5387 42.9819C22.3601 42.8856 22.1632 42.8284 21.9611 42.814C21.759 42.7996 21.5561 42.8284 21.3658 42.8985C21.1755 42.9687 21.002 43.0785 20.8568 43.2209ZM17.2318 42.3279C16.5751 41.329 15.9841 41.1107 15.1829 41.501C15.411 41.8208 15.7249 42.0685 16.0878 42.215C16.4507 42.3614 16.8476 42.4006 17.2318 42.3279ZM25.9529 43.1812C25.6442 43.0555 25.3684 42.9232 25.086 42.824C24.9683 42.7642 24.8336 42.7478 24.7052 42.7777C24.3702 42.9496 24.0484 43.1679 23.7069 43.373C24.0532 43.585 24.4573 43.6806 24.861 43.6461C25.2647 43.6117 25.647 43.4488 25.9529 43.1812ZM10.3167 10.1069C10.7457 10.0605 11.161 9.92775 11.5381 9.71665C11.7902 9.35888 11.975 8.95756 12.0833 8.53261C11.6714 8.60054 11.2869 8.78439 10.9744 9.06296C10.6618 9.34152 10.4338 9.70344 10.3167 10.1069ZM36.4208 10.0408C36.3103 9.6602 36.0949 9.319 35.7997 9.05674C35.5044 8.79448 35.1414 8.62191 34.7528 8.55905C34.7561 8.7699 34.803 8.97772 34.8907 9.16922C34.9783 9.36072 35.1047 9.53167 35.2617 9.67115C35.4187 9.81062 35.6029 9.91555 35.8025 9.9792C36.0021 10.0428 36.2127 10.0638 36.4208 10.0408ZM38.3909 35.7461C38.1833 35.7597 37.9806 35.8161 37.7955 35.9116C37.6103 36.0072 37.4465 36.14 37.3142 36.3017C37.1819 36.4635 37.084 36.6508 37.0263 36.8522C36.9686 37.0536 36.9525 37.2647 36.979 37.4726C37.3533 37.3505 37.6852 37.123 37.9354 36.8171C38.1855 36.5112 38.3436 36.1395 38.3909 35.7461ZM34.1223 8.11587C33.977 7.74976 33.72 7.43966 33.3883 7.23039C33.0566 7.02111 32.6674 6.92349 32.277 6.95165C32.8155 8.05633 33.0125 8.18201 34.1223 8.11587ZM29.2692 32.3394C29.1445 31.8962 29.0394 31.5523 28.9343 31.2017C28.7636 30.6129 28.6125 30.5402 27.9492 30.5402C27.9492 30.8643 27.7326 31.2017 28.1003 31.4927C28.4681 31.7838 28.8358 32.0153 29.2692 32.3196V32.3394ZM28.8686 42.5197C28.4681 42.4271 28.12 42.3411 27.7654 42.2683C27.7322 42.2627 27.6982 42.2639 27.6655 42.2719C27.6327 42.2798 27.602 42.2943 27.575 42.3146C27.286 42.5527 26.997 42.8041 26.695 43.0621C27.0674 43.2166 27.4791 43.2473 27.8701 43.1498C28.2611 43.0522 28.6109 42.8315 28.8686 42.5197ZM4.60994 23.6541C5.35859 22.6487 5.35855 22.6487 4.82005 21.3588C4.56548 21.6785 4.40986 22.0666 4.37249 22.4747C4.33513 22.8828 4.41772 23.2929 4.60994 23.6541ZM8.03793 35.078C7.99853 34.7406 7.97881 34.4165 7.93941 34.1519C7.93941 34.0064 7.89346 33.8146 7.79495 33.7418C7.49754 33.5201 7.18842 33.3147 6.86897 33.1266C6.83421 33.5345 6.92857 33.9431 7.13857 34.2937C7.34857 34.6442 7.66344 34.9188 8.03793 35.078ZM20.1541 4.92088C19.7787 4.76448 19.3629 4.73537 18.9695 4.838C18.5762 4.94062 18.2268 5.1694 17.9739 5.48975C18.3351 5.57574 18.6897 5.66173 19.0443 5.7345C19.1372 5.73829 19.2283 5.7077 19.3004 5.6485C19.5762 5.4236 19.8455 5.19209 20.1541 4.92088ZM20.8437 4.77534C20.9945 4.92268 21.1748 5.03594 21.3726 5.10753C21.5703 5.17912 21.7809 5.2074 21.9904 5.1905C22.1998 5.1736 22.4033 5.11189 22.5872 5.0095C22.7711 4.90711 22.9312 4.76642 23.0568 4.59676C22.7086 4.41392 22.3162 4.33367 21.9247 4.36526C21.5333 4.39685 21.1586 4.53898 20.8437 4.77534ZM12.0438 39.4372C12.0358 39.2301 11.9859 39.0269 11.8972 38.84C11.8085 38.6531 11.6828 38.4864 11.5279 38.3501C11.3729 38.2139 11.192 38.1109 10.9962 38.0476C10.8003 37.9843 10.5936 37.9619 10.3889 37.9819C10.4791 38.3683 10.6873 38.7165 10.9841 38.9775C11.281 39.2385 11.6516 39.3993 12.0438 39.4372ZM4.93172 20.6179C5.16814 20.3136 5.40451 20.0292 5.62779 19.7315C5.67778 19.6654 5.70121 19.5827 5.69344 19.5C5.62777 19.1296 5.54242 18.7658 5.46361 18.3887C5.14936 18.6537 4.92802 19.0135 4.83224 19.4148C4.73646 19.8162 4.77135 20.238 4.93172 20.6179ZM38.8112 12.9315C38.8112 14.1684 38.9688 14.4132 39.9604 14.8365C39.9803 14.4396 39.8814 14.0458 39.6764 13.7061C39.4715 13.3664 39.1701 13.0966 38.8112 12.9315ZM23.7069 4.60338C24.7577 5.37732 24.8233 5.3773 25.9791 4.78858C25.6565 4.54452 25.2718 4.3976 24.8696 4.36481C24.4675 4.33203 24.0643 4.41476 23.7069 4.60338ZM41.8846 27.3981C41.0571 28.2647 40.9586 28.7211 41.3723 29.6009C41.6703 29.33 41.8791 28.9739 41.9706 28.5802C42.0621 28.1866 42.0321 27.7741 41.8846 27.3981ZM38.3646 12.2766C38.3324 11.88 38.1786 11.5034 37.9244 11.1988C37.6703 10.8942 37.3284 10.6768 36.9461 10.5766C36.9226 10.7831 36.9411 10.9923 37.0005 11.1913C37.06 11.3904 37.1591 11.5752 37.2919 11.7343C37.4247 11.8934 37.5883 12.0236 37.7727 12.1169C37.9572 12.2101 38.1586 12.2645 38.3646 12.2766ZM12.6611 8.096C13.876 8.096 14.014 8.01662 14.5196 6.93178C14.1277 6.90486 13.7374 7.00283 13.4038 7.21178C13.0703 7.42072 12.8104 7.73006 12.6611 8.096ZM8.43194 12.2766C9.4564 12.0385 9.67971 11.7673 9.85702 10.5567C9.47196 10.6596 9.12802 10.8802 8.87276 11.1883C8.61751 11.4963 8.46351 11.8766 8.43194 12.2766ZM41.3395 18.3623C41.2476 18.779 41.1622 19.1428 41.0965 19.5132C41.091 19.5948 41.1168 19.6754 41.1688 19.7382L41.878 20.6179C42.0249 20.2311 42.052 19.8086 41.9559 19.406C41.8598 19.0034 41.6449 18.6395 41.3395 18.3623ZM17.5339 32.3196C17.7309 32.1807 17.8557 32.0947 17.9739 32.0021C18.0921 31.9095 18.2366 31.8036 18.3745 31.711C18.9721 31.3207 18.9918 31.2744 18.7948 30.3881C18.5058 30.527 18.1381 30.5931 17.987 30.8114C17.7889 31.2917 17.6372 31.7901 17.5339 32.2998V32.3196ZM34.7724 39.3842C35.1623 39.3581 35.5331 39.2044 35.8283 38.9465C36.1235 38.6886 36.3269 38.3406 36.4076 37.9554C36.2058 37.9345 36.0019 37.9554 35.8085 38.017C35.615 38.0785 35.4362 38.1793 35.2829 38.3132C35.1297 38.4471 35.0053 38.6113 34.9175 38.7955C34.8297 38.9797 34.7803 39.18 34.7724 39.3842ZM29.7093 19.4074C30.0573 19.3148 30.4316 19.3214 30.6286 19.1362C30.9405 18.7666 31.2134 18.3653 31.4429 17.9389L30.3791 18.2696C29.7749 18.4549 29.7224 18.5475 29.7224 19.4074H29.7093ZM34.1551 39.834C33.853 39.8737 33.5969 39.8936 33.3474 39.9333C33.0978 39.973 32.9468 39.9333 32.8614 40.0656C32.6338 40.3797 32.4275 40.709 32.2441 41.0512C32.6492 41.0764 33.0519 40.9724 33.395 40.7539C33.7381 40.5354 34.004 40.2135 34.1551 39.834ZM40.3085 15.5179C40.0983 16.6953 40.2362 17.0327 41.1425 17.6082C41.2302 17.2157 41.1975 16.8056 41.0485 16.4323C40.8996 16.059 40.6415 15.7401 40.3085 15.5179ZM20.1082 43.0621C19.353 42.2286 18.8604 42.1096 17.987 42.5197C18.24 42.822 18.5806 43.0369 18.9611 43.1342C19.3415 43.2315 19.7427 43.2063 20.1082 43.0621ZM4.62958 24.309C4.41579 24.6661 4.31915 25.082 4.35334 25.4976C4.38752 25.9132 4.55083 26.3074 4.82005 26.6242C4.93169 26.3265 5.06305 26.0289 5.16813 25.7312C5.22223 25.6204 5.23612 25.494 5.20749 25.374C5.03018 25.0234 4.82658 24.7125 4.61643 24.3156L4.62958 24.309ZM42.0028 21.3588C41.8676 21.517 41.765 21.7008 41.701 21.8994C41.637 22.098 41.6129 22.3074 41.63 22.5155C41.6471 22.7235 41.7052 22.9261 41.8007 23.1114C41.8963 23.2966 42.0275 23.4609 42.1867 23.5946C42.3792 23.2454 42.4644 22.8466 42.4317 22.4486C42.399 22.0506 42.2497 21.6713 42.0028 21.3588ZM4.91857 27.3651C4.75327 27.7431 4.71577 28.1653 4.81188 28.5668C4.90798 28.9684 5.13232 29.327 5.45047 29.5876C5.52927 29.2106 5.61463 28.8402 5.68687 28.4764C5.69774 28.4067 5.68129 28.3355 5.64094 28.2779L4.91857 27.3651ZM29.6173 28.741C29.7421 29.0254 29.7881 29.4024 29.9916 29.548C30.4592 29.7574 30.948 29.9149 31.4495 30.0176C31.2197 29.6803 31.0227 29.409 30.8519 29.1312C30.5039 28.5557 30.3856 28.5094 29.6173 28.741ZM28.8424 5.45668C28.5857 5.14149 28.235 4.9179 27.8424 4.81902C27.4497 4.72014 27.0359 4.75122 26.6621 4.90764C26.9511 5.159 27.2269 5.40377 27.5158 5.62868C27.5518 5.65663 27.5931 5.6769 27.6371 5.68827C27.6812 5.69964 27.727 5.70187 27.772 5.69481C28.1134 5.62866 28.4287 5.54268 28.8424 5.45668ZM7.94598 12.9116C7.5897 13.0718 7.29225 13.3405 7.09552 13.6799C6.89878 14.0192 6.81263 14.4122 6.84925 14.8035C7.04606 14.7543 7.2311 14.6659 7.39341 14.5435C7.55572 14.4211 7.69199 14.2672 7.79423 14.0908C7.89647 13.9145 7.96257 13.7193 7.98863 13.5167C8.01469 13.3142 8.00022 13.1084 7.94598 12.9116ZM29.5057 42.2882C29.8993 42.379 30.3114 42.3392 30.6807 42.1747C31.05 42.0102 31.3565 41.7297 31.5546 41.3753C31.2131 41.3753 30.8979 41.3158 30.5367 41.3026C30.4323 41.2968 30.3295 41.3297 30.2477 41.3952C29.9982 41.6664 29.7749 41.964 29.5057 42.2882ZM27.9821 17.5222C28.2514 17.4229 28.6388 17.4031 28.757 17.2113C28.9618 16.7043 29.1201 16.1796 29.2298 15.6436C28.8818 15.9015 28.6125 16.1132 28.3301 16.3051C27.8113 16.649 27.7654 16.7747 27.9821 17.5222ZM16.47 27.5304C16.1417 27.5304 15.7674 27.3584 15.5901 27.4907C15.192 27.8422 14.829 28.2322 14.5065 28.655C14.9005 28.5822 15.2026 28.516 15.5113 28.483C16.2468 28.4036 16.2467 28.4102 16.47 27.5304ZM18.913 17.4692C18.8539 17.1186 18.913 16.7284 18.7357 16.5432C18.381 16.2227 17.9936 15.9411 17.5799 15.7031C17.5799 15.7031 17.5799 15.7362 17.5799 15.7494C17.6784 16.0669 17.7703 16.4109 17.8688 16.7085C18.0724 17.4163 18.0724 17.4163 18.9458 17.4692H18.913ZM13.4492 23.9783L14.0533 24.1899L14.5525 24.3686C15.0712 24.5604 15.2945 24.4744 15.6623 23.8658C15.393 23.7203 15.1106 23.4425 14.8742 23.4755C14.3838 23.595 13.9064 23.7634 13.4492 23.9783ZM31.1277 24.0775C31.4364 24.2296 31.7188 24.4942 31.9683 24.4611C32.4516 24.3419 32.9222 24.1758 33.3736 23.965L32.277 23.588C31.7385 23.3895 31.5808 23.4425 31.1277 24.0775ZM17.107 28.5888C16.7853 28.6351 16.4044 28.5888 16.2402 28.7277C15.9012 29.1389 15.6021 29.582 15.3471 30.0507L15.8987 29.8655C16.0629 29.806 16.2402 29.7596 16.4044 29.7067C17.0611 29.5016 17.0611 29.4951 17.107 28.6153V28.5888ZM41.1491 30.3285C40.1574 31.1554 40.0392 31.4729 40.3348 32.4321C40.6666 32.2063 40.9223 31.8841 41.0678 31.5083C41.2133 31.1325 41.2417 30.7209 41.1491 30.3285ZM6.52747 15.5179C6.18954 15.7418 5.92827 16.065 5.77906 16.4437C5.62985 16.8224 5.59992 17.2382 5.69344 17.6346C6.6588 16.8871 6.69822 16.7879 6.52747 15.5179ZM24.981 34.1453C25.0532 33.7087 25.1057 33.3184 25.1845 32.9348C25.2896 32.4122 25.1254 32.1344 24.5672 31.9491C24.4744 32.0842 24.3952 32.2282 24.3308 32.3791C24.2606 32.5155 24.2397 32.6721 24.2717 32.8223C24.4687 33.2523 24.7117 33.6558 24.981 34.1453ZM19.8193 31.1025C19.5828 31.2414 19.2019 31.334 19.1625 31.539C19.0397 32.0427 18.9606 32.5562 18.9261 33.0737L19.0246 33.1266C19.2545 32.8752 19.4646 32.604 19.7142 32.3659C20.187 31.9293 20.2198 31.764 19.8455 31.1025H19.8193ZM24.7117 16.1066C24.8956 15.8949 25.2371 15.6832 25.2371 15.4451C25.2023 14.8775 25.1232 14.3135 25.0006 13.7583C24.8693 14.0361 24.8036 14.2081 24.7248 14.3669L24.4687 14.8498C24.1732 15.3988 24.1995 15.5113 24.7117 16.0801V16.1066ZM18.9064 14.8167C18.9721 15.2599 19.0312 15.6171 19.0706 15.9809C19.1363 16.5696 19.307 16.7416 20.0163 16.7879C20.0163 16.4836 20.1345 16.1265 20.0163 15.8949C19.691 15.4984 19.3257 15.137 18.9261 14.8167H18.9064ZM27.043 16.8673C27.2794 16.7284 27.6669 16.6358 27.6997 16.4373C27.8225 15.9314 27.9016 15.4158 27.9361 14.8961L27.8376 14.8498C27.6078 15.1011 27.3976 15.3657 27.1481 15.5973C26.6818 16.0405 26.6555 16.1926 27.0102 16.8673H27.043ZM31.0358 25.3012C31.2985 25.5063 31.5218 25.8304 31.7516 25.8304C32.2702 25.7927 32.7845 25.7086 33.2883 25.579L32.277 25.0366C31.7188 24.7257 31.6202 24.7324 31.0358 25.3012ZM32.2901 19.2949C31.8961 19.3611 31.5612 19.4206 31.2262 19.4603C30.5695 19.5331 30.4644 19.6323 30.3725 20.4062C30.6614 20.4062 31.0292 20.5915 31.2131 20.4592C31.6093 20.1078 31.9701 19.7178 32.2901 19.2949ZM23.5034 15.9875C23.661 15.7031 23.9499 15.4252 23.9171 15.1937C23.7965 14.6789 23.6294 14.1764 23.418 13.6922L23.0699 14.7638C22.8598 15.379 22.8926 15.5046 23.5034 15.9875ZM27.969 33.1332C27.923 32.8686 27.8967 32.7033 27.8704 32.5445C27.8345 32.3652 27.8082 32.1842 27.7916 32.0021C27.7391 31.3406 27.6143 31.2083 26.8657 31.1422C26.8657 31.4531 26.7541 31.8036 26.8657 32.055C27.1861 32.4515 27.5471 32.8129 27.9427 33.1332H27.969ZM15.2026 6.53491C16.2796 6.74658 16.8378 6.53492 17.2187 5.6353C16.8315 5.55708 16.4299 5.60154 16.0688 5.76264C15.7078 5.92373 15.4052 6.19353 15.2026 6.53491ZM23.4048 34.2313C23.5493 33.7947 23.6676 33.4309 23.7989 33.0737C23.9762 32.5776 23.858 32.2733 23.2932 31.9822C23.1553 32.2336 22.8729 32.5114 22.9057 32.7496C23.0217 33.2593 23.1889 33.7557 23.4048 34.2313ZM21.8222 13.8046C21.7565 14.228 21.7105 14.605 21.6383 14.9755C21.5267 15.551 21.6383 15.8023 22.295 16.0272C22.3935 15.756 22.6496 15.4319 22.5774 15.2136C22.3725 14.7225 22.1241 14.2509 21.8353 13.8046H21.8222ZM6.51433 32.4519C6.73104 31.3207 6.51436 30.7651 5.64751 30.3351C5.57608 30.7345 5.61974 31.1462 5.77337 31.5213C5.927 31.8965 6.18413 32.2194 6.51433 32.4519ZM31.594 6.52167C31.3986 6.1792 31.096 5.91163 30.7336 5.76082C30.3712 5.61001 29.9694 5.58447 29.591 5.68819C29.6643 5.87847 29.7751 6.05179 29.9168 6.19767C30.0585 6.34354 30.2281 6.45896 30.4153 6.53689C30.6026 6.61481 30.8036 6.65364 31.0062 6.65102C31.2088 6.64841 31.4088 6.60439 31.594 6.52167ZM13.5805 22.351L14.894 23.0985C15.0844 23.2043 15.7214 22.8736 15.7214 22.6752C15.6669 22.5222 15.5732 22.3866 15.4498 22.282C15.3263 22.1774 15.1776 22.1077 15.0187 22.0798C14.5656 22.1592 14.1124 22.2518 13.6002 22.351H13.5805ZM30.2806 27.6892C30.471 27.9405 30.6155 28.3507 30.8519 28.4102C31.3557 28.5364 31.8702 28.6139 32.3886 28.6417C32.0668 28.3242 31.791 28.0795 31.548 27.8082C31.1146 27.3187 30.9767 27.2923 30.2806 27.6892ZM16.5423 20.2607C16.4043 20.016 16.319 19.5992 16.1285 19.5529C15.6134 19.4232 15.0884 19.3369 14.559 19.2949C14.8611 19.6257 15.1041 19.8837 15.3405 20.1549C15.728 20.5981 15.9118 20.6245 16.5423 20.2607ZM13.5871 25.5857C14.0139 25.6584 14.3883 25.7113 14.7626 25.7907C15.2748 25.8966 15.5375 25.7378 15.7477 25.0763C15.4521 24.9969 15.1238 24.7985 14.8742 24.8713C14.4126 25.0621 13.9724 25.3015 13.5608 25.5857H13.5871ZM30.4316 31.2546C30.2497 30.7747 30.0301 30.3102 29.7749 29.8655C29.6567 29.6935 29.2955 29.6869 29.0394 29.6406C28.9869 29.6406 28.8489 29.7927 28.8621 29.8456C28.9277 30.1102 28.9606 30.4674 29.1379 30.5997C29.5533 30.8628 29.9932 31.0844 30.4513 31.2612L30.4316 31.2546ZM16.365 16.7085C16.562 17.1121 16.7327 17.4428 16.8903 17.7802C17.1333 18.3093 17.3566 18.4416 17.9542 18.2763C17.9542 17.9521 18.0658 17.5685 17.685 17.3568C17.3041 17.1451 16.8575 16.9467 16.3715 16.6953L16.365 16.7085ZM13.9351 27.1732C14.3817 27.1732 14.7166 27.1732 15.045 27.1732C15.7017 27.1732 15.8002 27.1269 16.0366 26.3662C15.7542 26.2935 15.3799 26.0884 15.2092 26.1876C14.7557 26.4766 14.3293 26.8065 13.9351 27.1732ZM33.2752 22.3444L32.6973 22.2584C32.5199 22.2253 32.3492 22.2055 32.1719 22.1658C31.5677 22.0401 31.4364 22.1063 31.0883 22.8273C31.3838 22.9265 31.745 23.1712 31.9486 23.0985C32.4116 22.8999 32.852 22.6515 33.262 22.3576L33.2752 22.3444ZM21.8616 34.1585L22.3738 33.1266C22.6759 32.5511 22.6562 32.399 22.1046 31.8433C21.9273 32.1212 21.6318 32.3725 21.6186 32.6437C21.6511 33.1553 21.7325 33.6626 21.8616 34.1585ZM17.9214 29.5612C17.6127 29.6472 17.2055 29.6273 17.0742 29.8126C16.8129 30.2771 16.5931 30.7641 16.4175 31.2678C16.7984 31.0694 17.107 30.8974 17.4223 30.7386C17.9739 30.4608 18.0395 30.3351 17.941 29.5612H17.9214ZM30.7994 26.5118C30.9898 26.7499 31.1343 27.1269 31.3444 27.1732C31.8469 27.2197 32.3524 27.2197 32.8549 27.1732C32.6106 26.9059 32.34 26.6643 32.0471 26.4522C31.5677 26.0553 31.3904 26.0487 30.7994 26.4853V26.5118ZM25.9069 16.3844C26.1433 16.186 26.5045 16.0338 26.5636 15.8155C26.613 15.2963 26.613 14.7736 26.5636 14.2544C26.307 14.5105 26.074 14.7894 25.8675 15.0879C25.4866 15.5774 25.4735 15.7494 25.8675 16.4109L25.9069 16.3844ZM28.9278 18.3953C29.2496 18.2961 29.6567 18.2961 29.7946 18.0977C30.0614 17.6498 30.2814 17.1754 30.4513 16.6821L29.4728 17.1914C28.9015 17.4759 28.8161 17.5883 28.9278 18.3953ZM25.7427 31.5589C25.6705 31.8764 25.4669 32.2204 25.5589 32.4188C25.8419 32.8856 26.1625 33.3281 26.5176 33.7418V33.1266C26.5176 32.9546 26.5176 32.7892 26.5176 32.6173C26.5176 31.9161 26.5176 31.8698 25.7361 31.5457L25.7427 31.5589ZM20.3052 14.1486C20.3052 14.605 20.3052 14.9424 20.3052 15.2797C20.3052 15.9412 20.3052 16.0338 21.1129 16.3381C21.1589 16.0074 21.3296 15.637 21.2246 15.3988C20.9611 14.9517 20.6531 14.5328 20.3052 14.1486ZM16.0629 21.3853C15.8724 21.167 15.7082 20.7965 15.485 20.7238C14.9937 20.6739 14.4987 20.6739 14.0074 20.7238C14.1132 20.8898 14.2546 21.03 14.4211 21.1339L14.848 21.4646C15.2748 21.8417 15.5441 21.8351 16.0629 21.3853ZM20.2855 33.6227H20.4037C20.6007 33.3383 20.7846 33.0472 20.9947 32.776C21.3691 32.2997 21.3756 32.0219 20.9225 31.4861C20.7058 31.6978 20.3643 31.8896 20.3118 32.1476C20.2624 32.6336 20.2624 33.1235 20.3118 33.6095L20.2855 33.6227ZM30.8191 21.544C31.1409 21.6102 31.4758 21.802 31.6859 21.7028C32.1382 21.4147 32.5646 21.0871 32.9599 20.7238C32.5396 20.7238 32.2113 20.7238 31.8895 20.7238C31.1737 20.7238 31.1343 20.7238 30.8191 21.544ZM22.2819 5.34424C22.6497 5.6353 22.9911 5.91971 23.3392 6.1843C23.3727 6.20171 23.4098 6.21079 23.4475 6.21079C23.4852 6.21079 23.5224 6.20171 23.5559 6.1843C23.9171 5.89986 24.2717 5.60884 24.6329 5.31118C23.7857 4.51739 23.0765 4.51739 22.2819 5.31118V5.34424ZM5.43082 25.1557L6.27135 24.0378C6.28539 24.0078 6.29267 23.975 6.29267 23.9419C6.29267 23.9087 6.28539 23.876 6.27135 23.846C5.98896 23.4623 5.70005 23.0853 5.40453 22.695C4.59678 23.8592 4.58365 24.018 5.40453 25.1557H5.43082ZM11.8862 38.2134C12.2408 39.5893 12.4444 39.7481 13.8038 39.6819C13.6725 39.2387 13.5477 38.7955 13.4164 38.3589C13.4006 38.3228 13.376 38.2912 13.3451 38.2669C13.3141 38.2427 13.2777 38.2266 13.239 38.2201C12.7925 38.2201 12.3459 38.2201 11.8862 38.2201V38.2134ZM38.6536 14.056C38.7258 12.6669 38.5419 12.4287 37.2285 12.0715C37.2285 12.5346 37.2285 12.9778 37.2285 13.4276C37.2363 13.4772 37.2559 13.5242 37.2856 13.5645C37.3154 13.6048 37.3544 13.6373 37.3993 13.6591C37.7999 13.798 38.207 13.9104 38.6404 14.0427L38.6536 14.056ZM41.3855 25.2086C42.1932 24.2428 42.1801 23.4755 41.3855 22.7744L40.512 23.9783L41.4117 25.2086H41.3855ZM11.4988 37.9554L11.2624 36.4803L9.81758 36.2488C9.81758 37.413 10.4743 38.0679 11.4988 37.9554ZM35.5145 36.4869C35.4357 36.9897 35.3635 37.4792 35.2847 37.9687C36.4142 38.015 37.1629 37.2013 36.9133 36.2554L35.5145 36.4869ZM41.0046 19.8638C40.7879 20.274 40.5646 20.6841 40.3479 21.1008C40.3378 21.1383 40.3368 21.1776 40.3447 21.2155C40.3527 21.2535 40.3696 21.289 40.3938 21.3191C40.7091 21.6366 41.0506 21.9806 41.3592 22.265C41.5161 22.0933 41.6326 21.8882 41.7001 21.6649C41.7675 21.4417 41.7842 21.206 41.7489 20.9753C41.7136 20.7446 41.6271 20.525 41.496 20.3325C41.3649 20.1401 41.1925 19.98 40.9915 19.8638H41.0046ZM35.2715 9.99446L35.5079 11.4762L36.2369 11.582L36.9396 11.7143C36.9724 10.5567 36.3157 9.88862 35.2715 9.99446ZM27.3911 42.1427C26.9839 41.9178 26.603 41.7061 26.2156 41.4812C26.1781 41.4615 26.1364 41.4512 26.0941 41.4512C26.0518 41.4512 26.0101 41.4615 25.9726 41.4812C25.6574 41.8053 25.3618 42.1426 25.0532 42.48C25.9332 43.1415 26.7015 43.029 27.3911 42.0963V42.1427ZM9.54831 35.8387C9.54831 35.3558 9.54831 34.9192 9.54831 34.5157C9.54659 34.4719 9.53437 34.4291 9.51264 34.3911C9.4909 34.3531 9.46035 34.3209 9.42357 34.2974C8.99671 34.1453 8.56329 34.0196 8.11016 33.8873C8.02479 35.2764 8.24153 35.5278 9.53524 35.8717L9.54831 35.8387ZM20.6204 41.4679L19.4055 42.1294C19.506 42.3342 19.653 42.5121 19.8348 42.6487C20.0165 42.7853 20.2277 42.8767 20.4512 42.9154C20.6747 42.9541 20.9041 42.939 21.1206 42.8714C21.3372 42.8037 21.5349 42.6855 21.6974 42.5263C21.3428 42.1889 20.9947 41.8648 20.6204 41.4812V41.4679ZM21.7105 5.42362C21.5482 5.26325 21.3502 5.14417 21.1331 5.0762C20.9159 5.00823 20.6858 4.99332 20.4618 5.03276C20.2378 5.0722 20.0263 5.16485 19.8449 5.30298C19.6635 5.44112 19.5174 5.62078 19.4186 5.82711L20.5942 6.4886L21.7105 5.45006V5.42362ZM23.3917 41.6597L22.1965 42.5991C23.1619 43.4326 23.8514 43.4193 24.5607 42.5991L23.9696 42.1559C23.7792 42.0103 23.5887 41.8516 23.3917 41.6928V41.6597ZM5.77882 19.9101C4.866 20.6377 4.73464 21.5639 5.43732 22.3312C5.7591 21.9541 6.0941 21.5771 6.41588 21.1736L5.75918 19.9101H5.77882ZM9.51552 12.1178C8.31375 12.3758 7.88031 13.0108 8.11016 14.1023C8.53045 13.9766 8.95076 13.8575 9.35792 13.712C9.40121 13.687 9.43762 13.6515 9.46398 13.6088C9.49033 13.5661 9.50581 13.5174 9.50895 13.4673C9.50895 13.0307 9.50895 12.6007 9.50895 12.1443L9.51552 12.1178ZM11.2361 11.549C11.3149 11.033 11.3937 10.5567 11.4659 10.0738C11.2362 10.0375 11.0012 10.0575 10.7808 10.1321C10.5605 10.2068 10.3612 10.334 10.2 10.5028C10.0389 10.6716 9.92054 10.8771 9.8551 11.1019C9.78966 11.3266 9.77905 11.564 9.82415 11.7937L11.2361 11.549ZM38.6273 33.9998C38.1939 34.1321 37.767 34.2577 37.3139 34.3967C37.2791 34.4159 37.2496 34.4435 37.2278 34.477C37.2061 34.5104 37.1928 34.5487 37.1891 34.5885C37.1891 35.0449 37.1891 35.5013 37.1891 35.9842C38.5025 35.6006 38.6996 35.3691 38.6076 33.9998H38.6273ZM34.8775 9.76958C34.5557 8.44661 34.3062 8.21507 32.9665 8.30106C33.0978 8.75087 33.2161 9.19407 33.354 9.62403C33.3828 9.66538 33.4211 9.69905 33.4658 9.7221C33.5104 9.74515 33.5599 9.7569 33.6101 9.75634C34.0172 9.75634 34.4244 9.75634 34.8775 9.75634V9.76958ZM39.6255 29.5083L39.8751 30.2557C39.9539 30.4873 40.0261 30.7254 40.1049 30.9635C41.1096 30.4211 41.3723 29.5347 40.8141 28.6417L39.6255 29.5083ZM13.7118 8.28124C12.4772 8.1754 11.8862 8.63843 11.8206 9.76296C12.2474 9.76296 12.6677 9.76296 13.088 9.76296C13.137 9.75698 13.1839 9.7395 13.225 9.71192C13.266 9.68435 13.3001 9.64746 13.3244 9.60421C13.4689 9.18086 13.5805 8.74428 13.7118 8.28124ZM28.6322 7.2427L30.0245 6.75321C29.591 5.72129 28.8818 5.47652 27.7785 5.98586C28.0149 6.33645 28.2382 6.68705 28.4746 7.03102C28.5206 7.10378 28.5731 7.16332 28.6322 7.2427ZM41.3264 25.7643C40.9849 26.1347 40.6697 26.4985 40.2888 26.8623L40.9455 28.1324C41.1478 28.0223 41.3224 27.8672 41.4561 27.6788C41.5899 27.4904 41.6792 27.2737 41.7172 27.0453C41.7552 26.8169 41.7409 26.5828 41.6754 26.3608C41.61 26.1388 41.4951 25.9348 41.3395 25.7643H41.3264ZM32.9796 39.7943C34.2208 39.92 34.8512 39.4305 34.8578 38.3193C34.4375 38.3193 34.0172 38.3193 33.6035 38.3193C33.5542 38.3245 33.5068 38.3409 33.4647 38.3673C33.4226 38.3936 33.387 38.4292 33.3605 38.4714C33.2226 38.8947 33.111 39.3247 32.9796 39.7943ZM7.06602 29.4818C6.8493 29.3297 6.63916 29.1907 6.40931 29.0452C6.17946 28.8997 6.02184 28.7476 5.82483 28.5888C5.3126 29.7199 5.56871 30.5005 6.56034 30.9305C6.71138 30.4608 6.86241 29.9978 7.03315 29.4818H7.06602ZM5.71974 28.1589L6.33051 26.9483L5.3323 25.7841C5.17518 25.9542 5.05876 26.1583 4.99209 26.3807C4.92541 26.6031 4.91027 26.838 4.94767 27.0672C4.98508 27.2965 5.07405 27.5141 5.20789 27.7033C5.34173 27.8925 5.51683 28.0484 5.71974 28.1589ZM25.0466 5.45668C25.3421 5.78081 25.6311 6.11818 25.9397 6.42247C25.973 6.45022 26.0128 6.469 26.0553 6.47709C26.0978 6.48519 26.1417 6.48235 26.1827 6.46878C26.5768 6.27033 26.9642 6.04543 27.3517 5.80729C27.2492 5.60211 27.0999 5.42436 26.9158 5.28877C26.7318 5.15318 26.5185 5.06361 26.2933 5.02743C26.0682 4.99125 25.8377 5.0095 25.6209 5.08068C25.4042 5.15187 25.2073 5.27393 25.0466 5.43682V5.45668ZM40.1509 17.0393L39.6781 18.5078L40.8798 19.4008C41.3855 18.3557 41.1885 17.6942 40.1509 17.0393ZM18.9458 42.017C18.6766 41.6267 18.4796 41.0446 18.1249 40.8991C17.7703 40.7535 17.2712 41.0843 16.8115 41.1967L16.667 41.2496C16.7335 41.4753 16.8528 41.6816 17.015 41.8512C17.1772 42.0207 17.3775 42.1485 17.5989 42.2237C17.8204 42.2989 18.0566 42.3194 18.2875 42.2834C18.5185 42.2474 18.7375 42.1561 18.9261 42.017H18.9458ZM6.5997 17.0459C5.45047 17.8992 5.3848 18.0381 5.86419 19.4008L7.07259 18.5011C6.90842 18.005 6.75731 17.542 6.5997 17.0459ZM30.0639 41.2629L28.6519 40.78L27.8114 42.0103C28.757 42.5594 29.5451 42.3014 30.0639 41.2629ZM7.86718 14.4463C6.77705 14.7903 6.32393 15.7692 6.80989 16.6093C7.17765 16.4241 7.55193 16.2521 7.91312 16.0537C7.95868 16.0215 7.99614 15.979 8.02238 15.9296C8.04862 15.8802 8.06288 15.8253 8.06415 15.7693C8.01818 15.3327 7.93942 14.9093 7.86718 14.4463ZM18.9261 5.91311C17.8622 5.39054 17.1202 5.64188 16.6736 6.68042C17.0742 6.81933 17.4682 6.9715 17.8754 7.08395C17.934 7.09495 17.9944 7.09168 18.0515 7.07442C18.1086 7.05716 18.1608 7.0264 18.2037 6.98471C18.4599 6.64074 18.6831 6.27693 18.9261 5.91311ZM38.6273 15.9544L39.9407 16.6159C40.0418 16.4086 40.094 16.1806 40.0933 15.9496C40.0927 15.7186 40.0391 15.4909 39.9368 15.2842C39.8345 15.0774 39.6862 14.8973 39.5035 14.7577C39.3208 14.6181 39.1086 14.5229 38.8834 14.4793C38.8575 14.5107 38.8375 14.5466 38.8243 14.5852C38.7587 15.035 38.6995 15.4782 38.6273 15.9544ZM16.2402 6.85241C16.0314 6.75122 15.8019 6.70113 15.5703 6.70621C15.3386 6.71129 15.1115 6.77139 14.9073 6.88164C14.7031 6.99189 14.5277 7.14917 14.3952 7.34065C14.2628 7.53213 14.1772 7.75243 14.1453 7.98356L15.5901 8.21507L16.2468 6.85241H16.2402ZM39.9604 31.3274L38.7652 31.9293C38.7127 31.9293 38.647 32.0351 38.6536 32.0748C38.7193 32.5577 38.7915 33.034 38.8703 33.5169C39.967 33.1001 40.2954 32.432 39.9604 31.3274ZM32.625 39.9796L31.3116 39.7547C31.2525 39.7547 31.1409 39.7547 31.1277 39.7943C30.9044 40.2309 30.7009 40.6675 30.471 41.1173C31.6465 41.3885 32.1653 41.1173 32.6185 39.973L32.625 39.9796ZM16.2402 41.0909C16.0432 40.6741 15.8659 40.2773 15.6689 39.8936C15.6689 39.8274 15.5572 39.7415 15.5047 39.7481C15.0384 39.8142 14.5787 39.9002 14.0993 39.9796C14.5984 41.1504 15.196 41.4547 16.2402 41.0909ZM30.4842 6.87227C30.6812 7.28901 30.8716 7.70575 31.0752 8.11587C31.0928 8.14224 31.1162 8.16427 31.1435 8.1803C31.1708 8.19634 31.2013 8.20593 31.2328 8.20844C31.6859 8.1423 32.139 8.05632 32.5922 7.97694C32.2113 6.83919 31.4495 6.44892 30.4842 6.87227ZM6.7836 31.3472C6.67882 31.5577 6.62421 31.7899 6.62407 32.0253C6.62394 32.2608 6.67826 32.4931 6.7828 32.7037C6.88734 32.9143 7.03918 33.0974 7.22627 33.2386C7.41335 33.3797 7.63057 33.475 7.86061 33.5169C7.93285 33.0604 8.00504 32.6106 8.06415 32.1542C8.0678 32.1162 8.0626 32.0779 8.04891 32.0423C8.03523 32.0066 8.01345 31.9748 7.98534 31.9491C7.59132 31.7375 7.18419 31.5457 6.7836 31.3472ZM11.4988 34.4231H9.68627C9.68627 34.906 9.68627 35.3955 9.68627 35.8784C9.6947 35.9245 9.71486 35.9677 9.74479 36.0036C9.77472 36.0396 9.81339 36.067 9.85702 36.0834C10.3036 36.1694 10.7567 36.229 11.1704 36.3017C11.2689 35.6402 11.3608 35.0647 11.4593 34.4231H11.4988ZM13.1733 11.7474C13.1733 11.4431 13.1733 11.1653 13.1733 10.8941C13.1733 10.6229 13.2587 10.0408 13.0945 9.93495C12.9304 9.82911 12.4379 9.8688 12.0635 9.85558C11.9834 9.839 11.9007 9.839 11.8206 9.85558C11.7352 9.90188 11.6104 9.97463 11.5972 10.054C11.5119 10.5171 11.4594 10.9801 11.3937 11.4299L13.1733 11.7209V11.7474ZM11.4856 13.5599C11.4134 13.1762 11.3543 12.8984 11.3083 12.5941C11.2623 12.2898 11.2229 11.9922 11.1835 11.7011C9.72561 11.6614 9.5089 11.8797 9.62711 13.2291C9.62711 13.2688 9.62711 13.3284 9.62711 13.3482C9.62711 13.368 9.77822 13.5466 9.86359 13.5533C10.3758 13.5533 10.8946 13.5533 11.4725 13.5533L11.4856 13.5599ZM35.2387 11.4233C35.173 10.9669 35.1271 10.5171 35.0351 10.1003C35.011 10.0415 34.9735 9.98933 34.9255 9.94795C34.8776 9.90657 34.8207 9.87715 34.7593 9.86216C34.3766 9.83901 33.9928 9.83901 33.6101 9.86216C33.5379 9.86216 33.3999 9.98124 33.3999 10.0408C33.3999 10.5964 33.4393 11.1521 33.4656 11.7342L35.2387 11.4431V11.4233ZM36.9855 13.5466C36.9855 13.0637 36.9855 12.6007 36.9855 12.1377C36.9735 12.0809 36.9481 12.0279 36.9116 11.983C36.875 11.9381 36.8283 11.9027 36.7754 11.8797C36.342 11.7937 35.8954 11.7342 35.462 11.668C35.3569 12.3295 35.2715 12.9248 35.173 13.5466H36.9855ZM35.4489 36.2885C35.902 36.2157 36.342 36.1628 36.7623 36.0768C36.8116 36.0587 36.8552 36.0277 36.8887 35.9871C36.9221 35.9464 36.9442 35.8974 36.9527 35.8453C36.9527 35.369 36.9527 34.8796 36.9527 34.4165H35.1402L35.416 36.2885H35.4489ZM29.2495 38.8617C29.0591 39.4372 28.8686 40.006 28.6519 40.6411C29.0788 40.78 29.4991 40.9321 29.9325 41.0512C29.9892 41.0595 30.047 41.0535 30.1008 41.0339C30.1547 41.0143 30.2029 40.9816 30.2412 40.9387C30.471 40.5352 30.6746 40.1119 30.8979 39.6885L29.2561 38.8617H29.2495ZM13.1537 38.0944V36.2224L11.3477 36.5068C11.4133 36.9566 11.4659 37.413 11.5579 37.8298C11.5772 37.8848 11.6103 37.9338 11.6541 37.9721C11.6978 38.0103 11.7506 38.0365 11.8074 38.0481C12.254 38.0481 12.7071 38.0481 13.1537 38.0481V38.0944ZM33.3934 38.0481C33.8596 38.0481 34.3324 38.0481 34.8053 38.0481C34.8506 38.0379 34.8926 38.0162 34.9271 37.9849C34.9616 37.9536 34.9875 37.9138 35.0023 37.8694C35.0811 37.4064 35.1468 36.9368 35.2125 36.4803L33.3934 36.1893V38.0481ZM38.8637 25.1822C39.2906 25.6188 39.7043 26.0355 40.2231 26.5514C40.4792 26.2472 40.7813 25.89 41.0571 25.5592C41.0888 25.5161 41.1101 25.4662 41.1192 25.4134C41.1283 25.3605 41.1251 25.3063 41.1097 25.2549C40.8536 24.8514 40.5777 24.4678 40.3085 24.0775L38.8637 25.1822ZM31.1211 39.5364C31.5743 39.6026 32.0143 39.6753 32.4346 39.7216C32.4912 39.7183 32.5463 39.7016 32.5954 39.6729C32.6444 39.6442 32.6861 39.6042 32.7169 39.5562C32.8811 39.1263 33.0125 38.6897 33.157 38.2333L31.4232 37.671C31.3182 38.2597 31.2131 38.8418 31.0949 39.5364H31.1211ZM39.4088 29.4884L37.662 30.1102C37.7816 30.3811 37.9221 30.6421 38.0823 30.8908C38.2793 31.1488 38.1676 31.6912 38.5879 31.6912C38.89 31.6912 39.1987 31.42 39.5073 31.2678C39.5829 31.2348 39.6503 31.185 39.7043 31.1223C39.7568 31.0429 39.8291 30.9172 39.8028 30.8379C39.6846 30.3814 39.5467 29.9316 39.4088 29.5149V29.4884ZM33.157 9.67034C33.0191 9.23376 32.9074 8.82364 32.7563 8.43337C32.7289 8.36942 32.6866 8.31315 32.6328 8.26937C32.579 8.22558 32.5155 8.19559 32.4477 8.182C31.9946 8.22169 31.548 8.30767 31.0949 8.37382C31.2131 9.0353 31.3182 9.65049 31.4232 10.2392L33.157 9.67034ZM24.4753 40.0325L23.4246 41.4878C24.3637 42.5858 24.692 42.5991 25.572 41.5804C25.6114 41.5407 25.6705 41.4944 25.6705 41.4481C25.6891 41.3515 25.6752 41.2514 25.6311 41.1636C25.2633 40.7866 24.8759 40.4294 24.4753 40.0325ZM8.82595 17.8132C8.60267 17.3303 8.37943 16.9004 8.20868 16.4439C8.10361 16.1661 7.95908 16.1397 7.74237 16.2521C7.44532 16.3913 7.15795 16.5504 6.88212 16.7284C6.82626 16.7718 6.78157 16.8281 6.75185 16.8926C6.72214 16.9571 6.70825 17.0278 6.71137 17.0988C6.81644 17.542 6.96089 17.9786 7.09223 18.4218L8.82595 17.8198V17.8132ZM38.3777 32.0616L36.5718 32.4056C36.7491 32.9811 36.9264 33.5632 37.1235 34.1916C37.5569 34.0461 37.9575 33.9204 38.3515 33.7682C38.4434 33.7285 38.5682 33.5896 38.5616 33.5102C38.5157 33.0274 38.4434 32.5511 38.3777 32.0616ZM38.8309 22.7148L40.2428 23.7997C41.3198 22.7545 41.3264 22.4767 40.2954 21.5572C40.2954 21.5572 40.2362 21.4778 40.2034 21.4778C40.1706 21.4778 39.9867 21.4779 39.9341 21.5176C39.5598 21.9012 39.2052 22.3047 38.8309 22.7148ZM15.091 37.7107L13.3507 38.2729C13.5017 38.7294 13.633 39.1659 13.7906 39.5959C13.8145 39.6421 13.849 39.6819 13.8913 39.7118C13.9336 39.7418 13.9824 39.761 14.0337 39.7679C14.4999 39.7216 14.9596 39.6489 15.4259 39.5827C15.3011 38.8882 15.196 38.2597 15.091 37.7173V37.7107ZM7.71615 22.7082C7.51914 22.5164 7.33526 22.3245 7.14482 22.1526C6.95437 21.9806 6.58658 21.4911 6.3633 21.4911C6.14002 21.4911 5.81824 21.9607 5.55556 22.2253C5.51165 22.2584 5.47941 22.3047 5.46361 22.3576C5.46361 22.4635 5.39794 22.5958 5.46361 22.6685C5.71316 23.0588 5.98895 23.4359 6.2582 23.8261L7.74237 22.6884L7.71615 22.7082ZM17.3106 38.8286C17.0483 38.9371 16.8011 39.0795 16.5751 39.252C16.3256 39.4901 15.7214 39.2916 15.7936 39.834C15.8944 40.1973 16.0494 40.543 16.2533 40.8594C16.2697 40.8975 16.2944 40.9314 16.3256 40.9586C16.4109 40.9983 16.5094 41.071 16.5751 41.0512C17.0282 40.9189 17.4748 40.7667 17.8885 40.6278C17.6718 39.9663 17.4945 39.4372 17.2909 38.8286H17.3106ZM23.3983 6.41585L24.4884 7.92401L25.7296 6.52829C25.4669 6.27692 25.1386 5.93295 24.784 5.61543C24.733 5.58981 24.6768 5.57647 24.6198 5.57647C24.5628 5.57647 24.5066 5.58981 24.4556 5.61543C24.101 5.85357 23.766 6.11815 23.3983 6.38936V6.41585ZM26.0251 41.2959C26.4388 41.5076 26.8329 41.7325 27.24 41.9177C27.2939 41.9326 27.3506 41.9331 27.4048 41.9192C27.4589 41.9053 27.5085 41.8774 27.5487 41.8384C27.7869 41.5371 28.0062 41.2212 28.2054 40.8924C28.2318 40.8438 28.2457 40.7892 28.2457 40.7337C28.2457 40.6782 28.2318 40.6236 28.2054 40.5749C27.7654 40.2442 27.3122 39.9465 26.892 39.6422L26.0448 41.2959H26.0251ZM22.0192 39.973C21.8222 40.1846 21.6318 40.3765 21.4544 40.5815C21.2771 40.7866 20.7977 41.1372 20.8568 41.3621C20.9159 41.587 21.2902 41.8979 21.5135 42.1559C21.5529 42.2122 21.6077 42.2558 21.6711 42.2815C21.7828 42.2815 21.9272 42.3477 22.0061 42.2815C22.3804 42.0368 22.7285 41.759 23.0962 41.4812L21.9929 39.9597L22.0192 39.973ZM40.0195 21.0545C40.2362 20.6179 40.4333 20.2343 40.6106 19.844C40.6565 19.7514 40.6762 19.5728 40.6106 19.5331C40.2297 19.209 39.8291 18.9179 39.4416 18.6136L38.3843 20.1747C38.6798 20.3203 38.9425 20.4393 39.1986 20.5782C39.4547 20.7171 39.6912 20.8759 39.9998 21.0545H40.0195ZM7.0463 29.4686C6.90839 29.9316 6.77051 30.355 6.66544 30.7915C6.6559 30.8501 6.66046 30.9101 6.67874 30.9665C6.69703 31.0229 6.72845 31.0741 6.77045 31.1157C7.10954 31.3196 7.4604 31.5029 7.82117 31.6647C7.87324 31.6716 7.92626 31.6656 7.97548 31.6472C8.02471 31.6287 8.06867 31.5984 8.10359 31.5589C8.33343 31.0826 8.54358 30.5997 8.76029 30.0838L7.03315 29.4752L7.0463 29.4686ZM38.4303 16.0603C38.1348 16.6755 37.8787 17.2113 37.6226 17.7669L39.3497 18.3755C39.4876 17.9323 39.6321 17.4825 39.7503 17.0525C39.7537 16.9934 39.7429 16.9342 39.7189 16.8801C39.6949 16.826 39.6584 16.7786 39.6124 16.7416C39.2315 16.5101 38.8309 16.305 38.4303 16.0801V16.0603ZM8.12988 32.0351C8.07264 32.1971 8.0265 32.3629 7.99192 32.5313C7.76207 33.8542 7.79491 33.6426 8.81937 33.9932C8.92871 34.0454 9.04674 34.0769 9.16745 34.0858C9.25282 34.0858 9.39072 34.0196 9.41043 33.9468C9.58117 33.4243 9.72562 32.8885 9.87666 32.3725L8.12988 32.0351ZM9.3382 13.7252C8.8982 13.8708 8.51077 13.9898 8.12988 14.142C8.02481 14.1817 7.88691 14.3338 7.89348 14.4264C7.93288 14.9093 8.01819 15.3856 8.08387 15.8618L9.88981 15.5179C9.70593 14.9358 9.52864 14.3603 9.3382 13.7252ZM15.3602 8.35399C14.9136 8.28123 14.4933 8.19524 14.0468 8.15555C13.9783 8.15908 13.9117 8.17891 13.8523 8.21341C13.793 8.24791 13.7426 8.29608 13.7053 8.35399C13.5411 8.76411 13.4229 9.19409 13.2784 9.64389L15.0122 10.2128C15.1172 9.63727 15.2223 9.04855 15.3471 8.35399H15.3602ZM28.56 7.26915C28.7833 7.93063 28.9672 8.49952 29.1576 9.06179L30.7994 8.22831C30.5892 7.80496 30.3922 7.39485 30.1427 6.99796C30.1063 6.95336 30.06 6.91809 30.0075 6.89508C29.9549 6.87208 29.8977 6.862 29.8406 6.86565C29.4071 6.98472 28.9803 7.13023 28.5271 7.26915H28.56ZM17.7638 7.26915C17.3369 7.13023 16.9035 6.9847 16.4503 6.85241C16.406 6.84459 16.3604 6.8471 16.3172 6.85972C16.2739 6.87233 16.2341 6.89469 16.2008 6.92516C15.9644 7.35513 15.7411 7.79171 15.5441 8.24813L17.1924 9.07499L17.7769 7.28901L17.7638 7.26915ZM23.0305 6.43567C22.0061 5.31776 21.7696 5.31117 20.8502 6.37616C20.8174 6.42246 20.7649 6.45554 20.7518 6.50846C20.7386 6.56138 20.7518 6.6672 20.7518 6.70028C21.1589 7.10378 21.5726 7.50067 21.9798 7.89094L23.0305 6.43567ZM6.39616 26.8359C6.17945 27.2658 5.98241 27.6627 5.79197 28.0662C5.79197 28.1456 5.746 28.3044 5.79197 28.3375C6.17286 28.6616 6.57347 28.9592 6.96092 29.2569L8.01821 27.7222L6.39616 26.8359ZM25.9923 6.62753L26.8329 8.28124L28.1463 7.36839C28.1463 7.36839 28.2317 7.29562 28.2251 7.28239C28.0833 6.96001 27.9187 6.64829 27.7326 6.34967C27.6078 6.1843 27.3385 5.95942 27.2137 6.00573C26.787 6.18094 26.3743 6.38881 25.9791 6.62753H25.9923ZM20.3906 41.2827C20.0819 40.6741 19.8061 40.1516 19.5368 39.6224L18.0396 40.7072C18.3285 41.1041 18.6109 41.5076 18.913 41.8979C18.954 41.9178 18.9988 41.9282 19.0443 41.9282C19.0898 41.9282 19.1347 41.9178 19.1757 41.8979C19.5828 41.6995 19.9769 41.4812 20.3906 41.2364V41.2827ZM6.15319 24.0378C5.8905 24.4149 5.62124 24.7588 5.39796 25.1359C5.37128 25.2083 5.36153 25.286 5.3695 25.3629C5.37747 25.4397 5.40293 25.5137 5.44389 25.579C5.66963 25.8594 5.92022 26.1184 6.19255 26.353C6.23868 26.3791 6.29068 26.3928 6.34358 26.3928C6.39648 26.3928 6.44855 26.3791 6.49469 26.353C6.87558 25.9627 7.23673 25.546 7.61106 25.1359L6.15319 24.018V24.0378ZM37.0184 13.6789C36.8214 14.3073 36.6506 14.8762 36.4667 15.4583L38.2399 15.7891C38.3055 15.5245 38.3712 15.2797 38.4171 15.035C38.5813 14.1949 38.5616 14.1618 37.7604 13.9039L37.0184 13.6789ZM6.92806 18.5806C6.54717 18.8716 6.15973 19.156 5.79854 19.4669C5.76919 19.5087 5.75025 19.5569 5.74339 19.6076C5.73653 19.6583 5.74199 19.7099 5.75918 19.758C5.94962 20.1747 6.15972 20.5848 6.3633 21.0016L7.97885 20.1218L6.92806 18.5806ZM20.3709 6.55473C19.9637 6.33644 19.5894 6.1314 19.2085 5.9528C19.1165 5.90649 18.9327 5.90649 18.8867 5.9528C18.5846 6.32323 18.3088 6.72013 18.0198 7.11702L19.5172 8.20844L20.3709 6.54153V6.55473ZM39.4154 29.1775C39.7962 28.8799 40.1706 28.602 40.5252 28.3044C40.5569 28.2638 40.5787 28.2165 40.589 28.1659C40.5993 28.1154 40.5977 28.0631 40.5843 28.0133C40.3939 27.5833 40.1772 27.1666 39.967 26.7499L38.3581 27.6297C38.693 28.1258 39.0148 28.6086 39.4154 29.1775ZM33.1241 9.72989C32.5002 9.94157 31.9683 10.1201 31.4364 10.3186C31.3773 10.3186 31.3248 10.4443 31.3116 10.5171C31.1606 11.3505 31.0095 12.1906 30.8847 12.9248L32.9993 11.754C33.0327 11.7321 33.0606 11.7029 33.0811 11.6685C33.1016 11.6341 33.1141 11.5955 33.1176 11.5556C33.1176 10.9999 33.1176 10.4377 33.1176 9.72989H33.1241ZM34.8841 30.0573L36.1975 31.883C36.2566 31.9558 36.342 32.0484 36.4142 32.0484C37.0297 32.0772 37.6434 31.9618 38.207 31.711C37.9247 31.1686 37.6685 30.6659 37.3927 30.1698C37.3689 30.1372 37.3384 30.1103 37.3032 30.0909C37.2681 30.0715 37.2291 30.06 37.1891 30.0573H34.8512H34.8841ZM30.8782 8.46643L30.7468 8.34075C30.3003 8.57888 29.8537 8.83026 29.394 9.05516C29.1707 9.16762 29.1379 9.32638 29.1313 9.5579C29.1313 10.2591 29.0657 10.9602 29.0328 11.6614C29.0328 11.7474 29.0328 11.8334 29.0328 11.8532C29.6239 11.3836 30.228 10.9271 30.8059 10.4443C30.874 10.3859 30.9294 10.3141 30.969 10.2334C31.0085 10.1526 31.0312 10.0646 31.0358 9.97464C31.0358 9.47191 30.9241 8.96916 30.865 8.46643H30.8782ZM36.7754 34.132C36.69 33.7484 36.6244 33.4706 36.5521 33.1266C36.4142 32.5511 36.1647 32.1939 35.4883 32.1674C34.8858 32.0972 34.2918 31.9664 33.7151 31.7772C34.0763 32.4783 34.4638 33.2258 34.8644 33.9733C34.8907 34.017 34.9272 34.0537 34.9706 34.0802C35.0141 34.1067 35.0632 34.1222 35.1139 34.1255C35.6262 34.1255 36.1449 34.1255 36.7754 34.1255V34.132ZM12.5166 31.8168C11.814 31.9491 11.0128 32.0947 10.2116 32.2534C10.1394 32.2534 10.0278 32.3063 10.0081 32.3593C9.72623 32.9065 9.56701 33.5095 9.54173 34.1255C10.1065 34.1255 10.6319 34.1255 11.1639 34.1255C11.2142 34.1183 11.2621 34.0996 11.3042 34.071C11.3463 34.0423 11.3814 34.0044 11.4068 33.9601C11.8009 33.2258 12.1751 32.4783 12.5166 31.8235V31.8168ZM30.8322 34.82C30.9635 35.541 31.108 36.348 31.2591 37.155C31.2591 37.2476 31.3116 37.3799 31.3707 37.4064C31.8913 37.7058 32.4788 37.8674 33.0782 37.8761C33.0782 37.3006 33.0782 36.7581 33.0782 36.2091C33.0689 36.1592 33.0496 36.1116 33.0213 36.0695C32.9931 36.0274 32.9566 35.9916 32.914 35.9644C32.1982 35.5609 31.4823 35.1706 30.8388 34.82H30.8322ZM23.1356 10.312C23.4574 9.65052 23.7923 8.92287 24.1469 8.19524C24.171 8.15368 24.1864 8.10754 24.1921 8.05975C24.1977 8.01195 24.1935 7.96349 24.1798 7.91739C23.8645 7.4345 23.5231 6.95826 23.1356 6.36954C22.735 6.95164 22.4132 7.41467 22.1046 7.89094C22.0851 7.93347 22.0751 7.97974 22.0751 8.02656C22.0751 8.07338 22.0851 8.11965 22.1046 8.16218C22.4526 8.90304 22.8138 9.6439 23.1356 10.312ZM13.8826 33.378C13.4075 33.6728 12.8919 33.8957 12.3525 34.0395C11.4002 34.1585 11.2952 34.7869 11.2558 35.5344C11.2558 35.6468 11.2558 35.7593 11.2558 35.8717C11.223 36.1099 11.3149 36.2224 11.5513 36.1893C11.9847 36.1231 12.4181 36.0636 12.8647 35.971C12.9253 35.95 12.9808 35.9161 13.0272 35.8715C13.0737 35.827 13.1101 35.773 13.1339 35.713C13.4098 34.9391 13.6724 34.1585 13.922 33.4044L13.8826 33.378ZM14.0074 14.4264C13.8169 13.9965 13.6396 13.6326 13.4952 13.2556C13.3507 12.8785 13.2719 12.4684 13.1405 12.0848C13.1209 12.0303 13.0903 11.9805 13.0508 11.9384C13.0113 11.8963 12.9636 11.8628 12.9107 11.84C12.4444 11.7474 11.965 11.6813 11.4922 11.6283C11.42 11.6283 11.2689 11.7408 11.2755 11.7871C11.2993 12.3202 11.3852 12.8486 11.5316 13.3614C11.5972 13.5467 12.0373 13.593 12.3065 13.6988L12.5429 13.7848L14.0074 14.4463V14.4264ZM9.46293 13.6459C9.67308 14.3074 9.83726 14.8498 10.0408 15.379C10.0408 15.465 10.2576 15.5046 10.3823 15.5311C10.9405 15.6502 11.5119 15.7428 12.0701 15.8618C12.2558 15.9189 12.4378 15.9874 12.6152 16.0669C12.2211 15.2996 11.8468 14.5587 11.4528 13.8245C11.4261 13.7806 11.3907 13.7428 11.349 13.7132C11.3072 13.6836 11.2598 13.6629 11.2098 13.6525C10.6844 13.6525 10.1525 13.6525 9.46293 13.6525V13.6459ZM13.2259 38.0613C13.8826 37.843 14.3883 37.6644 14.9202 37.4726C14.9793 37.4726 15.0253 37.3469 15.0384 37.2741C15.196 36.4406 15.3405 35.6071 15.4653 34.8729L13.3441 36.0437C13.3125 36.0653 13.286 36.0937 13.2667 36.1269C13.2474 36.1601 13.2357 36.1973 13.2325 36.2356C13.2325 36.7979 13.2325 37.3535 13.2325 38.0613H13.2259ZM32.4477 14.4C32.9533 14.1151 33.4914 13.893 34.0501 13.7385C34.8644 13.6194 35.0089 13.1101 35.0483 12.4155C35.0483 12.2435 35.0482 12.0781 35.0942 11.9062C35.1402 11.7342 35.0548 11.5688 34.8316 11.6019C34.385 11.6614 33.9384 11.7209 33.5181 11.8069C33.4619 11.8213 33.4094 11.8477 33.3641 11.8842C33.3188 11.9207 33.2817 11.9665 33.2554 12.0186C32.9796 12.8124 32.7235 13.6062 32.474 14.3603L32.4477 14.4ZM21.2115 37.1617L19.8981 39.1461C19.8324 39.2387 19.7339 39.3908 19.7667 39.4636C19.9966 40.006 20.2592 40.5352 20.5548 41.157L21.6974 39.9928C21.8879 39.801 21.8419 39.6092 21.7762 39.3777C21.5923 38.7691 21.4413 38.1605 21.2837 37.5519C21.2509 37.4197 21.2312 37.2873 21.2115 37.1683V37.1617ZM17.2712 35.9511L15.4784 37.3535C15.3996 37.4196 15.3011 37.5321 15.3076 37.6115C15.3536 38.187 15.4259 38.7624 15.4915 39.3445L15.6491 39.4239C16.1482 39.1461 16.6473 38.8749 17.1399 38.5905C17.1897 38.5439 17.2202 38.4801 17.2253 38.4119C17.2253 37.5586 17.2253 36.7118 17.2712 35.9511ZM15.6491 8.35399L15.4915 8.45323C15.4259 8.99565 15.3536 9.53142 15.3011 10.0738C15.301 10.1335 15.3132 10.1925 15.3369 10.2472C15.3606 10.3019 15.3954 10.351 15.439 10.3914C16.0957 10.9007 16.7065 11.3836 17.2647 11.8202C17.2647 11.0661 17.2647 10.2194 17.2253 9.36604C17.2205 9.29958 17.1898 9.23776 17.1399 9.19409C16.6473 8.90965 16.1482 8.63181 15.6491 8.35399ZM34.9235 17.7405C35.6459 17.7405 36.4602 17.7405 37.2745 17.6875C37.3265 17.683 37.3768 17.6663 37.4212 17.6388C37.4657 17.6112 37.5032 17.5735 37.5306 17.5288C37.7539 17.1253 37.9509 16.7085 38.1873 16.2918C38.2924 16.0868 38.253 15.9346 38.0035 15.9015C37.5438 15.8354 37.0906 15.7626 36.6244 15.7163C36.5668 15.7206 36.5108 15.7369 36.4599 15.7642C36.409 15.7916 36.3644 15.8293 36.3288 15.8751C35.8494 16.5366 35.3766 17.198 34.9563 17.7405H34.9235ZM23.2144 37.3469C23.2144 37.3469 23.2144 37.3469 23.2144 37.3998C22.8992 38.1142 22.5577 38.8286 22.2819 39.5496C22.2334 39.6334 22.217 39.7323 22.2359 39.8275C22.5048 40.3885 22.8847 40.8882 23.3523 41.2959C23.6872 40.813 24.009 40.3765 24.2914 39.92C24.3159 39.8649 24.3285 39.8052 24.3285 39.7448C24.3285 39.6844 24.3159 39.6246 24.2914 39.5695C23.9499 38.8286 23.5953 38.0878 23.2341 37.3469H23.2144ZM36.9921 13.6128C36.3354 13.6128 35.8626 13.6128 35.3897 13.6128C35.1468 13.6128 35.0483 13.7319 34.9366 13.9369C34.6017 14.5984 34.2274 15.2004 33.8727 15.8288C33.8519 15.8715 33.8344 15.9157 33.8202 15.9611L36.1712 15.5046C36.2566 15.5046 36.3879 15.4451 36.4076 15.379C36.5981 14.8365 36.7754 14.2809 36.9921 13.6194V13.6128ZM6.53405 26.6374C7.15135 26.9483 7.65701 27.2063 8.16924 27.4511C8.20712 27.4608 8.24666 27.4622 8.28516 27.4554C8.32365 27.4485 8.3602 27.4335 8.3925 27.4114C9.0492 26.9351 9.70595 26.4456 10.3167 26.009C9.62057 25.7907 8.84563 25.546 8.06415 25.3145C8.01214 25.3042 7.95856 25.306 7.90734 25.3197C7.85613 25.3335 7.80867 25.3588 7.76866 25.3939C7.3812 25.7643 7.01344 26.1479 6.53405 26.6374ZM32.5593 33.464C32.7892 34.1651 33.0519 34.9655 33.3277 35.7527C33.3522 35.8056 33.3877 35.8525 33.432 35.8902C33.4762 35.9278 33.528 35.9554 33.5838 35.971C34.0107 36.057 34.4441 36.1231 34.8972 36.1893C35.1271 36.1893 35.2453 36.1165 35.2125 35.8784C35.1468 35.4286 35.0942 34.9788 35.0023 34.5554C34.9802 34.4888 34.9442 34.4277 34.8966 34.3763C34.849 34.3249 34.7909 34.2845 34.7265 34.2577C33.9844 33.9733 33.2423 33.7153 32.5791 33.4772L32.5593 33.464ZM25.9594 6.63415C25.4932 7.11703 25.1123 7.4742 24.7774 7.8777C24.7097 8.0498 24.7097 8.2414 24.7774 8.4135C24.9087 8.96915 25.086 9.51819 25.2371 10.0738C25.2831 10.2657 25.3093 10.4641 25.3356 10.6229C25.7887 9.96139 26.2353 9.29991 26.649 8.63842C26.6903 8.58714 26.7205 8.52764 26.7375 8.46381C26.7545 8.39998 26.7579 8.33325 26.7475 8.268C26.5308 7.75865 26.2812 7.26914 25.9791 6.64073L25.9594 6.63415ZM29.2233 35.9313C29.3361 36.4322 29.3737 36.9472 29.3349 37.4593C29.1116 38.5309 29.683 38.9344 30.4842 39.2321L30.6746 39.3181C30.9044 39.4372 31.0358 39.3512 31.0752 39.0932C31.1343 38.65 31.2065 38.2002 31.2393 37.7702C31.2371 37.6978 31.2195 37.6267 31.1878 37.5617C31.1561 37.4967 31.111 37.4393 31.0555 37.3932C30.4513 36.8971 29.834 36.4208 29.2233 35.9445V35.9313ZM13.3638 9.78278C13.3638 10.4906 13.3638 11.0264 13.3638 11.5556C13.3725 11.6144 13.3933 11.6707 13.425 11.7208C13.4567 11.771 13.4985 11.8138 13.5477 11.8466C14.2569 12.2501 14.9727 12.6338 15.6885 13.0307C15.6885 13.0307 15.6885 13.0307 15.6885 12.9778C15.5178 12.1972 15.3471 11.4167 15.1698 10.6427C15.1698 10.5501 15.1172 10.4112 15.0516 10.3914C14.5262 10.1863 13.9877 10.0077 13.3441 9.78278H13.3638ZM8.33999 15.9478L8.24147 16.1066C8.51072 16.6225 8.77339 17.1385 9.0492 17.6478C9.09256 17.6982 9.15398 17.7291 9.21995 17.7338L11.6038 17.7802C11.1769 17.1914 10.6975 16.5233 10.1984 15.8618C10.1629 15.8228 10.119 15.7924 10.0701 15.773C10.0212 15.7535 9.96855 15.7454 9.9161 15.7494C9.39074 15.8023 8.86536 15.8817 8.33999 15.9478ZM11.6235 30.011C11.6235 30.011 11.6236 30.011 11.571 30.011L9.28569 30.1301C9.20688 30.1301 9.08205 30.1301 9.05578 30.183C8.76026 30.7122 8.48449 31.248 8.20211 31.7838L8.30063 31.9293C8.83913 31.9955 9.37761 32.0748 9.92268 32.1278C9.97529 32.1244 10.0265 32.1096 10.073 32.0845C10.1194 32.0594 10.16 32.0245 10.1919 31.9822C10.6779 31.3207 11.1507 30.6592 11.6235 29.9978V30.011ZM10.2182 23.879C10.2182 23.879 10.2182 23.879 10.1722 23.8393C9.51552 23.5218 8.80628 23.1779 8.12331 22.9C8.0248 22.8537 7.88684 22.7942 7.82117 22.8339C7.34177 23.1646 6.87556 23.4954 6.31079 23.9187C6.86899 24.3288 7.2958 24.653 7.73579 24.9572C7.78943 24.9817 7.84765 24.9944 7.90654 24.9944C7.96543 24.9944 8.02365 24.9817 8.07729 24.9572C8.79967 24.6 9.50892 24.2296 10.2182 23.8724V23.879ZM25.283 37.208C25.2641 37.2233 25.2504 37.2441 25.2436 37.2675C25.0466 38.015 24.8496 38.7558 24.6723 39.5099C24.6529 39.5797 24.6482 39.6528 24.6583 39.7245C24.6685 39.7963 24.6934 39.8651 24.7314 39.9267C25.0795 40.3302 25.4603 40.7072 25.9135 41.1769C26.1959 40.6146 26.4191 40.1516 26.649 39.6952C26.6986 39.6056 26.7177 39.5022 26.7035 39.4007C26.6893 39.2991 26.6424 39.2051 26.5702 39.1329C26.1236 38.5111 25.7165 37.8628 25.2568 37.208H25.283ZM40.0852 21.3323L39.2512 20.8031C38.7258 20.479 38.2136 20.3268 37.7604 20.942C37.6872 21.0255 37.5978 21.093 37.4978 21.1405L36.2697 21.8946C37.0315 22.1327 37.7933 22.3708 38.5616 22.5957C38.6189 22.6102 38.6785 22.6119 38.7364 22.6004C38.7943 22.589 38.849 22.5648 38.8966 22.5296C39.284 22.1592 39.6518 21.7755 40.0852 21.3323ZM40.1312 26.7697C39.6518 26.2802 39.2906 25.8833 38.89 25.5327C38.7915 25.4467 38.5616 25.4732 38.404 25.5327C37.9181 25.665 37.4452 25.8437 36.9593 25.9826C36.7255 26.0382 36.4887 26.0802 36.25 26.1082L38.2201 27.5106C38.2924 27.5635 38.4106 27.6429 38.4697 27.6164C38.9951 27.3651 39.5073 27.1005 40.1378 26.7896L40.1312 26.7697ZM6.75073 21.2596C6.71133 21.3522 6.67198 21.4514 6.63914 21.544C7.02003 21.8615 7.39436 22.2055 7.79495 22.4899C7.96294 22.584 8.16019 22.61 8.34656 22.5627C8.9179 22.4238 9.47607 22.2386 10.0408 22.0732C10.1898 22.0341 10.3412 22.0054 10.494 21.9872C9.8373 21.5043 9.18059 21.0346 8.52389 20.5716C8.48156 20.5412 8.43357 20.5196 8.3828 20.5083C8.33203 20.4969 8.27947 20.496 8.22832 20.5055C7.72922 20.7436 7.23676 21.0016 6.73766 21.2596H6.75073ZM40.3479 23.9783C39.872 23.5816 39.3597 23.2317 38.8178 22.9331C38.6208 22.8471 38.2595 23.1779 37.964 23.3035C37.4452 23.5351 36.9199 23.7533 36.4602 23.965C37.1497 24.3222 37.8721 24.6993 38.601 25.0631C38.6433 25.0827 38.6892 25.0928 38.7357 25.0928C38.7822 25.0928 38.8281 25.0827 38.8703 25.0631C39.33 24.7456 39.7765 24.4016 40.3479 23.9981V23.9783ZM21.3625 10.7089C21.3816 10.6967 21.3957 10.6779 21.4019 10.6559C21.5989 9.88862 21.8025 9.13456 21.9864 8.36723C22.0158 8.23563 21.9921 8.09764 21.9207 7.98356C21.5661 7.58667 21.1852 7.20962 20.732 6.73997C20.4562 7.289 20.2395 7.7388 20.0097 8.182C19.954 8.27626 19.9308 8.38646 19.9439 8.49538C19.9569 8.6043 20.0055 8.7058 20.0819 8.78397C20.5285 9.40577 20.9291 10.054 21.3953 10.7089H21.3625ZM27.4567 11.1454C27.9558 10.6096 28.5272 10.0011 29.0854 9.39253C29.1139 9.3641 29.1362 9.33002 29.1509 9.29244C29.1656 9.25486 29.1723 9.21459 29.1707 9.17423C29.0946 8.5525 28.8863 7.9546 28.56 7.42128C28.1135 7.77186 27.6931 8.08277 27.2925 8.42012C27.2032 8.50223 27.1491 8.6161 27.1415 8.73766C27.24 9.57114 27.3582 10.398 27.4567 11.1454ZM39.481 18.5938L38.01 18.091C37.9073 18.0524 37.7947 18.0504 37.6907 18.0853C37.5867 18.1202 37.4978 18.19 37.4387 18.2829C37.0972 18.6599 36.7229 19.0171 36.3485 19.3677C36.1386 19.5428 35.9194 19.7062 35.6918 19.8572C36.3228 19.848 36.9528 19.9101 37.57 20.0424C37.7019 20.0949 37.8428 20.1205 37.9846 20.118C38.1264 20.1154 38.2663 20.0847 38.3963 20.0275C38.5262 19.9704 38.6437 19.8879 38.742 19.7849C38.8402 19.6819 38.9173 19.5603 38.9688 19.4272L39.4548 18.5938H39.481ZM28.6191 40.6543C28.8227 39.9928 29.0066 39.4769 29.1248 38.9477C29.1248 38.8154 29.0328 38.6169 28.9278 38.4912C28.5534 38.0679 28.1529 37.6644 27.7785 37.2344C27.6542 37.0851 27.5422 36.9258 27.4436 36.7582C27.332 37.5982 27.2138 38.4317 27.1153 39.2652C27.1143 39.3177 27.1236 39.3698 27.1428 39.4187C27.162 39.4675 27.1905 39.512 27.2269 39.5496C27.6537 39.9002 28.0872 40.2111 28.6191 40.6543ZM18.1118 40.5948L18.8145 40.1516C19.3858 39.801 19.7864 39.4372 19.5303 38.6103C19.4054 38.0237 19.3502 37.4241 19.3661 36.8243C18.8276 37.4064 18.2563 38.0084 17.6981 38.6169C17.6369 38.6882 17.6063 38.7809 17.6127 38.8749C17.7637 39.4306 17.9279 39.973 18.1118 40.5948ZM10.888 19.8241L9.21338 18.177C9.16085 18.1175 9.07552 18.0513 9.01642 18.058C8.39348 18.1405 7.79789 18.3669 7.27613 18.7194C7.62418 19.1891 7.93282 19.6191 8.24804 20.0424C8.28506 20.0893 8.33198 20.1272 8.38536 20.1535C8.43875 20.1798 8.49724 20.1939 8.55667 20.1946C9.36442 20.0954 10.1656 19.9763 10.888 19.8704V19.8241ZM39.4942 29.462C39.0739 28.8931 38.7521 28.4367 38.3975 28.0001C38.3318 27.9207 38.1545 27.9141 38.0297 27.9273C37.373 27.9868 36.6769 28.0662 35.9939 28.139C35.9108 28.1448 35.8275 28.1448 35.7444 28.139C36.3354 28.7277 36.9199 29.3098 37.5109 29.8853C37.5441 29.9187 37.5844 29.9438 37.6289 29.9588C37.6733 29.9737 37.7206 29.978 37.767 29.9713C38.2989 29.8258 38.8309 29.6538 39.4942 29.4488V29.462ZM7.2039 29.4488C7.86061 29.6538 8.40568 29.839 8.93762 29.9713C9.04269 29.9713 9.20026 29.8655 9.30533 29.7729C9.72562 29.3694 10.1328 28.9526 10.5531 28.5557C10.6911 28.4391 10.8358 28.3309 10.9865 28.2316C10.1722 28.1125 9.36442 27.9935 8.55667 27.8876C8.51749 27.8835 8.4779 27.8878 8.44052 27.9004C8.40313 27.9129 8.36886 27.9334 8.33999 27.9604C7.98537 28.4102 7.63733 28.8733 7.2039 29.4488ZM19.3858 11.3307C19.3858 10.947 19.3858 10.6229 19.3858 10.2988C19.3719 9.97508 19.4095 9.65125 19.4974 9.3396C19.7732 8.67811 19.4581 8.34737 18.9918 8.01663C18.9672 8.00275 18.9449 7.98486 18.9261 7.9637C18.1446 7.37498 18.1249 7.3816 17.79 8.30768C17.5733 8.88317 17.4682 9.37268 18.0921 9.84233C18.5792 10.2847 19.0194 10.7768 19.4055 11.3108L19.3858 11.3307ZM36.2566 15.8618C34.1354 15.6502 31.1934 17.9587 30.8191 19.3346C32.6513 19.4669 35.6721 17.6478 36.2566 15.8618ZM27.9164 16.3381C29.4531 15.8486 31.6334 12.5081 31.2328 10.7419C29.5056 11.4034 27.7916 14.486 27.9164 16.3381ZM18.8276 31.6713C17.1596 32.3857 15.1763 35.4881 15.4915 37.3006C17.2055 36.7052 18.9524 33.5963 18.8276 31.6713ZM33.1898 35.885C33.1898 33.9005 30.563 31.0958 29.0525 30.904C29.1051 32.5908 31.3379 35.5344 33.1898 35.885ZM29.1707 9.61741C27.3517 10.6229 26.1762 14.5852 26.7541 15.7031C28.2711 14.7241 29.6633 11.496 29.1707 9.61741ZM15.9315 19.3346C15.4587 17.7934 12.3262 15.5509 10.5006 15.9015C11.1113 17.7008 14.1847 19.5 15.9315 19.3346ZM30.0047 29.8721C30.4185 31.6912 33.0584 34.1321 34.8644 34.1585C34.582 32.3064 31.7778 29.9845 30.0047 29.8721ZM16.7393 29.8721C15.1501 29.8721 12.0964 32.3196 11.9059 34.1453C13.7973 34.0725 16.3978 31.5787 16.7393 29.8721ZM15.485 10.689C15.2288 12.7462 17.3632 15.8089 18.821 16.3116C18.9984 14.5719 17.2909 11.3703 15.485 10.689ZM36.2435 32.1344C35.7115 30.3418 32.52 28.483 30.8125 28.6947C31.3641 30.2558 34.3456 32.4122 36.2435 32.1344ZM16.7261 18.1373C16.4766 16.4836 13.7119 13.8443 11.8862 13.8708C12.2211 15.7758 15.0515 18.0712 16.7261 18.1373ZM27.9361 31.6647C27.7457 33.497 29.6304 36.7978 31.2787 37.2543C31.5217 35.2235 29.394 32.1807 27.9361 31.6647ZM33.1898 12.1245C31.1474 12.5147 28.908 15.8023 29.0657 17.1517C30.8388 16.6688 33.0847 14.0692 33.1898 12.1245ZM31.397 20.5584C33.0256 21.0214 36.4799 19.7117 37.3073 18.0381C35.659 17.4494 32.3689 18.9179 31.397 20.5584ZM29.9785 18.144C31.8435 18.0381 34.7068 15.498 34.825 13.8443C32.9337 13.9832 30.4513 16.2918 29.9785 18.144ZM15.9841 28.6814C14.0139 28.5822 11.039 30.4476 10.5399 32.141C12.4772 32.4122 15.4324 30.2491 15.9841 28.6814ZM17.7309 30.8379C15.9315 31.2546 13.528 34.1453 13.6199 35.8585C15.5901 35.4352 17.7572 32.3791 17.7309 30.8379ZM17.6324 9.60421C17.0348 11.5093 18.7816 15.1077 20.0951 15.6501C20.5416 13.9435 19.1954 10.3583 17.6324 9.60421ZM17.7375 17.1451C17.7375 15.3723 15.2814 12.3295 13.5871 12.1642C13.6921 14.2148 16.2139 16.8541 17.7375 17.1451ZM29.2167 38.4119C29.7158 36.2753 28.0281 32.9414 26.7344 32.3328C26.2812 33.9402 27.5487 37.5321 29.2167 38.4119ZM38.1151 20.3533C36.2697 19.4603 32.7892 20.6576 31.9092 21.888C33.2752 22.609 36.8739 21.9806 38.1151 20.3533ZM9.417 18.0249C10.2642 19.8175 14.0139 21.1008 15.3274 20.5584C14.4736 19.0767 11.3871 17.5486 9.417 18.0249ZM31.8501 26.1016C32.8089 27.3849 36.2829 28.5557 38.056 27.6694C37.0906 26.2075 33.6232 25.3806 31.8501 26.1016ZM26.9182 8.84348C25.2896 10.1135 24.7117 14.0825 25.4538 15.2599C26.7146 14.1089 27.7326 10.7221 26.9182 8.84348ZM9.417 30.011C11.5316 30.527 14.7954 28.688 15.3274 27.4378C13.7053 26.9814 10.2379 28.3308 9.417 30.011ZM24.5607 8.47968C23.2801 9.86879 23.0962 13.4871 24.0681 15.0945C25.2896 13.5996 25.5917 9.94817 24.5607 8.47968ZM8.67492 20.3864C9.85699 22.0335 13.6331 22.6685 14.8874 21.9144C13.9023 20.6775 10.5925 19.5331 8.67492 20.3864ZM14.7166 24.7588C13.2325 23.7666 9.70593 23.9121 8.32684 25.2549C9.64026 26.2935 13.1668 26.0619 14.7166 24.7588ZM17.6061 38.4516C19.3924 37.413 20.535 33.669 20.0359 32.3725C18.5649 33.1994 17.0413 36.6391 17.6061 38.4516ZM21.3231 32.7694C20.0097 34.0527 19.0377 37.3998 19.8324 39.1792C21.3099 38.2134 22.0717 34.3305 21.3231 32.7694ZM22.6825 15.0945C23.6347 13.6326 23.5165 9.94817 22.2031 8.47968C21.1983 9.80265 21.415 13.4474 22.6825 15.0945ZM21.3362 15.2797C22.0652 13.8178 21.3362 9.94817 19.8389 8.89641C18.9918 10.7287 20.0951 14.2941 21.3362 15.2797ZM24.5344 39.6025C25.5589 38.22 25.3356 34.5951 24.0681 32.9877C23.1881 34.39 23.1685 37.8562 24.5344 39.6025ZM14.7166 23.3234C12.9829 21.9343 9.32504 21.8417 8.33342 22.8736C9.97518 24.2495 13.3441 24.2362 14.7166 23.3234ZM38.45 22.8207C36.9856 21.7887 33.6429 22.0467 32.0471 23.3168C33.3605 24.2627 36.9396 24.2362 38.45 22.8207ZM31.4232 27.4841C32.4149 29.1511 35.7641 30.5865 37.3336 29.9978C36.4668 28.2713 32.9205 26.9946 31.4232 27.4841ZM22.6825 32.9744C21.3297 34.8068 21.2574 38.4582 22.2294 39.5893C23.5428 38.0282 23.6084 34.4959 22.6825 32.9744ZM26.9117 39.1858C27.8179 37.3006 26.5308 33.5169 25.3881 32.8091C24.7314 34.5686 25.4801 38.1605 26.9117 39.1858ZM8.67492 27.7157C10.8026 28.6087 14.2635 27.1931 14.8808 26.1281C13.2916 25.4071 9.73222 26.1744 8.67492 27.7157ZM38.4566 25.2682C36.9724 23.8658 33.3999 23.7997 32.0537 24.7654C33.5115 25.9892 36.9002 26.3265 38.4566 25.2682ZM23.4311 17.4891C22.5872 17.4917 21.7521 17.6621 20.9737 17.9906C20.1954 18.3191 19.489 18.7993 18.8954 19.4034C18.3017 20.0076 17.8323 20.7239 17.5141 21.5112C17.196 22.2986 17.0353 23.1415 17.0414 23.9915C17.0151 24.844 17.1579 25.6933 17.4613 26.4896C17.7647 27.2859 18.2227 28.0132 18.8085 28.6291C19.3943 29.245 20.0961 29.7371 20.8729 30.0766C21.6497 30.4161 22.4859 30.5962 23.3326 30.6064C24.1765 30.6108 25.0129 30.4458 25.7928 30.1209C26.5727 29.7961 27.2805 29.3179 27.8748 28.7144C28.4691 28.1108 28.938 27.394 29.2541 26.6058C29.5702 25.8176 29.7271 24.9738 29.7158 24.1238C29.7358 23.2734 29.589 22.4274 29.2838 21.6343C28.9785 20.8412 28.5209 20.1165 27.937 19.502C27.3531 18.8874 26.6545 18.3951 25.8813 18.053C25.1081 17.711 24.2754 17.5261 23.4311 17.5089V17.4891ZM25.4603 43.9683C22.9421 44.2702 20.3893 44.0497 17.9588 43.3205C15.5284 42.5913 13.2718 41.3688 11.328 39.7282C9.2669 38.0758 7.56289 36.0164 6.32065 33.6765C5.07841 31.3367 4.32418 28.7657 4.10426 26.1215C3.80732 23.561 4.01402 20.9667 4.71263 18.4868C5.41124 16.0068 6.58805 13.6898 8.17581 11.668C9.72678 9.56982 11.6967 7.82193 13.9588 6.53685C16.2208 5.25176 18.7249 4.45792 21.3099 4.20647C23.82 3.89376 26.367 4.106 28.7919 4.82988C31.2168 5.55376 33.4674 6.77371 35.4029 8.4135C37.4653 10.072 39.1697 12.1373 40.4119 14.4827C41.654 16.8281 42.4077 19.4043 42.6267 22.0534C42.947 25.1935 42.5308 28.3656 41.4117 31.3141C40.0414 35.0269 37.5871 38.2347 34.3719 40.5154C31.7479 42.3929 28.6876 43.5571 25.4866 43.8956" fill="white"/>
<path d="M28.6095 23.9779C28.6199 24.6795 28.4917 25.3762 28.2324 26.0274C27.9731 26.6786 27.5877 27.2714 27.0988 27.7712C26.61 28.2711 26.0273 28.668 25.3847 28.9389C24.7421 29.2098 24.0524 29.3492 23.3558 29.3492C22.6592 29.3492 21.9696 29.2098 21.327 28.9389C20.6844 28.668 20.1017 28.2711 19.6128 27.7712C19.1239 27.2714 18.7386 26.6786 18.4792 26.0274C18.2199 25.3762 18.0917 24.6795 18.1022 23.9779C18.0926 23.2769 18.2214 22.5809 18.4812 21.9304C18.7409 21.28 19.1264 20.688 19.6152 20.1889C20.104 19.6897 20.6864 19.2934 21.3285 19.023C21.9707 18.7525 22.6598 18.6132 23.3558 18.6133C24.0518 18.6132 24.741 18.7525 25.3831 19.023C26.0253 19.2934 26.6077 19.6897 27.0965 20.1889C27.5853 20.688 27.9707 21.28 28.2305 21.9304C28.4902 22.5809 28.619 23.2769 28.6095 23.9779Z" fill="white"/>
</g>
<defs>
<clipPath id="clip0_1_1077">
<rect width="160" height="40" fill="white" transform="translate(4 4)"/>
</clipPath>
</defs>
</svg>
