<svg width="160" height="40" viewBox="0 0 160 40" fill="none" xmlns="http://www.w3.org/2000/svg">
<g clip-path="url(#clip0_242_222)">
<path d="M72.4024 18.0255V26.519H67.9565V19.4212C67.9799 19.2005 67.9564 18.9773 67.8874 18.7665C67.8183 18.5557 67.7055 18.3622 67.5563 18.1988C67.4072 18.0354 67.2251 17.906 67.0223 17.8191C66.8196 17.7321 66.6008 17.6898 66.3805 17.6948C66.1479 17.6861 65.9162 17.7264 65.7001 17.8133C65.484 17.9002 65.2883 18.0316 65.1256 18.1992C64.963 18.3668 64.837 18.5668 64.7556 18.7864C64.6743 19.0059 64.6394 19.2402 64.6533 19.4742V26.519H60.214V19.4212C60.2375 19.2 60.2137 18.9762 60.1443 18.7649C60.0749 18.5537 59.9615 18.3598 59.8116 18.1963C59.6617 18.0328 59.4789 17.9034 59.2753 17.817C59.0717 17.7305 58.8522 17.6888 58.6313 17.6948C58.3988 17.6861 58.167 17.7264 57.9509 17.8133C57.7348 17.9002 57.5392 18.0316 57.3765 18.1992C57.2139 18.3668 57.0878 18.5668 57.0065 18.7864C56.9251 19.0059 56.8903 19.2402 56.9042 19.4742V26.519H52.4648V13.5936H56.9042V14.5527C57.7893 13.7101 58.9703 13.2557 60.1877 13.2893C60.8878 13.2583 61.5847 13.4014 62.217 13.7059C62.8492 14.0105 63.3972 14.4672 63.8127 15.0356C64.3128 14.4687 64.9298 14.0186 65.6207 13.717C66.3115 13.4153 67.0594 13.2694 67.8121 13.2893C70.6228 13.2893 72.409 15.1613 72.409 18.0255" fill="#040505"/>
<path d="M87.0206 13.5938L81.4714 28.239C81.147 29.2034 80.538 30.0451 79.726 30.6515C78.9139 31.2579 77.9374 31.6001 76.927 31.6325C75.5551 31.6016 74.2302 31.1234 73.151 30.2698L74.8321 26.6912C75.2084 27.0257 75.6898 27.2154 76.1915 27.227C76.4552 27.2336 76.7142 27.1558 76.9313 27.0049C77.1484 26.854 77.3124 26.6376 77.3998 26.3869L77.4721 26.2149L72.7109 13.5938H77.7676L79.915 20.4335L82.0625 13.5938H87.0206Z" fill="#040505"/>
<path d="M100.811 13.5928H96.47V26.5182H91.7549V13.5928H87.4141V9.03516H100.811V13.5928Z" fill="#040505"/>
<path d="M102.611 13.5931H107.051V26.5186H102.611V13.5931ZM102.138 9.73671C102.127 9.37643 102.188 9.01751 102.319 8.68202C102.45 8.34653 102.647 8.04154 102.9 7.78572C103.152 7.5299 103.453 7.32866 103.785 7.19437C104.117 7.06007 104.473 6.99556 104.831 7.00477C105.188 6.99648 105.543 7.06168 105.874 7.19638C106.206 7.33108 106.506 7.53242 106.758 7.78814C107.009 8.04387 107.206 8.3486 107.337 8.68363C107.467 9.01867 107.528 9.377 107.517 9.73671C107.529 10.097 107.469 10.456 107.339 10.7918C107.209 11.1276 107.012 11.4331 106.76 11.6896C106.509 11.946 106.208 12.148 105.876 12.2831C105.544 12.4182 105.189 12.4836 104.831 12.4752C104.473 12.4845 104.116 12.4198 103.784 12.2851C103.451 12.1504 103.149 11.9485 102.897 11.692C102.645 11.4355 102.447 11.1297 102.317 10.7934C102.186 10.4571 102.126 10.0975 102.138 9.73671Z" fill="#040505"/>
<path d="M117.446 13.3633V18.0532H116.829C114.905 18.0532 113.939 19.0918 113.939 20.6992V26.4805H109.5V13.5551H113.939V14.6863C114.304 14.276 114.749 13.9465 115.246 13.7187C115.743 13.491 116.282 13.3699 116.829 13.3633H117.446Z" fill="#040505"/>
<path d="M127.289 20.0555C127.301 19.7482 127.252 19.4415 127.143 19.1541C127.034 18.8667 126.868 18.6046 126.656 18.3838C126.443 18.1629 126.188 17.9878 125.907 17.8693C125.625 17.7507 125.322 17.6911 125.017 17.694C124.711 17.6911 124.409 17.7507 124.127 17.8693C123.845 17.9878 123.59 18.1629 123.378 18.3838C123.165 18.6046 122.999 18.8667 122.891 19.1541C122.782 19.4415 122.732 19.7482 122.744 20.0555C122.732 20.3625 122.782 20.6689 122.891 20.956C123 21.243 123.165 21.5047 123.378 21.725C123.591 21.9454 123.846 22.1198 124.127 22.2376C124.409 22.3555 124.712 22.4143 125.017 22.4104C125.322 22.4143 125.624 22.3555 125.906 22.2376C126.188 22.1198 126.443 21.9454 126.655 21.725C126.868 21.5047 127.034 21.243 127.143 20.956C127.252 20.6689 127.301 20.3625 127.289 20.0555ZM118.18 20.0555C118.167 19.1532 118.336 18.2575 118.677 17.4228C119.017 16.5881 119.522 15.8316 120.161 15.1991C120.8 14.5665 121.56 14.0711 122.395 13.7427C123.229 13.4143 124.121 13.2598 125.017 13.2885C125.912 13.2598 126.804 13.4143 127.639 13.7427C128.473 14.0711 129.233 14.5665 129.872 15.1991C130.511 15.8316 131.016 16.5881 131.356 17.4228C131.697 18.2575 131.866 19.1532 131.853 20.0555C131.865 20.9576 131.695 21.8528 131.355 22.6871C131.014 23.5214 130.509 24.2775 129.87 24.9099C129.231 25.5422 128.472 26.0377 127.638 26.3664C126.803 26.6951 125.912 26.8503 125.017 26.8225C124.121 26.8503 123.23 26.6951 122.396 26.3664C121.562 26.0377 120.802 25.5422 120.164 24.9099C119.525 24.2775 119.02 23.5214 118.679 22.6871C118.338 21.8528 118.168 20.9576 118.18 20.0555Z" fill="#040505"/>
<path d="M13.3435 15.4802C13.3435 15.672 13.3435 15.8242 13.3894 15.9829L13.5339 16.049C13.6652 15.8638 13.7966 15.6852 13.9214 15.5L13.8163 15.3809L13.3435 15.4802ZM24.7898 24.5557C25.4466 24.6086 25.4465 24.5557 25.2758 23.8942C25.0985 24.1522 24.9672 24.3374 24.7898 24.5557ZM14.6831 14.6864L14.5912 14.5673C14.0789 14.4879 14.0067 14.5673 14.1643 15.2288L14.6831 14.7128V14.6864ZM26.5038 19.6343C26.1821 19.9319 26.2149 20.1635 26.5038 20.4148L26.8716 20.0047L26.517 19.6343H26.5038ZM15.6157 26.1698C15.4836 26.0163 15.3385 25.8747 15.1822 25.7464C15.1297 25.7464 14.9458 25.7795 14.9458 25.7927C14.9585 25.9526 14.9804 26.1117 15.0115 26.269L15.6157 26.1698ZM12.6999 22.6506C12.91 22.2471 12.91 22.2405 12.5029 21.9429C12.4306 22.0884 12.3518 22.2273 12.2599 22.3993L12.6999 22.6506ZM26.7928 18.7677C26.5826 18.7016 26.32 18.5627 26.2872 18.609C26.1033 18.8471 26.1886 19.072 26.4579 19.2705L26.7928 18.7744V18.7677ZM23.7326 14.4218C23.8245 13.7603 23.7982 13.7603 23.1415 13.9323L23.7326 14.4218ZM26.4842 20.8448H26.3266L26.2083 21.5063L26.3528 21.5592L26.7402 21.2351L26.5367 20.9109L26.4842 20.8514V20.8448ZM20.1272 27.2215C20.1272 27.2678 20.1272 27.3207 20.1272 27.367L20.5541 27.6449L20.8365 27.2149L20.7642 27.0694L20.1075 27.2215H20.1272ZM25.4006 15.5132L24.908 15.4405C24.8737 15.4819 24.8429 15.5261 24.8161 15.5728L25.2298 16.0887L25.3415 16.016C25.3415 15.8704 25.3415 15.7249 25.4006 15.5132ZM21.6639 12.6887L21.2042 12.9467V13.0988L21.8609 13.3039C21.8876 13.259 21.9117 13.2126 21.9332 13.165L21.6902 12.6887H21.6639ZM14.8998 14.2763L15.0312 14.4152L15.5631 14.005C15.5386 13.9601 15.5166 13.9137 15.4974 13.8661L15.0115 13.8066C14.9721 13.9852 14.9327 14.1307 14.8998 14.2763ZM16.9225 26.7717C16.9225 26.8246 16.9225 26.8776 16.87 26.9305C17.0604 27.4332 17.0998 27.4464 17.6186 27.0231L16.9225 26.7717ZM19.0043 12.6953C19.2866 13.0062 19.5165 12.9996 19.7595 12.6953L19.3786 12.3513L19.0043 12.7085V12.6953ZM26.228 21.9693C25.9588 22.1413 25.8078 22.3398 26.0376 22.6639C26.5564 22.4588 26.5564 22.4456 26.228 21.9693ZM21.2239 26.99C21.2265 27.0407 21.2265 27.0915 21.2239 27.1422C21.6902 27.4663 21.6902 27.4596 21.9332 26.7849L21.1977 26.99H21.2239ZM12.4175 21.5989C12.6079 21.2285 12.5882 20.9969 12.2533 20.8448C12.1614 20.9903 12.0826 21.116 11.9906 21.2748C12.1285 21.3872 12.2533 21.4798 12.4175 21.5989ZM18.6103 12.8937V12.7218L18.1965 12.4638L17.9076 12.8739C17.9076 12.9268 17.9404 12.9731 17.9601 13.0194L18.6168 12.8937H18.6103ZM13.3631 23.6826C13.2187 23.418 13.107 23.2129 12.9626 22.9351C12.6539 23.5966 12.7064 23.6759 13.3631 23.6826ZM20.784 13.026C20.803 12.9698 20.8249 12.9146 20.8496 12.8607L20.5278 12.4572L20.1272 12.7681V12.9004L20.784 13.026ZM26.0376 17.4514C25.8012 17.8086 25.9719 17.9938 26.2477 18.1592C26.5432 17.6631 26.5433 17.6631 26.0376 17.4514ZM12.2862 20.4281C12.5488 20.1701 12.5883 19.9386 12.2862 19.7071C11.8921 20.0775 11.8921 20.0775 12.2862 20.4281ZM12.0038 18.8604L12.2993 19.2837H12.4306C12.4766 19.0588 12.516 18.8339 12.562 18.6222L12.424 18.5561L12.0038 18.867V18.8604ZM13.8163 24.688L13.9476 24.5491L13.5142 24.0199L13.3894 24.0927C13.3894 24.2581 13.3894 24.4168 13.35 24.602L13.8163 24.688ZM25.4334 23.6231C26.0901 23.6231 26.1427 23.5238 25.7683 22.9616L25.4334 23.6231ZM14.6503 25.5678C14.6109 25.2238 14.5321 24.999 14.2234 24.999C14.1709 24.999 14.0855 25.1842 14.0855 25.2768C14.0855 25.667 14.381 25.5149 14.6503 25.5678ZM22.2746 13.3899C22.5242 13.8331 22.5702 13.8529 22.9314 13.6611C22.8197 13.1451 22.8131 13.1451 22.2746 13.3899ZM23.772 26.2954C23.772 26.1168 23.8311 25.9449 23.8573 25.7795L23.726 25.6869L23.2203 26.1234C23.3057 26.2081 23.4166 26.2616 23.5356 26.2756H23.772V26.2954ZM22.2352 26.6328C22.2375 26.6769 22.2375 26.721 22.2352 26.7651C22.406 26.7982 22.5964 26.904 22.7212 26.8445C22.846 26.7849 22.8526 26.5601 22.9182 26.4013L22.7869 26.2822L22.2024 26.6328H22.2352ZM16.476 26.7386C16.2001 26.2822 16.1542 26.2624 15.8193 26.4674C15.8784 26.613 15.944 26.7585 16.0097 26.9305L16.5022 26.7386H16.476ZM18.2162 27.6581L18.6431 27.3472C18.6115 27.2783 18.5631 27.2185 18.5024 27.1735C18.4416 27.1285 18.3706 27.0997 18.2959 27.0898C18.2212 27.0799 18.1452 27.0892 18.075 27.1168C18.0048 27.1445 17.9427 27.1896 17.8944 27.248L18.2162 27.6581ZM15.99 13.165C15.9309 13.3634 15.8718 13.5288 15.8193 13.7008L15.9309 13.8132L16.5219 13.4692L16.476 13.3502L15.99 13.165ZM17.612 13.0724C17.0735 12.6358 17.0013 12.6622 16.8437 13.3435L17.612 13.0724ZM12.9626 17.167L13.3697 16.4327C12.713 16.4327 12.6605 16.5319 12.9626 17.167ZM24.1266 25.4752C24.6519 25.5744 24.6979 25.5281 24.6322 24.9658C24.2908 24.9658 24.1134 25.1114 24.1266 25.4752ZM12.8378 17.5043L12.6933 17.4514C12.1877 17.6564 12.1679 17.7491 12.6211 18.1989C12.6999 17.9409 12.7721 17.7226 12.8378 17.5043ZM25.4991 16.4261C25.3809 16.7767 25.4991 16.9619 25.8471 17.0876C26.077 16.5452 26.031 16.4724 25.4991 16.4261ZM18.932 27.2678L19.2932 27.7706L19.7463 27.42L19.6872 27.2678H18.932ZM24.1003 14.5739C24.1003 15.0171 24.3105 15.1693 24.6782 15.1164C24.6782 14.9444 24.6782 14.7922 24.6322 14.6004H24.1003V14.5739ZM38.2458 16.1946H38.1341C37.9831 17.0347 38.0225 17.2728 38.5019 17.7623C38.4034 17.1604 38.3246 16.6642 38.2458 16.1681V16.1946ZM17.0341 39.7765V39.6442C16.8378 39.4697 16.5897 39.3654 16.3285 39.3474C16.0672 39.3295 15.8074 39.3989 15.5894 39.545L17.0144 39.7765H17.0341ZM21.6114 39.6508V39.7831L23.0561 39.5384C22.8326 39.3957 22.5693 39.3295 22.3054 39.3498C22.0415 39.3701 21.7912 39.4756 21.5917 39.6508H21.6114ZM2.47497 10.3404L1.81826 11.7097C2.079 11.607 2.29153 11.4088 2.41332 11.1549C2.53511 10.901 2.55715 10.61 2.47497 10.3404ZM0.163346 22.4258L0.39975 23.9273C0.554071 23.6926 0.615395 23.4082 0.571623 23.1302C0.527851 22.8522 0.382178 22.6008 0.163346 22.4258ZM9.88917 2.70028C10.1556 2.78102 10.443 2.75269 10.6889 2.62143C10.9347 2.49017 11.1193 2.26656 11.2026 1.99911L9.88917 2.70028ZM2.48154 29.7616C2.56372 29.492 2.54168 29.2011 2.41989 28.9472C2.29811 28.6933 2.08558 28.4951 1.82483 28.3923C2.05468 28.8488 2.28453 29.3052 2.48154 29.7616ZM28.7498 37.3819C28.4816 37.3053 28.1944 37.3371 27.9491 37.4705C27.7038 37.6039 27.5199 37.8284 27.4364 38.0963L28.7498 37.3819ZM11.2157 38.0963C11.1759 37.9628 11.1103 37.8385 11.0227 37.7306C10.935 37.6227 10.8271 37.5333 10.705 37.4675C10.583 37.4017 10.4492 37.3609 10.3115 37.3474C10.1737 37.3338 10.0347 37.3478 9.90232 37.3886L11.2157 38.0963ZM38.2261 23.9141C38.2983 23.4246 38.364 22.9285 38.4362 22.4324H38.318C38.1473 22.6396 38.0465 22.896 38.03 23.1647C38.0134 23.4334 38.0821 23.7005 38.2261 23.9273V23.9141ZM0.419471 16.188L0.202787 17.6895C0.415977 17.5099 0.55593 17.2575 0.595913 16.9804C0.635895 16.7034 0.573071 16.4213 0.419471 16.188ZM36.1312 10.347C36.0518 10.6176 36.0751 10.9082 36.1964 11.1624C36.3178 11.4166 36.5286 11.6164 36.7879 11.7229C36.558 11.2599 36.3348 10.8035 36.1312 10.347ZM32.4208 34.6368L33.4518 33.5652C33.1765 33.577 32.9161 33.6947 32.7243 33.894C32.5325 34.0934 32.4239 34.3592 32.4208 34.6368ZM36.1246 29.7815L36.7813 28.4122C36.5206 28.5149 36.308 28.7131 36.1862 28.967C36.0644 29.2209 36.0424 29.5119 36.1246 29.7815ZM27.3904 1.99911C27.4766 2.26456 27.6616 2.486 27.9066 2.61679C28.1516 2.74757 28.4374 2.7775 28.7038 2.70028L27.3904 1.99911ZM14.1184 0.90764L12.6999 1.38393C12.9507 1.51024 13.241 1.53102 13.507 1.44171C13.773 1.35239 13.993 1.16027 14.1184 0.90764ZM0.163346 20.858C0.354843 20.6218 0.459473 20.3262 0.459473 20.0213C0.459473 19.7163 0.354843 19.4207 0.163346 19.1845V20.858ZM0.820052 14.6203C1.06497 14.4792 1.24866 14.251 1.33495 13.9804C1.42123 13.7099 1.40384 13.4167 1.28629 13.1584C1.13525 13.6412 0.977662 14.1308 0.820052 14.6203ZM3.32864 8.97776C3.61653 8.90536 3.86985 8.733 4.04402 8.49102C4.2182 8.24903 4.30211 7.95292 4.28091 7.65479L3.32864 8.97776ZM17.1195 0.37846V0.266019L15.6551 0.504144C15.8805 0.65433 16.1495 0.723609 16.4188 0.700805C16.6881 0.678001 16.9419 0.564443 17.1392 0.37846H17.1195ZM21.7361 0.259398C21.7393 0.296814 21.7393 0.334423 21.7361 0.371839C22.3929 0.801804 22.5833 0.828265 23.2203 0.497523L21.7624 0.259398H21.7361ZM37.832 14.6864L37.9371 14.6467L37.4643 13.1914C37.363 13.4481 37.344 13.7303 37.4099 13.9984C37.4759 14.2665 37.6235 14.5071 37.832 14.6864ZM26.0113 1.35745L24.5928 0.887817C24.722 1.13679 24.9424 1.32516 25.2073 1.41288C25.4723 1.50059 25.7607 1.4807 26.0113 1.35745ZM33.5438 6.53688L32.4733 5.42559C32.4749 5.71003 32.586 5.98277 32.7832 6.18636C32.9804 6.38994 33.2484 6.5085 33.5306 6.51706L33.5438 6.53688ZM20.1929 0.180023H18.5117C18.7528 0.366689 19.0483 0.467888 19.3523 0.467888C19.6563 0.467888 19.9519 0.366689 20.1929 0.180023ZM35.4285 8.99101L34.4631 7.66804C34.4526 7.96584 34.5422 8.2585 34.7174 8.49861C34.8926 8.73872 35.1432 8.91223 35.4285 8.99101ZM31.3503 35.5827C31.0591 35.5635 30.7708 35.6505 30.5381 35.8279C30.3054 36.0052 30.1438 36.261 30.0829 36.5485L31.3503 35.5827ZM20.2389 39.8625C20.0116 39.6543 19.7154 39.5389 19.4081 39.5389C19.1009 39.5389 18.8047 39.6543 18.5774 39.8625H20.2389ZM26.0113 38.6785L25.9719 38.5528C25.7119 38.4858 25.4371 38.508 25.1909 38.6158C24.9448 38.7236 24.7413 38.9109 24.6125 39.1481L26.0113 38.6785ZM14.1578 39.1547C14.1578 39.115 14.1578 39.0753 14.1906 39.0356C14.0246 38.8214 13.7918 38.6696 13.5297 38.6048C13.2676 38.54 12.9915 38.566 12.7458 38.6785L14.1578 39.1547ZM1.28629 26.8445L1.39796 26.8048C1.46148 26.535 1.43926 26.2519 1.33439 25.9955C1.22951 25.7391 1.04727 25.5224 0.813479 25.376L1.28629 26.8445ZM5.22653 6.4972L5.3119 6.58319C5.57798 6.52164 5.82122 6.38508 6.0131 6.18947C6.20498 5.99385 6.33759 5.74726 6.39549 5.47852L6.29696 5.37928C5.94234 5.74972 5.58115 6.12015 5.22653 6.4972ZM35.4351 31.0383C35.151 31.1183 34.9019 31.2923 34.7279 31.5323C34.554 31.7723 34.4654 32.0643 34.4763 32.3612L35.4351 31.0383ZM6.28382 34.65L6.37576 34.5574C6.14592 33.8231 5.82415 33.499 5.24625 33.4792L6.28382 34.65ZM38.6267 20.8911V19.1646C38.4287 19.4082 38.3206 19.7132 38.3206 20.0279C38.3206 20.3426 38.4287 20.6476 38.6267 20.8911ZM7.41999 35.5761L8.73336 36.5683C8.65891 36.2772 8.48826 36.0204 8.24953 35.84C8.0108 35.6597 7.71825 35.5666 7.41999 35.5761ZM37.9437 25.3892L37.8386 25.3495C37.626 25.5274 37.4769 25.7703 37.4141 26.0414C37.3513 26.3125 37.3781 26.5968 37.4906 26.8511L37.9437 25.3892ZM7.38712 4.42674C7.68642 4.44552 7.9826 4.35681 8.22307 4.17635C8.46355 3.99589 8.63275 3.73538 8.70053 3.44114L7.38712 4.42674ZM3.32864 31.0251L4.27434 32.348C4.29718 32.0506 4.21478 31.7545 4.0417 31.5124C3.86861 31.2702 3.61597 31.0976 3.32864 31.0251ZM30.0501 3.44114C30.1129 3.73804 30.2808 4.00177 30.5225 4.18313C30.7642 4.36449 31.0631 4.45108 31.3635 4.42674L30.0501 3.44114ZM17.4741 11.7891C17.3822 12.0669 17.0145 12.2984 17.3362 12.5961C17.3739 12.6431 17.4232 12.6793 17.4791 12.701C17.5351 12.7227 17.5958 12.7292 17.655 12.7199C17.7143 12.7105 17.77 12.6855 17.8167 12.6475C17.8633 12.6096 17.8992 12.5599 17.9207 12.5035C18.1768 12.0272 17.6514 12.0338 17.4741 11.7891ZM26.5826 22.5581C26.2477 22.6838 25.9259 22.7962 26.1295 23.2196C26.3331 23.6429 26.6746 23.2195 27.0292 23.3254C26.8453 23.0145 26.7271 22.8028 26.5826 22.5647V22.5581ZM16.9094 27.4464C16.7846 27.1223 16.7124 26.7849 16.3052 26.9635C15.7536 27.1752 16.3052 27.5258 16.2329 27.85L16.8896 27.4464H16.9094ZM27.397 18.0599C27.0752 17.9078 26.8322 17.6101 26.5498 17.8681C26.4917 17.9052 26.445 17.958 26.4152 18.0205C26.3853 18.083 26.3735 18.1526 26.381 18.2216C26.3886 18.2905 26.4151 18.3559 26.4577 18.4103C26.5004 18.4648 26.5573 18.5061 26.622 18.5296C27.108 18.814 27.0883 18.2452 27.397 18.093V18.0599ZM15.7799 26.9768C15.7142 26.646 15.701 26.3153 15.2479 26.4211C14.7948 26.527 15.1494 26.9636 15.0312 27.3075L15.7799 26.9768ZM22.5242 27.85C22.4126 27.5655 22.9708 27.1884 22.4323 26.99C22.3808 26.9607 22.3228 26.9451 22.2637 26.9446C22.2047 26.9441 22.1464 26.9588 22.0945 26.9872C22.0426 27.0157 21.9988 27.057 21.9671 27.1072C21.9354 27.1575 21.917 27.215 21.9135 27.2745C21.8018 27.7706 22.3075 27.6383 22.5242 27.85ZM11.7673 23.2196L11.8199 23.3254C12.0694 23.1666 12.4372 23.7752 12.6276 23.1468C12.7655 22.6837 12.4109 22.7036 12.1482 22.5713C12.0169 22.8028 11.8921 23.0145 11.7673 23.2328V23.2196ZM22.8788 13.1319C22.9657 13.3297 23.0856 13.5109 23.2335 13.6677C23.3188 13.7272 23.6472 13.6677 23.6603 13.5685C23.691 13.2981 23.691 13.0252 23.6603 12.7549L22.8591 13.1319H22.8788ZM22.5111 12.2191C22.2747 12.3977 21.8544 12.3116 21.8544 12.7747C21.8872 13.0194 22.0317 13.1981 22.3469 13.0856C22.938 12.8673 22.3469 12.5035 22.4782 12.2191H22.5111ZM27.3247 22.0156C27.0686 21.7841 27.0358 21.3542 26.6024 21.5195C26.5367 21.5404 26.478 21.5791 26.4328 21.6314C26.3875 21.6837 26.3575 21.7475 26.3459 21.8159C26.3344 21.8843 26.3418 21.9545 26.3674 22.019C26.3929 22.0834 26.4356 22.1395 26.4907 22.181C26.7797 22.4522 27.0095 22.1281 27.3247 22.0223V22.0156ZM11.2354 22.0223C11.5966 22.1546 11.833 22.4654 12.1154 22.2008C12.1636 22.1646 12.202 22.1168 12.2272 22.0618C12.2523 22.0067 12.2635 21.9463 12.2596 21.8858C12.2556 21.8254 12.2368 21.7668 12.2047 21.7156C12.1727 21.6643 12.1284 21.622 12.076 21.5923C11.6032 21.2748 11.5835 21.8304 11.2354 22.0223ZM12.5882 16.3732C13.1727 16.2276 13.2449 16.1284 13.1136 15.7646C12.9822 15.4008 12.5948 15.7051 12.2664 15.6125C12.3978 15.9168 12.4832 16.135 12.5882 16.3732ZM26.3397 15.6191C26.0179 15.6984 25.683 15.3082 25.4925 15.7779C25.3021 16.2475 25.4925 16.2607 26.031 16.36C26.123 16.1417 26.2215 15.9101 26.3397 15.6191ZM17.4282 28.2799C17.5464 28.0087 18.144 28.0418 17.8353 27.5324C17.8096 27.4792 17.7711 27.4335 17.7232 27.3994C17.6752 27.3653 17.6195 27.3439 17.5611 27.3373C17.5028 27.3307 17.4438 27.3391 17.3896 27.3616C17.3353 27.3842 17.2876 27.4202 17.2509 27.4663C16.9553 27.7639 17.2508 28.0021 17.4282 28.2799ZM22.8066 26.9569L23.6144 27.3009C23.6381 27.0302 23.6381 26.758 23.6144 26.4873C23.5572 26.4459 23.4915 26.4178 23.4222 26.4053C23.3529 26.3927 23.2817 26.3958 23.2137 26.4145C23.056 26.5728 22.9251 26.756 22.8263 26.9569H22.8066ZM20.3899 27.8367C19.8711 27.3869 19.858 27.3869 19.4771 27.9359L19.9762 28.5379L20.3899 27.8367ZM18.6562 11.5973L18.2556 12.2587L18.7285 12.6159C19.2735 12.2058 19.2669 12.133 18.6562 11.5774V11.5973ZM12.2664 24.5227C12.5448 24.5216 12.8222 24.4906 13.0939 24.43C13.1339 24.3694 13.16 24.3005 13.1702 24.2284C13.1804 24.1563 13.1746 24.0828 13.153 24.0133C12.9971 23.8696 12.8198 23.7513 12.6276 23.6627C12.5029 23.967 12.4109 24.1787 12.2664 24.5227ZM26.8782 18.9331C26.4382 19.4557 26.4382 19.4557 26.957 19.879L27.548 19.3631L26.8913 18.9331H26.8782ZM12.1285 17.4713C12.4766 17.3588 12.7852 17.2463 12.5882 16.8098C12.3912 16.3732 12.0497 16.8098 11.7477 16.8098L12.1285 17.4713ZM26.5761 17.4713C26.7074 17.2331 26.8388 17.0082 26.9635 16.8098C26.9418 16.7708 26.9177 16.7332 26.8913 16.6973C26.6615 16.9553 26.2871 16.2872 26.0967 16.9023C25.9653 17.3455 26.2871 17.372 26.5761 17.5043V17.4713ZM21.3224 28.3858C21.3947 27.9889 21.7558 27.7243 21.4538 27.4597C21.4154 27.4097 21.3644 27.371 21.3061 27.3479C21.2477 27.3247 21.1843 27.3178 21.1224 27.328C21.0605 27.3382 21.0024 27.365 20.9544 27.4056C20.9064 27.4463 20.8702 27.4992 20.8496 27.5589C20.6263 28.0219 21.0991 28.0418 21.3224 28.3858ZM16.2724 12.2191L16.1739 12.2786C16.3315 12.5365 15.7273 12.9864 16.4103 13.1187C16.824 13.2047 16.8043 12.8739 16.9094 12.6093L16.2527 12.2191H16.2724ZM26.425 24.5227L26.0835 23.7355C25.7552 23.8215 25.394 23.8479 25.5516 24.3176C25.7092 24.7873 26.0639 24.4367 26.425 24.5227ZM11.7608 19.8923C12.273 19.4028 12.273 19.4028 11.7936 18.9463L11.1369 19.3697L11.7477 19.8923H11.7608ZM19.4836 12.1926L19.9433 12.6292L20.4359 12.2587L20.009 11.5443L19.4836 12.2058V12.1926ZM21.2633 11.8354C21.0729 12.0603 20.6066 12.0669 20.8102 12.4969C20.8311 12.5569 20.8676 12.6103 20.9159 12.6514C20.9641 12.6925 21.0224 12.7198 21.0847 12.7306C21.147 12.7414 21.211 12.7352 21.2701 12.7127C21.3292 12.6903 21.3813 12.6523 21.4209 12.6027C21.723 12.305 21.3553 12.0735 21.2633 11.8023V11.8354ZM18.295 27.8036C18.4263 28.0153 18.5577 28.2336 18.7219 28.4651L19.2078 27.8565C18.8072 27.3141 18.8072 27.3141 18.295 27.7772V27.8036ZM11.3799 18.0467C11.6557 18.146 11.6295 18.7942 12.122 18.4569C12.1748 18.4278 12.2196 18.3859 12.2523 18.3349C12.285 18.284 12.3044 18.2256 12.309 18.1652C12.3136 18.1047 12.3031 18.044 12.2784 17.9887C12.2538 17.9333 12.2158 17.8851 12.168 17.8483C11.8856 17.5771 11.6492 17.9012 11.3799 18.0467ZM14.9984 12.7019C15.1494 13.0724 14.7094 13.4693 15.261 13.6214C15.8127 13.7735 15.6879 13.3502 15.7995 13.0591L14.9984 12.7019ZM24.757 13.4957L23.9164 13.7272C23.9755 13.9389 23.9821 14.177 24.1003 14.3027C24.1746 14.3405 24.2567 14.3602 24.34 14.3602C24.4233 14.3602 24.5054 14.3405 24.5797 14.3027C24.6686 14.039 24.7281 13.7661 24.757 13.4891V13.4957ZM25.6436 25.5546C25.5582 25.204 25.4925 24.9592 25.4334 24.7211C25.0788 24.7211 24.7767 24.7211 24.7767 25.1841C24.7767 25.6472 25.2955 25.3495 25.6107 25.5546H25.6436ZM26.8782 21.0697L27.5349 20.6397L26.9176 20.1304C26.4119 20.567 26.4119 20.567 26.8519 21.0697H26.8782ZM13.2975 15.3479C13.5004 15.3098 13.6929 15.2287 13.8622 15.1097C13.8965 15.0386 13.9143 14.9606 13.9143 14.8815C13.9143 14.8025 13.8965 14.7244 13.8622 14.6533C13.6029 14.5602 13.3343 14.4958 13.0611 14.4615L13.2909 15.3479H13.2975ZM25.6501 14.4284C25.3086 14.6401 24.8621 14.2564 24.803 14.8451C24.7439 15.4339 25.1051 15.2619 25.4203 15.2817C25.486 15.0304 25.5516 14.7988 25.6501 14.4284ZM11.1238 20.6927L11.7805 21.1226C12.2468 20.6 12.2468 20.5934 11.7017 20.1833L11.1106 20.6927H11.1238ZM13.0479 25.5943C13.3193 25.5693 13.5864 25.5092 13.8426 25.4156C13.9082 25.4156 13.9148 25.0188 13.8426 24.9262C13.7703 24.8335 13.4945 24.7939 13.2909 24.7277L13.0611 25.5943H13.0479ZM24.7767 26.5336C24.5666 26.183 24.9606 25.6869 24.3499 25.6538C23.9887 25.6538 23.9296 25.7597 23.9887 26.3153L24.7767 26.5402V26.5336ZM14.8276 26.2822C14.7749 26.0752 14.6884 25.8785 14.5715 25.7001C14.5022 25.6652 14.4257 25.647 14.3482 25.647C14.2707 25.647 14.1943 25.6652 14.1249 25.7001C14.0417 25.9666 13.9888 26.2418 13.9673 26.5204L14.8276 26.2756V26.2822ZM13.941 13.5354C13.9838 13.8202 14.0564 14.0996 14.1578 14.3689C14.2258 14.4043 14.3012 14.4227 14.3778 14.4227C14.4543 14.4227 14.5297 14.4043 14.5977 14.3689C14.6952 14.1902 14.7598 13.9952 14.7882 13.7934L13.941 13.5552V13.5354ZM37.9962 22.6242C38.2403 22.31 38.3867 21.9301 38.4171 21.5323C38.4474 21.1345 38.3604 20.7365 38.167 20.3884C38.0087 20.523 37.8786 20.688 37.7843 20.8738C37.6899 21.0595 37.6331 21.2623 37.6172 21.4703C37.6013 21.6784 37.6266 21.8875 37.6917 22.0856C37.7568 22.2837 37.8603 22.4668 37.9962 22.6242ZM4.43194 31.7395C4.45261 32.1335 4.59942 32.5101 4.8504 32.813C5.10138 33.1159 5.44302 33.3287 5.82415 33.4196C5.84872 33.2161 5.83165 33.0096 5.77397 32.813C5.71629 32.6163 5.61927 32.4337 5.48883 32.2763C5.35839 32.1188 5.1973 31.99 5.01554 31.8977C4.83377 31.8053 4.63515 31.7515 4.43194 31.7395ZM35.9145 29.1729C34.936 29.6161 34.6667 30.0791 34.8178 31.0648C35.171 30.9006 35.4657 30.6312 35.6618 30.2928C35.858 29.9544 35.9462 29.5635 35.9145 29.1729ZM8.66109 35.9399C8.81016 36.2982 9.06732 36.6001 9.39612 36.8031C9.72492 37.0061 10.1087 37.0999 10.4933 37.0711C10.4556 36.8708 10.3768 36.6806 10.2619 36.5129C10.1469 36.3451 9.99838 36.2034 9.82584 36.0969C9.6533 35.9904 9.46054 35.9214 9.25996 35.8944C9.05938 35.8673 8.85537 35.8828 8.66109 35.9399ZM13.153 15.2685C13.0348 14.9774 12.9888 14.5541 12.7918 14.4416C12.3177 14.2392 11.825 14.0842 11.3208 13.9786C11.5375 14.2961 11.7279 14.5541 11.8921 14.8253C12.2664 15.4339 12.3321 15.4868 13.153 15.2685ZM16.8568 39.2209C17.1491 39.4765 17.5159 39.6295 17.902 39.6569C18.2881 39.6844 18.6727 39.5847 18.9977 39.373C18.8738 39.2115 18.7174 39.0782 18.5387 38.9819C18.3601 38.8856 18.1632 38.8284 17.9611 38.814C17.759 38.7996 17.5561 38.8284 17.3658 38.8985C17.1755 38.9687 17.002 39.0785 16.8568 39.2209ZM13.2318 38.3279C12.5751 37.329 11.9841 37.1107 11.1829 37.501C11.411 37.8208 11.7249 38.0685 12.0878 38.215C12.4507 38.3614 12.8476 38.4006 13.2318 38.3279ZM21.9529 39.1812C21.6442 39.0555 21.3684 38.9232 21.086 38.824C20.9683 38.7642 20.8336 38.7478 20.7052 38.7777C20.3702 38.9496 20.0484 39.1679 19.7069 39.373C20.0532 39.585 20.4573 39.6806 20.861 39.6461C21.2647 39.6117 21.647 39.4488 21.9529 39.1812ZM6.31668 6.10694C6.74566 6.06048 7.16101 5.92775 7.53815 5.71665C7.79023 5.35888 7.97503 4.95756 8.08327 4.53261C7.6714 4.60054 7.28693 4.78439 6.97435 5.06296C6.66178 5.34152 6.4338 5.70344 6.31668 6.10694ZM32.4208 6.04077C32.3103 5.6602 32.0949 5.319 31.7997 5.05674C31.5044 4.79448 31.1414 4.62191 30.7528 4.55905C30.7561 4.7699 30.803 4.97772 30.8907 5.16922C30.9783 5.36072 31.1047 5.53167 31.2617 5.67115C31.4187 5.81062 31.6029 5.91555 31.8025 5.9792C32.0021 6.04285 32.2127 6.06382 32.4208 6.04077ZM34.3909 31.7461C34.1833 31.7597 33.9806 31.8161 33.7955 31.9116C33.6103 32.0072 33.4465 32.14 33.3142 32.3017C33.1819 32.4635 33.084 32.6508 33.0263 32.8522C32.9686 33.0536 32.9525 33.2647 32.979 33.4726C33.3533 33.3505 33.6852 33.123 33.9354 32.8171C34.1855 32.5112 34.3436 32.1395 34.3909 31.7461ZM30.1223 4.11587C29.977 3.74976 29.72 3.43966 29.3883 3.23039C29.0566 3.02111 28.6674 2.92349 28.277 2.95165C28.8155 4.05633 29.0125 4.18201 30.1223 4.11587ZM25.2692 28.3394C25.1445 27.8962 25.0394 27.5523 24.9343 27.2017C24.7636 26.6129 24.6125 26.5402 23.9492 26.5402C23.9492 26.8643 23.7326 27.2017 24.1003 27.4927C24.4681 27.7838 24.8358 28.0153 25.2692 28.3196V28.3394ZM24.8686 38.5197C24.4681 38.4271 24.12 38.3411 23.7654 38.2683C23.7322 38.2627 23.6982 38.2639 23.6655 38.2719C23.6327 38.2798 23.602 38.2943 23.575 38.3146C23.286 38.5527 22.997 38.8041 22.695 39.0621C23.0674 39.2166 23.4791 39.2473 23.8701 39.1498C24.2611 39.0522 24.6109 38.8315 24.8686 38.5197ZM0.609941 19.6541C1.35859 18.6487 1.35855 18.6487 0.820052 17.3588C0.565485 17.6785 0.409858 18.0666 0.372495 18.4747C0.335131 18.8828 0.417715 19.2929 0.609941 19.6541ZM4.03793 31.078C3.99853 30.7406 3.97881 30.4165 3.93941 30.1519C3.93941 30.0064 3.89346 29.8146 3.79495 29.7418C3.49754 29.5201 3.18842 29.3147 2.86897 29.1266C2.83421 29.5345 2.92857 29.9431 3.13857 30.2937C3.34857 30.6442 3.66344 30.9188 4.03793 31.078ZM16.1541 0.920883C15.7787 0.764476 15.3629 0.735368 14.9695 0.837995C14.5762 0.940622 14.2268 1.1694 13.9739 1.48975C14.3351 1.57574 14.6897 1.66173 15.0443 1.7345C15.1372 1.73829 15.2283 1.7077 15.3004 1.6485C15.5762 1.4236 15.8455 1.19209 16.1541 0.920883ZM16.8437 0.775335C16.9945 0.922681 17.1748 1.03594 17.3726 1.10753C17.5703 1.17912 17.7809 1.2074 17.9904 1.1905C18.1998 1.1736 18.4033 1.11189 18.5872 1.0095C18.7711 0.907115 18.9312 0.766418 19.0568 0.596762C18.7086 0.413918 18.3162 0.333667 17.9247 0.365258C17.5333 0.396849 17.1586 0.538975 16.8437 0.775335ZM8.04383 35.4372C8.03584 35.2301 7.98592 35.0269 7.8972 34.84C7.80849 34.6531 7.68284 34.4864 7.52789 34.3501C7.37294 34.2139 7.19201 34.1109 6.99616 34.0476C6.80031 33.9843 6.59364 33.9619 6.38891 33.9819C6.47911 34.3683 6.68729 34.7165 6.98413 34.9775C7.28098 35.2385 7.65157 35.3993 8.04383 35.4372ZM0.931721 16.6179C1.16814 16.3136 1.40451 16.0292 1.62779 15.7315C1.67778 15.6654 1.70121 15.5827 1.69344 15.5C1.62777 15.1296 1.54242 14.7658 1.46361 14.3887C1.14936 14.6537 0.928017 15.0135 0.832237 15.4148C0.736457 15.8162 0.771351 16.238 0.931721 16.6179ZM34.8112 8.93146C34.8112 10.1684 34.9688 10.4132 35.9604 10.8365C35.9803 10.4396 35.8814 10.0458 35.6764 9.70611C35.4715 9.36644 35.1701 9.09656 34.8112 8.93146ZM19.7069 0.603383C20.7577 1.37732 20.8233 1.3773 21.9791 0.788578C21.6565 0.544524 21.2718 0.397596 20.8696 0.364814C20.4675 0.332032 20.0643 0.414761 19.7069 0.603383ZM37.8846 23.3981C37.0571 24.2647 36.9586 24.7211 37.3723 25.6009C37.6703 25.33 37.8791 24.9739 37.9706 24.5802C38.0621 24.1866 38.0321 23.7741 37.8846 23.3981ZM34.3646 8.27659C34.3324 7.88004 34.1786 7.5034 33.9244 7.19881C33.6703 6.89423 33.3284 6.67677 32.9461 6.57657C32.9226 6.78309 32.9411 6.99228 33.0005 7.19134C33.06 7.39041 33.1591 7.57515 33.2919 7.73429C33.4247 7.89343 33.5883 8.02363 33.7727 8.11687C33.9572 8.21012 34.1586 8.26445 34.3646 8.27659ZM8.66109 4.096C9.876 4.096 10.014 4.01662 10.5196 2.93178C10.1277 2.90486 9.73736 3.00283 9.40381 3.21178C9.07027 3.42072 8.81041 3.73006 8.66109 4.096ZM4.43194 8.27659C5.4564 8.03846 5.67971 7.76726 5.85702 6.55675C5.47196 6.65957 5.12802 6.88022 4.87276 7.18827C4.61751 7.49633 4.46351 7.8766 4.43194 8.27659ZM37.3395 14.3623C37.2476 14.779 37.1622 15.1428 37.0965 15.5132C37.091 15.5948 37.1168 15.6754 37.1688 15.7382L37.878 16.6179C38.0249 16.2311 38.052 15.8086 37.9559 15.406C37.8598 15.0034 37.6449 14.6395 37.3395 14.3623ZM13.5339 28.3196C13.7309 28.1807 13.8557 28.0947 13.9739 28.0021C14.0921 27.9095 14.2366 27.8036 14.3745 27.711C14.9721 27.3207 14.9918 27.2744 14.7948 26.3881C14.5058 26.527 14.1381 26.5931 13.987 26.8114C13.7889 27.2917 13.6372 27.7901 13.5339 28.2998V28.3196ZM30.7724 35.3842C31.1623 35.3581 31.5331 35.2044 31.8283 34.9465C32.1235 34.6886 32.3269 34.3406 32.4076 33.9554C32.2058 33.9345 32.0019 33.9554 31.8085 34.017C31.615 34.0785 31.4362 34.1793 31.2829 34.3132C31.1297 34.4471 31.0053 34.6113 30.9175 34.7955C30.8297 34.9797 30.7803 35.18 30.7724 35.3842ZM25.7093 15.4074C26.0573 15.3148 26.4316 15.3214 26.6286 15.1362C26.9405 14.7666 27.2134 14.3653 27.4429 13.9389L26.3791 14.2696C25.7749 14.4549 25.7224 14.5475 25.7224 15.4074H25.7093ZM30.1551 35.834C29.853 35.8737 29.5969 35.8936 29.3474 35.9333C29.0978 35.973 28.9468 35.9333 28.8614 36.0656C28.6338 36.3797 28.4275 36.709 28.2441 37.0512C28.6492 37.0764 29.0519 36.9724 29.395 36.7539C29.7381 36.5354 30.004 36.2135 30.1551 35.834ZM36.3085 11.5179C36.0983 12.6953 36.2362 13.0327 37.1425 13.6082C37.2302 13.2157 37.1975 12.8056 37.0485 12.4323C36.8996 12.059 36.6415 11.7401 36.3085 11.5179ZM16.1082 39.0621C15.353 38.2286 14.8604 38.1096 13.987 38.5197C14.24 38.822 14.5806 39.0369 14.9611 39.1342C15.3415 39.2315 15.7427 39.2063 16.1082 39.0621ZM0.629582 20.309C0.415794 20.6661 0.319149 21.082 0.353335 21.4976C0.387522 21.9132 0.550828 22.3074 0.820052 22.6242C0.931693 22.3265 1.06305 22.0289 1.16813 21.7312C1.22223 21.6204 1.23612 21.494 1.20749 21.374C1.03018 21.0234 0.826581 20.7125 0.616435 20.3156L0.629582 20.309ZM38.0028 17.3588C37.8676 17.517 37.765 17.7008 37.701 17.8994C37.637 18.098 37.6129 18.3074 37.63 18.5155C37.6471 18.7235 37.7052 18.9261 37.8007 19.1114C37.8963 19.2966 38.0275 19.4609 38.1867 19.5946C38.3792 19.2454 38.4644 18.8466 38.4317 18.4486C38.399 18.0506 38.2497 17.6713 38.0028 17.3588ZM0.918574 23.3651C0.753269 23.7431 0.715773 24.1653 0.811876 24.5668C0.907979 24.9684 1.13232 25.327 1.45047 25.5876C1.52927 25.2106 1.61463 24.8402 1.68687 24.4764C1.69774 24.4067 1.68129 24.3355 1.64094 24.2779L0.918574 23.3651ZM25.6173 24.741C25.7421 25.0254 25.7881 25.4024 25.9916 25.548C26.4592 25.7574 26.948 25.9149 27.4495 26.0176C27.2197 25.6803 27.0227 25.409 26.8519 25.1312C26.5039 24.5557 26.3856 24.5094 25.6173 24.741ZM24.8424 1.45668C24.5857 1.14149 24.235 0.917899 23.8424 0.81902C23.4497 0.72014 23.0359 0.751217 22.6621 0.90764C22.9511 1.159 23.2269 1.40377 23.5158 1.62868C23.5518 1.65663 23.5931 1.6769 23.6371 1.68827C23.6812 1.69964 23.727 1.70187 23.772 1.69481C24.1134 1.62866 24.4287 1.54268 24.8424 1.45668ZM3.94598 8.91163C3.5897 9.0718 3.29225 9.34049 3.09552 9.67987C2.89878 10.0192 2.81263 10.4122 2.84925 10.8035C3.04606 10.7543 3.2311 10.6659 3.39341 10.5435C3.55572 10.4211 3.69199 10.2672 3.79423 10.0908C3.89647 9.91446 3.96257 9.71926 3.98863 9.51672C4.01469 9.31417 4.00022 9.10843 3.94598 8.91163ZM25.5057 38.2882C25.8993 38.379 26.3114 38.3392 26.6807 38.1747C27.05 38.0102 27.3565 37.7297 27.5546 37.3753C27.2131 37.3753 26.8979 37.3158 26.5367 37.3026C26.4323 37.2968 26.3295 37.3297 26.2477 37.3952C25.9982 37.6664 25.7749 37.964 25.5057 38.2882ZM23.9821 13.5222C24.2514 13.4229 24.6388 13.4031 24.757 13.2113C24.9618 12.7043 25.1201 12.1796 25.2298 11.6436C24.8818 11.9015 24.6125 12.1132 24.3301 12.3051C23.8113 12.649 23.7654 12.7747 23.9821 13.5222ZM12.47 23.5304C12.1417 23.5304 11.7674 23.3584 11.5901 23.4907C11.192 23.8422 10.829 24.2322 10.5065 24.655C10.9005 24.5822 11.2026 24.516 11.5113 24.483C12.2468 24.4036 12.2467 24.4102 12.47 23.5304ZM14.913 13.4692C14.8539 13.1186 14.913 12.7284 14.7357 12.5432C14.381 12.2227 13.9936 11.9411 13.5799 11.7031C13.5799 11.7031 13.5799 11.7362 13.5799 11.7494C13.6784 12.0669 13.7703 12.4109 13.8688 12.7085C14.0724 13.4163 14.0724 13.4163 14.9458 13.4692H14.913ZM9.44919 19.9783L10.0533 20.1899L10.5525 20.3686C11.0712 20.5604 11.2945 20.4744 11.6623 19.8658C11.393 19.7203 11.1106 19.4425 10.8742 19.4755C10.3838 19.595 9.90644 19.7634 9.44919 19.9783ZM27.1277 20.0775C27.4364 20.2296 27.7188 20.4942 27.9683 20.4611C28.4516 20.3419 28.9222 20.1758 29.3736 19.965L28.277 19.588C27.7385 19.3895 27.5808 19.4425 27.1277 20.0775ZM13.107 24.5888C12.7853 24.6351 12.4044 24.5888 12.2402 24.7277C11.9012 25.1389 11.6021 25.582 11.3471 26.0507L11.8987 25.8655C12.0629 25.806 12.2402 25.7596 12.4044 25.7067C13.0611 25.5016 13.0611 25.4951 13.107 24.6153V24.5888ZM37.1491 26.3285C36.1574 27.1554 36.0392 27.4729 36.3348 28.4321C36.6666 28.2063 36.9223 27.8841 37.0678 27.5083C37.2133 27.1325 37.2417 26.7209 37.1491 26.3285ZM2.52747 11.5179C2.18954 11.7418 1.92827 12.065 1.77906 12.4437C1.62985 12.8224 1.59992 13.2382 1.69344 13.6346C2.6588 12.8871 2.69822 12.7879 2.52747 11.5179ZM20.981 30.1453C21.0532 29.7087 21.1057 29.3184 21.1845 28.9348C21.2896 28.4122 21.1254 28.1344 20.5672 27.9491C20.4744 28.0842 20.3952 28.2282 20.3308 28.3791C20.2606 28.5155 20.2397 28.6721 20.2717 28.8223C20.4687 29.2523 20.7117 29.6558 20.981 30.1453ZM15.8193 27.1025C15.5828 27.2414 15.2019 27.334 15.1625 27.539C15.0397 28.0427 14.9606 28.5562 14.9261 29.0737L15.0246 29.1266C15.2545 28.8752 15.4646 28.604 15.7142 28.3659C16.187 27.9293 16.2198 27.764 15.8455 27.1025H15.8193ZM20.7117 12.1066C20.8956 11.8949 21.2371 11.6832 21.2371 11.4451C21.2023 10.8775 21.1232 10.3135 21.0006 9.75831C20.8693 10.0361 20.8036 10.2081 20.7248 10.3669L20.4687 10.8498C20.1732 11.3988 20.1995 11.5113 20.7117 12.0801V12.1066ZM14.9064 10.8167C14.9721 11.2599 15.0312 11.6171 15.0706 11.9809C15.1363 12.5696 15.307 12.7416 16.0163 12.7879C16.0163 12.4836 16.1345 12.1265 16.0163 11.8949C15.691 11.4984 15.3257 11.137 14.9261 10.8167H14.9064ZM23.043 12.8673C23.2794 12.7284 23.6669 12.6358 23.6997 12.4373C23.8225 11.9314 23.9016 11.4158 23.9361 10.8961L23.8376 10.8498C23.6078 11.1011 23.3976 11.3657 23.1481 11.5973C22.6818 12.0405 22.6555 12.1926 23.0102 12.8673H23.043ZM27.0358 21.3012C27.2985 21.5063 27.5218 21.8304 27.7516 21.8304C28.2702 21.7927 28.7845 21.7086 29.2883 21.579L28.277 21.0366C27.7188 20.7257 27.6202 20.7324 27.0358 21.3012ZM28.2901 15.2949C27.8961 15.3611 27.5612 15.4206 27.2262 15.4603C26.5695 15.5331 26.4644 15.6323 26.3725 16.4062C26.6614 16.4062 27.0292 16.5915 27.2131 16.4592C27.6093 16.1078 27.9701 15.7178 28.2901 15.2949ZM19.5034 11.9875C19.661 11.7031 19.9499 11.4252 19.9171 11.1937C19.7965 10.6789 19.6294 10.1764 19.418 9.69218L19.0699 10.7638C18.8598 11.379 18.8926 11.5046 19.5034 11.9875ZM23.969 29.1332C23.923 28.8686 23.8967 28.7033 23.8704 28.5445C23.8345 28.3652 23.8082 28.1842 23.7916 28.0021C23.7391 27.3406 23.6143 27.2083 22.8657 27.1422C22.8657 27.4531 22.7541 27.8036 22.8657 28.055C23.1861 28.4515 23.5471 28.8129 23.9427 29.1332H23.969ZM11.2026 2.53491C12.2796 2.74658 12.8378 2.53492 13.2187 1.6353C12.8315 1.55708 12.4299 1.60154 12.0688 1.76264C11.7078 1.92373 11.4052 2.19353 11.2026 2.53491ZM19.4048 30.2313C19.5493 29.7947 19.6676 29.4309 19.7989 29.0737C19.9762 28.5776 19.858 28.2733 19.2932 27.9822C19.1553 28.2336 18.8729 28.5114 18.9057 28.7496C19.0217 29.2593 19.1889 29.7557 19.4048 30.2313ZM17.8222 9.80462C17.7565 10.228 17.7105 10.605 17.6383 10.9755C17.5267 11.551 17.6383 11.8023 18.295 12.0272C18.3935 11.756 18.6496 11.4319 18.5774 11.2136C18.3725 10.7225 18.1241 10.2509 17.8353 9.80462H17.8222ZM2.51433 28.4519C2.73104 27.3207 2.51436 26.7651 1.64751 26.3351C1.57608 26.7345 1.61974 27.1462 1.77337 27.5213C1.927 27.8965 2.18413 28.2194 2.51433 28.4519ZM27.594 2.52167C27.3986 2.1792 27.096 1.91163 26.7336 1.76082C26.3712 1.61001 25.9694 1.58447 25.591 1.68819C25.6643 1.87847 25.7751 2.05179 25.9168 2.19767C26.0585 2.34354 26.2281 2.45896 26.4153 2.53689C26.6026 2.61481 26.8036 2.65364 27.0062 2.65102C27.2088 2.64841 27.4088 2.60439 27.594 2.52167ZM9.58054 18.351L10.894 19.0985C11.0844 19.2043 11.7214 18.8736 11.7214 18.6752C11.6669 18.5222 11.5732 18.3866 11.4498 18.282C11.3263 18.1774 11.1776 18.1077 11.0187 18.0798C10.5656 18.1592 10.1124 18.2518 9.60022 18.351H9.58054ZM26.2806 23.6892C26.471 23.9405 26.6155 24.3507 26.8519 24.4102C27.3557 24.5364 27.8702 24.6139 28.3886 24.6417C28.0668 24.3242 27.791 24.0795 27.548 23.8082C27.1146 23.3187 26.9767 23.2923 26.2806 23.6892ZM12.5423 16.2607C12.4043 16.016 12.319 15.5992 12.1285 15.5529C11.6134 15.4232 11.0884 15.3369 10.559 15.2949C10.8611 15.6257 11.1041 15.8837 11.3405 16.1549C11.728 16.5981 11.9118 16.6245 12.5423 16.2607ZM9.58707 21.5857C10.0139 21.6584 10.3883 21.7113 10.7626 21.7907C11.2748 21.8966 11.5375 21.7378 11.7477 21.0763C11.4521 20.9969 11.1238 20.7985 10.8742 20.8713C10.4126 21.0621 9.97238 21.3015 9.56082 21.5857H9.58707ZM26.4316 27.2546C26.2497 26.7747 26.0301 26.3102 25.7749 25.8655C25.6567 25.6935 25.2955 25.6869 25.0394 25.6406C24.9869 25.6406 24.8489 25.7927 24.8621 25.8456C24.9277 26.1102 24.9606 26.4674 25.1379 26.5997C25.5533 26.8628 25.9932 27.0844 26.4513 27.2612L26.4316 27.2546ZM12.365 12.7085C12.562 13.1121 12.7327 13.4428 12.8903 13.7802C13.1333 14.3093 13.3566 14.4416 13.9542 14.2763C13.9542 13.9521 14.0658 13.5685 13.685 13.3568C13.3041 13.1451 12.8575 12.9467 12.3715 12.6953L12.365 12.7085ZM9.93514 23.1732C10.3817 23.1732 10.7166 23.1732 11.045 23.1732C11.7017 23.1732 11.8002 23.1269 12.0366 22.3662C11.7542 22.2935 11.3799 22.0884 11.2092 22.1876C10.7557 22.4766 10.3293 22.8065 9.93514 23.1732ZM29.2752 18.3444L28.6973 18.2584C28.5199 18.2253 28.3492 18.2055 28.1719 18.1658C27.5677 18.0401 27.4364 18.1063 27.0883 18.8273C27.3838 18.9265 27.745 19.1712 27.9486 19.0985C28.4116 18.8999 28.852 18.6515 29.262 18.3576L29.2752 18.3444ZM17.8616 30.1585L18.3738 29.1266C18.6759 28.5511 18.6562 28.399 18.1046 27.8433C17.9273 28.1212 17.6318 28.3725 17.6186 28.6437C17.6511 29.1553 17.7325 29.6626 17.8616 30.1585ZM13.9214 25.5612C13.6127 25.6472 13.2055 25.6273 13.0742 25.8126C12.8129 26.2771 12.5931 26.7641 12.4175 27.2678C12.7984 27.0694 13.107 26.8974 13.4223 26.7386C13.9739 26.4608 14.0395 26.3351 13.941 25.5612H13.9214ZM26.7994 22.5118C26.9898 22.7499 27.1343 23.1269 27.3444 23.1732C27.8469 23.2197 28.3524 23.2197 28.8549 23.1732C28.6106 22.9059 28.34 22.6643 28.0471 22.4522C27.5677 22.0553 27.3904 22.0487 26.7994 22.4853V22.5118ZM21.9069 12.3844C22.1433 12.186 22.5045 12.0338 22.5636 11.8155C22.613 11.2963 22.613 10.7736 22.5636 10.2544C22.307 10.5105 22.074 10.7894 21.8675 11.0879C21.4866 11.5774 21.4735 11.7494 21.8675 12.4109L21.9069 12.3844ZM24.9278 14.3953C25.2496 14.2961 25.6567 14.2961 25.7946 14.0977C26.0614 13.6498 26.2814 13.1754 26.4513 12.6821L25.4728 13.1914C24.9015 13.4759 24.8161 13.5883 24.9278 14.3953ZM21.7427 27.5589C21.6705 27.8764 21.4669 28.2204 21.5589 28.4188C21.8419 28.8856 22.1625 29.3281 22.5176 29.7418V29.1266C22.5176 28.9546 22.5176 28.7892 22.5176 28.6173C22.5176 27.9161 22.5176 27.8698 21.7361 27.5457L21.7427 27.5589ZM16.3052 10.1486C16.3052 10.605 16.3052 10.9424 16.3052 11.2797C16.3052 11.9412 16.3052 12.0338 17.1129 12.3381C17.1589 12.0074 17.3296 11.637 17.2246 11.3988C16.9611 10.9517 16.6531 10.5328 16.3052 10.1486ZM12.0629 17.3853C11.8724 17.167 11.7082 16.7965 11.485 16.7238C10.9937 16.6739 10.4987 16.6739 10.0074 16.7238C10.1132 16.8898 10.2546 17.03 10.4211 17.1339L10.848 17.4646C11.2748 17.8417 11.5441 17.8351 12.0629 17.3853ZM16.2855 29.6227H16.4037C16.6007 29.3383 16.7846 29.0472 16.9947 28.776C17.3691 28.2997 17.3756 28.0219 16.9225 27.4861C16.7058 27.6978 16.3643 27.8896 16.3118 28.1476C16.2624 28.6336 16.2624 29.1235 16.3118 29.6095L16.2855 29.6227ZM26.8191 17.544C27.1409 17.6102 27.4758 17.802 27.6859 17.7028C28.1382 17.4147 28.5646 17.0871 28.9599 16.7238C28.5396 16.7238 28.2113 16.7238 27.8895 16.7238C27.1737 16.7238 27.1343 16.7238 26.8191 17.544ZM18.2819 1.34424C18.6497 1.6353 18.9911 1.91971 19.3392 2.1843C19.3727 2.20171 19.4098 2.21079 19.4475 2.21079C19.4852 2.21079 19.5224 2.20171 19.5559 2.1843C19.9171 1.89986 20.2717 1.60884 20.6329 1.31118C19.7857 0.517395 19.0765 0.517395 18.2819 1.31118V1.34424ZM1.43082 21.1557L2.27135 20.0378C2.28539 20.0078 2.29267 19.975 2.29267 19.9419C2.29267 19.9087 2.28539 19.876 2.27135 19.846C1.98896 19.4623 1.70005 19.0853 1.40453 18.695C0.596782 19.8592 0.583648 20.018 1.40453 21.1557H1.43082ZM7.88622 34.2134C8.24084 35.5893 8.44441 35.7481 9.80379 35.6819C9.67245 35.2387 9.5477 34.7955 9.41636 34.3589C9.40056 34.3228 9.37605 34.2912 9.34509 34.2669C9.31414 34.2427 9.27771 34.2266 9.23904 34.2201C8.79248 34.2201 8.34592 34.2201 7.88622 34.2201V34.2134ZM34.6536 10.056C34.7258 8.66687 34.5419 8.42873 33.2285 8.07153C33.2285 8.53457 33.2285 8.97776 33.2285 9.42757C33.2363 9.47718 33.2559 9.52416 33.2856 9.56448C33.3154 9.6048 33.3544 9.63729 33.3993 9.65911C33.7999 9.79803 34.207 9.91045 34.6404 10.0427L34.6536 10.056ZM37.3855 21.2086C38.1932 20.2428 38.1801 19.4755 37.3855 18.7744L36.512 19.9783L37.4117 21.2086H37.3855ZM7.49879 33.9554L7.26238 32.4803L5.81758 32.2488C5.81758 33.413 6.47433 34.0679 7.49879 33.9554ZM31.5145 32.4869C31.4357 32.9897 31.3635 33.4792 31.2847 33.9687C32.4142 34.015 33.1629 33.2013 32.9133 32.2554L31.5145 32.4869ZM37.0046 15.8638C36.7879 16.274 36.5646 16.6841 36.3479 17.1008C36.3378 17.1383 36.3368 17.1776 36.3447 17.2155C36.3527 17.2535 36.3696 17.289 36.3938 17.3191C36.7091 17.6366 37.0506 17.9806 37.3592 18.265C37.5161 18.0933 37.6326 17.8882 37.7001 17.6649C37.7675 17.4417 37.7842 17.206 37.7489 16.9753C37.7136 16.7446 37.6271 16.525 37.496 16.3325C37.3649 16.1401 37.1925 15.98 36.9915 15.8638H37.0046ZM31.2715 5.99446L31.5079 7.47618L32.2369 7.58204L32.9396 7.71435C32.9724 6.55675 32.3157 5.88862 31.2715 5.99446ZM23.3911 38.1427C22.9839 37.9178 22.603 37.7061 22.2156 37.4812C22.1781 37.4615 22.1364 37.4512 22.0941 37.4512C22.0518 37.4512 22.0101 37.4615 21.9726 37.4812C21.6574 37.8053 21.3618 38.1426 21.0532 38.48C21.9332 39.1415 22.7015 39.029 23.3911 38.0963V38.1427ZM5.54831 31.8387C5.54831 31.3558 5.54831 30.9192 5.54831 30.5157C5.54659 30.4719 5.53437 30.4291 5.51264 30.3911C5.4909 30.3531 5.46035 30.3209 5.42357 30.2974C4.99671 30.1453 4.56329 30.0196 4.11016 29.8873C4.02479 31.2764 4.24153 31.5278 5.53524 31.8717L5.54831 31.8387ZM16.6204 37.4679L15.4055 38.1294C15.506 38.3342 15.653 38.5121 15.8348 38.6487C16.0165 38.7853 16.2277 38.8767 16.4512 38.9154C16.6747 38.9541 16.9041 38.939 17.1206 38.8714C17.3372 38.8037 17.5349 38.6855 17.6974 38.5263C17.3428 38.1889 16.9947 37.8648 16.6204 37.4812V37.4679ZM17.7105 1.42362C17.5482 1.26325 17.3502 1.14417 17.1331 1.0762C16.9159 1.00823 16.6858 0.993321 16.4618 1.03276C16.2378 1.0722 16.0263 1.16485 15.8449 1.30298C15.6635 1.44112 15.5174 1.62078 15.4186 1.82711L16.5942 2.4886L17.7105 1.45006V1.42362ZM19.3917 37.6597L18.1965 38.5991C19.1619 39.4326 19.8514 39.4193 20.5607 38.5991L19.9696 38.1559C19.7792 38.0103 19.5887 37.8516 19.3917 37.6928V37.6597ZM1.77882 15.9101C0.865996 16.6377 0.734642 17.5639 1.43732 18.3312C1.7591 17.9541 2.0941 17.5771 2.41588 17.1736L1.75918 15.9101H1.77882ZM5.51552 8.11784C4.31375 8.37582 3.88031 9.01085 4.11016 10.1023C4.53045 9.97661 4.95076 9.85753 5.35792 9.712C5.40121 9.68696 5.43762 9.65152 5.46398 9.60881C5.49033 9.5661 5.50581 9.51745 5.50895 9.46726C5.50895 9.03068 5.50895 8.60071 5.50895 8.14429L5.51552 8.11784ZM7.23609 7.54897C7.31489 7.03302 7.39368 6.55672 7.46592 6.07384C7.23623 6.03745 7.00122 6.05746 6.78084 6.13214C6.56045 6.20681 6.36121 6.33398 6.20004 6.50281C6.03888 6.67163 5.92054 6.87713 5.8551 7.10187C5.78966 7.32662 5.77905 7.56396 5.82415 7.79372L7.23609 7.54897ZM34.6273 29.9998C34.1939 30.1321 33.767 30.2577 33.3139 30.3967C33.2791 30.4159 33.2496 30.4435 33.2278 30.477C33.2061 30.5104 33.1928 30.5487 33.1891 30.5885C33.1891 31.0449 33.1891 31.5013 33.1891 31.9842C34.5025 31.6006 34.6996 31.3691 34.6076 29.9998H34.6273ZM30.8775 5.76958C30.5557 4.44661 30.3062 4.21507 28.9665 4.30106C29.0978 4.75087 29.2161 5.19407 29.354 5.62403C29.3828 5.66538 29.4211 5.69905 29.4658 5.7221C29.5104 5.74515 29.5599 5.7569 29.6101 5.75634C30.0172 5.75634 30.4244 5.75634 30.8775 5.75634V5.76958ZM35.6255 25.5083L35.8751 26.2557C35.9539 26.4873 36.0261 26.7254 36.1049 26.9635C37.1096 26.4211 37.3723 25.5347 36.8141 24.6417L35.6255 25.5083ZM9.71185 4.28124C8.47724 4.1754 7.88624 4.63843 7.82057 5.76296C8.24743 5.76296 8.66772 5.76296 9.08801 5.76296C9.137 5.75698 9.18391 5.7395 9.22497 5.71192C9.26603 5.68435 9.30009 5.64746 9.32441 5.60421C9.46889 5.18086 9.58051 4.74428 9.71185 4.28124ZM24.6322 3.2427L26.0245 2.75321C25.591 1.72129 24.8818 1.47652 23.7785 1.98586C24.0149 2.33645 24.2382 2.68705 24.4746 3.03102C24.5206 3.10378 24.5731 3.16332 24.6322 3.2427ZM37.3264 21.7643C36.9849 22.1347 36.6697 22.4985 36.2888 22.8623L36.9455 24.1324C37.1478 24.0223 37.3224 23.8672 37.4561 23.6788C37.5899 23.4904 37.6792 23.2737 37.7172 23.0453C37.7552 22.8169 37.7409 22.5828 37.6754 22.3608C37.61 22.1388 37.4951 21.9348 37.3395 21.7643H37.3264ZM28.9796 35.7943C30.2208 35.92 30.8512 35.4305 30.8578 34.3193C30.4375 34.3193 30.0172 34.3193 29.6035 34.3193C29.5542 34.3245 29.5068 34.3409 29.4647 34.3673C29.4226 34.3936 29.387 34.4292 29.3605 34.4714C29.2226 34.8947 29.111 35.3247 28.9796 35.7943ZM3.06602 25.4818C2.8493 25.3297 2.63916 25.1907 2.40931 25.0452C2.17946 24.8997 2.02184 24.7476 1.82483 24.5888C1.3126 25.7199 1.56871 26.5005 2.56034 26.9305C2.71138 26.4608 2.86241 25.9978 3.03315 25.4818H3.06602ZM1.71974 24.1589L2.33051 22.9483L1.3323 21.7841C1.17518 21.9542 1.05876 22.1583 0.992085 22.3807C0.92541 22.6031 0.910268 22.838 0.947674 23.0672C0.98508 23.2965 1.07405 23.5141 1.20789 23.7033C1.34173 23.8925 1.51683 24.0484 1.71974 24.1589ZM21.0466 1.45668C21.3421 1.78081 21.6311 2.11818 21.9397 2.42247C21.973 2.45022 22.0128 2.469 22.0553 2.47709C22.0978 2.48519 22.1417 2.48235 22.1827 2.46878C22.5768 2.27033 22.9642 2.04543 23.3517 1.80729C23.2492 1.60211 23.0999 1.42436 22.9158 1.28877C22.7318 1.15318 22.5185 1.06361 22.2933 1.02743C22.0682 0.991247 21.8377 1.0095 21.6209 1.08068C21.4042 1.15187 21.2073 1.27393 21.0466 1.43682V1.45668ZM36.1509 13.0393L35.6781 14.5078L36.8798 15.4008C37.3855 14.3557 37.1885 13.6942 36.1509 13.0393ZM14.9458 38.017C14.6766 37.6267 14.4796 37.0446 14.1249 36.8991C13.7703 36.7535 13.2712 37.0843 12.8115 37.1967L12.667 37.2496C12.7335 37.4753 12.8528 37.6816 13.015 37.8512C13.1772 38.0207 13.3775 38.1485 13.5989 38.2237C13.8204 38.2989 14.0566 38.3194 14.2875 38.2834C14.5185 38.2474 14.7375 38.1561 14.9261 38.017H14.9458ZM2.5997 13.0459C1.45047 13.8992 1.3848 14.0381 1.86419 15.4008L3.07259 14.5011C2.90842 14.005 2.75731 13.542 2.5997 13.0459ZM26.0639 37.2629L24.6519 36.78L23.8114 38.0103C24.757 38.5594 25.5451 38.3014 26.0639 37.2629ZM3.86718 10.4463C2.77705 10.7903 2.32393 11.7692 2.80989 12.6093C3.17765 12.4241 3.55193 12.2521 3.91312 12.0537C3.95868 12.0215 3.99614 11.979 4.02238 11.9296C4.04862 11.8802 4.06288 11.8253 4.06415 11.7693C4.01818 11.3327 3.93942 10.9093 3.86718 10.4463ZM14.9261 1.91311C13.8622 1.39054 13.1202 1.64188 12.6736 2.68042C13.0742 2.81933 13.4682 2.9715 13.8754 3.08395C13.934 3.09495 13.9944 3.09168 14.0515 3.07442C14.1086 3.05716 14.1608 3.0264 14.2037 2.98471C14.4599 2.64074 14.6831 2.27693 14.9261 1.91311ZM34.6273 11.9544L35.9407 12.6159C36.0418 12.4086 36.094 12.1806 36.0933 11.9496C36.0927 11.7186 36.0391 11.4909 35.9368 11.2842C35.8345 11.0774 35.6862 10.8973 35.5035 10.7577C35.3208 10.6181 35.1086 10.5229 34.8834 10.4793C34.8575 10.5107 34.8375 10.5466 34.8243 10.5852C34.7587 11.035 34.6995 11.4782 34.6273 11.9544ZM12.2402 2.85241C12.0314 2.75122 11.8019 2.70113 11.5703 2.70621C11.3386 2.71129 11.1115 2.77139 10.9073 2.88164C10.7031 2.99189 10.5277 3.14917 10.3952 3.34065C10.2628 3.53213 10.1772 3.75243 10.1453 3.98356L11.5901 4.21507L12.2468 2.85241H12.2402ZM35.9604 27.3274L34.7652 27.9293C34.7127 27.9293 34.647 28.0351 34.6536 28.0748C34.7193 28.5577 34.7915 29.034 34.8703 29.5169C35.967 29.1001 36.2954 28.432 35.9604 27.3274ZM28.625 35.9796L27.3116 35.7547C27.2525 35.7547 27.1409 35.7547 27.1277 35.7943C26.9044 36.2309 26.7009 36.6675 26.471 37.1173C27.6465 37.3885 28.1653 37.1173 28.6185 35.973L28.625 35.9796ZM12.2402 37.0909C12.0432 36.6741 11.8659 36.2773 11.6689 35.8936C11.6689 35.8274 11.5572 35.7415 11.5047 35.7481C11.0384 35.8142 10.5787 35.9002 10.0993 35.9796C10.5984 37.1504 11.196 37.4547 12.2402 37.0909ZM26.4842 2.87227C26.6812 3.28901 26.8716 3.70575 27.0752 4.11587C27.0928 4.14224 27.1162 4.16427 27.1435 4.1803C27.1708 4.19634 27.2013 4.20593 27.2328 4.20844C27.6859 4.1423 28.139 4.05632 28.5922 3.97694C28.2113 2.83919 27.4495 2.44892 26.4842 2.87227ZM2.7836 27.3472C2.67882 27.5577 2.62421 27.7899 2.62407 28.0253C2.62394 28.2608 2.67826 28.4931 2.7828 28.7037C2.88734 28.9143 3.03918 29.0974 3.22627 29.2386C3.41335 29.3797 3.63057 29.475 3.86061 29.5169C3.93285 29.0604 4.00504 28.6106 4.06415 28.1542C4.0678 28.1162 4.0626 28.0779 4.04891 28.0423C4.03523 28.0066 4.01345 27.9748 3.98534 27.9491C3.59132 27.7375 3.18419 27.5457 2.7836 27.3472ZM7.49879 30.4231H5.68627C5.68627 30.906 5.68627 31.3955 5.68627 31.8784C5.6947 31.9245 5.71486 31.9677 5.74479 32.0036C5.77472 32.0396 5.81339 32.067 5.85702 32.0834C6.30358 32.1694 6.75671 32.229 7.17043 32.3017C7.26894 31.6402 7.36084 31.0647 7.45935 30.4231H7.49879ZM9.17334 7.74741C9.17334 7.44313 9.17334 7.16528 9.17334 6.89407C9.17334 6.62286 9.25872 6.04079 9.09454 5.93495C8.93036 5.82911 8.43787 5.8688 8.06355 5.85558C7.98339 5.839 7.90073 5.839 7.82057 5.85558C7.7352 5.90188 7.61036 5.97463 7.59723 6.05401C7.51186 6.51705 7.45936 6.9801 7.39369 7.42991L9.17334 7.72093V7.74741ZM7.48564 9.55987C7.4134 9.17621 7.35429 8.89837 7.30832 8.59409C7.26235 8.28981 7.2229 7.99216 7.1835 7.7011C5.72561 7.66141 5.5089 7.8797 5.62711 9.22913C5.62711 9.26882 5.62711 9.32835 5.62711 9.34819C5.62711 9.36804 5.77822 9.54664 5.86359 9.55325C6.37583 9.55325 6.89459 9.55325 7.47249 9.55325L7.48564 9.55987ZM31.2387 7.42329C31.173 6.96687 31.1271 6.51706 31.0351 6.10032C31.011 6.04154 30.9735 5.98933 30.9255 5.94795C30.8776 5.90657 30.8207 5.87715 30.7593 5.86216C30.3766 5.83901 29.9928 5.83901 29.6101 5.86216C29.5379 5.86216 29.3999 5.98124 29.3999 6.04077C29.3999 6.59642 29.4393 7.15206 29.4656 7.73417L31.2387 7.44311V7.42329ZM32.9855 9.54663C32.9855 9.06375 32.9855 8.60071 32.9855 8.13767C32.9735 8.0809 32.9481 8.02787 32.9116 7.98299C32.875 7.93811 32.8283 7.90271 32.7754 7.87972C32.342 7.79372 31.8954 7.73419 31.462 7.66804C31.3569 8.32952 31.2715 8.92484 31.173 9.54663H32.9855ZM31.4489 32.2885C31.902 32.2157 32.342 32.1628 32.7623 32.0768C32.8116 32.0587 32.8552 32.0277 32.8887 31.9871C32.9221 31.9464 32.9442 31.8974 32.9527 31.8453C32.9527 31.369 32.9527 30.8796 32.9527 30.4165H31.1402L31.416 32.2885H31.4489ZM25.2495 34.8617C25.0591 35.4372 24.8686 36.006 24.6519 36.6411C25.0788 36.78 25.4991 36.9321 25.9325 37.0512C25.9892 37.0595 26.047 37.0535 26.1008 37.0339C26.1547 37.0143 26.2029 36.9816 26.2412 36.9387C26.471 36.5352 26.6746 36.1119 26.8979 35.6885L25.2561 34.8617H25.2495ZM9.15366 34.0944V32.2224L7.34768 32.5068C7.41335 32.9566 7.46593 33.413 7.55787 33.8298C7.57717 33.8848 7.61033 33.9338 7.65407 33.9721C7.69781 34.0103 7.75064 34.0365 7.80742 34.0481C8.25398 34.0481 8.7071 34.0481 9.15366 34.0481V34.0944ZM29.3934 34.0481C29.8596 34.0481 30.3324 34.0481 30.8053 34.0481C30.8506 34.0379 30.8926 34.0162 30.9271 33.9849C30.9616 33.9536 30.9875 33.9138 31.0023 33.8694C31.0811 33.4064 31.1468 32.9368 31.2125 32.4803L29.3934 32.1893V34.0481ZM34.8637 21.1822C35.2906 21.6188 35.7043 22.0355 36.2231 22.5514C36.4792 22.2472 36.7813 21.89 37.0571 21.5592C37.0888 21.5161 37.1101 21.4662 37.1192 21.4134C37.1283 21.3605 37.1251 21.3063 37.1097 21.2549C36.8536 20.8514 36.5777 20.4678 36.3085 20.0775L34.8637 21.1822ZM27.1211 35.5364C27.5743 35.6026 28.0143 35.6753 28.4346 35.7216C28.4912 35.7183 28.5463 35.7016 28.5954 35.6729C28.6444 35.6442 28.6861 35.6042 28.7169 35.5562C28.8811 35.1263 29.0125 34.6897 29.157 34.2333L27.4232 33.671C27.3182 34.2597 27.2131 34.8418 27.0949 35.5364H27.1211ZM35.4088 25.4884L33.662 26.1102C33.7816 26.3811 33.9221 26.6421 34.0823 26.8908C34.2793 27.1488 34.1676 27.6912 34.5879 27.6912C34.89 27.6912 35.1987 27.42 35.5073 27.2678C35.5829 27.2348 35.6503 27.185 35.7043 27.1223C35.7568 27.0429 35.8291 26.9172 35.8028 26.8379C35.6846 26.3814 35.5467 25.9316 35.4088 25.5149V25.4884ZM29.157 5.67034C29.0191 5.23376 28.9074 4.82364 28.7563 4.43337C28.7289 4.36942 28.6866 4.31315 28.6328 4.26937C28.579 4.22558 28.5155 4.19559 28.4477 4.182C27.9946 4.22169 27.548 4.30767 27.0949 4.37382C27.2131 5.0353 27.3182 5.65049 27.4232 6.23921L29.157 5.67034ZM20.4753 36.0325L19.4246 37.4878C20.3637 38.5858 20.692 38.5991 21.572 37.5804C21.6114 37.5407 21.6705 37.4944 21.6705 37.4481C21.6891 37.3515 21.6752 37.2514 21.6311 37.1636C21.2633 36.7866 20.8759 36.4294 20.4753 36.0325ZM4.82595 13.8132C4.60267 13.3303 4.37943 12.9004 4.20868 12.4439C4.10361 12.1661 3.95908 12.1397 3.74237 12.2521C3.44532 12.3913 3.15795 12.5504 2.88212 12.7284C2.82626 12.7718 2.78157 12.8281 2.75185 12.8926C2.72214 12.9571 2.70825 13.0278 2.71137 13.0988C2.81644 13.542 2.96089 13.9786 3.09223 14.4218L4.82595 13.8198V13.8132ZM34.3777 28.0616L32.5718 28.4056C32.7491 28.9811 32.9264 29.5632 33.1235 30.1916C33.5569 30.0461 33.9575 29.9204 34.3515 29.7682C34.4434 29.7285 34.5682 29.5896 34.5616 29.5102C34.5157 29.0274 34.4434 28.5511 34.3777 28.0616ZM34.8309 18.7148L36.2428 19.7997C37.3198 18.7545 37.3264 18.4767 36.2954 17.5572C36.2954 17.5572 36.2362 17.4778 36.2034 17.4778C36.1706 17.4778 35.9867 17.4779 35.9341 17.5176C35.5598 17.9012 35.2052 18.3047 34.8309 18.7148ZM11.091 33.7107L9.35067 34.2729C9.50171 34.7294 9.63304 35.1659 9.79065 35.5959C9.81446 35.6421 9.849 35.6819 9.89129 35.7118C9.93359 35.7418 9.98243 35.761 10.0337 35.7679C10.4999 35.7216 10.9596 35.6489 11.4259 35.5827C11.3011 34.8882 11.196 34.2597 11.091 33.7173V33.7107ZM3.71615 18.7082C3.51914 18.5164 3.33526 18.3245 3.14482 18.1526C2.95437 17.9806 2.58658 17.4911 2.3633 17.4911C2.14002 17.4911 1.81824 17.9607 1.55556 18.2253C1.51165 18.2584 1.47941 18.3047 1.46361 18.3576C1.46361 18.4635 1.39794 18.5958 1.46361 18.6685C1.71316 19.0588 1.98895 19.4359 2.2582 19.8261L3.74237 18.6884L3.71615 18.7082ZM13.3106 34.8286C13.0483 34.9371 12.8011 35.0795 12.5751 35.252C12.3256 35.4901 11.7214 35.2916 11.7936 35.834C11.8944 36.1973 12.0494 36.543 12.2533 36.8594C12.2697 36.8975 12.2944 36.9314 12.3256 36.9586C12.4109 36.9983 12.5094 37.071 12.5751 37.0512C13.0282 36.9189 13.4748 36.7667 13.8885 36.6278C13.6718 35.9663 13.4945 35.4372 13.2909 34.8286H13.3106ZM19.3983 2.41585L20.4884 3.92401L21.7296 2.52829C21.4669 2.27692 21.1386 1.93295 20.784 1.61543C20.733 1.58981 20.6768 1.57647 20.6198 1.57647C20.5628 1.57647 20.5066 1.58981 20.4556 1.61543C20.101 1.85357 19.766 2.11815 19.3983 2.38936V2.41585ZM22.0251 37.2959C22.4388 37.5076 22.8329 37.7325 23.24 37.9177C23.2939 37.9326 23.3506 37.9331 23.4048 37.9192C23.4589 37.9053 23.5085 37.8774 23.5487 37.8384C23.7869 37.5371 24.0062 37.2212 24.2054 36.8924C24.2318 36.8438 24.2457 36.7892 24.2457 36.7337C24.2457 36.6782 24.2318 36.6236 24.2054 36.5749C23.7654 36.2442 23.3122 35.9465 22.892 35.6422L22.0448 37.2959H22.0251ZM18.0192 35.973C17.8222 36.1846 17.6318 36.3765 17.4544 36.5815C17.2771 36.7866 16.7977 37.1372 16.8568 37.3621C16.9159 37.587 17.2902 37.8979 17.5135 38.1559C17.5529 38.2122 17.6077 38.2558 17.6711 38.2815C17.7828 38.2815 17.9272 38.3477 18.0061 38.2815C18.3804 38.0368 18.7285 37.759 19.0962 37.4812L17.9929 35.9597L18.0192 35.973ZM36.0195 17.0545C36.2362 16.6179 36.4333 16.2343 36.6106 15.844C36.6565 15.7514 36.6762 15.5728 36.6106 15.5331C36.2297 15.209 35.8291 14.9179 35.4416 14.6136L34.3843 16.1747C34.6798 16.3203 34.9425 16.4393 35.1986 16.5782C35.4547 16.7171 35.6912 16.8759 35.9998 17.0545H36.0195ZM3.0463 25.4686C2.90839 25.9316 2.77051 26.355 2.66544 26.7915C2.6559 26.8501 2.66046 26.9101 2.67874 26.9665C2.69703 27.0229 2.72845 27.0741 2.77045 27.1157C3.10954 27.3196 3.4604 27.5029 3.82117 27.6647C3.87324 27.6716 3.92626 27.6656 3.97548 27.6472C4.02471 27.6287 4.06867 27.5984 4.10359 27.5589C4.33343 27.0826 4.54358 26.5997 4.76029 26.0838L3.03315 25.4752L3.0463 25.4686ZM34.4303 12.0603C34.1348 12.6755 33.8787 13.2113 33.6226 13.7669L35.3497 14.3755C35.4876 13.9323 35.6321 13.4825 35.7503 13.0525C35.7537 12.9934 35.7429 12.9342 35.7189 12.8801C35.6949 12.826 35.6584 12.7786 35.6124 12.7416C35.2315 12.5101 34.8309 12.305 34.4303 12.0801V12.0603ZM4.12988 28.0351C4.07264 28.1971 4.0265 28.3629 3.99192 28.5313C3.76207 29.8542 3.79491 29.6426 4.81937 29.9932C4.92871 30.0454 5.04674 30.0769 5.16745 30.0858C5.25282 30.0858 5.39072 30.0196 5.41043 29.9468C5.58117 29.4243 5.72562 28.8885 5.87666 28.3725L4.12988 28.0351ZM5.3382 9.72525C4.8982 9.87077 4.51077 9.98984 4.12988 10.142C4.02481 10.1817 3.88691 10.3338 3.89348 10.4264C3.93288 10.9093 4.01819 11.3856 4.08387 11.8618L5.88981 11.5179C5.70593 10.9358 5.52864 10.3603 5.3382 9.72525ZM11.3602 4.35399C10.9136 4.28123 10.4933 4.19524 10.0468 4.15555C9.97833 4.15908 9.9117 4.17891 9.85233 4.21341C9.79297 4.24791 9.7426 4.29608 9.70531 4.35399C9.54114 4.76411 9.42291 5.19409 9.27844 5.64389L11.0122 6.21276C11.1172 5.63727 11.2223 5.04855 11.3471 4.35399H11.3602ZM24.56 3.26915C24.7833 3.93063 24.9672 4.49952 25.1576 5.06179L26.7994 4.22831C26.5892 3.80496 26.3922 3.39485 26.1427 2.99796C26.1063 2.95336 26.06 2.91809 26.0075 2.89508C25.9549 2.87208 25.8977 2.862 25.8406 2.86565C25.4071 2.98472 24.9803 3.13023 24.5271 3.26915H24.56ZM13.7638 3.26915C13.3369 3.13023 12.9035 2.9847 12.4503 2.85241C12.406 2.84459 12.3604 2.8471 12.3172 2.85972C12.2739 2.87233 12.2341 2.89469 12.2008 2.92516C11.9644 3.35513 11.7411 3.79171 11.5441 4.24813L13.1924 5.07499L13.7769 3.28901L13.7638 3.26915ZM19.0305 2.43567C18.0061 1.31776 17.7696 1.31117 16.8502 2.37616C16.8174 2.42246 16.7649 2.45554 16.7518 2.50846C16.7386 2.56138 16.7518 2.6672 16.7518 2.70028C17.1589 3.10378 17.5726 3.50067 17.9798 3.89094L19.0305 2.43567ZM2.39616 22.8359C2.17945 23.2658 1.98241 23.6627 1.79197 24.0662C1.79197 24.1456 1.746 24.3044 1.79197 24.3375C2.17286 24.6616 2.57347 24.9592 2.96092 25.2569L4.01821 23.7222L2.39616 22.8359ZM21.9923 2.62753L22.8329 4.28124L24.1463 3.36839C24.1463 3.36839 24.2317 3.29562 24.2251 3.28239C24.0833 2.96001 23.9187 2.64829 23.7326 2.34967C23.6078 2.1843 23.3385 1.95942 23.2137 2.00573C22.787 2.18094 22.3743 2.38881 21.9791 2.62753H21.9923ZM16.3906 37.2827C16.0819 36.6741 15.8061 36.1516 15.5368 35.6224L14.0396 36.7072C14.3285 37.1041 14.6109 37.5076 14.913 37.8979C14.954 37.9178 14.9988 37.9282 15.0443 37.9282C15.0898 37.9282 15.1347 37.9178 15.1757 37.8979C15.5828 37.6995 15.9769 37.4812 16.3906 37.2364V37.2827ZM2.15319 20.0378C1.8905 20.4149 1.62124 20.7588 1.39796 21.1359C1.37128 21.2083 1.36153 21.286 1.3695 21.3629C1.37747 21.4397 1.40293 21.5137 1.44389 21.579C1.66963 21.8594 1.92022 22.1184 2.19255 22.353C2.23868 22.3791 2.29068 22.3928 2.34358 22.3928C2.39648 22.3928 2.44855 22.3791 2.49469 22.353C2.87558 21.9627 3.23673 21.546 3.61106 21.1359L2.15319 20.018V20.0378ZM33.0184 9.67894C32.8214 10.3073 32.6506 10.8762 32.4667 11.4583L34.2399 11.7891C34.3055 11.5245 34.3712 11.2797 34.4171 11.035C34.5813 10.1949 34.5616 10.1618 33.7604 9.90386L33.0184 9.67894ZM2.92806 14.5806C2.54717 14.8716 2.15973 15.156 1.79854 15.4669C1.76919 15.5087 1.75025 15.5569 1.74339 15.6076C1.73653 15.6583 1.74199 15.7099 1.75918 15.758C1.94962 16.1747 2.15972 16.5848 2.3633 17.0016L3.97885 16.1218L2.92806 14.5806ZM16.3709 2.55473C15.9637 2.33644 15.5894 2.1314 15.2085 1.9528C15.1165 1.90649 14.9327 1.90649 14.8867 1.9528C14.5846 2.32323 14.3088 2.72013 14.0198 3.11702L15.5172 4.20844L16.3709 2.54153V2.55473ZM35.4154 25.1775C35.7962 24.8799 36.1706 24.602 36.5252 24.3044C36.5569 24.2638 36.5787 24.2165 36.589 24.1659C36.5993 24.1154 36.5977 24.0631 36.5843 24.0133C36.3939 23.5833 36.1772 23.1666 35.967 22.7499L34.3581 23.6297C34.693 24.1258 35.0148 24.6086 35.4154 25.1775ZM29.1241 5.72989C28.5002 5.94157 27.9683 6.12014 27.4364 6.31858C27.3773 6.31858 27.3248 6.4443 27.3116 6.51706C27.1606 7.35053 27.0095 8.19059 26.8847 8.92483L28.9993 7.75403C29.0327 7.73214 29.0606 7.7029 29.0811 7.66852C29.1016 7.63414 29.1141 7.59549 29.1176 7.55556C29.1176 6.99991 29.1176 6.43768 29.1176 5.72989H29.1241ZM30.8841 26.0573L32.1975 27.883C32.2566 27.9558 32.342 28.0484 32.4142 28.0484C33.0297 28.0772 33.6434 27.9618 34.207 27.711C33.9247 27.1686 33.6685 26.6659 33.3927 26.1698C33.3689 26.1372 33.3384 26.1103 33.3032 26.0909C33.2681 26.0715 33.2291 26.06 33.1891 26.0573H30.8512H30.8841ZM26.8782 4.46643L26.7468 4.34075C26.3003 4.57888 25.8537 4.83026 25.394 5.05516C25.1707 5.16762 25.1379 5.32638 25.1313 5.5579C25.1313 6.25907 25.0657 6.96024 25.0328 7.66142C25.0328 7.74741 25.0328 7.83339 25.0328 7.85323C25.6239 7.38358 26.228 6.92715 26.8059 6.44427C26.874 6.38586 26.9294 6.31411 26.969 6.23335C27.0085 6.1526 27.0312 6.06456 27.0358 5.97464C27.0358 5.47191 26.9241 4.96916 26.865 4.46643H26.8782ZM32.7754 30.132C32.69 29.7484 32.6244 29.4706 32.5521 29.1266C32.4142 28.5511 32.1647 28.1939 31.4883 28.1674C30.8858 28.0972 30.2918 27.9664 29.7151 27.7772C30.0763 28.4783 30.4638 29.2258 30.8644 29.9733C30.8907 30.017 30.9272 30.0537 30.9706 30.0802C31.0141 30.1067 31.0632 30.1222 31.1139 30.1255C31.6262 30.1255 32.1449 30.1255 32.7754 30.1255V30.132ZM8.51663 27.8168C7.81396 27.9491 7.01277 28.0947 6.21159 28.2534C6.13935 28.2534 6.02775 28.3063 6.00805 28.3593C5.72623 28.9065 5.56701 29.5095 5.54173 30.1255C6.1065 30.1255 6.63193 30.1255 7.16386 30.1255C7.21416 30.1183 7.26213 30.0996 7.30423 30.071C7.34633 30.0423 7.38144 30.0044 7.40684 29.9601C7.80086 29.2258 8.17515 28.4783 8.51663 27.8235V27.8168ZM26.8322 30.82C26.9635 31.541 27.108 32.348 27.2591 33.155C27.2591 33.2476 27.3116 33.3799 27.3707 33.4064C27.8913 33.7058 28.4788 33.8674 29.0782 33.8761C29.0782 33.3006 29.0782 32.7581 29.0782 32.2091C29.0689 32.1592 29.0496 32.1116 29.0213 32.0695C28.9931 32.0274 28.9566 31.9916 28.914 31.9644C28.1982 31.5609 27.4823 31.1706 26.8388 30.82H26.8322ZM19.1356 6.312C19.4574 5.65052 19.7923 4.92287 20.1469 4.19524C20.171 4.15368 20.1864 4.10754 20.1921 4.05975C20.1977 4.01195 20.1935 3.96349 20.1798 3.91739C19.8645 3.4345 19.5231 2.95826 19.1356 2.36954C18.735 2.95164 18.4132 3.41467 18.1046 3.89094C18.0851 3.93347 18.0751 3.97974 18.0751 4.02656C18.0751 4.07338 18.0851 4.11965 18.1046 4.16218C18.4526 4.90304 18.8138 5.6439 19.1356 6.312ZM9.8826 29.378C9.40749 29.6728 8.89193 29.8957 8.35246 30.0395C7.40023 30.1585 7.29521 30.7869 7.25581 31.5344C7.25581 31.6468 7.25581 31.7593 7.25581 31.8717C7.22297 32.1099 7.31488 32.2224 7.5513 32.1893C7.98472 32.1231 8.41815 32.0636 8.86471 31.971C8.92535 31.95 8.98078 31.9161 9.02724 31.8715C9.0737 31.827 9.11008 31.773 9.13394 31.713C9.40976 30.9391 9.67245 30.1585 9.922 29.4044L9.8826 29.378ZM10.0074 10.4264C9.81693 9.99645 9.63964 9.63262 9.49516 9.25558C9.35069 8.87853 9.27186 8.46844 9.14051 8.08478C9.12087 8.03031 9.09035 7.98048 9.05081 7.93838C9.01127 7.89628 8.96359 7.86281 8.91068 7.84003C8.44442 7.74742 7.96504 7.68127 7.49221 7.62835C7.41998 7.62835 7.26888 7.7408 7.27545 7.7871C7.29926 8.32018 7.38523 8.84859 7.53158 9.36144C7.59725 9.54665 8.03727 9.59296 8.30652 9.6988L8.54293 9.7848L10.0074 10.4463V10.4264ZM5.46293 9.64587C5.67308 10.3074 5.83726 10.8498 6.04084 11.379C6.04084 11.465 6.25756 11.5046 6.38234 11.5311C6.94054 11.6502 7.51192 11.7428 8.07012 11.8618C8.25581 11.9189 8.43781 11.9874 8.61516 12.0669C8.22113 11.2996 7.8468 10.5587 7.45277 9.82448C7.42606 9.78064 7.39075 9.74275 7.34896 9.71317C7.30717 9.6836 7.2598 9.66295 7.2098 9.65249C6.68443 9.65249 6.15248 9.65249 5.46293 9.65249V9.64587ZM9.22589 34.0613C9.8826 33.843 10.3883 33.6644 10.9202 33.4726C10.9793 33.4726 11.0253 33.3469 11.0384 33.2741C11.196 32.4406 11.3405 31.6071 11.4653 30.8729L9.34409 32.0437C9.31246 32.0653 9.28601 32.0937 9.26669 32.1269C9.24738 32.1601 9.23569 32.1973 9.23246 32.2356C9.23246 32.7979 9.23246 33.3535 9.23246 34.0613H9.22589ZM28.4477 10.4C28.9533 10.1151 29.4914 9.89298 30.0501 9.73849C30.8644 9.61942 31.0089 9.11008 31.0483 8.41552C31.0483 8.24353 31.0482 8.07815 31.0942 7.90616C31.1402 7.73418 31.0548 7.56879 30.8316 7.60186C30.385 7.6614 29.9384 7.72093 29.5181 7.80692C29.4619 7.82132 29.4094 7.84765 29.3641 7.88416C29.3188 7.92066 29.2817 7.96651 29.2554 8.0186C28.9796 8.81239 28.7235 9.60619 28.474 10.3603L28.4477 10.4ZM17.2115 33.1617L15.8981 35.1461C15.8324 35.2387 15.7339 35.3908 15.7667 35.4636C15.9966 36.006 16.2592 36.5352 16.5548 37.157L17.6974 35.9928C17.8879 35.801 17.8419 35.6092 17.7762 35.3777C17.5923 34.7691 17.4413 34.1605 17.2837 33.5519C17.2509 33.4197 17.2312 33.2873 17.2115 33.1683V33.1617ZM13.2712 31.9511L11.4784 33.3535C11.3996 33.4196 11.3011 33.5321 11.3076 33.6115C11.3536 34.187 11.4259 34.7624 11.4915 35.3445L11.6491 35.4239C12.1482 35.1461 12.6473 34.8749 13.1399 34.5905C13.1897 34.5439 13.2202 34.4801 13.2253 34.4119C13.2253 33.5586 13.2253 32.7118 13.2712 31.9511ZM11.6491 4.35399L11.4915 4.45323C11.4259 4.99565 11.3536 5.53142 11.3011 6.07384C11.301 6.1335 11.3132 6.19254 11.3369 6.2472C11.3606 6.30186 11.3954 6.35099 11.439 6.39138C12.0957 6.90072 12.7065 7.38359 13.2647 7.82017C13.2647 7.06607 13.2647 6.21936 13.2253 5.36604C13.2205 5.29958 13.1898 5.23776 13.1399 5.19409C12.6473 4.90965 12.1482 4.63181 11.6491 4.35399ZM30.9235 13.7405C31.6459 13.7405 32.4602 13.7405 33.2745 13.6875C33.3265 13.683 33.3768 13.6663 33.4212 13.6388C33.4657 13.6112 33.5032 13.5735 33.5306 13.5288C33.7539 13.1253 33.9509 12.7085 34.1873 12.2918C34.2924 12.0868 34.253 11.9346 34.0035 11.9015C33.5438 11.8354 33.0906 11.7626 32.6244 11.7163C32.5668 11.7206 32.5108 11.7369 32.4599 11.7642C32.409 11.7916 32.3644 11.8293 32.3288 11.8751C31.8494 12.5366 31.3766 13.198 30.9563 13.7405H30.9235ZM19.2144 33.3469C19.2144 33.3469 19.2144 33.3469 19.2144 33.3998C18.8992 34.1142 18.5577 34.8286 18.2819 35.5496C18.2334 35.6334 18.217 35.7323 18.2359 35.8275C18.5048 36.3885 18.8847 36.8882 19.3523 37.2959C19.6872 36.813 20.009 36.3765 20.2914 35.92C20.3159 35.8649 20.3285 35.8052 20.3285 35.7448C20.3285 35.6844 20.3159 35.6246 20.2914 35.5695C19.9499 34.8286 19.5953 34.0878 19.2341 33.3469H19.2144ZM32.9921 9.6128C32.3354 9.6128 31.8626 9.6128 31.3897 9.6128C31.1468 9.6128 31.0483 9.73187 30.9366 9.93693C30.6017 10.5984 30.2274 11.2004 29.8727 11.8288C29.8519 11.8715 29.8344 11.9157 29.8202 11.9611L32.1712 11.5046C32.2566 11.5046 32.3879 11.4451 32.4076 11.379C32.5981 10.8365 32.7754 10.2809 32.9921 9.61943V9.6128ZM2.53405 22.6374C3.15135 22.9483 3.65701 23.2063 4.16924 23.4511C4.20712 23.4608 4.24666 23.4622 4.28516 23.4554C4.32365 23.4485 4.3602 23.4335 4.3925 23.4114C5.0492 22.9351 5.70595 22.4456 6.31668 22.009C5.62057 21.7907 4.84563 21.546 4.06415 21.3145C4.01214 21.3042 3.95856 21.306 3.90734 21.3197C3.85613 21.3335 3.80867 21.3588 3.76866 21.3939C3.3812 21.7643 3.01344 22.1479 2.53405 22.6374ZM28.5593 29.464C28.7892 30.1651 29.0519 30.9655 29.3277 31.7527C29.3522 31.8056 29.3877 31.8525 29.432 31.8902C29.4762 31.9278 29.528 31.9554 29.5838 31.971C30.0107 32.057 30.4441 32.1231 30.8972 32.1893C31.1271 32.1893 31.2453 32.1165 31.2125 31.8784C31.1468 31.4286 31.0942 30.9788 31.0023 30.5554C30.9802 30.4888 30.9442 30.4277 30.8966 30.3763C30.849 30.3249 30.7909 30.2845 30.7265 30.2577C29.9844 29.9733 29.2423 29.7153 28.5791 29.4772L28.5593 29.464ZM21.9594 2.63415C21.4932 3.11703 21.1123 3.4742 20.7774 3.8777C20.7097 4.0498 20.7097 4.2414 20.7774 4.4135C20.9087 4.96915 21.086 5.51819 21.2371 6.07384C21.2831 6.26567 21.3093 6.46412 21.3356 6.62288C21.7887 5.96139 22.2353 5.29991 22.649 4.63842C22.6903 4.58714 22.7205 4.52764 22.7375 4.46381C22.7545 4.39998 22.7579 4.33325 22.7475 4.268C22.5308 3.75865 22.2812 3.26914 21.9791 2.64073L21.9594 2.63415ZM25.2233 31.9313C25.3361 32.4322 25.3737 32.9472 25.3349 33.4593C25.1116 34.5309 25.683 34.9344 26.4842 35.2321L26.6746 35.3181C26.9044 35.4372 27.0358 35.3512 27.0752 35.0932C27.1343 34.65 27.2065 34.2002 27.2393 33.7702C27.2371 33.6978 27.2195 33.6267 27.1878 33.5617C27.1561 33.4967 27.111 33.4393 27.0555 33.3932C26.4513 32.8971 25.834 32.4208 25.2233 31.9445V31.9313ZM9.36381 5.78278C9.36381 6.49057 9.36381 7.02637 9.36381 7.55556C9.37246 7.61435 9.3933 7.67066 9.42498 7.72081C9.45666 7.77095 9.49845 7.81382 9.54767 7.84661C10.2569 8.25012 10.9727 8.6338 11.6885 9.03069C11.6885 9.03069 11.6885 9.03068 11.6885 8.97776C11.5178 8.19721 11.3471 7.41668 11.1698 6.64274C11.1698 6.55014 11.1172 6.41122 11.0516 6.39138C10.5262 6.18632 9.98766 6.00769 9.34409 5.78278H9.36381ZM4.33999 11.9478L4.24147 12.1066C4.51072 12.6225 4.77339 13.1385 5.0492 13.6478C5.09256 13.6982 5.15398 13.7291 5.21995 13.7338L7.6038 13.7802C7.17694 13.1914 6.69754 12.5233 6.19844 11.8618C6.16287 11.8228 6.11901 11.7924 6.0701 11.773C6.02119 11.7535 5.96855 11.7454 5.9161 11.7494C5.39074 11.8023 4.86536 11.8817 4.33999 11.9478ZM7.62352 26.011C7.62352 26.011 7.62355 26.011 7.57102 26.011L5.28569 26.1301C5.20688 26.1301 5.08205 26.1301 5.05578 26.183C4.76026 26.7122 4.48449 27.248 4.20211 27.7838L4.30063 27.9293C4.83913 27.9955 5.37761 28.0748 5.92268 28.1278C5.97529 28.1244 6.02653 28.1096 6.07298 28.0845C6.11944 28.0594 6.16005 28.0245 6.19195 27.9822C6.67791 27.3207 7.15069 26.6592 7.62352 25.9978V26.011ZM6.21816 19.879C6.21816 19.879 6.2182 19.879 6.17223 19.8393C5.51552 19.5218 4.80628 19.1779 4.12331 18.9C4.0248 18.8537 3.88684 18.7942 3.82117 18.8339C3.34177 19.1646 2.87556 19.4954 2.31079 19.9187C2.86899 20.3288 3.2958 20.653 3.73579 20.9572C3.78943 20.9817 3.84765 20.9944 3.90654 20.9944C3.96543 20.9944 4.02365 20.9817 4.07729 20.9572C4.79967 20.6 5.50892 20.2296 6.21816 19.8724V19.879ZM21.283 33.208C21.2641 33.2233 21.2504 33.2441 21.2436 33.2675C21.0466 34.015 20.8496 34.7558 20.6723 35.5099C20.6529 35.5797 20.6482 35.6528 20.6583 35.7245C20.6685 35.7963 20.6934 35.8651 20.7314 35.9267C21.0795 36.3302 21.4603 36.7072 21.9135 37.1769C22.1959 36.6146 22.4191 36.1516 22.649 35.6952C22.6986 35.6056 22.7177 35.5022 22.7035 35.4007C22.6893 35.2991 22.6424 35.2051 22.5702 35.1329C22.1236 34.5111 21.7165 33.8628 21.2568 33.208H21.283ZM36.0852 17.3323L35.2512 16.8031C34.7258 16.479 34.2136 16.3268 33.7604 16.942C33.6872 17.0255 33.5978 17.093 33.4978 17.1405L32.2697 17.8946C33.0315 18.1327 33.7933 18.3708 34.5616 18.5957C34.6189 18.6102 34.6785 18.6119 34.7364 18.6004C34.7943 18.589 34.849 18.5648 34.8966 18.5296C35.284 18.1592 35.6518 17.7755 36.0852 17.3323ZM36.1312 22.7697C35.6518 22.2802 35.2906 21.8833 34.89 21.5327C34.7915 21.4467 34.5616 21.4732 34.404 21.5327C33.9181 21.665 33.4452 21.8437 32.9593 21.9826C32.7255 22.0382 32.4887 22.0802 32.25 22.1082L34.2201 23.5106C34.2924 23.5635 34.4106 23.6429 34.4697 23.6164C34.9951 23.3651 35.5073 23.1005 36.1378 22.7896L36.1312 22.7697ZM2.75073 17.2596C2.71133 17.3522 2.67198 17.4514 2.63914 17.544C3.02003 17.8615 3.39436 18.2055 3.79495 18.4899C3.96294 18.584 4.16019 18.61 4.34656 18.5627C4.9179 18.4238 5.47607 18.2386 6.04084 18.0732C6.18976 18.0341 6.3412 18.0054 6.49401 17.9872C5.8373 17.5043 5.18059 17.0346 4.52389 16.5716C4.48156 16.5412 4.43357 16.5196 4.3828 16.5083C4.33203 16.4969 4.27947 16.496 4.22832 16.5055C3.72922 16.7436 3.23676 17.0016 2.73766 17.2596H2.75073ZM36.3479 19.9783C35.872 19.5816 35.3597 19.2317 34.8178 18.9331C34.6208 18.8471 34.2595 19.1779 33.964 19.3035C33.4452 19.5351 32.9199 19.7533 32.4602 19.965C33.1497 20.3222 33.8721 20.6993 34.601 21.0631C34.6433 21.0827 34.6892 21.0928 34.7357 21.0928C34.7822 21.0928 34.8281 21.0827 34.8703 21.0631C35.33 20.7456 35.7765 20.4016 36.3479 19.9981V19.9783ZM17.3625 6.70888C17.3816 6.69672 17.3957 6.67787 17.4019 6.65595C17.5989 5.88862 17.8025 5.13456 17.9864 4.36723C18.0158 4.23563 17.9921 4.09764 17.9207 3.98356C17.5661 3.58667 17.1852 3.20962 16.732 2.73997C16.4562 3.289 16.2395 3.7388 16.0097 4.182C15.954 4.27626 15.9308 4.38646 15.9439 4.49538C15.9569 4.6043 16.0055 4.7058 16.0819 4.78397C16.5285 5.40577 16.9291 6.05401 17.3953 6.70888H17.3625ZM23.4567 7.14544C23.9558 6.60964 24.5272 6.00109 25.0854 5.39253C25.1139 5.3641 25.1362 5.33002 25.1509 5.29244C25.1656 5.25486 25.1723 5.21459 25.1707 5.17423C25.0946 4.5525 24.8863 3.9546 24.56 3.42128C24.1135 3.77186 23.6931 4.08277 23.2925 4.42012C23.2032 4.50223 23.1491 4.6161 23.1415 4.73766C23.24 5.57114 23.3582 6.39796 23.4567 7.14544ZM35.481 14.5938L34.01 14.091C33.9073 14.0524 33.7947 14.0504 33.6907 14.0853C33.5867 14.1202 33.4978 14.19 33.4387 14.2829C33.0972 14.6599 32.7229 15.0171 32.3485 15.3677C32.1386 15.5428 31.9194 15.7062 31.6918 15.8572C32.3228 15.848 32.9528 15.9101 33.57 16.0424C33.7019 16.0949 33.8428 16.1205 33.9846 16.118C34.1264 16.1154 34.2663 16.0847 34.3963 16.0275C34.5262 15.9704 34.6437 15.8879 34.742 15.7849C34.8402 15.6819 34.9173 15.5603 34.9688 15.4272L35.4548 14.5938H35.481ZM24.6191 36.6543C24.8227 35.9928 25.0066 35.4769 25.1248 34.9477C25.1248 34.8154 25.0328 34.6169 24.9278 34.4912C24.5534 34.0679 24.1529 33.6644 23.7785 33.2344C23.6542 33.0851 23.5422 32.9258 23.4436 32.7582C23.332 33.5982 23.2138 34.4317 23.1153 35.2652C23.1143 35.3177 23.1236 35.3698 23.1428 35.4187C23.162 35.4675 23.1905 35.512 23.2269 35.5496C23.6537 35.9002 24.0872 36.2111 24.6191 36.6543ZM14.1118 36.5948L14.8145 36.1516C15.3858 35.801 15.7864 35.4372 15.5303 34.6103C15.4054 34.0237 15.3502 33.4241 15.3661 32.8243C14.8276 33.4064 14.2563 34.0084 13.6981 34.6169C13.6369 34.6882 13.6063 34.7809 13.6127 34.8749C13.7637 35.4306 13.9279 35.973 14.1118 36.5948ZM6.88802 15.8241L5.21338 14.177C5.16085 14.1175 5.07552 14.0513 5.01642 14.058C4.39348 14.1405 3.79789 14.3669 3.27613 14.7194C3.62418 15.1891 3.93282 15.6191 4.24804 16.0424C4.28506 16.0893 4.33198 16.1272 4.38536 16.1535C4.43875 16.1798 4.49724 16.1939 4.55667 16.1946C5.36442 16.0954 6.16564 15.9763 6.88802 15.8704V15.8241ZM35.4942 25.462C35.0739 24.8931 34.7521 24.4367 34.3975 24.0001C34.3318 23.9207 34.1545 23.9141 34.0297 23.9273C33.373 23.9868 32.6769 24.0662 31.9939 24.139C31.9108 24.1448 31.8275 24.1448 31.7444 24.139C32.3354 24.7277 32.9199 25.3098 33.5109 25.8853C33.5441 25.9187 33.5844 25.9438 33.6289 25.9588C33.6733 25.9737 33.7206 25.978 33.767 25.9713C34.2989 25.8258 34.8309 25.6538 35.4942 25.4488V25.462ZM3.2039 25.4488C3.86061 25.6538 4.40568 25.839 4.93762 25.9713C5.04269 25.9713 5.20026 25.8655 5.30533 25.7729C5.72562 25.3694 6.1328 24.9526 6.55309 24.5557C6.69107 24.4391 6.83582 24.3309 6.98654 24.2316C6.17222 24.1125 5.36442 23.9935 4.55667 23.8876C4.51749 23.8835 4.4779 23.8878 4.44052 23.9004C4.40313 23.9129 4.36886 23.9334 4.33999 23.9604C3.98537 24.4102 3.63733 24.8733 3.2039 25.4488ZM15.3858 7.33067C15.3858 6.94701 15.3858 6.62289 15.3858 6.29876C15.3719 5.97508 15.4095 5.65125 15.4974 5.3396C15.7732 4.67811 15.4581 4.34737 14.9918 4.01663C14.9672 4.00275 14.9449 3.98486 14.9261 3.9637C14.1446 3.37498 14.1249 3.3816 13.79 4.30768C13.5733 4.88317 13.4682 5.37268 14.0921 5.84233C14.5792 6.2847 15.0194 6.77682 15.4055 7.31081L15.3858 7.33067ZM32.2566 11.8618C30.1354 11.6502 27.1934 13.9587 26.8191 15.3346C28.6513 15.4669 31.6721 13.6478 32.2566 11.8618ZM23.9164 12.3381C25.4531 11.8486 27.6334 8.50811 27.2328 6.74194C25.5056 7.40343 23.7916 10.486 23.9164 12.3381ZM14.8276 27.6713C13.1596 28.3857 11.1763 31.4881 11.4915 33.3006C13.2055 32.7052 14.9524 29.5963 14.8276 27.6713ZM29.1898 31.885C29.1898 29.9005 26.563 27.0958 25.0525 26.904C25.1051 28.5908 27.3379 31.5344 29.1898 31.885ZM25.1707 5.61741C23.3517 6.62287 22.1762 10.5852 22.7541 11.7031C24.2711 10.7241 25.6633 7.49603 25.1707 5.61741ZM11.9315 15.3346C11.4587 13.7934 8.32623 11.5509 6.50058 11.9015C7.11132 13.7008 10.1847 15.5 11.9315 15.3346ZM26.0047 25.8721C26.4185 27.6912 29.0584 30.1321 30.8644 30.1585C30.582 28.3064 27.7778 25.9845 26.0047 25.8721ZM12.7393 25.8721C11.1501 25.8721 8.09639 28.3196 7.90594 30.1453C9.79726 30.0725 12.3978 27.5787 12.7393 25.8721ZM11.485 6.68901C11.2288 8.74623 13.3632 11.8089 14.821 12.3116C14.9984 10.5719 13.2909 7.37034 11.485 6.68901ZM32.2435 28.1344C31.7115 26.3418 28.52 24.483 26.8125 24.6947C27.3641 26.2558 30.3456 28.4122 32.2435 28.1344ZM12.7261 14.1373C12.4766 12.4836 9.71187 9.84429 7.88622 9.87075C8.22114 11.7758 11.0515 14.0712 12.7261 14.1373ZM23.9361 27.6647C23.7457 29.497 25.6304 32.7978 27.2787 33.2543C27.5217 31.2235 25.394 28.1807 23.9361 27.6647ZM29.1898 8.12446C27.1474 8.51474 24.908 11.8023 25.0657 13.1517C26.8388 12.6688 29.0847 10.0692 29.1898 8.12446ZM27.397 16.5584C29.0256 17.0214 32.4799 15.7117 33.3073 14.0381C31.659 13.4494 28.3689 14.9179 27.397 16.5584ZM25.9785 14.144C27.8435 14.0381 30.7068 11.498 30.825 9.84431C28.9337 9.98322 26.4513 12.2918 25.9785 14.144ZM11.9841 24.6814C10.0139 24.5822 7.03904 26.4476 6.53994 28.141C8.47723 28.4122 11.4324 26.2491 11.9841 24.6814ZM13.7309 26.8379C11.9315 27.2546 9.528 30.1453 9.61994 31.8585C11.5901 31.4352 13.7572 28.3791 13.7309 26.8379ZM13.6324 5.60421C13.0348 7.50928 14.7816 11.1077 16.0951 11.6501C16.5416 9.94352 15.1954 6.3583 13.6324 5.60421ZM13.7375 13.1451C13.7375 11.3723 11.2814 8.32952 9.58707 8.16415C9.69214 10.2148 12.2139 12.8541 13.7375 13.1451ZM25.2167 34.4119C25.7158 32.2753 24.0281 28.9414 22.7344 28.3328C22.2812 29.9402 23.5487 33.5321 25.2167 34.4119ZM34.1151 16.3533C32.2697 15.4603 28.7892 16.6576 27.9092 17.888C29.2752 18.609 32.8739 17.9806 34.1151 16.3533ZM5.417 14.0249C6.26415 15.8175 10.0139 17.1008 11.3274 16.5584C10.4736 15.0767 7.38712 13.5486 5.417 14.0249ZM27.8501 22.1016C28.8089 23.3849 32.2829 24.5557 34.056 23.6694C33.0906 22.2075 29.6232 21.3806 27.8501 22.1016ZM22.9182 4.84348C21.2896 6.11353 20.7117 10.0825 21.4538 11.2599C22.7146 10.1089 23.7326 6.7221 22.9182 4.84348ZM5.417 26.011C7.53159 26.527 10.7954 24.688 11.3274 23.4378C9.70529 22.9814 6.23788 24.3308 5.417 26.011ZM20.5607 4.47968C19.2801 5.86879 19.0962 9.48712 20.0681 11.0945C21.2896 9.59957 21.5917 5.94817 20.5607 4.47968ZM4.67492 16.3864C5.85699 18.0335 9.63307 18.6685 10.8874 17.9144C9.90232 16.6775 6.5925 15.5331 4.67492 16.3864ZM10.7166 20.7588C9.23247 19.7666 5.70593 19.9121 4.32684 21.2549C5.64026 22.2935 9.1668 22.0619 10.7166 20.7588ZM13.6061 34.4516C15.3924 33.413 16.535 29.669 16.0359 28.3725C14.5649 29.1994 13.0413 32.6391 13.6061 34.4516ZM17.3231 28.7694C16.0097 30.0527 15.0377 33.3998 15.8324 35.1792C17.3099 34.2134 18.0717 30.3305 17.3231 28.7694ZM18.6825 11.0945C19.6347 9.63264 19.5165 5.94817 18.2031 4.47968C17.1983 5.80265 17.415 9.44743 18.6825 11.0945ZM17.3362 11.2797C18.0652 9.81784 17.3362 5.94817 15.8389 4.89641C14.9918 6.72873 16.0951 10.2941 17.3362 11.2797ZM20.5344 35.6025C21.5589 34.22 21.3356 30.5951 20.0681 28.9877C19.1881 30.39 19.1685 33.8562 20.5344 35.6025ZM10.7166 19.3234C8.98292 17.9343 5.32504 17.8417 4.33342 18.8736C5.97518 20.2495 9.34411 20.2362 10.7166 19.3234ZM34.45 18.8207C32.9856 17.7887 29.6429 18.0467 28.0471 19.3168C29.3605 20.2627 32.9396 20.2362 34.45 18.8207ZM27.4232 23.4841C28.4149 25.1511 31.7641 26.5865 33.3336 25.9978C32.4668 24.2713 28.9205 22.9946 27.4232 23.4841ZM18.6825 28.9744C17.3297 30.8068 17.2574 34.4582 18.2294 35.5893C19.5428 34.0282 19.6084 30.4959 18.6825 28.9744ZM22.9117 35.1858C23.8179 33.3006 22.5308 29.5169 21.3881 28.8091C20.7314 30.5686 21.4801 34.1605 22.9117 35.1858ZM4.67492 23.7157C6.80265 24.6087 10.2635 23.1931 10.8808 22.1281C9.29157 21.4071 5.73222 22.1744 4.67492 23.7157ZM34.4566 21.2682C32.9724 19.8658 29.3999 19.7997 28.0537 20.7654C29.5115 21.9892 32.9002 22.3265 34.4566 21.2682ZM19.4311 13.4891C18.5872 13.4917 17.7521 13.6621 16.9737 13.9906C16.1954 14.3191 15.489 14.7993 14.8954 15.4034C14.3017 16.0076 13.8323 16.7239 13.5141 17.5112C13.196 18.2986 13.0353 19.1415 13.0414 19.9915C13.0151 20.844 13.1579 21.6933 13.4613 22.4896C13.7647 23.2859 14.2227 24.0132 14.8085 24.6291C15.3943 25.245 16.0961 25.7371 16.8729 26.0766C17.6497 26.4161 18.4859 26.5962 19.3326 26.6064C20.1765 26.6108 21.0129 26.4458 21.7928 26.1209C22.5727 25.7961 23.2805 25.3179 23.8748 24.7144C24.4691 24.1108 24.938 23.394 25.2541 22.6058C25.5702 21.8176 25.7271 20.9738 25.7158 20.1238C25.7358 19.2734 25.589 18.4274 25.2838 17.6343C24.9785 16.8412 24.5209 16.1165 23.937 15.502C23.3531 14.8874 22.6545 14.3951 21.8813 14.053C21.1081 13.711 20.2754 13.5261 19.4311 13.5089V13.4891ZM21.4603 39.9683C18.9421 40.2702 16.3893 40.0497 13.9588 39.3205C11.5284 38.5913 9.27183 37.3688 7.32804 35.7282C5.2669 34.0758 3.56289 32.0164 2.32065 29.6765C1.07841 27.3367 0.324178 24.7657 0.104265 22.1215C-0.192679 19.561 0.0140211 16.9667 0.712632 14.4868C1.41124 12.0068 2.58805 9.6898 4.17581 7.66804C5.72678 5.56982 7.69669 3.82193 9.95875 2.53685C12.2208 1.25176 14.7249 0.45792 17.3099 0.206468C19.82 -0.106239 22.367 0.106 24.7919 0.82988C27.2168 1.55376 29.4674 2.77371 31.4029 4.4135C33.4653 6.07205 35.1697 8.13731 36.4119 10.4827C37.654 12.8281 38.4077 15.4043 38.6267 18.0534C38.947 21.1935 38.5308 24.3656 37.4117 27.3141C36.0414 31.0269 33.5871 34.2347 30.3719 36.5154C27.7479 38.3929 24.6876 39.5571 21.4866 39.8956" fill="#040505"/>
<path d="M24.6095 19.9779C24.6199 20.6795 24.4917 21.3762 24.2324 22.0274C23.9731 22.6786 23.5877 23.2714 23.0988 23.7712C22.61 24.2711 22.0273 24.668 21.3847 24.9389C20.7421 25.2098 20.0524 25.3492 19.3558 25.3492C18.6592 25.3492 17.9696 25.2098 17.327 24.9389C16.6844 24.668 16.1017 24.2711 15.6128 23.7712C15.1239 23.2714 14.7386 22.6786 14.4792 22.0274C14.2199 21.3762 14.0917 20.6795 14.1022 19.9779C14.0926 19.2769 14.2214 18.5809 14.4812 17.9304C14.7409 17.28 15.1264 16.688 15.6152 16.1889C16.104 15.6897 16.6864 15.2934 17.3285 15.023C17.9707 14.7525 18.6598 14.6132 19.3558 14.6133C20.0518 14.6132 20.741 14.7525 21.3831 15.023C22.0253 15.2934 22.6077 15.6897 23.0965 16.1889C23.5853 16.688 23.9707 17.28 24.2305 17.9304C24.4902 18.5809 24.619 19.2769 24.6095 19.9779Z" fill="#040505"/>
</g>
<defs>
<clipPath id="clip0_242_222">
<rect width="160" height="40" fill="white"/>
</clipPath>
</defs>
</svg>
