<svg width="289" height="472" viewBox="0 0 289 472" fill="none" xmlns="http://www.w3.org/2000/svg">
<g opacity="0.6">
<path d="M251.761 87.4573L252.101 88.0013L54.7426 215.253C44.7037 221.642 36.5468 230.588 31.1099 241.173C25.6731 251.757 23.1525 263.599 23.807 275.48C24.3109 287.376 27.9742 298.923 34.4203 308.933C40.8663 318.943 49.8625 327.056 60.4835 332.437L269.365 439.729C279.926 445.226 291.76 447.811 303.651 447.22C315.542 446.629 327.061 442.882 337.025 436.364C347.064 429.976 355.221 421.03 360.658 410.445C366.095 399.86 368.615 388.019 367.961 376.137L356.429 141.589C355.924 129.692 352.259 118.144 345.811 108.133C339.364 98.1215 330.366 90.0082 319.743 84.6273C309.183 79.1309 297.35 76.5458 285.46 77.1379C273.571 77.7301 262.053 81.478 252.092 87.9965L251.761 87.4573Z" stroke="#ECC916" stroke-miterlimit="10"/>
<path d="M323.548 96.6113C305.791 87.4903 284.782 88.0395 266.331 98.312L73.9618 205.577C63.7636 211.193 55.2209 219.392 49.19 229.35C43.1591 239.309 39.8519 250.678 39.6 262.317C39.0489 284.262 49.326 304.049 67.1832 315.294L246.048 427.871C263.919 439.111 286.236 439.865 305.779 429.856C316.165 424.596 324.986 416.698 331.357 406.953C337.728 397.209 341.424 385.96 342.075 374.336L355.561 154.532C356.965 131.644 346.689 110.975 328.064 99.2525C326.563 98.2552 325.066 97.3907 323.548 96.6113Z" stroke="#ECC916" stroke-miterlimit="10"/>
<path d="M326.492 108.413C311.986 100.962 294.495 100.971 278.175 108.765L92.4319 197.564C82.2378 202.496 73.4683 209.944 66.9503 219.205C60.4324 228.466 56.3809 239.234 55.178 250.495C53.0943 270.437 60.34 288.334 75.0503 299.607L226.111 415.317C240.708 426.508 259.587 428.784 277.92 421.571C288.491 417.338 297.798 410.46 304.946 401.595C312.094 392.73 316.844 382.177 318.74 370.948L353.427 166.453C357.063 144.997 349.703 125.005 333.815 113.009C331.51 111.271 329.06 109.733 326.492 108.413V108.413Z" stroke="#ECC916" stroke-miterlimit="10"/>
<path d="M287.649 118.659L287.879 119.254L110.024 191.234C99.8835 195.436 90.9523 202.102 84.0407 210.629C77.1292 219.157 72.4561 229.275 70.4454 240.065C67.1427 257.928 72.0051 274.482 83.7851 285.476L209.222 402.534C220.725 413.278 236.857 416.728 253.408 412.126C274.674 406.135 291.664 388.667 297.822 366.589L350.245 177.565C355.808 157.457 351.037 138.222 337.449 126.109C324.467 114.533 305.942 111.986 287.855 119.301L287.649 118.659Z" stroke="#ECC916" stroke-miterlimit="10"/>
<path d="M295.432 129.018L295.634 129.622L126.65 186.349C106.816 193.005 90.9928 210.059 85.3695 230.84C81.0299 246.872 83.8731 262.162 93.1784 272.802L195.218 389.539C204.093 399.696 217.571 403.999 232.318 401.448C252.824 397.818 271.283 382.011 279.329 361.152L346.269 187.649C353.539 168.858 350.953 150.401 339.374 138.295C328.78 127.219 312.423 123.975 295.629 129.607L295.432 129.018Z" stroke="#ECC916" stroke-miterlimit="10"/>
<path d="M301.447 139.146L301.616 139.769L142.292 182.792C123.513 187.858 106.894 203.539 99.9377 222.741C94.7202 237.142 95.8507 251.291 103.037 261.534L183.836 376.652C190.612 386.303 201.455 391.05 214.55 390.046C234.219 388.558 253.271 374.818 263.106 355.022L341.665 196.885C350.254 179.606 349.579 161.534 339.898 149.724C331.245 139.157 317.3 135.532 301.673 139.75L301.447 139.146Z" stroke="#ECC916" stroke-miterlimit="10"/>
<path d="M305.873 148.974L306.004 149.601L156.793 180.357C139.011 184.016 122.213 197.866 114.001 215.637C108.013 228.618 107.671 241.713 113.076 251.553L174.746 363.885C179.671 372.847 188.559 377.925 199.777 378.184C217.956 378.623 237.652 366.667 248.86 348.35L336.401 205.262C346.238 189.195 347.273 171.99 339.111 160.377C332.227 150.587 320.172 146.67 305.985 149.591L305.873 148.974Z" stroke="#ECC916" stroke-miterlimit="10"/>
<path d="M328.261 161.642C322.973 158.926 316.387 157.996 309.016 159.058L170.277 178.981C153.689 181.36 136.996 193.357 127.74 209.544C121.045 221.257 119.425 233.409 123.308 242.872L167.873 351.445C171.28 359.747 178.441 364.962 188.034 366.137C204.759 368.176 224.288 358.171 236.716 341.279L330.88 212.779C341.766 197.917 344.327 181.568 337.479 170.248C335.279 166.568 332.083 163.584 328.261 161.642V161.642Z" stroke="#ECC916" stroke-miterlimit="10"/>
<path d="M310.734 168.053L182.67 178.509C167.416 179.751 151.071 189.914 141.004 204.41C133.634 215.002 130.938 226.327 133.427 235.396L162.843 339.463C165.016 347.131 170.693 352.358 178.843 354.162C193.711 357.451 213.216 349.185 226.319 333.973L325.027 219.492C336.617 206.041 340.532 190.303 335.016 179.358C330.877 171.252 322.036 167.128 310.734 168.053Z" stroke="#ECC916" stroke-miterlimit="10"/>
<path d="M311.403 175.913L311.41 176.571L193.929 178.717C180.15 178.965 164.369 187.357 153.767 200.065C145.778 209.636 142.005 220.158 143.44 228.96L159.544 327.917C159.984 331.288 161.404 334.456 163.628 337.027C165.852 339.599 168.782 341.461 172.054 342.383C185.253 346.649 204.014 340.11 217.672 326.506L319.05 225.38C331.315 213.097 336.399 198.353 331.907 187.779C328.775 180.38 321.492 176.401 311.438 176.61L311.403 175.913Z" stroke="#ECC916" stroke-miterlimit="10"/>
<path d="M320.832 186.914C317.805 185.441 314.498 184.636 311.133 184.553L204.144 179.628C191.683 179.052 177.078 185.57 166.03 196.644C157.439 205.251 152.746 215.062 153.16 223.553L157.676 316.963C158.002 323.634 161.29 328.48 167.271 331.052C178.813 335.992 196.614 331.044 210.554 319.002L313.032 230.484C325.666 219.57 331.833 205.477 328.312 195.449C327.048 191.725 324.358 188.655 320.832 186.914V186.914Z" stroke="#ECC916" stroke-miterlimit="10"/>
<path d="M310.14 191.359L310.062 191.997L213.351 181.071C202.423 179.829 188.796 184.814 177.754 194.067C168.619 201.74 163.08 210.854 162.526 219.075L157.097 306.591C156.717 312.78 159.183 317.489 164.238 320.217C174.212 325.566 190.889 321.994 204.826 311.559L306.97 234.96C319.971 225.211 326.927 212.155 324.298 202.454C322.689 196.565 317.621 192.842 310.024 191.978L310.14 191.359Z" stroke="#ECC916" stroke-miterlimit="10"/>
<path d="M313.618 200.635C311.949 199.8 310.167 199.214 308.329 198.895L221.582 182.926C212.147 181.188 199.63 184.754 188.867 192.328C179.374 198.959 172.901 207.618 171.57 215.474L157.686 296.932C156.709 302.66 158.466 307.195 162.776 310.029C171.255 315.575 186.739 313.236 200.436 304.358L301.071 238.836C314.062 230.381 321.864 218.069 320.015 208.912C319.668 207.129 318.908 205.452 317.797 204.015C316.687 202.578 315.255 201.42 313.618 200.635V200.635Z" stroke="#ECC916" stroke-miterlimit="10"/>
<path d="M306.196 204.601L306.028 205.23L228.807 185.208C211.979 180.865 184.659 196.23 180.107 212.606L159.182 287.873C157.693 293.208 158.859 297.547 162.538 300.425C169.662 306.014 183.907 304.695 197.177 297.228L295.326 241.996C308.376 234.655 316.692 223.406 315.555 214.65C314.933 209.947 311.642 206.684 306.085 205.259L306.196 204.601Z" stroke="#ECC916" stroke-miterlimit="10"/>
<path d="M303.511 210.407L303.305 211.016L235.166 187.762C220.332 182.691 193.982 195.447 188.165 210.482L161.46 279.564C159.539 284.533 160.186 288.677 163.325 291.564C169.284 297.008 182.264 296.599 194.921 290.486L289.766 244.658C302.723 238.401 311.421 228.193 310.944 219.8C310.695 215.646 308.041 212.58 303.329 210.969L303.511 210.407Z" stroke="#ECC916" stroke-miterlimit="10"/>
<path d="M301.095 216.668L300.238 216.228L240.698 190.47C227.765 184.875 202.527 195.211 195.72 208.927L164.395 271.884C162.108 276.475 162.316 280.43 164.991 283.316C169.9 288.601 181.659 288.876 193.592 283.987L284.462 246.778C298.656 240.966 306.146 231.139 306.209 224.453C306.232 221.093 304.469 218.401 301.095 216.668Z" stroke="#ECC916" stroke-miterlimit="10"/>
<path d="M245.214 193.266C233.961 187.486 210.263 195.635 202.722 207.951L167.827 264.917C165.261 269.102 165.077 272.962 167.326 275.773C171.346 280.792 181.909 281.656 193.021 277.881L279.388 248.486C293.196 243.797 300.946 234.925 301.507 228.614C301.77 225.366 300.183 222.704 296.932 220.963L245.474 193.34L245.214 193.266Z" stroke="#ECC916" stroke-miterlimit="10"/>
<path d="M248.321 195.73C238.284 190.575 217.043 196.746 209.179 207.465L171.65 258.612C168.817 262.481 168.313 266.13 170.221 268.908C172.946 272.881 181.102 275.438 193.122 272.143L274.613 249.783C287.765 246.187 295.829 238.048 296.726 232.243C296.959 230.857 296.759 229.432 296.153 228.164C295.546 226.895 294.564 225.845 293.339 225.155L249.376 196.344C249.035 196.122 248.683 195.917 248.321 195.73V195.73Z" stroke="#ECC916" stroke-miterlimit="10"/>
<path d="M250.94 198.22C241.967 193.611 223.047 198.187 215.105 207.366L175.799 252.906C172.784 256.456 171.955 259.902 173.57 262.625C175.753 266.331 182.865 269.043 193.841 266.736L270.179 250.676C282.695 248.039 290.824 240.839 292.111 235.389C292.427 234.184 292.37 232.912 291.946 231.741C291.522 230.57 290.751 229.556 289.737 228.833L252.724 199.315C252.169 198.89 251.571 198.523 250.94 198.22V198.22Z" stroke="#ECC916" stroke-miterlimit="10"/>
</g>
</svg>
