<svg width="490" height="490" viewBox="0 0 490 490" fill="none" xmlns="http://www.w3.org/2000/svg">
<g opacity="0.6">
<path d="M22.0644 179.721L178.816 467.537L466.445 310.973L309.693 23.157L22.0644 179.721ZM178.348 469.225V468.662L20.6582 179.252L310.631 21.2812V21.8443L468.133 310.973L178.348 469.225Z" fill="#8AC186"/>
<path d="M24.5002 318.847L318.035 464.631L463.912 171.189L170.377 25.313L24.5002 318.847ZM318.598 466.318L22.8125 319.317V318.847L169.533 23.625L465.506 170.346V170.909L318.598 466.318Z" fill="#8AC186"/>
<path d="M57.6893 107.346L106.534 431.444L430.632 382.6L381.787 58.5011L57.6893 107.346ZM105.503 432.85V432.287L56.377 106.315L382.912 57.0957V57.6576L432.038 383.631L105.503 432.85Z" fill="#8AC186"/>
<path d="M12.6875 239.253L238.628 476.632L476.1 250.69L250.159 13.3127L12.6875 239.253ZM238.534 478.412L11.2812 239.628L250.534 12H251.003L478.162 250.784L238.534 478.412Z" fill="#8AC186"/>
<path d="M51.127 373.13L372.318 438.1L437.288 116.814L115.815 51.8442L51.127 373.13ZM373.35 439.505L49.627 373.879L115.253 50.25L438.882 115.876L373.35 439.505Z" fill="#8AC186"/>
<path d="M28.4374 160.314L159.689 460.318L459.693 329.067L328.441 29.0627L28.4374 160.314ZM158.939 462.381V461.817L27.125 159.658L329.754 27.6562V28.2182L461.568 330.285L158.939 462.381Z" fill="#8AC186"/>
<path d="M18.8769 299.347L298.537 470.349L469.445 190.69L189.785 19.7804L18.8769 299.347ZM299.006 471.944H298.443L17.1895 300.097L189.41 18.2812L470.664 190.127L299.006 471.944Z" fill="#8AC186"/>
<path d="M70.4395 91.5954L90.8772 418.787L417.975 398.349L397.537 71.1583L70.4395 91.5954ZM89.1898 419.725L68.9395 90.4704L398.475 69.9395L419.1 399.474L89.1898 419.725Z" fill="#8AC186"/>
<path d="M13.9063 219.002L218.284 475.318L474.506 270.94L270.128 14.7185L13.9063 219.002ZM218.096 477.005H217.627L12.125 219.283H12.5936L270.316 13.7812L475.818 271.503H475.35L218.096 477.005Z" fill="#8AC186"/>
<path d="M36.6875 142.222L141.033 452.914L451.724 348.475L347.285 37.7834L36.6875 142.222ZM140.282 454.414V453.851L35.2812 141.473H35.8437L348.316 36.4707V37.0338L453.318 348.475H452.662L140.282 454.414Z" fill="#8AC186"/>
<path d="M15.0332 279.565L278.755 474.192L473.383 210.47L209.567 15.8424L15.0332 279.565ZM279.037 475.879L13.3457 279.752L209.567 14.0605L475.258 210.189L279.037 475.879Z" fill="#8AC186"/>
<path d="M16.998 199.034L198.313 472.13L471.317 290.909L290.095 17.8122L16.998 199.034ZM197.938 473.818L15.3105 198.471L290.47 15.8438L473.098 290.909L197.938 473.818Z" fill="#8AC186"/>
<path d="M31.4376 337.693L336.504 457.413L456.224 152.253L151.158 32.5334L31.4376 337.693ZM337.16 459.008H336.598L29.8438 338.63L150.408 31.2207H150.97L458.193 151.597L337.16 459.008Z" fill="#8AC186"/>
<path d="M46.4395 124.128L123.315 442.882L442.069 365.912L365.1 47.1583L46.4395 124.128ZM122.472 444.194V443.633L44.9395 123.472L365.944 45.9395V46.5025L443.945 367.225L122.472 444.194Z" fill="#8AC186"/>
<path d="M12.6875 259.41L258.409 476.257L475.256 230.535L229.534 13.6884L12.6875 259.41ZM258.597 478.037H258.128L11 259.879L229.065 12.75L229.534 13.2192L476.662 231.285L258.597 478.037Z" fill="#8AC186"/>
<path d="M22.0644 179.721L178.816 467.537L466.445 310.973L309.693 23.157L22.0644 179.721ZM178.348 469.225V468.662L20.6582 179.252L310.631 21.2812V21.8443L468.133 310.973L178.348 469.225Z" fill="#8AC186"/>
<path d="M24.5002 318.847L318.035 464.631L463.912 171.189L170.377 25.313L24.5002 318.847ZM318.598 466.318L22.8125 319.317V318.847L169.533 23.625L465.506 170.346V170.909L318.598 466.318Z" fill="#8AC186"/>
<path d="M57.6893 107.346L106.534 431.444L430.632 382.6L381.787 58.5011L57.6893 107.346ZM105.503 432.85V432.287L56.377 106.315L382.912 57.0957V57.6576L432.038 383.631L105.503 432.85Z" fill="#8AC186"/>
</g>
</svg>
