<svg width="490" height="490" viewBox="0 0 490 490" fill="none" xmlns="http://www.w3.org/2000/svg">
<mask id="mask0_198_3344" style="mask-type:alpha" maskUnits="userSpaceOnUse" x="30" y="30" width="431" height="431">
<circle cx="245.5" cy="245.5" r="215.5" fill="#E7D992"/>
</mask>
<g mask="url(#mask0_198_3344)">
<path d="M197.726 541.021C191.737 541.015 185.806 539.854 180.258 537.6C172.7 534.595 166.079 529.631 161.077 523.218C156.075 516.805 152.872 509.175 151.798 501.113L98.2309 119.963C97.0991 111.924 98.1038 103.727 101.144 96.1988C104.184 88.6703 109.153 82.075 115.551 77.0757C121.948 72.0765 129.549 68.8495 137.589 67.7194C145.629 66.5893 153.825 67.5959 161.353 70.6378L518.216 214.829C525.74 217.873 532.33 222.843 537.324 229.241C542.319 235.638 545.542 243.237 546.67 251.274C547.797 259.311 546.79 267.504 543.749 275.028C540.708 282.553 535.74 289.145 529.345 294.142L226.049 531.124C217.984 537.503 208.009 540.989 197.726 541.021V541.021ZM67.0576 174.397L241.806 517.35C245.365 524.334 250.7 530.259 257.275 534.528C263.849 538.796 271.432 541.259 279.26 541.668C287.088 542.077 294.886 540.418 301.87 536.858C308.854 533.298 314.777 527.962 319.044 521.386L528.661 198.592C532.931 192.018 535.396 184.436 535.807 176.607C536.217 168.778 534.56 160.979 531 153.995C527.441 147.01 522.105 141.085 515.53 136.817C508.954 132.548 501.371 130.086 493.542 129.678L109.2 109.542C101.372 109.128 93.5726 110.783 86.5867 114.339C79.6008 117.896 73.6743 123.228 69.4031 129.802C65.1318 136.375 62.6665 143.957 62.2547 151.785C61.843 159.613 63.4995 167.412 67.0576 174.397V174.397ZM395.712 -6.14412C386.563 -6.12967 377.642 -3.28618 370.171 1.99687L54.9029 222.765C48.4825 227.265 43.361 233.377 40.0538 240.485C36.7466 247.594 35.3706 255.448 36.0641 263.258C36.7577 271.067 39.4964 278.557 44.0046 284.971C48.5128 291.386 54.6313 296.499 61.7441 299.798L410.649 462.46C417.751 465.779 425.603 467.169 433.414 466.489C441.224 465.81 448.718 463.084 455.14 458.588C461.562 454.091 466.687 447.982 469.998 440.875C473.308 433.769 474.688 425.916 473.999 418.106L440.454 34.6755C439.802 26.87 437.087 19.3779 432.587 12.9667C428.087 6.55547 421.964 1.4555 414.845 -1.81126C408.863 -4.64379 402.331 -6.1232 395.712 -6.14412V-6.14412ZM477.237 399.087C475.561 399.086 473.886 398.995 472.22 398.813L89.5425 358.724C81.468 357.876 73.7589 354.918 67.1901 350.147C60.6213 345.376 55.4244 338.959 52.1217 331.542C48.8189 324.126 47.5269 315.97 48.3754 307.896C49.2239 299.822 52.183 292.113 56.9553 285.545L283.196 -25.8242C287.968 -32.39 294.384 -37.5842 301.799 -40.8851C309.214 -44.186 317.367 -45.4773 325.439 -44.6292C333.511 -43.7811 341.218 -40.8235 347.785 -36.0535C354.352 -31.2835 359.548 -24.8692 362.851 -17.4551L519.402 334.163C522.532 341.191 523.859 348.889 523.263 356.56C522.667 364.23 520.167 371.63 515.989 378.091C511.812 384.551 506.088 389.867 499.337 393.557C492.587 397.247 485.022 399.195 477.328 399.224L477.237 399.087ZM124.433 404.765C117.221 404.72 110.118 402.991 103.693 399.715C97.2665 396.44 91.6943 391.709 87.4197 385.9C83.1452 380.091 80.2864 373.363 79.0713 366.254C77.8562 359.144 78.3183 351.849 80.4208 344.95L192.96 -23.1105C195.335 -30.8709 199.71 -37.8696 205.647 -43.4037C211.583 -48.9377 218.871 -52.8121 226.779 -54.6376C234.687 -56.4632 242.936 -56.1757 250.697 -53.8039C258.459 -51.4322 265.459 -47.0598 270.996 -41.1259L533.495 240.347C539.031 246.284 542.907 253.574 544.732 261.484C546.558 269.393 546.27 277.644 543.896 285.407C541.523 293.17 537.148 300.171 531.211 305.707C525.274 311.244 517.985 315.12 510.075 316.946L135.037 403.602L134.877 402.827L135.037 403.602C131.591 404.416 128.065 404.837 124.524 404.857L124.433 404.765ZM168.331 438.288C156.343 438.249 144.835 433.575 136.215 425.244C127.595 416.913 122.532 405.571 122.084 393.591L108.652 8.92945C108.364 0.807015 110.22 -7.24807 114.036 -14.4244C117.851 -21.6008 123.49 -27.6449 130.385 -31.948C137.28 -36.251 145.188 -38.6609 153.311 -38.935C161.434 -39.209 169.485 -37.3377 176.655 -33.5092L516.438 147.192C523.602 151.008 529.636 156.642 533.935 163.528C538.233 170.414 540.644 178.309 540.926 186.422C541.208 194.534 539.35 202.578 535.54 209.746C531.731 216.914 526.102 222.953 519.22 227.257L192.823 431.218C185.521 435.844 177.066 438.325 168.422 438.379L168.331 438.288ZM82.3364 5.4175C75.1079 5.454 67.9963 7.24429 61.6118 10.6342C55.2274 14.0241 49.761 18.9126 45.6817 24.8802C41.6025 30.8477 39.0322 37.7159 38.1916 44.8954C37.351 52.0749 38.2651 59.3513 40.8555 66.0998L178.775 425.426C181.588 432.741 186.275 439.187 192.366 444.118C198.458 449.049 205.739 452.29 213.48 453.517C221.22 454.744 229.147 453.913 236.464 451.108C243.782 448.303 250.233 443.622 255.17 437.535L497.373 138.412C502.312 132.324 505.56 125.042 506.79 117.299C508.02 109.557 507.189 101.626 504.38 94.3072C501.571 86.988 496.884 80.5381 490.79 75.6062C484.696 70.6744 477.41 67.4348 469.666 66.2137L89.5197 5.98761C87.1708 5.65334 84.8002 5.49336 82.4276 5.50881L82.3364 5.4175ZM275.26 455.208C268.535 455.219 261.892 453.742 255.804 450.884C249.717 448.025 244.337 443.857 240.05 438.675L-7.26142 143.908C-12.4748 137.691 -15.961 130.212 -17.3699 122.222C-18.7788 114.232 -18.0608 106.011 -15.2881 98.3865C-12.5154 90.7615 -7.78556 84.0002 -1.57337 78.7813C4.63882 73.5625 12.1147 70.0698 20.1037 68.6539L399.156 1.81454C407.151 0.40377 415.377 1.12284 423.007 3.89926C430.636 6.67569 437.4 11.4116 442.619 17.6311C447.838 23.8506 451.327 31.3345 452.736 39.3302C454.146 47.3259 453.425 55.5518 450.648 63.1808L319.022 424.856C315.737 433.793 309.788 441.505 301.977 446.95C294.167 452.395 284.872 455.309 275.351 455.299L275.26 455.208ZM327.322 436.965C318.926 436.945 310.695 434.634 303.515 430.283L-26.3942 232.046C-33.3527 227.865 -39.0882 221.927 -43.0243 214.827C-46.9603 207.728 -48.9582 199.717 -48.8173 191.6C-48.6763 183.484 -46.4013 175.547 -42.2211 168.589C-38.0409 161.63 -32.1026 155.894 -25.0031 151.958L311.633 -34.6266C318.733 -38.5628 326.744 -40.5607 334.861 -40.4195C342.978 -40.2783 350.915 -38.0029 357.874 -33.8221C364.832 -29.6412 370.568 -23.7022 374.504 -16.602C378.44 -9.50183 380.438 -1.49075 380.296 6.6262L373.569 391.448C373.473 399.575 371.218 407.531 367.034 414.499C362.851 421.468 356.89 427.199 349.762 431.104C342.927 434.918 335.24 436.941 327.413 436.988L327.322 436.965ZM370.65 402.759C367.348 402.755 364.054 402.411 360.822 401.732L-15.6534 321.712C-23.5924 320.021 -30.9466 316.27 -36.9778 310.838C-43.009 305.405 -47.5049 298.481 -50.0142 290.762C-52.5235 283.042 -52.9578 274.798 -51.2736 266.858C-49.5893 258.917 -45.8458 251.56 -40.4188 245.523L217.178 -40.5785C222.613 -46.6057 229.537 -51.0976 237.256 -53.6031C244.976 -56.1086 253.218 -56.5397 261.157 -54.8531C269.095 -53.1665 276.45 -49.4215 282.484 -43.9941C288.518 -38.5666 293.018 -31.6476 295.533 -23.9314L414.457 342.122C416.709 349.052 417.292 356.417 416.159 363.615C415.026 370.814 412.209 377.643 407.937 383.546C403.665 389.45 398.059 394.261 391.575 397.587C385.092 400.914 377.915 402.663 370.627 402.69L370.65 402.759ZM168.536 -41.924C166.66 -41.9267 164.786 -41.8048 162.927 -41.5592C155.131 -40.6534 147.718 -37.6871 141.449 -32.9657C135.181 -28.2442 130.283 -21.938 127.261 -14.6957L-23.1332 339.591C-26.1987 346.806 -27.3104 354.702 -26.3565 362.483C-25.4027 370.264 -22.417 377.657 -17.6996 383.919C-12.9822 390.18 -6.69939 395.089 0.517063 398.152C7.73352 401.215 15.6292 402.324 23.4102 401.367L405.427 354.459C413.205 353.501 420.595 350.513 426.854 345.796C433.113 341.079 438.02 334.799 441.084 327.585C444.148 320.371 445.26 312.479 444.309 304.699C443.358 296.92 440.377 289.527 435.665 283.264L204.157 -24.2279C200.034 -29.7733 194.668 -34.2738 188.489 -37.3672C182.31 -40.4605 175.492 -42.0603 168.582 -42.038L168.536 -41.924ZM93.8297 -3.31642C87.0152 -3.3153 80.2913 -1.75522 74.1725 1.24443C67.1009 4.64341 61.061 9.86281 56.6728 16.367C52.2846 22.8712 49.706 30.4258 49.2018 38.2557L22.4068 422.142C21.8388 429.968 23.3442 437.805 26.7712 444.864C30.1981 451.922 35.4255 457.953 41.9263 462.347C48.4271 466.741 55.9715 469.343 63.7988 469.891C71.6261 470.44 79.4596 468.915 86.5096 465.47L432.45 296.719C439.494 293.281 445.51 288.049 449.893 281.55C454.275 275.051 456.871 267.513 457.418 259.694C457.966 251.874 456.447 244.048 453.013 237.002C449.578 229.955 444.351 223.936 437.854 219.549L118.755 4.32295C111.424 -0.69316 102.758 -3.39404 93.8754 -3.43041L93.8297 -3.31642ZM135.744 520.223C131.632 520.211 127.539 519.667 123.566 518.604C115.705 516.544 108.533 512.429 102.787 506.683C97.0402 500.936 92.9257 493.764 90.8652 485.903L-8.74368 114.194C-10.8463 106.352 -10.8473 98.0941 -8.74646 90.2514C-6.64564 82.4086 -2.51707 75.2572 3.22409 69.516C8.96525 63.7748 16.1167 59.6463 23.9594 57.5454C31.8021 55.4446 40.0598 55.4456 47.902 57.5482L419.611 157.157C427.453 159.258 434.603 163.387 440.343 169.127C446.084 174.868 450.212 182.018 452.312 189.86C454.413 197.702 454.413 205.959 452.311 213.8C450.21 221.642 446.081 228.792 440.34 234.532L168.149 506.632C163.91 510.921 158.865 514.331 153.303 516.663C147.742 518.996 141.775 520.205 135.744 520.223V520.223ZM216.038 543.894C208.478 543.918 201.031 542.069 194.362 538.511C187.692 534.953 182.008 529.798 177.818 523.507L-37.5683 204.407C-42.1073 197.677 -44.7948 189.87 -45.3606 181.772C-45.9264 173.674 -44.3505 165.569 -40.7914 158.273C-37.2323 150.977 -31.8153 144.746 -25.0849 140.207C-18.3546 135.668 -10.548 132.98 -2.44976 132.414L381.573 105.597C389.671 105.031 397.775 106.608 405.07 110.167C412.366 113.726 418.596 119.142 423.135 125.872C427.674 132.602 430.361 140.408 430.928 148.505C431.494 156.603 429.919 164.707 426.361 172.003L257.61 517.943C254.093 525.27 248.688 531.528 241.951 536.073C235.213 540.618 227.387 543.286 219.276 543.803C218.181 543.849 217.064 543.894 215.946 543.894H216.038ZM299.98 540.131C289.969 540.114 280.239 536.822 272.273 530.759L-35.2878 299.113C-41.7689 294.227 -46.85 287.722 -50.0206 280.251C-53.1912 272.779 -54.3397 264.605 -53.3506 256.549C-52.3615 248.493 -49.2697 240.839 -44.3859 234.356C-39.502 227.874 -32.9981 222.791 -25.5276 219.618L328.759 69.1099C336.231 65.9393 344.407 64.7915 352.464 65.7816C360.52 66.7718 368.174 69.865 374.657 74.7505C381.139 79.636 386.222 86.1417 389.393 93.6138C392.565 101.086 393.714 109.261 392.725 117.318L345.839 499.335C344.896 507.41 341.819 515.088 336.926 521.581C332.032 528.073 325.498 533.146 317.995 536.277C312.294 538.758 306.152 540.069 299.934 540.131H299.98ZM297.95 41.7448C286.997 41.7382 276.431 45.8019 268.305 53.1469L-17.7742 310.835C-23.5975 316.079 -27.9378 322.764 -30.3591 330.217C-32.7804 337.671 -33.1974 345.63 -31.5682 353.296C-29.9389 360.962 -26.3208 368.063 -21.0774 373.888C-15.8341 379.712 -9.15008 384.054 -1.69718 386.476L364.356 505.423C371.811 507.838 379.77 508.249 387.434 506.615C395.099 504.981 402.198 501.36 408.021 496.116C413.843 490.871 418.183 484.187 420.606 476.734C423.029 469.282 423.448 461.324 421.823 453.658L341.803 77.1826C340.215 69.499 336.611 62.3762 331.361 56.5453C326.112 50.7143 319.405 46.3852 311.929 44.0024C307.418 42.5186 302.7 41.7567 297.95 41.7448V41.7448ZM57.0921 461.138C49.0439 461.137 41.1353 459.035 34.1487 455.04C27.1622 451.044 21.3398 445.294 17.2578 438.358C13.1758 431.422 10.9755 423.54 10.8747 415.492C10.7739 407.445 12.776 399.51 16.683 392.474L203.267 55.8379L203.974 56.2254L203.267 55.8379C207.204 48.7384 212.939 42.8 219.898 38.6198C226.857 34.4395 234.793 32.1647 242.91 32.0237C251.026 31.8828 259.037 33.8806 266.137 37.8167C273.237 41.7527 279.175 47.4881 283.356 54.4466L481.593 384.356C485.77 391.309 488.045 399.239 488.189 407.35C488.334 415.461 486.342 423.466 482.414 430.564C478.486 437.662 472.761 443.601 465.812 447.787C458.864 451.972 450.936 454.256 442.826 454.41L58.0043 461.251L57.0921 461.138ZM122.631 513.587C115.892 513.553 109.241 512.047 103.143 509.177C97.0448 506.306 91.6468 502.139 87.3257 496.967C83.0045 491.794 79.8643 485.741 78.1242 479.23C76.3842 472.719 76.0862 465.906 77.2511 459.267L144.09 80.2155C145.506 72.2266 148.999 64.7506 154.218 58.5384C159.437 52.3262 166.198 47.5966 173.823 44.8238C181.448 42.0511 189.668 41.333 197.658 42.7419C205.649 44.1508 213.127 47.637 219.344 52.8504L514.294 300.276C520.512 305.495 525.246 312.258 528.022 319.886C530.797 327.514 531.516 335.738 530.107 343.731C528.697 351.725 525.208 359.207 519.991 365.425C514.773 371.644 508.011 376.379 500.384 379.156L138.686 510.782C133.544 512.672 128.109 513.637 122.631 513.633V513.587ZM365.542 516.164C353.883 516.152 342.668 511.69 334.186 503.69L52.6909 241.236C46.7569 235.7 42.3845 228.699 40.0128 220.938C37.641 213.176 37.3535 204.927 39.1791 197.019C41.0047 189.112 44.8791 181.824 50.4131 175.887C55.9471 169.951 62.9458 165.575 70.7063 163.2L438.789 50.6613C446.551 48.2886 454.801 48.0004 462.71 49.8259C470.619 51.6514 477.908 55.5263 483.844 61.061C489.781 66.5958 494.157 73.5957 496.532 81.3571C498.906 89.1186 499.197 97.3682 497.373 105.277L410.717 480.316C408.936 488.245 405.076 495.558 399.533 501.501C393.991 507.445 386.965 511.805 379.179 514.135C374.761 515.496 370.165 516.195 365.542 516.21V516.164Z" stroke="#90CFD9" stroke-width="0.65" stroke-miterlimit="10"/>
</g>
</svg>
