<svg width="490" height="490" viewBox="0 0 490 490" fill="none" xmlns="http://www.w3.org/2000/svg">
<g opacity="0.5">
<path d="M218.087 114.889L85.4017 344.7C82.7148 349.386 81.3067 354.696 81.3184 360.098C81.3301 365.5 82.7614 370.803 85.4686 375.478C88.1758 380.152 92.0639 384.034 96.7435 386.732C101.423 389.431 106.73 390.853 112.132 390.854H377.502C382.897 390.839 388.193 389.406 392.862 386.702C397.53 383.997 401.407 380.116 404.104 375.443C406.802 370.771 408.226 365.472 408.235 360.077C408.243 354.682 406.835 349.38 404.151 344.7L271.466 114.889C268.76 110.205 264.869 106.315 260.184 103.612C255.5 100.908 250.186 99.4844 244.776 99.4844C239.367 99.4844 234.053 100.908 229.369 103.612C224.684 106.315 220.793 110.205 218.087 114.889V114.889Z" stroke="#643992" stroke-miterlimit="10"/>
<path d="M377.5 391.978H112.13C106.503 391.958 100.98 390.459 96.1152 387.633C91.2499 384.807 87.2128 380.752 84.4081 375.875C81.6035 370.997 80.1298 365.468 80.1348 359.841C80.1398 354.215 81.6233 348.689 84.4366 343.816L217.202 114.005C220.045 109.214 224.086 105.245 228.927 102.488C233.768 99.731 239.244 98.2812 244.815 98.2812C250.386 98.2812 255.861 99.731 260.703 102.488C265.544 105.245 269.584 109.214 272.427 114.005L405.113 343.816C407.923 348.683 409.406 354.201 409.414 359.821C409.423 365.441 407.956 370.964 405.161 375.839C402.366 380.715 398.34 384.772 393.486 387.604C388.632 390.435 383.12 391.944 377.5 391.978Z" stroke="#643992" stroke-miterlimit="10"/>
<path d="M176.585 130.538H177.147L126.337 391.173C125.324 396.464 125.716 401.929 127.473 407.022C129.231 412.114 132.292 416.658 136.353 420.199C140.413 423.739 145.331 426.154 150.615 427.202C155.9 428.25 161.367 427.893 166.471 426.17L417.393 339.721C422.512 337.974 427.079 334.907 430.633 330.831C434.188 326.754 436.604 321.812 437.638 316.503C438.672 311.194 438.287 305.707 436.523 300.594C434.758 295.482 431.676 290.925 427.587 287.385L227.315 113.28C223.234 109.749 218.297 107.351 212.998 106.326C207.699 105.302 202.224 105.686 197.121 107.441C192.017 109.197 187.464 112.261 183.916 116.329C180.369 120.396 177.951 125.324 176.906 130.619L176.585 130.538Z" stroke="#643992" stroke-miterlimit="10"/>
<path d="M156.597 428.983C151.912 428.923 147.297 427.839 143.076 425.806C138.854 423.773 135.129 420.841 132.161 417.215C129.193 413.589 127.055 409.358 125.896 404.818C124.737 400.278 124.586 395.54 125.453 390.935L176.103 130.461C177.235 125.013 179.764 119.953 183.441 115.776C187.118 111.599 191.817 108.45 197.078 106.637C202.339 104.824 207.981 104.409 213.451 105.434C218.92 106.458 224.03 108.886 228.278 112.481L428.55 286.585C432.704 290.29 435.824 295.01 437.603 300.284C439.383 305.557 439.761 311.202 438.701 316.666C437.64 322.13 435.178 327.225 431.555 331.45C427.932 335.675 423.273 338.886 418.035 340.767L167.113 427.137C163.735 428.335 160.181 428.959 156.597 428.983Z" stroke="#643992" stroke-miterlimit="10"/>
<path d="M143.514 158.873L180.437 421.675C181.175 427.035 183.314 432.106 186.639 436.375C189.964 440.644 194.356 443.959 199.372 445.987C204.389 448.015 209.852 448.683 215.209 447.923C220.566 447.164 225.628 445.004 229.883 441.662L439.386 278.153C443.636 274.817 446.935 270.423 448.951 265.41C450.967 260.398 451.631 254.943 450.875 249.594C450.119 244.244 447.97 239.187 444.643 234.929C441.317 230.672 436.929 227.364 431.921 225.337L185.896 125.883C180.883 123.861 175.426 123.192 170.073 123.945C164.721 124.697 159.66 126.844 155.399 130.17C151.138 133.496 147.826 137.883 145.796 142.893C143.767 147.903 143.09 153.359 143.835 158.713L143.514 158.873Z" stroke="#643992" stroke-miterlimit="10"/>
<path d="M211.021 449.37C206.89 449.349 202.802 448.532 198.981 446.962C193.781 444.889 189.226 441.469 185.784 437.054C182.342 432.639 180.137 427.387 179.395 421.838L142.471 159.036C141.772 153.515 142.519 147.908 144.64 142.763C146.761 137.618 150.183 133.112 154.57 129.689C158.957 126.265 164.159 124.04 169.665 123.232C175.171 122.425 180.792 123.063 185.977 125.082L432.003 224.456C437.178 226.564 441.714 229.985 445.162 234.384C448.609 238.782 450.849 244.004 451.66 249.533C452.471 255.062 451.824 260.707 449.784 265.91C447.745 271.113 444.382 275.694 440.03 279.199L230.687 442.547C225.072 446.942 218.152 449.342 211.021 449.37Z" stroke="#643992" stroke-miterlimit="10"/>
<path d="M120.96 196.601L241.364 432.994C243.809 437.814 247.481 441.903 252.009 444.852C256.538 447.8 261.764 449.502 267.161 449.787C272.557 450.072 277.934 448.929 282.748 446.474C287.562 444.019 291.644 440.339 294.582 435.804L439.067 213.217C442.053 208.702 443.776 203.469 444.059 198.064C444.341 192.658 443.172 187.275 440.673 182.473C438.258 177.728 434.65 173.693 430.202 170.765C425.754 167.838 420.621 166.119 415.308 165.778L150.419 151.891C145.015 151.61 139.633 152.756 134.812 155.215C129.992 157.674 125.904 161.358 122.959 165.897C120.014 170.437 118.316 175.671 118.036 181.075C117.755 186.479 118.902 191.861 121.361 196.681L120.96 196.601Z" stroke="#643992" stroke-miterlimit="10"/>
<path d="M268.977 450.894H267.211C261.624 450.572 256.219 448.796 251.53 445.74C246.841 442.685 243.033 438.457 240.482 433.476L120.078 197.083C117.607 192.087 116.479 186.535 116.805 180.971C117.131 175.408 118.899 170.025 121.936 165.352C124.973 160.679 129.174 156.876 134.126 154.319C139.078 151.762 144.61 150.538 150.179 150.767L415.068 164.654C420.632 165.003 426.009 166.795 430.67 169.854C435.331 172.912 439.115 177.132 441.65 182.097C444.186 187.062 445.384 192.602 445.129 198.172C444.873 203.741 443.172 209.147 440.192 213.859L295.707 436.365C292.849 440.855 288.896 444.543 284.22 447.085C279.545 449.626 274.299 450.938 268.977 450.894V450.894Z" stroke="#643992" stroke-miterlimit="10"/>
<path d="M388.498 113.439C385.593 113.439 382.702 113.845 379.909 114.644L124.813 187.769C119.617 189.262 114.905 192.095 111.15 195.985C107.395 199.874 104.729 204.684 103.42 209.929C102.11 215.175 102.204 220.671 103.69 225.869C105.177 231.067 108.005 235.782 111.89 239.542L302.77 424.162C306.661 427.913 311.47 430.576 316.714 431.883C321.959 433.189 327.455 433.094 332.651 431.606C337.847 430.117 342.56 427.289 346.318 423.404C350.076 419.519 352.747 414.715 354.062 409.473L418.277 151.969C419.395 147.441 419.47 142.718 418.498 138.156C417.525 133.595 415.53 129.314 412.663 125.636C409.796 121.957 406.131 118.977 401.946 116.92C397.76 114.863 393.161 113.783 388.498 113.761V113.439Z" stroke="#643992" stroke-miterlimit="10"/>
<path d="M324.043 433.636C315.819 433.629 307.924 430.402 302.049 424.646L111.169 240.027C107.199 236.113 104.316 231.232 102.805 225.865C101.294 220.498 101.207 214.83 102.551 209.419C103.896 204.009 106.626 199.042 110.474 195.007C114.321 190.972 119.153 188.007 124.493 186.407L379.589 113.281C384.964 111.808 390.629 111.759 396.029 113.138C401.428 114.518 406.375 117.278 410.384 121.15C414.393 125.021 417.325 129.868 418.892 135.216C420.459 140.564 420.608 146.228 419.323 151.65L355.107 409.075C353.796 414.528 351.051 419.532 347.155 423.568C343.26 427.605 338.357 430.527 332.953 432.031C330.077 432.999 327.076 433.539 324.043 433.636V433.636Z" stroke="#643992" stroke-miterlimit="10"/>
<path d="M347.642 72.1817C341.352 72.1762 335.213 74.1108 330.063 77.7207L112.613 230.232C108.192 233.338 104.666 237.552 102.386 242.45C100.107 247.349 99.1558 252.761 99.6274 258.143C100.099 263.526 101.977 268.689 105.073 273.116C108.169 277.544 112.375 281.081 117.269 283.371L358.077 395.748C362.974 398.016 368.382 398.958 373.759 398.48C379.135 398.003 384.292 396.122 388.713 393.026C393.134 389.929 396.665 385.726 398.951 380.836C401.238 375.947 402.201 370.543 401.743 365.165L378.625 100.758C378.172 95.3709 376.299 90.1997 373.197 85.7722C370.095 81.3446 365.875 77.8188 360.966 75.5533C356.826 73.4663 352.277 72.315 347.642 72.1817V72.1817Z" stroke="#643992" stroke-miterlimit="10"/>
<path d="M370.839 399.278C366.175 399.253 361.574 398.212 357.353 396.228L116.546 283.851C111.531 281.434 107.231 277.756 104.068 273.176C100.904 268.597 98.9851 263.274 98.4994 257.729C98.0137 252.184 98.978 246.608 101.297 241.548C103.617 236.488 107.212 232.118 111.729 228.867L329.099 76.3549C333.701 73.2243 339.038 71.3439 344.586 70.8981C350.134 70.4523 355.703 71.4566 360.746 73.8121C365.789 76.1677 370.133 79.7939 373.351 84.3348C376.57 88.8756 378.553 94.175 379.106 99.7135L402.224 364.04C402.763 369.613 401.805 375.23 399.449 380.31C397.092 385.39 393.423 389.749 388.819 392.937C383.606 396.823 377.336 399.034 370.839 399.278Z" stroke="#643992" stroke-miterlimit="10"/>
<path d="M295.704 46.4165C290.856 46.3891 286.072 47.5272 281.756 49.7343C277.44 51.9414 273.717 55.1525 270.901 59.0987L114.857 273.819C111.688 278.199 109.727 283.335 109.17 288.712C108.613 294.089 109.48 299.518 111.684 304.454C113.887 309.39 117.351 313.659 121.726 316.834C126.101 320.009 131.234 321.978 136.61 322.543L400.536 350.236C405.906 350.803 411.332 349.946 416.266 347.751C421.2 345.555 425.469 342.099 428.643 337.729C431.816 333.359 433.783 328.23 434.344 322.859C434.906 317.487 434.042 312.063 431.841 307.131L323.878 64.7181C321.72 59.754 318.276 55.4551 313.902 52.2662C309.527 49.0773 304.382 47.1137 298.995 46.5772L295.704 46.4165Z" stroke="#643992" stroke-miterlimit="10"/>
<path d="M403.829 351.52C402.679 351.598 401.526 351.598 400.377 351.52L136.452 323.747C130.924 323.097 125.66 321.02 121.177 317.722C116.694 314.424 113.145 310.018 110.878 304.934C108.612 299.851 107.706 294.266 108.249 288.727C108.792 283.187 110.766 277.884 113.976 273.338L270.02 58.6176C273.349 54.1545 277.782 50.6339 282.883 48.4017C287.985 46.1695 293.579 45.3025 299.116 45.8854C304.654 46.4684 309.945 48.4809 314.469 51.7263C318.994 54.9718 322.597 59.3382 324.924 64.3968L432.886 306.81C434.989 311.664 435.86 316.963 435.422 322.234C434.984 327.506 433.251 332.588 430.375 337.028C427.5 341.468 423.572 345.129 418.941 347.685C414.309 350.241 409.118 351.614 403.829 351.681V351.52Z" stroke="#643992" stroke-miterlimit="10"/>
<path d="M238.713 38.9532C232.088 38.9368 225.633 41.0502 220.3 44.9813C214.967 48.9123 211.038 54.4537 209.094 60.7872L131.554 314.518C129.92 319.683 129.698 325.19 130.912 330.469C132.126 335.748 134.731 340.607 138.457 344.539C142.138 348.503 146.802 351.422 151.976 353.001C157.15 354.58 162.649 354.762 167.916 353.529L426.463 293.808C431.731 292.6 436.587 290.025 440.542 286.341C444.497 282.657 447.411 277.996 448.99 272.827C450.569 267.658 450.758 262.164 449.537 256.899C448.316 251.634 445.728 246.784 442.035 242.837L261.108 48.7468C258.253 45.6585 254.789 43.1939 250.935 41.5087C247.081 39.8234 242.92 38.9531 238.713 38.9532V38.9532Z" stroke="#643992" stroke-miterlimit="10"/>
<path d="M160.612 355.453C155.65 355.386 150.771 354.17 146.358 351.9C141.946 349.63 138.119 346.368 135.179 342.37C132.239 338.373 130.266 333.748 129.414 328.859C128.562 323.971 128.855 318.951 130.27 314.195L207.81 60.4636C209.496 55.1442 212.538 50.3554 216.639 46.5703C220.739 42.7852 225.755 40.1344 231.192 38.8785C236.628 37.6226 242.299 37.8053 247.643 39.4086C252.988 41.012 257.823 43.9803 261.671 48.0215L442.598 242.113C446.35 246.226 448.968 251.244 450.195 256.675C451.422 262.105 451.216 267.762 449.597 273.089C447.978 278.416 445.001 283.23 440.96 287.059C436.918 290.888 431.95 293.6 426.544 294.93L167.997 354.57V354.088V354.57C165.583 355.183 163.101 355.479 160.612 355.453V355.453Z" stroke="#643992" stroke-miterlimit="10"/>
<path d="M181.56 50.5898C175.875 50.6617 170.32 52.3001 165.506 55.3255C160.894 58.1451 157.122 62.1488 154.581 66.92C152.04 71.6913 150.823 77.056 151.058 82.4565L160.289 347.747C160.473 353.153 162.079 358.415 164.947 363.001C167.815 367.588 171.842 371.335 176.621 373.868C181.401 376.4 186.764 377.627 192.17 377.424C197.575 377.22 202.831 375.595 207.407 372.711V373.192V372.711L432.161 232.079C436.739 229.22 440.483 225.206 443.018 220.442C445.553 215.677 446.789 210.329 446.602 204.936C446.415 199.542 444.811 194.293 441.952 189.716C439.093 185.138 435.079 181.395 430.315 178.86L196.009 54.2016C191.557 51.8438 186.598 50.6045 181.56 50.5898Z" stroke="#643992" stroke-miterlimit="10"/>
<path d="M190.553 378.57C185.317 378.555 180.164 377.26 175.543 374.797C170.607 372.156 166.446 368.27 163.475 363.525C160.504 358.78 158.826 353.341 158.606 347.747L149.375 82.8578C149.237 77.2793 150.555 71.7609 153.2 66.8471C155.844 61.9333 159.724 57.7936 164.456 54.8361C169.188 51.8786 174.609 50.2048 180.185 49.9809C185.761 49.7571 191.298 50.9907 196.252 53.5593L430.558 178.137C435.453 180.809 439.568 184.709 442.497 189.455C445.427 194.2 447.069 199.628 447.264 205.201C447.458 210.774 446.198 216.302 443.606 221.24C441.015 226.178 437.182 230.356 432.485 233.363L207.731 373.994C202.562 377.134 196.599 378.723 190.553 378.57V378.57Z" stroke="#643992" stroke-miterlimit="10"/>
<path d="M131.553 80.1288C126.569 80.1453 121.663 81.374 117.259 83.7082C112.855 86.0423 109.084 89.4118 106.272 93.5272C103.46 97.6427 101.691 102.381 101.117 107.332C100.543 112.284 101.181 117.3 102.977 121.95L198.096 369.741C200.058 374.771 203.31 379.197 207.524 382.571C211.739 385.946 216.768 388.15 222.106 388.964C227.444 389.777 232.902 389.171 237.93 387.206C242.959 385.24 247.382 381.985 250.753 377.768L417.713 171.556C421.123 167.36 423.368 162.34 424.218 157.001C425.069 151.662 424.497 146.192 422.56 141.145C420.622 136.098 417.387 131.651 413.182 128.252C408.977 124.854 403.951 122.625 398.609 121.789L136.53 80.2895C134.877 80.12 133.214 80.0662 131.553 80.1288Z" stroke="#643992" stroke-miterlimit="10"/>
<path d="M226.918 390.532C225.209 390.688 223.49 390.688 221.781 390.532C216.248 389.688 211.039 387.383 206.693 383.856C202.348 380.329 199.021 375.706 197.058 370.464L102.26 122.352C100.319 117.126 99.773 111.485 100.675 105.983C101.576 100.482 103.895 95.3102 107.402 90.9769C110.909 86.6436 115.484 83.298 120.677 81.2695C125.869 79.241 131.501 78.5993 137.016 79.4078L399.096 120.907C404.6 121.834 409.768 124.179 414.089 127.712C418.411 131.246 421.736 135.845 423.738 141.056C425.739 146.267 426.348 151.909 425.503 157.426C424.659 162.944 422.391 168.146 418.922 172.52L251.882 378.732H251.48H251.882C248.9 382.477 245.099 385.488 240.771 387.533C236.443 389.579 231.704 390.604 226.918 390.532V390.532Z" stroke="#643992" stroke-miterlimit="10"/>
<path d="M355.669 78.2031C353.812 78.2032 351.959 78.3648 350.13 78.6852L88.7737 124.76C83.4628 125.713 78.495 128.043 74.3672 131.518C70.2394 134.993 67.0962 139.49 65.2516 144.561C63.407 149.631 62.9258 155.098 63.8561 160.413C64.7863 165.727 67.0952 170.705 70.5524 174.848L241.125 378.089C244.587 382.258 249.09 385.438 254.176 387.306C259.263 389.174 264.754 389.664 270.091 388.727C275.428 387.79 280.423 385.459 284.569 381.969C288.716 378.48 291.866 373.958 293.701 368.859H294.183H293.701L384.405 119.462C386.091 114.83 386.639 109.86 386.002 104.972C385.365 100.084 383.561 95.4203 380.744 91.3752C377.927 87.3302 374.178 84.0221 369.814 81.7296C365.45 79.4371 360.598 78.2276 355.669 78.2031V78.2031Z" stroke="#643992" stroke-miterlimit="10"/>
<path d="M264.561 390.533C259.955 390.521 255.41 389.494 251.247 387.523C247.085 385.553 243.408 382.688 240.48 379.134L70.1484 175.571C66.6088 171.263 64.2523 166.107 63.3107 160.611C62.3692 155.115 62.875 149.469 64.7785 144.228C66.6821 138.987 69.9179 134.332 74.167 130.721C78.4161 127.111 83.5322 124.67 89.0117 123.637L350.369 77.5626C355.864 76.6648 361.499 77.2118 366.72 79.15C371.94 81.0881 376.567 84.3506 380.146 88.6173C383.724 92.884 386.131 98.0082 387.131 103.487C388.131 108.965 387.688 114.609 385.847 119.865L294.902 369.261C293.043 374.489 289.838 379.135 285.61 382.729C281.382 386.323 276.281 388.738 270.822 389.73C268.764 390.191 266.668 390.459 264.561 390.533Z" stroke="#643992" stroke-miterlimit="10"/>
<path d="M305.096 49.5491C299.876 49.5685 294.744 50.8929 290.166 53.4019L58.1079 181.833C53.3726 184.442 49.4091 188.254 46.6172 192.883C43.8254 197.513 42.3039 202.798 42.2062 208.203C42.1085 213.609 43.4382 218.945 46.0609 223.672C48.6837 228.4 52.5068 232.353 57.1447 235.132L284.628 371.589C289.257 374.386 294.543 375.912 299.95 376.014C305.358 376.115 310.697 374.786 315.427 372.165C320.158 369.543 324.113 365.72 326.894 361.081C329.675 356.441 331.182 351.151 331.264 345.743L335.92 80.3722C336.036 74.9693 334.716 69.6321 332.092 64.9073C329.469 60.1825 325.637 56.24 320.99 53.4822C316.142 50.7661 310.651 49.4074 305.096 49.5491V49.5491Z" stroke="#643992" stroke-miterlimit="10"/>
<path d="M300.443 377.607C294.782 377.524 289.243 375.945 284.389 373.031L56.9056 236.574C52.1628 233.648 48.2631 229.539 45.5898 224.65C42.9166 219.76 41.562 214.259 41.6592 208.687C41.7564 203.115 43.3021 197.665 46.1442 192.871C48.9863 188.078 53.0269 184.107 57.8688 181.348L290.008 52.9174C294.914 50.2868 300.421 48.9777 305.986 49.1176C311.552 49.2575 316.985 50.8421 321.753 53.716C326.522 56.5899 330.46 60.6546 333.184 65.5105C335.907 70.3663 337.321 75.8462 337.286 81.4134L332.711 346.302C332.595 351.904 331.015 357.378 328.128 362.18C325.241 366.981 321.148 370.944 316.256 373.674C311.404 376.306 305.962 377.66 300.443 377.607V377.607Z" stroke="#643992" stroke-miterlimit="10"/>
<path d="M248.026 38.8703C243.735 38.8763 239.494 39.7877 235.58 41.5443C231.666 43.3009 228.166 45.8634 225.309 49.0646L47.7536 246.046C44.1446 250.064 41.6552 254.961 40.5343 260.245C39.4134 265.529 39.7006 271.014 41.3672 276.152C43.0337 281.289 46.0209 285.899 50.0298 289.519C54.0386 293.139 58.9283 295.641 64.2089 296.776L323.8 351.921C329.079 353.045 334.561 352.759 339.695 351.093C344.829 349.426 349.434 346.437 353.046 342.426C356.659 338.415 359.151 333.523 360.273 328.244C361.395 322.964 361.108 317.482 359.439 312.348L277.484 59.9018C275.841 54.7389 272.845 50.1101 268.808 46.4965C264.771 42.8829 259.84 40.4159 254.527 39.3524C252.384 38.955 250.204 38.793 248.026 38.8703V38.8703Z" stroke="#643992" stroke-miterlimit="10"/>
<path d="M330.301 354.009C328.034 354.007 325.774 353.765 323.559 353.287L63.9677 298.061C58.5347 296.84 53.5127 294.226 49.3949 290.477C45.2772 286.728 42.2052 281.974 40.4808 276.679C38.7563 271.384 38.4385 265.731 39.5587 260.276C40.6789 254.822 43.1987 249.752 46.8704 245.565L224.506 48.3436C228.283 44.2475 233.06 41.2048 238.369 39.5142C243.678 37.8236 249.335 37.543 254.785 38.7009C260.235 39.8589 265.29 42.4153 269.453 46.1184C273.615 49.8215 276.743 54.5447 278.527 59.8226L360.483 312.189C361.999 316.967 362.376 322.034 361.583 326.984C360.79 331.933 358.849 336.629 355.915 340.694C352.982 344.759 349.137 348.08 344.689 350.392C340.241 352.704 335.314 353.943 330.301 354.009V354.009Z" stroke="#643992" stroke-miterlimit="10"/>
<path d="M190.954 47.3789H187.101C181.731 48.0148 176.626 50.0674 172.31 53.3256C167.994 56.5838 164.622 60.931 162.539 65.9216L58.8308 310.261C56.7405 315.235 55.9926 320.671 56.6619 326.025C57.3311 331.379 59.394 336.464 62.6443 340.77C65.8947 345.077 70.2187 348.455 75.184 350.567C80.1492 352.679 85.5817 353.45 90.9385 352.804L354.302 320.696C359.656 320.028 364.742 317.966 369.049 314.716C373.357 311.467 376.736 307.144 378.849 302.179C380.962 297.214 381.734 291.781 381.089 286.424C380.443 281.067 378.403 275.972 375.172 271.651L215.436 59.6603C212.591 55.8511 208.897 52.757 204.647 50.6251C200.397 48.4933 195.709 47.382 190.954 47.3789Z" stroke="#643992" stroke-miterlimit="10"/>
<path d="M139.423 73.9492C134.739 73.9528 130.121 75.0516 125.938 77.1592C121.044 79.4854 116.862 83.0803 113.828 87.5691C110.793 92.0579 109.015 97.2772 108.68 102.685L90.2178 367.574C89.8404 372.958 90.8871 378.346 93.2527 383.198C95.6182 388.049 99.2192 392.192 103.694 395.211C108.168 398.229 113.359 400.016 118.743 400.392C124.127 400.768 129.515 399.72 134.366 397.354L372.926 281.043C377.779 278.665 381.921 275.054 384.937 270.571C387.953 266.087 389.738 260.889 390.112 255.499C390.486 250.108 389.436 244.713 387.068 239.856C384.7 234.999 381.096 230.85 376.619 227.825L156.6 79.407C151.555 75.8987 145.568 73.9968 139.423 73.9492V73.9492Z" stroke="#643992" stroke-miterlimit="10"/>
<path d="M120.879 401.448C116.489 401.457 112.143 400.565 108.111 398.827C104.078 397.09 100.445 394.543 97.4358 391.346C94.4266 388.149 92.1051 384.369 90.6149 380.239C89.1246 376.108 88.4973 371.716 88.7718 367.334L107.314 102.445C107.792 96.9084 109.699 91.5905 112.848 87.0116C115.998 82.4327 120.282 78.7493 125.281 76.3224C130.281 73.8955 135.824 72.8084 141.37 73.1663C146.916 73.5242 152.274 75.315 156.92 78.3644L376.939 226.782C381.514 229.954 385.185 234.26 387.594 239.279C390.002 244.298 391.064 249.857 390.675 255.411C390.287 260.964 388.461 266.321 385.377 270.956C382.293 275.591 378.058 279.343 373.086 281.847L134.846 398.559C130.479 400.595 125.696 401.584 120.879 401.448V401.448Z" stroke="#643992" stroke-miterlimit="10"/>
<path d="M99.285 115.932C95.2624 115.924 91.2791 116.723 87.5704 118.281C83.8618 119.839 80.503 122.125 77.6926 125.003C73.8498 128.802 71.0825 133.552 69.6725 138.769C68.2625 143.986 68.2602 149.484 69.6656 154.702L138.376 411.082C139.781 416.301 142.534 421.058 146.358 424.877C150.182 428.696 154.942 431.442 160.163 432.841C165.383 434.24 170.879 434.241 176.1 432.845C181.321 431.449 186.083 428.705 189.909 424.888L377.498 237.219C381.34 233.409 384.108 228.652 385.523 223.43C386.938 218.208 386.949 212.705 385.557 207.477C384.164 202.249 381.417 197.482 377.592 193.656C373.767 189.829 369 187.08 363.772 185.686L107.392 116.976C104.748 116.268 102.022 115.917 99.285 115.932V115.932Z" stroke="#643992" stroke-miterlimit="10"/>
<path d="M168.236 435C165.525 434.95 162.83 434.573 160.209 433.876C154.78 432.467 149.827 429.633 145.861 425.668C141.895 421.702 139.062 416.748 137.653 411.32L68.9429 155.02C67.5533 149.615 67.5965 143.941 69.0683 138.558C70.5401 133.175 73.3896 128.268 77.3358 124.322C81.282 120.375 86.1885 117.526 91.5718 116.055C96.955 114.583 102.629 114.54 108.034 115.929L364.334 184.639C369.689 186.15 374.559 189.026 378.467 192.986C382.376 196.945 385.188 201.854 386.629 207.228C388.069 212.602 388.089 218.257 386.685 223.641C385.282 229.025 382.503 233.952 378.622 237.938L190.551 425.608C187.636 428.569 184.163 430.923 180.333 432.535C176.503 434.147 172.391 434.985 168.236 435V435Z" stroke="#643992" stroke-miterlimit="10"/>
<path d="M337.848 149.723V150.284L72.9593 168.827C67.5529 169.129 62.3281 170.885 57.8358 173.908C53.3434 176.931 49.75 181.11 47.4337 186.005C45.0294 190.855 43.9555 196.256 44.3222 201.658C44.6888 207.059 46.4827 212.266 49.5205 216.747L198.581 436.685C201.612 441.16 205.767 444.758 210.628 447.12C215.49 449.482 220.887 450.524 226.278 450.142C231.669 449.76 236.865 447.967 241.344 444.943C245.823 441.919 249.429 437.77 251.799 432.913L368.109 194.432C370.469 189.576 371.513 184.186 371.135 178.8C370.756 173.414 368.97 168.222 365.955 163.743C362.939 159.265 358.8 155.658 353.952 153.281C349.104 150.905 343.717 149.844 338.33 150.205L337.848 149.723Z" stroke="#643992" stroke-miterlimit="10"/>
<path d="M223.625 451.294C218.418 451.308 213.288 450.033 208.695 447.582C204.101 445.131 200.185 441.58 197.296 437.247L48.8785 217.23C45.8291 212.584 44.0378 207.225 43.6799 201.679C43.322 196.134 44.4098 190.59 46.8368 185.59C49.2637 180.591 52.9468 176.306 57.5257 173.157C62.1046 170.008 67.4225 168.101 72.9593 167.623L337.848 149.081C343.412 148.765 348.962 149.901 353.953 152.38C358.944 154.859 363.203 158.595 366.313 163.219C369.423 167.844 371.276 173.198 371.689 178.755C372.103 184.312 371.063 189.881 368.671 194.915L252.361 433.394C249.937 438.441 246.213 442.752 241.572 445.884C236.931 449.015 231.54 450.855 225.953 451.215L223.625 451.294Z" stroke="#643992" stroke-miterlimit="10"/>
<path d="M301.727 124.6V125.082L57.4672 228.789C52.4888 230.893 48.1528 234.271 44.8964 238.585C41.6401 242.898 39.5784 247.994 38.9191 253.358C38.2598 258.722 39.0261 264.165 41.1409 269.138C43.2558 274.112 46.6444 278.44 50.9651 281.686L262.876 441.422C267.205 444.649 272.303 446.686 277.664 447.329C283.024 447.972 288.46 447.199 293.429 445.088C298.398 442.977 302.728 439.601 305.986 435.296C309.244 430.991 311.318 425.908 312.001 420.552L344.109 157.189C344.762 151.823 343.993 146.378 341.878 141.402C339.763 136.427 336.376 132.095 332.057 128.842C327.739 125.589 322.641 123.529 317.275 122.869C311.909 122.209 306.464 122.972 301.486 125.082L301.727 124.6Z" stroke="#643992" stroke-miterlimit="10"/>
<path d="M281.499 448.724C274.589 448.719 267.874 446.433 262.395 442.222L50.4843 282.567C46.0732 279.161 42.6247 274.666 40.4779 269.523C38.331 264.38 37.5598 258.766 38.2401 253.235C38.9204 247.703 41.0287 242.444 44.3578 237.974C47.6869 233.505 52.1222 229.979 57.2272 227.743L301.487 124.035C306.638 121.929 312.249 121.197 317.769 121.913C323.288 122.629 328.527 124.767 332.971 128.119C337.415 131.47 340.911 135.918 343.117 141.028C345.323 146.138 346.163 151.734 345.554 157.266L313.447 420.711C312.812 426.278 310.698 431.575 307.324 436.049C303.95 440.524 299.441 444.014 294.262 446.156C290.228 447.875 285.884 448.749 281.499 448.724V448.724Z" stroke="#643992" stroke-miterlimit="10"/>
<path d="M280.134 105.094C272.55 105.132 265.253 107.994 259.665 113.121L62.1224 290.597C58.114 294.223 55.1295 298.838 53.4684 303.982C51.8072 309.125 51.5278 314.616 52.6581 319.901C53.7883 325.187 56.2887 330.082 59.9082 334.096C63.5277 338.111 68.1392 341.103 73.28 342.772L325.646 424.727C330.78 426.395 336.262 426.683 341.542 425.561C346.822 424.438 351.713 421.945 355.724 418.333C359.735 414.721 362.724 410.117 364.391 404.983C366.058 399.849 366.343 394.366 365.219 389.087L310.074 129.496C308.522 122.638 304.678 116.515 299.176 112.137C293.674 107.759 286.844 105.388 279.813 105.415L280.134 105.094Z" stroke="#643992" stroke-miterlimit="10"/>
<path d="M335.599 427.373C332.19 427.39 328.8 426.848 325.566 425.768L73.199 343.814C67.9211 342.029 63.1984 338.901 59.4953 334.738C55.7922 330.575 53.2361 325.521 52.0781 320.071C50.9201 314.621 51.2003 308.963 52.8909 303.654C54.5814 298.346 57.6244 293.568 61.7205 289.792L258.942 112.156L259.344 112.638L258.942 112.156C263.129 108.484 268.198 105.964 273.653 104.844C279.108 103.724 284.761 104.041 290.055 105.766C295.35 107.49 300.106 110.563 303.854 114.681C307.603 118.798 310.217 123.82 311.438 129.253L366.664 388.845C367.61 393.477 367.521 398.261 366.403 402.855C365.286 407.45 363.168 411.74 360.2 415.421C357.233 419.102 353.489 422.081 349.236 424.148C344.984 426.214 340.327 427.315 335.599 427.373V427.373Z" stroke="#643992" stroke-miterlimit="10"/>
<path d="M242.81 99.4742H242.248C236.817 99.5639 231.508 101.098 226.866 103.92C222.225 106.741 218.419 110.748 215.839 115.528L87.4082 347.587C84.7892 352.316 83.4599 357.649 83.5534 363.054C83.647 368.459 85.1604 373.745 87.9415 378.38C90.7226 383.015 94.6736 386.837 99.3984 389.463C104.123 392.089 109.456 393.426 114.86 393.34L380.231 388.685C385.639 388.603 390.929 387.095 395.568 384.315C400.208 381.534 404.031 377.578 406.653 372.847C409.275 368.117 410.602 362.778 410.501 357.371C410.4 351.963 408.874 346.677 406.077 342.048L269.62 114.565C266.902 109.888 262.983 106.023 258.269 103.37C253.555 100.717 248.218 99.3714 242.81 99.4742V99.4742Z" stroke="#643992" stroke-miterlimit="10"/>
<path d="M114.056 394.304C108.532 394.235 103.119 392.743 98.3405 389.97C93.5622 387.197 89.5802 383.238 86.7795 378.476C83.9788 373.714 82.4541 368.309 82.353 362.786C82.2519 357.262 83.5778 351.806 86.2024 346.945L214.633 114.806H215.115H214.633C217.392 109.964 221.363 105.924 226.156 103.081C230.949 100.239 236.4 98.6939 241.972 98.5967C247.543 98.4995 253.044 99.8537 257.934 102.527C262.823 105.2 266.933 109.1 269.859 113.843L406.316 341.326C409.096 346.134 410.581 351.581 410.626 357.135C410.671 362.689 409.274 368.159 406.573 373.011C403.872 377.864 399.958 381.934 395.214 384.822C390.47 387.709 385.058 389.317 379.506 389.488L114.216 394.063L114.056 394.304Z" stroke="#643992" stroke-miterlimit="10"/>
<path d="M205.565 106.379C198.328 106.425 191.332 108.99 185.78 113.634C180.229 118.277 176.467 124.709 175.143 131.825L129.069 393.181C128.116 398.507 128.585 403.99 130.429 409.076C132.274 414.162 135.428 418.672 139.573 422.149C143.718 425.626 148.707 427.948 154.036 428.88C159.366 429.812 164.847 429.321 169.926 427.456L419.322 336.672C424.387 334.81 428.874 331.651 432.335 327.51C435.796 323.37 438.109 318.395 439.043 313.08C439.978 307.766 439.501 302.299 437.66 297.226C435.819 292.154 432.679 287.654 428.553 284.176L225.231 113.603C219.734 108.949 212.768 106.39 205.565 106.379V106.379Z" stroke="#643992" stroke-miterlimit="10"/>
<path d="M159.248 430.667C151.791 430.621 144.582 427.982 138.859 423.201C134.553 419.625 131.279 414.966 129.374 409.703C127.47 404.44 127.003 398.764 128.023 393.261L174.098 131.904C175.138 126.439 177.58 121.338 181.185 117.101C184.79 112.864 189.435 109.635 194.663 107.733C199.891 105.832 205.524 105.321 211.009 106.251C216.494 107.181 221.643 109.522 225.952 113.041L429.274 283.614C433.487 287.25 436.682 291.918 438.547 297.162C440.412 302.406 440.881 308.044 439.91 313.524C438.939 319.003 436.56 324.136 433.006 328.419C429.453 332.702 424.848 335.988 419.641 337.955L170.325 428.74C166.769 430.008 163.023 430.66 159.248 430.667V430.667Z" stroke="#643992" stroke-miterlimit="10"/>
<path d="M172.332 125.081C167.892 125.108 163.511 126.092 159.487 127.969C155.463 129.845 151.893 132.569 149.019 135.954C146.145 139.338 144.037 143.303 142.837 147.578C141.638 151.852 141.376 156.335 142.07 160.72L183.569 422.8C184.405 428.142 186.634 433.168 190.033 437.373C193.431 441.578 197.878 444.813 202.926 446.75C207.973 448.688 213.442 449.26 218.782 448.409C224.121 447.558 229.141 445.315 233.336 441.904L439.388 274.863C443.605 271.492 446.86 267.07 448.826 262.041C450.791 257.012 451.398 251.554 450.584 246.216C449.77 240.879 447.565 235.85 444.191 231.635C440.816 227.42 436.391 224.168 431.361 222.207L183.569 127.167C179.993 125.755 176.177 125.047 172.332 125.081V125.081Z" stroke="#643992" stroke-miterlimit="10"/>
<path d="M214.072 449.93C210.119 449.926 206.2 449.191 202.513 447.763C197.27 445.698 192.663 442.288 189.154 437.878C185.646 433.468 183.36 428.212 182.526 422.639L141.027 160.559C140.218 155.043 140.86 149.413 142.889 144.22C144.917 139.028 148.262 134.452 152.596 130.945C156.929 127.438 162.101 125.119 167.602 124.218C173.104 123.316 178.745 123.863 183.971 125.803L431.361 221.243C436.531 223.302 441.078 226.669 444.554 231.014C448.031 235.36 450.319 240.534 451.193 246.03C452.067 251.525 451.498 257.154 449.541 262.364C447.584 267.573 444.306 272.184 440.03 275.745L233.818 442.786C228.223 447.314 221.269 449.83 214.072 449.93V449.93Z" stroke="#643992" stroke-miterlimit="10"/>
<path d="M147.287 153.494C141.969 153.488 136.74 154.861 132.111 157.479C127.483 160.098 123.613 163.872 120.879 168.434C118.145 172.995 116.641 178.189 116.515 183.505C116.388 188.821 117.643 194.08 120.156 198.766L244.734 433.073C247.279 437.836 251.032 441.847 255.616 444.704C260.2 447.56 265.453 449.162 270.851 449.349C276.249 449.536 281.601 448.301 286.372 445.769C291.142 443.236 295.163 439.495 298.033 434.919L438.664 210.165C441.531 205.585 443.14 200.329 443.329 194.929C443.518 189.529 442.281 184.175 439.742 179.405C437.202 174.636 433.451 170.62 428.865 167.762C424.279 164.904 419.021 163.305 413.62 163.127L148.732 153.816L147.287 153.494Z" stroke="#643992" stroke-miterlimit="10"/>
<path d="M271.946 450.492H270.822C265.213 450.338 259.747 448.687 254.99 445.709C250.234 442.731 246.361 438.534 243.772 433.556L119.194 199.25C116.648 194.305 115.43 188.783 115.66 183.225C115.89 177.668 117.56 172.267 120.505 167.549C123.451 162.831 127.572 158.959 132.464 156.313C137.356 153.667 142.851 152.336 148.412 152.452L413.3 161.683C418.86 161.948 424.255 163.652 428.957 166.631C433.658 169.609 437.505 173.759 440.12 178.672C442.734 183.585 444.027 189.094 443.87 194.657C443.714 200.221 442.114 205.649 439.228 210.408L298.596 435.162C295.842 439.788 291.944 443.628 287.277 446.313C282.61 448.998 277.33 450.437 271.946 450.492V450.492Z" stroke="#643992" stroke-miterlimit="10"/>
<path d="M111.81 241.874L305.901 422.64C309.847 426.333 314.697 428.921 319.962 430.142C325.227 431.363 330.721 431.174 335.89 429.595C341.059 428.016 345.72 425.102 349.404 421.147C353.087 417.192 355.663 412.336 356.872 407.069L416.592 148.52C417.822 143.252 417.64 137.752 416.064 132.576C414.487 127.401 411.573 122.733 407.616 119.044C403.658 115.355 398.797 112.775 393.524 111.566C388.25 110.357 382.751 110.562 377.581 112.158L123.85 189.859C118.675 191.438 114.006 194.352 110.313 198.307C106.62 202.262 104.034 207.119 102.814 212.391C101.593 217.663 101.782 223.163 103.361 228.338C104.941 233.513 107.854 238.181 111.81 241.874V241.874Z" stroke="#643992" stroke-miterlimit="10"/>
<path d="M327.012 432.189C318.982 432.186 311.257 429.114 305.419 423.601L111.328 242.673C107.287 238.825 104.319 233.991 102.715 228.647C101.112 223.302 100.929 217.631 102.185 212.194C103.441 206.757 106.092 201.741 109.877 197.641C113.662 193.541 118.451 190.498 123.77 188.813L377.501 111.272C382.831 109.764 388.459 109.66 393.84 110.97C399.222 112.28 404.173 114.96 408.212 118.749C412.252 122.538 415.243 127.307 416.894 132.594C418.545 137.881 418.801 143.505 417.636 148.919L357.996 407.466C356.721 412.919 354.043 417.943 350.228 422.041C346.412 426.138 341.591 429.166 336.243 430.825C333.249 431.727 330.139 432.186 327.012 432.189V432.189Z" stroke="#643992" stroke-miterlimit="10"/>
</g>
</svg>
