<svg width="725" height="577" viewBox="0 0 725 577" fill="none" xmlns="http://www.w3.org/2000/svg">
<path d="M419.811 349.01V431.974" stroke="#2D2D30" stroke-linecap="round" stroke-linejoin="round"/>
<path d="M397.691 355.717V408.788L376.406 431.422" stroke="#2D2D30" stroke-linecap="round" stroke-linejoin="round"/>
<path d="M352.6 332.25L343.082 341.472V378.343" stroke="#2D2D30" stroke-linecap="round" stroke-linejoin="round"/>
<path d="M312.697 351.246V385.61L274.328 424.155" stroke="#2D2D30" stroke-linecap="round" stroke-linejoin="round"/>
<path d="M293.791 380.859L251.365 423.323" stroke="#2D2D30" stroke-linecap="round" stroke-linejoin="round"/>
<path d="M309.196 307.389L254.168 362.279V393.566L223.365 424.3" stroke="#2D2D30" stroke-linecap="round" stroke-linejoin="round"/>
<path d="M310.456 289.93H297.99L251.083 337.281H217.621" stroke="#2D2D30" stroke-linecap="round" stroke-linejoin="round"/>
<path d="M297.34 249.189H230.312L183.59 295.795" stroke="#2D2D30" stroke-linecap="round" stroke-linejoin="round"/>
<path d="M296.593 231.965H220.843L197.734 255.432" stroke="#2D2D30" stroke-linecap="round" stroke-linejoin="round"/>
<path d="M395.355 95.7352V56.8129L437.741 16.4004" stroke="#2D2D30" stroke-linecap="round" stroke-linejoin="round"/>
<path d="M417.764 97.2254V72.4603L467.61 23.8516" stroke="#2D2D30" stroke-linecap="round" stroke-linejoin="round"/>
<path d="M502.711 113.241V96.1994L582.244 17.9863" stroke="#2D2D30" stroke-linecap="round" stroke-linejoin="round"/>
<path d="M522.125 101.135L603.522 19.9414" stroke="#2D2D30" stroke-linecap="round" stroke-linejoin="round"/>
<path d="M613.609 36.7031L561.24 88.9413V119.948L502.148 179.725" stroke="#2D2D30" stroke-linecap="round" stroke-linejoin="round"/>
<path d="M598.068 145.227H565.016L517.554 192.297H506.068" stroke="#2D2D30" stroke-linecap="round" stroke-linejoin="round"/>
<path d="M505.787 232.525H586.445L667.376 151.516" stroke="#2D2D30" stroke-linecap="round" stroke-linejoin="round"/>
<path d="M504.943 249.845H595.127L617.81 226.658" stroke="#2D2D30" stroke-linecap="round" stroke-linejoin="round"/>
<path d="M520.325 105.645C521.767 105.645 522.936 104.479 522.936 103.041C522.936 101.603 521.767 100.438 520.325 100.438C518.884 100.438 517.715 101.603 517.715 103.041C517.715 104.479 518.884 105.645 520.325 105.645Z" stroke="#2D2D30" stroke-linecap="round" stroke-linejoin="round"/>
<path d="M600.782 147.829C602.224 147.829 603.393 146.663 603.393 145.225C603.393 143.787 602.224 142.621 600.782 142.621C599.341 142.621 598.172 143.787 598.172 145.225C598.172 146.663 599.341 147.829 600.782 147.829Z" stroke="#2D2D30" stroke-linecap="round" stroke-linejoin="round"/>
<path d="M619.665 227.219C621.107 227.219 622.276 226.054 622.276 224.616C622.276 223.178 621.107 222.012 619.665 222.012C618.223 222.012 617.055 223.178 617.055 224.616C617.055 226.054 618.223 227.219 619.665 227.219Z" stroke="#2D2D30" stroke-linecap="round" stroke-linejoin="round"/>
<path d="M195.999 260.198C197.441 260.198 198.609 259.032 198.609 257.594C198.609 256.156 197.441 254.99 195.999 254.99C194.557 254.99 193.389 256.156 193.389 257.594C193.389 259.032 194.557 260.198 195.999 260.198Z" stroke="#2D2D30" stroke-linecap="round" stroke-linejoin="round"/>
<path d="M214.939 339.997C216.38 339.997 217.549 338.831 217.549 337.393C217.549 335.955 216.38 334.789 214.939 334.789C213.497 334.789 212.328 335.955 212.328 337.393C212.328 338.831 213.497 339.997 214.939 339.997Z" stroke="#2D2D30" stroke-linecap="round" stroke-linejoin="round"/>
<path d="M310.993 308.116C312.435 308.116 313.604 306.95 313.604 305.512C313.604 304.074 312.435 302.908 310.993 302.908C309.552 302.908 308.383 304.074 308.383 305.512C308.383 306.95 309.552 308.116 310.993 308.116Z" stroke="#2D2D30" stroke-linecap="round" stroke-linejoin="round"/>
<path d="M295.638 381.538C297.079 381.538 298.248 380.372 298.248 378.934C298.248 377.496 297.079 376.33 295.638 376.33C294.196 376.33 293.027 377.496 293.027 378.934C293.027 380.372 294.196 381.538 295.638 381.538Z" stroke="#2D2D30" stroke-linecap="round" stroke-linejoin="round"/>
<path d="M312.735 351.157C314.177 351.157 315.346 349.991 315.346 348.553C315.346 347.115 314.177 345.949 312.735 345.949C311.294 345.949 310.125 347.115 310.125 348.553C310.125 349.991 311.294 351.157 312.735 351.157Z" stroke="#2D2D30" stroke-linecap="round" stroke-linejoin="round"/>
<path d="M343.024 383.671C344.466 383.671 345.635 382.505 345.635 381.067C345.635 379.629 344.466 378.463 343.024 378.463C341.583 378.463 340.414 379.629 340.414 381.067C340.414 382.505 341.583 383.671 343.024 383.671Z" stroke="#2D2D30" stroke-linecap="round" stroke-linejoin="round"/>
<path d="M476.679 87.3797C478.12 87.3797 479.289 86.2139 479.289 84.7758C479.289 83.3377 478.12 82.1719 476.679 82.1719C475.237 82.1719 474.068 83.3377 474.068 84.7758C474.068 86.2139 475.237 87.3797 476.679 87.3797Z" stroke="#2D2D30" stroke-linecap="round" stroke-linejoin="round"/>
<path d="M476.662 113.242V87.5391" stroke="#2D2D30" stroke-linecap="round" stroke-linejoin="round"/>
<path d="M508.197 241.321V112.681C508.197 112.681 448.76 101.28 429.74 97.5059C415.748 94.7337 407.298 93.4999 403.804 93.0752C402.556 92.915 401.293 92.915 400.045 93.0752C396.543 93.5239 388.094 94.7337 374.102 97.5059C355.058 101.28 295.645 112.681 295.645 112.681V241.321C295.645 241.321 295.227 293.279 339.749 326.385C379.66 352.368 396.318 364.378 401.925 364.378C407.531 364.378 424.19 352.36 464.093 326.385C508.59 293.279 508.197 241.321 508.197 241.321Z" fill="#ECC916"/>
<path d="M502.484 240.468V118.678C502.484 118.678 446.298 107.884 428.29 104.307C415.059 101.695 407.066 100.538 403.763 100.111C402.582 99.963 401.387 99.963 400.206 100.111C396.894 100.538 388.875 101.687 375.678 104.307C357.67 107.884 301.485 118.678 301.485 118.678V240.468C301.485 240.468 301.04 289.694 343.149 321.032C380.882 345.631 396.641 357 401.941 357C407.24 357 422.991 345.631 460.724 321.032C502.833 289.694 502.484 240.468 502.484 240.468Z" fill="white" stroke="#2D2D30" stroke-linecap="round" stroke-linejoin="round"/>
<path d="M486.205 238.71V136.653C486.205 136.653 439.065 127.607 423.957 124.635C412.856 122.439 406.158 121.478 403.379 121.117C402.389 120.997 401.388 120.997 400.399 121.117C397.628 121.478 390.921 122.439 379.821 124.635C364.712 127.631 317.58 136.653 317.58 136.653V238.71C317.58 238.71 317.243 279.931 352.568 306.187C384.23 326.801 397.443 336.328 401.893 336.328C406.342 336.328 419.563 326.801 451.21 306.187C486.51 279.931 486.205 238.71 486.205 238.71Z" fill="white" stroke="#2D2D30" stroke-linecap="round" stroke-linejoin="round"/>
<path d="M444.534 233.727V182.162C444.534 182.162 420.703 177.587 413.064 176.073C407.442 174.967 404.06 174.47 402.622 174.302C402.124 174.238 401.619 174.238 401.12 174.302C399.715 174.478 396.301 174.967 390.679 176.073C383.04 177.587 359.209 182.162 359.209 182.162V233.727C359.209 233.727 359.04 254.558 376.88 267.834C392.887 278.25 399.57 283.057 401.819 283.057C404.068 283.057 410.743 278.25 426.719 267.834C444.742 254.558 444.534 233.727 444.534 233.727Z" fill="#2D2D30"/>
<path d="M414.607 219.393H412.784V215.715C412.769 212.844 411.618 210.095 409.581 208.066C407.545 206.037 404.787 204.893 401.909 204.883C399.027 204.891 396.266 206.037 394.228 208.07C392.19 210.102 391.042 212.857 391.033 215.731V219.409H389.202C388.039 219.413 386.924 219.876 386.103 220.697C385.281 221.519 384.819 222.631 384.816 223.791V237.011C384.821 238.17 385.284 239.28 386.106 240.1C386.927 240.919 388.04 241.381 389.202 241.385H414.607C415.769 241.381 416.882 240.919 417.704 240.1C418.525 239.28 418.988 238.17 418.993 237.011V223.791C418.995 222.628 418.534 221.512 417.712 220.687C416.89 219.862 415.773 219.397 414.607 219.393V219.393ZM395.965 215.715C396.021 214.181 396.672 212.729 397.78 211.664C398.887 210.599 400.366 210.004 401.905 210.004C403.443 210.004 404.922 210.599 406.029 211.664C407.137 212.729 407.788 214.181 407.844 215.715V219.393H395.965V215.715Z" fill="white" stroke="#2D2D30" stroke-linecap="round" stroke-linejoin="round"/>
<path d="M76.2012 560.807C76.2012 530.967 88.0848 502.349 109.238 481.249C130.391 460.149 159.08 448.295 188.995 448.295C218.91 448.295 247.6 460.149 268.753 481.249C289.906 502.349 301.789 530.967 301.789 560.807" fill="#8AC186"/>
<path d="M718.484 561H10.4844" stroke="#2D2D30" stroke-linejoin="round"/>
<path d="M309.756 279.322C309.756 279.322 295.129 274.514 288.278 288.76C281.426 303.005 267.394 336.728 267.394 336.728C267.394 336.728 264.784 348.473 272.551 351.526C280.318 354.578 286.093 347.095 286.093 347.095L307.306 297.821C307.306 297.821 314.76 285.258 309.756 279.322Z" fill="white" stroke="#2D2D30" stroke-miterlimit="10"/>
<path d="M285.894 347.416C284.087 350.116 281.075 352.639 278.777 353.368C275.565 354.402 271.171 354.971 266.384 348.93C263.171 344.924 248.055 304.96 248.055 304.96C248.055 304.96 251.701 298.622 254.569 299.8C254.569 299.8 262.207 310.216 270.36 320.071C273.203 323.5 276.296 326.945 278.93 330.198" fill="white"/>
<path d="M285.894 347.416C284.087 350.116 281.075 352.639 278.777 353.368C275.565 354.402 271.171 354.971 266.384 348.93C263.171 344.924 248.055 304.96 248.055 304.96C248.055 304.96 251.701 298.622 254.569 299.8C254.569 299.8 262.207 310.216 270.36 320.071C273.203 323.5 276.296 326.945 278.93 330.198" stroke="#2D2D30" stroke-linecap="round" stroke-linejoin="round"/>
<path d="M282.625 301.139C282.625 301.139 294.376 313.101 295.629 319.943C295.95 321.706 296.673 321.602 297.565 320.488L303.99 305.498C302.577 304.079 288.119 289.858 282.625 301.139Z" fill="#2D2D30"/>
<path d="M249.364 305.89C249.364 305.89 246.457 305.769 242.505 302.052C240.092 299.646 238.59 296.481 238.256 293.094L242.971 286.685C242.971 286.685 239.115 272.536 240.441 271.029C241.766 269.523 242.585 275.909 244.272 278.849C245.959 281.79 250.047 287.622 250.047 287.622L255.228 300.265" fill="white"/>
<path d="M249.364 305.89C249.364 305.89 246.457 305.769 242.505 302.052C240.092 299.646 238.59 296.481 238.256 293.094L242.971 286.685C242.971 286.685 239.115 272.536 240.441 271.029C241.766 269.523 242.585 275.909 244.272 278.849C245.959 281.79 250.047 287.622 250.047 287.622L255.228 300.265" stroke="#2D2D30" stroke-miterlimit="10"/>
<path d="M251.09 281.919C251.09 281.919 231.388 272.304 227.58 268.082C223.564 275.517 207.5 290.868 203.846 291.493C214.577 299.938 224.89 311.267 224.89 311.267C224.89 311.267 242.335 301.54 251.09 281.919Z" fill="white" stroke="#2D2D30" stroke-miterlimit="10"/>
<path d="M227.051 276.422L243.332 287.527" stroke="#2D2D30" stroke-miterlimit="10"/>
<path d="M223.139 281.357L238.592 292.254" stroke="#2D2D30" stroke-miterlimit="10"/>
<path d="M219.221 285.059L234.883 296.363" stroke="#2D2D30" stroke-miterlimit="10"/>
<path d="M216.127 288.143L232.408 301.09" stroke="#2D2D30" stroke-miterlimit="10"/>
<path d="M255.71 302.107C255.545 299.342 255.109 296.599 254.409 293.919C253.421 290.93 252.369 286.331 251.678 286.083C250.987 285.835 241.975 282.63 240.337 281.7C238.698 280.771 238.907 284.609 241.14 285.778C243.373 286.948 246.963 288.631 246.963 288.631C246.963 288.631 244.554 294.375 248.505 298.79" fill="white"/>
<path d="M255.71 302.107C255.545 299.342 255.109 296.599 254.409 293.919C253.421 290.93 252.369 286.331 251.678 286.083C250.987 285.835 241.975 282.63 240.337 281.7C238.698 280.771 238.907 284.609 241.14 285.778C243.373 286.948 246.963 288.631 246.963 288.631C246.963 288.631 244.554 294.375 248.505 298.79" stroke="#2D2D30" stroke-miterlimit="10"/>
<path d="M300.304 354.243L292.199 374.706L360.689 373.552L354.986 357.328L354.713 353.898L300.304 354.243Z" fill="#2D2D30"/>
<path d="M318.23 357.623C318.247 359.439 318.166 361.255 317.989 363.063C317.82 364.866 317.604 366.669 317.306 368.455V368.672L317.114 368.72C316.527 368.864 315.925 369 315.331 369.12C314.736 369.24 314.134 369.361 313.523 369.449C314.086 369.192 314.656 368.976 315.218 368.744C315.78 368.511 316.359 368.319 316.937 368.119L316.712 368.383C316.833 366.572 317.025 364.778 317.266 362.983C317.497 361.181 317.818 359.392 318.23 357.623V357.623Z" fill="white"/>
<path d="M201.38 356.686L305.987 365.008C307.136 365.1 308.143 364.244 308.234 363.097C308.326 361.95 307.468 360.947 306.319 360.855L201.712 352.533C200.562 352.442 199.556 353.297 199.464 354.444C199.373 355.591 200.23 356.595 201.38 356.686Z" fill="#2D2D30"/>
<path d="M198.747 357.338L306.973 365.948C308.123 366.039 309.129 365.184 309.221 364.037C309.312 362.89 308.455 361.886 307.305 361.795L199.079 353.185C197.93 353.093 196.923 353.949 196.832 355.096C196.74 356.242 197.598 357.246 198.747 357.338Z" fill="white" stroke="#2D2D30" stroke-linejoin="round"/>
<path d="M250.295 305.031L187.644 300.048C185.532 299.904 182.978 302.075 183.387 303.573L197.998 350.187C198.12 350.635 198.377 351.034 198.735 351.331C199.093 351.628 199.534 351.807 199.998 351.845L263.025 358.351C264.632 358.471 267.338 356.749 266.72 354.073L252.262 306.618C252.13 306.188 251.872 305.807 251.521 305.525C251.171 305.242 250.744 305.07 250.295 305.031Z" fill="#2D2D30"/>
<path d="M248.455 306.428L185.805 301.436C185.445 301.409 185.084 301.468 184.751 301.608C184.419 301.749 184.125 301.966 183.894 302.243C183.663 302.52 183.501 302.848 183.423 303.199C183.345 303.551 183.352 303.916 183.444 304.264L196.159 351.575C196.28 352.024 196.537 352.424 196.895 352.721C197.253 353.018 197.694 353.197 198.159 353.234L262.552 358.361C262.918 358.39 263.286 358.33 263.624 358.184C263.962 358.039 264.259 357.814 264.489 357.528C264.719 357.242 264.876 356.904 264.946 356.544C265.016 356.184 264.996 355.812 264.889 355.461L250.431 308.014C250.3 307.582 250.041 307.199 249.689 306.916C249.336 306.633 248.906 306.463 248.455 306.428V306.428Z" fill="white" stroke="#2D2D30" stroke-linejoin="round"/>
<path d="M227.816 332.539C228.193 330.179 226.059 327.879 223.05 327.4C220.04 326.921 217.295 328.446 216.917 330.806C216.54 333.165 218.674 335.466 221.684 335.945C224.693 336.424 227.439 334.899 227.816 332.539Z" fill="#643992"/>
<path d="M285.187 470.504L300.544 493.739C300.544 493.739 306.07 507.624 300.167 507.76L268.842 480.623L285.187 470.504Z" fill="white" stroke="#2D2D30" stroke-linecap="round" stroke-linejoin="round"/>
<path d="M288.143 474.975L285.195 470.504L268.842 480.647L274.408 485.462L288.143 474.975Z" fill="#2D2D30"/>
<path d="M205.09 377.141L220.543 452.934H239.925C239.925 452.934 243.138 419.805 240.953 407.706C238.76 395.368 235.049 390.024 235.049 390.024" fill="#2D2D30"/>
<path d="M230.648 391.291L236.969 393.815C238.842 398.286 240.19 402.959 240.985 407.74C243.146 419.838 239.957 452.967 239.957 452.967H220.584L215.869 430.021C217.427 423.467 220.616 410.568 221.99 408.741C223.861 406.298 230.648 391.291 230.648 391.291Z" fill="#2D2D30"/>
<path d="M240.328 456.203L238.89 489.757C238.89 489.757 234.617 501.238 227.404 497.128C223.493 472.459 220.545 452.141 220.545 452.141L240.328 456.203Z" fill="white" stroke="#2D2D30" stroke-linecap="round" stroke-linejoin="round"/>
<path d="M221.573 459.095L240.047 462.06L240.296 456.203L225.155 453.094L220.617 452.846C220.802 453.879 221.115 456.042 221.573 459.095Z" fill="#2D2D30"/>
<path d="M244.762 458.406L217.252 455.738L215.605 443.607L244.175 448.166L244.762 458.406Z" fill="white" stroke="#2D2D30" stroke-linecap="round" stroke-linejoin="round"/>
<path d="M238.841 489.309C238.841 489.309 246.536 492.385 250.44 501.935L213.958 525.082C213.958 525.082 209.275 519.362 218.424 512.055C227.91 504.475 227.404 497.096 227.404 497.096C227.404 497.096 235.106 495.79 238.841 489.309Z" fill="white" stroke="#2D2D30" stroke-miterlimit="10"/>
<path d="M227.404 497.128C227.413 498.133 227.277 499.134 227.002 500.101C241.203 498.498 239.05 489.461 239.05 489.461L238.737 489.525C234.93 495.806 227.404 497.128 227.404 497.128Z" fill="#2D2D30"/>
<path d="M246.947 496.303L237.373 508.104L213.525 523.359" fill="white"/>
<path d="M246.947 496.303L237.373 508.104L213.525 523.359" stroke="#2D2D30" stroke-miterlimit="10" stroke-linecap="round"/>
<path d="M335.129 420.687C335.129 420.687 263.082 429.132 265.74 431.8C269.119 435.162 271.826 439.134 273.716 443.506C276.6 450.292 283.194 467.974 283.194 467.974L262.592 476.603C262.592 476.603 224.464 432.201 221.371 428.299C218.279 424.397 217.251 408.974 224.664 405.272C232.078 401.571 269.596 395.201 269.596 395.201L335.129 420.687Z" fill="#2D2D30"/>
<path d="M262.593 476.602L251.501 463.903L240.464 451.148L229.477 438.329L223.991 431.919L221.244 428.714C220.771 428.149 220.389 427.514 220.111 426.831C219.829 426.166 219.599 425.48 219.42 424.78C218.735 422.007 218.499 419.143 218.722 416.296C218.864 413.417 219.69 410.613 221.131 408.115C221.898 406.86 222.97 405.819 224.248 405.087C224.89 404.734 225.573 404.51 226.232 404.222L228.248 403.549C230.954 402.747 233.685 402.034 236.44 401.409C247.428 398.91 258.512 396.955 269.629 395.168C264.092 396.183 258.569 397.251 253.059 398.373C247.549 399.486 242.039 400.648 236.577 401.978C233.846 402.635 231.131 403.356 228.456 404.173L226.473 404.846C225.854 405.127 225.179 405.351 224.593 405.648C223.425 406.326 222.446 407.288 221.75 408.444C220.393 410.848 219.628 413.539 219.517 416.296C219.315 419.059 219.556 421.837 220.232 424.524C220.512 425.848 221.08 427.095 221.894 428.177L224.617 431.382L230.079 437.792L240.97 450.611L251.83 463.51L262.593 476.602Z" fill="white"/>
<path d="M270.215 411.023L249.485 418.154L246.906 419.076L245.629 419.548C245.433 419.621 245.243 419.706 245.059 419.805C244.915 419.872 244.793 419.977 244.705 420.109C244.663 420.298 244.642 420.492 244.641 420.686C244.605 420.979 244.488 421.256 244.304 421.487C243.977 421.882 243.572 422.207 243.115 422.441C242.866 422.572 242.593 422.651 242.312 422.673C242.171 422.693 242.027 422.693 241.886 422.673H241.693C241.645 422.673 241.565 422.673 241.693 422.673C241.733 422.667 241.771 422.653 241.805 422.631C241.838 422.609 241.866 422.579 241.886 422.545C241.915 422.514 241.932 422.474 241.934 422.433C241.934 422.376 241.934 422.433 241.934 422.433C241.934 422.433 241.934 422.521 241.934 422.561L242.031 422.873C242.09 423.078 242.179 423.272 242.296 423.45C243.163 424.948 244.207 426.511 245.187 428.025L248.207 432.584L260.312 450.819L266.352 459.945L272.336 469.11C268.095 463.173 263.942 457.173 259.806 451.164C255.669 445.155 251.597 439.089 247.541 433.024L244.545 428.442C243.557 426.887 242.569 425.413 241.629 423.746C241.505 423.537 241.405 423.314 241.332 423.082L241.236 422.737C241.23 422.668 241.23 422.598 241.236 422.529C241.226 422.47 241.226 422.411 241.236 422.352C241.244 422.285 241.265 422.219 241.3 422.16C241.362 422.069 241.457 422.006 241.565 421.984C241.671 421.959 241.781 421.959 241.886 421.984H242.031C242.307 422.025 242.589 421.974 242.834 421.84C243.193 421.655 243.513 421.402 243.774 421.095C243.885 420.968 243.957 420.812 243.983 420.646C243.963 420.441 243.985 420.233 244.047 420.037C244.109 419.84 244.21 419.658 244.344 419.501C244.478 419.344 244.642 419.215 244.827 419.123C245.012 419.031 245.214 418.976 245.42 418.963C245.854 418.811 246.28 418.643 246.713 418.499L249.324 417.633C256.247 415.321 263.211 413.117 270.215 411.023Z" fill="white"/>
<path d="M354.847 356.773C354.847 356.773 370.51 382.412 360.888 403.243C351.265 424.074 328.47 425.997 303.458 417.769C278.447 409.54 224.045 391.73 224.045 391.73L205.09 377.14C205.09 377.14 205.09 361.789 217.138 359.329C229.186 356.87 325.129 368.094 325.129 368.094" fill="#2D2D30"/>
<path d="M217.18 359.363C219.416 359.013 221.679 358.863 223.943 358.914C226.208 358.914 228.465 358.914 230.722 359.018C235.244 359.186 239.758 359.451 244.272 359.739C253.292 360.348 262.296 361.165 271.292 361.991C280.287 362.816 289.275 363.801 298.263 364.827C307.251 365.852 316.215 366.926 325.17 368.128L298.191 365.436C289.203 364.547 280.215 363.617 271.219 362.784C262.223 361.951 253.227 361.085 244.224 360.38C239.718 360.012 235.22 359.675 230.706 359.435C228.457 359.307 226.2 359.186 223.943 359.146C221.686 359.038 219.425 359.11 217.18 359.363V359.363Z" fill="white"/>
<path d="M360.89 403.211C358.54 408.677 354.703 413.378 349.814 416.783C347.325 418.425 344.623 419.719 341.782 420.629C338.946 421.526 336.021 422.111 333.059 422.375C327.129 422.847 321.163 422.472 315.34 421.262C312.424 420.693 309.549 419.98 306.706 419.146C303.862 418.313 301.083 417.36 298.256 416.454L264.618 405.334L247.823 399.725L231.092 393.965L247.959 399.301L264.826 404.717L298.561 415.669C301.364 416.583 304.184 417.544 306.979 418.385C309.774 419.227 312.649 419.94 315.533 420.509C321.291 421.716 327.188 422.128 333.059 421.734C335.984 421.514 338.877 420.977 341.685 420.132C344.491 419.266 347.166 418.023 349.637 416.438C354.548 413.159 358.445 408.578 360.89 403.211V403.211Z" fill="white"/>
<path d="M348.528 358.008C349.363 362.238 350.166 366.479 350.937 370.731C351.299 372.854 351.652 374.985 351.965 377.14C352.279 379.296 352.576 381.419 352.664 383.55C352.709 385.721 352.547 387.891 352.182 390.032C351.843 392.192 351.143 394.28 350.11 396.209C349.56 397.17 348.851 398.031 348.013 398.757C347.155 399.477 346.136 399.982 345.042 400.231C343.961 400.483 342.847 400.564 341.74 400.471C340.617 400.397 339.522 400.085 338.528 399.558C338.045 399.294 337.579 399.003 337.13 398.685C336.766 398.37 336.315 398.172 335.837 398.116C335.435 398.116 335.034 398.524 334.688 398.917C334.343 399.31 333.965 399.718 333.612 400.103C333.267 400.575 332.819 400.964 332.303 401.241C331.985 401.364 331.633 401.364 331.315 401.241C331.024 401.147 330.752 401.003 330.512 400.816C329.665 400.122 328.86 399.378 328.102 398.589C327.733 398.216 327.336 397.873 326.913 397.563C326.745 397.414 326.547 397.303 326.333 397.235C326.118 397.167 325.892 397.145 325.668 397.17C325.556 397.17 325.516 397.243 325.379 397.299C325.268 397.349 325.147 397.374 325.026 397.371H324.793C324.512 397.371 324.231 397.315 323.99 397.275C323.443 397.194 322.913 397.106 322.383 397.01C320.255 396.618 318.134 396.209 316.022 395.736C307.556 393.926 299.154 391.995 290.713 390.056L240.272 377.974L227.661 374.985L224.497 374.272L223.693 374.104L223.316 374.04C223.211 374.04 223.099 374.04 222.995 374.04C222.529 374.212 222.126 374.519 221.838 374.921C220.593 376.604 220.127 378.783 219.822 380.874C219.577 383.002 219.539 385.148 219.709 387.284C219.878 389.423 220.175 391.562 220.456 393.693C221.043 397.964 221.725 402.218 222.617 406.44C221.661 402.234 220.914 397.98 220.264 393.717C219.95 391.586 219.621 389.455 219.46 387.308C219.248 385.15 219.248 382.976 219.46 380.818C219.625 378.62 220.334 376.497 221.525 374.641C221.869 374.163 222.351 373.8 222.906 373.599C223.061 373.56 223.221 373.544 223.38 373.551L223.806 373.623L224.609 373.783L227.782 374.48L240.408 377.413L290.906 389.231C299.323 391.21 307.733 393.188 316.174 395.039C318.287 395.496 320.399 395.945 322.512 396.337C323.042 396.441 323.572 396.529 324.118 396.61L324.921 396.706C325.018 396.706 325.227 396.706 325.138 396.706C325.282 396.628 325.432 396.563 325.588 396.513C325.899 396.462 326.218 396.48 326.522 396.564C326.825 396.649 327.107 396.798 327.347 397.002C327.794 397.333 328.216 397.698 328.608 398.092C329.34 398.867 330.115 399.6 330.929 400.287C331.339 400.584 331.781 400.8 332.15 400.624C332.578 400.374 332.952 400.041 333.251 399.646C333.604 399.246 333.965 398.845 334.359 398.436C334.553 398.231 334.762 398.041 334.986 397.867C335.234 397.662 335.539 397.537 335.861 397.507C336.453 397.554 337.016 397.786 337.467 398.172C337.897 398.481 338.345 398.765 338.809 399.021C340.706 399.967 342.882 400.2 344.937 399.678C345.959 399.456 346.912 398.991 347.716 398.324C348.513 397.64 349.189 396.828 349.716 395.921C350.732 394.041 351.425 392.004 351.764 389.896C352.132 387.779 352.307 385.634 352.287 383.486C352.222 381.355 351.949 379.208 351.684 377.076C351.419 374.945 351.082 372.814 350.752 370.667C350.046 366.468 349.304 362.249 348.528 358.008Z" fill="white"/>
<path d="M286.56 462.004L290.271 470.368L265.403 483.797L257.436 476.257L286.56 462.004Z" fill="white" stroke="#2D2D30" stroke-linecap="round" stroke-linejoin="round"/>
<path d="M300.344 493.86C300.344 493.86 307.147 489.141 317.283 491.144L316.617 534.256C316.617 534.256 309.251 535.018 308.159 523.384C307.026 511.31 300.577 507.673 300.577 507.673C300.577 507.673 303.669 500.526 300.344 493.86Z" fill="white" stroke="#2D2D30" stroke-miterlimit="10"/>
<path d="M300.576 507.673C301.421 508.216 302.181 508.88 302.833 509.643C309.259 496.912 300.544 493.764 300.544 493.764L300.424 494.06C303.605 500.678 300.576 507.673 300.576 507.673Z" fill="#2D2D30"/>
<path d="M310.625 490.936L315.243 505.397L314.906 533.664" fill="white"/>
<path d="M310.625 490.936L315.243 505.397L314.906 533.664" stroke="#2D2D30" stroke-miterlimit="10" stroke-linecap="round"/>
<path d="M316.366 224.055C316.366 224.055 319.434 213.727 336.566 215.834C354.43 218.022 358.687 239.334 354.285 250.847C349.883 262.36 337.53 268.393 337.53 268.393C337.53 268.393 339.136 285.931 308.952 283.464C304.414 272.776 301.803 266.743 306.478 245.911C304.832 231.113 309.338 223.934 316.366 224.055Z" fill="#2D2D30"/>
<path d="M353.903 238.773C353.903 238.773 369.678 270.309 371.188 282.647C372.408 292.574 362.119 303.615 362.119 303.615L332.031 295.803C332.031 295.803 329.148 260.029 330.385 253.043C331.621 246.056 353.903 238.773 353.903 238.773Z" fill="#2D2D30"/>
<path d="M340.326 256.521C340.326 256.521 340.118 273.347 340.118 275.694C340.118 278.042 344.937 280.045 349.676 279.532C344.897 288.441 335.033 297.158 324.849 296.317C314.664 295.476 312.696 286.991 313.604 279.74C319.523 279.636 325.033 278.082 325.138 270.51C325.234 263.131 340.326 256.521 340.326 256.521Z" fill="white" stroke="#2D2D30" stroke-miterlimit="10"/>
<path d="M337.066 261.256L330.552 262.37C327.628 264.709 325.17 267.545 325.13 270.51C325.082 274.011 323.869 276.206 322.014 277.584C337.813 277.216 337.066 261.256 337.066 261.256Z" fill="#2D2D30"/>
<path d="M314.413 268.506C316.977 268.137 318.736 265.629 318.341 262.905C317.947 260.181 315.548 258.272 312.984 258.642C310.42 259.011 308.662 261.519 309.056 264.243C309.451 266.967 311.849 268.876 314.413 268.506Z" stroke="#60D8D2" stroke-miterlimit="10"/>
<path d="M343.868 250.816C344.423 245.872 338.567 229.84 332.053 228.286C325.539 226.732 317.146 230.377 317.146 230.377C317.146 230.377 309.555 235.297 310.865 247.05C310.142 256.44 314.246 271.503 322.455 271.599C327.274 271.655 332.64 267.425 336.832 262.642" fill="white"/>
<path d="M343.868 250.816C344.423 245.872 338.567 229.84 332.053 228.286C325.539 226.732 317.146 230.377 317.146 230.377C317.146 230.377 309.555 235.297 310.865 247.05C310.142 256.44 314.246 271.503 322.455 271.599C327.274 271.655 332.64 267.425 336.832 262.642" stroke="#2D2D30" stroke-linecap="round" stroke-linejoin="round"/>
<path d="M319.573 246.08C319.823 246.891 319.848 247.755 319.646 248.58C319.099 250.415 317.782 255.967 317.726 256.392C317.67 256.816 318.336 257.922 320.577 257.818C322.818 257.714 323.18 257.016 323.18 257.016" fill="white"/>
<path d="M319.573 246.08C319.823 246.891 319.848 247.755 319.646 248.58C319.099 250.415 317.782 255.967 317.726 256.392C317.67 256.816 318.336 257.922 320.577 257.818C322.818 257.714 323.18 257.016 323.18 257.016" stroke="#2D2D30" stroke-linecap="round" stroke-linejoin="round"/>
<path d="M317.508 260.854C317.508 260.854 323.877 260.854 325.845 260.133C324.03 263.714 320.086 264.371 317.508 260.854Z" fill="white" stroke="#2D2D30" stroke-linecap="round" stroke-linejoin="round"/>
<path d="M324.311 244.366C324.311 244.366 328.423 239.976 333.258 243.469" stroke="#2D2D30" stroke-linecap="round" stroke-linejoin="round"/>
<path d="M318.359 243.847C318.359 243.847 315.773 240.714 311.508 243.214" stroke="#2D2D30" stroke-linecap="round" stroke-linejoin="round"/>
<path d="M314.706 248.885C315.398 248.885 315.959 248.325 315.959 247.635C315.959 246.944 315.398 246.385 314.706 246.385C314.014 246.385 313.453 246.944 313.453 247.635C313.453 248.325 314.014 248.885 314.706 248.885Z" fill="#2D2D30"/>
<path d="M327.788 248.941C328.48 248.941 329.041 248.382 329.041 247.691C329.041 247.001 328.48 246.441 327.788 246.441C327.096 246.441 326.535 247.001 326.535 247.691C326.535 248.382 327.096 248.941 327.788 248.941Z" fill="#2D2D30"/>
<path d="M325.467 247.763C325.467 247.763 326.985 245.039 330.88 247.459" stroke="#2D2D30" stroke-linecap="round" stroke-linejoin="round"/>
<path d="M317.034 247.555C316.431 246.888 315.593 246.479 314.695 246.414C313.798 246.348 312.909 246.631 312.215 247.202" stroke="#2D2D30" stroke-linecap="round" stroke-linejoin="round"/>
<path d="M315.131 235.16C315.131 235.16 318.223 245.231 329.355 246.056C340.488 246.882 342.456 258.162 342.456 258.162L354.416 249.534C354.416 249.534 352.255 226.988 344.215 225.345C336.175 223.703 317.581 224.135 317.581 224.135C317.581 224.135 313.894 227.14 315.131 235.16Z" fill="#2D2D30"/>
<path d="M309.756 279.322C309.756 279.322 295.13 274.514 288.279 288.76C286.672 292.053 284.72 296.403 282.656 301.138C286.399 302.645 295.676 306.971 300.238 314.326L307.339 297.805C307.339 297.805 314.76 285.258 309.756 279.322Z" fill="white" stroke="#2D2D30" stroke-miterlimit="10"/>
<path d="M309.757 279.322L315.781 279.25C315.781 279.25 312.665 293.207 323.95 292.926C337.396 292.598 343.902 282.984 346.528 279.53C351.098 279.25 362.319 279.386 365.235 280.083C368.15 280.78 374.07 287.406 370.913 298.182C367.757 308.958 354.849 354.138 354.849 354.138H300.408V344.604C300.408 344.604 292.432 330.919 292.922 320.568C293.3 312.652 296.81 303.414 300.528 295.691" fill="white"/>
<path d="M309.757 279.322L315.781 279.25C315.781 279.25 312.665 293.207 323.95 292.926C337.396 292.598 343.902 282.984 346.528 279.53C351.098 279.25 362.319 279.386 365.235 280.083C368.15 280.78 374.07 287.406 370.913 298.182C367.757 308.958 354.849 354.138 354.849 354.138H300.408V344.604C300.408 344.604 292.432 330.919 292.922 320.568C293.3 312.652 296.81 303.414 300.528 295.691" stroke="#2D2D30" stroke-miterlimit="10" stroke-linecap="round"/>
<path d="M354.841 354.139C354.841 354.139 361.5 330.8 366.424 313.662L360.456 305.033C360.456 305.033 360.657 333.019 349.854 340.687C351.267 346.872 351.058 351.23 350.408 354.155L354.841 354.139Z" fill="#2D2D30"/>
<path d="M365.227 280.084C365.227 280.084 381.211 281.342 378.328 295.307C375.693 308.086 355.517 350.678 352.224 354.371C345.798 353.282 338.617 342.313 338.617 342.313L353.822 300.41" fill="white"/>
<path d="M365.227 280.084C365.227 280.084 381.211 281.342 378.328 295.307C375.693 308.086 355.517 350.678 352.224 354.371C345.798 353.282 338.617 342.313 338.617 342.313L353.822 300.41" stroke="#2D2D30" stroke-linecap="round" stroke-linejoin="round"/>
<path d="M352.785 303.303L350.375 309.993C351.226 310.129 363.291 312.18 369.652 319.094C371.258 315.377 372.76 311.739 374.07 308.398L352.785 303.303Z" fill="#2D2D30"/>
<path d="M354.566 298.198L350.719 309.039C354.735 309.103 365.915 309.992 371.602 314.399C374.887 306.499 377.506 299.408 378.349 295.338C381.233 281.357 365.249 280.115 365.249 280.115" fill="white"/>
<path d="M354.566 298.198L350.719 309.039C354.735 309.103 365.915 309.992 371.602 314.399C374.887 306.499 377.506 299.408 378.349 295.338C381.233 281.357 365.249 280.115 365.249 280.115" stroke="#2D2D30" stroke-linecap="round" stroke-linejoin="round"/>
<path d="M300.166 357.817C303.692 357.649 307.218 357.577 310.744 357.512C314.27 357.448 317.796 357.448 321.322 357.416C324.848 357.384 328.375 357.416 331.901 357.512L337.194 357.625C338.953 357.689 340.72 357.729 342.479 357.817C340.72 357.905 338.953 357.945 337.194 358.017L331.901 358.121C328.375 358.185 324.848 358.185 321.322 358.218C317.796 358.25 314.27 358.218 310.744 358.121C307.218 358.025 303.684 357.985 300.166 357.817Z" fill="white"/>
<path d="M354.841 349.458C354.841 349.458 350.11 360.298 342.415 358.928C334.72 357.558 295.572 341.446 295.572 341.446L297.693 334.604C297.693 334.604 323.725 339.122 332.455 339.467C338.777 339.715 346.809 340.428 346.809 340.428" fill="white"/>
<path d="M354.841 349.458C354.841 349.458 350.11 360.298 342.415 358.928C334.72 357.558 295.572 341.446 295.572 341.446L297.693 334.604C297.693 334.604 323.725 339.122 332.455 339.467C338.777 339.715 346.809 340.428 346.809 340.428" stroke="#2D2D30" stroke-linecap="round" stroke-linejoin="round"/>
<path d="M295.844 341.585C291.756 343.403 288.993 341.417 288.993 341.417C288.993 341.417 286.342 343.516 290.399 344.693C291.724 345.086 291.523 347.265 289.162 346.881C287.348 346.474 285.626 345.732 284.085 344.693C283.433 344.68 282.794 344.506 282.226 344.187C281.657 343.869 281.176 343.415 280.824 342.867C280.344 342.871 279.87 342.753 279.448 342.523C279.026 342.293 278.67 341.959 278.415 341.553C278.415 341.553 275.395 348.86 273.644 347.658C272.15 346.632 275.796 336.401 277.66 332.139C279.523 327.876 282.415 326.827 284.656 327.331C288.543 328.213 299.057 334.847 299.057 334.847" fill="white"/>
<path d="M295.844 341.585C291.756 343.403 288.993 341.417 288.993 341.417C288.993 341.417 286.342 343.516 290.399 344.693C291.724 345.086 291.523 347.265 289.162 346.881C287.348 346.474 285.626 345.732 284.085 344.693C283.433 344.68 282.794 344.506 282.226 344.187C281.657 343.869 281.176 343.415 280.824 342.867C280.344 342.871 279.87 342.753 279.448 342.523C279.026 342.293 278.67 341.959 278.415 341.553C278.415 341.553 275.395 348.86 273.644 347.658C272.15 346.632 275.796 336.401 277.66 332.139C279.523 327.876 282.415 326.827 284.656 327.331C288.543 328.213 299.057 334.847 299.057 334.847" stroke="#2D2D30" stroke-linecap="round" stroke-linejoin="round"/>
<path d="M278.383 341.552C277.88 339.8 277.88 337.944 278.383 336.192C279.258 333.412 282.616 331.777 282.616 331.777" fill="white"/>
<path d="M278.383 341.552C277.88 339.8 277.88 337.944 278.383 336.192C279.258 333.412 282.616 331.777 282.616 331.777" stroke="#2D2D30" stroke-linecap="round" stroke-linejoin="round"/>
<path d="M280.826 342.864C280.604 341.055 280.787 339.219 281.364 337.488C282.32 334.893 285.524 333.562 285.524 333.562" fill="white"/>
<path d="M280.826 342.864C280.604 341.055 280.787 339.219 281.364 337.488C282.32 334.893 285.524 333.562 285.524 333.562" stroke="#2D2D30" stroke-linecap="round" stroke-linejoin="round"/>
<path d="M284.103 344.693C283.879 343.892 283.817 343.055 283.919 342.23C284.021 341.405 284.285 340.608 284.698 339.886C285.657 338.175 287.164 336.834 288.979 336.08" fill="white"/>
<path d="M284.103 344.693C283.879 343.892 283.817 343.055 283.919 342.23C284.021 341.405 284.285 340.608 284.698 339.886C285.657 338.175 287.164 336.834 288.979 336.08" stroke="#2D2D30" stroke-linecap="round" stroke-linejoin="round"/>
<path d="M317.275 551.395V432.817L321.805 431.992L326.335 432.817V551.395L352.102 560.44H321.805H291.508L317.275 551.395Z" fill="white" stroke="#2D2D30" stroke-linecap="round" stroke-linejoin="round"/>
<path d="M317.266 432.817L321.804 432.016L326.334 432.817V448.304C323.678 444.987 320.633 441.999 317.266 439.403V432.817Z" fill="#2D2D30"/>
<path d="M363.331 433.056H280.279C278.149 433.056 276.106 432.212 274.6 430.71C273.094 429.207 272.247 427.169 272.247 425.044V421.311H371.443V425.044C371.443 426.103 371.233 427.152 370.824 428.129C370.416 429.106 369.817 429.993 369.062 430.738C368.308 431.483 367.413 432.072 366.429 432.47C365.446 432.867 364.393 433.067 363.331 433.056V433.056Z" fill="white" stroke="#2D2D30" stroke-linecap="round" stroke-linejoin="round"/>
<path d="M312.945 358.008C313.178 359.211 313.264 360.438 313.202 361.661C313.179 362.886 312.998 364.103 312.664 365.283C312.227 362.866 312.323 360.384 312.945 358.008V358.008Z" fill="white"/>
<path d="M340.968 265.837C339.697 265.944 338.433 265.563 337.434 264.771C336.435 263.98 335.777 262.837 335.594 261.578C335.412 260.319 335.719 259.037 336.452 257.996C337.185 256.954 338.289 256.231 339.538 255.975" stroke="#60D8D2" stroke-miterlimit="10" stroke-linecap="round"/>
<path d="M337.051 250.191C337.051 250.191 339.46 244.799 343.091 246.586C347.107 248.564 343.492 255.831 340.408 257.201C337.324 258.571 337.517 255.375 337.517 255.375" fill="white"/>
<path d="M337.051 250.191C337.051 250.191 339.46 244.799 343.091 246.586C347.107 248.564 343.492 255.831 340.408 257.201C337.324 258.571 337.517 255.375 337.517 255.375" stroke="#2D2D30" stroke-linecap="round" stroke-linejoin="round"/>
<path d="M339.523 255.977C340.795 255.87 342.059 256.251 343.058 257.043C344.056 257.834 344.714 258.977 344.897 260.236C345.079 261.496 344.773 262.777 344.04 263.818C343.307 264.86 342.203 265.583 340.953 265.839" stroke="#60D8D2" stroke-miterlimit="10" stroke-linecap="round"/>
<path d="M338.93 250.751C338.93 250.751 340.536 247.459 342.231 247.547Z" fill="white"/>
<path d="M338.93 250.751C338.93 250.751 340.536 247.459 342.231 247.547" stroke="#2D2D30" stroke-linecap="round" stroke-linejoin="round"/>
<path d="M132.12 520.356C132.12 520.356 131.445 502.482 129.421 495.399C127.397 488.316 125.526 483.597 125.02 480.056C124.338 475.375 122.668 470.891 120.12 466.9C117.076 462.173 116.104 457.623 114.201 453.576C112.297 449.53 112.345 450.203 110.185 447.84C108.024 445.476 108.321 442.616 105.791 442.111" stroke="#2D2D30" stroke-width="1.21" stroke-linecap="round" stroke-linejoin="round"/>
<path d="M126.883 519.346C126.883 519.346 129.758 504.34 128.738 498.772C127.718 493.203 129.758 477.187 130.602 471.619C131.445 466.051 134.321 452.062 134.995 443.289C135.341 438.834 135.501 432.328 135.501 432.328" stroke="#2D2D30" stroke-width="1.21" stroke-linecap="round" stroke-linejoin="round"/>
<path d="M134.995 519.683C134.995 519.683 137.702 512.472 137.405 499.445C137.108 486.417 135.541 466.227 134.192 463.19C132.843 460.154 134.192 456.108 132.666 452.566C131.14 449.025 128.61 442.279 127.935 437.215C127.26 432.152 128.947 428.619 129.293 425.75C129.638 422.882 128.441 416.641 128.441 416.641" stroke="#2D2D30" stroke-width="1.21" stroke-linecap="round" stroke-linejoin="round"/>
<path d="M145.308 520.555C145.308 520.555 145.645 506.558 145.308 498.971C144.97 491.383 144.633 484.806 145.139 479.574C145.972 471.79 146.141 463.951 145.645 456.139C144.97 445.723 145.476 434.378 146.488 429.491C147.5 424.604 146.32 405.543 146.32 405.543" stroke="#2D2D30" stroke-width="1.21" stroke-linecap="round" stroke-linejoin="round"/>
<path d="M149.701 520.188C149.701 520.188 152.577 504.34 152.239 498.94C151.795 493.268 151.851 487.568 152.408 481.907C153.083 474.824 154.946 464.537 154.44 461.163C153.934 457.79 153.765 448.008 153.765 448.008" stroke="#2D2D30" stroke-width="1.21" stroke-linecap="round" stroke-linejoin="round"/>
<path d="M156.978 520.019C156.978 520.019 157.782 509.731 157.653 505.349C157.524 500.966 157.484 486.969 157.147 482.579C156.81 478.188 156.802 477.018 157.95 473.477C159.099 469.936 158.288 459.648 158.288 455.049C158.288 450.45 163.693 441.733 164.882 438.529C166.071 435.324 164.545 427.736 168.432 424.908" stroke="#2D2D30" stroke-width="1.21" stroke-linecap="round" stroke-linejoin="round"/>
<path d="M106.785 443.639C106.785 443.639 106.528 441.236 105.323 440.979C104.119 440.723 97.8454 440.979 96.8254 440.731C95.8053 440.483 96.1346 438.199 93.9097 436.557C91.6848 434.914 90.8656 435.988 88.6488 434.466C86.4319 432.943 84.8496 431.934 84.3998 432.695C83.95 433.456 84.8496 433.833 88.464 437.823C92.0785 441.813 90.9299 443.071 94.1668 443.824C97.4037 444.577 105.412 444.336 106.022 444.336C106.633 444.336 106.657 444.024 106.785 443.639Z" fill="#2D2D30"/>
<path d="M128.104 417.402C128.104 417.402 129.124 417.778 129.124 416.008C129.124 414.237 128.401 411.922 128.152 409.686C127.903 407.451 127.558 403.277 127.815 402.227C128.072 401.178 128.489 394.343 128.023 392.316C127.558 390.289 127.22 389.28 126.497 389.28C125.774 389.28 123.919 387.677 124.345 392.485C124.77 397.292 125.525 397.668 125.148 400.408C124.77 403.149 123.116 404.334 123.959 406.353C124.802 408.372 125.951 409.31 125.951 411.457C125.951 413.604 126.457 417.698 128.104 417.402Z" fill="#2D2D30"/>
<path d="M134.064 429.547C134.064 429.547 134.064 433.673 136.691 432.912C139.317 432.151 140.153 428.617 140.579 426.59C141.004 424.563 141.679 411.584 141.51 410.743C141.342 409.901 139.558 407.113 138.378 406.737C137.197 406.36 134.362 413.731 134.153 417.104C133.944 420.477 134.579 426.174 134.064 429.547Z" fill="#2D2D30"/>
<path d="M144.714 370.683C144.714 370.683 145.228 376.083 144.377 378.11C143.269 380.515 142.694 383.131 142.69 385.778C142.521 389.832 142.184 394.462 142.859 396.746C143.533 399.029 144.465 400.119 144.465 402.563C144.465 405.006 145.228 406.44 147.003 406.184C148.778 405.928 147.927 381.731 147.421 374.232C146.915 366.733 146.915 366.725 145.734 366.557C144.553 366.388 144.714 367.398 144.714 370.683Z" fill="#2D2D30"/>
<path d="M154.4 448.262C154.052 448.313 153.696 448.265 153.373 448.124C153.05 447.982 152.775 447.752 152.577 447.461C151.694 446.363 152.111 439.449 151.774 437.927C151.437 436.404 151.348 425.58 151.645 423.761C151.943 421.943 152.665 417.945 153.678 417.143C154.69 416.342 155.75 416.262 155.493 419.211C155.236 422.159 155.999 429.923 155.412 434.049C154.826 438.175 155.79 447.837 154.4 448.262Z" fill="#2D2D30"/>
<path d="M174.939 419.429C174.939 419.429 172.53 423.435 171.196 425.374C169.863 427.313 168.506 428.579 167.678 427.553C166.851 426.527 167.429 425.214 167.807 423.034C168.106 420.951 168.795 418.942 169.839 417.113C171.164 414.558 173.67 408.3 176.112 408.14C178.554 407.98 177.349 411.585 177.188 413.548C176.98 415.674 176.203 417.705 174.939 419.429V419.429Z" fill="#2D2D30"/>
<path d="M110.145 516.812V531.579L129.052 560.326H155.678L174.586 531.579V516.812H110.145Z" fill="white" stroke="#2D2D30" stroke-width="1.21" stroke-linecap="round" stroke-linejoin="round"/>
<path d="M110.145 531.58H174.288" stroke="#2D2D30" stroke-width="1.21" stroke-linecap="round" stroke-linejoin="round"/>
</svg>
