<svg width="1440" height="379" viewBox="0 0 1440 379" fill="none" xmlns="http://www.w3.org/2000/svg">
<g clip-path="url(#clip0_1_639)">
<path d="M150.099 126.34H81.1992" stroke="#2D2D30" stroke-linecap="round" stroke-linejoin="round"/>
<path d="M488.96 373.04H318.27C308.835 373.011 299.794 369.25 293.122 362.578C286.45 355.906 282.689 346.866 282.66 337.43V245.43C282.689 235.995 286.45 226.954 293.122 220.282C299.794 213.61 308.835 209.849 318.27 209.82H488.96C498.396 209.849 507.436 213.61 514.108 220.282C520.78 226.954 524.541 235.995 524.57 245.43V337.43C524.541 346.866 520.78 355.906 514.108 362.578C507.436 369.25 498.396 373.011 488.96 373.04V373.04Z" stroke="#2D2D30" stroke-linecap="round" stroke-linejoin="round"/>
<path d="M421.401 321.91C485.03 321.91 536.611 270.329 536.611 206.7C536.611 143.071 485.03 91.4902 421.401 91.4902C357.773 91.4902 306.191 143.071 306.191 206.7C306.191 270.329 357.773 321.91 421.401 321.91Z" stroke="#2D2D30" stroke-linecap="round" stroke-linejoin="round"/>
<path d="M421.401 255.82C448.529 255.82 470.521 233.828 470.521 206.7C470.521 179.572 448.529 157.58 421.401 157.58C394.273 157.58 372.281 179.572 372.281 206.7C372.281 233.828 394.273 255.82 421.401 255.82Z" fill="#FF6679"/>
<path d="M421.399 212.06C424.359 212.06 426.759 209.66 426.759 206.7C426.759 203.74 424.359 201.34 421.399 201.34C418.439 201.34 416.039 203.74 416.039 206.7C416.039 209.66 418.439 212.06 421.399 212.06Z" fill="#2D2D30"/>
<path d="M478.441 153.34C476.351 154.58 474.441 160.16 474.441 160.16L420.441 206.01L420.871 207.15H420.931V207.22L421.791 207.92L476.011 162.04C476.011 162.04 481.821 161.11 483.381 159.25C484.941 157.39 492.991 145.98 492.991 145.98C492.991 145.98 480.531 152.1 478.441 153.34Z" fill="#2D2D30"/>
<path d="M424.42 207.21L396 191.11C396 191.11 399.88 184.73 392.94 180.98C386 177.23 374.94 178.98 364.09 174.39C373.64 181.32 377.82 191.7 384.61 195.71C391.4 199.72 394.87 193.11 394.87 193.11L423.12 208.83C423.461 208.222 423.9 207.675 424.42 207.21V207.21Z" fill="#2D2D30"/>
<path d="M472.41 124.08L420.32 207.59L421.47 208.01L422.35 208.85L474.29 125.25L478 117.19L472.41 124.08Z" fill="#2D2D30"/>
<path d="M509.512 257.24C510.616 257.24 511.512 256.345 511.512 255.24C511.512 254.136 510.616 253.24 509.512 253.24C508.407 253.24 507.512 254.136 507.512 255.24C507.512 256.345 508.407 257.24 509.512 257.24Z" fill="#2D2D30"/>
<path d="M333.281 160.15C334.386 160.15 335.281 159.255 335.281 158.15C335.281 157.046 334.386 156.15 333.281 156.15C332.177 156.15 331.281 157.046 331.281 158.15C331.281 159.255 332.177 160.15 333.281 160.15Z" fill="#2D2D30"/>
<path d="M474.941 293.86C476.046 293.86 476.941 292.965 476.941 291.86C476.941 290.756 476.046 289.86 474.941 289.86C473.837 289.86 472.941 290.756 472.941 291.86C472.941 292.965 473.837 293.86 474.941 293.86Z" fill="#2D2D30"/>
<path d="M367.852 123.53C368.956 123.53 369.852 122.635 369.852 121.53C369.852 120.426 368.956 119.53 367.852 119.53C366.747 119.53 365.852 120.426 365.852 121.53C365.852 122.635 366.747 123.53 367.852 123.53Z" fill="#2D2D30"/>
<path d="M369.219 294.71C370.323 294.71 371.219 293.815 371.219 292.71C371.219 291.605 370.323 290.71 369.219 290.71C368.114 290.71 367.219 291.605 367.219 292.71C367.219 293.815 368.114 294.71 369.219 294.71Z" fill="#2D2D30"/>
<path d="M473.57 122.68C474.675 122.68 475.57 121.784 475.57 120.68C475.57 119.575 474.675 118.68 473.57 118.68C472.466 118.68 471.57 119.575 471.57 120.68C471.57 121.784 472.466 122.68 473.57 122.68Z" fill="#2D2D30"/>
<path d="M332.199 255.21C333.304 255.21 334.199 254.315 334.199 253.21C334.199 252.105 333.304 251.21 332.199 251.21C331.095 251.21 330.199 252.105 330.199 253.21C330.199 254.315 331.095 255.21 332.199 255.21Z" fill="#2D2D30"/>
<path d="M510.602 162.18C511.706 162.18 512.602 161.284 512.602 160.18C512.602 159.075 511.706 158.18 510.602 158.18C509.497 158.18 508.602 159.075 508.602 160.18C508.602 161.284 509.497 162.18 510.602 162.18Z" fill="#2D2D30"/>
<path d="M417.358 96.4757V111.35H414.904V99.3873L411.27 100.619V98.5932L417.063 96.4757H417.358ZM432.446 109.395V111.35H422.509V109.67L427.335 104.406C427.864 103.809 428.282 103.293 428.587 102.859C428.893 102.425 429.106 102.034 429.228 101.688C429.357 101.335 429.422 100.992 429.422 100.66C429.422 100.192 429.334 99.781 429.157 99.4281C428.988 99.0683 428.736 98.7867 428.404 98.5831C428.071 98.3727 427.667 98.2675 427.192 98.2675C426.643 98.2675 426.181 98.3862 425.808 98.6238C425.434 98.8613 425.153 99.1905 424.963 99.6113C424.773 100.025 424.678 100.5 424.678 101.037H422.224C422.224 100.175 422.421 99.3873 422.815 98.6747C423.208 97.9552 423.778 97.3851 424.525 96.9643C425.272 96.5367 426.171 96.3229 427.223 96.3229C428.214 96.3229 429.055 96.4892 429.748 96.8218C430.44 97.1544 430.966 97.6261 431.326 98.2369C431.692 98.8478 431.875 99.5706 431.875 100.405C431.875 100.867 431.801 101.325 431.651 101.78C431.502 102.235 431.288 102.689 431.01 103.144C430.739 103.592 430.416 104.043 430.043 104.498C429.67 104.946 429.259 105.401 428.811 105.862L425.604 109.395H432.446Z" fill="#2D2D30"/>
<path d="M424 296.435H424.306V298.441H424.132C423.257 298.441 422.5 298.576 421.862 298.848C421.231 299.119 420.712 299.493 420.305 299.968C419.897 300.443 419.592 300.999 419.388 301.637C419.191 302.268 419.093 302.94 419.093 303.653V305.984C419.093 306.575 419.158 307.097 419.286 307.552C419.415 308 419.595 308.377 419.826 308.682C420.064 308.981 420.335 309.208 420.641 309.364C420.946 309.52 421.275 309.599 421.628 309.599C421.995 309.599 422.327 309.524 422.626 309.375C422.924 309.218 423.179 309.005 423.389 308.733C423.6 308.462 423.759 308.139 423.868 307.766C423.976 307.393 424.031 306.985 424.031 306.544C424.031 306.124 423.976 305.73 423.868 305.363C423.766 304.99 423.613 304.664 423.41 304.386C423.206 304.101 422.952 303.88 422.646 303.724C422.347 303.561 422.001 303.48 421.608 303.48C421.119 303.48 420.674 303.595 420.274 303.826C419.88 304.057 419.561 304.359 419.317 304.732C419.079 305.099 418.951 305.489 418.93 305.903L417.994 305.598C418.048 304.966 418.187 304.4 418.411 303.897C418.642 303.395 418.944 302.968 419.317 302.615C419.69 302.262 420.121 301.994 420.61 301.81C421.105 301.62 421.648 301.525 422.239 301.525C422.958 301.525 423.583 301.661 424.112 301.932C424.642 302.204 425.079 302.574 425.425 303.042C425.778 303.504 426.04 304.033 426.209 304.63C426.386 305.221 426.474 305.838 426.474 306.483C426.474 307.196 426.365 307.861 426.148 308.479C425.931 309.09 425.612 309.626 425.191 310.087C424.777 310.549 424.272 310.908 423.674 311.166C423.084 311.424 422.412 311.553 421.659 311.553C420.865 311.553 420.155 311.401 419.531 311.095C418.913 310.79 418.387 310.369 417.953 309.833C417.525 309.297 417.199 308.679 416.975 307.98C416.752 307.281 416.64 306.541 416.64 305.76V304.742C416.64 303.616 416.782 302.554 417.067 301.556C417.352 300.551 417.79 299.666 418.38 298.899C418.978 298.132 419.741 297.531 420.671 297.097C421.601 296.656 422.711 296.435 424 296.435Z" fill="#2D2D30"/>
<path d="M519.212 203.229H520.678C521.248 203.229 521.72 203.13 522.093 202.934C522.473 202.737 522.755 202.465 522.938 202.119C523.121 201.773 523.213 201.376 523.213 200.928C523.213 200.46 523.128 200.059 522.958 199.727C522.796 199.387 522.544 199.126 522.205 198.943C521.872 198.759 521.448 198.668 520.932 198.668C520.498 198.668 520.104 198.756 519.752 198.933C519.405 199.102 519.13 199.347 518.927 199.666C518.723 199.978 518.621 200.351 518.621 200.785H516.158C516.158 199.998 516.365 199.299 516.779 198.688C517.193 198.077 517.756 197.599 518.469 197.253C519.188 196.9 519.996 196.723 520.892 196.723C521.849 196.723 522.684 196.883 523.396 197.202C524.116 197.514 524.676 197.982 525.076 198.607C525.476 199.231 525.677 200.005 525.677 200.928C525.677 201.349 525.578 201.776 525.381 202.211C525.185 202.645 524.893 203.042 524.506 203.402C524.119 203.755 523.637 204.043 523.06 204.267C522.483 204.484 521.815 204.593 521.055 204.593H519.212V203.229ZM519.212 205.143V203.799H521.055C521.923 203.799 522.663 203.901 523.274 204.104C523.892 204.308 524.394 204.59 524.781 204.949C525.168 205.302 525.449 205.706 525.626 206.161C525.809 206.616 525.901 207.097 525.901 207.606C525.901 208.299 525.775 208.916 525.524 209.459C525.28 209.996 524.93 210.45 524.475 210.824C524.021 211.197 523.488 211.479 522.877 211.669C522.273 211.859 521.615 211.954 520.902 211.954C520.264 211.954 519.653 211.865 519.069 211.689C518.486 211.512 517.963 211.251 517.502 210.905C517.04 210.552 516.674 210.114 516.402 209.592C516.137 209.062 516.005 208.451 516.005 207.759H518.459C518.459 208.2 518.56 208.591 518.764 208.93C518.974 209.263 519.266 209.524 519.64 209.714C520.02 209.904 520.454 209.999 520.943 209.999C521.458 209.999 521.903 209.907 522.276 209.724C522.65 209.541 522.935 209.269 523.131 208.91C523.335 208.55 523.437 208.116 523.437 207.606C523.437 207.03 523.325 206.561 523.101 206.202C522.877 205.842 522.558 205.577 522.144 205.407C521.73 205.231 521.241 205.143 520.678 205.143H519.212Z" fill="#2D2D30"/>
<path d="M318.904 209.816H319.107C320.044 209.816 320.824 209.694 321.449 209.449C322.08 209.198 322.582 208.852 322.955 208.411C323.329 207.97 323.597 207.45 323.76 206.853C323.923 206.256 324.004 205.608 324.004 204.909V202.353C324.004 201.749 323.94 201.22 323.811 200.765C323.688 200.304 323.512 199.92 323.281 199.615C323.057 199.302 322.796 199.068 322.497 198.912C322.205 198.756 321.89 198.678 321.55 198.678C321.177 198.678 320.841 198.763 320.543 198.933C320.251 199.095 320.003 199.323 319.799 199.615C319.603 199.9 319.45 200.236 319.341 200.623C319.239 201.003 319.189 201.41 319.189 201.844C319.189 202.251 319.236 202.645 319.331 203.025C319.433 203.398 319.582 203.731 319.779 204.023C319.976 204.315 320.224 204.545 320.522 204.715C320.821 204.885 321.17 204.97 321.571 204.97C321.951 204.97 322.3 204.898 322.619 204.756C322.938 204.607 323.217 204.406 323.454 204.155C323.692 203.904 323.878 203.622 324.014 203.31C324.15 202.998 324.225 202.679 324.238 202.353L325.175 202.638C325.175 203.154 325.066 203.663 324.849 204.165C324.639 204.661 324.343 205.116 323.963 205.53C323.59 205.937 323.152 206.263 322.65 206.507C322.155 206.751 321.615 206.873 321.031 206.873C320.325 206.873 319.701 206.741 319.158 206.476C318.622 206.205 318.174 205.838 317.814 205.377C317.461 204.915 317.197 204.386 317.02 203.789C316.844 203.191 316.755 202.564 316.755 201.905C316.755 201.193 316.864 200.524 317.081 199.9C317.298 199.275 317.614 198.726 318.028 198.25C318.442 197.769 318.944 197.395 319.535 197.131C320.132 196.859 320.807 196.723 321.561 196.723C322.362 196.723 323.064 196.879 323.668 197.192C324.272 197.504 324.781 197.935 325.195 198.485C325.609 199.034 325.921 199.672 326.132 200.399C326.342 201.125 326.447 201.905 326.447 202.74V203.605C326.447 204.481 326.369 205.326 326.213 206.14C326.057 206.948 325.803 207.698 325.45 208.39C325.104 209.076 324.645 209.68 324.075 210.203C323.512 210.718 322.82 211.122 321.998 211.414C321.184 211.699 320.227 211.842 319.127 211.842H318.904V209.816Z" fill="#2D2D30"/>
<mask id="mask0_1_639" style="mask-type:alpha" maskUnits="userSpaceOnUse" x="282" y="160" width="244" height="214">
<path d="M489.377 373H318.623C309.184 372.962 300.14 368.077 293.466 359.411C286.792 350.746 283.029 339.003 283 326.748V207.252C283.029 194.997 286.792 183.254 293.466 174.589C300.14 165.923 309.184 161.038 318.623 161H489.377C498.816 161.038 507.86 165.923 514.534 174.589C521.209 183.254 524.971 194.997 525 207.252V326.748C524.971 339.003 521.209 350.746 514.534 359.411C507.86 368.077 498.816 372.962 489.377 373V373Z" fill="#C4C4C4" stroke="#2D2D30" stroke-width="0.91" stroke-linecap="round" stroke-linejoin="round"/>
</mask>
<g mask="url(#mask0_1_639)">
<path d="M427.689 179.98C427.689 179.98 434.809 177.64 439.689 185.9C444.569 194.16 441.249 214.25 443.529 225.21C445.809 236.17 447.089 237.03 447.089 237.03C447.089 237.03 428.719 239.17 422.879 235.03C417.039 230.89 417.039 211.67 417.039 211.67L427.689 179.98Z" fill="#2D2D30"/>
<path d="M471.209 300.91C471.209 300.91 474.469 300.56 476.039 296.36C477.609 292.16 464.289 295.86 464.289 295.86C464.289 295.86 465.209 301.52 471.209 300.91Z" fill="#2D2D30"/>
<path d="M471.911 300.45L450.122 307.72L446.602 294.58L466.432 291.37C466.432 291.37 466.211 300.52 471.911 300.45Z" fill="#ECC91A" stroke="#CC8411" stroke-width="0.59" stroke-miterlimit="10"/>
<path d="M460.213 304.32L450.083 307.72L446.562 294.58L461.652 292.28C457.752 294.17 456.313 300.46 460.213 304.32Z" fill="#CC8411"/>
<path d="M411.152 235.52C411.152 235.52 419.782 248.25 429.032 247.52C438.282 246.79 431.032 236.52 431.032 236.52L429.032 236.27V224C427.962 221.79 412.572 208.41 412.572 208.41L414.002 235.18L411.152 235.52Z" fill="white" stroke="#2D2D30" stroke-linecap="round" stroke-linejoin="round"/>
<path d="M430.11 236.32C430.11 236.32 437.81 236.75 441.51 240.88C445.21 245.01 458.21 255.69 459.88 260.52C461.55 265.35 455.21 280.52 455.21 280.52C455.21 280.52 453.65 303.02 452.51 307.86C426.01 307.86 409.21 307.58 409.21 307.58L409.49 296.47L392.68 248.04L393.68 236.93L411.77 235.51C411.77 235.51 419.46 246.9 428.77 246.19C438.08 245.48 430.11 236.32 430.11 236.32Z" fill="#ECC91A" stroke="#CC8411" stroke-width="0.59" stroke-miterlimit="10"/>
<path d="M449.91 273.929L459.67 266.729C458.564 271.441 457.072 276.053 455.21 280.519C455.21 280.519 454.21 295.159 453.21 303.369L451.8 303.159L449.91 273.929Z" fill="#CC8411"/>
<path d="M429.05 224V233.12C421.05 230.39 417.16 218.2 417.16 218.2L423 217.75C426.02 220.52 428.63 223.14 429.05 224Z" fill="#2D2D30"/>
<path d="M409.212 307.52L409.492 296.41L399.492 267.65L405.342 259.52C405.342 259.52 412.142 270.34 420.152 271.63C424.515 272.374 428.937 272.709 433.362 272.63C433.362 272.63 424.132 284.1 427.252 307.69C415.782 307.65 409.212 307.52 409.212 307.52Z" fill="#CC8411"/>
<path d="M409.032 207.84C407.892 203.21 411.462 187.25 417.442 184.98C423.422 182.71 431.822 185.12 431.822 185.12C431.822 185.12 439.622 188.86 439.822 200.18C441.672 209.01 439.642 223.82 431.822 224.93C427.302 225.57 421.652 222.22 417.092 218.2" fill="white"/>
<path d="M409.032 207.84C407.892 203.21 411.462 187.25 417.442 184.98C423.422 182.71 431.822 185.12 431.822 185.12C431.822 185.12 439.622 188.86 439.822 200.18C441.672 209.01 439.642 223.82 431.822 224.93C427.302 225.57 421.652 222.22 417.092 218.2" stroke="#2D2D30" stroke-linecap="round" stroke-linejoin="round"/>
<path d="M456.112 298.64L457.112 309.21C457.112 309.21 465.762 327.91 466.192 347.14C466.622 366.37 479.012 416.79 477.302 422.34C475.592 427.89 459.302 504.34 459.302 504.34C449.762 506.521 439.785 505.779 430.672 502.21C432.812 475.29 442.212 424.87 442.212 424.87L427.212 365.87L408.402 311.6L409.402 296.36C409.402 296.36 449.062 296.93 456.112 298.64Z" fill="#2D2D30"/>
<path d="M459.951 338.06C459.951 338.06 451.301 333.57 444.891 345.75C438.481 357.93 427.591 366.9 427.591 422.98C425.341 470.41 422.991 503.1 422.991 503.1C422.991 503.1 417.291 507.23 398.921 502.82C398.491 471.91 395.221 364.01 395.221 354.4C395.221 344.79 393.401 322.78 408.461 311.67" fill="#2D2D30"/>
<path d="M459.95 338.06C455.61 336.25 450.71 338.2 447.95 341.78C445.19 345.36 443.32 349.65 440.95 353.46C436.326 361.339 432.99 369.907 431.07 378.84C431.792 374.306 432.903 369.843 434.39 365.5C436.56 358.94 440.22 353.03 443.75 347.15C446.75 340.97 452.61 334.64 460.01 338.06H459.95Z" fill="white"/>
<path d="M442.062 280.71L444.782 276.38L447.613 273.16C447.613 273.16 451.222 270.05 451.782 270.27C452.342 270.49 451.893 272.88 449.563 274.77C448.897 275.981 448.054 277.087 447.063 278.05L444.213 282.82" fill="white"/>
<path d="M442.062 280.71L444.782 276.38L447.613 273.16C447.613 273.16 451.222 270.05 451.782 270.27C452.342 270.49 451.893 272.88 449.563 274.77C448.897 275.981 448.054 277.087 447.063 278.05L444.213 282.82" stroke="#2D2D30" stroke-linecap="round" stroke-linejoin="round"/>
<path d="M439.449 296.93C441.485 295.508 443.129 293.596 444.229 291.37C445.779 287.93 449.339 286.54 448.949 284.49C448.559 282.44 443.229 287.93 440.229 288.65" fill="white"/>
<path d="M439.449 296.93C441.485 295.508 443.129 293.596 444.229 291.37C445.779 287.93 449.339 286.54 448.949 284.49C448.559 282.44 443.229 287.93 440.229 288.65" stroke="#2D2D30" stroke-linecap="round" stroke-linejoin="round"/>
<path d="M433.212 297.71C433.212 297.71 438.702 299.71 440.922 296.26C443.142 292.81 443.482 285.99 443.482 285.99L445.372 281.49C445.372 281.49 452.642 279.38 451.922 276.83C450.812 276.55 444.702 279.16 442.422 279.38C441.092 281.05 434.651 289.38 434.651 289.38H428.212L428.102 297.66L433.212 297.71Z" fill="white" stroke="#2D2D30" stroke-linecap="round" stroke-linejoin="round"/>
<path d="M407.041 260.96C404.066 269.855 400.447 278.521 396.211 286.89C399.97 286.899 403.724 287.146 407.451 287.63C411.131 288.33 433.761 288.54 433.761 288.54L433.121 299.9C433.121 299.9 400.061 304.26 393.011 304.98C385.961 305.7 378.481 304.26 376.201 300.42C375.608 296.36 375.95 292.218 377.201 288.31C378.551 283.47 383.201 259.22 384.541 252.92C385.881 246.62 387.171 238.17 393.651 236.92" fill="#ECC91A"/>
<path d="M407.041 260.96C404.066 269.855 400.447 278.521 396.211 286.89C399.97 286.899 403.724 287.146 407.451 287.63C411.131 288.33 433.761 288.54 433.761 288.54L433.121 299.9C433.121 299.9 400.061 304.26 393.011 304.98C385.961 305.7 378.481 304.26 376.201 300.42C375.608 296.36 375.95 292.218 377.201 288.31C378.551 283.47 383.201 259.22 384.541 252.92C385.881 246.62 387.171 238.17 393.651 236.92" stroke="#CC8411" stroke-width="0.59" stroke-miterlimit="10" stroke-linecap="round"/>
<path d="M475.342 288.89H471.512V286.12H474.882V277.89H471.512V275.12H475.342C475.954 275.123 476.54 275.367 476.972 275.8C477.405 276.232 477.649 276.818 477.652 277.43V286.59C477.649 287.201 477.404 287.786 476.972 288.217C476.539 288.648 475.953 288.89 475.342 288.89V288.89Z" fill="white" stroke="#2D2D30" stroke-linecap="round" stroke-linejoin="round"/>
<path d="M473.05 275.94C473.47 275.69 476.13 276.74 477.64 277.37C477.64 277.37 477.64 277.37 477.64 277.43V286.59C477.638 286.936 477.559 287.277 477.409 287.589C477.258 287.9 477.04 288.174 476.77 288.39L473.47 286.66L473.41 286.12H474.87V277.89H472.68C472.69 277 472.76 276.1 473.05 275.94Z" fill="#2D2D30"/>
<path d="M455.723 271.16H472.003V288.92C472.003 289.745 471.675 290.536 471.092 291.119C470.509 291.702 469.717 292.03 468.893 292.03H458.893C458.068 292.03 457.277 291.702 456.694 291.119C456.11 290.536 455.783 289.745 455.783 288.92V271.16H455.723Z" fill="white" stroke="#2D2D30" stroke-linecap="round" stroke-linejoin="round"/>
<path d="M471.939 278.3C466.558 278.721 461.151 278.721 455.77 278.3V277.14C461.151 277.567 466.558 277.567 471.939 277.14V278.3Z" stroke="#2D2D30" stroke-linecap="round" stroke-linejoin="round"/>
<path d="M471.939 284.379C466.558 284.807 461.151 284.807 455.77 284.379V283.229C461.151 283.657 466.558 283.657 471.939 283.229V284.379Z" stroke="#2D2D30" stroke-linecap="round" stroke-linejoin="round"/>
<path d="M461.209 287.6C461.589 285.8 463.779 286.23 463.779 286.23C463.54 285.757 463.416 285.235 463.416 284.705C463.416 284.175 463.54 283.653 463.779 283.18C464.459 281.7 470.059 282.63 471.999 283.01V290.18C471.999 290.671 471.804 291.141 471.457 291.488C471.111 291.835 470.64 292.03 470.149 292.03H461.209C461.479 291.37 462.009 290.34 462.009 290.34C461.636 290.002 461.364 289.567 461.223 289.083C461.082 288.599 461.077 288.086 461.209 287.6Z" fill="#2D2D30"/>
<path d="M478.211 288.52C478.211 288.52 478.801 282.91 478.121 281.52C477.441 280.13 473.961 277.35 473.451 277.35C472.941 277.35 472.68 280.92 475.15 282.62C475.16 283.642 474.988 284.658 474.641 285.62C474.641 285.62 465.371 283.15 464.441 283.83C463.511 284.51 465.631 286.55 466.821 286.98C468.011 287.41 472.681 288.98 472.681 288.98C472.681 288.98 464.011 287.62 462.911 287.62C461.811 287.62 462.061 288.9 463.841 290.26C464.101 291.96 467.501 293.49 467.501 293.49C467.501 293.49 467.381 297.38 469.881 298.68C472.001 299.78 473.49 298.51 475.4 296.34C477.04 294.48 477.91 293.23 477.4 292.04C477.764 291.537 478.023 290.966 478.162 290.362C478.301 289.757 478.318 289.131 478.211 288.52V288.52Z" fill="white" stroke="#2D2D30" stroke-linecap="round" stroke-linejoin="round"/>
<path d="M463.883 290.25C463.883 290.25 470.713 291.61 472.883 292.77Z" fill="white"/>
<path d="M463.883 290.25C463.883 290.25 470.713 291.61 472.883 292.77" stroke="#2D2D30" stroke-linecap="round" stroke-linejoin="round"/>
<path d="M472.723 288.97C472.723 288.97 474.453 289.6 475.363 289.97Z" fill="white"/>
<path d="M472.723 288.97C472.723 288.97 474.453 289.6 475.363 289.97" stroke="#2D2D30" stroke-linecap="round" stroke-linejoin="round"/>
<path d="M474.68 285.66C475.421 286 476.119 286.426 476.76 286.93Z" fill="white"/>
<path d="M474.68 285.66C475.421 286 476.119 286.426 476.76 286.93" stroke="#2D2D30" stroke-linecap="round" stroke-linejoin="round"/>
<path d="M431.472 200.33C431.33 201.134 431.413 201.961 431.712 202.72C432.462 204.39 434.392 209.51 434.492 209.9C434.592 210.29 434.102 211.43 431.972 211.61C429.842 211.79 429.402 211.18 429.402 211.18" fill="white"/>
<path d="M431.472 200.33C431.33 201.134 431.413 201.961 431.712 202.72C432.462 204.39 434.392 209.51 434.492 209.9C434.592 210.29 434.102 211.43 431.972 211.61C429.842 211.79 429.402 211.18 429.402 211.18" stroke="#2D2D30" stroke-linecap="round" stroke-linejoin="round"/>
<path d="M435.211 214.11C435.211 214.11 429.211 214.91 427.211 214.46C429.431 217.64 433.211 217.77 435.211 214.11Z" fill="white" stroke="#2D2D30" stroke-linecap="round" stroke-linejoin="round"/>
<path d="M426.762 199.29C426.762 199.29 422.322 195.63 418.172 199.55" stroke="#2D2D30" stroke-linecap="round" stroke-linejoin="round"/>
<path d="M432.34 198.06C432.34 198.06 434.4 194.77 438.75 196.62" stroke="#2D2D30" stroke-linecap="round" stroke-linejoin="round"/>
<path d="M432.89 185.26C432.89 185.26 421.76 193.11 418.58 201.74C417.21 205.45 411.81 228.92 424.35 235.74C406.75 238.88 394.92 238.14 392.52 226.13C390.385 214.82 392.73 203.123 399.06 193.51C404.62 185.39 409.28 179.73 414.13 177.59C418.98 175.45 426.85 177.17 429.76 180.69C430.916 182.133 431.962 183.661 432.89 185.26V185.26Z" fill="#2D2D30"/>
<path d="M436.27 202.42C436.933 202.42 437.47 201.882 437.47 201.22C437.47 200.557 436.933 200.02 436.27 200.02C435.608 200.02 435.07 200.557 435.07 201.22C435.07 201.882 435.608 202.42 436.27 202.42Z" fill="#2D2D30"/>
<path d="M423.88 204.08C424.542 204.08 425.08 203.542 425.08 202.88C425.08 202.217 424.542 201.68 423.88 201.68C423.217 201.68 422.68 202.217 422.68 202.88C422.68 203.542 423.217 204.08 423.88 204.08Z" fill="#2D2D30"/>
<path d="M408.73 307.639C416.59 305.639 424.73 305.509 432.85 305.639C440.931 305.888 448.986 306.68 456.96 308.009C440.96 306.749 424.71 305.199 408.73 307.629V307.639Z" fill="white"/>
<path d="M426.092 202.67C426.092 202.67 424.312 200.26 420.922 203.04" stroke="#2D2D30" stroke-linecap="round" stroke-linejoin="round"/>
<path d="M434.031 201.43C434.519 200.711 435.269 200.21 436.12 200.035C436.972 199.859 437.858 200.022 438.591 200.49" stroke="#2D2D30" stroke-linecap="round" stroke-linejoin="round"/>
<path d="M404.031 269.41C400.281 279.02 396.432 287.03 396.432 287.03C396.432 287.03 390.232 286.6 385.602 289.34C396.002 283.04 399.351 277.63 404.031 269.41Z" fill="#CC8411"/>
<path d="M448.623 306.76C448.403 314.6 448.382 322.87 447.562 330.69C448.113 322.85 447.842 314.6 447.782 306.76H448.623Z" fill="white"/>
<path d="M443.289 349.91C448.289 371.99 453.539 395.97 457.889 418.1C458.219 420.25 458.889 422.46 458.679 424.67C456.769 438.97 453.179 455.44 450.399 469.67L446.809 486.73C449.899 469.24 455.549 441.83 457.879 424.57C458.079 422.44 457.399 420.34 457.069 418.22C453.229 398.37 447.289 369.99 443.289 349.88V349.91Z" fill="white"/>
</g>
<path d="M201.662 126.45H79.7617C46.6246 126.45 19.7617 153.313 19.7617 186.45V229.64C19.7617 262.777 46.6246 289.64 79.7617 289.64H201.662C234.799 289.64 261.662 262.777 261.662 229.64V186.45C261.662 153.313 234.799 126.45 201.662 126.45Z" stroke="#2D2D30" stroke-linecap="round" stroke-linejoin="round"/>
<path d="M75.3616 126.34H67.8516" stroke="#2D2D30" stroke-linecap="round" stroke-linejoin="round"/>
<path d="M266.648 172.16C284.46 172.16 298.898 157.721 298.898 139.91C298.898 122.099 284.46 107.66 266.648 107.66C248.837 107.66 234.398 122.099 234.398 139.91C234.398 157.721 248.837 172.16 266.648 172.16Z" stroke="#ECC91A" stroke-width="15.54" stroke-miterlimit="10"/>
<path d="M72.0686 89.4902H6.26859C3.52926 89.4902 1.30859 91.7109 1.30859 94.4502V167.76C1.30859 170.5 3.52926 172.72 6.26859 172.72H72.0686C74.8079 172.72 77.0286 170.5 77.0286 167.76V94.4502C77.0286 91.7109 74.8079 89.4902 72.0686 89.4902Z" fill="white" stroke="#2D2D30" stroke-linejoin="round"/>
<path d="M72.0686 89.4902H6.26859C3.52926 89.4902 1.30859 91.7109 1.30859 94.4502V163.44C1.30859 166.18 3.52926 168.4 6.26859 168.4H72.0686C74.8079 168.4 77.0286 166.18 77.0286 163.44V94.4502C77.0286 91.7109 74.8079 89.4902 72.0686 89.4902Z" fill="white" stroke="#2D2D30" stroke-linejoin="round"/>
<path d="M65.0117 163.89H4.26172C3.87061 163.898 3.48182 163.828 3.11816 163.684C2.75451 163.54 2.42331 163.324 2.14392 163.051C1.86453 162.777 1.64258 162.45 1.49109 162.089C1.3396 161.729 1.26164 161.341 1.26172 160.95V92.4302C1.27743 91.645 1.60034 90.8973 2.16125 90.3476C2.72217 89.7979 3.47636 89.4901 4.26172 89.4902H74.0917C74.8714 89.4902 75.6192 89.8 76.1705 90.3514C76.7219 90.9027 77.0316 91.6505 77.0316 92.4302V154.59L65.0117 163.89Z" fill="white" stroke="#2D2D30" stroke-linejoin="round"/>
<path d="M68.2095 158.93L65.8395 160.18C65.4155 160.398 64.9459 160.511 64.4695 160.51H10.2095C9.82339 160.51 9.44105 160.434 9.08435 160.287C8.72765 160.139 8.40362 159.922 8.13062 159.649C7.85761 159.376 7.64103 159.052 7.49329 158.695C7.34554 158.339 7.26953 157.956 7.26953 157.57V115.36C7.26937 114.575 7.57713 113.821 8.12683 113.26C8.67653 112.699 9.42427 112.376 10.2095 112.36H68.2095C68.9947 112.376 69.7424 112.699 70.2921 113.26C70.8418 113.821 71.1496 114.575 71.1494 115.36V153.24C71.1501 153.639 71.0684 154.034 70.9094 154.4L69.5895 157.48C69.3154 158.112 68.8265 158.625 68.2095 158.93Z" fill="white" stroke="#2D2D30" stroke-linejoin="round"/>
<path d="M16.8086 112.42V160.61" stroke="#2D2D30" stroke-linejoin="round"/>
<path d="M25.8281 112.42V160.61" stroke="#2D2D30" stroke-linejoin="round"/>
<path d="M34.8516 112.42V160.61" stroke="#2D2D30" stroke-linejoin="round"/>
<path d="M43.8711 112.42V160.61" stroke="#2D2D30" stroke-linejoin="round"/>
<path d="M52.8906 112.42V160.61" stroke="#2D2D30" stroke-linejoin="round"/>
<path d="M61.8984 112.42V160.61" stroke="#2D2D30" stroke-linejoin="round"/>
<path d="M7.23047 122.56H71.1105" stroke="#2D2D30" stroke-linejoin="round"/>
<path d="M7.23047 131.96H71.1105" stroke="#2D2D30" stroke-linejoin="round"/>
<path d="M7.23047 141.35H71.1105" stroke="#2D2D30" stroke-linejoin="round"/>
<path d="M7.23047 150.74H71.1105" stroke="#2D2D30" stroke-linejoin="round"/>
<path d="M65.0117 163.89L77.0117 154.59L68.4116 153.369C67.9976 153.319 67.5778 153.356 67.1787 153.477C66.7797 153.598 66.4103 153.801 66.0941 154.073C65.7779 154.345 65.5219 154.68 65.3424 155.056C65.1629 155.433 65.0639 155.843 65.0516 156.26L65.0117 163.89Z" fill="white" stroke="#2D2D30" stroke-linejoin="round"/>
<path d="M6.26859 89.4902H72.0686C73.3947 89.4902 74.6665 90.017 75.6041 90.9547C76.5418 91.8924 77.0686 93.1642 77.0686 94.4902V107.19H1.30859V94.4502C1.31905 93.138 1.84498 91.8825 2.7729 90.9545C3.70082 90.0266 4.95635 89.5007 6.26859 89.4902V89.4902Z" fill="#8AC186" stroke="#2D2D30" stroke-linejoin="round"/>
<path d="M11.7508 85.6699H11.7408C10.3932 85.6699 9.30078 86.7623 9.30078 88.1099V93.3799C9.30078 94.7275 10.3932 95.8199 11.7408 95.8199H11.7508C13.0984 95.8199 14.1908 94.7275 14.1908 93.3799V88.1099C14.1908 86.7623 13.0984 85.6699 11.7508 85.6699Z" fill="white" stroke="#2D2D30" stroke-linejoin="round"/>
<path d="M25.4617 85.6699H25.4517C24.1041 85.6699 23.0117 86.7623 23.0117 88.1099V93.3799C23.0117 94.7275 24.1041 95.8199 25.4517 95.8199H25.4617C26.8093 95.8199 27.9017 94.7275 27.9017 93.3799V88.1099C27.9017 86.7623 26.8093 85.6699 25.4617 85.6699Z" fill="white" stroke="#2D2D30" stroke-linejoin="round"/>
<path d="M39.1805 85.6699H39.1705C37.8229 85.6699 36.7305 86.7623 36.7305 88.1099V93.3799C36.7305 94.7275 37.8229 95.8199 39.1705 95.8199H39.1805C40.528 95.8199 41.6205 94.7275 41.6205 93.3799V88.1099C41.6205 86.7623 40.528 85.6699 39.1805 85.6699Z" fill="white" stroke="#2D2D30" stroke-linejoin="round"/>
<path d="M52.8914 85.6699H52.8814C51.5338 85.6699 50.4414 86.7623 50.4414 88.1099V93.3799C50.4414 94.7275 51.5338 95.8199 52.8814 95.8199H52.8914C54.239 95.8199 55.3314 94.7275 55.3314 93.3799V88.1099C55.3314 86.7623 54.239 85.6699 52.8914 85.6699Z" fill="white" stroke="#2D2D30" stroke-linejoin="round"/>
<path d="M66.6102 85.6699H66.6002C65.2526 85.6699 64.1602 86.7623 64.1602 88.1099V93.3799C64.1602 94.7275 65.2526 95.8199 66.6002 95.8199H66.6102C67.9577 95.8199 69.0502 94.7275 69.0502 93.3799V88.1099C69.0502 86.7623 67.9577 85.6699 66.6102 85.6699Z" fill="white" stroke="#2D2D30" stroke-linejoin="round"/>
<path d="M3.16016 102.4H4.63016" stroke="#2D2D30" stroke-linejoin="round"/>
<path d="M7.62891 102.4H72.2089" stroke="#2D2D30" stroke-linejoin="round" stroke-dasharray="3 3"/>
<path d="M73.7109 102.4H75.1809" stroke="#2D2D30" stroke-linejoin="round"/>
<path d="M54.4492 127.82L56.0792 129.95L59.9592 124.44" stroke="#8AC186" stroke-width="0.62" stroke-linejoin="round"/>
<path d="M27.5195 146.36L29.1495 148.49L33.0295 142.98" stroke="#8AC186" stroke-width="0.62" stroke-linejoin="round"/>
<mask id="mask1_1_639" style="mask-type:alpha" maskUnits="userSpaceOnUse" x="19" y="84" width="244" height="207">
<path d="M201.975 85H80.0248C46.874 85 20 118.745 20 160.372V214.628C20 256.255 46.874 290 80.0248 290H201.975C235.126 290 262 256.255 262 214.628V160.372C262 118.745 235.126 85 201.975 85Z" fill="#C4C4C4" stroke="#2D2D30" stroke-width="0.91" stroke-linecap="round" stroke-linejoin="round"/>
</mask>
<g mask="url(#mask1_1_639)">
<path d="M134.508 159.83C134.508 159.83 127.838 160.59 124.088 178.94C121.168 193.25 116.008 223.79 116.008 223.79C116.008 223.79 117.498 240.46 125.718 240.57C133.938 240.68 136.378 232 136.378 232L144.898 183.84" fill="white"/>
<path d="M134.508 159.83C134.508 159.83 127.838 160.59 124.088 178.94C121.168 193.25 116.008 223.79 116.008 223.79C116.008 223.79 117.498 240.46 125.718 240.57C133.938 240.68 136.378 232 136.378 232L144.898 183.84" stroke="#2D2D30" stroke-linecap="round" stroke-linejoin="round"/>
<path d="M134.59 181.92L133.18 218.09L149.14 218.49L134.59 181.92Z" fill="#2D2D30"/>
<path d="M124.087 178.941C123.447 182.081 122.577 185.991 121.617 190.171L143.987 197.891L147.117 183.891L134.507 159.891C134.507 159.891 127.837 160.591 124.087 178.941Z" fill="#8AC186" stroke="#355432" stroke-width="0.62" stroke-linecap="round" stroke-linejoin="round"/>
<path d="M140.458 196.68L134.588 181.92L134.098 194.48L140.458 196.68Z" fill="#355432"/>
<path d="M136.838 229.77C136.838 229.77 137.068 242.05 126.388 242.05C115.708 242.05 106.388 219.9 106.388 219.9C100.248 206.9 87.3281 172.31 87.3281 172.31L96.0481 168.04C103.668 181.22 122.618 206.72 128.938 215.15" fill="white"/>
<path d="M136.838 229.77C136.838 229.77 137.068 242.05 126.388 242.05C115.708 242.05 106.388 219.9 106.388 219.9C100.248 206.9 87.3281 172.31 87.3281 172.31L96.0481 168.04C103.668 181.22 122.618 206.72 128.938 215.15" stroke="#2D2D30" stroke-linejoin="round"/>
<path d="M96.2075 168.59C96.2075 168.59 93.8975 159.1 93.7275 158.53C93.0664 157.261 92.3421 156.026 91.5575 154.83L86.0075 154.75C86.0075 154.75 83.8075 154.85 83.0075 155.97C82.2075 157.09 80.3775 159.61 80.0675 160.26C79.7575 160.91 80.0675 166.11 80.0675 166.11C80.0675 166.11 84.6275 172.11 87.9775 172.78" fill="white"/>
<path d="M96.2075 168.59C96.2075 168.59 93.8975 159.1 93.7275 158.53C93.0664 157.261 92.3421 156.026 91.5575 154.83L86.0075 154.75C86.0075 154.75 83.8075 154.85 83.0075 155.97C82.2075 157.09 80.3775 159.61 80.0675 160.26C79.7575 160.91 80.0675 166.11 80.0675 166.11C80.0675 166.11 84.6275 172.11 87.9775 172.78" stroke="#2D2D30" stroke-linecap="round" stroke-linejoin="round"/>
<path d="M92.2086 158.861C92.2086 158.861 89.2885 152.4 86.9085 150.69C84.5285 148.98 78.0885 143.58 76.4085 142.96C74.7285 142.34 73.6186 143.79 75.0086 145.74C76.3986 147.69 83.4385 153.4 84.5385 155C85.4027 156.371 86.1616 157.805 86.8086 159.291" fill="white"/>
<path d="M92.2086 158.861C92.2086 158.861 89.2885 152.4 86.9085 150.69C84.5285 148.98 78.0885 143.58 76.4085 142.96C74.7285 142.34 73.6186 143.79 75.0086 145.74C76.3986 147.69 83.4385 153.4 84.5385 155C85.4027 156.371 86.1616 157.805 86.8086 159.291" stroke="#2D2D30" stroke-linejoin="round"/>
<path d="M96.2085 168.59C96.2085 168.59 95.8084 159.06 95.5384 158.14C95.0984 156.69 91.4685 152 91.1285 151.82C90.7885 151.64 87.3885 154.24 85.6385 154.95C83.8885 155.66 86.7685 157.5 88.8285 156.89L90.8785 156.28C90.8785 156.28 87.6585 162.64 90.9785 168.17" fill="white"/>
<path d="M96.2085 168.59C96.2085 168.59 95.8084 159.06 95.5384 158.14C95.0984 156.69 91.4685 152 91.1285 151.82C90.7885 151.64 87.3885 154.24 85.6385 154.95C83.8885 155.66 86.7685 157.5 88.8285 156.89L90.8785 156.28C90.8785 156.28 87.6585 162.64 90.9785 168.17" stroke="#2D2D30" stroke-linejoin="round"/>
<path d="M78.2075 160.24C77.5873 161.334 77.142 162.519 76.8875 163.75C76.7675 165.09 78.9675 167.46 80.1975 167.84C81.2616 168.251 82.4226 168.341 83.5374 168.1C84.0974 167.79 84.4675 165.91 84.4675 165.91L78.2075 160.24Z" fill="white" stroke="#2D2D30" stroke-linejoin="round"/>
<path d="M80.0075 156.21C80.0075 156.21 77.7575 158.33 77.6275 159.3C77.4975 160.27 78.6275 162.86 79.0875 163.57C79.5475 164.28 83.3075 166.64 84.5975 166.57C85.8875 166.5 87.9475 164.57 87.2575 163.49C86.5675 162.41 80.0075 156.21 80.0075 156.21Z" fill="white" stroke="#2D2D30" stroke-linejoin="round"/>
<path d="M82.9689 153.721C81.7914 154.244 80.6747 154.894 79.639 155.661C78.979 156.351 80.3389 159.661 80.7189 160.731C81.0989 161.801 86.1189 165.081 87.2489 164.501C88.3789 163.921 88.9089 163.201 88.8589 162.401C88.7412 161.492 88.5743 160.591 88.3589 159.701L86.2889 159.201L86.0389 159.831L83.9589 158.281L85.639 157.031" fill="white"/>
<path d="M82.9689 153.721C81.7914 154.244 80.6747 154.894 79.639 155.661C78.979 156.351 80.3389 159.661 80.7189 160.731C81.0989 161.801 86.1189 165.081 87.2489 164.501C88.3789 163.921 88.9089 163.201 88.8589 162.401C88.7412 161.492 88.5743 160.591 88.3589 159.701L86.2889 159.201L86.0389 159.831L83.9589 158.281L85.639 157.031" stroke="#2D2D30" stroke-linejoin="round"/>
<path d="M157.529 133.33L157.749 150.45C157.749 150.45 151.639 169.77 169.119 169.32C186.599 168.87 179.339 147.52 179.339 147.52L173.989 128.2L170.249 118.2L157.529 133.33Z" fill="white" stroke="#2D2D30" stroke-linecap="round" stroke-linejoin="round"/>
<path d="M157.689 145.38C165.799 139.47 165.559 129.69 165.559 129.69L159.559 130.95L157.559 133.33L157.689 145.38Z" fill="#2D2D30"/>
<path d="M145.5 257.161L116.16 333.651H152.52L184.8 278.491L201.77 266.981L203.28 253.641" fill="#2D2D30"/>
<path d="M203.488 253.391C203.488 253.391 213.888 280.461 201.768 331.821H167.828L165.398 283.341L158.738 281.521" fill="#2D2D30"/>
<path d="M167.828 331.82C166.638 315.68 165.828 299.52 165.248 283.34L165.358 283.48L158.738 281.48L165.438 283.15H165.548V283.26C166.548 299.41 167.398 315.57 167.818 331.75L167.828 331.82Z" fill="white"/>
<path d="M134.531 180.99C137.831 209.44 145.711 257.27 145.711 257.27C145.711 257.27 187.531 261.21 203.281 253.64C205.711 201.97 208.641 145.71 208.641 145.71L180.561 147.42L170.481 154.77L166.311 162.12L161.311 154.24L156.031 151.04C150.961 152.78 136.381 157.7 133.641 160.2" fill="#8AC186"/>
<path d="M134.531 180.99C137.831 209.44 145.711 257.27 145.711 257.27C145.711 257.27 187.531 261.21 203.281 253.64C205.711 201.97 208.641 145.71 208.641 145.71L180.561 147.42L170.481 154.77L166.311 162.12L161.311 154.24L156.031 151.04C150.961 152.78 136.381 157.7 133.641 160.2" stroke="#355432" stroke-width="0.62" stroke-linecap="round" stroke-linejoin="round"/>
<path d="M199.797 186.59L196.617 234.09C199.487 240.367 201.718 246.916 203.277 253.64C204.277 233.54 205.277 212.76 206.137 194.85L199.797 186.59Z" fill="#355432"/>
<path d="M168.278 121.97C168.278 121.97 175.398 118.43 174.698 107.22C173.998 96.0104 163.108 86.7903 149.418 93.5603C149.418 93.5603 140.558 99.3903 141.508 115.45C138.508 123.33 138.378 124.8 142.508 124.8C142.508 124.8 141.298 138.03 150.288 138.48C157.518 138.85 164.128 133.28 166.288 129.64" fill="white"/>
<path d="M168.278 121.97C168.278 121.97 175.398 118.43 174.698 107.22C173.998 96.0104 163.108 86.7903 149.418 93.5603C149.418 93.5603 140.558 99.3903 141.508 115.45C138.508 123.33 138.378 124.8 142.508 124.8C142.508 124.8 141.298 138.03 150.288 138.48C157.518 138.85 164.128 133.28 166.288 129.64" stroke="#2D2D30" stroke-linecap="round" stroke-linejoin="round"/>
<path d="M168.278 114.04C167.295 114.216 166.412 114.754 165.805 115.548C165.198 116.342 164.91 117.335 164.999 118.33C163.229 118.33 162.778 118.33 162.778 118.33L162.629 111.76C162.629 111.76 155.448 107.93 156.358 100.25C156.358 100.25 140.818 103.72 139.488 96.0303C138.358 89.4403 143.428 85.0303 143.428 85.0303C143.428 85.0303 145.429 88.0303 150.509 87.4003C153.409 87.0303 172.428 84.1703 175.658 94.4703C175.658 94.4703 184.658 97.0003 177.068 117.91C175.878 121.21 174.848 122.91 174.448 128.61C173.361 128.322 172.308 127.916 171.308 127.4C171.308 127.4 172.828 114.52 168.278 114.04Z" fill="#2D2D30"/>
<path d="M166.41 116.04C166.41 116.04 168.65 110.26 172.83 112.25C177.01 114.24 171.32 123.65 169.03 124.32C166.74 124.99 166.49 122.06 166.49 122.06" fill="white"/>
<path d="M166.41 116.04C166.41 116.04 168.65 110.26 172.83 112.25C177.01 114.24 171.32 123.65 169.03 124.32C166.74 124.99 166.49 122.06 166.49 122.06" stroke="#2D2D30" stroke-linecap="round" stroke-linejoin="round"/>
<path d="M167.59 117.611C167.59 117.611 169.26 113.511 171.72 113.721Z" fill="white"/>
<path d="M167.59 117.611C167.59 117.611 169.26 113.511 171.72 113.721" stroke="#2D2D30" stroke-linecap="round" stroke-linejoin="round"/>
<path d="M142.578 110.521C142.578 110.521 145.398 108.101 149.338 110.831Z" fill="white"/>
<path d="M142.578 110.521C142.578 110.521 145.398 108.101 149.338 110.831" stroke="#2D2D30" stroke-linecap="round" stroke-linejoin="round"/>
<path d="M143.277 113.33L146.407 115.2" stroke="#2D2D30" stroke-linecap="round" stroke-linejoin="round"/>
<path d="M143.91 116.461C144.148 116.461 144.34 115.829 144.34 115.051C144.34 114.272 144.148 113.641 143.91 113.641C143.673 113.641 143.48 114.272 143.48 115.051C143.48 115.829 143.673 116.461 143.91 116.461Z" fill="#2D2D30"/>
<path d="M144.758 129.521C144.758 129.521 147.978 129.521 148.548 127.021Z" fill="white"/>
<path d="M144.758 129.521C144.758 129.521 147.978 129.521 148.548 127.021" stroke="#2D2D30" stroke-linecap="round" stroke-linejoin="round"/>
<path d="M199.027 186.31C203.547 202.78 208.877 224.82 211.567 227.68C215.627 232 225.377 233.14 228.287 227.5C231.197 221.86 222.817 177.15 220.897 164.59" fill="white"/>
<path d="M199.027 186.31C203.547 202.78 208.877 224.82 211.567 227.68C215.627 232 225.377 233.14 228.287 227.5C231.197 221.86 222.817 177.15 220.897 164.59" stroke="#2D2D30" stroke-linecap="round" stroke-linejoin="round"/>
<path d="M198.738 185.61C199.298 187.61 199.878 189.78 200.458 191.96L224.278 184.96C222.868 176.36 221.528 168.71 220.898 164.56C220.048 159.03 217.378 145.46 208.278 145.69" fill="#8AC186"/>
<path d="M198.738 185.61C199.298 187.61 199.878 189.78 200.458 191.96L224.278 184.96C222.868 176.36 221.528 168.71 220.898 164.56C220.048 159.03 217.378 145.46 208.278 145.69" stroke="#355432" stroke-width="0.62" stroke-linejoin="round"/>
<path d="M228.839 219.39C228.839 219.39 230.459 228.39 227.329 231.31C224.199 234.23 206.519 235.66 190.459 234.65C174.399 233.64 155.099 232.93 155.099 232.93C155.099 232.93 153.099 225.86 154.999 224.65C178.639 222.32 212.679 216.36 214.899 216.16" fill="white"/>
<path d="M228.839 219.39C228.839 219.39 230.459 228.39 227.329 231.31C224.199 234.23 206.519 235.66 190.459 234.65C174.399 233.64 155.099 232.93 155.099 232.93C155.099 232.93 153.099 225.86 154.999 224.65C178.639 222.32 212.679 216.36 214.899 216.16" stroke="#2D2D30" stroke-linecap="round" stroke-linejoin="round"/>
<path d="M156.84 232.991C156.84 232.991 149.84 234.621 146.17 230.691C142.5 226.761 142.08 225.761 142.08 225.761L138.74 226.051C138.74 226.051 137.13 230.341 135.74 230.491C134.35 230.641 134.24 227.861 134.24 227.861C134.24 227.861 133.06 228.241 132.4 226.281C131.999 225.205 131.872 224.047 132.03 222.911L134.61 219.171C134.61 219.171 129.86 221.541 128.61 220.051C127.36 218.561 137.14 212.881 137.14 212.881L145.69 212.101L157.21 225.021" fill="white"/>
<path d="M156.84 232.991C156.84 232.991 149.84 234.621 146.17 230.691C142.5 226.761 142.08 225.761 142.08 225.761L138.74 226.051C138.74 226.051 137.13 230.341 135.74 230.491C134.35 230.641 134.24 227.861 134.24 227.861C134.24 227.861 133.06 228.241 132.4 226.281C131.999 225.205 131.872 224.047 132.03 222.911L134.61 219.171C134.61 219.171 129.86 221.541 128.61 220.051C127.36 218.561 137.14 212.881 137.14 212.881L145.69 212.101L157.21 225.021" stroke="#2D2D30" stroke-linecap="round" stroke-linejoin="round"/>
<path d="M177.81 140.601L170.18 154.601C170.18 154.601 175.48 153.161 179.8 160.211C181.16 149.751 181.49 146.871 181.49 146.871C181.49 146.871 181.68 142.201 177.81 140.601Z" fill="#355432"/>
<path d="M157.278 145.42L161.538 153.98C161.538 153.98 156.308 155.45 156.008 160.61C154.798 152.73 155.298 150.61 155.298 150.61C155.298 150.61 156.068 146.83 157.278 145.42Z" fill="#355432"/>
<path d="M166.31 162.12L166.16 175L169.95 174.95" fill="#8AC186"/>
<path d="M166.31 162.12L166.16 175L169.95 174.95" stroke="#355432" stroke-width="0.62" stroke-linejoin="round"/>
<path d="M168.128 163.98C168.57 163.98 168.928 163.622 168.928 163.18C168.928 162.738 168.57 162.38 168.128 162.38C167.686 162.38 167.328 162.738 167.328 163.18C167.328 163.622 167.686 163.98 168.128 163.98Z" fill="#355432"/>
<path d="M168.128 170.58C168.57 170.58 168.928 170.222 168.928 169.78C168.928 169.339 168.57 168.98 168.128 168.98C167.686 168.98 167.328 169.339 167.328 169.78C167.328 170.222 167.686 170.58 168.128 170.58Z" fill="#355432"/>
</g>
<path d="M269.711 314.09L267.961 361.99L310.321 339.55L269.711 314.09Z" stroke="#8AC186" stroke-width="2.37" stroke-linejoin="round"/>
<rect x="-1.41421" width="10.7578" height="10.7578" transform="matrix(-0.707107 -0.707107 -0.707107 0.707107 62.6288 255.021)" stroke="#8AC186" stroke-width="2"/>
</g>
<path d="M966.211 370C966.485 337.472 979.6 306.37 1002.7 283.465C1025.8 260.561 1057.01 247.71 1089.54 247.71C1122.07 247.71 1153.28 260.561 1176.38 283.465C1199.47 306.37 1212.59 337.472 1212.86 370" fill="#8AC186"/>
<path d="M982.58 341.826C982.58 341.826 962.846 318.799 960.457 293.392" stroke="#2D2D30" stroke-linecap="round" stroke-linejoin="round"/>
<path d="M988.299 341.528C982.956 334.911 979.128 327.204 977.084 318.948C973 302.929 971.411 260.203 968.117 247.645" stroke="#2D2D30" stroke-linecap="round" stroke-linejoin="round"/>
<path d="M990.985 340.851C990.985 340.851 987.621 322.241 990.107 304.975C992.592 287.709 1003.11 251.403 992.355 198.709" stroke="#2D2D30" stroke-linecap="round" stroke-linejoin="round"/>
<path d="M993.568 283.117C993.568 283.117 984.487 271.7 988.079 268.187C991.671 264.674 995.36 271.322 994.912 276.706C994.464 282.089 993.568 283.117 993.568 283.117Z" fill="#2D2D30"/>
<path d="M994.875 341.826C994.875 341.826 992.187 334.352 1000.26 308.637C1008.33 282.923 1013.12 244.526 1013.12 244.526" stroke="#2D2D30" stroke-linecap="round" stroke-linejoin="round"/>
<path d="M996.368 321.495C996.368 321.495 1003.39 309.981 1009.97 311.325C1016.55 312.669 1010.42 319.853 996.666 323.137C996.069 323.585 996.368 321.495 996.368 321.495Z" fill="#2D2D30"/>
<path d="M1001.47 304.747C1001.47 304.747 1005.86 296.957 1009.88 299.987C1013.91 303.017 1004.27 307.382 1002.37 308.839C1001.31 309.621 1000.35 310.526 999.512 311.536L1001.47 304.747Z" fill="#2D2D30"/>
<path d="M1003.16 298.547C1003.16 298.547 1011.56 295.034 1010.34 291.521C1009.11 288.008 1005.12 292.074 1004.19 294.208C1003.64 295.598 1003.3 297.059 1003.16 298.547V298.547Z" fill="#2D2D30"/>
<path d="M1002.25 301.498C1001.75 299.098 1000.89 296.79 999.679 294.657C997.659 291.073 1001.64 287.762 1003.43 290.116C1005.22 292.47 1003.77 296.676 1003.77 296.676L1002.25 301.498Z" fill="#2D2D30"/>
<path d="M1006.54 284.048C1006.54 284.048 1010.27 271.12 1017.37 274.932C1024.48 278.743 1005.56 288.685 1005.56 288.685L1006.54 284.048Z" fill="#2D2D30"/>
<path d="M1009.08 270.294C1009.08 270.294 1015.47 259.316 1018.94 263.795C1022.83 268.801 1008.55 273.728 1008.55 273.728L1009.08 270.294Z" fill="#2D2D30"/>
<path d="M1008.4 272.612C1008.4 272.612 1001.45 266.333 1003.84 263.496C1006.23 260.66 1009.46 263.338 1009.6 266.93C1009.76 268.9 1009.34 270.872 1008.4 272.612V272.612Z" fill="#2D2D30"/>
<path d="M1010.5 263.339C1010.5 263.339 1024.92 255.646 1021.86 249.814C1018.79 243.983 1012.74 252.203 1011.47 256.621C1010.87 261.328 1010.5 263.339 1010.5 263.339Z" fill="#2D2D30"/>
<path d="M1012.29 252.5C1012.29 252.5 1026.27 243.015 1022.38 238.001C1018.5 232.986 1013.12 246.678 1013.12 246.678L1012.29 252.5Z" fill="#2D2D30"/>
<path d="M1012.29 247.425C1012.29 247.425 1008.7 228.288 1013.04 226.865C1017.38 225.442 1016.85 233.074 1016.25 236.438C1015.65 239.802 1013.19 247.495 1013.19 247.495L1012.29 247.425Z" fill="#2D2D30"/>
<path d="M989.756 306.548C989.756 306.548 980.622 297.186 984.372 293.655C988.123 290.125 990.652 297.968 990.432 303.123C989.923 305.477 989.756 306.548 989.756 306.548Z" fill="#2D2D30"/>
<path d="M991.363 296.01C991.363 296.01 991.232 270.401 1002.24 274.054C1012.44 277.391 991.363 296.01 991.363 296.01Z" fill="#2D2D30"/>
<path d="M996.631 261.248C996.631 261.248 999.88 247.196 1006.72 250.489C1013.56 253.783 998.089 265.173 996.402 265.419C996.631 263.039 996.631 261.248 996.631 261.248Z" fill="#2D2D30"/>
<path d="M996.034 261.661C996.034 261.661 985.047 253.819 988.296 248.101C991.546 242.384 996.929 258.078 996.929 258.078L996.034 261.661Z" fill="#2D2D30"/>
<path d="M997.16 251.272C997.16 251.272 1006.01 246.231 1004.67 241.743C1003.33 237.256 997.16 243.201 997.16 247.232V251.272Z" fill="#2D2D30"/>
<path d="M997.161 243.982C997.161 243.982 992.111 227.84 985.164 233.329C978.217 238.818 990.653 248.918 997.161 247.231C997.238 246.15 997.238 245.064 997.161 243.982Z" fill="#2D2D30"/>
<path d="M997.047 240.847C997.047 240.847 1009.94 234.234 1007.7 227.507C1005.46 220.779 997.495 231.898 997.047 237.703C997.124 238.749 997.124 239.8 997.047 240.847V240.847Z" fill="#2D2D30"/>
<path d="M996.633 233.329C996.633 233.329 985.98 228.622 988.22 220.779C990.459 212.937 996.633 226.154 996.853 229.746C997.072 233.338 996.633 233.329 996.633 233.329Z" fill="#2D2D30"/>
<path d="M995.922 223.019C995.922 223.019 998.838 202.503 1007.25 206.763C1015.66 211.022 1001.1 223.133 996.37 224.81C996.147 224.234 995.997 223.632 995.922 223.019Z" fill="#2D2D30"/>
<path d="M994.242 207.44C994.242 207.44 994.576 186.696 1004.1 190.059C1013.63 193.423 994.444 209.451 994.444 209.451L994.242 207.44Z" fill="#2D2D30"/>
<path d="M995.027 216.625C995.027 216.625 983.258 210.24 985.612 204.971C987.966 199.701 993.683 205.19 995.141 213.375C995.475 216.072 995.027 216.625 995.027 216.625Z" fill="#2D2D30"/>
<path d="M992.671 200.184C992.671 200.184 993.119 177.087 985.267 180.117C977.416 183.147 985.267 193.308 992.671 200.184Z" fill="#2D2D30"/>
<path d="M980.448 328.073C980.448 328.073 976.303 309.121 985.717 311.922C995.132 314.724 981.01 328.855 981.01 328.855L980.448 328.073Z" fill="#2D2D30"/>
<path d="M977.873 321.794C977.873 321.794 973.833 316.41 972.603 318.544C971.374 320.678 971.725 323.471 978.435 323.814C978.413 323.105 978.22 322.412 977.873 321.794Z" fill="#2D2D30"/>
<path d="M975.853 312.599C975.853 312.599 974.176 301.498 979.103 302.841C984.03 304.185 976.53 314.056 976.53 314.056L975.853 312.599Z" fill="#2D2D30"/>
<path d="M974.959 309.349C974.959 309.349 968.68 304.299 970.138 301.726C971.595 299.152 973.65 301.945 975.179 307.329C975.741 309.463 974.959 309.349 974.959 309.349Z" fill="#2D2D30"/>
<path d="M973.801 298.02C973.801 298.02 975.952 285.725 982.214 289.387C987.589 292.531 974.249 300.154 974.249 300.154L973.801 298.02Z" fill="#2D2D30"/>
<path d="M973.666 297.124C973.666 297.124 972.656 284.961 967.782 286.752C962.908 288.544 971.426 297.634 973.78 299.144C974.061 297.52 973.666 297.124 973.666 297.124Z" fill="#2D2D30"/>
<path d="M972.543 285.075C972.543 285.075 973.5 263.883 982.81 266.298C992.119 268.713 979.103 286.585 973.149 288.772C972.719 286.752 972.543 285.075 972.543 285.075Z" fill="#2D2D30"/>
<path d="M972.156 279.805C972.156 279.805 967.001 264.875 962.566 268.388C958.131 271.901 971.928 281.5 971.928 281.5L972.156 279.805Z" fill="#2D2D30"/>
<path d="M972.041 278.233C972.041 278.233 968.229 261.977 973.551 262.372C978.873 262.768 972.374 279.937 972.374 279.937L972.041 278.233Z" fill="#2D2D30"/>
<path d="M970.47 262.592C970.47 262.592 987.35 251.219 981.237 241.857C975.125 232.495 970.365 254.749 970.084 258.78C969.888 260.063 970.021 261.374 970.47 262.592Z" fill="#2D2D30"/>
<path d="M969.906 257.947C969.906 257.947 965.594 245.502 960.939 243.315C956.285 241.128 949.522 246.398 955.169 252.897C960.816 259.396 969.906 259.791 969.906 259.791V257.947Z" fill="#2D2D30"/>
<path d="M968.228 247.346C968.228 247.346 958.699 238.827 958.568 227.893C958.436 216.959 968.94 216.344 971.399 222.061C973.858 227.779 970.283 233.838 969.721 237.764C969.159 241.69 968.228 247.346 968.228 247.346Z" fill="#2D2D30"/>
<path d="M969.179 251.606C969.179 251.606 976.583 238.775 971.147 235.578C965.71 232.382 964.92 244.879 968.45 250.71C968.96 251.554 969.179 251.606 969.179 251.606Z" fill="#2D2D30"/>
<path d="M967.152 317.122C967.152 317.122 964.833 306.1 970.735 307.777C976.637 309.455 968.302 318.729 968.302 318.729L967.152 317.122Z" fill="#2D2D30"/>
<path d="M964.455 310.21C964.455 310.21 960.942 302.305 956.911 302.472C952.88 302.639 951.976 305.906 956.033 308.752C958.549 310.457 961.552 311.296 964.587 311.141L964.455 310.21Z" fill="#2D2D30"/>
<path d="M962.031 303.219C962.031 303.219 961.276 292.531 966.097 292.979C970.919 293.426 962.585 303.93 962.585 303.93L962.031 303.219Z" fill="#2D2D30"/>
<path d="M961.501 300.935C961.501 300.935 958.471 290.993 954.545 292.829C950.619 294.664 957.048 300.733 961.685 302.322C961.799 300.935 961.501 300.935 961.501 300.935Z" fill="#2D2D30"/>
<path d="M960.231 294.253C960.231 294.253 949.771 280.456 956.05 277.567C962.33 274.677 962.136 289.484 960.977 294.253C960.907 294.701 960.231 294.253 960.231 294.253Z" fill="#2D2D30"/>
<path d="M1006.35 343.204L987.964 342.984L969.573 343.204C969.573 343.204 965.428 357.668 978.435 369.331H997.51C1010.5 357.668 1006.35 343.204 1006.35 343.204Z" fill="white" stroke="#2D2D30" stroke-linecap="round" stroke-linejoin="round"/>
<path d="M1007.97 339.052H967.948C966.43 339.052 965.199 340.282 965.199 341.801C965.199 343.319 966.43 344.549 967.948 344.549H1007.97C1009.49 344.549 1010.72 343.319 1010.72 341.801C1010.72 340.282 1009.49 339.052 1007.97 339.052Z" fill="white" stroke="#2D2D30" stroke-linecap="round" stroke-linejoin="round"/>
<path d="M1306.81 243.851L1279.06 369.315H1275.02L1294.53 239.152L1306.81 243.851Z" fill="white" stroke="#2D2D30" stroke-linejoin="round"/>
<path d="M1291.22 261.258L1303.49 258.877L1305.81 248.391L1306.36 243.737L1294.52 239.214L1291.22 261.258Z" fill="#2D2D30"/>
<path d="M1348.71 243.851L1376.45 369.315H1380.49L1360.99 239.152L1348.71 243.851Z" fill="white" stroke="#2D2D30" stroke-linejoin="round"/>
<path d="M1363.4 255.172L1361.03 239.442L1354.88 241.489L1348.71 243.851L1352.74 262.092L1363.4 255.172Z" fill="#2D2D30"/>
<path d="M1364.08 227.691L1416.7 96.2988C1416.7 96.2988 1431.06 102.262 1424.61 120.679C1418.15 139.095 1388.84 217.399 1388.84 217.399C1388.18 219.173 1387.3 220.856 1386.21 222.404C1383.56 225.575 1378.24 228.043 1364.08 227.691Z" fill="white" stroke="#2D2D30" stroke-linejoin="round"/>
<path d="M1416.71 96.2988L1363.88 228.227H1297.23L1356.02 96.4306L1416.71 96.2988Z" fill="white" stroke="#2D2D30" stroke-linejoin="round"/>
<path d="M1304.55 246.652H1235.87C1235.87 246.652 1229.38 239.205 1230.73 229.588H1295.72L1304.55 246.652Z" fill="#2D2D30"/>
<path d="M1298.28 319.975L1280.23 296.21L1262.49 310.06L1282.06 334.439C1282.06 334.439 1287.08 334.439 1293.03 330.11C1298.97 325.78 1298.28 319.975 1298.28 319.975Z" fill="white" stroke="#2D2D30" stroke-linecap="round" stroke-linejoin="round"/>
<path d="M1297.31 318.035C1297.31 318.035 1308.48 327.248 1311.07 333.352C1303.29 346.323 1290.33 364.784 1288.18 365.548C1286.04 366.312 1263.52 369.368 1260.47 369.368C1258.8 366.32 1259.81 355.632 1275.34 352.418C1277.45 346.016 1279.2 339.497 1280.56 332.895C1280.56 332.895 1295.32 327.652 1297.31 318.035Z" fill="#2D2D30"/>
<path d="M1308.17 329.188C1304.81 334.739 1301.31 340.21 1297.79 345.655L1292.41 353.77C1291.54 355.123 1290.66 356.475 1289.67 357.801L1288.27 359.786C1287.79 360.48 1287.26 361.143 1286.7 361.771L1286.63 361.85H1286.5L1279.86 362.904C1277.65 363.264 1275.46 363.58 1273.22 363.914C1270.97 364.248 1268.83 364.59 1266.56 364.889L1259.9 365.767L1266.51 364.502C1268.7 364.072 1270.9 363.703 1273.12 363.299C1275.34 362.895 1277.51 362.491 1279.73 362.131L1286.36 361.007L1286.16 361.095C1286.66 360.502 1287.14 359.883 1287.58 359.242L1288.96 357.257L1291.72 353.252L1297.17 345.19C1300.82 339.885 1304.46 334.554 1308.17 329.188Z" fill="white"/>
<path d="M1286.4 299.346L1265.09 317.068C1265.09 317.068 1200.29 240.829 1192.66 227.374C1185.04 213.92 1182.35 191.946 1212.4 186.976C1242.44 182.005 1289.09 183.384 1289.09 183.384L1330.36 186.08C1330.36 186.08 1335.75 225.539 1301.66 225.539C1267.58 225.539 1230.34 219.795 1230.34 219.795L1286.4 299.346Z" fill="#2D2D30"/>
<path d="M1301.64 225.574C1295.67 225.574 1289.7 225.574 1283.74 225.293C1277.77 225.012 1271.81 224.678 1265.86 224.204C1259.92 223.73 1253.96 223.194 1248.03 222.518C1242.09 221.842 1236.17 221.113 1230.26 220.243L1230.66 219.593L1244.71 239.468L1258.69 259.378L1272.59 279.34L1286.42 299.346L1272.21 279.603L1258.08 259.808L1244.03 239.951L1229.98 220.077L1229.43 219.277L1230.38 219.427C1236.28 220.305 1242.2 221.069 1248.11 221.763C1254.03 222.457 1259.97 223.08 1265.91 223.607C1271.84 224.134 1277.8 224.556 1283.75 224.924C1289.71 225.293 1295.67 225.478 1301.64 225.574Z" fill="white"/>
<path d="M1144.68 350.099L1158.08 330.462L1140.22 319.168L1127.05 337.611C1127.05 337.611 1124.9 346.701 1131.15 350.512C1137.4 354.324 1144.68 350.099 1144.68 350.099Z" fill="white" stroke="#2D2D30" stroke-linejoin="round"/>
<path d="M1146.13 348.755C1146.13 348.755 1139.37 366.399 1131.11 369.745C1113.87 359.066 1078.77 336.486 1078.77 336.486C1078.77 336.486 1082.59 321.987 1106.39 334.502C1113.45 335.515 1120.57 335.953 1127.69 335.81C1127.69 335.81 1128.59 347.842 1146.13 348.755Z" fill="#2D2D30"/>
<path d="M1081.82 332.209C1086.55 334.712 1091.22 337.294 1095.88 339.885C1100.53 342.476 1105.18 345.154 1109.83 347.789C1114.49 350.424 1119.09 353.129 1123.68 355.842L1130.58 359.935C1132.85 361.322 1135.15 362.693 1137.42 364.106C1135.05 362.859 1132.71 361.568 1130.39 360.304L1123.36 356.431C1118.69 353.796 1114.06 351.161 1109.41 348.527C1104.75 345.892 1100.16 343.187 1095.56 340.473C1090.96 337.759 1086.37 335.019 1081.82 332.209Z" fill="white"/>
<path d="M1350.68 188.504C1350.68 188.504 1353.71 220.507 1334.72 228.024C1315.73 235.542 1236.28 236.253 1236.28 236.253L1156.36 336.477C1156.36 336.477 1139.62 325.122 1134.83 320.669C1134.83 320.669 1215.56 204.066 1219.74 199.886C1223.92 195.705 1321.4 185.834 1321.4 185.834" fill="#2D2D30"/>
<path d="M1196.09 232.679L1206.24 217.925C1209.66 213.033 1213.08 208.15 1216.6 203.311C1217.47 202.108 1218.35 200.904 1219.34 199.719C1219.48 199.552 1219.65 199.41 1219.85 199.297C1220.02 199.209 1220.21 199.095 1220.38 199.025C1220.75 198.867 1221.11 198.753 1221.47 198.63C1222.2 198.401 1222.92 198.199 1223.65 198.024C1226.57 197.321 1229.52 196.786 1232.43 196.267C1238.32 195.257 1244.23 194.397 1250.15 193.58C1261.98 192.017 1273.84 190.591 1285.7 189.303L1303.52 187.441L1321.35 185.781L1285.78 189.97C1273.94 191.402 1262.07 192.816 1250.27 194.449C1244.35 195.24 1238.45 196.074 1232.56 197.084C1229.63 197.585 1226.69 198.103 1223.78 198.788C1223.06 198.955 1222.35 199.157 1221.65 199.368C1221.3 199.482 1220.95 199.596 1220.63 199.736C1220.47 199.802 1220.32 199.878 1220.17 199.965C1220.04 200.037 1219.92 200.136 1219.82 200.255C1218.88 201.326 1217.98 202.564 1217.09 203.768C1213.51 208.545 1210.06 213.428 1206.55 218.223L1196.09 232.679Z" fill="white"/>
<path d="M1334.75 228.042C1330.86 229.435 1326.85 230.464 1322.76 231.116C1318.7 231.845 1314.61 232.398 1310.47 232.872C1302.26 233.812 1294.03 234.488 1285.78 234.98C1277.54 235.472 1269.3 235.858 1261.04 236.139C1252.79 236.42 1244.54 236.578 1236.28 236.649L1236.57 236.508L1223.3 252.94L1209.94 269.301L1222.92 252.615L1235.99 236.016L1236.09 235.876H1236.28C1244.53 235.759 1252.77 235.551 1261.02 235.252C1269.26 234.962 1277.5 234.646 1285.74 234.172C1293.98 233.698 1302.2 233.153 1310.41 232.328C1314.51 231.897 1318.6 231.45 1322.7 230.8C1326.8 230.256 1330.83 229.333 1334.75 228.042V228.042Z" fill="white"/>
<path d="M1297.24 227.69H1379.59C1379.59 227.69 1380 246.651 1356.3 246.651H1304.55C1304.55 246.651 1281.38 247.784 1279.96 234.778C1291.86 233.153 1297.24 227.69 1297.24 227.69Z" fill="white" stroke="#2D2D30" stroke-linejoin="round"/>
<path d="M1134.78 186.687L1149.95 369.772H1145.26L1121.78 187.415L1134.78 186.687Z" fill="white" stroke="#2D2D30" stroke-linejoin="round"/>
<path d="M1134.78 186.687L1121.78 187.415L1124.35 209.283L1135.91 201.818L1134.78 186.687Z" fill="#2D2D30"/>
<path d="M1399.55 186.687L1414.72 369.772H1410.03L1386.54 187.415L1399.55 186.687Z" fill="white" stroke="#2D2D30" stroke-linejoin="round"/>
<path d="M1399.55 186.687L1386.54 187.415L1389.34 211.224L1400.87 204.076L1399.55 186.687Z" fill="#2D2D30"/>
<path d="M1351.78 50.8852C1351.7 51.8073 1355.39 74.3077 1357.41 77.6625C1359.43 81.0174 1373.05 83.3887 1373.05 83.3887C1373.05 83.3887 1362.78 119.976 1335.29 120.986C1307.8 121.996 1310.44 86.0585 1310.44 86.0585L1331.59 79.6825L1332.27 57.1822C1332.27 57.1822 1333.15 38.4933 1339.29 34.6818C1348.38 29.0259 1351.78 50.8852 1351.78 50.8852Z" fill="white" stroke="#2D2D30" stroke-linecap="round" stroke-linejoin="round"/>
<path d="M1345.89 56.6543L1332.05 62.8019L1331.55 79.6728L1320.49 83.0013C1323.23 83.6073 1327.23 83.3789 1332.88 80.7091C1346.17 74.4473 1345.89 56.6543 1345.89 56.6543Z" fill="#2D2D30"/>
<path d="M1349.47 43.517C1349.47 43.517 1350.23 22.615 1340.69 19.6202C1331.15 16.6255 1317.24 20.8673 1315.96 27.4102C1315.96 27.4102 1315.36 38.8272 1315.4 41.2512C1315.43 43.6751 1316.82 69.8113 1330.58 70.3471C1340.81 70.7423 1345.82 58.2011 1345.82 58.2011" fill="white"/>
<path d="M1349.47 43.517C1349.47 43.517 1350.23 22.615 1340.69 19.6202C1331.15 16.6255 1317.24 20.8673 1315.96 27.4102C1315.96 27.4102 1315.36 38.8272 1315.4 41.2512C1315.43 43.6751 1316.82 69.8113 1330.58 70.3471C1340.81 70.7423 1345.82 58.2011 1345.82 58.2011" stroke="#2D2D30" stroke-linecap="round" stroke-linejoin="round"/>
<path d="M1352.88 20.4103C1355.12 19.9624 1355.45 19.0666 1355.45 19.0666C1356.11 21.1497 1356.08 23.3912 1355.35 25.4514C1356.46 28.9643 1357.59 31.5112 1352.65 53.8183C1351.58 54.0367 1350.49 54.1485 1349.4 54.152C1349.4 54.152 1351.31 44.4915 1348.62 43.2795C1345.93 42.0675 1345.42 45.4839 1345.42 45.4839H1344.36L1344.13 41.7865C1344.13 41.7865 1339.87 30.914 1340.21 27.5503C1323.39 29.3068 1315.97 27.3747 1315.97 27.3747L1315.32 36.5171C1313.37 34.325 1311.95 31.7176 1311.17 28.894C1312.08 29.2609 1313.01 29.5805 1313.95 29.8513C1313.95 29.8513 1311.45 24.2657 1311.39 21.069C1312.96 22.4214 1314.12 22.1931 1314.12 22.1931C1314.12 22.1931 1314.76 12.8487 1320.27 11.4347C1319.74 14.491 1320.38 15.3517 1320.38 15.3517C1320.38 15.3517 1322.66 10.9078 1326.7 10.3809C1325.65 12.0319 1327.33 13.7884 1327.33 13.7884C1327.33 13.7884 1329.8 11.1537 1332.6 11.1537L1332.49 13.4722C1334.38 12.2192 1336.55 11.4502 1338.81 11.2327C1337.69 12.111 1338.32 14.1485 1338.32 14.1485C1340.25 13.0761 1342.45 12.588 1344.66 12.7433C1344.2 13.1576 1343.89 13.7096 1343.78 14.3153C1345.75 14.1787 1347.72 14.4786 1349.56 15.1936C1349.03 15.2602 1348.52 15.473 1348.1 15.8083C1349.64 16.3096 1351 17.2424 1352.03 18.4957C1352.52 19.0177 1352.82 19.6935 1352.88 20.4103V20.4103Z" fill="#2D2D30"/>
<path d="M1323.78 41.8037C1324.1 42.1541 1324.35 42.5707 1324.5 43.0254C1324.65 43.48 1324.7 43.9619 1324.65 44.4384C1324.32 45.8172 1323.37 51.4643 1323.37 51.4643C1323.37 51.4643 1323.37 53.3437 1329.11 51.596" stroke="#2D2D30" stroke-linecap="round" stroke-linejoin="round"/>
<path d="M1346.17 45.4833C1346.17 45.4833 1348.66 39.8626 1352.71 42.0406C1356.76 44.2186 1350.67 53.2733 1348.32 53.8265C1345.98 54.3798 1345.91 51.4553 1345.91 51.4553" fill="white"/>
<path d="M1346.17 45.4833C1346.17 45.4833 1348.66 39.8626 1352.71 42.0406C1356.76 44.2186 1350.67 53.2733 1348.32 53.8265C1345.98 54.3798 1345.91 51.4553 1345.91 51.4553" stroke="#2D2D30" stroke-linecap="round" stroke-linejoin="round"/>
<path d="M1347.29 47.1001C1347.29 47.1001 1349.15 43.1217 1351.58 43.4466Z" fill="white"/>
<path d="M1347.29 47.1001C1347.29 47.1001 1349.15 43.1217 1351.58 43.4466" stroke="#2D2D30" stroke-linecap="round" stroke-linejoin="round"/>
<path d="M1333.42 56.252C1330.55 59.7122 1324.14 58.3773 1324.14 58.3773" stroke="#2D2D30" stroke-linecap="round" stroke-linejoin="round"/>
<path d="M1329.36 39.2653C1329.36 39.2653 1333.42 34.1013 1339.02 37.5089" stroke="#2D2D30" stroke-linecap="round" stroke-linejoin="round"/>
<path d="M1322.84 39.2483C1322.84 39.2483 1319.74 36.0779 1315.34 39.2044" stroke="#2D2D30" stroke-linecap="round" stroke-linejoin="round"/>
<path d="M1319.22 45.0887C1319.97 45.0887 1320.59 44.4753 1320.59 43.7187C1320.59 42.962 1319.97 42.3486 1319.22 42.3486C1318.46 42.3486 1317.85 42.962 1317.85 43.7187C1317.85 44.4753 1318.46 45.0887 1319.22 45.0887Z" fill="#2D2D30"/>
<path d="M1333.44 43.9383C1334.2 43.9383 1334.81 43.3249 1334.81 42.5683C1334.81 41.8116 1334.2 41.1982 1333.44 41.1982C1332.69 41.1982 1332.07 41.8116 1332.07 42.5683C1332.07 43.3249 1332.69 43.9383 1333.44 43.9383Z" fill="#2D2D30"/>
<path d="M1330.93 42.8666C1330.93 42.8666 1332.33 39.7489 1336.78 42.0323" stroke="#2D2D30" stroke-linecap="round" stroke-linejoin="round"/>
<path d="M1321.77 43.4209C1321.06 42.7485 1320.11 42.3794 1319.13 42.3909C1318.14 42.4023 1317.2 42.7935 1316.5 43.4824" stroke="#2D2D30" stroke-linecap="round" stroke-linejoin="round"/>
<path d="M1318.18 50.4709C1321.62 50.4709 1324.41 47.6832 1324.41 44.2443C1324.41 40.8054 1321.62 38.0176 1318.18 38.0176C1314.74 38.0176 1311.95 40.8054 1311.95 44.2443C1311.95 47.6832 1314.74 50.4709 1318.18 50.4709Z" stroke="#2D2D30" stroke-miterlimit="10" stroke-linecap="round"/>
<path d="M1334.1 49.094C1337.54 49.094 1340.33 46.3062 1340.33 42.8673C1340.33 39.4284 1337.54 36.6406 1334.1 36.6406C1330.66 36.6406 1327.88 39.4284 1327.88 42.8673C1327.88 46.3062 1330.66 49.094 1334.1 49.094Z" stroke="#2D2D30" stroke-miterlimit="10" stroke-linecap="round"/>
<path d="M1340.27 42.4962L1347.5 42.3916" stroke="#2D2D30" stroke-miterlimit="10" stroke-linecap="round"/>
<path d="M1324.6 43.3229C1325.06 42.9916 1325.61 42.8011 1326.17 42.7747C1326.74 42.7482 1327.3 42.8869 1327.79 43.1738" stroke="#2D2D30" stroke-miterlimit="10" stroke-linecap="round"/>
<path d="M1309.96 85.5397C1309.96 85.5397 1295.14 84.5385 1288.01 107.425C1283.13 122.996 1270.73 165.037 1270.73 165.037C1270.73 165.037 1272.74 174.83 1281.84 176.015C1290.94 177.201 1294.78 167.883 1294.78 167.883L1312.88 115.874" fill="#788AF1"/>
<path d="M1309.96 85.5397C1309.96 85.5397 1295.14 84.5385 1288.01 107.425C1283.13 122.996 1270.73 165.037 1270.73 165.037C1270.73 165.037 1272.74 174.83 1281.84 176.015C1290.94 177.201 1294.78 167.883 1294.78 167.883L1312.88 115.874" stroke="#2C438C" stroke-linecap="round" stroke-linejoin="round"/>
<path d="M1281.18 129.751C1277.04 143.539 1272.7 158.25 1271.21 163.256L1277.26 163.545L1281.18 129.751Z" fill="#2C438C"/>
<path d="M1291.17 174.838C1289.28 178.491 1285.9 184.859 1270.59 181.249C1255.27 177.639 1234.52 165.854 1234.52 165.854L1236.79 154.384C1236.79 154.384 1275.37 160.935 1278.62 161.295" fill="#788AF1"/>
<path d="M1291.17 174.838C1289.28 178.491 1285.9 184.859 1270.59 181.249C1255.27 177.639 1234.52 165.854 1234.52 165.854L1236.79 154.384C1236.79 154.384 1275.37 160.935 1278.62 161.295" stroke="#2C438C" stroke-linecap="round" stroke-linejoin="round"/>
<path d="M1216.66 157.301C1216.66 157.301 1201.92 149.897 1198.59 147.781C1195.27 145.664 1191.35 149.396 1197.37 153.41C1200.75 155.643 1204.33 157.563 1208.05 159.145" fill="white"/>
<path d="M1216.66 157.301C1216.66 157.301 1201.92 149.897 1198.59 147.781C1195.27 145.664 1191.35 149.396 1197.37 153.41C1200.75 155.643 1204.33 157.563 1208.05 159.145" stroke="#2D2D30" stroke-linecap="round" stroke-linejoin="round"/>
<path d="M1211.24 155.642C1211.24 155.642 1194.98 152.893 1191.18 151.839C1187.38 150.785 1184.72 155.51 1191.66 157.582C1195.54 158.726 1199.53 159.511 1203.55 159.927" fill="white"/>
<path d="M1211.24 155.642C1211.24 155.642 1194.98 152.893 1191.18 151.839C1187.38 150.785 1184.72 155.51 1191.66 157.582C1195.54 158.726 1199.53 159.511 1203.55 159.927" stroke="#2D2D30" stroke-linecap="round" stroke-linejoin="round"/>
<path d="M1237.94 154.516C1232.07 153.355 1226.12 152.625 1220.14 152.329C1220.14 152.329 1209.54 152.083 1204.33 154.516C1199.13 156.949 1193.01 166.249 1196.24 167.461C1199.48 168.673 1202.07 163.009 1204.02 161.314C1205.97 159.619 1212.43 158.802 1214.45 159.206C1216.47 159.61 1219.63 165.678 1225.45 165.678C1229.29 165.614 1233.11 165.023 1236.78 163.922" fill="white"/>
<path d="M1237.94 154.516C1232.07 153.355 1226.12 152.625 1220.14 152.329C1220.14 152.329 1209.54 152.083 1204.33 154.516C1199.13 156.949 1193.01 166.249 1196.24 167.461C1199.48 168.673 1202.07 163.009 1204.02 161.314C1205.97 159.619 1212.43 158.802 1214.45 159.206C1216.47 159.61 1219.63 165.678 1225.45 165.678C1229.29 165.614 1233.11 165.023 1236.78 163.922" stroke="#2D2D30" stroke-linecap="round" stroke-linejoin="round"/>
<path d="M1226.05 159.681C1226.05 159.681 1217.45 166.294 1213.1 163.247C1210.11 161.139 1219.25 155.343 1219.25 155.343" fill="white"/>
<path d="M1226.05 159.681C1226.05 159.681 1217.45 166.294 1213.1 163.247C1210.11 161.139 1219.25 155.343 1219.25 155.343" stroke="#2D2D30" stroke-linecap="round" stroke-linejoin="round"/>
<path d="M1309.96 85.5406C1316.93 83.6085 1328.58 80.6927 1328.58 80.6927C1328.58 80.6927 1332.97 80.8596 1334.15 84.3111C1334.93 87.336 1335.52 90.4071 1335.91 93.5062C1335.91 93.5062 1341.72 86.4188 1345.03 84.5394C1349.63 81.9236 1354.56 79.9246 1359.68 78.5938C1359.68 78.5937 1388.19 85.9797 1391.37 88.105C1394.55 90.2304 1350.54 187.345 1350.54 187.345H1312.66C1293.02 187.345 1286.32 185.589 1286.32 185.589C1286.32 185.589 1294.89 133.677 1298.42 120.257" fill="white"/>
<path d="M1309.96 85.5406C1316.93 83.6085 1328.58 80.6927 1328.58 80.6927C1328.58 80.6927 1332.97 80.8596 1334.15 84.3111C1334.93 87.336 1335.52 90.4071 1335.91 93.5062C1335.91 93.5062 1341.72 86.4188 1345.03 84.5394C1349.63 81.9236 1354.56 79.9246 1359.68 78.5938C1359.68 78.5937 1388.19 85.9797 1391.37 88.105C1394.55 90.2304 1350.54 187.345 1350.54 187.345H1312.66C1293.02 187.345 1286.32 185.589 1286.32 185.589C1286.32 185.589 1294.89 133.677 1298.42 120.257" stroke="#2D2D30" stroke-linecap="round" stroke-linejoin="round"/>
<path d="M1356.13 71.9619C1356.13 71.9619 1354.37 76.8185 1345.06 84.5207C1351.21 84.6348 1352.47 93.9353 1352.47 93.9353L1360.05 78.6892C1359.16 76.2293 1357.83 73.9505 1356.13 71.9619V71.9619Z" fill="white" stroke="#2D2D30" stroke-linecap="round" stroke-linejoin="round"/>
<path d="M1331.47 73.3242L1327.65 80.2798L1327.13 91.4861C1327.13 91.4861 1328.41 82.897 1334.16 84.3109C1332.37 80.4994 1331.47 73.3242 1331.47 73.3242Z" fill="white" stroke="#2D2D30" stroke-linecap="round" stroke-linejoin="round"/>
<path d="M1305.6 86.2511C1307.39 85.5174 1309.24 84.9443 1311.14 84.5385C1320.4 82.0707 1324.31 81.1749 1324.31 81.1749L1330.14 74.8955C1330.14 74.8955 1303.79 184.025 1300.47 189.4C1297.15 194.774 1274.75 188.205 1274.75 188.205L1284.32 179.836L1287.31 169.675L1298.33 119.782" fill="#788AF1"/>
<path d="M1305.6 86.2511C1307.39 85.5174 1309.24 84.9443 1311.14 84.5385C1320.4 82.0707 1324.31 81.1749 1324.31 81.1749L1330.14 74.8955C1330.14 74.8955 1303.79 184.025 1300.47 189.4C1297.15 194.774 1274.75 188.205 1274.75 188.205L1284.32 179.836L1287.31 169.675L1298.33 119.782" stroke="#2C438C" stroke-linecap="round" stroke-linejoin="round"/>
<path d="M1326.46 78.9258L1315.55 99.2569L1319.28 101.496L1314.65 105.088L1313.75 140.367" fill="#788AF1"/>
<path d="M1326.46 78.9258L1315.55 99.2569L1319.28 101.496L1314.65 105.088L1313.75 140.367" stroke="#2C438C" stroke-linecap="round" stroke-linejoin="round"/>
<path d="M1358.15 74.2979C1358.15 74.2979 1343.8 118.842 1336.33 163.395C1328.85 207.947 1323.77 222.289 1333.93 226.478C1344.09 230.667 1358.9 224.827 1363.09 221.543C1367.28 218.258 1369.51 158.907 1369.51 158.907L1390.14 87.1552L1364.13 78.487L1358.15 74.2979Z" fill="#788AF1" stroke="#2C438C" stroke-linecap="round" stroke-linejoin="round"/>
<path d="M1327.05 188.952C1327.05 188.952 1355.45 196.276 1366.07 208.273C1367.41 195.266 1367.56 188.24 1367.56 188.24L1327.05 188.952Z" fill="#2C438C"/>
<path d="M1361.79 77.1885L1360.83 106.284L1353.89 108.076L1359.27 113.688L1339.31 151.355" fill="#788AF1"/>
<path d="M1361.79 77.1885L1360.83 106.284L1353.89 108.076L1359.27 113.688L1339.31 151.355" stroke="#2C438C" stroke-linecap="round" stroke-linejoin="round"/>
<path d="M1366.61 151.285L1370.59 112.563C1370.59 112.563 1359.26 149.116 1340.2 153.972C1328.01 157.081 1327.03 162.948 1327.03 162.948C1327.03 162.948 1338.64 177.878 1341.6 187.31H1350.56C1350.56 187.31 1358.05 170.826 1366.61 151.285Z" fill="#2C438C"/>
<path d="M1338.4 95.9935C1338.51 95.3632 1338.14 94.7699 1337.57 94.6683C1337.01 94.5666 1336.45 94.9952 1336.34 95.6255C1336.23 96.2557 1336.6 96.849 1337.17 96.9506C1337.73 97.0522 1338.29 96.6237 1338.4 95.9935Z" fill="#2D2D30"/>
<path d="M1333.56 114.895C1333.68 114.264 1333.31 113.671 1332.74 113.57C1332.17 113.468 1331.62 113.897 1331.5 114.527C1331.39 115.157 1331.76 115.75 1332.33 115.852C1332.9 115.954 1333.45 115.525 1333.56 114.895Z" fill="#2D2D30"/>
<path d="M1328.72 133.788C1328.84 133.158 1328.47 132.565 1327.9 132.463C1327.33 132.362 1326.78 132.79 1326.67 133.42C1326.55 134.051 1326.92 134.644 1327.49 134.746C1328.06 134.847 1328.61 134.419 1328.72 133.788Z" fill="#2D2D30"/>
<path d="M1323.88 152.69C1323.99 152.059 1323.62 151.466 1323.05 151.365C1322.49 151.263 1321.93 151.691 1321.82 152.322C1321.71 152.952 1322.08 153.545 1322.65 153.647C1323.21 153.748 1323.77 153.32 1323.88 152.69Z" fill="#2D2D30"/>
<path d="M1319.05 171.583C1319.16 170.953 1318.79 170.36 1318.22 170.258C1317.65 170.157 1317.1 170.585 1316.99 171.215C1316.88 171.845 1317.25 172.439 1317.81 172.54C1318.38 172.642 1318.93 172.213 1319.05 171.583Z" fill="#2D2D30"/>
<path d="M1335.95 93.5059L1311.29 186.783" stroke="#2D2D30" stroke-linecap="round" stroke-linejoin="round"/>
<path d="M1376.82 112.099L1359.02 172.275L1382.23 119.16L1376.82 112.099Z" fill="#2D2D30"/>
<path d="M1388.92 86.7256C1388.92 86.7256 1394.03 87.516 1396.49 94.5507C1398.95 101.585 1398.11 115.365 1389.09 137.233C1371.16 180.732 1368.46 185.667 1361.28 186.563C1354.11 187.459 1350.38 176.551 1350.83 171.168C1351.27 165.784 1371.64 110.324 1371.64 110.324" fill="#788AF1"/>
<path d="M1388.92 86.7256C1388.92 86.7256 1394.03 87.516 1396.49 94.5507C1398.95 101.585 1398.11 115.365 1389.09 137.233C1371.16 180.732 1368.46 185.667 1361.28 186.563C1354.11 187.459 1350.38 176.551 1350.83 171.168C1351.27 165.784 1371.64 110.324 1371.64 110.324" stroke="#2C438C" stroke-linecap="round" stroke-linejoin="round"/>
<path d="M1308.84 144.856C1308.84 144.856 1302.4 149.089 1296.93 146.524C1291.46 143.96 1290.66 143.091 1290.66 143.091L1287.31 144.759C1287.31 144.759 1287.4 149.879 1286.07 150.591C1284.75 151.302 1283.44 148.465 1283.44 148.465C1283.44 148.465 1282.37 149.344 1280.87 147.587C1280.02 146.632 1279.41 145.479 1279.12 144.232L1280.27 139.297C1280.27 139.297 1276.3 143.688 1274.44 142.643C1272.59 141.598 1280.3 131.682 1280.3 131.682L1288.86 127.361L1305.98 136.144C1305.98 136.144 1309.99 141.404 1308.84 144.856Z" fill="white" stroke="#2D2D30" stroke-linecap="round" stroke-linejoin="round"/>
<path d="M1297.55 146.779C1302.87 148.764 1308.84 144.847 1308.84 144.847C1309.99 141.404 1306.02 136.108 1306.02 136.108L1298.74 132.394C1299.99 133.212 1301.01 134.349 1301.68 135.688C1302.36 137.027 1302.66 138.52 1302.57 140.017C1302.4 143.74 1299.01 145.98 1297.55 146.779Z" fill="#2D2D30"/>
<path d="M1358.67 186.326C1358.67 186.326 1353.62 185.957 1335.37 171.695C1317.13 157.432 1302.48 147.544 1302.48 147.544C1302.48 147.544 1304.15 146.665 1305.06 141.396C1305.36 139.448 1305.4 137.469 1305.17 135.512C1305.17 135.512 1360.09 158.425 1364.43 161.13" fill="white"/>
<path d="M1358.67 186.326C1358.67 186.326 1353.62 185.957 1335.37 171.695C1317.13 157.432 1302.48 147.544 1302.48 147.544C1302.48 147.544 1304.15 146.665 1305.06 141.396C1305.36 139.448 1305.4 137.469 1305.17 135.512C1305.17 135.512 1360.09 158.425 1364.43 161.13" stroke="#2D2D30" stroke-linecap="round" stroke-linejoin="round"/>
<path d="M1310 138.629C1310 138.629 1313.13 145.585 1306.63 150.406Z" fill="white"/>
<path d="M1310 138.629C1310 138.629 1313.13 145.585 1306.63 150.406" stroke="#2D2D30" stroke-linecap="round" stroke-linejoin="round"/>
<path d="M1367.42 160.928L1357.7 156.967L1308.97 136.188C1308.97 136.188 1313 141.458 1305.01 152.26C1333.63 172.135 1348.92 183.35 1355.38 184.922C1361.85 186.494 1364.28 184.772 1364.28 184.772" fill="#788AF1"/>
<path d="M1367.42 160.928L1357.7 156.967L1308.97 136.188C1308.97 136.188 1313 141.458 1305.01 152.26C1333.63 172.135 1348.92 183.35 1355.38 184.922C1361.85 186.494 1364.28 184.772 1364.28 184.772" stroke="#2C438C" stroke-linecap="round" stroke-linejoin="round"/>
<path d="M1171.36 182.225L1295.99 182.225C1297.36 182.225 1298.46 181.116 1298.46 179.748V179.739C1298.46 178.371 1297.36 177.263 1295.99 177.263L1171.36 177.263C1169.99 177.263 1168.88 178.371 1168.88 179.739V179.748C1168.88 181.116 1169.99 182.225 1171.36 182.225Z" fill="#2D2D30"/>
<path d="M1168.3 183.253L1297.23 183.253C1298.6 183.253 1299.71 182.144 1299.71 180.776V180.768C1299.71 179.4 1298.6 178.291 1297.23 178.291L1168.3 178.291C1166.93 178.291 1165.82 179.4 1165.82 180.768V180.776C1165.82 182.144 1166.93 183.253 1168.3 183.253Z" fill="white" stroke="#2D2D30" stroke-linejoin="round"/>
<path d="M1224.35 116.33H1149.7C1147.19 116.33 1144.38 119.176 1144.99 120.923L1166.7 174.856C1166.89 175.372 1167.24 175.818 1167.69 176.132C1168.14 176.446 1168.68 176.614 1169.23 176.612L1244.46 178.369C1246.35 178.369 1249.41 176.033 1248.43 172.941L1226.83 117.999C1226.63 117.503 1226.29 117.078 1225.85 116.78C1225.4 116.482 1224.88 116.325 1224.35 116.33V116.33Z" fill="#2D2D30"/>
<path d="M1222.34 118.157H1147.69C1147.26 118.158 1146.84 118.262 1146.46 118.46C1146.08 118.657 1145.75 118.943 1145.5 119.292C1145.25 119.642 1145.09 120.046 1145.03 120.47C1144.97 120.895 1145.02 121.327 1145.16 121.732L1164.69 176.683C1164.88 177.199 1165.22 177.644 1165.67 177.958C1166.12 178.272 1166.66 178.44 1167.21 178.439H1243.92C1244.36 178.438 1244.79 178.33 1245.18 178.125C1245.56 177.92 1245.89 177.625 1246.14 177.265C1246.38 176.904 1246.54 176.489 1246.58 176.056C1246.63 175.622 1246.58 175.183 1246.42 174.777L1224.81 119.826C1224.61 119.334 1224.27 118.913 1223.83 118.616C1223.39 118.319 1222.87 118.159 1222.34 118.157V118.157Z" fill="white" stroke="#2D2D30" stroke-linejoin="round"/>
<path d="M1200.36 151.105C1200.58 148.266 1197.84 145.735 1194.23 145.451C1190.62 145.167 1187.52 147.238 1187.3 150.076C1187.07 152.915 1189.81 155.446 1193.42 155.73C1197.03 156.014 1200.13 153.943 1200.36 151.105Z" fill="#8AC186"/>
<path d="M1061.1 186.687L1045.93 369.772H1050.62L1074.1 187.415L1061.1 186.687Z" fill="white" stroke="#2D2D30" stroke-linejoin="round"/>
<path d="M1059.3 210.381L1072 205.244L1074.1 187.415L1061.1 186.687L1059.3 210.381Z" fill="#2D2D30"/>
<path d="M1324.05 186.687L1308.89 369.772H1313.58L1337.06 187.415L1324.05 186.687Z" fill="white" stroke="#2D2D30" stroke-linejoin="round"/>
<path d="M1422.3 183.621H1310.51V189.944H1422.3V183.621Z" fill="white" stroke="#2D2D30" stroke-linejoin="round"/>
<path d="M1045.21 189.943L1310.51 189.943V183.62L1045.21 183.62V189.943Z" fill="white" stroke="#2D2D30" stroke-linejoin="round"/>
<path d="M1455 370L896 370" stroke="#2D2D30" stroke-linejoin="round"/>
<path d="M1409.51 20.6299C1403.84 20.6316 1398.29 22.3164 1393.57 25.4711C1388.85 28.6258 1385.17 33.1089 1383 38.3534C1380.83 43.5979 1380.26 49.3684 1381.37 54.9352C1382.48 60.502 1385.22 65.6152 1389.23 69.6282C1393.24 73.6411 1398.36 76.3737 1403.92 77.4805C1409.49 78.5872 1415.26 78.0183 1420.51 75.8457C1425.75 73.6732 1430.23 69.9945 1433.39 65.2749C1436.54 60.5553 1438.22 55.0067 1438.22 49.3306C1438.22 45.5608 1437.48 41.828 1436.04 38.3453C1434.59 34.8626 1432.48 31.6983 1429.81 29.033C1427.15 26.3678 1423.98 24.2539 1420.5 22.8121C1417.02 21.3703 1413.28 20.6287 1409.51 20.6299V20.6299ZM1409.51 66.3947C1406.14 66.3947 1402.84 65.3939 1400.03 63.5189C1397.23 61.6438 1395.04 58.9788 1393.75 55.8607C1392.46 52.7427 1392.12 49.3117 1392.78 46.0015C1393.43 42.6914 1395.06 39.6509 1397.45 37.2644C1399.83 34.878 1402.87 33.2528 1406.18 32.5944C1409.49 31.936 1412.92 32.2739 1416.04 33.5654C1419.16 34.857 1421.83 37.0441 1423.7 39.8503C1425.58 42.6565 1426.58 45.9556 1426.58 49.3306C1426.58 53.8563 1424.78 58.1966 1421.58 61.3967C1418.38 64.5969 1414.04 66.3947 1409.51 66.3947V66.3947Z" fill="white" stroke="#2D2D30" stroke-linecap="round" stroke-linejoin="round"/>
<g style="mix-blend-mode:multiply">
<path d="M1438.22 49.3306C1438.22 41.7179 1435.19 34.4178 1429.81 29.0356C1424.43 23.6534 1417.12 20.6299 1409.51 20.6299V32.2753C1411.75 32.2741 1413.97 32.7144 1416.04 33.571C1418.11 34.4276 1419.99 35.6837 1421.58 37.2676C1423.16 38.8514 1424.42 40.732 1425.28 42.8018C1426.13 44.8716 1426.58 47.0901 1426.58 49.3306H1438.22Z" fill="#8E96EB"/>
</g>
<path opacity="0.1" d="M1166.46 87.6828H1277.11V26.6279C1277.11 26.6279 1261.17 33.2498 1239.45 64.5589C1224.51 86.1107 1166.46 87.6828 1166.46 87.6828Z" fill="#7B46B5"/>
<path d="M1277.12 26.6279C1277.12 26.6279 1261.17 33.2498 1239.46 64.5589C1224.53 86.1107 1166.46 87.6828 1166.46 87.6828" stroke="#FF6679" stroke-width="0.75" stroke-miterlimit="10"/>
<g style="mix-blend-mode:multiply" opacity="0.1">
<path d="M1166.46 87.6826H1277.11V55.7236C1277.11 55.7236 1265.7 74.9482 1241.53 77.5477C1217.36 80.1473 1193.47 56.5052 1166.46 87.6826Z" fill="#7B46B5"/>
</g>
<path d="M1277.12 55.7236C1277.12 55.7236 1265.71 74.9482 1241.54 77.5477C1217.37 80.1473 1193.47 56.4701 1166.46 87.6826" stroke="#8E96EB" stroke-width="0.75" stroke-miterlimit="10"/>
<path d="M1175.69 63.4268H1171.7V66.764H1175.69V63.4268Z" fill="#FF6679"/>
<path d="M1181.33 56.8311H1177.35V63.7779H1181.33V56.8311Z" fill="white" stroke="#2D2D30" stroke-linecap="round" stroke-linejoin="round"/>
<path d="M1186.98 53.125H1183V60.265H1186.98V53.125Z" fill="white" stroke="#2D2D30" stroke-linecap="round" stroke-linejoin="round"/>
<path d="M1192.64 56.874H1188.65V60.2113H1192.64V56.874Z" fill="#FF6679"/>
<path d="M1198.28 50.4639H1194.3V57.156H1198.28V50.4639Z" fill="#FF6679"/>
<path d="M1203.93 46.8281H1199.95V53.45H1203.93V46.8281Z" fill="white" stroke="#2D2D30" stroke-linecap="round" stroke-linejoin="round"/>
<path d="M1209.58 36.8242H1205.6V49.8133H1209.58V36.8242Z" fill="white" stroke="#2D2D30" stroke-linecap="round" stroke-linejoin="round"/>
<path d="M1215.23 39.9424H1211.25V44.7463H1215.23V39.9424Z" fill="white" stroke="#2D2D30" stroke-linecap="round" stroke-linejoin="round"/>
<path d="M1220.89 33.707H1216.9V54.2928H1220.89V33.707Z" fill="#FF6679"/>
<path d="M1226.54 50.5684H1222.55V53.9057H1226.54V50.5684Z" fill="white" stroke="#2D2D30" stroke-linecap="round" stroke-linejoin="round"/>
<path d="M1232.18 24.2217H1228.2V52.6677H1232.18V24.2217Z" fill="white" stroke="#2D2D30" stroke-linecap="round" stroke-linejoin="round"/>
<path d="M1237.84 14.4209H1233.85V26.0663H1237.84V14.4209Z" fill="white" stroke="#2D2D30" stroke-linecap="round" stroke-linejoin="round"/>
<path d="M1243.49 17.793H1239.5V25.9781H1243.49V17.793Z" fill="#FF6679"/>
<path d="M1249.14 15.0703H1245.15V25.7233H1249.14V15.0703Z" fill="white" stroke="#2D2D30" stroke-linecap="round" stroke-linejoin="round"/>
<path d="M1254.79 2.46875H1250.8V15.8443H1254.79V2.46875Z" fill="white" stroke="#2D2D30" stroke-linecap="round" stroke-linejoin="round"/>
<path d="M1260.44 0H1256.45V12.3216H1260.44V0Z" fill="#FF6679"/>
<path d="M1266.09 5.84961H1262.11V12.0851H1266.09V5.84961Z" fill="white" stroke="#2D2D30" stroke-linecap="round" stroke-linejoin="round"/>
<path d="M1271.74 8.4834H1267.75V11.8207H1271.74V8.4834Z" fill="#FF6679"/>
<path d="M1080.19 106.1H1117.85V169.745H1066.58V119.888L1080.19 106.1Z" fill="white" stroke="#2D2D30" stroke-linecap="round" stroke-linejoin="round"/>
<g style="mix-blend-mode:multiply">
<path d="M1067.02 120.064L1080.37 106.539V120.073L1067.02 120.064Z" fill="#8E96EB"/>
</g>
<path d="M1110.1 125.394H1080.14" stroke="#2D2D30" stroke-linecap="round" stroke-linejoin="round"/>
<path d="M1110.1 129.004H1074.16" stroke="#2D2D30" stroke-linecap="round" stroke-linejoin="round"/>
<path d="M1110.1 158.952H1080.14" stroke="#2D2D30" stroke-linecap="round" stroke-linejoin="round"/>
<path d="M1110.1 162.561H1074.16" stroke="#2D2D30" stroke-linecap="round" stroke-linejoin="round"/>
<path d="M1110.1 132.622H1074.16" stroke="#2D2D30" stroke-linecap="round" stroke-linejoin="round"/>
<path d="M1110.1 136.23H1074.16" stroke="#2D2D30" stroke-linecap="round" stroke-linejoin="round"/>
<path d="M1093.71 142.159H1074.16" stroke="#2D2D30" stroke-linecap="round" stroke-linejoin="round"/>
<path d="M1093.71 145.733H1074.16" stroke="#2D2D30" stroke-linecap="round" stroke-linejoin="round"/>
<path d="M1093.71 149.3H1074.16" stroke="#2D2D30" stroke-linecap="round" stroke-linejoin="round"/>
<path d="M1093.71 152.874H1074.16" stroke="#2D2D30" stroke-linecap="round" stroke-linejoin="round"/>
<g style="mix-blend-mode:multiply">
<path d="M1110.1 141.062H1097.15V154.015H1110.1V141.062Z" fill="#8E96EB"/>
</g>
<g opacity="0.8">
<path opacity="0.8" d="M1116.27 70.1024C1116.37 70.3787 1116.36 70.6807 1116.24 70.9489C1116.12 71.2171 1115.91 71.432 1115.64 71.5512C1115.38 71.6703 1115.08 71.685 1114.8 71.5924C1114.52 71.4998 1114.29 71.3065 1114.15 71.0509C1113.74 71.3325 1113.37 71.6596 1113.03 72.0258C1113.24 72.1764 1113.39 72.3911 1113.46 72.6367C1113.54 72.8824 1113.53 73.1453 1113.44 73.385C1113.35 73.6248 1113.18 73.8279 1112.96 73.9632C1112.74 74.0984 1112.49 74.1583 1112.23 74.1335C1112.08 74.1177 1111.93 74.073 1111.79 74.0018C1111.59 74.5152 1111.46 75.0525 1111.4 75.6002H1111.52C1111.67 75.6144 1111.82 75.659 1111.96 75.7314C1112.1 75.8039 1112.22 75.9027 1112.31 76.0221C1112.41 76.1414 1112.48 76.279 1112.53 76.4267C1112.57 76.5744 1112.58 76.7293 1112.57 76.8824C1112.54 77.1458 1112.42 77.3923 1112.24 77.5819C1112.05 77.7716 1111.81 77.8933 1111.55 77.9275C1111.7 78.5201 1111.93 79.0881 1112.24 79.6137C1112.47 79.4467 1112.76 79.3688 1113.04 79.3941C1113.26 79.4162 1113.47 79.4995 1113.64 79.6343C1113.81 79.7691 1113.95 79.95 1114.02 80.1563C1114.1 80.3626 1114.11 80.5859 1114.07 80.8006C1114.02 81.0153 1113.91 81.2127 1113.76 81.3701C1114.31 81.8204 1114.94 82.1711 1115.61 82.4065C1115.69 82.1284 1115.87 81.8885 1116.11 81.733C1116.35 81.5775 1116.65 81.5174 1116.93 81.5642C1117.21 81.6111 1117.47 81.7617 1117.65 81.9869C1117.83 82.2122 1117.92 82.4961 1117.91 82.7841C1118.42 82.7768 1118.92 82.706 1119.42 82.5733C1119.31 82.298 1119.31 81.993 1119.42 81.7195C1119.53 81.4459 1119.74 81.2241 1120.01 81.0985C1120.28 80.9729 1120.58 80.9529 1120.86 81.0423C1121.14 81.1318 1121.38 81.3242 1121.52 81.5809C1121.95 81.2798 1122.33 80.9289 1122.67 80.5358C1122.48 80.4209 1122.34 80.2572 1122.24 80.0632C1122.15 79.8693 1122.11 79.6528 1122.13 79.438C1122.16 79.1285 1122.32 78.8447 1122.56 78.6488C1122.8 78.453 1123.11 78.361 1123.42 78.3929C1123.57 78.4088 1123.71 78.4536 1123.83 78.5247C1124 78.0707 1124.11 77.599 1124.16 77.1195H1124.07C1123.79 77.0916 1123.52 76.9607 1123.33 76.7514C1123.13 76.5421 1123.02 76.269 1123.02 75.9836C1123.01 75.6982 1123.11 75.4203 1123.29 75.2024C1123.48 74.9845 1123.74 74.8417 1124.02 74.801C1123.86 74.165 1123.61 73.5575 1123.26 73.0006C1123.03 73.1713 1122.75 73.2496 1122.46 73.2201C1122.16 73.1869 1121.87 73.0336 1121.68 72.7936C1121.48 72.5536 1121.39 72.2462 1121.42 71.9379C1121.45 71.6897 1121.55 71.4563 1121.72 71.2705C1121.2 70.8761 1120.63 70.5595 1120.02 70.3308C1119.95 70.6134 1119.77 70.8575 1119.52 71.0148C1119.28 71.1722 1118.98 71.2313 1118.69 71.1806C1118.4 71.1298 1118.14 70.9728 1117.97 70.7407C1117.79 70.5085 1117.7 70.2181 1117.73 69.9268V69.9268C1117.24 69.9317 1116.75 69.9906 1116.27 70.1024ZM1118.18 72.4736C1118.94 72.5516 1119.67 72.8546 1120.26 73.3445C1120.86 73.8344 1121.29 74.4892 1121.52 75.2264C1121.74 75.9635 1121.74 76.7501 1121.51 77.4868C1121.29 78.2235 1120.85 78.8775 1120.26 79.3662C1119.66 79.8549 1118.94 80.1566 1118.17 80.233C1117.4 80.3095 1116.63 80.1574 1115.95 79.796C1115.27 79.4345 1114.72 78.8799 1114.35 78.202C1113.99 77.524 1113.83 76.7532 1113.9 75.9866C1113.95 75.4744 1114.1 74.9768 1114.34 74.5225C1114.58 74.0683 1114.91 73.6662 1115.31 73.3397C1115.71 73.0132 1116.16 72.7685 1116.66 72.6199C1117.15 72.4712 1117.67 72.4215 1118.18 72.4736V72.4736Z" fill="white" stroke="#2D2D30" stroke-linecap="round" stroke-linejoin="round"/>
<path opacity="0.8" d="M1122.15 76.967C1122.5 74.519 1120.81 72.2466 1118.36 71.8916C1115.91 71.5367 1113.64 73.2336 1113.28 75.6816C1112.93 78.1297 1114.63 80.402 1117.07 80.757C1119.52 81.1119 1121.79 79.4151 1122.15 76.967Z" stroke="white" stroke-width="0.16" stroke-miterlimit="10"/>
<path opacity="0.8" d="M1125.35 60.9509C1125.43 61.1286 1125.47 61.3194 1125.47 61.513C1125.47 61.7974 1125.38 62.0737 1125.21 62.3022C1125.04 62.5308 1124.8 62.6997 1124.53 62.7846C1124.26 62.8696 1123.97 62.8662 1123.7 62.775C1123.43 62.6837 1123.2 62.5094 1123.03 62.277C1122.37 62.8516 1121.83 63.5536 1121.45 64.3409C1121.71 64.4368 1121.93 64.6082 1122.09 64.8324C1122.24 65.0566 1122.33 65.3231 1122.33 65.5967C1122.33 65.7735 1122.3 65.9488 1122.23 66.1123C1122.16 66.2759 1122.06 66.4245 1121.94 66.5495C1121.81 66.6745 1121.67 66.7734 1121.5 66.8405C1121.34 66.9076 1121.16 66.9416 1120.99 66.9404H1120.79C1120.79 67.0458 1120.79 67.1512 1120.79 67.2566C1120.79 67.9544 1120.9 68.6479 1121.12 69.3117C1121.29 69.2337 1121.47 69.1947 1121.66 69.1975C1122.02 69.1975 1122.36 69.3381 1122.61 69.5885C1122.86 69.8388 1123 70.1784 1123 70.5324C1123 70.7446 1122.95 70.9538 1122.85 71.143C1122.75 71.3321 1122.62 71.496 1122.44 71.6214C1122.99 72.2435 1123.66 72.7586 1124.39 73.1408C1124.48 72.8845 1124.65 72.6626 1124.87 72.5053C1125.1 72.3481 1125.36 72.2633 1125.63 72.2625C1125.81 72.2614 1125.98 72.2951 1126.15 72.3616C1126.31 72.4282 1126.46 72.5263 1126.58 72.6504C1126.71 72.7745 1126.81 72.922 1126.87 73.0846C1126.94 73.2471 1126.98 73.4214 1126.98 73.5974C1126.98 73.6676 1126.98 73.738 1126.98 73.8082H1127.41C1128.08 73.8075 1128.74 73.7098 1129.37 73.5184C1129.31 73.3532 1129.28 73.1775 1129.28 73.0002C1129.28 72.6462 1129.42 72.3067 1129.67 72.0563C1129.92 71.806 1130.26 71.6653 1130.61 71.6653C1130.83 71.663 1131.04 71.713 1131.23 71.811C1131.42 71.909 1131.58 72.0519 1131.7 72.2274C1132.35 71.6751 1132.89 71.0009 1133.28 70.2426C1132.99 70.1273 1132.75 69.916 1132.6 69.6446C1132.45 69.3732 1132.4 69.0583 1132.46 68.7533C1132.52 68.4484 1132.67 68.1721 1132.91 67.9713C1133.15 67.7705 1133.45 67.6577 1133.76 67.6518C1133.84 67.6432 1133.93 67.6432 1134.01 67.6518C1134.01 67.4937 1134.01 67.3356 1134.01 67.1776C1134.01 66.4985 1133.9 65.8236 1133.7 65.1752C1133.53 65.2454 1133.35 65.2813 1133.17 65.2806C1132.88 65.2835 1132.6 65.1946 1132.37 65.0271C1132.14 64.8596 1131.97 64.6222 1131.88 64.3499C1131.8 64.0776 1131.8 63.7848 1131.89 63.5144C1131.98 63.244 1132.16 63.0104 1132.39 62.8479C1131.84 62.2091 1131.16 61.6817 1130.41 61.2934C1130.3 61.587 1130.09 61.8318 1129.81 61.9845C1129.54 62.1372 1129.22 62.1881 1128.91 62.1283C1128.6 62.0685 1128.32 61.9018 1128.12 61.6575C1127.93 61.4132 1127.82 61.107 1127.83 60.7928C1127.82 60.7228 1127.82 60.652 1127.83 60.582H1127.38C1126.69 60.5965 1126 60.721 1125.35 60.9509V60.9509ZM1130.62 67.239C1130.62 67.8713 1130.43 68.4894 1130.08 69.0151C1129.73 69.5408 1129.23 69.9505 1128.65 70.1925C1128.06 70.4344 1127.42 70.4977 1126.8 70.3744C1126.18 70.251 1125.61 69.9466 1125.16 69.4995C1124.72 69.0524 1124.41 68.4828 1124.29 67.8627C1124.16 67.2426 1124.23 66.5998 1124.47 66.0157C1124.71 65.4315 1125.12 64.9323 1125.65 64.581C1126.17 64.2297 1126.79 64.0423 1127.42 64.0423C1128.27 64.0515 1129.07 64.3924 1129.66 64.9909C1130.25 65.5894 1130.59 66.3972 1130.59 67.239H1130.62Z" fill="#8E96EB"/>
</g>
<defs>
<clipPath id="clip0_1_639">
<rect width="536" height="294" fill="white" transform="translate(1 85)"/>
</clipPath>
</defs>
</svg>
