<svg width="375" height="249" viewBox="0 0 375 249" fill="none" xmlns="http://www.w3.org/2000/svg">
<path d="M47.0996 248.212C47.2838 226.391 56.0813 205.526 71.5766 190.161C87.0719 174.796 108.01 166.175 129.832 166.175C151.654 166.175 172.592 174.796 188.087 190.161C203.582 205.526 212.38 226.391 212.564 248.212" fill="#8AC186"/>
<path d="M58.0808 229.312C58.0808 229.312 44.8425 213.864 43.24 196.82" stroke="#2D2D30" stroke-linecap="round" stroke-linejoin="round"/>
<path d="M61.9199 229.111C58.3358 224.672 55.7677 219.501 54.3964 213.963C51.6568 203.217 50.5904 174.555 48.3811 166.13" stroke="#2D2D30" stroke-linecap="round" stroke-linejoin="round"/>
<path d="M63.7181 228.657C63.7181 228.657 61.4616 216.173 63.1289 204.59C64.7962 193.007 71.8544 168.652 64.6372 133.302" stroke="#2D2D30" stroke-linecap="round" stroke-linejoin="round"/>
<path d="M65.4535 189.926C65.4535 189.926 59.3616 182.267 61.7712 179.911C64.1809 177.554 66.6554 182.014 66.3549 185.626C66.0544 189.237 65.4535 189.926 65.4535 189.926Z" fill="#2D2D30"/>
<path d="M66.3281 229.311C66.3281 229.311 64.5253 224.297 69.9396 207.047C75.354 189.796 78.5649 164.038 78.5649 164.038" stroke="#2D2D30" stroke-linecap="round" stroke-linejoin="round"/>
<path d="M67.3303 215.671C67.3303 215.671 72.0436 207.947 76.4563 208.848C80.8691 209.75 76.7569 214.569 67.5307 216.772C67.1301 217.073 67.3303 215.671 67.3303 215.671Z" fill="#2D2D30"/>
<path d="M70.755 204.437C70.755 204.437 73.7007 199.211 76.399 201.244C79.0974 203.276 72.6344 206.204 71.3559 207.182C70.6477 207.707 70.0048 208.314 69.4412 208.991L70.755 204.437Z" fill="#2D2D30"/>
<path d="M71.8875 200.276C71.8875 200.276 77.5256 197.92 76.7008 195.563C75.876 193.206 73.2012 195.934 72.5767 197.366C72.2106 198.299 71.9786 199.278 71.8875 200.276Z" fill="#2D2D30"/>
<path d="M71.2786 202.257C70.9446 200.646 70.3622 199.098 69.5524 197.667C68.1973 195.263 70.8662 193.042 72.0681 194.621C73.27 196.2 72.2979 199.022 72.2979 199.022L71.2786 202.257Z" fill="#2D2D30"/>
<path d="M74.1537 190.551C74.1537 190.551 76.6576 181.878 81.4239 184.435C86.1901 186.992 73.4998 193.661 73.4998 193.661L74.1537 190.551Z" fill="#2D2D30"/>
<path d="M75.8562 181.324C75.8562 181.324 80.1453 173.959 82.4724 176.964C85.0824 180.322 75.5027 183.628 75.5027 183.628L75.8562 181.324Z" fill="#2D2D30"/>
<path d="M75.4046 182.878C75.4046 182.878 70.7444 178.666 72.3469 176.763C73.9494 174.86 76.1116 176.657 76.2118 179.067C76.3129 180.388 76.0328 181.711 75.4046 182.878Z" fill="#2D2D30"/>
<path d="M76.8105 176.658C76.8105 176.658 86.4844 171.497 84.4283 167.585C82.3721 163.673 78.3129 169.188 77.4586 172.151C77.058 175.309 76.8105 176.658 76.8105 176.658Z" fill="#2D2D30"/>
<path d="M78.0132 169.388C78.0132 169.388 87.3866 163.025 84.7826 159.661C82.1785 156.297 78.567 165.482 78.567 165.482L78.0132 169.388Z" fill="#2D2D30"/>
<path d="M78.014 165.983C78.014 165.983 75.6044 153.145 78.5149 152.191C81.4253 151.237 81.0718 156.356 80.6711 158.613C80.2705 160.869 78.615 166.03 78.615 166.03L78.014 165.983Z" fill="#2D2D30"/>
<path d="M62.8957 205.645C62.8957 205.645 56.7685 199.364 59.2842 196.996C61.7999 194.627 63.4966 199.889 63.3493 203.347C63.0076 204.926 62.8957 205.645 62.8957 205.645Z" fill="#2D2D30"/>
<path d="M63.9732 198.576C63.9732 198.576 63.8848 181.396 71.2669 183.847C78.1129 186.086 63.9732 198.576 63.9732 198.576Z" fill="#2D2D30"/>
<path d="M67.5087 175.256C67.5087 175.256 69.6885 165.83 74.278 168.039C78.8676 170.248 68.4866 177.89 67.3555 178.055C67.5086 176.458 67.5087 175.256 67.5087 175.256Z" fill="#2D2D30"/>
<path d="M67.1053 175.533C67.1053 175.533 59.735 170.272 61.9149 166.436C64.0948 162.601 67.7063 173.129 67.7063 173.129L67.1053 175.533Z" fill="#2D2D30"/>
<path d="M67.8628 168.563C67.8628 168.563 73.8015 165.182 72.9001 162.171C71.9987 159.161 67.8628 163.149 67.8628 165.853V168.563Z" fill="#2D2D30"/>
<path d="M67.8624 163.673C67.8624 163.673 64.4748 152.844 59.8146 156.526C55.1543 160.208 63.4968 166.984 67.8624 165.852C67.9146 165.127 67.9146 164.398 67.8624 163.673Z" fill="#2D2D30"/>
<path d="M67.7876 161.569C67.7876 161.569 76.4364 157.133 74.9341 152.62C73.4317 148.107 68.0881 155.566 67.7876 159.46C67.8393 160.162 67.8393 160.867 67.7876 161.569Z" fill="#2D2D30"/>
<path d="M67.5098 156.527C67.5098 156.527 60.3634 153.369 61.8657 148.108C63.3681 142.847 67.5098 151.714 67.6571 154.123C67.8044 156.533 67.5098 156.527 67.5098 156.527Z" fill="#2D2D30"/>
<path d="M67.0322 149.61C67.0322 149.61 68.9882 135.848 74.6323 138.705C80.2765 141.563 70.5082 149.687 67.3327 150.812C67.1835 150.426 67.0826 150.022 67.0322 149.61Z" fill="#2D2D30"/>
<path d="M65.9048 139.158C65.9048 139.158 66.1287 125.242 72.521 127.499C78.9133 129.755 66.0403 140.507 66.0403 140.507L65.9048 139.158Z" fill="#2D2D30"/>
<path d="M66.4316 145.321C66.4316 145.321 58.5368 141.038 60.1158 137.503C61.6947 133.968 65.5302 137.65 66.5082 143.141C66.732 144.95 66.4316 145.321 66.4316 145.321Z" fill="#2D2D30"/>
<path d="M64.8492 134.291C64.8492 134.291 65.1497 118.797 59.8827 120.829C54.6156 122.862 59.8826 129.678 64.8492 134.291Z" fill="#2D2D30"/>
<path d="M56.6495 220.084C56.6495 220.084 53.8687 207.37 60.1845 209.249C66.5002 211.129 57.0266 220.608 57.0266 220.608L56.6495 220.084Z" fill="#2D2D30"/>
<path d="M54.9235 215.873C54.9235 215.873 52.2134 212.261 51.3886 213.693C50.5638 215.124 50.7995 216.998 55.3006 217.228C55.2862 216.752 55.1568 216.287 54.9235 215.873Z" fill="#2D2D30"/>
<path d="M53.5677 209.704C53.5677 209.704 52.4425 202.257 55.7476 203.158C59.0528 204.06 54.0214 210.682 54.0214 210.682L53.5677 209.704Z" fill="#2D2D30"/>
<path d="M52.9692 207.524C52.9692 207.524 48.7567 204.136 49.7347 202.41C50.7127 200.684 52.0913 202.557 53.1164 206.169C53.4935 207.6 52.9692 207.524 52.9692 207.524Z" fill="#2D2D30"/>
<path d="M52.1917 199.924C52.1917 199.924 53.6351 191.676 57.8357 194.132C61.4414 196.242 52.4921 201.355 52.4921 201.355L52.1917 199.924Z" fill="#2D2D30"/>
<path d="M52.1005 199.323C52.1005 199.323 51.423 191.163 48.1532 192.365C44.8834 193.567 50.5981 199.665 52.1771 200.678C52.3656 199.588 52.1005 199.323 52.1005 199.323Z" fill="#2D2D30"/>
<path d="M51.3499 191.24C51.3499 191.24 51.9921 177.024 58.2371 178.644C64.4822 180.264 55.7509 192.254 51.7564 193.721C51.4677 192.365 51.3499 191.24 51.3499 191.24Z" fill="#2D2D30"/>
<path d="M51.0899 187.705C51.0899 187.705 47.6316 177.689 44.6563 180.046C41.6811 182.403 50.9368 188.842 50.9368 188.842L51.0899 187.705Z" fill="#2D2D30"/>
<path d="M51.0114 186.65C51.0114 186.65 48.4545 175.745 52.0248 176.01C55.5951 176.275 51.2353 187.793 51.2353 187.793L51.0114 186.65Z" fill="#2D2D30"/>
<path d="M49.958 176.158C49.958 176.158 61.2816 168.528 57.181 162.248C53.0805 155.967 49.8873 170.896 49.6988 173.601C49.5674 174.461 49.6566 175.341 49.958 176.158Z" fill="#2D2D30"/>
<path d="M49.5787 173.041C49.5787 173.041 46.686 164.693 43.5635 163.226C40.4409 161.759 35.9045 165.294 39.6927 169.653C43.481 174.013 49.5787 174.278 49.5787 174.278V173.041Z" fill="#2D2D30"/>
<path d="M48.4552 165.929C48.4552 165.929 42.0628 160.214 41.9745 152.879C41.8861 145.544 48.9324 145.132 50.582 148.967C52.2316 152.803 49.8338 156.868 49.4567 159.501C49.0796 162.135 48.4552 165.929 48.4552 165.929Z" fill="#2D2D30"/>
<path d="M49.0931 168.787C49.0931 168.787 54.0596 160.179 50.4128 158.035C46.7659 155.89 46.2357 164.274 48.6041 168.186C48.9458 168.752 49.0931 168.787 49.0931 168.787Z" fill="#2D2D30"/>
<path d="M47.7313 212.738C47.7313 212.738 46.1759 205.344 50.135 206.47C54.0942 207.595 48.5031 213.816 48.5031 213.816L47.7313 212.738Z" fill="#2D2D30"/>
<path d="M45.9233 208.1C45.9233 208.1 43.5667 202.798 40.8624 202.91C38.1582 203.022 37.5514 205.213 40.2733 207.122C41.9609 208.266 43.9755 208.829 46.0116 208.725L45.9233 208.1Z" fill="#2D2D30"/>
<path d="M44.2947 203.411C44.2947 203.411 43.788 196.241 47.0225 196.542C50.257 196.842 44.6659 203.888 44.6659 203.888L44.2947 203.411Z" fill="#2D2D30"/>
<path d="M43.9423 201.88C43.9423 201.88 41.9097 195.21 39.2761 196.442C36.6426 197.673 40.9552 201.744 44.066 202.81C44.1426 201.88 43.9423 201.88 43.9423 201.88Z" fill="#2D2D30"/>
<path d="M43.0879 197.396C43.0879 197.396 36.0711 188.14 40.2835 186.202C44.496 184.264 44.3664 194.197 43.5887 197.396C43.5416 197.697 43.0879 197.396 43.0879 197.396Z" fill="#2D2D30"/>
<path d="M74.0227 230.235L61.6917 230.088L49.3547 230.235C49.3547 230.235 46.574 239.939 55.2994 247.763H68.0958C76.8094 239.939 74.0227 230.235 74.0227 230.235Z" fill="white" stroke="#2D2D30" stroke-linecap="round" stroke-linejoin="round"/>
<path d="M75.115 227.449H48.2671C47.2487 227.449 46.4231 228.274 46.4231 229.293C46.4231 230.311 47.2487 231.137 48.2671 231.137H75.115C76.1334 231.137 76.959 230.311 76.959 229.293C76.959 228.274 76.1334 227.449 75.115 227.449Z" fill="white" stroke="#2D2D30" stroke-linecap="round" stroke-linejoin="round"/>
<path d="M275.587 163.586L256.975 247.752H254.265L267.35 160.434L275.587 163.586Z" fill="white" stroke="#2D2D30" stroke-linejoin="round"/>
<path d="M265.13 175.263L273.36 173.666L274.916 166.632L275.287 163.509L267.345 160.475L265.13 175.263Z" fill="#2D2D30"/>
<path d="M303.698 163.586L322.31 247.752H325.02L311.935 160.434L303.698 163.586Z" fill="white" stroke="#2D2D30" stroke-linejoin="round"/>
<path d="M313.549 171.179L311.964 160.627L307.84 162L303.698 163.585L306.403 175.821L313.549 171.179Z" fill="#2D2D30"/>
<path d="M314.007 152.744L349.309 64.6007C349.309 64.6007 358.942 68.6011 354.611 80.9557C350.281 93.3103 330.621 145.839 330.621 145.839C330.178 147.03 329.584 148.159 328.854 149.198C327.074 151.324 323.51 152.98 314.007 152.744Z" fill="white" stroke="#2D2D30" stroke-linejoin="round"/>
<path d="M349.315 64.6007L313.877 153.104H269.166L308.604 64.6891L349.315 64.6007Z" fill="white" stroke="#2D2D30" stroke-linejoin="round"/>
<path d="M274.075 165.464H228.003C228.003 165.464 223.643 160.468 224.551 154.017H268.148L274.075 165.464Z" fill="#2D2D30"/>
<path d="M269.867 214.653L257.76 198.71L245.859 208.001L258.985 224.356C258.985 224.356 262.355 224.356 266.344 221.452C270.332 218.547 269.867 214.653 269.867 214.653Z" fill="white" stroke="#2D2D30" stroke-linecap="round" stroke-linejoin="round"/>
<path d="M269.214 213.351C269.214 213.351 276.708 219.531 278.446 223.625C273.226 232.327 264.53 244.711 263.092 245.224C261.655 245.736 246.549 247.787 244.504 247.787C243.379 245.742 244.057 238.572 254.479 236.416C255.895 232.121 257.064 227.748 257.978 223.319C257.978 223.319 267.882 219.802 269.214 213.351Z" fill="#2D2D30"/>
<path d="M276.502 220.834C274.246 224.557 271.901 228.228 269.538 231.88L265.933 237.324C265.344 238.232 264.755 239.139 264.095 240.028L263.152 241.36C262.828 241.825 262.476 242.27 262.097 242.691L262.05 242.744H261.962L257.508 243.451C256.029 243.693 254.562 243.905 253.054 244.129C251.546 244.353 250.108 244.583 248.588 244.783L244.122 245.372L248.553 244.524C250.026 244.235 251.498 243.988 252.989 243.717C254.48 243.446 255.935 243.175 257.425 242.933L261.874 242.179L261.738 242.238C262.075 241.84 262.392 241.425 262.687 240.995L263.617 239.663L265.467 236.977L269.12 231.568C271.571 228.01 274.01 224.434 276.502 220.834Z" fill="white"/>
<path d="M261.897 200.813L247.604 212.702C247.604 212.702 204.13 161.557 199.016 152.532C193.903 143.506 192.1 128.765 212.255 125.43C232.41 122.096 263.7 123.021 263.7 123.021L291.39 124.829C291.39 124.829 295.002 151.3 272.137 151.3C249.271 151.3 224.291 147.447 224.291 147.447L261.897 200.813Z" fill="#2D2D30"/>
<path d="M272.121 151.324C268.115 151.324 264.109 151.324 260.108 151.136C256.108 150.947 252.108 150.723 248.119 150.405C244.13 150.087 240.136 149.728 236.153 149.274C232.17 148.82 228.2 148.331 224.235 147.748L224.5 147.312L233.926 160.645L243.305 174.001L252.632 187.392L261.911 200.813L252.378 187.569L242.899 174.29L233.472 160.969L224.046 147.636L223.675 147.1L224.317 147.2C228.27 147.789 232.241 148.302 236.212 148.767C240.183 149.233 244.166 149.651 248.148 150.005C252.131 150.358 256.126 150.641 260.12 150.888C264.114 151.136 268.115 151.259 272.121 151.324Z" fill="white"/>
<path d="M166.82 234.861L175.811 221.687L163.833 214.111L154.996 226.483C154.996 226.483 153.553 232.581 157.747 235.138C161.942 237.695 166.82 234.861 166.82 234.861Z" fill="white" stroke="#2D2D30" stroke-linejoin="round"/>
<path d="M167.802 233.96C167.802 233.96 163.265 245.796 157.721 248.041C146.156 240.877 122.614 225.73 122.614 225.73C122.614 225.73 125.176 216.003 141.142 224.398C145.873 225.078 150.651 225.371 155.429 225.276C155.429 225.276 156.03 233.347 167.802 233.96Z" fill="#2D2D30"/>
<path d="M124.658 222.859C127.828 224.538 130.962 226.271 134.084 228.009C137.207 229.747 140.324 231.543 143.446 233.311C146.569 235.078 149.656 236.893 152.737 238.713L157.362 241.459C158.888 242.39 160.431 243.309 161.952 244.257C160.361 243.421 158.794 242.555 157.238 241.706L152.525 239.108C149.391 237.341 146.286 235.573 143.163 233.806C140.041 232.038 136.96 230.224 133.872 228.403C130.785 226.583 127.71 224.745 124.658 222.859Z" fill="white"/>
<path d="M305.013 126.456C305.013 126.456 307.046 147.924 294.308 152.968C281.571 158.011 228.27 158.488 228.27 158.488L174.657 225.722C174.657 225.722 163.427 218.105 160.217 215.118C160.217 215.118 214.372 136.895 217.176 134.091C219.98 131.287 285.371 124.665 285.371 124.665" fill="#2D2D30"/>
<path d="M201.311 156.091L208.121 146.193C210.413 142.911 212.711 139.636 215.068 136.389C215.657 135.582 216.246 134.775 216.906 133.98C217.004 133.868 217.119 133.772 217.247 133.697C217.365 133.638 217.489 133.561 217.607 133.514C217.854 133.408 218.096 133.332 218.337 133.249C218.826 133.096 219.309 132.96 219.798 132.843C221.76 132.371 223.734 132.012 225.69 131.664C229.643 130.987 233.608 130.409 237.573 129.861C245.515 128.813 253.467 127.856 261.428 126.992L273.376 125.743L285.342 124.63L261.481 127.44C253.534 128.4 245.574 129.349 237.656 130.445C233.685 130.975 229.726 131.535 225.778 132.212C223.811 132.548 221.837 132.896 219.887 133.355C219.404 133.467 218.927 133.603 218.455 133.744C218.225 133.821 217.99 133.897 217.772 133.991C217.666 134.035 217.564 134.087 217.465 134.145C217.375 134.193 217.295 134.259 217.23 134.339C216.599 135.058 215.998 135.889 215.398 136.696C213 139.901 210.684 143.176 208.328 146.393L201.311 156.091Z" fill="white"/>
<path d="M294.331 152.98C291.72 153.915 289.028 154.605 286.289 155.042C283.562 155.531 280.816 155.903 278.041 156.221C272.533 156.851 267.012 157.305 261.48 157.635C255.948 157.965 250.422 158.224 244.883 158.412C239.345 158.601 233.813 158.707 228.275 158.754L228.47 158.66L219.562 169.683L210.601 180.659L219.308 169.465L228.075 158.33L228.146 158.236H228.269C233.803 158.157 239.336 158.018 244.866 157.817C250.398 157.623 255.924 157.411 261.451 157.093C266.977 156.775 272.497 156.409 278 155.856C280.751 155.567 283.497 155.266 286.248 154.83C288.994 154.466 291.7 153.846 294.331 152.98Z" fill="white"/>
<path d="M269.165 152.745H324.41C324.41 152.745 324.687 165.464 308.786 165.464H274.073C274.073 165.464 258.531 166.225 257.576 157.499C265.559 156.409 269.165 152.745 269.165 152.745Z" fill="white" stroke="#2D2D30" stroke-linejoin="round"/>
<path d="M160.184 125.237L170.364 248.058H167.212L151.464 125.726L160.184 125.237Z" fill="white" stroke="#2D2D30" stroke-linejoin="round"/>
<path d="M160.184 125.237L151.464 125.726L153.19 140.396L160.944 135.388L160.184 125.237Z" fill="#2D2D30"/>
<path d="M337.802 125.237L347.977 248.058H344.831L329.077 125.726L337.802 125.237Z" fill="white" stroke="#2D2D30" stroke-linejoin="round"/>
<path d="M337.802 125.237L329.077 125.726L330.956 141.698L338.686 136.902L337.802 125.237Z" fill="#2D2D30"/>
<path d="M305.758 34.1354C305.705 34.754 308.179 49.8482 309.534 52.0987C310.89 54.3493 320.027 55.94 320.027 55.94C320.027 55.94 313.134 80.4842 294.694 81.1618C276.253 81.8393 278.021 57.7311 278.021 57.7311L292.213 53.4538L292.667 38.3597C292.667 38.3597 293.256 25.8224 297.38 23.2655C303.472 19.4713 305.758 34.1354 305.758 34.1354Z" fill="white" stroke="#2D2D30" stroke-linecap="round" stroke-linejoin="round"/>
<path d="M301.804 38.006L292.525 42.1301L292.183 53.4478L284.766 55.6807C286.604 56.0872 289.29 55.934 293.079 54.143C301.993 49.9423 301.804 38.006 301.804 38.006Z" fill="#2D2D30"/>
<path d="M304.206 29.1932C304.206 29.1932 304.713 15.1714 298.314 13.1623C291.916 11.1533 282.584 13.9989 281.724 18.3881C281.724 18.3881 281.323 26.0472 281.347 27.6732C281.37 29.2993 282.301 46.8326 291.533 47.1919C298.397 47.4571 301.755 39.0439 301.755 39.0439" fill="white"/>
<path d="M304.206 29.1932C304.206 29.1932 304.713 15.1714 298.314 13.1623C291.916 11.1533 282.584 13.9989 281.724 18.3881C281.724 18.3881 281.323 26.0472 281.347 27.6732C281.37 29.2993 282.301 46.8326 291.533 47.1919C298.397 47.4571 301.755 39.0439 301.755 39.0439" stroke="#2D2D30" stroke-linecap="round" stroke-linejoin="round"/>
<path d="M306.495 13.6918C307.997 13.3913 308.221 12.7904 308.221 12.7904C308.664 14.1878 308.639 15.6915 308.15 17.0736C308.899 19.4302 309.653 21.1387 306.342 36.1033C305.624 36.2498 304.894 36.3248 304.162 36.3271C304.162 36.3271 305.44 29.8464 303.637 29.0334C301.835 28.2204 301.493 30.5122 301.493 30.5122H300.78L300.627 28.0318C300.627 28.0318 297.769 20.7381 297.993 18.4816C286.711 19.6599 281.733 18.3638 281.733 18.3638L281.297 24.4969C279.992 23.0264 279.041 21.2772 278.516 19.383C279.125 19.6292 279.746 19.8435 280.378 20.0252C280.378 20.0252 278.704 16.2782 278.663 14.1337C279.718 15.041 280.495 14.8878 280.495 14.8878C280.495 14.8878 280.92 8.61917 284.62 7.67063C284.266 9.72089 284.696 10.2983 284.696 10.2983C284.696 10.2983 286.222 7.31714 288.932 6.96365C288.231 8.07126 289.356 9.24958 289.356 9.24958C289.356 9.24958 291.012 7.48211 292.891 7.48211L292.815 9.03747C294.084 8.19687 295.541 7.68098 297.057 7.53513C296.302 8.12429 296.727 9.49113 296.727 9.49113C298.023 8.77174 299.501 8.44427 300.98 8.54848C300.674 8.82642 300.467 9.19672 300.391 9.60305C301.711 9.51143 303.035 9.71261 304.268 10.1922C303.91 10.2369 303.572 10.3796 303.29 10.6046C304.322 10.9409 305.236 11.5666 305.923 12.4074C306.255 12.7576 306.457 13.2109 306.495 13.6918Z" fill="#2D2D30"/>
<path d="M286.968 28.0434C287.188 28.2785 287.354 28.558 287.455 28.863C287.557 29.168 287.592 29.4913 287.557 29.8109C287.334 30.7359 286.697 34.5241 286.697 34.5241C286.697 34.5241 286.697 35.7849 290.544 34.6125" stroke="#2D2D30" stroke-linecap="round" stroke-linejoin="round"/>
<path d="M301.99 30.5118C301.99 30.5118 303.664 26.7412 306.38 28.2023C309.096 29.6634 305.007 35.7376 303.434 36.1088C301.861 36.48 301.82 34.5181 301.82 34.5181" fill="white"/>
<path d="M301.99 30.5118C301.99 30.5118 303.664 26.7412 306.38 28.2023C309.096 29.6634 305.007 35.7376 303.434 36.1088C301.861 36.48 301.82 34.5181 301.82 34.5181" stroke="#2D2D30" stroke-linecap="round" stroke-linejoin="round"/>
<path d="M302.744 31.5968C302.744 31.5968 303.987 28.9279 305.619 29.1459L302.744 31.5968Z" fill="white"/>
<path d="M302.744 31.5968C302.744 31.5968 303.987 28.9279 305.619 29.1459" stroke="#2D2D30" stroke-linecap="round" stroke-linejoin="round"/>
<path d="M293.439 37.7364C291.513 40.0576 287.212 39.1621 287.212 39.1621" stroke="#2D2D30" stroke-linecap="round" stroke-linejoin="round"/>
<path d="M290.715 26.3408C290.715 26.3408 293.436 22.8765 297.195 25.1625" stroke="#2D2D30" stroke-linecap="round" stroke-linejoin="round"/>
<path d="M286.34 26.3293C286.34 26.3293 284.26 24.2024 281.308 26.2998" stroke="#2D2D30" stroke-linecap="round" stroke-linejoin="round"/>
<path d="M283.911 30.248C284.418 30.248 284.83 29.8365 284.83 29.3289C284.83 28.8213 284.418 28.4099 283.911 28.4099C283.403 28.4099 282.992 28.8213 282.992 29.3289C282.992 29.8365 283.403 30.248 283.911 30.248Z" fill="#2D2D30"/>
<path d="M293.456 29.4748C293.964 29.4748 294.375 29.0633 294.375 28.5557C294.375 28.0481 293.964 27.6366 293.456 27.6366C292.949 27.6366 292.537 28.0481 292.537 28.5557C292.537 29.0633 292.949 29.4748 293.456 29.4748Z" fill="#2D2D30"/>
<path d="M291.767 28.7572C291.767 28.7572 292.71 26.6657 295.697 28.1975" stroke="#2D2D30" stroke-linecap="round" stroke-linejoin="round"/>
<path d="M285.625 29.1282C285.144 28.6772 284.508 28.4296 283.849 28.4373C283.19 28.445 282.56 28.7073 282.09 29.1695" stroke="#2D2D30" stroke-linecap="round" stroke-linejoin="round"/>
<path d="M283.215 33.8582C285.522 33.8582 287.393 31.988 287.393 29.6811C287.393 27.3741 285.522 25.5039 283.215 25.5039C280.908 25.5039 279.038 27.3741 279.038 29.6811C279.038 31.988 280.908 33.8582 283.215 33.8582Z" stroke="#2D2D30" stroke-miterlimit="10" stroke-linecap="round"/>
<path d="M293.896 32.9346C296.203 32.9346 298.073 31.0645 298.073 28.7575C298.073 26.4506 296.203 24.5804 293.896 24.5804C291.589 24.5804 289.719 26.4506 289.719 28.7575C289.719 31.0645 291.589 32.9346 293.896 32.9346Z" stroke="#2D2D30" stroke-miterlimit="10" stroke-linecap="round"/>
<path d="M298.031 28.5097L302.886 28.439" stroke="#2D2D30" stroke-miterlimit="10" stroke-linecap="round"/>
<path d="M287.52 29.0631C287.83 28.8405 288.197 28.7126 288.578 28.6948C288.958 28.677 289.336 28.7702 289.665 28.9629" stroke="#2D2D30" stroke-miterlimit="10" stroke-linecap="round"/>
<path d="M277.7 57.3831C277.7 57.3831 267.755 56.7114 262.972 72.0648C259.702 82.5105 251.383 110.713 251.383 110.713C251.383 110.713 252.732 117.282 258.836 118.078C264.939 118.873 267.514 112.622 267.514 112.622L279.656 77.7325" fill="#788AF1"/>
<path d="M277.7 57.3831C277.7 57.3831 267.755 56.7114 262.972 72.0648C259.702 82.5105 251.383 110.713 251.383 110.713C251.383 110.713 252.732 117.282 258.836 118.078C264.939 118.873 267.514 112.622 267.514 112.622L279.656 77.7325" stroke="#2C438C" stroke-linecap="round" stroke-linejoin="round"/>
<path d="M258.393 87.0419C255.618 96.2916 252.702 106.16 251.706 109.518L255.765 109.713L258.393 87.0419Z" fill="#2C438C"/>
<path d="M265.097 117.289C263.825 119.74 261.562 124.012 251.287 121.59C241.013 119.169 227.091 111.262 227.091 111.262L228.611 103.568C228.611 103.568 254.492 107.963 256.678 108.205" fill="#788AF1"/>
<path d="M265.097 117.289C263.825 119.74 261.562 124.012 251.287 121.59C241.013 119.169 227.091 111.262 227.091 111.262L228.611 103.568C228.611 103.568 254.492 107.963 256.678 108.205" stroke="#2C438C" stroke-linecap="round" stroke-linejoin="round"/>
<path d="M215.111 105.524C215.111 105.524 205.225 100.557 202.992 99.1375C200.759 97.7176 198.131 100.222 202.173 102.914C204.439 104.412 206.837 105.7 209.337 106.761" fill="white"/>
<path d="M215.111 105.524C215.111 105.524 205.225 100.557 202.992 99.1375C200.759 97.7176 198.131 100.222 202.173 102.914C204.439 104.412 206.837 105.7 209.337 106.761" stroke="#2D2D30" stroke-linecap="round" stroke-linejoin="round"/>
<path d="M211.475 104.411C211.475 104.411 200.57 102.567 198.019 101.86C195.468 101.153 193.688 104.322 198.343 105.713C200.948 106.48 203.618 107.006 206.32 107.286" fill="white"/>
<path d="M211.475 104.411C211.475 104.411 200.57 102.567 198.019 101.86C195.468 101.153 193.688 104.322 198.343 105.713C200.948 106.48 203.618 107.006 206.32 107.286" stroke="#2D2D30" stroke-linecap="round" stroke-linejoin="round"/>
<path d="M229.388 103.656C225.449 102.877 221.457 102.387 217.446 102.189C217.446 102.189 210.335 102.024 206.841 103.656C203.348 105.288 199.247 111.527 201.415 112.34C203.583 113.153 205.321 109.353 206.629 108.216C207.937 107.079 212.273 106.531 213.628 106.802C214.984 107.073 217.105 111.144 221.011 111.144C223.586 111.1 226.143 110.704 228.611 109.965" fill="white"/>
<path d="M229.388 103.656C225.449 102.877 221.457 102.387 217.446 102.189C217.446 102.189 210.335 102.024 206.841 103.656C203.348 105.288 199.247 111.527 201.415 112.34C203.583 113.153 205.321 109.353 206.629 108.216C207.937 107.079 212.273 106.531 213.628 106.802C214.984 107.073 217.105 111.144 221.011 111.144C223.586 111.1 226.143 110.704 228.611 109.965" stroke="#2D2D30" stroke-linecap="round" stroke-linejoin="round"/>
<path d="M221.414 107.121C221.414 107.121 215.64 111.557 212.724 109.513C210.721 108.099 216.848 104.21 216.848 104.21" fill="white"/>
<path d="M221.414 107.121C221.414 107.121 215.64 111.557 212.724 109.513C210.721 108.099 216.848 104.21 216.848 104.21" stroke="#2D2D30" stroke-linecap="round" stroke-linejoin="round"/>
<path d="M277.702 57.3837C282.38 56.0875 290.192 54.1315 290.192 54.1315C290.192 54.1315 293.137 54.2435 293.933 56.5588C294.455 58.5881 294.849 60.6483 295.111 62.7273C295.111 62.7273 299.005 57.9728 301.227 56.712C304.315 54.9572 307.621 53.6162 311.06 52.7234C311.06 52.7234 330.184 57.6782 332.316 59.104C334.449 60.5298 304.926 125.679 304.926 125.679H279.516C266.337 125.679 261.842 124.5 261.842 124.5C261.842 124.5 267.592 89.6753 269.96 80.673" fill="white"/>
<path d="M277.702 57.3837C282.38 56.0875 290.192 54.1315 290.192 54.1315C290.192 54.1315 293.137 54.2435 293.933 56.5588C294.455 58.5881 294.849 60.6483 295.111 62.7273C295.111 62.7273 299.005 57.9728 301.227 56.712C304.315 54.9572 307.621 53.6162 311.06 52.7234C311.06 52.7234 330.184 57.6782 332.316 59.104C334.449 60.5298 304.926 125.679 304.926 125.679H279.516C266.337 125.679 261.842 124.5 261.842 124.5C261.842 124.5 267.592 89.6753 269.96 80.673" stroke="#2D2D30" stroke-linecap="round" stroke-linejoin="round"/>
<path d="M308.672 48.2758C308.672 48.2758 307.493 51.5338 301.248 56.7007C305.372 56.7773 306.215 63.0165 306.215 63.0165L311.305 52.7887C310.705 51.1385 309.813 49.6098 308.672 48.2758Z" fill="white" stroke="#2D2D30" stroke-linecap="round" stroke-linejoin="round"/>
<path d="M292.133 49.189L289.57 53.8551L289.223 61.3727C289.223 61.3727 290.077 55.6108 293.936 56.5593C292.734 54.0024 292.133 49.189 292.133 49.189Z" fill="white" stroke="#2D2D30" stroke-linecap="round" stroke-linejoin="round"/>
<path d="M274.776 57.86C275.979 57.3678 277.223 56.9833 278.494 56.7111C284.709 55.0556 287.331 54.4546 287.331 54.4546L291.237 50.2422C291.237 50.2422 273.562 123.451 271.335 127.056C269.108 130.662 254.085 126.255 254.085 126.255L260.501 120.64L262.51 113.824L269.904 80.3539" fill="#788AF1"/>
<path d="M274.776 57.86C275.979 57.3678 277.223 56.9833 278.494 56.7111C284.709 55.0556 287.331 54.4546 287.331 54.4546L291.237 50.2422C291.237 50.2422 273.562 123.451 271.335 127.056C269.108 130.662 254.085 126.255 254.085 126.255L260.501 120.64L262.51 113.824L269.904 80.3539" stroke="#2C438C" stroke-linecap="round" stroke-linejoin="round"/>
<path d="M288.77 52.947L281.446 66.586L283.95 68.0883L280.846 70.498L280.245 94.1643" fill="#788AF1"/>
<path d="M288.77 52.947L281.446 66.586L283.95 68.0883L280.846 70.498L280.245 94.1643" stroke="#2C438C" stroke-linecap="round" stroke-linejoin="round"/>
<path d="M310.031 49.8429C310.031 49.8429 300.404 79.7248 295.39 109.613C290.376 139.501 286.965 149.121 293.782 151.932C300.598 154.742 310.531 150.824 313.342 148.621C316.152 146.417 317.648 106.602 317.648 106.602L331.488 58.4681L314.043 52.6532L310.031 49.8429Z" fill="#788AF1" stroke="#2C438C" stroke-linecap="round" stroke-linejoin="round"/>
<path d="M289.166 126.757C289.166 126.757 308.22 131.67 315.342 139.718C316.244 130.993 316.344 126.28 316.344 126.28L289.166 126.757Z" fill="#2C438C"/>
<path d="M312.471 51.782L311.829 71.3008L307.169 72.5026L310.78 76.2673L297.389 101.536" fill="#788AF1"/>
<path d="M312.471 51.782L311.829 71.3008L307.169 72.5026L310.78 76.2673L297.389 101.536" stroke="#2C438C" stroke-linecap="round" stroke-linejoin="round"/>
<path d="M315.708 101.487L318.377 75.5113C318.377 75.5113 310.777 100.032 297.992 103.29C289.809 105.376 289.155 109.311 289.155 109.311C289.155 109.311 296.944 119.327 298.929 125.654H304.939C304.939 125.654 309.964 114.596 315.708 101.487Z" fill="#2C438C"/>
<path d="M296.779 64.3968C296.855 63.974 296.607 63.576 296.226 63.5078C295.845 63.4396 295.474 63.7272 295.399 64.15C295.323 64.5727 295.571 64.9707 295.952 65.0389C296.333 65.1071 296.703 64.8196 296.779 64.3968Z" fill="#2D2D30"/>
<path d="M293.536 77.0764C293.611 76.6536 293.364 76.2556 292.983 76.1874C292.601 76.1193 292.231 76.4067 292.155 76.8295C292.08 77.2523 292.328 77.6504 292.709 77.7185C293.09 77.7867 293.46 77.4992 293.536 77.0764Z" fill="#2D2D30"/>
<path d="M290.289 89.7513C290.365 89.3285 290.117 88.9305 289.736 88.8624C289.355 88.7942 288.984 89.0817 288.909 89.5044C288.833 89.9272 289.081 90.3253 289.462 90.3935C289.843 90.4616 290.213 90.1741 290.289 89.7513Z" fill="#2D2D30"/>
<path d="M287.038 102.43C287.114 102.007 286.866 101.609 286.485 101.541C286.104 101.473 285.734 101.76 285.658 102.183C285.582 102.606 285.83 103.004 286.211 103.072C286.592 103.14 286.963 102.853 287.038 102.43Z" fill="#2D2D30"/>
<path d="M283.799 115.106C283.874 114.683 283.627 114.285 283.245 114.217C282.864 114.149 282.494 114.436 282.418 114.859C282.343 115.282 282.59 115.68 282.972 115.748C283.353 115.816 283.723 115.529 283.799 115.106Z" fill="#2D2D30"/>
<path d="M295.135 62.7273L278.591 125.302" stroke="#2D2D30" stroke-linecap="round" stroke-linejoin="round"/>
<path d="M322.555 75.1993L310.613 115.568L326.185 79.9361L322.555 75.1993Z" fill="#2D2D30"/>
<path d="M330.675 58.1801C330.675 58.1801 334.103 58.7104 335.753 63.4295C337.403 68.1486 336.837 77.3925 330.786 92.0624C318.756 121.243 316.947 124.554 312.134 125.155C307.32 125.756 304.817 118.439 305.117 114.827C305.417 111.216 319.08 74.0107 319.08 74.0107" fill="#788AF1"/>
<path d="M330.675 58.1801C330.675 58.1801 334.103 58.7104 335.753 63.4295C337.403 68.1486 336.837 77.3925 330.786 92.0624C318.756 121.243 316.947 124.554 312.134 125.155C307.32 125.756 304.817 118.439 305.117 114.827C305.417 111.216 319.08 74.0107 319.08 74.0107" stroke="#2C438C" stroke-linecap="round" stroke-linejoin="round"/>
<path d="M276.947 97.175C276.947 97.175 272.629 100.015 268.958 98.2944C265.288 96.5741 264.752 95.9908 264.752 95.9908L262.507 97.1102C262.507 97.1102 262.566 100.545 261.676 101.022C260.787 101.499 259.909 99.5965 259.909 99.5965C259.909 99.5965 259.196 100.186 258.188 99.0073C257.614 98.3669 257.209 97.5933 257.01 96.7567L257.782 93.4457C257.782 93.4457 255.119 96.3915 253.876 95.6904C252.633 94.9893 257.805 88.3377 257.805 88.3377L263.55 85.4391L275.032 91.3306C275.032 91.3306 277.719 94.8597 276.947 97.175Z" fill="white" stroke="#2D2D30" stroke-linecap="round" stroke-linejoin="round"/>
<path d="M269.376 98.466C272.947 99.7975 276.947 97.1699 276.947 97.1699C277.719 94.8604 275.056 91.3078 275.056 91.3078L270.172 88.8157C271.014 89.365 271.696 90.1275 272.148 91.0257C272.6 91.9239 272.807 92.9257 272.746 93.9295C272.629 96.4275 270.354 97.9299 269.376 98.466Z" fill="#2D2D30"/>
<path d="M310.381 124.996C310.381 124.996 306.988 124.748 294.751 115.18C282.514 105.612 272.687 98.9784 272.687 98.9784C272.687 98.9784 273.807 98.3893 274.413 94.8544C274.615 93.5479 274.641 92.2203 274.49 90.907C274.49 90.907 311.33 106.278 314.24 108.093" fill="white"/>
<path d="M310.381 124.996C310.381 124.996 306.988 124.748 294.751 115.18C282.514 105.612 272.687 98.9784 272.687 98.9784C272.687 98.9784 273.807 98.3893 274.413 94.8544C274.615 93.5479 274.641 92.2203 274.49 90.907C274.49 90.907 311.33 106.278 314.24 108.093" stroke="#2D2D30" stroke-linecap="round" stroke-linejoin="round"/>
<path d="M277.725 92.9984C277.725 92.9984 279.828 97.6645 275.468 100.899L277.725 92.9984Z" fill="white"/>
<path d="M277.725 92.9984C277.725 92.9984 279.828 97.6645 275.468 100.899" stroke="#2D2D30" stroke-linecap="round" stroke-linejoin="round"/>
<path d="M316.244 107.956L309.728 105.299L277.036 91.3599C277.036 91.3599 279.74 94.8948 274.378 102.141C293.579 115.474 303.836 122.997 308.172 124.052C312.509 125.107 314.14 123.952 314.14 123.952" fill="#788AF1"/>
<path d="M316.244 107.956L309.728 105.299L277.036 91.3599C277.036 91.3599 279.74 94.8948 274.378 102.141C293.579 115.474 303.836 122.997 308.172 124.052C312.509 125.107 314.141 123.952 314.141 123.952" stroke="#2C438C" stroke-linecap="round" stroke-linejoin="round"/>
<path d="M184.721 122.243L268.328 122.243C269.245 122.243 269.989 121.5 269.989 120.582V120.576C269.989 119.659 269.245 118.915 268.328 118.915L184.721 118.915C183.803 118.915 183.059 119.659 183.059 120.576V120.582C183.059 121.5 183.803 122.243 184.721 122.243Z" fill="#2D2D30"/>
<path d="M182.672 122.933L269.166 122.933C270.083 122.933 270.827 122.189 270.827 121.272V121.266C270.827 120.348 270.083 119.604 269.166 119.604L182.672 119.604C181.754 119.604 181.01 120.348 181.01 121.266V121.272C181.01 122.189 181.754 122.933 182.672 122.933Z" fill="white" stroke="#2D2D30" stroke-linejoin="round"/>
<path d="M220.271 78.0386H170.193C168.508 78.0386 166.622 79.9475 167.035 81.1199L181.599 117.3C181.727 117.647 181.958 117.945 182.262 118.156C182.565 118.367 182.926 118.479 183.295 118.478L233.762 119.657C235.029 119.657 237.085 118.089 236.425 116.016L221.932 79.158C221.801 78.8253 221.572 78.5401 221.275 78.3402C220.979 78.1404 220.628 78.0352 220.271 78.0386Z" fill="#2D2D30"/>
<path d="M218.921 79.2637H168.843C168.555 79.2645 168.272 79.334 168.017 79.4665C167.762 79.5989 167.542 79.7905 167.376 80.0251C167.21 80.2598 167.103 80.5307 167.062 80.8154C167.022 81.1001 167.051 81.3902 167.146 81.6615L180.249 118.525C180.376 118.871 180.606 119.17 180.908 119.381C181.211 119.591 181.571 119.704 181.94 119.703H233.402C233.695 119.702 233.983 119.63 234.241 119.493C234.5 119.355 234.721 119.157 234.886 118.915C235.05 118.673 235.154 118.395 235.187 118.104C235.22 117.814 235.182 117.519 235.076 117.247L220.582 80.3831C220.447 80.0531 220.217 79.7706 219.921 79.5713C219.626 79.3721 219.278 79.265 218.921 79.2637Z" fill="white" stroke="#2D2D30" stroke-linejoin="round"/>
<path d="M204.175 101.368C204.324 99.4638 202.484 97.7659 200.064 97.5754C197.644 97.385 195.561 98.7741 195.411 100.678C195.262 102.582 197.102 104.28 199.522 104.471C201.942 104.661 204.025 103.272 204.175 101.368Z" fill="#8AC186"/>
<path d="M110.755 125.237L100.58 248.058H103.726L119.48 125.726L110.755 125.237Z" fill="white" stroke="#2D2D30" stroke-linejoin="round"/>
<path d="M109.551 141.132L118.07 137.686L119.478 125.726L110.752 125.237L109.551 141.132Z" fill="#2D2D30"/>
<path d="M287.157 125.237L276.983 248.058H280.129L295.883 125.726L287.157 125.237Z" fill="white" stroke="#2D2D30" stroke-linejoin="round"/>
<path d="M353.066 123.18H278.073V127.422H353.066V123.18Z" fill="white" stroke="#2D2D30" stroke-linejoin="round"/>
<path d="M100.095 127.422L278.073 127.422V123.18L100.095 123.18V127.422Z" fill="white" stroke="#2D2D30" stroke-linejoin="round"/>
<path d="M375 248.211L0 248.211" stroke="#2D2D30" stroke-linejoin="round"/>
<path d="M345.825 13.8399C342.018 13.8411 338.296 14.9713 335.13 17.0876C331.965 19.2039 329.498 22.2113 328.042 25.7296C326.585 29.2478 326.205 33.1189 326.948 36.8533C327.692 40.5878 329.526 44.0179 332.219 46.71C334.912 49.402 338.343 51.2352 342.077 51.9776C345.812 52.72 349.683 52.3384 353.201 50.881C356.718 49.4235 359.725 46.9558 361.84 43.7896C363.956 40.6235 365.085 36.9013 365.085 33.0935C365.085 30.5646 364.587 28.0605 363.619 25.7241C362.651 23.3878 361.232 21.265 359.444 19.4771C357.655 17.6892 355.532 16.2711 353.195 15.3038C350.859 14.3366 348.354 13.8392 345.825 13.8399ZM345.825 44.5408C343.561 44.5408 341.348 43.8694 339.466 42.6116C337.583 41.3538 336.116 39.5659 335.249 37.4742C334.383 35.3825 334.156 33.0808 334.598 30.8603C335.04 28.6397 336.13 26.6 337.731 24.9991C339.332 23.3981 341.372 22.3079 343.592 21.8662C345.813 21.4245 348.114 21.6512 350.206 22.5176C352.298 23.384 354.086 24.8513 355.343 26.7338C356.601 28.6163 357.273 30.8295 357.273 33.0935C357.273 36.1295 356.067 39.0412 353.92 41.188C351.773 43.3348 348.861 44.5408 345.825 44.5408Z" fill="white" stroke="#2D2D30" stroke-linecap="round" stroke-linejoin="round"/>
<g style="mix-blend-mode:multiply">
<path d="M365.086 33.0935C365.084 27.9866 363.054 23.0894 359.443 19.4788C355.831 15.8682 350.933 13.8399 345.826 13.8399V21.6521C347.329 21.6514 348.818 21.9467 350.206 22.5214C351.595 23.096 352.857 23.9386 353.92 25.0012C354.983 26.0637 355.827 27.3252 356.402 28.7137C356.977 30.1023 357.273 31.5905 357.273 33.0935H365.086Z" fill="#8E96EB"/>
</g>
<path opacity="0.1" d="M181.435 58.8219H255.668V17.8638C255.668 17.8638 244.969 22.3061 230.399 43.3095C220.378 57.7673 181.435 58.8219 181.435 58.8219Z" fill="#643992"/>
<path d="M255.674 17.8638C255.674 17.8638 244.975 22.3061 230.405 43.3095C220.39 57.7673 181.435 58.8219 181.435 58.8219" stroke="#FF6679" stroke-width="0.75" stroke-miterlimit="10"/>
<g style="mix-blend-mode:multiply" opacity="0.1">
<path d="M181.435 58.8206H255.668V37.3812C255.668 37.3812 248.009 50.2778 231.796 52.0217C215.582 53.7656 199.557 37.9056 181.435 58.8206Z" fill="#643992"/>
</g>
<path d="M255.674 37.3812C255.674 37.3812 248.015 50.2778 231.801 52.0217C215.588 53.7656 199.557 37.882 181.435 58.8206" stroke="#8E96EB" stroke-width="0.75" stroke-miterlimit="10"/>
<path d="M187.627 42.5485H184.952V44.7873H187.627V42.5485Z" fill="#FF6679"/>
<path d="M191.415 38.1253H188.74V42.7855H191.415V38.1253Z" fill="white" stroke="#2D2D30" stroke-linecap="round" stroke-linejoin="round"/>
<path d="M195.203 35.6384H192.528V40.4283H195.203V35.6384Z" fill="white" stroke="#2D2D30" stroke-linecap="round" stroke-linejoin="round"/>
<path d="M198.998 38.1544H196.324V40.3932H198.998V38.1544Z" fill="#FF6679"/>
<path d="M202.783 33.8543H200.108V38.3437H202.783V33.8543Z" fill="#FF6679"/>
<path d="M206.575 31.4144H203.9V35.8566H206.575V31.4144Z" fill="white" stroke="#2D2D30" stroke-linecap="round" stroke-linejoin="round"/>
<path d="M210.367 24.7035H207.692V33.4171H210.367V24.7035Z" fill="white" stroke="#2D2D30" stroke-linecap="round" stroke-linejoin="round"/>
<path d="M214.155 26.7958H211.48V30.0185H214.155V26.7958Z" fill="white" stroke="#2D2D30" stroke-linecap="round" stroke-linejoin="round"/>
<path d="M217.95 22.6121H215.276V36.4219H217.95V22.6121Z" fill="#FF6679"/>
<path d="M221.738 33.9229H219.064V36.1617H221.738V33.9229Z" fill="white" stroke="#2D2D30" stroke-linecap="round" stroke-linejoin="round"/>
<path d="M225.527 16.2498H222.852V35.3325H225.527V16.2498Z" fill="white" stroke="#2D2D30" stroke-linecap="round" stroke-linejoin="round"/>
<path d="M229.319 9.6732H226.644V17.4854H229.319V9.6732Z" fill="white" stroke="#2D2D30" stroke-linecap="round" stroke-linejoin="round"/>
<path d="M233.11 11.9365H230.436V17.4274H233.11V11.9365Z" fill="#FF6679"/>
<path d="M236.898 10.1101H234.224V17.2565H236.898V10.1101Z" fill="white" stroke="#2D2D30" stroke-linecap="round" stroke-linejoin="round"/>
<path d="M240.694 1.65636H238.019V10.6292H240.694V1.65636Z" fill="white" stroke="#2D2D30" stroke-linecap="round" stroke-linejoin="round"/>
<path d="M244.478 0H241.804V8.26585H244.478V0Z" fill="#FF6679"/>
<path d="M248.274 3.92434H245.599V8.10734H248.274V3.92434Z" fill="white" stroke="#2D2D30" stroke-linecap="round" stroke-linejoin="round"/>
<path d="M252.058 5.69155H249.384V7.93034H252.058V5.69155Z" fill="#FF6679"/>
<path d="M123.558 71.1764H148.827V113.872H114.432V80.4261L123.558 71.1764Z" fill="white" stroke="#2D2D30" stroke-linecap="round" stroke-linejoin="round"/>
<g style="mix-blend-mode:multiply">
<path d="M114.726 80.5434L123.687 71.4704V80.5493L114.726 80.5434Z" fill="#8E96EB"/>
</g>
<path d="M143.627 84.12H123.531" stroke="#2D2D30" stroke-linecap="round" stroke-linejoin="round"/>
<path d="M143.625 86.5411H119.517" stroke="#2D2D30" stroke-linecap="round" stroke-linejoin="round"/>
<path d="M143.627 106.631H123.531" stroke="#2D2D30" stroke-linecap="round" stroke-linejoin="round"/>
<path d="M143.625 109.053H119.517" stroke="#2D2D30" stroke-linecap="round" stroke-linejoin="round"/>
<path d="M143.625 88.9679H119.517" stroke="#2D2D30" stroke-linecap="round" stroke-linejoin="round"/>
<path d="M143.625 91.389H119.517" stroke="#2D2D30" stroke-linecap="round" stroke-linejoin="round"/>
<path d="M132.632 95.3659H119.517" stroke="#2D2D30" stroke-linecap="round" stroke-linejoin="round"/>
<path d="M132.632 97.7645H119.517" stroke="#2D2D30" stroke-linecap="round" stroke-linejoin="round"/>
<path d="M132.632 100.156H119.517" stroke="#2D2D30" stroke-linecap="round" stroke-linejoin="round"/>
<path d="M132.632 102.555H119.517" stroke="#2D2D30" stroke-linecap="round" stroke-linejoin="round"/>
<g style="mix-blend-mode:multiply">
<path d="M143.63 94.6293H134.94V103.319H143.63V94.6293Z" fill="#8E96EB"/>
</g>
<g opacity="0.8">
<path opacity="0.8" d="M147.771 47.0274C147.835 47.2127 147.827 47.4153 147.749 47.5952C147.671 47.7752 147.529 47.9193 147.35 47.9992C147.171 48.0792 146.968 48.089 146.782 48.0269C146.596 47.9648 146.44 47.8351 146.345 47.6636C146.072 47.8526 145.821 48.072 145.597 48.3176C145.736 48.4187 145.838 48.5627 145.887 48.7275C145.936 48.8923 145.93 49.0687 145.869 49.2295C145.808 49.3903 145.696 49.5266 145.55 49.6173C145.404 49.7081 145.232 49.7482 145.061 49.7316C144.958 49.721 144.858 49.691 144.766 49.6432C144.632 49.9876 144.543 50.3481 144.501 50.7155H144.583C144.686 50.725 144.786 50.7549 144.877 50.8035C144.969 50.8521 145.049 50.9184 145.114 50.9985C145.18 51.0786 145.228 51.1709 145.258 51.2699C145.287 51.369 145.296 51.473 145.285 51.5756C145.266 51.7524 145.189 51.9177 145.065 52.0449C144.941 52.1721 144.777 52.2538 144.601 52.2767C144.701 52.6743 144.858 53.0553 145.067 53.4079C145.222 53.2959 145.412 53.2436 145.603 53.2606C145.749 53.2754 145.889 53.3313 146.005 53.4217C146.121 53.5121 146.21 53.6335 146.26 53.7719C146.31 53.9103 146.321 54.0601 146.29 54.2041C146.259 54.3481 146.188 54.4806 146.086 54.5862C146.457 54.8883 146.877 55.1235 147.329 55.2814C147.38 55.0949 147.499 54.9339 147.662 54.8296C147.825 54.7253 148.021 54.685 148.212 54.7164C148.403 54.7479 148.575 54.8489 148.696 55C148.817 55.1511 148.878 55.3416 148.867 55.5348C149.209 55.5299 149.549 55.4824 149.88 55.3934C149.809 55.2087 149.811 55.0041 149.885 54.8206C149.958 54.6371 150.099 54.4882 150.278 54.404C150.457 54.3197 150.661 54.3063 150.849 54.3663C151.038 54.4263 151.197 54.5554 151.294 54.7276C151.576 54.5256 151.834 54.2902 152.06 54.0265C151.937 53.9494 151.839 53.8396 151.775 53.7095C151.712 53.5794 151.686 53.4341 151.7 53.2901C151.723 53.0824 151.826 52.8921 151.989 52.7607C152.151 52.6293 152.359 52.5675 152.566 52.589C152.664 52.5996 152.758 52.6296 152.843 52.6774C152.953 52.3728 153.026 52.0564 153.061 51.7347H153.002C152.812 51.716 152.635 51.6281 152.505 51.4878C152.374 51.3474 152.3 51.1641 152.296 50.9727C152.291 50.7812 152.357 50.5948 152.481 50.4487C152.605 50.3025 152.778 50.2067 152.967 50.1793C152.862 49.7527 152.691 49.3452 152.46 48.9716C152.306 49.0861 152.115 49.1386 151.924 49.1189C151.718 49.0965 151.528 48.9937 151.397 48.8327C151.266 48.6717 151.203 48.4655 151.223 48.2587C151.242 48.0922 151.312 47.9356 151.424 47.8109C151.077 47.5464 150.694 47.334 150.286 47.1805C150.236 47.3701 150.116 47.5339 149.951 47.6395C149.785 47.745 149.586 47.7847 149.393 47.7506C149.2 47.7166 149.027 47.6113 148.907 47.4555C148.788 47.2998 148.731 47.1049 148.749 46.9095C148.419 46.9128 148.091 46.9523 147.771 47.0274ZM149.049 48.6181C149.563 48.6704 150.05 48.8737 150.449 49.2023C150.847 49.5309 151.139 49.9702 151.289 50.4647C151.438 50.9592 151.437 51.4869 151.287 51.9811C151.137 52.4753 150.844 52.914 150.445 53.2419C150.045 53.5697 149.558 53.7721 149.044 53.8234C148.53 53.8747 148.012 53.7727 147.556 53.5302C147.1 53.2877 146.726 52.9156 146.481 52.4609C146.236 52.0061 146.132 51.4889 146.18 50.9747C146.212 50.6311 146.313 50.2973 146.475 49.9926C146.637 49.6878 146.857 49.4181 147.124 49.1991C147.391 48.98 147.698 48.8159 148.029 48.7162C148.359 48.6165 148.706 48.5831 149.049 48.6181Z" fill="white" stroke="#2D2D30" stroke-linecap="round" stroke-linejoin="round"/>
<path opacity="0.8" d="M151.714 51.6313C151.952 49.989 150.813 48.4646 149.171 48.2265C147.529 47.9884 146.004 49.1267 145.766 50.769C145.528 52.4113 146.667 53.9356 148.309 54.1737C149.951 54.4118 151.475 53.2736 151.714 51.6313Z" stroke="white" stroke-width="0.16" stroke-miterlimit="10"/>
<path opacity="0.8" d="M153.861 40.8876C153.912 41.0068 153.94 41.1348 153.943 41.2647C153.942 41.4555 153.88 41.6409 153.766 41.7942C153.653 41.9475 153.493 42.0608 153.311 42.1177C153.129 42.1747 152.934 42.1725 152.753 42.1113C152.572 42.0501 152.416 41.9331 152.306 41.7772C151.863 42.1627 151.502 42.6336 151.245 43.1618C151.417 43.2261 151.565 43.3411 151.67 43.4915C151.776 43.6419 151.833 43.8207 151.834 44.0042C151.835 44.1228 151.812 44.2404 151.767 44.3501C151.722 44.4598 151.656 44.5595 151.572 44.6434C151.488 44.7272 151.388 44.7936 151.279 44.8386C151.169 44.8836 151.051 44.9064 150.933 44.9056H150.803C150.803 44.9763 150.803 45.0471 150.803 45.1178C150.803 45.5859 150.877 46.0511 151.021 46.4964C151.136 46.444 151.261 46.4179 151.386 46.4198C151.624 46.4198 151.852 46.5141 152.02 46.6821C152.188 46.85 152.282 47.0778 152.282 47.3153C152.282 47.4576 152.248 47.598 152.184 47.7249C152.119 47.8518 152.026 47.9617 151.911 48.0458C152.28 48.4631 152.724 48.8087 153.219 49.0651C153.28 48.8932 153.392 48.7443 153.541 48.6388C153.689 48.5333 153.867 48.4764 154.049 48.4759C154.168 48.4751 154.285 48.4977 154.394 48.5424C154.503 48.5871 154.603 48.6529 154.687 48.7361C154.77 48.8194 154.837 48.9183 154.882 49.0274C154.928 49.1364 154.951 49.2533 154.951 49.3714C154.954 49.4185 154.954 49.4658 154.951 49.5128H155.245C155.691 49.5123 156.133 49.4468 156.559 49.3184C156.516 49.2076 156.494 49.0897 156.494 48.9708C156.494 48.7333 156.589 48.5055 156.757 48.3376C156.925 48.1696 157.153 48.0753 157.39 48.0753C157.533 48.0737 157.675 48.1073 157.802 48.173C157.929 48.2387 158.039 48.3346 158.121 48.4524C158.557 48.0819 158.918 47.6296 159.181 47.1209C158.988 47.0435 158.828 46.9018 158.727 46.7197C158.627 46.5376 158.592 46.3264 158.63 46.1218C158.667 45.9172 158.774 45.7319 158.933 45.5972C159.091 45.4625 159.291 45.3868 159.499 45.3829C159.556 45.3771 159.613 45.3771 159.67 45.3829C159.67 45.2768 159.67 45.1708 159.67 45.0647C159.669 44.6092 159.599 44.1564 159.464 43.7214C159.35 43.7686 159.228 43.7926 159.104 43.7922C158.913 43.7941 158.726 43.7345 158.57 43.6221C158.415 43.5097 158.3 43.3505 158.242 43.1678C158.184 42.9851 158.186 42.7887 158.248 42.6073C158.31 42.4259 158.428 42.2692 158.586 42.1602C158.212 41.7317 157.76 41.3779 157.254 41.1174C157.179 41.3144 157.037 41.4785 156.853 41.581C156.669 41.6834 156.454 41.7176 156.247 41.6775C156.04 41.6374 155.854 41.5255 155.722 41.3616C155.589 41.1978 155.518 40.9923 155.522 40.7816C155.517 40.7346 155.517 40.6871 155.522 40.6402H155.222C154.758 40.6499 154.299 40.7334 153.861 40.8876ZM157.396 45.106C157.396 45.5301 157.27 45.9447 157.034 46.2974C156.799 46.6501 156.464 46.9249 156.072 47.0872C155.68 47.2495 155.249 47.292 154.833 47.2093C154.417 47.1265 154.035 46.9223 153.735 46.6224C153.435 46.3225 153.231 45.9403 153.148 45.5243C153.065 45.1083 153.108 44.6771 153.27 44.2853C153.432 43.8934 153.707 43.5585 154.06 43.3228C154.413 43.0872 154.827 42.9614 155.251 42.9614C155.816 42.9676 156.355 43.1963 156.753 43.5978C157.15 43.9993 157.372 44.5413 157.372 45.106H157.396Z" fill="#8E96EB"/>
</g>
</svg>
