<svg width="1440" height="445" viewBox="0 0 1440 445" fill="none" xmlns="http://www.w3.org/2000/svg">
<g clip-path="url(#clip0_1_639)">
<path d="M150.099 148.347H81.1992" stroke="#2D2D30" stroke-linecap="round" stroke-linejoin="round"/>
<path d="M488.96 437.573H318.27C308.835 437.539 299.794 433.129 293.122 425.308C286.45 417.486 282.689 406.886 282.66 395.825V287.966C282.689 276.904 286.45 266.305 293.122 258.483C299.794 250.661 308.835 246.252 318.27 246.218H488.96C498.396 246.252 507.436 250.661 514.108 258.483C520.78 266.305 524.541 276.904 524.57 287.966V395.825C524.541 406.886 520.78 417.486 514.108 425.308C507.436 433.129 498.396 437.539 488.96 437.573V437.573Z" stroke="#2D2D30" stroke-linecap="round" stroke-linejoin="round"/>
<path d="M421.401 377.629C485.03 377.629 536.611 317.156 536.611 242.56C536.611 167.963 485.03 107.49 421.401 107.49C357.773 107.49 306.191 167.963 306.191 242.56C306.191 317.156 357.773 377.629 421.401 377.629Z" stroke="#2D2D30" stroke-linecap="round" stroke-linejoin="round"/>
<path d="M421.401 300.147C448.529 300.147 470.521 274.364 470.521 242.56C470.521 210.755 448.529 184.972 421.401 184.972C394.273 184.972 372.281 210.755 372.281 242.56C372.281 274.364 394.273 300.147 421.401 300.147Z" fill="#FF6679"/>
<path d="M421.399 248.843C424.359 248.843 426.759 246.03 426.759 242.559C426.759 239.089 424.359 236.275 421.399 236.275C418.439 236.275 416.039 239.089 416.039 242.559C416.039 246.03 418.439 248.843 421.399 248.843Z" fill="#2D2D30"/>
<path d="M478.441 180.002C476.351 181.456 474.441 187.998 474.441 187.998L420.441 241.751L420.871 243.088H420.931V243.17L421.791 243.99L476.011 190.202C476.011 190.202 481.821 189.111 483.381 186.931C484.941 184.75 492.991 171.373 492.991 171.373C492.991 171.373 480.531 178.548 478.441 180.002Z" fill="#2D2D30"/>
<path d="M424.42 243.157L396 224.282C396 224.282 399.88 216.802 392.94 212.405C386 208.009 374.94 210.061 364.09 204.679C373.64 212.804 377.82 224.973 384.61 229.675C391.4 234.376 394.87 226.626 394.87 226.626L423.12 245.056C423.461 244.344 423.9 243.702 424.42 243.157Z" fill="#2D2D30"/>
<path d="M472.41 145.698L420.32 243.603L421.47 244.096L422.35 245.08L474.29 147.07L478 137.62L472.41 145.698Z" fill="#2D2D30"/>
<path d="M509.512 301.812C510.616 301.812 511.512 300.762 511.512 299.467C511.512 298.172 510.616 297.122 509.512 297.122C508.407 297.122 507.512 298.172 507.512 299.467C507.512 300.762 508.407 301.812 509.512 301.812Z" fill="#2D2D30"/>
<path d="M333.281 187.986C334.386 187.986 335.281 186.936 335.281 185.641C335.281 184.346 334.386 183.296 333.281 183.296C332.177 183.296 331.281 184.346 331.281 185.641C331.281 186.936 332.177 187.986 333.281 187.986Z" fill="#2D2D30"/>
<path d="M474.941 344.744C476.046 344.744 476.941 343.694 476.941 342.399C476.941 341.104 476.046 340.055 474.941 340.055C473.837 340.055 472.941 341.104 472.941 342.399C472.941 343.694 473.837 344.744 474.941 344.744Z" fill="#2D2D30"/>
<path d="M367.852 145.053C368.956 145.053 369.852 144.003 369.852 142.708C369.852 141.413 368.956 140.364 367.852 140.364C366.747 140.364 365.852 141.413 365.852 142.708C365.852 144.003 366.747 145.053 367.852 145.053Z" fill="#2D2D30"/>
<path d="M369.219 345.74C370.323 345.74 371.219 344.691 371.219 343.396C371.219 342.101 370.323 341.051 369.219 341.051C368.114 341.051 367.219 342.101 367.219 343.396C367.219 344.691 368.114 345.74 369.219 345.74Z" fill="#2D2D30"/>
<path d="M473.57 144.056C474.675 144.056 475.57 143.006 475.57 141.711C475.57 140.416 474.675 139.366 473.57 139.366C472.466 139.366 471.57 140.416 471.57 141.711C471.57 143.006 472.466 144.056 473.57 144.056Z" fill="#2D2D30"/>
<path d="M332.199 299.431C333.304 299.431 334.199 298.381 334.199 297.086C334.199 295.791 333.304 294.742 332.199 294.742C331.095 294.742 330.199 295.791 330.199 297.086C330.199 298.381 331.095 299.431 332.199 299.431Z" fill="#2D2D30"/>
<path d="M510.602 190.365C511.706 190.365 512.602 189.315 512.602 188.02C512.602 186.725 511.706 185.675 510.602 185.675C509.497 185.675 508.602 186.725 508.602 188.02C508.602 189.315 509.497 190.365 510.602 190.365Z" fill="#2D2D30"/>
<path d="M417.358 112.624V127.498H414.904V115.535L411.27 116.767V114.741L417.063 112.624H417.358ZM432.446 125.543V127.498H422.509V125.818L427.335 120.554C427.864 119.957 428.282 119.441 428.587 119.007C428.893 118.573 429.106 118.182 429.228 117.836C429.357 117.483 429.422 117.14 429.422 116.808C429.422 116.34 429.334 115.929 429.157 115.576C428.988 115.216 428.736 114.935 428.404 114.731C428.071 114.521 427.667 114.415 427.192 114.415C426.643 114.415 426.181 114.534 425.808 114.772C425.434 115.009 425.153 115.338 424.963 115.759C424.773 116.173 424.678 116.648 424.678 117.185H422.224C422.224 116.323 422.421 115.535 422.815 114.823C423.208 114.103 423.778 113.533 424.525 113.112C425.272 112.685 426.171 112.471 427.223 112.471C428.214 112.471 429.055 112.637 429.748 112.97C430.44 113.302 430.966 113.774 431.326 114.385C431.692 114.996 431.875 115.719 431.875 116.553C431.875 117.015 431.801 117.473 431.651 117.928C431.502 118.382 431.288 118.837 431.01 119.292C430.739 119.74 430.416 120.191 430.043 120.646C429.67 121.094 429.259 121.549 428.811 122.01L425.604 125.543H432.446Z" fill="#2D2D30"/>
<path d="M424 347.058H424.306V349.064H424.132C423.257 349.064 422.5 349.2 421.862 349.471C421.231 349.743 420.712 350.116 420.305 350.591C419.897 351.066 419.592 351.623 419.388 352.261C419.191 352.892 419.093 353.564 419.093 354.276V356.608C419.093 357.198 419.158 357.721 419.286 358.176C419.415 358.623 419.595 359 419.826 359.306C420.064 359.604 420.335 359.832 420.641 359.988C420.946 360.144 421.275 360.222 421.628 360.222C421.995 360.222 422.327 360.147 422.626 359.998C422.924 359.842 423.179 359.628 423.389 359.356C423.6 359.085 423.759 358.763 423.868 358.389C423.976 358.016 424.031 357.609 424.031 357.168C424.031 356.747 423.976 356.353 423.868 355.987C423.766 355.613 423.613 355.288 423.41 355.009C423.206 354.724 422.952 354.504 422.646 354.348C422.347 354.185 422.001 354.103 421.608 354.103C421.119 354.103 420.674 354.219 420.274 354.449C419.88 354.68 419.561 354.982 419.317 355.355C419.079 355.722 418.951 356.112 418.93 356.526L417.994 356.221C418.048 355.59 418.187 355.023 418.411 354.521C418.642 354.018 418.944 353.591 419.317 353.238C419.69 352.885 420.121 352.617 420.61 352.434C421.105 352.244 421.648 352.149 422.239 352.149C422.958 352.149 423.583 352.284 424.112 352.556C424.642 352.827 425.079 353.197 425.425 353.665C425.778 354.127 426.04 354.656 426.209 355.254C426.386 355.844 426.474 356.462 426.474 357.107C426.474 357.819 426.365 358.484 426.148 359.102C425.931 359.713 425.612 360.249 425.191 360.71C424.777 361.172 424.272 361.532 423.674 361.79C423.084 362.048 422.412 362.177 421.659 362.177C420.865 362.177 420.155 362.024 419.531 361.718C418.913 361.413 418.387 360.992 417.953 360.456C417.525 359.92 417.199 359.302 416.975 358.603C416.752 357.904 416.64 357.164 416.64 356.384V355.366C416.64 354.239 416.782 353.177 417.067 352.179C417.352 351.175 417.79 350.289 418.38 349.522C418.978 348.755 419.741 348.154 420.671 347.72C421.601 347.279 422.711 347.058 424 347.058Z" fill="#2D2D30"/>
<path d="M519.212 236.683H520.678C521.248 236.683 521.72 236.585 522.093 236.388C522.473 236.191 522.755 235.92 522.938 235.574C523.121 235.228 523.213 234.83 523.213 234.383C523.213 233.914 523.128 233.514 522.958 233.181C522.796 232.842 522.544 232.581 522.205 232.397C521.872 232.214 521.448 232.122 520.932 232.122C520.498 232.122 520.104 232.211 519.752 232.387C519.405 232.557 519.13 232.801 518.927 233.12C518.723 233.432 518.621 233.806 518.621 234.24H516.158C516.158 233.453 516.365 232.754 516.779 232.143C517.193 231.532 517.756 231.053 518.469 230.707C519.188 230.354 519.996 230.178 520.892 230.178C521.849 230.178 522.684 230.337 523.396 230.656C524.116 230.969 524.676 231.437 525.076 232.061C525.476 232.686 525.677 233.459 525.677 234.383C525.677 234.803 525.578 235.231 525.381 235.665C525.185 236.1 524.893 236.497 524.506 236.856C524.119 237.209 523.637 237.498 523.06 237.722C522.483 237.939 521.815 238.048 521.055 238.048H519.212V236.683ZM519.212 238.597V237.253H521.055C521.923 237.253 522.663 237.355 523.274 237.559C523.892 237.763 524.394 238.044 524.781 238.404C525.168 238.757 525.449 239.161 525.626 239.615C525.809 240.07 525.901 240.552 525.901 241.061C525.901 241.753 525.775 242.371 525.524 242.914C525.28 243.45 524.93 243.905 524.475 244.278C524.021 244.651 523.488 244.933 522.877 245.123C522.273 245.313 521.615 245.408 520.902 245.408C520.264 245.408 519.653 245.32 519.069 245.144C518.486 244.967 517.963 244.706 517.502 244.36C517.04 244.007 516.674 243.569 516.402 243.046C516.137 242.517 516.005 241.906 516.005 241.214H518.459C518.459 241.655 518.56 242.045 518.764 242.385C518.974 242.717 519.266 242.978 519.64 243.168C520.02 243.358 520.454 243.454 520.943 243.454C521.458 243.454 521.903 243.362 522.276 243.179C522.65 242.995 522.935 242.724 523.131 242.364C523.335 242.004 523.437 241.57 523.437 241.061C523.437 240.484 523.325 240.016 523.101 239.656C522.877 239.296 522.558 239.032 522.144 238.862C521.73 238.686 521.241 238.597 520.678 238.597H519.212Z" fill="#2D2D30"/>
<path d="M318.904 243.27H319.107C320.044 243.27 320.824 243.148 321.449 242.904C322.08 242.653 322.582 242.306 322.955 241.865C323.329 241.424 323.597 240.905 323.76 240.308C323.923 239.71 324.004 239.062 324.004 238.363V235.808C324.004 235.204 323.94 234.674 323.811 234.22C323.688 233.758 323.512 233.375 323.281 233.069C323.057 232.757 322.796 232.523 322.497 232.367C322.205 232.211 321.89 232.133 321.55 232.133C321.177 232.133 320.841 232.217 320.543 232.387C320.251 232.55 320.003 232.777 319.799 233.069C319.603 233.354 319.45 233.69 319.341 234.077C319.239 234.457 319.189 234.864 319.189 235.299C319.189 235.706 319.236 236.1 319.331 236.48C319.433 236.853 319.582 237.186 319.779 237.477C319.976 237.769 320.224 238 320.522 238.17C320.821 238.339 321.17 238.424 321.571 238.424C321.951 238.424 322.3 238.353 322.619 238.21C322.938 238.061 323.217 237.861 323.454 237.61C323.692 237.359 323.878 237.077 324.014 236.765C324.15 236.453 324.225 236.134 324.238 235.808L325.175 236.093C325.175 236.609 325.066 237.118 324.849 237.62C324.639 238.115 324.343 238.57 323.963 238.984C323.59 239.391 323.152 239.717 322.65 239.962C322.155 240.206 321.615 240.328 321.031 240.328C320.325 240.328 319.701 240.196 319.158 239.931C318.622 239.66 318.174 239.293 317.814 238.831C317.461 238.37 317.197 237.841 317.02 237.243C316.844 236.646 316.755 236.018 316.755 235.36C316.755 234.647 316.864 233.979 317.081 233.354C317.298 232.73 317.614 232.18 318.028 231.705C318.442 231.223 318.944 230.85 319.535 230.585C320.132 230.314 320.807 230.178 321.561 230.178C322.362 230.178 323.064 230.334 323.668 230.646C324.272 230.958 324.781 231.389 325.195 231.939C325.609 232.489 325.921 233.127 326.132 233.853C326.342 234.579 326.447 235.36 326.447 236.195V237.06C326.447 237.936 326.369 238.781 326.213 239.595C326.057 240.403 325.803 241.153 325.45 241.845C325.104 242.53 324.645 243.135 324.075 243.657C323.512 244.173 322.82 244.577 321.998 244.869C321.184 245.154 320.227 245.296 319.127 245.296H318.904V243.27Z" fill="#2D2D30"/>
<mask id="mask0_1_639" style="mask-type:alpha" maskUnits="userSpaceOnUse" x="282" y="188" width="244" height="250">
<path d="M489.377 437.526H318.623C309.184 437.481 300.14 431.754 293.466 421.595C286.792 411.435 283.029 397.668 283 383.3V243.207C283.029 228.839 286.792 215.072 293.466 204.913C300.14 194.753 309.184 189.026 318.623 188.982H489.377C498.816 189.026 507.86 194.753 514.534 204.913C521.209 215.072 524.971 228.839 525 243.207V383.3C524.971 397.668 521.209 411.435 514.534 421.595C507.86 431.754 498.816 437.481 489.377 437.526Z" fill="#C4C4C4" stroke="#2D2D30" stroke-width="0.91" stroke-linecap="round" stroke-linejoin="round"/>
</mask>
<g mask="url(#mask0_1_639)">
<path d="M427.689 211.233C427.689 211.233 434.809 208.49 439.689 218.174C444.569 227.858 441.249 251.411 443.529 264.26C445.809 277.109 447.089 278.117 447.089 278.117C447.089 278.117 428.719 280.626 422.879 275.773C417.039 270.919 417.039 248.386 417.039 248.386L427.689 211.233Z" fill="#2D2D30"/>
<path d="M471.209 353.009C471.209 353.009 474.469 352.599 476.039 347.675C477.609 342.751 464.289 347.089 464.289 347.089C464.289 347.089 465.209 353.724 471.209 353.009Z" fill="#2D2D30"/>
<path d="M471.911 352.47L450.122 360.993L446.602 345.588L466.432 341.824C466.432 341.824 466.211 352.552 471.911 352.47Z" fill="#ECC91A" stroke="#CC8411" stroke-width="0.59" stroke-miterlimit="10"/>
<path d="M460.213 357.007L450.083 360.993L446.562 345.588L461.652 342.892C457.752 345.107 456.313 352.482 460.213 357.007Z" fill="#CC8411"/>
<path d="M411.152 276.347C411.152 276.347 419.782 291.272 429.032 290.416C438.282 289.56 431.032 277.52 431.032 277.52L429.032 277.227V262.842C427.962 260.251 412.572 244.564 412.572 244.564L414.002 275.949L411.152 276.347Z" fill="white" stroke="#2D2D30" stroke-linecap="round" stroke-linejoin="round"/>
<path d="M430.11 277.285C430.11 277.285 437.81 277.789 441.51 282.631C445.21 287.473 458.21 299.994 459.88 305.656C461.55 311.319 455.21 329.104 455.21 329.104C455.21 329.104 453.65 355.482 452.51 361.157C426.01 361.157 409.21 360.828 409.21 360.828L409.49 347.803L392.68 291.025L393.68 278L411.77 276.335C411.77 276.335 419.46 289.689 428.77 288.856C438.08 288.024 430.11 277.285 430.11 277.285Z" fill="#ECC91A" stroke="#CC8411" stroke-width="0.59" stroke-miterlimit="10"/>
<path d="M449.91 321.378L459.67 312.937C458.564 318.46 457.072 323.867 455.21 329.104C455.21 329.104 454.21 346.267 453.21 355.892L451.8 355.646L449.91 321.378Z" fill="#CC8411"/>
<path d="M429.05 262.842V273.534C421.05 270.333 417.16 256.042 417.16 256.042L423 255.514C426.02 258.762 428.63 261.833 429.05 262.842Z" fill="#2D2D30"/>
<path d="M409.212 360.758L409.492 347.733L399.492 314.015L405.342 304.484C405.342 304.484 412.142 317.169 420.152 318.681C424.515 319.554 428.937 319.946 433.362 319.853C433.362 319.853 424.132 333.301 427.252 360.957C415.782 360.91 409.212 360.758 409.212 360.758Z" fill="#CC8411"/>
<path d="M409.032 243.895C407.892 238.467 411.462 219.756 417.442 217.095C423.422 214.434 431.822 217.259 431.822 217.259C431.822 217.259 439.622 221.644 439.822 234.915C441.672 245.267 439.642 262.63 431.822 263.931C427.302 264.682 421.652 260.754 417.092 256.041" fill="white"/>
<path d="M409.032 243.895C407.892 238.467 411.462 219.756 417.442 217.095C423.422 214.434 431.822 217.259 431.822 217.259C431.822 217.259 439.622 221.644 439.822 234.915C441.672 245.267 439.642 262.63 431.822 263.931C427.302 264.682 421.652 260.754 417.092 256.041" stroke="#2D2D30" stroke-linecap="round" stroke-linejoin="round"/>
<path d="M456.112 350.348L457.112 362.74C457.112 362.74 465.762 384.663 466.192 407.208C466.622 429.753 479.012 488.864 477.302 495.371C475.592 501.878 459.302 591.506 459.302 591.506C449.762 594.062 439.785 593.192 430.672 589.009C432.812 557.448 442.212 498.337 442.212 498.337L427.212 429.167L408.402 365.542L409.402 347.675C409.402 347.675 449.062 348.343 456.112 350.348Z" fill="#2D2D30"/>
<path d="M459.951 396.562C459.951 396.562 451.301 391.299 444.891 405.578C438.481 419.858 427.591 430.374 427.591 496.121C425.341 551.727 422.991 590.052 422.991 590.052C422.991 590.052 417.291 594.894 398.921 589.723C398.491 553.485 395.221 426.986 395.221 415.719C395.221 404.453 393.401 378.649 408.461 365.624" fill="#2D2D30"/>
<path d="M459.95 396.562C455.61 394.44 450.71 396.726 447.95 400.923C445.19 405.121 443.32 410.15 440.95 414.617C436.326 423.855 432.99 433.9 431.07 444.372C431.792 439.057 432.903 433.824 434.39 428.732C436.56 421.041 440.22 414.113 443.75 407.219C446.75 399.974 452.61 392.553 460.01 396.562H459.95Z" fill="white"/>
<path d="M442.062 329.327L444.782 324.25L447.613 320.475C447.613 320.475 451.222 316.829 451.782 317.087C452.342 317.345 451.893 320.147 449.563 322.363C448.897 323.783 448.054 325.079 447.063 326.208L444.213 331.801" fill="white"/>
<path d="M442.062 329.327L444.782 324.25L447.613 320.475C447.613 320.475 451.222 316.829 451.782 317.087C452.342 317.345 451.893 320.147 449.563 322.363C448.897 323.783 448.054 325.079 447.063 326.208L444.213 331.801" stroke="#2D2D30" stroke-linecap="round" stroke-linejoin="round"/>
<path d="M439.449 348.343C441.485 346.676 443.129 344.434 444.229 341.824C445.779 337.791 449.339 336.162 448.949 333.758C448.559 331.355 443.229 337.791 440.229 338.635" fill="white"/>
<path d="M439.449 348.343C441.485 346.676 443.129 344.434 444.229 341.824C445.779 337.791 449.339 336.162 448.949 333.758C448.559 331.355 443.229 337.791 440.229 338.635" stroke="#2D2D30" stroke-linecap="round" stroke-linejoin="round"/>
<path d="M433.212 349.257C433.212 349.257 438.702 351.602 440.922 347.557C443.142 343.512 443.482 335.516 443.482 335.516L445.372 330.241C445.372 330.241 452.642 327.767 451.922 324.778C450.812 324.449 444.702 327.509 442.422 327.767C441.092 329.725 434.651 339.491 434.651 339.491H428.212L428.102 349.198L433.212 349.257Z" fill="white" stroke="#2D2D30" stroke-linecap="round" stroke-linejoin="round"/>
<path d="M407.041 306.172C404.066 316.601 400.447 326.761 396.211 336.572C399.97 336.583 403.724 336.873 407.451 337.439C411.131 338.26 433.761 338.506 433.761 338.506L433.121 351.825C433.121 351.825 400.061 356.936 393.011 357.78C385.961 358.624 378.481 356.936 376.201 352.434C375.608 347.674 375.95 342.818 377.201 338.237C378.551 332.562 383.201 304.132 384.541 296.746C385.881 289.36 387.171 279.454 393.651 277.988" fill="#ECC91A"/>
<path d="M407.041 306.172C404.066 316.601 400.447 326.761 396.211 336.572C399.97 336.583 403.724 336.873 407.451 337.439C411.131 338.26 433.761 338.506 433.761 338.506L433.121 351.825C433.121 351.825 400.061 356.936 393.011 357.78C385.961 358.624 378.481 356.936 376.201 352.434C375.608 347.674 375.95 342.818 377.201 338.237C378.551 332.562 383.201 304.132 384.541 296.746C385.881 289.36 387.171 279.454 393.651 277.988" stroke="#CC8411" stroke-width="0.59" stroke-miterlimit="10" stroke-linecap="round"/>
<path d="M475.342 338.917H471.512V335.67H474.882V326.021H471.512V322.773H475.342C475.954 322.777 476.54 323.063 476.972 323.57C477.405 324.077 477.649 324.764 477.652 325.482V336.221C477.649 336.937 477.404 337.623 476.972 338.128C476.539 338.633 475.953 338.917 475.342 338.917Z" fill="white" stroke="#2D2D30" stroke-linecap="round" stroke-linejoin="round"/>
<path d="M473.05 323.735C473.47 323.442 476.13 324.673 477.64 325.411C477.64 325.411 477.64 325.411 477.64 325.482V336.221C477.638 336.626 477.559 337.026 477.409 337.391C477.258 337.756 477.04 338.077 476.77 338.331L473.47 336.303L473.41 335.669H474.87V326.021H472.68C472.69 324.977 472.76 323.922 473.05 323.735Z" fill="#2D2D30"/>
<path d="M455.723 318.131H472.003V338.952C472.003 339.919 471.675 340.847 471.092 341.53C470.509 342.214 469.717 342.598 468.893 342.598H458.893C458.068 342.598 457.277 342.214 456.694 341.53C456.11 340.847 455.783 339.919 455.783 338.952V318.131H455.723Z" fill="white" stroke="#2D2D30" stroke-linecap="round" stroke-linejoin="round"/>
<path d="M471.939 326.501C466.558 326.995 461.151 326.995 455.77 326.501V325.141C461.151 325.642 466.558 325.642 471.939 325.141V326.501Z" stroke="#2D2D30" stroke-linecap="round" stroke-linejoin="round"/>
<path d="M471.939 333.629C466.558 334.13 461.151 334.13 455.77 333.629V332.281C461.151 332.782 466.558 332.782 471.939 332.281V333.629Z" stroke="#2D2D30" stroke-linecap="round" stroke-linejoin="round"/>
<path d="M461.209 337.405C461.589 335.295 463.779 335.799 463.779 335.799C463.54 335.244 463.416 334.632 463.416 334.011C463.416 333.39 463.54 332.777 463.779 332.223C464.459 330.488 470.059 331.578 471.999 332.024V340.43C471.999 341.005 471.804 341.556 471.457 341.963C471.111 342.37 470.64 342.598 470.149 342.598H461.209C461.479 341.825 462.009 340.617 462.009 340.617C461.636 340.22 461.364 339.71 461.223 339.143C461.082 338.576 461.077 337.975 461.209 337.405Z" fill="#2D2D30"/>
<path d="M478.211 338.483C478.211 338.483 478.801 331.906 478.121 330.276C477.441 328.646 473.961 325.387 473.451 325.387C472.941 325.387 472.68 329.573 475.15 331.566C475.16 332.764 474.988 333.955 474.641 335.083C474.641 335.083 465.371 332.187 464.441 332.984C463.511 333.781 465.631 336.173 466.821 336.677C468.011 337.181 472.681 339.022 472.681 339.022C472.681 339.022 464.011 337.427 462.911 337.427C461.811 337.427 462.061 338.928 463.841 340.523C464.101 342.516 467.501 344.309 467.501 344.309C467.501 344.309 467.381 348.87 469.881 350.394C472.001 351.684 473.49 350.195 475.4 347.651C477.04 345.47 477.91 344.005 477.4 342.609C477.764 342.02 478.023 341.351 478.162 340.642C478.301 339.933 478.318 339.199 478.211 338.483Z" fill="white" stroke="#2D2D30" stroke-linecap="round" stroke-linejoin="round"/>
<path d="M463.883 340.511C463.883 340.511 470.713 342.106 472.883 343.466L463.883 340.511Z" fill="white"/>
<path d="M463.883 340.511C463.883 340.511 470.713 342.106 472.883 343.466" stroke="#2D2D30" stroke-linecap="round" stroke-linejoin="round"/>
<path d="M472.723 339.01C472.723 339.01 474.453 339.749 475.363 340.183L472.723 339.01Z" fill="white"/>
<path d="M472.723 339.01C472.723 339.01 474.453 339.749 475.363 340.183" stroke="#2D2D30" stroke-linecap="round" stroke-linejoin="round"/>
<path d="M474.68 335.13C475.421 335.528 476.119 336.028 476.76 336.619L474.68 335.13Z" fill="white"/>
<path d="M474.68 335.13C475.421 335.528 476.119 336.028 476.76 336.619" stroke="#2D2D30" stroke-linecap="round" stroke-linejoin="round"/>
<path d="M431.472 235.091C431.33 236.033 431.413 237.003 431.712 237.893C432.462 239.851 434.392 245.854 434.492 246.311C434.592 246.768 434.102 248.105 431.972 248.316C429.842 248.527 429.402 247.812 429.402 247.812" fill="white"/>
<path d="M431.472 235.091C431.33 236.033 431.413 237.003 431.712 237.893C432.462 239.851 434.392 245.854 434.492 246.311C434.592 246.768 434.102 248.105 431.972 248.316C429.842 248.527 429.402 247.812 429.402 247.812" stroke="#2D2D30" stroke-linecap="round" stroke-linejoin="round"/>
<path d="M435.211 251.247C435.211 251.247 429.211 252.185 427.211 251.657C429.431 255.386 433.211 255.538 435.211 251.247Z" fill="white" stroke="#2D2D30" stroke-linecap="round" stroke-linejoin="round"/>
<path d="M426.762 233.872C426.762 233.872 422.322 229.581 418.172 234.176" stroke="#2D2D30" stroke-linecap="round" stroke-linejoin="round"/>
<path d="M432.34 232.43C432.34 232.43 434.4 228.573 438.75 230.742" stroke="#2D2D30" stroke-linecap="round" stroke-linejoin="round"/>
<path d="M432.89 217.423C432.89 217.423 421.76 226.626 418.58 236.744C417.21 241.094 411.81 268.609 424.35 276.605C406.75 280.286 394.92 279.419 392.52 265.338C390.385 252.079 392.73 238.365 399.06 227.095C404.62 217.576 409.28 210.94 414.13 208.431C418.98 205.922 426.85 207.939 429.76 212.066C430.916 213.758 431.962 215.549 432.89 217.423Z" fill="#2D2D30"/>
<path d="M436.27 237.541C436.933 237.541 437.47 236.911 437.47 236.134C437.47 235.357 436.933 234.727 436.27 234.727C435.608 234.727 435.07 235.357 435.07 236.134C435.07 236.911 435.608 237.541 436.27 237.541Z" fill="#2D2D30"/>
<path d="M423.88 239.487C424.542 239.487 425.08 238.857 425.08 238.08C425.08 237.303 424.542 236.674 423.88 236.674C423.217 236.674 422.68 237.303 422.68 238.08C422.68 238.857 423.217 239.487 423.88 239.487Z" fill="#2D2D30"/>
<path d="M408.73 360.898C416.59 358.554 424.73 358.401 432.85 358.554C440.931 358.845 448.986 359.774 456.96 361.332C440.96 359.855 424.71 358.038 408.73 360.887V360.898Z" fill="white"/>
<path d="M426.092 237.834C426.092 237.834 424.312 235.009 420.922 238.268" stroke="#2D2D30" stroke-linecap="round" stroke-linejoin="round"/>
<path d="M434.031 236.381C434.519 235.538 435.269 234.951 436.12 234.745C436.972 234.539 437.858 234.731 438.591 235.279" stroke="#2D2D30" stroke-linecap="round" stroke-linejoin="round"/>
<path d="M404.031 316.079C400.281 327.346 396.432 336.737 396.432 336.737C396.432 336.737 390.232 336.232 385.602 339.445C396.002 332.059 399.351 325.716 404.031 316.079Z" fill="#CC8411"/>
<path d="M448.623 359.867C448.403 369.058 448.382 378.754 447.562 387.922C448.113 378.73 447.842 369.058 447.782 359.867H448.623Z" fill="white"/>
<path d="M443.289 410.455C448.289 436.341 453.539 464.455 457.889 490.4C458.219 492.92 458.889 495.511 458.679 498.102C456.769 514.867 453.179 534.176 450.399 550.859L446.809 570.86C449.899 550.355 455.549 518.22 457.879 497.985C458.079 495.488 457.399 493.026 457.069 490.54C453.229 467.269 447.289 433.997 443.289 410.42V410.455Z" fill="white"/>
</g>
<path d="M201.662 148.476H79.7617C46.6246 148.476 19.7617 179.97 19.7617 218.819V269.454C19.7617 308.303 46.6246 339.797 79.7617 339.797H201.662C234.799 339.797 261.662 308.303 261.662 269.454V218.819C261.662 179.97 234.799 148.476 201.662 148.476Z" stroke="#2D2D30" stroke-linecap="round" stroke-linejoin="round"/>
<path d="M75.3616 148.347H67.8516" stroke="#2D2D30" stroke-linecap="round" stroke-linejoin="round"/>
<path d="M266.648 202.066C284.46 202.066 298.898 185.138 298.898 164.256C298.898 143.375 284.46 126.447 266.648 126.447C248.837 126.447 234.398 143.375 234.398 164.256C234.398 185.138 248.837 202.066 266.648 202.066Z" stroke="#ECC91A" stroke-width="15.54" stroke-miterlimit="10"/>
<path d="M72.0686 105.145H6.26859C3.52926 105.145 1.30859 107.749 1.30859 110.96V196.907C1.30859 200.119 3.52926 202.722 6.26859 202.722H72.0686C74.8079 202.722 77.0286 200.119 77.0286 196.907V110.96C77.0286 107.749 74.8079 105.145 72.0686 105.145Z" fill="white" stroke="#2D2D30" stroke-linejoin="round"/>
<path d="M72.0686 105.145H6.26859C3.52926 105.145 1.30859 107.749 1.30859 110.96V191.843C1.30859 195.054 3.52926 197.658 6.26859 197.658H72.0686C74.8079 197.658 77.0286 195.054 77.0286 191.843V110.96C77.0286 107.749 74.8079 105.145 72.0686 105.145Z" fill="white" stroke="#2D2D30" stroke-linejoin="round"/>
<path d="M65.0117 192.37H4.26172C3.87061 192.379 3.48182 192.297 3.11816 192.128C2.75451 191.959 2.42331 191.707 2.14392 191.386C1.86453 191.065 1.64258 190.682 1.49109 190.259C1.3396 189.836 1.26164 189.382 1.26172 188.923V108.592C1.27743 107.671 1.60034 106.795 2.16125 106.15C2.72217 105.506 3.47636 105.145 4.26172 105.145H74.0917C74.8714 105.145 75.6192 105.508 76.1705 106.155C76.7219 106.801 77.0316 107.678 77.0316 108.592V181.467L65.0117 192.37Z" fill="white" stroke="#2D2D30" stroke-linejoin="round"/>
<path d="M68.2095 186.555L65.8395 188.021C65.4155 188.275 64.9459 188.408 64.4695 188.408H10.2095C9.82339 188.408 9.44105 188.319 9.08435 188.145C8.72765 187.972 8.40362 187.718 8.13062 187.398C7.85761 187.078 7.64103 186.698 7.49329 186.28C7.34554 185.862 7.26953 185.414 7.26953 184.961V135.475C7.26937 134.554 7.57713 133.67 8.12683 133.012C8.67653 132.355 9.42427 131.976 10.2095 131.958H68.2095C68.9947 131.976 69.7424 132.355 70.2921 133.012C70.8418 133.67 71.1496 134.554 71.1494 135.475V179.884C71.1501 180.352 71.0684 180.815 70.9094 181.244L69.5895 184.855C69.3154 185.596 68.8265 186.198 68.2095 186.555Z" fill="white" stroke="#2D2D30" stroke-linejoin="round"/>
<path d="M16.8086 132.028V188.524" stroke="#2D2D30" stroke-linejoin="round"/>
<path d="M25.8281 132.028V188.524" stroke="#2D2D30" stroke-linejoin="round"/>
<path d="M34.8516 132.028V188.524" stroke="#2D2D30" stroke-linejoin="round"/>
<path d="M43.8711 132.028V188.524" stroke="#2D2D30" stroke-linejoin="round"/>
<path d="M52.8906 132.028V188.524" stroke="#2D2D30" stroke-linejoin="round"/>
<path d="M61.8984 132.028V188.524" stroke="#2D2D30" stroke-linejoin="round"/>
<path d="M7.23047 143.915H71.1105" stroke="#2D2D30" stroke-linejoin="round"/>
<path d="M7.23047 154.936H71.1105" stroke="#2D2D30" stroke-linejoin="round"/>
<path d="M7.23047 165.944H71.1105" stroke="#2D2D30" stroke-linejoin="round"/>
<path d="M7.23047 176.953H71.1105" stroke="#2D2D30" stroke-linejoin="round"/>
<path d="M65.0117 192.369L77.0117 181.466L68.4116 180.036C67.9976 179.977 67.5778 180.02 67.1787 180.162C66.7797 180.304 66.4103 180.542 66.0941 180.861C65.7779 181.18 65.5219 181.572 65.3424 182.014C65.1629 182.455 65.0639 182.935 65.0516 183.424L65.0117 192.369Z" fill="white" stroke="#2D2D30" stroke-linejoin="round"/>
<path d="M6.26859 105.145H72.0686C73.3947 105.145 74.6665 105.763 75.6041 106.862C76.5418 107.961 77.0686 109.452 77.0686 111.007V125.896H1.30859V110.96C1.31905 109.422 1.84498 107.95 2.7729 106.862C3.70082 105.774 4.95635 105.158 6.26859 105.145Z" fill="#8AC186" stroke="#2D2D30" stroke-linejoin="round"/>
<path d="M11.7508 100.667H11.7408C10.3932 100.667 9.30078 101.947 9.30078 103.527V109.706C9.30078 111.285 10.3932 112.566 11.7408 112.566H11.7508C13.0984 112.566 14.1908 111.285 14.1908 109.706V103.527C14.1908 101.947 13.0984 100.667 11.7508 100.667Z" fill="white" stroke="#2D2D30" stroke-linejoin="round"/>
<path d="M25.4617 100.667H25.4517C24.1041 100.667 23.0117 101.947 23.0117 103.527V109.706C23.0117 111.285 24.1041 112.566 25.4517 112.566H25.4617C26.8093 112.566 27.9017 111.285 27.9017 109.706V103.527C27.9017 101.947 26.8093 100.667 25.4617 100.667Z" fill="white" stroke="#2D2D30" stroke-linejoin="round"/>
<path d="M39.1805 100.667H39.1705C37.8229 100.667 36.7305 101.947 36.7305 103.527V109.706C36.7305 111.285 37.8229 112.566 39.1705 112.566H39.1805C40.528 112.566 41.6205 111.285 41.6205 109.706V103.527C41.6205 101.947 40.528 100.667 39.1805 100.667Z" fill="white" stroke="#2D2D30" stroke-linejoin="round"/>
<path d="M52.8914 100.667H52.8814C51.5338 100.667 50.4414 101.947 50.4414 103.527V109.706C50.4414 111.285 51.5338 112.566 52.8814 112.566H52.8914C54.239 112.566 55.3314 111.285 55.3314 109.706V103.527C55.3314 101.947 54.239 100.667 52.8914 100.667Z" fill="white" stroke="#2D2D30" stroke-linejoin="round"/>
<path d="M66.6102 100.667H66.6002C65.2526 100.667 64.1602 101.947 64.1602 103.527V109.706C64.1602 111.285 65.2526 112.566 66.6002 112.566H66.6102C67.9577 112.566 69.0502 111.285 69.0502 109.706V103.527C69.0502 101.947 67.9577 100.667 66.6102 100.667Z" fill="white" stroke="#2D2D30" stroke-linejoin="round"/>
<path d="M3.16016 120.281H4.63016" stroke="#2D2D30" stroke-linejoin="round"/>
<path d="M7.62891 120.281H72.2089" stroke="#2D2D30" stroke-linejoin="round" stroke-dasharray="3 3"/>
<path d="M73.7109 120.281H75.1809" stroke="#2D2D30" stroke-linejoin="round"/>
<path d="M54.4492 150.083L56.0792 152.58L59.9592 146.12" stroke="#8AC186" stroke-width="0.62" stroke-linejoin="round"/>
<path d="M27.5195 171.819L29.1495 174.316L33.0295 167.856" stroke="#8AC186" stroke-width="0.62" stroke-linejoin="round"/>
<mask id="mask1_1_639" style="mask-type:alpha" maskUnits="userSpaceOnUse" x="19" y="99" width="244" height="242">
<path d="M201.975 99.8811H80.0248C46.874 99.8811 20 139.443 20 188.246V251.854C20 300.656 46.874 340.218 80.0248 340.218H201.975C235.126 340.218 262 300.656 262 251.854V188.246C262 139.443 235.126 99.8811 201.975 99.8811Z" fill="#C4C4C4" stroke="#2D2D30" stroke-width="0.91" stroke-linecap="round" stroke-linejoin="round"/>
</mask>
<g mask="url(#mask1_1_639)">
<path d="M134.508 187.61C134.508 187.61 127.838 188.501 124.088 210.014C121.168 226.791 116.008 262.595 116.008 262.595C116.008 262.595 117.498 282.139 125.718 282.268C133.938 282.397 136.378 272.221 136.378 272.221L144.898 215.759" fill="white"/>
<path d="M134.508 187.61C134.508 187.61 127.838 188.501 124.088 210.014C121.168 226.791 116.008 262.595 116.008 262.595C116.008 262.595 117.498 282.139 125.718 282.268C133.938 282.397 136.378 272.221 136.378 272.221L144.898 215.759" stroke="#2D2D30" stroke-linecap="round" stroke-linejoin="round"/>
<path d="M134.59 213.508L133.18 255.913L149.14 256.382L134.59 213.508Z" fill="#2D2D30"/>
<path d="M124.087 210.015C123.447 213.696 122.577 218.28 121.617 223.181L143.987 232.231L147.117 215.818L134.507 187.681C134.507 187.681 127.837 188.502 124.087 210.015Z" fill="#8AC186" stroke="#355432" stroke-width="0.62" stroke-linecap="round" stroke-linejoin="round"/>
<path d="M140.458 230.812L134.588 213.508L134.098 228.233L140.458 230.812Z" fill="#355432"/>
<path d="M136.838 269.606C136.838 269.606 137.068 284.003 126.388 284.003C115.708 284.003 106.388 258.035 106.388 258.035C100.248 242.794 87.3281 202.241 87.3281 202.241L96.0481 197.235C103.668 212.687 122.618 242.583 128.938 252.466" fill="white"/>
<path d="M136.838 269.606C136.838 269.606 137.068 284.003 126.388 284.003C115.708 284.003 106.388 258.035 106.388 258.035C100.248 242.794 87.3281 202.241 87.3281 202.241L96.0481 197.235C103.668 212.687 122.618 242.583 128.938 252.466" stroke="#2D2D30" stroke-linejoin="round"/>
<path d="M96.2075 197.88C96.2075 197.88 93.8975 186.754 93.7275 186.086C93.0664 184.598 92.3421 183.151 91.5575 181.748L86.0075 181.654C86.0075 181.654 83.8075 181.772 83.0075 183.085C82.2075 184.398 80.3775 187.352 80.0675 188.114C79.7575 188.876 80.0675 194.973 80.0675 194.973C80.0675 194.973 84.6275 202.007 87.9775 202.792" fill="white"/>
<path d="M96.2075 197.88C96.2075 197.88 93.8975 186.754 93.7275 186.086C93.0664 184.598 92.3421 183.151 91.5575 181.748L86.0075 181.654C86.0075 181.654 83.8075 181.772 83.0075 183.085C82.2075 184.398 80.3775 187.352 80.0675 188.114C79.7575 188.876 80.0675 194.973 80.0675 194.973C80.0675 194.973 84.6275 202.007 87.9775 202.792" stroke="#2D2D30" stroke-linecap="round" stroke-linejoin="round"/>
<path d="M92.2086 186.473C92.2086 186.473 89.2885 178.9 86.9085 176.895C84.5285 174.89 78.0885 168.56 76.4085 167.833C74.7285 167.106 73.6186 168.806 75.0086 171.092C76.3986 173.378 83.4385 180.072 84.5385 181.948C85.4027 183.555 86.1616 185.236 86.8086 186.978" fill="white"/>
<path d="M92.2086 186.473C92.2086 186.473 89.2885 178.9 86.9085 176.895C84.5285 174.89 78.0885 168.56 76.4085 167.833C74.7285 167.106 73.6186 168.806 75.0086 171.092C76.3986 173.378 83.4385 180.072 84.5385 181.948C85.4027 183.555 86.1616 185.236 86.8086 186.978" stroke="#2D2D30" stroke-linejoin="round"/>
<path d="M96.2085 197.88C96.2085 197.88 95.8084 186.708 95.5384 185.629C95.0984 183.929 91.4685 178.431 91.1285 178.22C90.7885 178.009 87.3885 181.057 85.6385 181.889C83.8885 182.722 86.7685 184.879 88.8285 184.164L90.8785 183.448C90.8785 183.448 87.6585 190.905 90.9785 197.388" fill="white"/>
<path d="M96.2085 197.88C96.2085 197.88 95.8084 186.708 95.5384 185.629C95.0984 183.929 91.4685 178.431 91.1285 178.22C90.7885 178.009 87.3885 181.057 85.6385 181.889C83.8885 182.722 86.7685 184.879 88.8285 184.164L90.8785 183.448C90.8785 183.448 87.6585 190.905 90.9785 197.388" stroke="#2D2D30" stroke-linejoin="round"/>
<path d="M78.2075 188.091C77.5873 189.374 77.142 190.762 76.8875 192.206C76.7675 193.777 78.9675 196.556 80.1975 197.001C81.2616 197.482 82.4226 197.588 83.5374 197.306C84.0974 196.943 84.4675 194.738 84.4675 194.738L78.2075 188.091Z" fill="white" stroke="#2D2D30" stroke-linejoin="round"/>
<path d="M80.0075 183.366C80.0075 183.366 77.7575 185.851 77.6275 186.989C77.4975 188.126 78.6275 191.162 79.0875 191.995C79.5475 192.827 83.3075 195.594 84.5975 195.512C85.8875 195.43 87.9475 193.167 87.2575 191.901C86.5675 190.635 80.0075 183.366 80.0075 183.366Z" fill="white" stroke="#2D2D30" stroke-linejoin="round"/>
<path d="M82.9689 180.448C81.7914 181.061 80.6747 181.823 79.639 182.722C78.979 183.531 80.3389 187.411 80.7189 188.666C81.0989 189.92 86.1189 193.766 87.2489 193.086C88.3789 192.406 88.9089 191.562 88.8589 190.624C88.7412 189.559 88.5743 188.502 88.3589 187.458L86.2889 186.872L86.0389 187.611L83.9589 185.794L85.639 184.328" fill="white"/>
<path d="M82.9689 180.448C81.7914 181.061 80.6747 181.823 79.639 182.722C78.979 183.531 80.3389 187.411 80.7189 188.666C81.0989 189.92 86.1189 193.766 87.2489 193.086C88.3789 192.406 88.9089 191.562 88.8589 190.624C88.7412 189.559 88.5743 188.502 88.3589 187.458L86.2889 186.872L86.0389 187.611L83.9589 185.794L85.639 184.328" stroke="#2D2D30" stroke-linejoin="round"/>
<path d="M157.529 156.542L157.749 176.613C157.749 176.613 151.639 199.264 169.119 198.736C186.599 198.209 179.339 173.178 179.339 173.178L173.989 150.528L170.249 138.804L157.529 156.542Z" fill="white" stroke="#2D2D30" stroke-linecap="round" stroke-linejoin="round"/>
<path d="M157.689 170.67C165.799 163.741 165.559 152.275 165.559 152.275L159.559 153.752L157.559 156.543L157.689 170.67Z" fill="#2D2D30"/>
<path d="M145.5 301.718L116.16 391.393H152.52L184.8 326.725L201.77 313.231L203.28 297.591" fill="#2D2D30"/>
<path d="M203.488 297.298C203.488 297.298 213.888 329.035 201.768 389.248H167.828L165.398 332.411L158.738 330.277" fill="#2D2D30"/>
<path d="M167.828 389.248C166.638 370.325 165.828 351.38 165.248 332.411L165.358 332.575L158.738 330.23L165.438 332.188H165.548V332.317C166.548 351.251 167.398 370.197 167.818 389.166L167.828 389.248Z" fill="white"/>
<path d="M134.531 212.417C137.831 245.771 145.711 301.846 145.711 301.846C145.711 301.846 187.531 306.465 203.281 297.591C205.711 237.014 208.641 171.056 208.641 171.056L180.561 173.061L170.481 181.678L166.311 190.295L161.311 181.056L156.031 177.305C150.961 179.345 136.381 185.113 133.641 188.044" fill="#8AC186"/>
<path d="M134.531 212.417C137.831 245.771 145.711 301.846 145.711 301.846C145.711 301.846 187.531 306.465 203.281 297.591C205.711 237.014 208.641 171.056 208.641 171.056L180.561 173.061L170.481 181.678L166.311 190.295L161.311 181.056L156.031 177.305C150.961 179.345 136.381 185.113 133.641 188.044" stroke="#355432" stroke-width="0.62" stroke-linecap="round" stroke-linejoin="round"/>
<path d="M199.797 218.983L196.617 274.671C199.487 282.029 201.718 289.708 203.277 297.591C204.277 274.026 205.277 249.664 206.137 228.667L199.797 218.983Z" fill="#355432"/>
<path d="M168.278 143.224C168.278 143.224 175.398 139.074 174.698 125.932C173.998 112.789 163.108 101.98 149.418 109.917C149.418 109.917 140.558 116.752 141.508 135.58C138.508 144.819 138.378 146.542 142.508 146.542C142.508 146.542 141.298 162.053 150.288 162.58C157.518 163.014 164.128 156.484 166.288 152.216" fill="white"/>
<path d="M168.278 143.224C168.278 143.224 175.398 139.074 174.698 125.932C173.998 112.789 163.108 101.98 149.418 109.917C149.418 109.917 140.558 116.752 141.508 135.58C138.508 144.819 138.378 146.542 142.508 146.542C142.508 146.542 141.298 162.053 150.288 162.58C157.518 163.014 164.128 156.484 166.288 152.216" stroke="#2D2D30" stroke-linecap="round" stroke-linejoin="round"/>
<path d="M168.278 133.927C167.295 134.134 166.412 134.764 165.805 135.695C165.198 136.626 164.91 137.789 164.999 138.957C163.229 138.957 162.778 138.957 162.778 138.957L162.629 131.254C162.629 131.254 155.448 126.764 156.358 117.76C156.358 117.76 140.818 121.828 139.488 112.813C138.358 105.087 143.428 99.9165 143.428 99.9165C143.428 99.9165 145.429 103.434 150.509 102.695C153.409 102.261 172.428 98.9083 175.658 110.984C175.658 110.984 184.658 113.95 177.068 138.464C175.878 142.333 174.848 144.326 174.448 151.009C173.361 150.67 172.308 150.195 171.308 149.59C171.308 149.59 172.828 134.49 168.278 133.927Z" fill="#2D2D30"/>
<path d="M166.41 136.272C166.41 136.272 168.65 129.495 172.83 131.828C177.01 134.161 171.32 145.193 169.03 145.979C166.74 146.764 166.49 143.329 166.49 143.329" fill="white"/>
<path d="M166.41 136.272C166.41 136.272 168.65 129.495 172.83 131.828C177.01 134.161 171.32 145.193 169.03 145.979C166.74 146.764 166.49 143.329 166.49 143.329" stroke="#2D2D30" stroke-linecap="round" stroke-linejoin="round"/>
<path d="M167.59 138.113C167.59 138.113 169.26 133.306 171.72 133.553L167.59 138.113Z" fill="white"/>
<path d="M167.59 138.113C167.59 138.113 169.26 133.306 171.72 133.553" stroke="#2D2D30" stroke-linecap="round" stroke-linejoin="round"/>
<path d="M142.578 129.801C142.578 129.801 145.398 126.964 149.338 130.164L142.578 129.801Z" fill="white"/>
<path d="M142.578 129.801C142.578 129.801 145.398 126.964 149.338 130.164" stroke="#2D2D30" stroke-linecap="round" stroke-linejoin="round"/>
<path d="M143.277 133.094L146.407 135.287" stroke="#2D2D30" stroke-linecap="round" stroke-linejoin="round"/>
<path d="M143.91 136.765C144.148 136.765 144.34 136.025 144.34 135.112C144.34 134.199 144.148 133.459 143.91 133.459C143.673 133.459 143.48 134.199 143.48 135.112C143.48 136.025 143.673 136.765 143.91 136.765Z" fill="#2D2D30"/>
<path d="M144.758 152.076C144.758 152.076 147.978 152.076 148.548 149.145L144.758 152.076Z" fill="white"/>
<path d="M144.758 152.076C144.758 152.076 147.978 152.076 148.548 149.145" stroke="#2D2D30" stroke-linecap="round" stroke-linejoin="round"/>
<path d="M199.027 218.654C203.547 237.963 208.877 263.803 211.567 267.156C215.627 272.22 225.377 273.557 228.287 266.945C231.197 260.332 222.817 207.915 220.897 193.19" fill="white"/>
<path d="M199.027 218.654C203.547 237.963 208.877 263.803 211.567 267.156C215.627 272.22 225.377 273.557 228.287 266.945C231.197 260.332 222.817 207.915 220.897 193.19" stroke="#2D2D30" stroke-linecap="round" stroke-linejoin="round"/>
<path d="M198.738 217.835C199.298 220.179 199.878 222.723 200.458 225.279L224.278 217.072C222.868 206.99 221.528 198.021 220.898 193.156C220.048 186.673 217.378 170.764 208.278 171.033" fill="#8AC186"/>
<path d="M198.738 217.835C199.298 220.179 199.878 222.723 200.458 225.279L224.278 217.072C222.868 206.99 221.528 198.021 220.898 193.156C220.048 186.673 217.378 170.764 208.278 171.033" stroke="#355432" stroke-width="0.62" stroke-linejoin="round"/>
<path d="M228.839 257.437C228.839 257.437 230.459 267.988 227.329 271.412C224.199 274.835 206.519 276.511 190.459 275.327C174.399 274.143 155.099 273.311 155.099 273.311C155.099 273.311 153.099 265.022 154.999 263.604C178.639 260.872 212.679 253.885 214.899 253.65" fill="white"/>
<path d="M228.839 257.437C228.839 257.437 230.459 267.988 227.329 271.412C224.199 274.835 206.519 276.511 190.459 275.327C174.399 274.143 155.099 273.311 155.099 273.311C155.099 273.311 153.099 265.022 154.999 263.604C178.639 260.872 212.679 253.885 214.899 253.65" stroke="#2D2D30" stroke-linecap="round" stroke-linejoin="round"/>
<path d="M156.84 273.382C156.84 273.382 149.84 275.293 146.17 270.685C142.5 266.078 142.08 264.906 142.08 264.906L138.74 265.246C138.74 265.246 137.13 270.275 135.74 270.451C134.35 270.627 134.24 267.368 134.24 267.368C134.24 267.368 133.06 267.813 132.4 265.515C131.999 264.255 131.872 262.897 132.03 261.564L134.61 257.18C134.61 257.18 129.86 259.958 128.61 258.211C127.36 256.464 137.14 249.805 137.14 249.805L145.69 248.891L157.21 264.038" fill="white"/>
<path d="M156.84 273.382C156.84 273.382 149.84 275.293 146.17 270.685C142.5 266.078 142.08 264.906 142.08 264.906L138.74 265.246C138.74 265.246 137.13 270.275 135.74 270.451C134.35 270.627 134.24 267.368 134.24 267.368C134.24 267.368 133.06 267.813 132.4 265.515C131.999 264.255 131.872 262.897 132.03 261.564L134.61 257.18C134.61 257.18 129.86 259.958 128.61 258.211C127.36 256.464 137.14 249.805 137.14 249.805L145.69 248.891L157.21 264.038" stroke="#2D2D30" stroke-linecap="round" stroke-linejoin="round"/>
<path d="M177.81 165.066L170.18 181.479C170.18 181.479 175.48 179.791 179.8 188.056C181.16 175.793 181.49 172.417 181.49 172.417C181.49 172.417 181.68 166.942 177.81 165.066Z" fill="#355432"/>
<path d="M157.278 170.716L161.538 180.752C161.538 180.752 156.308 182.475 156.008 188.524C154.798 179.286 155.298 176.801 155.298 176.801C155.298 176.801 156.068 172.369 157.278 170.716Z" fill="#355432"/>
<path d="M166.31 190.295L166.16 205.395L169.95 205.337" fill="#8AC186"/>
<path d="M166.31 190.295L166.16 205.395L169.95 205.337" stroke="#355432" stroke-width="0.62" stroke-linejoin="round"/>
<path d="M168.128 192.475C168.57 192.475 168.928 192.055 168.928 191.537C168.928 191.019 168.57 190.599 168.128 190.599C167.686 190.599 167.328 191.019 167.328 191.537C167.328 192.055 167.686 192.475 168.128 192.475Z" fill="#355432"/>
<path d="M168.128 200.214C168.57 200.214 168.928 199.794 168.928 199.276C168.928 198.758 168.57 198.338 168.128 198.338C167.686 198.338 167.328 198.758 167.328 199.276C167.328 199.794 167.686 200.214 168.128 200.214Z" fill="#355432"/>
</g>
<path d="M269.711 368.461L267.961 424.618L310.321 398.309L269.711 368.461Z" stroke="#8AC186" stroke-width="2.37" stroke-linejoin="round"/>
<rect x="-1.41421" width="10.7578" height="10.7578" transform="matrix(-0.707107 -0.707107 -0.707107 0.707107 62.6288 269.903)" stroke="#8AC186" stroke-width="2"/>
</g>
<path d="M966.211 434.008C966.485 395.873 979.6 359.41 1002.7 332.557C1025.8 305.705 1057.01 290.638 1089.54 290.638C1122.07 290.638 1153.28 305.705 1176.38 332.557C1199.47 359.41 1212.59 395.873 1212.86 434.008" fill="#8AC186"/>
<path d="M982.58 400.978C982.58 400.978 962.846 373.982 960.457 344.195" stroke="#2D2D30" stroke-linecap="round" stroke-linejoin="round"/>
<path d="M988.299 400.628C982.956 392.871 979.128 383.835 977.084 374.157C973 355.376 971.411 305.285 968.117 290.562" stroke="#2D2D30" stroke-linecap="round" stroke-linejoin="round"/>
<path d="M990.985 399.835C990.985 399.835 987.621 378.017 990.107 357.775C992.592 337.533 1003.11 294.968 992.355 233.191" stroke="#2D2D30" stroke-linecap="round" stroke-linejoin="round"/>
<path d="M993.568 332.148C993.568 332.148 984.487 318.763 988.079 314.645C991.671 310.526 995.36 318.321 994.912 324.632C994.464 330.944 993.568 332.148 993.568 332.148Z" fill="#2D2D30"/>
<path d="M994.875 400.978C994.875 400.978 992.187 392.216 1000.26 362.068C1008.33 331.921 1013.12 286.906 1013.12 286.906" stroke="#2D2D30" stroke-linecap="round" stroke-linejoin="round"/>
<path d="M996.368 377.142C996.368 377.142 1003.39 363.644 1009.97 365.219C1016.55 366.794 1010.42 375.217 996.666 379.067C996.069 379.593 996.368 377.142 996.368 377.142Z" fill="#2D2D30"/>
<path d="M1001.47 357.507C1001.47 357.507 1005.86 348.374 1009.88 351.927C1013.91 355.479 1004.27 360.596 1002.37 362.305C1001.31 363.221 1000.35 364.282 999.512 365.466L1001.47 357.507Z" fill="#2D2D30"/>
<path d="M1003.16 350.238C1003.16 350.238 1011.56 346.119 1010.34 342.001C1009.11 337.882 1005.12 342.65 1004.19 345.152C1003.64 346.782 1003.3 348.494 1003.16 350.238Z" fill="#2D2D30"/>
<path d="M1002.25 353.698C1001.75 350.884 1000.89 348.179 999.679 345.678C997.659 341.477 1001.64 337.595 1003.43 340.354C1005.22 343.114 1003.77 348.046 1003.77 348.046L1002.25 353.698Z" fill="#2D2D30"/>
<path d="M1006.54 333.24C1006.54 333.24 1010.27 318.084 1017.37 322.552C1024.48 327.021 1005.56 338.676 1005.56 338.676L1006.54 333.24Z" fill="#2D2D30"/>
<path d="M1009.08 317.115C1009.08 317.115 1015.47 304.245 1018.94 309.496C1022.83 315.365 1008.55 321.141 1008.55 321.141L1009.08 317.115Z" fill="#2D2D30"/>
<path d="M1008.4 319.834C1008.4 319.834 1001.45 312.472 1003.84 309.146C1006.23 305.82 1009.46 308.961 1009.6 313.172C1009.76 315.482 1009.34 317.794 1008.4 319.834Z" fill="#2D2D30"/>
<path d="M1010.5 308.962C1010.5 308.962 1024.92 299.942 1021.86 293.106C1018.79 286.269 1012.74 295.906 1011.47 301.085C1010.87 306.604 1010.5 308.962 1010.5 308.962Z" fill="#2D2D30"/>
<path d="M1012.29 296.255C1012.29 296.255 1026.27 285.135 1022.38 279.256C1018.5 273.376 1013.12 289.428 1013.12 289.428L1012.29 296.255Z" fill="#2D2D30"/>
<path d="M1012.29 290.304C1012.29 290.304 1008.7 267.868 1013.04 266.2C1017.38 264.533 1016.85 273.48 1016.25 277.423C1015.65 281.367 1013.19 290.386 1013.19 290.386L1012.29 290.304Z" fill="#2D2D30"/>
<path d="M989.756 359.619C989.756 359.619 980.622 348.643 984.372 344.504C988.123 340.365 990.652 349.559 990.432 355.603C989.923 358.363 989.756 359.619 989.756 359.619Z" fill="#2D2D30"/>
<path d="M991.363 347.264C991.363 347.264 991.232 317.24 1002.24 321.524C1012.44 325.436 991.363 347.264 991.363 347.264Z" fill="#2D2D30"/>
<path d="M996.631 306.51C996.631 306.51 999.88 290.036 1006.72 293.897C1013.56 297.758 998.089 311.112 996.402 311.4C996.631 308.61 996.631 306.51 996.631 306.51Z" fill="#2D2D30"/>
<path d="M996.034 306.994C996.034 306.994 985.047 297.8 988.296 291.097C991.546 284.394 996.929 302.794 996.929 302.794L996.034 306.994Z" fill="#2D2D30"/>
<path d="M997.16 294.815C997.16 294.815 1006.01 288.904 1004.67 283.643C1003.33 278.382 997.16 285.352 997.16 290.078V294.815Z" fill="#2D2D30"/>
<path d="M997.161 286.268C997.161 286.268 992.111 267.343 985.164 273.778C978.217 280.213 990.653 292.054 997.161 290.077C997.238 288.809 997.238 287.536 997.161 286.268Z" fill="#2D2D30"/>
<path d="M997.047 282.592C997.047 282.592 1009.94 274.839 1007.7 266.952C1005.46 259.066 997.495 272.101 997.047 278.906C997.124 280.133 997.124 281.365 997.047 282.592Z" fill="#2D2D30"/>
<path d="M996.633 273.779C996.633 273.779 985.98 268.26 988.22 259.065C990.459 249.871 996.633 265.367 996.853 269.578C997.072 273.789 996.633 273.779 996.633 273.779Z" fill="#2D2D30"/>
<path d="M995.922 261.691C995.922 261.691 998.838 237.639 1007.25 242.633C1015.66 247.626 1001.1 261.825 996.37 263.792C996.147 263.116 995.997 262.41 995.922 261.691Z" fill="#2D2D30"/>
<path d="M994.242 243.426C994.242 243.426 994.576 219.107 1004.1 223.05C1013.63 226.994 994.444 245.784 994.444 245.784L994.242 243.426Z" fill="#2D2D30"/>
<path d="M995.027 254.195C995.027 254.195 983.258 246.71 985.612 240.532C987.966 234.354 993.683 240.789 995.141 250.385C995.475 253.546 995.027 254.195 995.027 254.195Z" fill="#2D2D30"/>
<path d="M992.671 234.921C992.671 234.921 993.119 207.842 985.267 211.394C977.416 214.946 985.267 226.859 992.671 234.921Z" fill="#2D2D30"/>
<path d="M980.448 384.854C980.448 384.854 976.303 362.635 985.717 365.919C995.132 369.204 981.01 385.771 981.01 385.771L980.448 384.854Z" fill="#2D2D30"/>
<path d="M977.873 377.493C977.873 377.493 973.833 371.181 972.603 373.683C971.374 376.185 971.725 379.459 978.435 379.861C978.413 379.03 978.22 378.217 977.873 377.493Z" fill="#2D2D30"/>
<path d="M975.853 366.712C975.853 366.712 974.176 353.698 979.103 355.273C984.03 356.848 976.53 368.421 976.53 368.421L975.853 366.712Z" fill="#2D2D30"/>
<path d="M974.959 362.902C974.959 362.902 968.68 356.982 970.138 353.965C971.595 350.948 973.65 354.223 975.179 360.534C975.741 363.036 974.959 362.902 974.959 362.902Z" fill="#2D2D30"/>
<path d="M973.801 349.621C973.801 349.621 975.952 335.206 982.214 339.5C987.589 343.186 974.249 352.123 974.249 352.123L973.801 349.621Z" fill="#2D2D30"/>
<path d="M973.666 348.571C973.666 348.571 972.656 334.31 967.782 336.411C962.908 338.511 971.426 349.168 973.78 350.939C974.061 349.034 973.666 348.571 973.666 348.571Z" fill="#2D2D30"/>
<path d="M972.543 334.444C972.543 334.444 973.5 309.599 982.81 312.431C992.119 315.262 979.103 336.215 973.149 338.779C972.719 336.411 972.543 334.444 972.543 334.444Z" fill="#2D2D30"/>
<path d="M972.156 328.266C972.156 328.266 967.001 310.762 962.566 314.881C958.131 318.999 971.928 330.253 971.928 330.253L972.156 328.266Z" fill="#2D2D30"/>
<path d="M972.041 326.423C972.041 326.423 968.229 307.365 973.551 307.828C978.873 308.291 972.374 328.421 972.374 328.421L972.041 326.423Z" fill="#2D2D30"/>
<path d="M970.47 308.085C970.47 308.085 987.35 294.752 981.237 283.776C975.125 272.8 970.365 298.891 970.084 303.617C969.888 305.121 970.021 306.658 970.47 308.085Z" fill="#2D2D30"/>
<path d="M969.906 302.64C969.906 302.64 965.594 288.05 960.939 285.486C956.285 282.922 949.522 289.1 955.169 296.719C960.816 304.338 969.906 304.802 969.906 304.802V302.64Z" fill="#2D2D30"/>
<path d="M968.228 290.211C968.228 290.211 958.699 280.224 958.568 267.405C958.436 254.587 968.94 253.866 971.399 260.569C973.858 267.271 970.283 274.376 969.721 278.978C969.159 283.581 968.228 290.211 968.228 290.211Z" fill="#2D2D30"/>
<path d="M969.179 295.206C969.179 295.206 976.583 280.164 971.147 276.416C965.71 272.668 964.92 287.32 968.45 294.156C968.96 295.145 969.179 295.206 969.179 295.206Z" fill="#2D2D30"/>
<path d="M967.152 372.015C967.152 372.015 964.833 359.093 970.735 361.06C976.637 363.026 968.302 373.899 968.302 373.899L967.152 372.015Z" fill="#2D2D30"/>
<path d="M964.455 363.911C964.455 363.911 960.942 354.645 956.911 354.84C952.88 355.036 951.976 358.866 956.033 362.202C958.549 364.202 961.552 365.185 964.587 365.003L964.455 363.911Z" fill="#2D2D30"/>
<path d="M962.031 355.716C962.031 355.716 961.276 343.185 966.097 343.71C970.919 344.235 962.585 356.55 962.585 356.55L962.031 355.716Z" fill="#2D2D30"/>
<path d="M961.501 353.038C961.501 353.038 958.471 341.383 954.545 343.535C950.619 345.687 957.048 352.801 961.685 354.665C961.799 353.038 961.501 353.038 961.501 353.038Z" fill="#2D2D30"/>
<path d="M960.231 345.205C960.231 345.205 949.771 329.029 956.05 325.642C962.33 322.255 962.136 339.614 960.977 345.205C960.907 345.73 960.231 345.205 960.231 345.205Z" fill="#2D2D30"/>
<path d="M1006.35 402.593L987.964 402.336L969.573 402.593C969.573 402.593 965.428 419.551 978.435 433.225H997.51C1010.5 419.551 1006.35 402.593 1006.35 402.593Z" fill="white" stroke="#2D2D30" stroke-linecap="round" stroke-linejoin="round"/>
<path d="M1007.97 397.725H967.948C966.43 397.725 965.199 399.168 965.199 400.948C965.199 402.728 966.43 404.171 967.948 404.171H1007.97C1009.49 404.171 1010.72 402.728 1010.72 400.948C1010.72 399.168 1009.49 397.725 1007.97 397.725Z" fill="white" stroke="#2D2D30" stroke-linecap="round" stroke-linejoin="round"/>
<path d="M1306.81 286.114L1279.06 433.206H1275.02L1294.53 280.606L1306.81 286.114Z" fill="white" stroke="#2D2D30" stroke-linejoin="round"/>
<path d="M1291.22 306.521L1303.49 303.731L1305.81 291.437L1306.36 285.98L1294.52 280.678L1291.22 306.521Z" fill="#2D2D30"/>
<path d="M1348.71 286.114L1376.45 433.206H1380.49L1360.99 280.606L1348.71 286.114Z" fill="white" stroke="#2D2D30" stroke-linejoin="round"/>
<path d="M1363.4 299.386L1361.03 280.946L1354.88 283.345L1348.71 286.114L1352.74 307.5L1363.4 299.386Z" fill="#2D2D30"/>
<path d="M1364.08 267.169L1416.7 113.127C1416.7 113.127 1431.06 120.119 1424.61 141.71C1418.15 163.301 1388.84 255.102 1388.84 255.102C1388.18 257.183 1387.3 259.155 1386.21 260.971C1383.56 264.688 1378.24 267.581 1364.08 267.169Z" fill="white" stroke="#2D2D30" stroke-linejoin="round"/>
<path d="M1416.71 113.127L1363.88 267.797H1297.23L1356.02 113.282L1416.71 113.127Z" fill="white" stroke="#2D2D30" stroke-linejoin="round"/>
<path d="M1304.55 289.398H1235.87C1235.87 289.398 1229.38 280.667 1230.73 269.393H1295.72L1304.55 289.398Z" fill="#2D2D30"/>
<path d="M1298.28 375.36L1280.23 347.499L1262.49 363.736L1282.06 392.318C1282.06 392.318 1287.08 392.318 1293.03 387.242C1298.97 382.166 1298.28 375.36 1298.28 375.36Z" fill="white" stroke="#2D2D30" stroke-linecap="round" stroke-linejoin="round"/>
<path d="M1297.31 373.086C1297.31 373.086 1308.48 383.887 1311.07 391.043C1303.29 406.25 1290.33 427.893 1288.18 428.789C1286.04 429.684 1263.52 433.267 1260.47 433.267C1258.8 429.695 1259.81 417.164 1275.34 413.396C1277.45 405.89 1279.2 398.248 1280.56 390.507C1280.56 390.507 1295.32 384.36 1297.31 373.086Z" fill="#2D2D30"/>
<path d="M1308.17 386.162C1304.81 392.669 1301.31 399.084 1297.79 405.467L1292.41 414.981C1291.54 416.567 1290.66 418.152 1289.67 419.707L1288.27 422.034C1287.79 422.847 1287.26 423.624 1286.7 424.361L1286.63 424.454H1286.5L1279.86 425.689C1277.65 426.111 1275.46 426.482 1273.22 426.873C1270.97 427.264 1268.83 427.666 1266.56 428.016L1259.9 429.046L1266.51 427.563C1268.7 427.058 1270.9 426.626 1273.12 426.152C1275.34 425.679 1277.51 425.205 1279.73 424.783L1286.36 423.465L1286.16 423.568C1286.66 422.873 1287.14 422.148 1287.58 421.396L1288.96 419.069L1291.72 414.373L1297.17 404.922C1300.82 398.703 1304.46 392.453 1308.17 386.162Z" fill="white"/>
<path d="M1286.4 351.175L1265.09 371.953C1265.09 371.953 1200.29 282.571 1192.66 266.797C1185.04 251.024 1182.35 225.262 1212.4 219.435C1242.44 213.607 1289.09 215.224 1289.09 215.224L1330.36 218.385C1330.36 218.385 1335.75 264.645 1301.66 264.645C1267.58 264.645 1230.34 257.912 1230.34 257.912L1286.4 351.175Z" fill="#2D2D30"/>
<path d="M1301.64 264.687C1295.67 264.687 1289.7 264.687 1283.74 264.358C1277.77 264.028 1271.81 263.637 1265.86 263.081C1259.92 262.525 1253.96 261.897 1248.03 261.104C1242.09 260.311 1236.17 259.457 1230.26 258.437L1230.66 257.675L1244.71 280.976L1258.69 304.317L1272.59 327.72L1286.42 351.175L1272.21 328.029L1258.08 304.822L1244.03 281.542L1229.98 258.242L1229.43 257.305L1230.38 257.48C1236.28 258.509 1242.2 259.405 1248.11 260.219C1254.03 261.032 1259.97 261.763 1265.91 262.381C1271.84 262.998 1277.8 263.493 1283.75 263.925C1289.71 264.358 1295.67 264.574 1301.64 264.687Z" fill="white"/>
<path d="M1144.68 410.677L1158.08 387.655L1140.22 374.414L1127.05 396.036C1127.05 396.036 1124.9 406.693 1131.15 411.161C1137.4 415.63 1144.68 410.677 1144.68 410.677Z" fill="white" stroke="#2D2D30" stroke-linejoin="round"/>
<path d="M1146.13 409.102C1146.13 409.102 1139.37 429.787 1131.11 433.71C1113.87 421.189 1078.77 394.718 1078.77 394.718C1078.77 394.718 1082.59 377.719 1106.39 392.391C1113.45 393.579 1120.57 394.092 1127.69 393.925C1127.69 393.925 1128.59 408.031 1146.13 409.102Z" fill="#2D2D30"/>
<path d="M1081.82 389.703C1086.55 392.638 1091.22 395.665 1095.88 398.702C1100.53 401.739 1105.18 404.88 1109.83 407.969C1114.49 411.057 1119.09 414.229 1123.68 417.41L1130.58 422.208C1132.85 423.835 1135.15 425.441 1137.42 427.099C1135.05 425.637 1132.71 424.123 1130.39 422.641L1123.36 418.1C1118.69 415.011 1114.06 411.922 1109.41 408.833C1104.75 405.745 1100.16 402.573 1095.56 399.392C1090.96 396.21 1086.37 392.998 1081.82 389.703Z" fill="white"/>
<path d="M1350.68 221.227C1350.68 221.227 1353.71 258.746 1334.72 267.559C1315.73 276.373 1236.28 277.207 1236.28 277.207L1156.36 394.707C1156.36 394.707 1139.62 381.394 1134.83 376.174C1134.83 376.174 1215.56 239.471 1219.74 234.57C1223.92 229.669 1321.4 218.096 1321.4 218.096" fill="#2D2D30"/>
<path d="M1196.09 273.016L1206.24 255.719C1209.66 249.984 1213.08 244.259 1216.6 238.586C1217.47 237.175 1218.35 235.765 1219.34 234.375C1219.48 234.179 1219.65 234.012 1219.85 233.881C1220.02 233.778 1220.21 233.644 1220.38 233.561C1220.75 233.376 1221.11 233.242 1221.47 233.098C1222.2 232.83 1222.92 232.594 1223.65 232.388C1226.57 231.564 1229.52 230.936 1232.43 230.328C1238.32 229.144 1244.23 228.135 1250.15 227.178C1261.98 225.345 1273.84 223.674 1285.7 222.163L1303.52 219.981L1321.35 218.035L1285.78 222.946C1273.94 224.624 1262.07 226.282 1250.27 228.197C1244.35 229.124 1238.45 230.102 1232.56 231.286C1229.63 231.873 1226.69 232.48 1223.78 233.283C1223.06 233.479 1222.35 233.716 1221.65 233.963C1221.3 234.097 1220.95 234.231 1220.63 234.395C1220.47 234.472 1220.32 234.562 1220.17 234.663C1220.04 234.748 1219.92 234.863 1219.82 235.003C1218.88 236.259 1217.98 237.711 1217.09 239.121C1213.51 244.722 1210.06 250.447 1206.55 256.069L1196.09 273.016Z" fill="white"/>
<path d="M1334.75 267.58C1330.86 269.213 1326.85 270.419 1322.76 271.184C1318.7 272.038 1314.61 272.687 1310.47 273.243C1302.26 274.345 1294.03 275.138 1285.78 275.714C1277.54 276.291 1269.3 276.744 1261.04 277.073C1252.79 277.403 1244.54 277.588 1236.28 277.67L1236.57 277.506L1223.3 296.77L1209.94 315.952L1222.92 296.389L1235.99 276.929L1236.09 276.764H1236.28C1244.53 276.627 1252.77 276.383 1261.02 276.033C1269.26 275.694 1277.5 275.323 1285.74 274.767C1293.98 274.211 1302.2 273.572 1310.41 272.605C1314.51 272.1 1318.6 271.575 1322.7 270.813C1326.8 270.176 1330.83 269.093 1334.75 267.58Z" fill="white"/>
<path d="M1297.24 267.168H1379.59C1379.59 267.168 1380 289.397 1356.3 289.397H1304.55C1304.55 289.397 1281.38 290.726 1279.96 275.477C1291.86 273.572 1297.24 267.168 1297.24 267.168Z" fill="white" stroke="#2D2D30" stroke-linejoin="round"/>
<path d="M1134.78 219.096L1149.95 433.741H1145.26L1121.78 219.951L1134.78 219.096Z" fill="white" stroke="#2D2D30" stroke-linejoin="round"/>
<path d="M1134.78 219.096L1121.78 219.951L1124.35 245.588L1135.91 236.836L1134.78 219.096Z" fill="#2D2D30"/>
<path d="M1399.55 219.096L1414.72 433.741H1410.03L1386.54 219.951L1399.55 219.096Z" fill="white" stroke="#2D2D30" stroke-linejoin="round"/>
<path d="M1399.55 219.096L1386.54 219.951L1389.34 247.864L1400.87 239.482L1399.55 219.096Z" fill="#2D2D30"/>
<path d="M1351.78 59.8856C1351.7 60.9667 1355.39 87.3456 1357.41 91.2787C1359.43 95.2119 1373.05 97.9919 1373.05 97.9919C1373.05 97.9919 1362.78 140.886 1335.29 142.07C1307.8 143.254 1310.44 101.122 1310.44 101.122L1331.59 93.6469L1332.27 67.268C1332.27 67.268 1333.15 45.3576 1339.29 40.889C1348.38 34.2583 1351.78 59.8856 1351.78 59.8856Z" fill="white" stroke="#2D2D30" stroke-linecap="round" stroke-linejoin="round"/>
<path d="M1345.89 66.6492L1332.05 73.8565L1331.55 93.6355L1320.49 97.5378C1323.23 98.2482 1327.23 97.9805 1332.88 94.8505C1346.17 87.5093 1345.89 66.6492 1345.89 66.6492Z" fill="#2D2D30"/>
<path d="M1349.47 51.2473C1349.47 51.2473 1350.23 26.7423 1340.69 23.2313C1331.15 19.7203 1317.24 24.6934 1315.96 32.3641C1315.96 32.3641 1315.36 45.7491 1315.4 48.5909C1315.43 51.4327 1316.82 82.0742 1330.58 82.7023C1340.81 83.1656 1345.82 68.4626 1345.82 68.4626" fill="white"/>
<path d="M1349.47 51.2473C1349.47 51.2473 1350.23 26.7423 1340.69 23.2313C1331.15 19.7203 1317.24 24.6934 1315.96 32.3641C1315.96 32.3641 1315.36 45.7491 1315.4 48.5909C1315.43 51.4327 1316.82 82.0742 1330.58 82.7023C1340.81 83.1656 1345.82 68.4626 1345.82 68.4626" stroke="#2D2D30" stroke-linecap="round" stroke-linejoin="round"/>
<path d="M1352.88 24.1574C1355.12 23.6323 1355.45 22.5821 1355.45 22.5821C1356.11 25.0243 1356.08 27.6522 1355.35 30.0675C1356.46 34.186 1357.59 37.1719 1352.65 63.3242C1351.58 63.5803 1350.49 63.7114 1349.4 63.7155C1349.4 63.7155 1351.31 52.3897 1348.62 50.9688C1345.93 49.5479 1345.42 53.5531 1345.42 53.5531H1344.36L1344.13 49.2184C1344.13 49.2184 1339.87 36.4717 1340.21 32.5283C1323.39 34.5875 1315.97 32.3223 1315.97 32.3223L1315.32 43.0407C1313.37 40.4708 1311.95 37.4139 1311.17 34.1036C1312.08 34.5337 1313.01 34.9083 1313.95 35.2259C1313.95 35.2259 1311.45 28.6775 1311.39 24.9296C1312.96 26.5153 1314.12 26.2476 1314.12 26.2476C1314.12 26.2476 1314.76 15.2924 1320.27 13.6347C1319.74 17.2178 1320.38 18.2268 1320.38 18.2268C1320.38 18.2268 1322.66 13.0169 1326.7 12.3992C1325.65 14.3349 1327.33 16.3941 1327.33 16.3941C1327.33 16.3941 1329.8 13.3052 1332.6 13.3052L1332.49 16.0234C1334.38 14.5544 1336.55 13.6528 1338.81 13.3979C1337.69 14.4275 1338.32 16.8163 1338.32 16.8163C1340.25 15.559 1342.45 14.9867 1344.66 15.1689C1344.2 15.6546 1343.89 16.3017 1343.78 17.0119C1345.75 16.8517 1347.72 17.2033 1349.56 18.0415C1349.03 18.1196 1348.52 18.369 1348.1 18.7622C1349.64 19.3499 1351 20.4435 1352.03 21.9129C1352.52 22.5248 1352.82 23.317 1352.88 24.1574Z" fill="#2D2D30"/>
<path d="M1323.78 49.2388C1324.1 49.6495 1324.35 50.138 1324.5 50.671C1324.65 51.204 1324.7 51.769 1324.65 52.3276C1324.32 53.9441 1323.37 60.5646 1323.37 60.5646C1323.37 60.5646 1323.37 62.768 1329.11 60.719" stroke="#2D2D30" stroke-linecap="round" stroke-linejoin="round"/>
<path d="M1346.17 53.5526C1346.17 53.5526 1348.66 46.963 1352.71 49.5165C1356.76 52.0699 1350.67 62.6854 1348.32 63.334C1345.98 63.9827 1345.91 60.554 1345.91 60.554" fill="white"/>
<path d="M1346.17 53.5526C1346.17 53.5526 1348.66 46.963 1352.71 49.5165C1356.76 52.0699 1350.67 62.6854 1348.32 63.334C1345.98 63.9827 1345.91 60.554 1345.91 60.554" stroke="#2D2D30" stroke-linecap="round" stroke-linejoin="round"/>
<path d="M1347.29 55.4479C1347.29 55.4479 1349.15 50.7837 1351.58 51.1647L1347.29 55.4479Z" fill="white"/>
<path d="M1347.29 55.4479C1347.29 55.4479 1349.15 50.7837 1351.58 51.1647" stroke="#2D2D30" stroke-linecap="round" stroke-linejoin="round"/>
<path d="M1333.42 66.1775C1330.55 70.2342 1324.14 68.6692 1324.14 68.6692" stroke="#2D2D30" stroke-linecap="round" stroke-linejoin="round"/>
<path d="M1329.36 46.2628C1329.36 46.2628 1333.42 40.2086 1339.02 44.2035" stroke="#2D2D30" stroke-linecap="round" stroke-linejoin="round"/>
<path d="M1322.84 46.2428C1322.84 46.2428 1319.74 42.5258 1315.34 46.1913" stroke="#2D2D30" stroke-linecap="round" stroke-linejoin="round"/>
<path d="M1319.22 53.0899C1319.97 53.0899 1320.59 52.3707 1320.59 51.4836C1320.59 50.5966 1319.97 49.8774 1319.22 49.8774C1318.46 49.8774 1317.85 50.5966 1317.85 51.4836C1317.85 52.3707 1318.46 53.0899 1319.22 53.0899Z" fill="#2D2D30"/>
<path d="M1333.44 51.7412C1334.2 51.7412 1334.81 51.0221 1334.81 50.135C1334.81 49.2479 1334.2 48.5288 1333.44 48.5288C1332.69 48.5288 1332.07 49.2479 1332.07 50.135C1332.07 51.0221 1332.69 51.7412 1333.44 51.7412Z" fill="#2D2D30"/>
<path d="M1330.93 50.4849C1330.93 50.4849 1332.33 46.8298 1336.78 49.5068" stroke="#2D2D30" stroke-linecap="round" stroke-linejoin="round"/>
<path d="M1321.77 51.1346C1321.06 50.3464 1320.11 49.9136 1319.13 49.9271C1318.14 49.9405 1317.2 50.3991 1316.5 51.2067" stroke="#2D2D30" stroke-linecap="round" stroke-linejoin="round"/>
<path d="M1318.18 59.4001C1321.62 59.4001 1324.41 56.1318 1324.41 52.1001C1324.41 48.0684 1321.62 44.8 1318.18 44.8C1314.74 44.8 1311.95 48.0684 1311.95 52.1001C1311.95 56.1318 1314.74 59.4001 1318.18 59.4001Z" stroke="#2D2D30" stroke-miterlimit="10" stroke-linecap="round"/>
<path d="M1334.1 57.7856C1337.54 57.7856 1340.33 54.5172 1340.33 50.4856C1340.33 46.4539 1337.54 43.1855 1334.1 43.1855C1330.66 43.1855 1327.88 46.4539 1327.88 50.4856C1327.88 54.5172 1330.66 57.7856 1334.1 57.7856Z" stroke="#2D2D30" stroke-miterlimit="10" stroke-linecap="round"/>
<path d="M1340.27 50.0506L1347.5 49.928" stroke="#2D2D30" stroke-miterlimit="10" stroke-linecap="round"/>
<path d="M1324.6 51.0197C1325.06 50.6313 1325.61 50.4081 1326.17 50.377C1326.74 50.346 1327.3 50.5086 1327.79 50.8449" stroke="#2D2D30" stroke-miterlimit="10" stroke-linecap="round"/>
<path d="M1309.96 100.514C1309.96 100.514 1295.14 99.3399 1288.01 126.172C1283.13 144.427 1270.73 193.715 1270.73 193.715C1270.73 193.715 1272.74 205.195 1281.84 206.585C1290.94 207.975 1294.78 197.051 1294.78 197.051L1312.88 136.077" fill="#788AF1"/>
<path d="M1309.96 100.514C1309.96 100.514 1295.14 99.3399 1288.01 126.172C1283.13 144.427 1270.73 193.715 1270.73 193.715C1270.73 193.715 1272.74 205.195 1281.84 206.585C1290.94 207.975 1294.78 197.051 1294.78 197.051L1312.88 136.077" stroke="#2C438C" stroke-linecap="round" stroke-linejoin="round"/>
<path d="M1281.18 152.346C1277.04 168.511 1272.7 185.757 1271.21 191.626L1277.26 191.966L1281.18 152.346Z" fill="#2C438C"/>
<path d="M1291.17 205.205C1289.28 209.488 1285.9 216.953 1270.59 212.721C1255.27 208.489 1234.52 194.672 1234.52 194.672L1236.79 181.225C1236.79 181.225 1275.37 188.906 1278.62 189.328" fill="#788AF1"/>
<path d="M1291.17 205.205C1289.28 209.488 1285.9 216.953 1270.59 212.721C1255.27 208.489 1234.52 194.672 1234.52 194.672L1236.79 181.225C1236.79 181.225 1275.37 188.906 1278.62 189.328" stroke="#2C438C" stroke-linecap="round" stroke-linejoin="round"/>
<path d="M1216.66 184.645C1216.66 184.645 1201.92 175.965 1198.59 173.484C1195.27 171.002 1191.35 175.378 1197.37 180.083C1200.75 182.701 1204.33 184.952 1208.05 186.807" fill="white"/>
<path d="M1216.66 184.645C1216.66 184.645 1201.92 175.965 1198.59 173.484C1195.27 171.002 1191.35 175.378 1197.37 180.083C1200.75 182.701 1204.33 184.952 1208.05 186.807" stroke="#2D2D30" stroke-linecap="round" stroke-linejoin="round"/>
<path d="M1211.24 182.7C1211.24 182.7 1194.98 179.477 1191.18 178.241C1187.38 177.006 1184.72 182.545 1191.66 184.975C1195.54 186.315 1199.53 187.235 1203.55 187.724" fill="white"/>
<path d="M1211.24 182.7C1211.24 182.7 1194.98 179.477 1191.18 178.241C1187.38 177.006 1184.72 182.545 1191.66 184.975C1195.54 186.315 1199.53 187.235 1203.55 187.724" stroke="#2D2D30" stroke-linecap="round" stroke-linejoin="round"/>
<path d="M1237.94 181.38C1232.07 180.019 1226.12 179.162 1220.14 178.816C1220.14 178.816 1209.54 178.528 1204.33 181.38C1199.13 184.232 1193.01 195.136 1196.24 196.557C1199.48 197.977 1202.07 191.336 1204.02 189.349C1205.97 187.362 1212.43 186.405 1214.45 186.878C1216.47 187.352 1219.63 194.467 1225.45 194.467C1229.29 194.39 1233.11 193.698 1236.78 192.407" fill="white"/>
<path d="M1237.94 181.38C1232.07 180.019 1226.12 179.162 1220.14 178.816C1220.14 178.816 1209.54 178.528 1204.33 181.38C1199.13 184.232 1193.01 195.136 1196.24 196.557C1199.48 197.977 1202.07 191.336 1204.02 189.349C1205.97 187.362 1212.43 186.405 1214.45 186.878C1216.47 187.352 1219.63 194.467 1225.45 194.467C1229.29 194.39 1233.11 193.698 1236.78 192.407" stroke="#2D2D30" stroke-linecap="round" stroke-linejoin="round"/>
<path d="M1226.05 187.436C1226.05 187.436 1217.45 195.189 1213.1 191.616C1210.11 189.145 1219.25 182.349 1219.25 182.349" fill="white"/>
<path d="M1226.05 187.436C1226.05 187.436 1217.45 195.189 1213.1 191.616C1210.11 189.145 1219.25 182.349 1219.25 182.349" stroke="#2D2D30" stroke-linecap="round" stroke-linejoin="round"/>
<path d="M1309.96 100.515C1316.93 98.2497 1328.58 94.8314 1328.58 94.8314C1328.58 94.8314 1332.97 95.027 1334.15 99.0734C1334.93 102.62 1335.52 106.22 1335.91 109.854C1335.91 109.854 1341.72 101.545 1345.03 99.3412C1349.63 96.2745 1354.56 93.9308 1359.68 92.3706C1359.68 92.3706 1388.19 101.03 1391.37 103.521C1394.55 106.013 1350.54 219.869 1350.54 219.869H1312.66C1293.02 219.869 1286.32 217.809 1286.32 217.809C1286.32 217.809 1294.89 156.948 1298.42 141.216" fill="white"/>
<path d="M1309.96 100.515C1316.93 98.2497 1328.58 94.8314 1328.58 94.8314C1328.58 94.8314 1332.97 95.027 1334.15 99.0734C1334.93 102.62 1335.52 106.22 1335.91 109.854C1335.91 109.854 1341.72 101.545 1345.03 99.3412C1349.63 96.2745 1354.56 93.9308 1359.68 92.3706C1359.68 92.3706 1388.19 101.03 1391.37 103.521C1394.55 106.013 1350.54 219.869 1350.54 219.869H1312.66C1293.02 219.869 1286.32 217.809 1286.32 217.809C1286.32 217.809 1294.89 156.948 1298.42 141.216" stroke="#2D2D30" stroke-linecap="round" stroke-linejoin="round"/>
<path d="M1356.13 84.5955C1356.13 84.5955 1354.37 90.2893 1345.06 99.319C1351.21 99.4529 1352.47 110.357 1352.47 110.357L1360.05 92.4824C1359.16 89.5984 1357.83 86.9268 1356.13 84.5955Z" fill="white" stroke="#2D2D30" stroke-linecap="round" stroke-linejoin="round"/>
<path d="M1331.47 86.1926L1327.65 94.3472L1327.13 107.485C1327.13 107.485 1328.41 97.4155 1334.16 99.0732C1332.37 94.6046 1331.47 86.1926 1331.47 86.1926Z" fill="white" stroke="#2D2D30" stroke-linecap="round" stroke-linejoin="round"/>
<path d="M1305.6 101.348C1307.39 100.487 1309.24 99.8156 1311.14 99.3399C1320.4 96.4467 1324.31 95.3965 1324.31 95.3965L1330.14 88.0347C1330.14 88.0347 1303.79 215.975 1300.47 222.277C1297.15 228.578 1274.75 220.876 1274.75 220.876L1284.32 211.064L1287.31 199.151L1298.33 140.659" fill="#788AF1"/>
<path d="M1305.6 101.348C1307.39 100.487 1309.24 99.8156 1311.14 99.3399C1320.4 96.4467 1324.31 95.3965 1324.31 95.3965L1330.14 88.0347C1330.14 88.0347 1303.79 215.975 1300.47 222.277C1297.15 228.578 1274.75 220.876 1274.75 220.876L1284.32 211.064L1287.31 199.151L1298.33 140.659" stroke="#2C438C" stroke-linecap="round" stroke-linejoin="round"/>
<path d="M1326.46 92.7598L1315.55 116.595L1319.28 119.221L1314.65 123.432L1313.75 164.792" fill="#788AF1"/>
<path d="M1326.46 92.7598L1315.55 116.595L1319.28 119.221L1314.65 123.432L1313.75 164.792" stroke="#2C438C" stroke-linecap="round" stroke-linejoin="round"/>
<path d="M1358.15 87.334C1358.15 87.334 1343.8 139.556 1336.33 191.789C1328.85 244.022 1323.77 260.835 1333.93 265.747C1344.09 270.658 1358.9 263.811 1363.09 259.96C1367.28 256.109 1369.51 186.528 1369.51 186.528L1390.14 102.408L1364.13 92.2453L1358.15 87.334Z" fill="#788AF1" stroke="#2C438C" stroke-linecap="round" stroke-linejoin="round"/>
<path d="M1327.05 221.751C1327.05 221.751 1355.45 230.339 1366.07 244.403C1367.41 229.154 1367.56 220.917 1367.56 220.917L1327.05 221.751Z" fill="#2C438C"/>
<path d="M1361.79 90.7229L1360.83 124.834L1353.89 126.935L1359.27 133.514L1339.31 177.674" fill="#788AF1"/>
<path d="M1361.79 90.7229L1360.83 124.834L1353.89 126.935L1359.27 133.514L1339.31 177.674" stroke="#2C438C" stroke-linecap="round" stroke-linejoin="round"/>
<path d="M1366.61 177.592L1370.59 132.196C1370.59 132.196 1359.26 175.049 1340.2 180.742C1328.01 184.387 1327.03 191.265 1327.03 191.265C1327.03 191.265 1338.64 208.769 1341.6 219.827H1350.56C1350.56 219.827 1358.05 200.501 1366.61 177.592Z" fill="#2C438C"/>
<path d="M1338.4 112.77C1338.51 112.031 1338.14 111.335 1337.57 111.216C1337.01 111.097 1336.45 111.599 1336.34 112.338C1336.23 113.077 1336.6 113.773 1337.17 113.892C1337.73 114.011 1338.29 113.509 1338.4 112.77Z" fill="#2D2D30"/>
<path d="M1333.56 134.929C1333.68 134.19 1333.31 133.495 1332.74 133.375C1332.17 133.256 1331.62 133.759 1331.5 134.498C1331.39 135.236 1331.76 135.932 1332.33 136.051C1332.9 136.17 1333.45 135.668 1333.56 134.929Z" fill="#2D2D30"/>
<path d="M1328.72 157.079C1328.84 156.34 1328.47 155.645 1327.9 155.526C1327.33 155.407 1326.78 155.909 1326.67 156.648C1326.55 157.387 1326.92 158.082 1327.49 158.202C1328.06 158.321 1328.61 157.818 1328.72 157.079Z" fill="#2D2D30"/>
<path d="M1323.88 179.239C1323.99 178.5 1323.62 177.804 1323.05 177.685C1322.49 177.566 1321.93 178.068 1321.82 178.807C1321.71 179.546 1322.08 180.242 1322.65 180.361C1323.21 180.48 1323.77 179.978 1323.88 179.239Z" fill="#2D2D30"/>
<path d="M1319.05 201.389C1319.16 200.65 1318.79 199.955 1318.22 199.836C1317.65 199.716 1317.1 200.219 1316.99 200.958C1316.88 201.697 1317.25 202.392 1317.81 202.511C1318.38 202.63 1318.93 202.128 1319.05 201.389Z" fill="#2D2D30"/>
<path d="M1335.95 109.853L1311.29 219.209" stroke="#2D2D30" stroke-linecap="round" stroke-linejoin="round"/>
<path d="M1376.82 131.651L1359.02 202.201L1382.23 139.929L1376.82 131.651Z" fill="#2D2D30"/>
<path d="M1388.92 101.904C1388.92 101.904 1394.03 102.831 1396.49 111.078C1398.95 119.325 1398.11 135.48 1389.09 161.118C1371.16 212.115 1368.46 217.901 1361.28 218.951C1354.11 220.002 1350.38 207.214 1350.83 200.902C1351.27 194.591 1371.64 129.57 1371.64 129.57" fill="#788AF1"/>
<path d="M1388.92 101.904C1388.92 101.904 1394.03 102.831 1396.49 111.078C1398.95 119.325 1398.11 135.48 1389.09 161.118C1371.16 212.115 1368.46 217.901 1361.28 218.951C1354.11 220.002 1350.38 207.214 1350.83 200.902C1351.27 194.591 1371.64 129.57 1371.64 129.57" stroke="#2C438C" stroke-linecap="round" stroke-linejoin="round"/>
<path d="M1308.84 170.055C1308.84 170.055 1302.4 175.017 1296.93 172.011C1291.46 169.004 1290.66 167.985 1290.66 167.985L1287.31 169.941C1287.31 169.941 1287.4 175.944 1286.07 176.778C1284.75 177.612 1283.44 174.286 1283.44 174.286C1283.44 174.286 1282.37 175.316 1280.87 173.257C1280.02 172.137 1279.41 170.785 1279.12 169.323L1280.27 163.537C1280.27 163.537 1276.3 168.685 1274.44 167.46C1272.59 166.235 1280.3 154.61 1280.3 154.61L1288.86 149.544L1305.98 159.841C1305.98 159.841 1309.99 166.008 1308.84 170.055Z" fill="white" stroke="#2D2D30" stroke-linecap="round" stroke-linejoin="round"/>
<path d="M1297.55 172.309C1302.87 174.636 1308.84 170.044 1308.84 170.044C1309.99 166.008 1306.02 159.799 1306.02 159.799L1298.74 155.444C1299.99 156.404 1301.01 157.737 1301.68 159.306C1302.36 160.876 1302.66 162.627 1302.57 164.381C1302.4 168.747 1299.01 171.372 1297.55 172.309Z" fill="#2D2D30"/>
<path d="M1358.67 218.674C1358.67 218.674 1353.62 218.241 1335.37 201.52C1317.13 184.799 1302.48 173.206 1302.48 173.206C1302.48 173.206 1304.15 172.176 1305.06 165.998C1305.36 163.715 1305.4 161.395 1305.17 159.1C1305.17 159.1 1360.09 185.963 1364.43 189.134" fill="white"/>
<path d="M1358.67 218.674C1358.67 218.674 1353.62 218.241 1335.37 201.52C1317.13 184.799 1302.48 173.206 1302.48 173.206C1302.48 173.206 1304.15 172.176 1305.06 165.998C1305.36 163.715 1305.4 161.395 1305.17 159.1C1305.17 159.1 1360.09 185.963 1364.43 189.134" stroke="#2D2D30" stroke-linecap="round" stroke-linejoin="round"/>
<path d="M1310 162.754C1310 162.754 1313.13 170.909 1306.63 176.562L1310 162.754Z" fill="white"/>
<path d="M1310 162.754C1310 162.754 1313.13 170.909 1306.63 176.562" stroke="#2D2D30" stroke-linecap="round" stroke-linejoin="round"/>
<path d="M1367.42 188.898L1357.7 184.254L1308.97 159.893C1308.97 159.893 1313 166.071 1305.01 178.735C1333.63 202.036 1348.92 215.184 1355.38 217.027C1361.85 218.87 1364.28 216.852 1364.28 216.852" fill="#788AF1"/>
<path d="M1367.42 188.898L1357.7 184.254L1308.97 159.893C1308.97 159.893 1313 166.071 1305.01 178.735C1333.63 202.036 1348.92 215.184 1355.38 217.027C1361.85 218.87 1364.28 216.852 1364.28 216.852" stroke="#2C438C" stroke-linecap="round" stroke-linejoin="round"/>
<path d="M1171.36 213.865L1295.99 213.865C1297.36 213.865 1298.46 212.565 1298.46 210.962V210.951C1298.46 209.348 1297.36 208.048 1295.99 208.048L1171.36 208.048C1169.99 208.048 1168.88 209.348 1168.88 210.951V210.962C1168.88 212.565 1169.99 213.865 1171.36 213.865Z" fill="#2D2D30"/>
<path d="M1168.3 215.071L1297.23 215.071C1298.6 215.071 1299.71 213.771 1299.71 212.167V212.157C1299.71 210.553 1298.6 209.253 1297.23 209.253L1168.3 209.253C1166.93 209.253 1165.82 210.553 1165.82 212.157V212.167C1165.82 213.771 1166.93 215.071 1168.3 215.071Z" fill="white" stroke="#2D2D30" stroke-linejoin="round"/>
<path d="M1224.35 136.612H1149.7C1147.19 136.612 1144.38 139.948 1144.99 141.997L1166.7 205.226C1166.89 205.831 1167.24 206.354 1167.69 206.722C1168.14 207.09 1168.68 207.287 1169.23 207.285L1244.46 209.344C1246.35 209.344 1249.41 206.605 1248.43 202.981L1226.83 138.568C1226.63 137.986 1226.29 137.488 1225.85 137.139C1225.4 136.789 1224.88 136.606 1224.35 136.612Z" fill="#2D2D30"/>
<path d="M1222.34 138.754H1147.69C1147.26 138.755 1146.84 138.877 1146.46 139.108C1146.08 139.34 1145.75 139.675 1145.5 140.085C1145.25 140.495 1145.09 140.968 1145.03 141.466C1144.97 141.963 1145.02 142.47 1145.16 142.944L1164.69 207.368C1164.88 207.973 1165.22 208.495 1165.67 208.863C1166.12 209.232 1166.66 209.428 1167.21 209.427H1243.92C1244.36 209.425 1244.79 209.299 1245.18 209.059C1245.56 208.819 1245.89 208.473 1246.14 208.05C1246.38 207.627 1246.54 207.141 1246.58 206.633C1246.63 206.125 1246.58 205.61 1246.42 205.134L1224.81 140.71C1224.61 140.133 1224.27 139.64 1223.83 139.292C1223.39 138.943 1222.87 138.756 1222.34 138.754Z" fill="white" stroke="#2D2D30" stroke-linejoin="round"/>
<path d="M1200.36 177.38C1200.58 174.053 1197.84 171.085 1194.23 170.753C1190.62 170.42 1187.52 172.848 1187.3 176.175C1187.07 179.503 1189.81 182.47 1193.42 182.803C1197.03 183.136 1200.13 180.708 1200.36 177.38Z" fill="#8AC186"/>
<path d="M1061.1 219.096L1045.93 433.741H1050.62L1074.1 219.951L1061.1 219.096Z" fill="white" stroke="#2D2D30" stroke-linejoin="round"/>
<path d="M1059.3 246.875L1072 240.852L1074.1 219.951L1061.1 219.096L1059.3 246.875Z" fill="#2D2D30"/>
<path d="M1324.05 219.096L1308.89 433.741H1313.58L1337.06 219.951L1324.05 219.096Z" fill="white" stroke="#2D2D30" stroke-linejoin="round"/>
<path d="M1422.3 215.502H1310.51V222.915H1422.3V215.502Z" fill="white" stroke="#2D2D30" stroke-linejoin="round"/>
<path d="M1045.21 222.914L1310.51 222.914V215.501L1045.21 215.501V222.914Z" fill="white" stroke="#2D2D30" stroke-linejoin="round"/>
<path d="M1455 434.008L896 434.008" stroke="#2D2D30" stroke-linejoin="round"/>
<path d="M1409.51 24.415C1403.84 24.4171 1398.29 26.3922 1393.57 30.0908C1388.85 33.7893 1385.17 39.0451 1383 45.1937C1380.83 51.3422 1380.26 58.1074 1381.37 64.6338C1382.48 71.1602 1385.22 77.1547 1389.23 81.8595C1393.24 86.5642 1398.36 89.7678 1403.92 91.0653C1409.49 92.3628 1415.26 91.6958 1420.51 89.1488C1425.75 86.6018 1430.23 82.289 1433.39 76.7559C1436.54 71.2227 1438.22 64.7176 1438.22 58.0631C1438.22 53.6435 1437.48 49.2672 1436.04 45.1841C1434.59 41.1011 1432.48 37.3913 1429.81 34.2667C1427.15 31.1421 1423.98 28.6638 1420.5 26.9734C1417.02 25.283 1413.28 24.4137 1409.51 24.415ZM1409.51 78.0686C1406.14 78.0686 1402.84 76.8953 1400.03 74.6971C1397.23 72.4988 1395.04 69.3744 1393.75 65.7188C1392.46 62.0633 1392.12 58.0409 1392.78 54.1602C1393.43 50.2795 1395.06 46.7148 1397.45 43.917C1399.83 41.1192 1402.87 39.2139 1406.18 38.4419C1409.49 37.67 1412.92 38.0662 1416.04 39.5804C1419.16 41.0945 1421.83 43.6587 1423.7 46.9486C1425.58 50.2385 1426.58 54.1064 1426.58 58.0631C1426.58 63.3689 1424.78 68.4574 1421.58 72.2091C1418.38 75.9609 1414.04 78.0686 1409.51 78.0686Z" fill="white" stroke="#2D2D30" stroke-linecap="round" stroke-linejoin="round"/>
<g style="mix-blend-mode:multiply">
<path d="M1438.22 58.0631C1438.22 49.1381 1435.19 40.5797 1429.81 34.2697C1424.43 27.9598 1417.12 24.415 1409.51 24.415V38.0678C1411.75 38.0665 1413.97 38.5827 1416.04 39.5869C1418.11 40.5912 1419.99 42.0638 1421.58 43.9207C1423.16 45.7775 1424.42 47.9823 1425.28 50.4089C1426.13 52.8355 1426.58 55.4364 1426.58 58.0631H1438.22Z" fill="#8E96EB"/>
</g>
<path opacity="0.1" d="M1166.46 103.026H1277.11V31.447C1277.11 31.447 1261.17 39.2104 1239.45 75.9164C1224.51 101.183 1166.46 103.026 1166.46 103.026Z" fill="#7B46B5"/>
<path d="M1277.12 31.447C1277.12 31.447 1261.17 39.2104 1239.46 75.9164C1224.53 101.183 1166.46 103.026 1166.46 103.026" stroke="#FF6679" stroke-width="0.75" stroke-miterlimit="10"/>
<g style="mix-blend-mode:multiply" opacity="0.1">
<path d="M1166.46 103.026H1277.11V65.5581C1277.11 65.5581 1265.7 88.0965 1241.53 91.1442C1217.36 94.1919 1193.47 66.4745 1166.46 103.026Z" fill="#7B46B5"/>
</g>
<path d="M1277.12 65.5581C1277.12 65.5581 1265.71 88.0965 1241.54 91.1442C1217.37 94.1919 1193.47 66.4333 1166.46 103.026" stroke="#8E96EB" stroke-width="0.75" stroke-miterlimit="10"/>
<path d="M1175.69 74.5891H1171.7V78.5017H1175.69V74.5891Z" fill="#FF6679"/>
<path d="M1181.33 66.8564H1177.35V75.0008H1181.33V66.8564Z" fill="white" stroke="#2D2D30" stroke-linecap="round" stroke-linejoin="round"/>
<path d="M1186.98 62.5115H1183V70.8823H1186.98V62.5115Z" fill="white" stroke="#2D2D30" stroke-linecap="round" stroke-linejoin="round"/>
<path d="M1192.64 66.9067H1188.65V70.8193H1192.64V66.9067Z" fill="#FF6679"/>
<path d="M1198.28 59.3916H1194.3V67.2373H1198.28V59.3916Z" fill="#FF6679"/>
<path d="M1203.93 55.1292H1199.95V62.8925H1203.93V55.1292Z" fill="white" stroke="#2D2D30" stroke-linecap="round" stroke-linejoin="round"/>
<path d="M1209.58 43.4009H1205.6V58.629H1209.58V43.4009Z" fill="white" stroke="#2D2D30" stroke-linecap="round" stroke-linejoin="round"/>
<path d="M1215.23 47.0566H1211.25V52.6887H1215.23V47.0566Z" fill="white" stroke="#2D2D30" stroke-linecap="round" stroke-linejoin="round"/>
<path d="M1220.89 39.7463H1216.9V63.8807H1220.89V39.7463Z" fill="#FF6679"/>
<path d="M1226.54 59.5142H1222.55V63.4267H1226.54V59.5142Z" fill="white" stroke="#2D2D30" stroke-linecap="round" stroke-linejoin="round"/>
<path d="M1232.18 28.626H1228.2V61.9754H1232.18V28.626Z" fill="white" stroke="#2D2D30" stroke-linecap="round" stroke-linejoin="round"/>
<path d="M1237.84 17.1357H1233.85V30.7885H1237.84V17.1357Z" fill="white" stroke="#2D2D30" stroke-linecap="round" stroke-linejoin="round"/>
<path d="M1243.49 21.0891H1239.5V30.6852H1243.49V21.0891Z" fill="#FF6679"/>
<path d="M1249.14 17.897H1245.15V30.3863H1249.14V17.897Z" fill="white" stroke="#2D2D30" stroke-linecap="round" stroke-linejoin="round"/>
<path d="M1254.79 3.12329H1250.8V18.8044H1254.79V3.12329Z" fill="white" stroke="#2D2D30" stroke-linecap="round" stroke-linejoin="round"/>
<path d="M1260.44 0.229004H1256.45V14.6746H1260.44V0.229004Z" fill="#FF6679"/>
<path d="M1266.09 7.08691H1262.11V14.3972H1266.09V7.08691Z" fill="white" stroke="#2D2D30" stroke-linecap="round" stroke-linejoin="round"/>
<path d="M1271.74 10.1748H1267.75V14.0874H1271.74V10.1748Z" fill="#FF6679"/>
<path d="M1080.19 124.618H1117.85V199.234H1066.58V140.783L1080.19 124.618Z" fill="white" stroke="#2D2D30" stroke-linecap="round" stroke-linejoin="round"/>
<g style="mix-blend-mode:multiply">
<path d="M1067.02 140.989L1080.37 125.133V140.999L1067.02 140.989Z" fill="#8E96EB"/>
</g>
<path d="M1110.1 147.238H1080.14" stroke="#2D2D30" stroke-linecap="round" stroke-linejoin="round"/>
<path d="M1110.1 151.47H1074.16" stroke="#2D2D30" stroke-linecap="round" stroke-linejoin="round"/>
<path d="M1110.1 186.581H1080.14" stroke="#2D2D30" stroke-linecap="round" stroke-linejoin="round"/>
<path d="M1110.1 190.811H1074.16" stroke="#2D2D30" stroke-linecap="round" stroke-linejoin="round"/>
<path d="M1110.1 155.712H1074.16" stroke="#2D2D30" stroke-linecap="round" stroke-linejoin="round"/>
<path d="M1110.1 159.942H1074.16" stroke="#2D2D30" stroke-linecap="round" stroke-linejoin="round"/>
<path d="M1093.71 166.893H1074.16" stroke="#2D2D30" stroke-linecap="round" stroke-linejoin="round"/>
<path d="M1093.71 171.083H1074.16" stroke="#2D2D30" stroke-linecap="round" stroke-linejoin="round"/>
<path d="M1093.71 175.265H1074.16" stroke="#2D2D30" stroke-linecap="round" stroke-linejoin="round"/>
<path d="M1093.71 179.455H1074.16" stroke="#2D2D30" stroke-linecap="round" stroke-linejoin="round"/>
<g style="mix-blend-mode:multiply">
<path d="M1110.1 165.606H1097.15V180.793H1110.1V165.606Z" fill="#8E96EB"/>
</g>
<g opacity="0.8">
<path opacity="0.8" d="M1116.27 82.4154C1116.37 82.7393 1116.36 83.0934 1116.24 83.4078C1116.12 83.7223 1115.91 83.9742 1115.64 84.1139C1115.38 84.2536 1115.08 84.2708 1114.8 84.1622C1114.52 84.0536 1114.29 83.8271 1114.15 83.5274C1113.74 83.8575 1113.37 84.241 1113.03 84.6703C1113.24 84.8469 1113.39 85.0986 1113.46 85.3866C1113.54 85.6746 1113.53 85.9829 1113.44 86.2639C1113.35 86.5449 1113.18 86.7831 1112.96 86.9417C1112.74 87.1003 1112.49 87.1704 1112.23 87.1414C1112.08 87.1229 1111.93 87.0705 1111.79 86.9869C1111.59 87.5888 1111.46 88.2188 1111.4 88.8608H1111.52C1111.67 88.8775 1111.82 88.9298 1111.96 89.0148C1112.1 89.0997 1112.22 89.2155 1112.31 89.3555C1112.41 89.4954 1112.48 89.6567 1112.53 89.8299C1112.57 90.003 1112.58 90.1846 1112.57 90.3641C1112.54 90.6729 1112.42 90.9619 1112.24 91.1842C1112.05 91.4066 1111.81 91.5493 1111.55 91.5893C1111.7 92.2841 1111.93 92.95 1112.24 93.5662C1112.47 93.3705 1112.76 93.2791 1113.04 93.3088C1113.26 93.3347 1113.47 93.4323 1113.64 93.5903C1113.81 93.7484 1113.95 93.9605 1114.02 94.2023C1114.1 94.4442 1114.11 94.706 1114.07 94.9577C1114.02 95.2094 1113.91 95.4408 1113.76 95.6254C1114.31 96.1534 1114.94 96.5645 1115.61 96.8404C1115.69 96.5144 1115.87 96.2331 1116.11 96.0508C1116.35 95.8685 1116.65 95.798 1116.93 95.853C1117.21 95.908 1117.47 96.0845 1117.65 96.3485C1117.83 96.6126 1117.92 96.9455 1117.91 97.2831C1118.42 97.2746 1118.92 97.1916 1119.42 97.036C1119.31 96.7133 1119.31 96.3557 1119.42 96.035C1119.53 95.7143 1119.74 95.4542 1120.01 95.307C1120.28 95.1597 1120.58 95.1362 1120.86 95.2411C1121.14 95.346 1121.38 95.5716 1121.52 95.8726C1121.95 95.5195 1122.33 95.1081 1122.67 94.6473C1122.48 94.5125 1122.34 94.3206 1122.24 94.0932C1122.15 93.8658 1122.11 93.612 1122.13 93.3603C1122.16 92.9974 1122.32 92.6647 1122.56 92.435C1122.8 92.2054 1123.11 92.0975 1123.42 92.135C1123.57 92.1536 1123.71 92.2061 1123.83 92.2895C1124 91.7572 1124.11 91.2042 1124.16 90.6421H1124.07C1123.79 90.6094 1123.52 90.4559 1123.33 90.2105C1123.13 89.9651 1123.02 89.6449 1123.02 89.3104C1123.01 88.9758 1123.11 88.65 1123.29 88.3946C1123.48 88.1391 1123.74 87.9717 1124.02 87.9239C1123.86 87.1783 1123.61 86.4661 1123.26 85.8131C1123.03 86.0133 1122.75 86.1051 1122.46 86.0706C1122.16 86.0316 1121.87 85.8519 1121.68 85.5705C1121.48 85.2891 1121.39 84.9287 1121.42 84.5673C1121.45 84.2763 1121.55 84.0026 1121.72 83.7848C1121.2 83.3225 1120.63 82.9513 1120.02 82.6831C1119.95 83.0145 1119.77 83.3007 1119.52 83.4851C1119.28 83.6696 1118.98 83.7389 1118.69 83.6794C1118.4 83.6199 1118.14 83.4359 1117.97 83.1637C1117.79 82.8915 1117.7 82.551 1117.73 82.2095C1117.24 82.2152 1116.75 82.2843 1116.27 82.4154ZM1118.18 85.1954C1118.94 85.2868 1119.67 85.6421 1120.26 86.2164C1120.86 86.7907 1121.29 87.5584 1121.52 88.4226C1121.74 89.2868 1121.74 90.2089 1121.51 91.0727C1121.29 91.9364 1120.85 92.7031 1120.26 93.276C1119.66 93.849 1118.94 94.2026 1118.17 94.2923C1117.4 94.382 1116.63 94.2037 1115.95 93.7799C1115.27 93.3562 1114.72 92.7059 1114.35 91.9111C1113.99 91.1163 1113.83 90.2126 1113.9 89.3139C1113.95 88.7134 1114.1 88.13 1114.34 87.5975C1114.58 87.0649 1114.91 86.5936 1115.31 86.2107C1115.71 85.8279 1116.16 85.5411 1116.66 85.3668C1117.15 85.1926 1117.67 85.1343 1118.18 85.1954Z" fill="white" stroke="#2D2D30" stroke-linecap="round" stroke-linejoin="round"/>
<path opacity="0.8" d="M1122.15 90.4634C1122.5 87.5933 1120.81 84.9292 1118.36 84.513C1115.91 84.0969 1113.64 86.0863 1113.28 88.9564C1112.93 91.8264 1114.63 94.4904 1117.07 94.9066C1119.52 95.3227 1121.79 93.3334 1122.15 90.4634Z" stroke="white" stroke-width="0.16" stroke-miterlimit="10"/>
<path opacity="0.8" d="M1125.35 71.6863C1125.43 71.8946 1125.47 72.1184 1125.47 72.3453C1125.47 72.6787 1125.38 73.0027 1125.21 73.2706C1125.04 73.5385 1124.8 73.7366 1124.53 73.8362C1124.26 73.9358 1123.97 73.9318 1123.7 73.8248C1123.43 73.7179 1123.2 73.5135 1123.03 73.2411C1122.37 73.9147 1121.83 74.7377 1121.45 75.6607C1121.71 75.7732 1121.93 75.9741 1122.09 76.237C1122.24 76.4998 1122.33 76.8123 1122.33 77.133C1122.33 77.3403 1122.3 77.5457 1122.23 77.7375C1122.16 77.9292 1122.06 78.1035 1121.94 78.25C1121.81 78.3966 1121.67 78.5125 1121.5 78.5912C1121.34 78.6699 1121.16 78.7097 1120.99 78.7084H1120.79C1120.79 78.8319 1120.79 78.9555 1120.79 79.079C1120.79 79.8971 1120.9 80.7101 1121.12 81.4883C1121.29 81.3969 1121.47 81.3512 1121.66 81.3545C1122.02 81.3545 1122.36 81.5194 1122.61 81.8129C1122.86 82.1064 1123 82.5044 1123 82.9195C1123 83.1683 1122.95 83.4135 1122.85 83.6353C1122.75 83.8571 1122.62 84.0492 1122.44 84.1962C1122.99 84.9255 1123.66 85.5294 1124.39 85.9775C1124.48 85.6771 1124.65 85.4168 1124.87 85.2325C1125.1 85.0482 1125.36 84.9487 1125.63 84.9479C1125.81 84.9465 1125.98 84.986 1126.15 85.064C1126.31 85.1421 1126.46 85.2571 1126.58 85.4026C1126.71 85.548 1126.81 85.721 1126.87 85.9116C1126.94 86.1021 1126.98 86.3065 1126.98 86.5129C1126.98 86.5952 1126.98 86.6777 1126.98 86.76H1127.41C1128.08 86.7591 1128.74 86.6446 1129.37 86.4202C1129.31 86.2265 1129.28 86.0205 1129.28 85.8127C1129.28 85.3977 1129.42 84.9996 1129.67 84.7061C1129.92 84.4126 1130.26 84.2477 1130.61 84.2477C1130.83 84.245 1131.04 84.3036 1131.23 84.4185C1131.42 84.5334 1131.58 84.701 1131.7 84.9067C1132.35 84.2592 1132.89 83.4687 1133.28 82.5797C1132.99 82.4446 1132.75 82.1969 1132.6 81.8787C1132.45 81.5604 1132.4 81.1913 1132.46 80.8337C1132.52 80.4762 1132.67 80.1523 1132.91 79.9169C1133.15 79.6816 1133.45 79.5492 1133.76 79.5423C1133.84 79.5322 1133.93 79.5322 1134.01 79.5423C1134.01 79.357 1134.01 79.1717 1134.01 78.9863C1134.01 78.1903 1133.9 77.399 1133.7 76.6388C1133.53 76.7212 1133.35 76.7632 1133.17 76.7624C1132.88 76.7658 1132.6 76.6616 1132.37 76.4652C1132.14 76.2688 1131.97 75.9905 1131.88 75.6713C1131.8 75.352 1131.8 75.0087 1131.89 74.6917C1131.98 74.3748 1132.16 74.1009 1132.39 73.9103C1131.84 73.1614 1131.16 72.5431 1130.41 72.0879C1130.3 72.4321 1130.09 72.719 1129.81 72.8981C1129.54 73.0772 1129.22 73.1369 1128.91 73.0667C1128.6 72.9966 1128.32 72.8012 1128.12 72.5148C1127.93 72.2284 1127.82 71.8694 1127.83 71.501C1127.82 71.4189 1127.82 71.336 1127.83 71.2539H1127.38C1126.69 71.2709 1126 71.4169 1125.35 71.6863ZM1130.62 79.0584C1130.62 79.7997 1130.43 80.5243 1130.08 81.1406C1129.73 81.7569 1129.23 82.2373 1128.65 82.5209C1128.06 82.8046 1127.42 82.8788 1126.8 82.7342C1126.18 82.5896 1125.61 82.2327 1125.16 81.7085C1124.72 81.1844 1124.41 80.5166 1124.29 79.7896C1124.16 79.0626 1124.23 78.309 1124.47 77.6242C1124.71 76.9394 1125.12 76.354 1125.65 75.9422C1126.17 75.5304 1126.79 75.3106 1127.42 75.3106C1128.27 75.3215 1129.07 75.7211 1129.66 76.4228C1130.25 77.1245 1130.59 78.0715 1130.59 79.0584H1130.62Z" fill="#8E96EB"/>
</g>
<defs>
<clipPath id="clip0_1_639">
<rect width="536" height="344.679" fill="white" transform="translate(1 99.8811)"/>
</clipPath>
</defs>
</svg>
