<svg width="634" height="577" viewBox="0 0 634 577" fill="none" xmlns="http://www.w3.org/2000/svg">
<path d="M368.166 48.7637H165.828V247.42H368.166V48.7637Z" fill="#ECC916"/>
<path d="M360.803 41H158.465V239.656H360.803V41Z" fill="white" stroke="#2D2D30" stroke-miterlimit="10" stroke-linecap="round" stroke-linejoin="round"/>
<path d="M188.793 63.418H185.895L185.879 61.9883H188.41C188.837 61.9883 189.199 61.9258 189.496 61.8008C189.798 61.6706 190.027 61.4857 190.184 61.2461C190.34 61.0013 190.418 60.707 190.418 60.3633C190.418 59.9831 190.345 59.6732 190.199 59.4336C190.053 59.194 189.829 59.0195 189.527 58.9102C189.23 58.8008 188.85 58.7461 188.387 58.7461H186.488V68.5586H184.527V57.1836H188.387C189.012 57.1836 189.569 57.2435 190.059 57.3633C190.553 57.4831 190.973 57.6706 191.316 57.9258C191.665 58.1758 191.928 58.4935 192.105 58.8789C192.288 59.2643 192.379 59.7227 192.379 60.2539C192.379 60.7227 192.267 61.1523 192.043 61.543C191.819 61.9284 191.488 62.2435 191.051 62.4883C190.613 62.7331 190.069 62.8789 189.418 62.9258L188.793 63.418ZM188.707 68.5586H185.277L186.16 67.0039H188.707C189.15 67.0039 189.52 66.931 189.816 66.7852C190.113 66.6341 190.335 66.4284 190.48 66.168C190.632 65.9023 190.707 65.5924 190.707 65.2383C190.707 64.8685 190.642 64.5482 190.512 64.2773C190.382 64.0013 190.176 63.7904 189.895 63.6445C189.613 63.4935 189.246 63.418 188.793 63.418H186.59L186.605 61.9883H189.473L189.918 62.5273C190.543 62.5482 191.056 62.6862 191.457 62.9414C191.863 63.1966 192.165 63.5273 192.363 63.9336C192.561 64.3398 192.66 64.7773 192.66 65.2461C192.66 65.9701 192.501 66.5768 192.184 67.0664C191.871 67.556 191.421 67.9284 190.832 68.1836C190.243 68.4336 189.535 68.5586 188.707 68.5586ZM202.082 67.0039V68.5586H196.043V67.0039H202.082ZM196.598 57.1836V68.5586H194.637V57.1836H196.598ZM201.293 61.9336V63.4648H196.043V61.9336H201.293ZM202.043 57.1836V58.7461H196.043V57.1836H202.043ZM212.707 57.1836V68.5586H210.746L205.645 60.4102V68.5586H203.684V57.1836H205.645L210.762 65.3477V57.1836H212.707ZM222.488 67.0039V68.5586H216.449V67.0039H222.488ZM217.004 57.1836V68.5586H215.043V57.1836H217.004ZM221.699 61.9336V63.4648H216.449V61.9336H221.699ZM222.449 57.1836V58.7461H216.449V57.1836H222.449ZM226.051 57.1836V68.5586H224.09V57.1836H226.051ZM230.691 62.1602V63.7148H225.551V62.1602H230.691ZM231.34 57.1836V58.7461H225.551V57.1836H231.34ZM234.996 57.1836V68.5586H233.035V57.1836H234.996ZM241.879 57.1836V68.5586H239.934V57.1836H241.879ZM245.449 57.1836V58.7461H236.395V57.1836H245.449ZM252.809 65.6289C252.809 65.3945 252.772 65.1862 252.699 65.0039C252.632 64.8216 252.509 64.6549 252.332 64.5039C252.155 64.3529 251.905 64.207 251.582 64.0664C251.264 63.9206 250.858 63.7721 250.363 63.6211C249.822 63.4544 249.322 63.2695 248.863 63.0664C248.41 62.8581 248.014 62.6185 247.676 62.3477C247.337 62.0716 247.074 61.7565 246.887 61.4023C246.699 61.043 246.605 60.6289 246.605 60.1602C246.605 59.6966 246.702 59.2747 246.895 58.8945C247.092 58.5143 247.371 58.1862 247.73 57.9102C248.095 57.6289 248.525 57.4128 249.02 57.2617C249.514 57.1055 250.061 57.0273 250.66 57.0273C251.504 57.0273 252.23 57.1836 252.84 57.4961C253.454 57.8086 253.926 58.2279 254.254 58.7539C254.587 59.2799 254.754 59.8607 254.754 60.4961H252.809C252.809 60.1211 252.728 59.7904 252.566 59.5039C252.41 59.2122 252.171 58.9831 251.848 58.8164C251.53 58.6497 251.126 58.5664 250.637 58.5664C250.173 58.5664 249.788 58.6367 249.48 58.7773C249.173 58.918 248.944 59.1081 248.793 59.3477C248.642 59.5872 248.566 59.8581 248.566 60.1602C248.566 60.3737 248.616 60.569 248.715 60.7461C248.814 60.918 248.965 61.0794 249.168 61.2305C249.371 61.3763 249.626 61.5143 249.934 61.6445C250.241 61.7747 250.603 61.8997 251.02 62.0195C251.65 62.207 252.199 62.4154 252.668 62.6445C253.137 62.8685 253.527 63.1237 253.84 63.4102C254.152 63.6966 254.387 64.0221 254.543 64.3867C254.699 64.7461 254.777 65.1549 254.777 65.6133C254.777 66.0924 254.681 66.5247 254.488 66.9102C254.296 67.2904 254.02 67.6159 253.66 67.8867C253.306 68.1523 252.879 68.3581 252.379 68.5039C251.884 68.6445 251.332 68.7148 250.723 68.7148C250.176 68.7148 249.637 68.6419 249.105 68.4961C248.579 68.3503 248.1 68.1289 247.668 67.832C247.236 67.5299 246.892 67.1549 246.637 66.707C246.382 66.2539 246.254 65.7253 246.254 65.1211H248.215C248.215 65.4909 248.277 65.806 248.402 66.0664C248.533 66.3268 248.712 66.5404 248.941 66.707C249.171 66.8685 249.436 66.9883 249.738 67.0664C250.046 67.1445 250.374 67.1836 250.723 67.1836C251.181 67.1836 251.564 67.1185 251.871 66.9883C252.184 66.8581 252.418 66.6758 252.574 66.4414C252.73 66.207 252.809 65.9362 252.809 65.6289Z" fill="#2D2D30"/>
<path d="M206.648 94.7051H285.086" stroke="#2D2D30" stroke-width="2" stroke-linecap="round" stroke-linejoin="round"/>
<path d="M192.242 98.147C194.143 98.147 195.684 96.6061 195.684 94.7054C195.684 92.8046 194.143 91.2637 192.242 91.2637C190.342 91.2637 188.801 92.8046 188.801 94.7054C188.801 96.6061 190.342 98.147 192.242 98.147Z" fill="#ECC916"/>
<path d="M191.199 98.147C193.1 98.147 194.641 96.6061 194.641 94.7054C194.641 92.8046 193.1 91.2637 191.199 91.2637C189.299 91.2637 187.758 92.8046 187.758 94.7054C187.758 96.6061 189.299 98.147 191.199 98.147Z" fill="#2D2D30"/>
<path d="M192.242 124.641C194.143 124.641 195.684 123.1 195.684 121.199C195.684 119.299 194.143 117.758 192.242 117.758C190.342 117.758 188.801 119.299 188.801 121.199C188.801 123.1 190.342 124.641 192.242 124.641Z" fill="#ECC916"/>
<path d="M191.199 124.641C193.1 124.641 194.641 123.1 194.641 121.199C194.641 119.299 193.1 117.758 191.199 117.758C189.299 117.758 187.758 119.299 187.758 121.199C187.758 123.1 189.299 124.641 191.199 124.641Z" fill="#2D2D30"/>
<path d="M192.242 151.213C194.143 151.213 195.684 149.673 195.684 147.772C195.684 145.871 194.143 144.33 192.242 144.33C190.342 144.33 188.801 145.871 188.801 147.772C188.801 149.673 190.342 151.213 192.242 151.213Z" fill="#ECC916"/>
<path d="M191.199 151.213C193.1 151.213 194.641 149.673 194.641 147.772C194.641 145.871 193.1 144.33 191.199 144.33C189.299 144.33 187.758 145.871 187.758 147.772C187.758 149.673 189.299 151.213 191.199 151.213Z" fill="#2D2D30"/>
<path d="M192.242 177.786C194.143 177.786 195.684 176.245 195.684 174.344C195.684 172.443 194.143 170.902 192.242 170.902C190.342 170.902 188.801 172.443 188.801 174.344C188.801 176.245 190.342 177.786 192.242 177.786Z" fill="#ECC916"/>
<path d="M191.199 177.786C193.1 177.786 194.641 176.245 194.641 174.344C194.641 172.443 193.1 170.902 191.199 170.902C189.299 170.902 187.758 172.443 187.758 174.344C187.758 176.245 189.299 177.786 191.199 177.786Z" fill="#2D2D30"/>
<path d="M192.242 204.358C194.143 204.358 195.684 202.817 195.684 200.916C195.684 199.015 194.143 197.475 192.242 197.475C190.342 197.475 188.801 199.015 188.801 200.916C188.801 202.817 190.342 204.358 192.242 204.358Z" fill="#ECC916"/>
<path d="M191.199 204.358C193.1 204.358 194.641 202.817 194.641 200.916C194.641 199.015 193.1 197.475 191.199 197.475C189.299 197.475 187.758 199.015 187.758 200.916C187.758 202.817 189.299 204.358 191.199 204.358Z" fill="#2D2D30"/>
<path d="M206.648 121.197H331.749" stroke="#2D2D30" stroke-width="2" stroke-linecap="round" stroke-linejoin="round"/>
<path d="M206.648 147.771H314.781" stroke="#2D2D30" stroke-width="2" stroke-linecap="round" stroke-linejoin="round"/>
<path d="M206.648 174.344H303.335" stroke="#2D2D30" stroke-width="2" stroke-linecap="round" stroke-linejoin="round"/>
<path d="M206.648 200.918H331.749" stroke="#2D2D30" stroke-width="2" stroke-linecap="round" stroke-linejoin="round"/>
<path d="M601 535H-59" stroke="#2D2D30" stroke-miterlimit="10" stroke-linejoin="round"/>
<path d="M477.977 516.752L477.256 500.984H462.289L462.609 515.711C462.609 515.711 462.929 523.635 469.973 523.235C475.095 522.915 477.977 516.752 477.977 516.752Z" fill="white" stroke="#2D2D30" stroke-miterlimit="10" stroke-linecap="round" stroke-linejoin="round"/>
<path d="M478.297 516.511C478.297 516.511 481.739 529.638 478.937 534.76C464.53 534.92 433.395 534.76 433.395 534.76C433.395 534.76 430.194 524.675 449.163 523.075C456.767 519.633 462.289 515.711 462.289 515.711C462.289 515.711 467.412 522.594 478.297 516.511Z" fill="#2D2D30"/>
<path d="M433.477 530.997C437.158 530.677 440.92 530.357 444.602 530.116C448.284 529.876 452.046 529.716 455.727 529.476C459.409 529.316 463.171 529.156 466.853 528.996L472.455 528.836C474.296 528.836 476.137 528.756 478.058 528.756C476.217 528.916 474.376 529.076 472.535 529.236L467.013 529.636C463.331 529.876 459.569 530.036 455.887 530.277C452.206 530.437 448.444 530.597 444.762 530.757C440.92 530.917 437.238 530.997 433.477 530.997Z" fill="white"/>
<path d="M537.447 516.671L535.046 503.224L521.52 502.824L524.081 516.111C524.081 516.111 523.2 522.114 528.803 521.954C534.486 521.873 537.447 516.671 537.447 516.671Z" fill="white" stroke="#2D2D30" stroke-miterlimit="10" stroke-linecap="round" stroke-linejoin="round"/>
<path d="M537.766 516.191C537.766 516.191 543.369 526.917 540.807 534.44C536.645 534.44 509.112 534.44 509.112 534.44C509.112 534.44 507.351 523.955 519.197 521.394L523.679 516.031C523.679 516.111 527.921 521.714 537.766 516.191Z" fill="#2D2D30"/>
<path d="M519.195 521.474C520.476 521.313 521.837 521.313 523.117 521.474C524.398 521.634 525.759 521.874 526.959 522.354C528.16 522.834 529.36 523.475 530.401 524.355C531.361 525.235 532.162 526.436 532.562 527.637C531.841 526.516 530.961 525.556 530.001 524.835C528.96 524.115 527.84 523.555 526.639 523.074C525.438 522.594 524.238 522.274 522.957 522.034C521.837 521.794 520.556 521.554 519.195 521.474Z" fill="white"/>
<path d="M509.273 532.038C511.995 531.878 514.716 531.798 517.517 531.718C520.239 531.638 522.96 531.638 525.761 531.558H529.843H531.924C532.565 531.558 533.205 531.477 533.925 531.317C535.286 531.077 536.567 530.677 537.927 530.357C539.288 530.037 540.569 529.637 541.929 529.316C539.368 530.357 536.807 531.237 534.165 531.958C533.525 532.118 532.805 532.278 532.084 532.278L530.003 532.358L525.921 532.438C523.2 532.438 520.479 532.438 517.678 532.358C514.716 532.198 511.995 532.198 509.273 532.038Z" fill="white"/>
<path d="M499.428 279.516L481.659 287.76C481.659 287.76 485.101 287.76 476.857 403.736C483.18 443.675 478.778 503.865 478.778 503.865H458.528C458.528 503.865 454.686 460.804 449.004 402.455C440.119 313.692 443.401 262.548 443.401 262.548L465.252 252.223L497.347 257.265" fill="#2D2D30"/>
<path d="M499.428 279.516L481.659 287.76C481.659 287.76 485.101 287.76 476.857 403.736C483.18 443.675 478.778 503.865 478.778 503.865H458.528C458.528 503.865 454.686 460.804 449.004 402.455C440.119 313.692 443.401 262.548 443.401 262.548L465.252 252.223L497.347 257.265" stroke="#2D2D30" stroke-width="1.05" stroke-miterlimit="10" stroke-linecap="round" stroke-linejoin="round"/>
<path d="M476.94 403.735C485.184 287.759 481.742 287.759 481.742 287.759L460.532 285.518C460.452 285.518 474.218 389.168 476.94 403.735Z" fill="#121212"/>
<path d="M501.591 262.148C501.591 262.148 503.672 268.712 504.952 275.355C505.673 278.957 506.473 283.439 507.354 288.641C511.756 313.853 517.759 355.874 519.359 400.536C532.486 426.708 536.088 504.906 536.088 504.906H516.638C516.638 504.906 496.788 418.624 492.787 404.057C481.661 365.158 465.653 291.923 465.653 291.923L459.891 285.04" fill="#2D2D30"/>
<path d="M501.591 262.148C501.591 262.148 503.672 268.712 504.952 275.355C505.673 278.957 506.473 283.439 507.354 288.641C511.756 313.853 517.759 355.874 519.359 400.536C532.486 426.708 536.088 504.906 536.088 504.906H516.638C516.638 504.906 496.788 418.624 492.787 404.057C481.661 365.158 465.653 291.923 465.653 291.923L459.891 285.04" stroke="#2D2D30" stroke-width="1.05" stroke-miterlimit="10" stroke-linecap="round" stroke-linejoin="round"/>
<path d="M484.383 126.402C484.223 127.203 485.424 146.252 486.865 149.293C488.305 152.335 500.231 154.816 500.231 154.816C500.231 154.816 488.305 186.431 464.694 185.071C441.002 183.79 448.046 153.775 448.046 153.775L464.774 148.893L467.175 130.244C467.175 130.244 469.416 114.316 475.019 111.515C483.183 107.433 484.383 126.402 484.383 126.402Z" fill="white" stroke="#2D2D30" stroke-miterlimit="10" stroke-linecap="round" stroke-linejoin="round"/>
<path d="M456.453 112.395C456.453 112.395 450.69 100.549 457.974 97.0275C465.257 93.5058 456.453 112.395 456.453 112.395Z" fill="#2D2D30"/>
<path d="M457.174 103.271C457.174 103.271 453.332 128.163 454.772 135.847C455.973 142.01 462.936 142.57 470.86 139.369C478.784 136.167 481.265 125.122 481.265 125.122C481.265 125.122 490.23 118.078 490.79 110.955C491.35 103.831 485.267 97.1082 473.902 96.9482C462.456 96.8681 458.534 98.4689 457.174 103.271Z" fill="white" stroke="#2D2D30" stroke-miterlimit="10" stroke-linecap="round" stroke-linejoin="round"/>
<path d="M478.943 120.557C478.943 120.557 475.341 128.16 472.38 128.961C469.418 129.761 461.014 127.44 458.853 127.68C456.772 127.92 454.691 128.16 454.131 127.04C453.091 138.245 454.691 145.449 462.695 146.729C470.699 148.01 479.503 133.443 480.304 129.841C481.104 126.239 480.784 121.677 480.784 121.677L478.943 120.557Z" fill="#2D2D30"/>
<path d="M478.704 91.9842C484.067 91.9041 491.67 95.4258 491.99 102.549C496.152 107.672 490.71 120.158 487.988 124.4C486.228 127.121 484.627 129.522 484.627 129.522L482.146 129.282C482.146 129.282 482.866 125.2 483.426 124C484.707 121.518 486.308 120.798 485.347 119.518C483.906 117.677 481.425 117.837 480.705 122.079L478.544 121.679L479.344 117.837C479.344 117.837 476.623 114.395 477.423 108.792C477.824 105.911 478.544 103.27 474.862 103.67C470.22 104.23 465.257 104.15 460.935 102.309C457.013 100.628 456.053 96.9466 457.093 92.2243C457.574 89.9832 460.455 87.582 460.455 87.582C460.455 87.582 461.095 91.5039 465.418 91.744C469.74 91.9041 478.704 91.9842 478.704 91.9842Z" fill="#2D2D30"/>
<path d="M481.261 119.759C481.261 119.759 484.543 114.556 487.744 117.838C490.706 120.799 484.222 126.562 482.301 126.642C480.381 126.802 480.781 124.001 480.781 124.001" fill="white"/>
<path d="M481.261 119.759C481.261 119.759 484.543 114.556 487.744 117.838C490.706 120.799 484.222 126.562 482.301 126.642C480.381 126.802 480.781 124.001 480.781 124.001" stroke="#2D2D30" stroke-miterlimit="10" stroke-linecap="round" stroke-linejoin="round"/>
<path d="M482.223 120.72C482.223 120.72 484.384 117.359 486.705 118.879L482.223 120.72Z" fill="white"/>
<path d="M482.223 120.72C482.223 120.72 484.384 117.359 486.705 118.879" stroke="#2D2D30" stroke-miterlimit="10" stroke-linecap="round" stroke-linejoin="round"/>
<path d="M461.095 116.955C461.095 116.955 461.895 118.156 461.415 119.276C460.935 120.397 459.334 124.879 459.334 124.879C459.334 124.879 459.094 126.4 464.056 125.839" stroke="#2D2D30" stroke-miterlimit="10" stroke-linecap="round" stroke-linejoin="round"/>
<path d="M466.297 130.644C462.776 131.845 459.254 130.244 459.254 130.244C459.254 130.244 460.134 132.725 462.856 132.725C465.097 132.725 466.297 130.644 466.297 130.644Z" fill="white"/>
<path d="M466.059 115.596C466.059 115.596 470.141 111.914 474.223 115.516" stroke="#2D2D30" stroke-miterlimit="10" stroke-linecap="round" stroke-linejoin="round"/>
<path d="M461.175 114.955C461.175 114.955 458.774 112.314 455.812 113.675" stroke="#2D2D30" stroke-miterlimit="10" stroke-linecap="round" stroke-linejoin="round"/>
<path d="M457.574 119.196C458.192 119.196 458.694 118.694 458.694 118.076C458.694 117.457 458.192 116.955 457.574 116.955C456.955 116.955 456.453 117.457 456.453 118.076C456.453 118.694 456.955 119.196 457.574 119.196Z" fill="#2D2D30"/>
<path d="M468.937 120.079C469.556 120.079 470.057 119.577 470.057 118.958C470.057 118.34 469.556 117.838 468.937 117.838C468.318 117.838 467.816 118.34 467.816 118.958C467.816 119.577 468.318 120.079 468.937 120.079Z" fill="#2D2D30"/>
<path d="M466.777 118.796C466.777 118.796 468.378 116.475 471.74 118.956" stroke="#2D2D30" stroke-miterlimit="10" stroke-linecap="round" stroke-linejoin="round"/>
<path d="M459.652 118.237C459.652 118.237 458.051 115.915 455.25 117.516" stroke="#2D2D30" stroke-miterlimit="10" stroke-linecap="round" stroke-linejoin="round"/>
<mask id="path-49-inside-1_1_965" fill="white">
<path d="M435.716 157.137C435.716 157.137 428.033 158.017 426.752 176.506C425.472 195.075 423.23 237.656 423.23 237.656C423.23 237.656 424.111 246.22 435.396 244.219C446.682 242.218 445.961 182.349 445.961 182.349"/>
</mask>
<path d="M435.716 157.137C435.716 157.137 428.033 158.017 426.752 176.506C425.472 195.075 423.23 237.656 423.23 237.656C423.23 237.656 424.111 246.22 435.396 244.219C446.682 242.218 445.961 182.349 445.961 182.349" fill="#67A2E7"/>
<path d="M426.752 176.506L425.755 176.437L425.755 176.437L426.752 176.506ZM423.23 237.656L422.232 237.603L422.228 237.681L422.236 237.758L423.23 237.656ZM435.716 157.137C435.603 156.143 435.601 156.143 435.6 156.143C435.6 156.144 435.599 156.144 435.598 156.144C435.596 156.144 435.594 156.144 435.592 156.144C435.588 156.145 435.584 156.146 435.579 156.146C435.569 156.148 435.557 156.149 435.543 156.151C435.516 156.155 435.481 156.161 435.44 156.169C435.357 156.185 435.246 156.21 435.111 156.248C434.842 156.325 434.478 156.454 434.047 156.669C433.184 157.103 432.072 157.878 430.942 159.253C428.685 161.999 426.403 167.068 425.755 176.437L427.75 176.575C428.381 167.455 430.583 162.84 432.487 160.523C433.438 159.367 434.327 158.766 434.944 158.457C435.254 158.301 435.5 158.217 435.656 158.173C435.734 158.151 435.79 158.139 435.82 158.133C435.835 158.13 435.844 158.129 435.846 158.128C435.847 158.128 435.846 158.128 435.843 158.129C435.842 158.129 435.84 158.129 435.838 158.129C435.837 158.129 435.836 158.13 435.835 158.13C435.834 158.13 435.833 158.13 435.833 158.13C435.831 158.13 435.83 158.13 435.716 157.137ZM425.755 176.437C425.114 185.729 424.233 201.023 423.513 213.989C423.152 220.473 422.832 226.376 422.602 230.659C422.487 232.8 422.394 234.536 422.331 235.737C422.299 236.337 422.274 236.804 422.257 237.12C422.249 237.278 422.243 237.399 422.238 237.48C422.236 237.521 422.235 237.552 422.233 237.572C422.233 237.582 422.233 237.59 422.232 237.595C422.232 237.598 422.232 237.6 422.232 237.601C422.232 237.602 422.232 237.602 422.232 237.603C422.232 237.603 422.232 237.603 423.23 237.656C424.229 237.708 424.229 237.708 424.229 237.708C424.229 237.707 424.229 237.707 424.229 237.706C424.229 237.705 424.229 237.703 424.229 237.701C424.23 237.695 424.23 237.688 424.231 237.677C424.232 237.657 424.233 237.626 424.236 237.586C424.24 237.505 424.246 237.384 424.255 237.226C424.271 236.909 424.296 236.443 424.328 235.843C424.392 234.642 424.484 232.907 424.599 230.766C424.829 226.484 425.149 220.582 425.51 214.1C426.23 201.133 427.11 185.852 427.75 176.575L425.755 176.437ZM423.23 237.656C422.236 237.758 422.236 237.759 422.236 237.759C422.236 237.76 422.236 237.76 422.236 237.761C422.236 237.762 422.236 237.763 422.236 237.765C422.237 237.768 422.237 237.771 422.238 237.775C422.238 237.782 422.24 237.792 422.241 237.804C422.244 237.827 422.248 237.859 422.254 237.898C422.265 237.976 422.283 238.083 422.31 238.216C422.363 238.482 422.452 238.85 422.596 239.281C422.885 240.14 423.403 241.272 424.324 242.341C426.223 244.543 429.642 246.255 435.571 245.204L435.222 243.234C429.865 244.184 427.201 242.615 425.839 241.035C425.129 240.212 424.722 239.329 424.492 238.645C424.378 238.304 424.31 238.019 424.271 237.823C424.251 237.726 424.239 237.652 424.232 237.605C424.229 237.582 424.227 237.565 424.226 237.557C424.225 237.552 424.225 237.55 424.225 237.549C424.225 237.549 424.225 237.549 424.225 237.55C424.225 237.55 424.225 237.551 424.225 237.551C424.225 237.552 424.225 237.552 424.225 237.552C424.225 237.553 424.225 237.553 423.23 237.656ZM435.571 245.204C437.421 244.876 438.845 243.402 439.956 241.488C441.082 239.545 442.007 236.941 442.777 233.957C444.318 227.979 445.291 220.239 445.908 212.614C446.525 204.978 446.788 197.41 446.897 191.754C446.952 188.925 446.968 186.573 446.97 184.927C446.972 184.104 446.969 183.457 446.967 183.016C446.966 182.795 446.964 182.626 446.963 182.512C446.963 182.455 446.962 182.411 446.962 182.382C446.962 182.367 446.962 182.356 446.962 182.349C446.961 182.345 446.961 182.342 446.961 182.34C446.961 182.339 446.961 182.338 446.961 182.338C446.961 182.337 446.961 182.337 445.961 182.349C444.962 182.361 444.962 182.361 444.962 182.361C444.962 182.362 444.962 182.362 444.962 182.363C444.962 182.365 444.962 182.368 444.962 182.371C444.962 182.378 444.962 182.389 444.962 182.403C444.962 182.431 444.963 182.474 444.963 182.53C444.964 182.642 444.966 182.809 444.967 183.028C444.969 183.464 444.972 184.106 444.97 184.924C444.968 186.56 444.952 188.9 444.898 191.715C444.789 197.348 444.527 204.872 443.914 212.453C443.3 220.045 442.338 227.648 440.84 233.458C440.09 236.368 439.219 238.77 438.225 240.484C437.215 242.227 436.194 243.062 435.222 243.234L435.571 245.204Z" fill="#185BA8" mask="url(#path-49-inside-1_1_965)"/>
<path d="M455.933 151.569C455.934 151.915 455.945 152.375 455.982 152.919C456.066 154.157 456.286 155.84 456.831 157.613C457.9 161.093 460.246 164.976 465.315 166.424L466.607 171.819L466.918 173.117L467.536 171.934L470.123 166.989C475.804 166.71 481.417 163.115 485.582 159.641C487.713 157.864 489.488 156.098 490.731 154.777C491.353 154.116 491.842 153.566 492.177 153.18C492.301 153.036 492.404 152.915 492.485 152.82L518.238 159.801C517.893 160.958 517.436 163.078 516.897 165.899C516.26 169.24 515.498 173.615 514.661 178.659C512.987 188.748 511.011 201.522 509.119 214.069C507.228 226.616 505.422 238.938 504.089 248.123C503.423 252.715 502.874 256.524 502.492 259.184C502.301 260.514 502.152 261.557 502.051 262.268L501.948 262.991C501.726 263.025 501.406 263.072 500.993 263.131C500.13 263.253 498.864 263.422 497.25 263.607C494.021 263.977 489.403 264.414 483.848 264.679C472.819 265.204 458.115 265.049 443.274 262.357C441.556 252.526 440.567 238.729 439.468 223.103L439.408 222.238C438.314 206.681 437.099 189.387 434.94 172.492L436.188 157.513C438.225 156.885 443.101 155.417 447.578 154.073C449.944 153.362 452.197 152.687 453.859 152.189L455.848 151.594L455.933 151.569Z" fill="#67A2E7" stroke="#185BA8"/>
<path d="M435.316 179.867C439.719 214.284 439.318 243.018 442.84 262.787L435.316 179.867Z" fill="#2D2D30"/>
<path d="M435.316 179.867C436.357 186.751 437.157 193.634 437.798 200.517C438.438 207.401 438.918 214.364 439.398 221.327L440.679 242.137C440.919 245.579 441.159 249.021 441.479 252.542C441.8 255.984 442.2 259.426 442.68 262.867C441.319 256.064 440.599 249.101 439.959 242.217C439.398 235.334 438.998 228.371 438.438 221.407C438.038 214.444 437.558 207.561 436.997 200.677C436.677 193.714 436.037 186.751 435.316 179.867Z" fill="#185BA8"/>
<path d="M467.093 171.701L465.973 184.507L468.694 184.908" fill="#2D2D30"/>
<path d="M467.093 171.701C467.173 173.862 467.093 176.023 466.933 178.184C466.773 180.345 466.533 182.426 466.293 184.587L466.053 184.347C466.453 184.427 466.933 184.507 467.333 184.667C467.733 184.748 468.214 184.908 468.614 184.988C468.134 184.988 467.733 184.988 467.253 184.908C466.773 184.908 466.373 184.828 465.892 184.828C465.732 184.828 465.652 184.747 465.652 184.587C465.732 182.426 465.812 180.265 466.053 178.184C466.373 175.943 466.693 173.782 467.093 171.701Z" fill="white"/>
<path d="M469.122 174.748C469.519 174.715 469.798 174.189 469.747 173.572C469.696 172.955 469.333 172.482 468.937 172.515C468.54 172.548 468.26 173.074 468.311 173.691C468.363 174.308 468.726 174.781 469.122 174.748Z" fill="white"/>
<path d="M468.321 181.234C468.718 181.202 468.998 180.675 468.946 180.058C468.895 179.441 468.532 178.968 468.136 179.001C467.739 179.034 467.459 179.561 467.511 180.177C467.562 180.794 467.925 181.267 468.321 181.234Z" fill="white"/>
<path d="M496.225 215.804C496.225 215.804 502.308 214.203 503.029 214.043C503.749 213.883 507.271 213.402 507.271 213.402L510.792 221.806L506.47 232.452L494.625 227.889C494.545 227.889 493.504 218.525 496.225 215.804Z" fill="white" stroke="#2D2D30" stroke-miterlimit="10" stroke-linecap="round" stroke-linejoin="round"/>
<path d="M449.724 216.365C449.724 216.365 439.479 212.123 438.518 211.963C437.558 211.803 434.516 212.043 434.516 212.043L428.273 214.124C428.273 214.124 424.751 217.006 424.511 218.286C424.271 219.567 425.712 219.407 425.712 219.407C425.712 219.407 424.992 220.607 424.912 221.648C424.832 222.688 426.432 222.448 426.432 222.448C426.432 222.448 426.192 224.129 426.752 224.529C427.313 224.849 428.353 224.369 428.353 224.369C428.353 224.369 428.193 225.49 428.994 225.81C429.714 226.13 432.675 223.569 432.675 223.569L435.877 223.249C435.877 223.249 440.839 226.13 446.762 224.769C452.685 223.409 449.724 216.365 449.724 216.365Z" fill="white" stroke="#2D2D30" stroke-miterlimit="10" stroke-linecap="round" stroke-linejoin="round"/>
<path d="M428.434 224.289L431.315 221.408L435.637 220.287" fill="white"/>
<path d="M428.434 224.289L431.315 221.408L435.637 220.287" stroke="#2D2D30" stroke-miterlimit="10" stroke-linecap="round" stroke-linejoin="round"/>
<path d="M426.434 222.449L430.035 218.687L434.758 217.406" fill="white"/>
<path d="M426.434 222.449L430.035 218.687L434.758 217.406" stroke="#2D2D30" stroke-miterlimit="10" stroke-linecap="round" stroke-linejoin="round"/>
<path d="M425.793 219.328L429.235 215.806L434.197 214.125" fill="white"/>
<path d="M425.793 219.328L429.235 215.806L434.197 214.125" stroke="#2D2D30" stroke-miterlimit="10" stroke-linecap="round" stroke-linejoin="round"/>
<path d="M521.274 248.861C521.274 248.861 518.633 254.944 498.783 246.46C478.934 237.976 447.398 224.769 447.398 224.769L449.479 216.205C449.479 216.205 489.419 225.65 494.941 226.61C500.544 227.571 512.47 229.652 515.591 230.932" fill="#67A2E7"/>
<path d="M521.274 248.861C521.274 248.861 518.633 254.944 498.783 246.46C478.934 237.976 447.398 224.77 447.398 224.77" fill="#3772B8"/>
<path d="M521.274 248.861C520.874 249.582 520.074 250.062 519.353 250.382C518.953 250.542 518.553 250.702 518.153 250.782C517.753 250.862 517.352 250.942 516.952 251.022C515.271 251.182 513.591 251.102 511.99 250.862C508.708 250.382 505.507 249.341 502.385 248.221C499.264 247.02 496.222 245.74 493.181 244.459L483.976 240.617L465.727 232.773L456.603 228.771L447.559 224.689L456.763 228.371L465.968 232.133L484.296 239.817C490.379 242.378 496.462 245.099 502.625 247.581C505.747 248.781 508.868 249.822 512.07 250.382C513.671 250.702 515.351 250.862 516.952 250.702C517.352 250.702 517.753 250.622 518.153 250.542C518.553 250.462 518.953 250.302 519.353 250.222C520.074 249.982 520.794 249.582 521.274 248.861Z" fill="#185BA8"/>
<path d="M449.48 216.205C449.48 216.205 489.42 225.65 494.942 226.61L449.48 216.205Z" fill="#2D2D30"/>
<path d="M449.48 216.205C453.322 216.925 457.084 217.726 460.926 218.606C464.768 219.407 468.53 220.287 472.292 221.167L483.657 223.889L495.023 226.69C491.181 226.13 487.339 225.329 483.577 224.529C479.735 223.729 475.973 222.848 472.212 222.048C468.45 221.167 464.608 220.287 460.846 219.327C457.004 218.206 453.242 217.246 449.48 216.205Z" fill="white"/>
<path d="M493.98 226.289C499.583 227.25 512.549 229.651 515.671 230.931L493.98 226.289Z" fill="#2D2D30"/>
<path d="M493.98 226.289C495.821 226.449 497.662 226.689 499.503 226.929C501.344 227.169 503.185 227.57 504.946 227.89C506.787 228.29 508.548 228.61 510.388 229.09C512.149 229.571 513.99 230.051 515.671 230.851C514.791 230.611 513.91 230.371 512.95 230.211C512.069 230.051 511.109 229.811 510.228 229.651L504.786 228.61C502.945 228.21 501.184 227.89 499.343 227.49C497.582 227.169 495.741 226.769 493.98 226.289Z" fill="white"/>
<path d="M423.387 237.895C423.387 237.895 423.947 245.659 432.511 246.059C441.075 246.46 467.168 240.537 494.621 227.891C494.461 219.086 496.302 215.805 496.302 215.805C496.302 215.805 467.168 221.247 460.124 221.567C453.001 221.888 437.233 223.729 430.03 226.13" fill="#67A2E7"/>
<path d="M496.221 215.805C496.221 215.805 467.087 221.247 460.044 221.567C452.92 221.888 437.153 223.729 429.949 226.13" fill="#2D2D30"/>
<path d="M496.221 215.805C490.779 217.005 485.256 218.046 479.733 219.086C474.211 220.047 468.688 221.007 463.085 221.728C461.725 221.888 460.284 221.968 458.843 222.048C457.482 222.128 456.042 222.208 454.681 222.368C451.88 222.608 449.158 222.928 446.357 223.248C443.556 223.568 440.834 223.969 438.033 224.449C435.312 224.929 432.51 225.409 429.789 226.13C435.152 224.369 440.674 223.488 446.197 222.608C448.998 222.208 451.72 221.888 454.521 221.567C455.882 221.407 457.322 221.327 458.683 221.247C460.124 221.167 461.484 221.087 462.845 220.847C468.368 220.207 473.89 219.246 479.413 218.366L496.221 215.805Z" fill="#479AD6"/>
<path d="M432.434 246.059C440.998 246.46 467.09 240.537 494.544 227.891L432.434 246.059Z" fill="#3772B8"/>
<path d="M432.434 246.059C435.155 246.059 437.876 245.659 440.517 245.179C443.159 244.779 445.8 244.139 448.441 243.578C453.724 242.298 458.926 240.857 464.049 239.256C469.251 237.655 474.294 235.895 479.416 233.974C481.978 233.013 484.459 232.053 487.02 231.012C489.581 230.052 492.062 228.931 494.544 227.891C489.661 230.292 484.699 232.453 479.656 234.534C474.614 236.535 469.492 238.296 464.289 239.976C459.086 241.577 453.884 243.018 448.521 244.138C445.88 244.699 443.159 245.179 440.517 245.579C437.876 245.899 435.155 246.22 432.434 246.059Z" fill="#185BA8"/>
<mask id="path-78-inside-2_1_965" fill="white">
<path d="M513.352 158.016C513.352 158.016 514.873 158.336 516.794 158.816C519.595 159.536 523.677 161.217 526.319 165.139C529.52 169.941 530.401 178.345 529.84 192.272C528.64 224.528 523.998 246.058 521.276 248.86C518.635 251.661 503.348 252.221 503.188 240.135C507.35 210.361 507.51 188.911 507.51 188.911"/>
</mask>
<path d="M513.352 158.016C513.352 158.016 514.873 158.336 516.794 158.816C519.595 159.536 523.677 161.217 526.319 165.139C529.52 169.941 530.401 178.345 529.84 192.272C528.64 224.528 523.998 246.058 521.276 248.86C518.635 251.661 503.348 252.221 503.188 240.135C507.35 210.361 507.51 188.911 507.51 188.911" fill="#67A2E7"/>
<path d="M516.794 158.816L517.043 157.847L517.037 157.846L516.794 158.816ZM526.319 165.139L527.151 164.584L527.148 164.58L526.319 165.139ZM529.84 192.272L528.841 192.232L528.841 192.235L529.84 192.272ZM521.276 248.86L520.559 248.163L520.554 248.168L520.549 248.174L521.276 248.86ZM503.188 240.135L502.197 239.997L502.187 240.072L502.188 240.149L503.188 240.135ZM513.352 158.016C513.146 158.994 513.146 158.994 513.146 158.994C513.146 158.994 513.146 158.994 513.146 158.994C513.146 158.994 513.146 158.994 513.147 158.994C513.147 158.994 513.147 158.994 513.147 158.994C513.148 158.994 513.149 158.995 513.15 158.995C513.153 158.996 513.157 158.996 513.162 158.998C513.174 159 513.19 159.003 513.212 159.008C513.257 159.018 513.323 159.032 513.408 159.05C513.578 159.087 513.825 159.142 514.133 159.211C514.747 159.35 515.6 159.548 516.552 159.786L517.037 157.846C516.067 157.603 515.199 157.402 514.573 157.26C514.26 157.19 514.007 157.134 513.832 157.096C513.745 157.077 513.677 157.062 513.631 157.052C513.607 157.047 513.59 157.044 513.577 157.041C513.571 157.04 513.567 157.039 513.564 157.038C513.562 157.038 513.561 157.038 513.56 157.037C513.559 157.037 513.559 157.037 513.559 157.037C513.559 157.037 513.559 157.037 513.559 157.037C513.559 157.037 513.559 157.037 513.559 157.037C513.558 157.037 513.558 157.037 513.352 158.016ZM516.545 159.785C519.237 160.477 523.044 162.066 525.489 165.698L527.148 164.58C524.311 160.368 519.954 158.596 517.043 157.848L516.545 159.785ZM525.487 165.694C526.965 167.911 527.957 171.038 528.498 175.407C529.038 179.769 529.121 185.289 528.841 192.232L530.84 192.312C531.121 185.329 531.043 179.683 530.483 175.161C529.923 170.645 528.874 167.169 527.151 164.584L525.487 165.694ZM528.841 192.235C528.242 208.326 526.785 221.729 525.143 231.445C524.321 236.304 523.455 240.227 522.632 243.096C522.221 244.532 521.824 245.687 521.456 246.557C521.075 247.456 520.763 247.953 520.559 248.163L521.994 249.556C522.47 249.066 522.899 248.278 523.297 247.337C523.708 246.367 524.13 245.129 524.555 243.648C525.405 240.684 526.285 236.683 527.115 231.778C528.774 221.964 530.238 208.474 530.84 192.309L528.841 192.235ZM520.549 248.174C520.362 248.372 519.988 248.619 519.386 248.852C518.8 249.079 518.061 249.268 517.217 249.388C515.526 249.629 513.491 249.586 511.539 249.109C509.586 248.631 507.771 247.733 506.441 246.309C505.127 244.901 504.224 242.915 504.187 240.122L502.188 240.149C502.231 243.399 503.299 245.874 504.979 247.674C506.643 249.456 508.844 250.509 511.064 251.052C513.283 251.595 515.576 251.642 517.499 251.368C518.462 251.231 519.353 251.01 520.108 250.717C520.849 250.431 521.53 250.048 522.004 249.546L520.549 248.174ZM504.178 240.274C506.263 225.356 507.346 212.524 507.907 203.419C508.188 198.866 508.339 195.245 508.419 192.76C508.459 191.517 508.482 190.559 508.494 189.91C508.501 189.585 508.504 189.338 508.507 189.172C508.508 189.089 508.509 189.026 508.509 188.983C508.509 188.962 508.509 188.946 508.509 188.935C508.509 188.93 508.51 188.926 508.51 188.923C508.51 188.921 508.51 188.92 508.51 188.919C508.51 188.919 508.51 188.919 508.51 188.918C508.51 188.918 508.51 188.918 507.51 188.911C506.51 188.903 506.51 188.903 506.51 188.903C506.51 188.903 506.51 188.903 506.51 188.904C506.51 188.904 506.51 188.905 506.51 188.906C506.51 188.909 506.51 188.912 506.51 188.917C506.509 188.927 506.509 188.942 506.509 188.963C506.509 189.003 506.508 189.064 506.507 189.145C506.505 189.308 506.501 189.551 506.495 189.871C506.482 190.512 506.46 191.461 506.42 192.695C506.34 195.162 506.191 198.764 505.911 203.296C505.352 212.36 504.274 225.14 502.197 239.997L504.178 240.274Z" fill="#185BA8" mask="url(#path-78-inside-2_1_965)"/>
<path d="M504.629 228.772C504.869 225.41 505.109 222.128 505.349 218.847C505.589 215.565 505.91 212.203 506.07 208.922C506.31 205.64 506.55 202.279 506.79 198.997L507.43 189.072C507.59 192.434 507.51 195.715 507.43 199.077C507.35 202.439 507.11 205.72 506.87 209.082C506.55 212.364 506.31 215.725 505.91 219.007L505.269 223.969C505.109 225.41 504.869 227.091 504.629 228.772Z" fill="#185BA8"/>
<path d="M119.168 534.999C119.168 472.889 169.512 422.625 231.542 422.625C293.572 422.625 343.917 472.969 343.917 534.999" fill="#8AC186"/>
<path d="M111.639 509.39C111.639 509.39 93.6298 488.42 91.4688 465.289" stroke="#2D2D30" stroke-miterlimit="10" stroke-linecap="round" stroke-linejoin="round"/>
<path d="M116.764 509.069C116.764 509.069 109.801 501.305 106.519 488.499C102.758 473.932 101.317 434.953 98.3555 423.508" stroke="#2D2D30" stroke-miterlimit="10" stroke-linecap="round" stroke-linejoin="round"/>
<path d="M119.245 508.429C119.245 508.429 116.204 491.46 118.445 475.693C120.686 459.925 130.291 426.869 120.526 378.846" stroke="#2D2D30" stroke-miterlimit="10" stroke-linecap="round" stroke-linejoin="round"/>
<path d="M121.566 455.844C121.566 455.844 113.322 445.439 116.524 442.237C119.805 439.036 123.167 445.119 122.767 450.001C122.447 454.963 121.566 455.844 121.566 455.844Z" fill="#2D2D30"/>
<path d="M122.765 509.39C122.765 509.39 120.284 502.587 127.648 479.135C135.011 455.684 139.333 420.707 139.333 420.707" stroke="#2D2D30" stroke-miterlimit="10" stroke-linecap="round" stroke-linejoin="round"/>
<path d="M124.125 490.82C124.125 490.82 130.528 480.335 136.531 481.535C142.534 482.736 136.932 489.299 124.446 492.26C123.885 492.741 124.125 490.82 124.125 490.82Z" fill="#2D2D30"/>
<path d="M128.771 475.531C128.771 475.531 132.773 468.408 136.454 471.209C140.056 473.931 131.332 477.933 129.571 479.293C127.81 480.654 126.93 481.774 126.93 481.774L128.771 475.531Z" fill="#2D2D30"/>
<path d="M130.371 469.931C130.371 469.931 138.055 466.729 136.934 463.528C135.814 460.326 132.212 464.008 131.332 466.009C130.451 467.85 130.371 469.931 130.371 469.931Z" fill="#2D2D30"/>
<path d="M129.488 472.572C129.488 472.572 129.008 469.611 127.167 466.329C125.326 463.048 128.928 460.006 130.609 462.167C132.209 464.328 130.929 468.17 130.929 468.17L129.488 472.572Z" fill="#2D2D30"/>
<path d="M133.412 456.722C133.412 456.722 136.853 444.957 143.256 448.398C149.74 451.84 132.531 460.964 132.531 460.964L133.412 456.722Z" fill="#2D2D30"/>
<path d="M135.73 444.158C135.73 444.158 141.573 434.153 144.695 438.235C148.216 442.797 135.25 447.279 135.25 447.279L135.73 444.158Z" fill="#2D2D30"/>
<path d="M135.093 446.238C135.093 446.238 128.769 440.555 130.931 437.914C133.092 435.353 136.053 437.754 136.213 441.035C136.373 444.397 135.093 446.238 135.093 446.238Z" fill="#2D2D30"/>
<path d="M137.012 437.834C137.012 437.834 150.138 430.791 147.337 425.509C144.535 420.226 139.013 427.67 137.892 431.671C137.332 435.994 137.012 437.834 137.012 437.834Z" fill="#2D2D30"/>
<path d="M138.691 427.908C138.691 427.908 151.418 419.264 147.896 414.702C144.374 410.14 139.412 422.626 139.412 422.626L138.691 427.908Z" fill="#2D2D30"/>
<path d="M138.692 423.347C138.692 423.347 135.411 405.899 139.413 404.618C143.334 403.338 142.854 410.301 142.374 413.343C141.814 416.384 139.573 423.427 139.573 423.427L138.692 423.347Z" fill="#2D2D30"/>
<path d="M118.126 477.213C118.126 477.213 109.802 468.648 113.244 465.447C116.686 462.245 118.927 469.369 118.767 474.091C118.287 476.252 118.126 477.213 118.126 477.213Z" fill="#2D2D30"/>
<path d="M119.567 467.608C119.567 467.608 119.406 444.237 129.491 447.598C138.776 450.64 119.567 467.608 119.567 467.608Z" fill="#2D2D30"/>
<path d="M124.367 435.912C124.367 435.912 127.329 423.106 133.572 426.068C139.815 429.029 125.728 439.434 124.207 439.674C124.367 437.513 124.367 435.912 124.367 435.912Z" fill="#2D2D30"/>
<path d="M123.81 436.313C123.81 436.313 113.805 429.19 116.767 423.987C119.728 418.785 124.611 433.112 124.611 433.112L123.81 436.313Z" fill="#2D2D30"/>
<path d="M124.848 426.788C124.848 426.788 132.932 422.226 131.731 418.064C130.53 413.902 124.848 419.425 124.848 423.106C124.848 426.788 124.848 426.788 124.848 426.788Z" fill="#2D2D30"/>
<path d="M124.847 420.147C124.847 420.147 120.285 405.419 113.881 410.462C107.558 415.504 118.924 424.629 124.847 423.108C125.007 420.867 124.847 420.147 124.847 420.147Z" fill="#2D2D30"/>
<path d="M124.77 417.344C124.77 417.344 136.535 411.341 134.454 405.178C132.373 399.015 125.17 409.18 124.77 414.463C124.85 416.384 124.77 417.344 124.77 417.344Z" fill="#2D2D30"/>
<path d="M124.366 410.461C124.366 410.461 114.681 406.139 116.682 399.016C118.763 391.892 124.366 403.898 124.526 407.18C124.766 410.461 124.366 410.461 124.366 410.461Z" fill="#2D2D30"/>
<path d="M123.727 401.097C123.727 401.097 126.368 382.368 134.052 386.29C141.735 390.212 128.449 401.177 124.127 402.778C123.807 401.978 123.727 401.097 123.727 401.097Z" fill="#2D2D30"/>
<path d="M122.207 386.849C122.207 386.849 122.527 367.96 131.171 371.001C139.896 374.043 122.367 388.69 122.367 388.69L122.207 386.849Z" fill="#2D2D30"/>
<path d="M122.926 395.253C122.926 395.253 112.201 389.41 114.362 384.608C116.523 379.806 121.725 384.848 123.086 392.292C123.326 394.773 122.926 395.253 122.926 395.253Z" fill="#2D2D30"/>
<path d="M120.766 380.206C120.766 380.206 121.166 359.156 114.043 361.878C106.919 364.679 114.043 373.963 120.766 380.206Z" fill="#2D2D30"/>
<path d="M109.639 496.822C109.639 496.822 105.877 479.534 114.441 482.095C123.006 484.656 110.119 497.542 110.119 497.542L109.639 496.822Z" fill="#2D2D30"/>
<path d="M107.322 491.06C107.322 491.06 103.64 486.177 102.519 488.098C101.399 490.019 101.719 492.58 107.802 492.9C107.882 492.18 107.322 491.06 107.322 491.06Z" fill="#2D2D30"/>
<path d="M105.479 482.738C105.479 482.738 103.958 472.653 108.44 473.853C112.923 475.054 106.119 484.098 106.119 484.098L105.479 482.738Z" fill="#2D2D30"/>
<path d="M104.598 479.775C104.598 479.775 98.9152 475.213 100.196 472.812C101.476 470.411 103.397 473.052 104.758 477.934C105.318 479.855 104.598 479.775 104.598 479.775Z" fill="#2D2D30"/>
<path d="M103.641 469.449C103.641 469.449 105.562 458.244 111.324 461.606C116.207 464.487 104.041 471.45 104.041 471.45L103.641 469.449Z" fill="#2D2D30"/>
<path d="M103.479 468.649C103.479 468.649 102.599 457.523 98.1164 459.204C93.6343 460.805 101.398 469.129 103.559 470.49C103.799 468.969 103.479 468.649 103.479 468.649Z" fill="#2D2D30"/>
<path d="M102.438 457.604C102.438 457.604 103.318 438.315 111.802 440.476C120.286 442.637 108.44 458.965 102.998 460.966C102.598 459.125 102.438 457.604 102.438 457.604Z" fill="#2D2D30"/>
<path d="M102.117 452.801C102.117 452.801 97.3942 439.194 93.3923 442.396C89.3904 445.598 101.956 454.322 101.956 454.322L102.117 452.801Z" fill="#2D2D30"/>
<path d="M101.956 451.359C101.956 451.359 98.5142 436.552 103.317 436.872C108.199 437.192 102.276 452.88 102.276 452.88L101.956 451.359Z" fill="#2D2D30"/>
<path d="M100.517 437.114C100.517 437.114 115.884 426.709 110.361 418.225C104.759 409.661 100.437 429.991 100.197 433.673C99.9564 435.834 100.517 437.114 100.517 437.114Z" fill="#2D2D30"/>
<path d="M100.036 432.871C100.036 432.871 96.1141 421.505 91.872 419.504C87.63 417.503 81.467 422.306 86.5895 428.229C91.7119 434.151 100.036 434.552 100.036 434.552V432.871Z" fill="#2D2D30"/>
<path d="M98.5172 423.268C98.5172 423.268 89.793 415.505 89.7129 405.58C89.5528 395.655 99.1575 395.095 101.399 400.297C103.64 405.5 100.358 411.022 99.8779 414.624C99.3976 418.226 98.5172 423.268 98.5172 423.268Z" fill="#2D2D30"/>
<path d="M99.3936 427.11C99.3936 427.11 106.117 415.424 101.154 412.463C96.1921 409.581 95.4717 420.947 98.6733 426.229C99.1535 427.11 99.3936 427.11 99.3936 427.11Z" fill="#2D2D30"/>
<path d="M97.5536 486.818C97.5536 486.818 95.4726 476.734 100.835 478.334C106.198 479.855 98.5941 488.339 98.5941 488.339L97.5536 486.818Z" fill="#2D2D30"/>
<path d="M95.0733 480.575C95.0733 480.575 91.8718 473.372 88.19 473.532C84.5082 473.692 83.7078 476.653 87.3896 479.215C91.0714 481.776 95.1534 481.376 95.1534 481.376L95.0733 480.575Z" fill="#2D2D30"/>
<path d="M92.8329 474.171C92.8329 474.171 92.1125 464.407 96.5146 464.807C100.917 465.207 93.3131 474.812 93.3131 474.812L92.8329 474.171Z" fill="#2D2D30"/>
<path d="M92.3517 472.091C92.3517 472.091 89.6303 463.047 86.0286 464.728C82.4269 466.409 88.3497 471.931 92.5117 473.372C92.6718 472.091 92.3517 472.091 92.3517 472.091Z" fill="#2D2D30"/>
<path d="M91.2325 466.009C91.2325 466.009 81.7079 453.443 87.3906 450.802C93.0734 448.161 92.9133 461.687 91.8728 466.009C91.7928 466.409 91.2325 466.009 91.2325 466.009Z" fill="#2D2D30"/>
<path d="M133.254 510.588L116.526 510.348L99.798 510.588C99.798 510.588 96.0362 523.794 107.882 534.359C114.765 534.359 116.606 534.359 116.606 534.359C116.606 534.359 118.447 534.359 125.33 534.359C137.016 523.794 133.254 510.588 133.254 510.588Z" fill="white" stroke="#2D2D30" stroke-miterlimit="10" stroke-linecap="round" stroke-linejoin="round"/>
<path d="M134.694 511.871H98.1961C96.8354 511.871 95.7148 510.75 95.7148 509.389C95.7148 508.029 96.8354 506.908 98.1961 506.908H134.694C136.054 506.908 137.175 508.029 137.175 509.389C137.255 510.67 136.134 511.871 134.694 511.871Z" fill="white" stroke="#2D2D30" stroke-miterlimit="10" stroke-linecap="round" stroke-linejoin="round"/>
<path d="M243.067 381.965L255.793 534.839H251.871L232.262 382.605L243.067 381.965Z" fill="white" stroke="#2D2D30" stroke-miterlimit="10" stroke-linejoin="round"/>
<path d="M243.067 381.965L232.262 382.605L234.343 400.854L244.027 394.611L243.067 381.965Z" fill="#2D2D30"/>
<path d="M464.133 381.965L476.86 534.839H472.938L453.328 382.605L464.133 381.965Z" fill="white" stroke="#2D2D30" stroke-miterlimit="10" stroke-linejoin="round"/>
<path d="M464.133 381.965L453.328 382.605L455.649 402.455L465.254 396.532L464.133 381.965Z" fill="#111112"/>
<path d="M356.881 378.281H252.831C251.71 378.281 250.75 377.321 250.75 376.2C250.75 375.08 251.71 374.119 252.831 374.119H356.881C358.002 374.119 358.962 375.08 358.962 376.2C358.962 377.321 358.002 378.281 356.881 378.281Z" fill="#2D2D30"/>
<path d="M357.925 379.082H250.272C249.152 379.082 248.191 378.121 248.191 377.001C248.191 375.88 249.152 374.92 250.272 374.92H357.925C359.045 374.92 360.006 375.88 360.006 377.001C360.006 378.201 359.125 379.082 357.925 379.082Z" fill="white" stroke="#2D2D30" stroke-miterlimit="10" stroke-linejoin="round"/>
<path d="M297.093 323.215H234.743C232.662 323.215 230.26 325.616 230.821 327.057L248.91 372.119C249.23 372.999 250.11 373.639 250.991 373.639L313.821 375.08C315.422 375.08 317.983 373.159 317.103 370.518L299.094 324.656C298.854 323.775 298.053 323.215 297.093 323.215Z" fill="#2D2D30"/>
<path d="M295.414 324.736H233.064C231.543 324.736 230.422 326.257 230.983 327.698L247.31 373.56C247.631 374.44 248.511 375.081 249.391 375.081H313.423C315.023 375.081 316.064 373.48 315.503 372.039L297.495 326.177C297.095 325.297 296.294 324.736 295.414 324.736Z" fill="white" stroke="#2D2D30" stroke-miterlimit="10" stroke-linejoin="round"/>
<path d="M277.054 352.272C277.241 349.892 274.964 347.772 271.967 347.536C268.971 347.3 266.39 349.038 266.202 351.418C266.015 353.797 268.292 355.918 271.289 356.154C274.286 356.39 276.867 354.652 277.054 352.272Z" fill="#8AC186"/>
<path d="M181.597 381.963L168.871 534.837H172.793L192.402 382.603L181.597 381.963Z" fill="white" stroke="#2D2D30" stroke-miterlimit="10" stroke-linejoin="round"/>
<path d="M180.078 401.812L190.643 397.49L192.404 382.603L181.599 381.963L180.078 401.812Z" fill="#2D2D30"/>
<path d="M401.142 381.963L388.496 534.837H392.418L411.947 382.603L401.142 381.963Z" fill="white" stroke="#2D2D30" stroke-miterlimit="10" stroke-linejoin="round"/>
<path d="M399.223 407.015L409.708 401.732L411.949 382.603L401.144 381.963L399.223 407.015Z" fill="#2D2D30"/>
<path d="M483.106 379.402H389.781V384.685H483.106V379.402Z" fill="white" stroke="#2D2D30" stroke-miterlimit="10" stroke-linejoin="round"/>
<path d="M168.253 384.736H389.801V379.454H168.253V384.736Z" fill="white" stroke="#2D2D30" stroke-miterlimit="10" stroke-linejoin="round"/>
</svg>
