<svg width="657" height="547" viewBox="0 0 657 547" fill="none" xmlns="http://www.w3.org/2000/svg">
<path d="M409.574 333.984V417.01" stroke="#2D2D30" stroke-miterlimit="10" stroke-linecap="round" stroke-linejoin="round"/>
<path d="M387.434 340.723V393.827L366.176 416.448" stroke="#2D2D30" stroke-miterlimit="10" stroke-linecap="round" stroke-linejoin="round"/>
<path d="M342.429 317.219L332.883 326.444V363.344" stroke="#2D2D30" stroke-miterlimit="10" stroke-linecap="round" stroke-linejoin="round"/>
<path d="M302.563 336.23V370.644L264.219 409.229" stroke="#2D2D30" stroke-miterlimit="10" stroke-linecap="round" stroke-linejoin="round"/>
<path d="M283.713 365.832L241.277 408.347" stroke="#2D2D30" stroke-miterlimit="10" stroke-linecap="round" stroke-linejoin="round"/>
<path d="M299.032 292.271L244.083 347.301V378.586L213.359 409.39" stroke="#2D2D30" stroke-miterlimit="10" stroke-linecap="round" stroke-linejoin="round"/>
<path d="M300.318 274.863H287.884L241.037 322.192H207.586" stroke="#2D2D30" stroke-miterlimit="10" stroke-linecap="round" stroke-linejoin="round"/>
<path d="M287.241 234.033H220.259L173.652 280.72" stroke="#2D2D30" stroke-miterlimit="10" stroke-linecap="round" stroke-linejoin="round"/>
<path d="M286.441 216.785H210.796L187.773 240.289" stroke="#2D2D30" stroke-miterlimit="10" stroke-linecap="round" stroke-linejoin="round"/>
<path d="M385.109 80.4157V41.4298L427.464 1" stroke="#2D2D30" stroke-miterlimit="10" stroke-linecap="round" stroke-linejoin="round"/>
<path d="M407.488 81.8585V57.0711L457.304 8.37891" stroke="#2D2D30" stroke-miterlimit="10" stroke-linecap="round" stroke-linejoin="round"/>
<path d="M492.359 97.9044V80.8982L571.775 2.52539" stroke="#2D2D30" stroke-miterlimit="10" stroke-linecap="round" stroke-linejoin="round"/>
<path d="M511.688 85.79L593.028 4.5293" stroke="#2D2D30" stroke-miterlimit="10" stroke-linecap="round" stroke-linejoin="round"/>
<path d="M603.059 21.2949L550.757 73.5969V104.641L491.797 164.484" stroke="#2D2D30" stroke-miterlimit="10" stroke-linecap="round" stroke-linejoin="round"/>
<path d="M587.574 129.91H554.524L507.116 177.078H495.645" stroke="#2D2D30" stroke-miterlimit="10" stroke-linecap="round" stroke-linejoin="round"/>
<path d="M495.406 217.346H575.945L656.805 136.246" stroke="#2D2D30" stroke-miterlimit="10" stroke-linecap="round" stroke-linejoin="round"/>
<path d="M494.605 234.675H584.61L607.312 211.492" stroke="#2D2D30" stroke-miterlimit="10" stroke-linecap="round" stroke-linejoin="round"/>
<path d="M509.924 90.3627C511.386 90.3627 512.572 89.1775 512.572 87.7155C512.572 86.2535 511.386 85.0684 509.924 85.0684C508.462 85.0684 507.277 86.2535 507.277 87.7155C507.277 89.1775 508.462 90.3627 509.924 90.3627Z" stroke="#2D2D30" stroke-miterlimit="10" stroke-linecap="round" stroke-linejoin="round"/>
<path d="M590.303 132.558C591.765 132.558 592.951 131.373 592.951 129.911C592.951 128.449 591.765 127.264 590.303 127.264C588.841 127.264 587.656 128.449 587.656 129.911C587.656 131.373 588.841 132.558 590.303 132.558Z" stroke="#2D2D30" stroke-miterlimit="10" stroke-linecap="round" stroke-linejoin="round"/>
<path d="M609.155 212.052C610.617 212.052 611.802 210.867 611.802 209.405C611.802 207.943 610.617 206.758 609.155 206.758C607.693 206.758 606.508 207.943 606.508 209.405C606.508 210.867 607.693 212.052 609.155 212.052Z" stroke="#2D2D30" stroke-miterlimit="10" stroke-linecap="round" stroke-linejoin="round"/>
<path d="M186.007 245.103C187.469 245.103 188.654 243.918 188.654 242.456C188.654 240.994 187.469 239.809 186.007 239.809C184.545 239.809 183.359 240.994 183.359 242.456C183.359 243.918 184.545 245.103 186.007 245.103Z" stroke="#2D2D30" stroke-miterlimit="10" stroke-linecap="round" stroke-linejoin="round"/>
<path d="M204.936 325.001C206.398 325.001 207.583 323.816 207.583 322.354C207.583 320.892 206.398 319.707 204.936 319.707C203.474 319.707 202.289 320.892 202.289 322.354C202.289 323.816 203.474 325.001 204.936 325.001Z" stroke="#2D2D30" stroke-miterlimit="10" stroke-linecap="round" stroke-linejoin="round"/>
<path d="M300.878 293.074C302.34 293.074 303.525 291.889 303.525 290.427C303.525 288.964 302.34 287.779 300.878 287.779C299.416 287.779 298.23 288.964 298.23 290.427C298.23 291.889 299.416 293.074 300.878 293.074Z" stroke="#2D2D30" stroke-miterlimit="10" stroke-linecap="round" stroke-linejoin="round"/>
<path d="M285.557 366.552C287.019 366.552 288.205 365.367 288.205 363.905C288.205 362.443 287.019 361.258 285.557 361.258C284.095 361.258 282.91 362.443 282.91 363.905C282.91 365.367 284.095 366.552 285.557 366.552Z" stroke="#2D2D30" stroke-miterlimit="10" stroke-linecap="round" stroke-linejoin="round"/>
<path d="M302.561 336.15C304.023 336.15 305.208 334.965 305.208 333.503C305.208 332.041 304.023 330.855 302.561 330.855C301.099 330.855 299.914 332.041 299.914 333.503C299.914 334.965 301.099 336.15 302.561 336.15Z" stroke="#2D2D30" stroke-miterlimit="10" stroke-linecap="round" stroke-linejoin="round"/>
<path d="M332.886 368.72C334.348 368.72 335.533 367.535 335.533 366.073C335.533 364.611 334.348 363.426 332.886 363.426C331.424 363.426 330.238 364.611 330.238 366.073C330.238 367.535 331.424 368.72 332.886 368.72Z" stroke="#2D2D30" stroke-miterlimit="10" stroke-linecap="round" stroke-linejoin="round"/>
<path d="M466.37 72.0737C467.832 72.0737 469.017 70.8885 469.017 69.4265C469.017 67.9645 467.832 66.7793 466.37 66.7793C464.908 66.7793 463.723 67.9645 463.723 69.4265C463.723 70.8885 464.908 72.0737 466.37 72.0737Z" stroke="#2D2D30" stroke-miterlimit="10" stroke-linecap="round" stroke-linejoin="round"/>
<path d="M466.289 97.9023V72.1523" stroke="#2D2D30" stroke-miterlimit="10" stroke-linecap="round" stroke-linejoin="round"/>
<path d="M497.809 226.172V97.3419C497.809 97.3419 438.448 85.951 419.437 82.1807C405.479 79.3731 397.056 78.1699 393.526 77.7688C392.243 77.6083 391.039 77.6083 389.756 77.7688C386.226 78.2501 377.803 79.4533 363.846 82.1807C344.834 85.951 285.473 97.3419 285.473 97.3419V226.172C285.473 226.172 285.072 278.233 329.512 311.363C369.381 337.354 385.986 349.386 391.601 349.386C397.216 349.386 413.821 337.354 453.69 311.363C498.21 278.153 497.809 226.172 497.809 226.172Z" fill="#ECC91A"/>
<path d="M484.094 224.566V112.261C484.094 112.261 432.353 102.314 415.828 99.0255C403.635 96.6189 396.335 95.5761 393.287 95.175C392.164 95.0146 391.121 95.0146 389.998 95.175C386.95 95.5761 379.57 96.6189 367.457 99.0255C350.852 102.314 299.192 112.261 299.192 112.261V224.486C299.192 224.486 298.791 269.809 337.616 298.688C372.35 321.389 386.87 331.818 391.683 331.818C396.576 331.818 411.095 321.309 445.75 298.688C484.495 269.889 484.094 224.566 484.094 224.566Z" fill="white" stroke="#2D2D30" stroke-miterlimit="10" stroke-linecap="round" stroke-linejoin="round"/>
<path d="M477.835 223.766V119.242C477.835 119.242 429.624 109.937 414.223 106.888C402.912 104.642 396.013 103.68 393.205 103.279C392.163 103.118 391.2 103.118 390.157 103.279C387.35 103.68 380.451 104.642 369.14 106.888C353.738 109.937 305.527 119.242 305.527 119.242V223.766C305.527 223.766 305.207 265.96 341.305 292.914C373.632 314.011 387.189 323.797 391.681 323.797C396.254 323.797 409.73 314.011 442.058 292.914C478.156 266.041 477.835 223.766 477.835 223.766Z" fill="#ECC91A"/>
<path d="M475.827 223.525V121.327C475.827 121.327 428.739 112.262 413.658 109.294C402.588 107.129 395.849 106.166 393.122 105.765C392.159 105.604 391.117 105.604 390.154 105.765C387.346 106.086 380.688 107.048 369.618 109.294C354.537 112.262 307.449 121.327 307.449 121.327V223.525C307.449 223.525 307.129 264.757 342.424 291.068C374.03 311.684 387.266 321.23 391.678 321.23C396.09 321.23 409.326 311.684 440.932 291.068C476.147 264.837 475.827 223.525 475.827 223.525Z" fill="white" stroke="#2D2D30" stroke-miterlimit="10" stroke-linecap="round" stroke-linejoin="round"/>
<path d="M434.197 218.551V166.89C434.197 166.89 410.373 162.318 402.752 160.794C397.137 159.671 393.768 159.189 392.324 159.029C391.842 158.949 391.281 158.949 390.8 159.029C389.436 159.189 385.986 159.671 380.371 160.794C372.75 162.318 348.926 166.89 348.926 166.89V218.551C348.926 218.551 348.765 239.407 366.574 252.723C382.537 263.152 389.195 267.965 391.441 267.965C393.687 267.965 400.345 263.152 416.309 252.723C434.358 239.407 434.197 218.551 434.197 218.551Z" fill="#2D2D30"/>
<path d="M404.358 204.193H402.513V200.503C402.513 194.567 397.62 189.674 391.684 189.674C385.748 189.674 380.855 194.567 380.855 200.503V204.193H379.01C376.603 204.193 374.598 206.199 374.598 208.605V221.841C374.598 224.248 376.603 226.253 379.01 226.253H404.358C406.765 226.253 408.77 224.248 408.77 221.841V208.605C408.69 206.199 406.765 204.193 404.358 204.193ZM385.748 200.503C385.748 197.214 388.395 194.567 391.684 194.567C394.973 194.567 397.62 197.214 397.62 200.503V204.193H385.748V200.503Z" fill="white" stroke="#2D2D30" stroke-miterlimit="10" stroke-linecap="round" stroke-linejoin="round"/>
<path d="M66.3984 546.001C66.3984 483.752 116.855 433.375 179.024 433.375C241.273 433.375 291.65 483.832 291.65 546.001" fill="#8AC186"/>
<path d="M707.925 545.84C367.808 545.84 340.117 545.84 0 545.84" stroke="#2D2D30" stroke-miterlimit="10" stroke-linejoin="round"/>
<path d="M299.596 264.193C299.596 264.193 284.996 259.38 278.178 273.658C271.359 287.937 257.321 321.709 257.321 321.709C257.321 321.709 254.754 333.501 262.455 336.549C270.236 339.597 276.012 332.137 276.012 332.137L297.189 282.803C297.189 282.723 304.649 270.129 299.596 264.193Z" fill="white" stroke="#2D2D30" stroke-miterlimit="10"/>
<path d="M275.767 332.378C273.922 335.105 270.954 337.592 268.628 338.314C265.419 339.356 261.007 339.918 256.274 333.902C253.065 329.891 237.984 289.862 237.984 289.862C237.984 289.862 241.594 283.525 244.482 284.728C244.482 284.728 252.103 295.156 260.285 305.023C263.093 308.473 266.221 311.922 268.868 315.131" fill="white"/>
<path d="M275.767 332.378C273.922 335.105 270.954 337.592 268.628 338.314C265.419 339.356 261.007 339.918 256.274 333.902C253.065 329.891 237.984 289.862 237.984 289.862C237.984 289.862 241.594 283.525 244.482 284.728C244.482 284.728 252.103 295.156 260.285 305.023C263.093 308.473 266.221 311.922 268.868 315.131" stroke="#2D2D30" stroke-miterlimit="10" stroke-linecap="round" stroke-linejoin="round"/>
<path d="M272.562 286.012C272.562 286.012 284.274 297.964 285.558 304.863C285.879 306.628 286.601 306.547 287.483 305.424L293.901 290.424C292.457 288.98 278.017 274.781 272.562 286.012Z" fill="#2D2D30"/>
<path d="M239.269 290.823C239.269 290.823 236.381 290.742 232.451 286.972C228.52 283.202 228.199 277.988 228.199 277.988L232.932 271.57C232.932 271.57 229.082 257.372 230.365 255.928C231.649 254.404 232.531 260.821 234.216 263.789C235.9 266.757 239.991 272.613 239.991 272.613L245.125 285.288" fill="white"/>
<path d="M239.269 290.823C239.269 290.823 236.381 290.742 232.451 286.972C228.52 283.202 228.199 277.988 228.199 277.988L232.932 271.57C232.932 271.57 229.082 257.372 230.365 255.928C231.649 254.404 232.531 260.821 234.216 263.789C235.9 266.757 239.991 272.613 239.991 272.613L245.125 285.288" stroke="#2D2D30" stroke-miterlimit="10"/>
<path d="M241.035 266.839C241.035 266.839 221.382 257.212 217.531 252.961C213.521 260.421 197.477 275.743 193.867 276.385C204.616 284.807 214.884 296.198 214.884 296.198C214.884 296.198 232.292 286.412 241.035 266.839Z" fill="white" stroke="#2D2D30" stroke-miterlimit="10"/>
<path d="M217.051 261.305L233.255 272.455" stroke="#2D2D30" stroke-miterlimit="10"/>
<path d="M213.121 266.277L228.523 277.187" stroke="#2D2D30" stroke-miterlimit="10"/>
<path d="M209.191 269.967L224.834 281.278" stroke="#2D2D30" stroke-miterlimit="10"/>
<path d="M206.141 273.016L222.345 286.011" stroke="#2D2D30" stroke-miterlimit="10"/>
<path d="M245.688 286.974C245.688 286.974 245.367 281.76 244.404 278.791C243.442 275.823 242.399 271.171 241.677 270.93C240.955 270.689 231.971 267.481 230.366 266.518C228.762 265.556 228.922 269.406 231.168 270.609C233.415 271.813 236.944 273.497 236.944 273.497C236.944 273.497 234.457 279.273 238.468 283.685" fill="white"/>
<path d="M245.688 286.974C245.688 286.974 245.367 281.76 244.404 278.791C243.442 275.823 242.399 271.171 241.677 270.93C240.955 270.689 231.971 267.481 230.366 266.518C228.762 265.556 228.922 269.406 231.168 270.609C233.415 271.813 236.944 273.497 236.944 273.497C236.944 273.497 234.457 279.273 238.468 283.685" stroke="#2D2D30" stroke-miterlimit="10"/>
<path d="M290.207 339.198L282.105 359.734L350.531 358.53L344.756 342.326L344.515 338.877L290.207 339.198Z" fill="#2D2D30"/>
<path d="M308.1 342.566C308.1 344.411 308.019 346.176 307.859 348.021C307.699 349.866 307.458 351.631 307.217 353.396V353.637L307.057 353.717C306.495 353.877 305.854 353.957 305.292 354.118C304.65 354.198 304.089 354.358 303.527 354.439C304.089 354.198 304.65 353.957 305.212 353.717C305.773 353.476 306.335 353.316 306.896 353.075L306.656 353.316C306.736 351.471 306.977 349.706 307.217 347.941C307.378 346.176 307.699 344.411 308.1 342.566Z" fill="white"/>
<path d="M295.907 349.949L191.383 341.606C190.26 341.526 189.378 340.483 189.458 339.36C189.538 338.237 190.581 337.355 191.704 337.435L296.148 345.777C297.271 345.858 298.153 346.9 298.073 348.024C297.993 349.227 297.03 350.029 295.907 349.949Z" fill="#2D2D30"/>
<path d="M296.87 350.91L188.817 342.327C187.694 342.247 186.812 341.204 186.892 340.081C186.972 338.958 188.015 338.075 189.138 338.155L297.191 346.739C298.314 346.819 299.197 347.862 299.117 348.985C299.036 350.188 297.993 350.99 296.87 350.91Z" fill="white" stroke="#2D2D30" stroke-miterlimit="10" stroke-linejoin="round"/>
<path d="M240.234 289.945L177.664 284.971C175.579 284.811 173.012 286.977 173.413 288.501L188.013 335.188C188.253 336.07 189.055 336.792 190.018 336.872L252.989 343.37C254.593 343.53 257.321 341.766 256.679 339.118L242.24 291.629C241.919 290.667 241.197 290.025 240.234 289.945Z" fill="#2D2D30"/>
<path d="M238.388 291.307L175.818 286.334C174.294 286.173 173.091 287.698 173.492 289.142L186.166 336.47C186.407 337.352 187.209 338.074 188.172 338.155L252.507 343.289C254.111 343.449 255.314 341.925 254.833 340.401L240.394 292.912C240.073 292.029 239.351 291.388 238.388 291.307Z" fill="white" stroke="#2D2D30" stroke-miterlimit="10" stroke-linejoin="round"/>
<path d="M217.868 317.507C218.245 315.145 216.103 312.839 213.084 312.358C210.066 311.876 207.313 313.401 206.936 315.763C206.559 318.126 208.701 320.431 211.72 320.913C214.738 321.394 217.491 319.869 217.868 317.507Z" fill="#8AC186"/>
<path d="M275.13 455.594L290.452 478.857C290.452 478.857 296.869 492.494 290.933 492.574L258.766 465.701L275.13 455.594Z" fill="white" stroke="#2D2D30" stroke-miterlimit="10" stroke-linecap="round" stroke-linejoin="round"/>
<path d="M278.018 460.086L275.13 455.594L258.766 465.781L264.301 470.594L278.018 460.086Z" fill="#2D2D30"/>
<path d="M195.07 362.141L210.472 438.027H229.805C229.805 438.027 233.013 404.897 230.847 392.784C228.682 380.43 224.911 375.056 224.911 375.056" fill="#2D2D30"/>
<path d="M220.58 376.338L226.918 378.905C228.121 381.793 229.725 386.285 230.848 392.863C233.014 404.976 229.805 438.106 229.805 438.106H210.473L205.82 415.163C207.344 408.585 210.553 395.67 211.917 393.825C213.842 391.339 220.58 376.338 220.58 376.338Z" fill="#2D2D30"/>
<path d="M230.284 441.316L228.84 474.927C228.84 474.927 225.15 486.799 217.931 482.708C214 458.001 210.551 437.305 210.551 437.305L230.284 441.316Z" fill="white" stroke="#2D2D30" stroke-miterlimit="10" stroke-linecap="round" stroke-linejoin="round"/>
<path d="M211.513 444.202L229.963 447.17L230.204 441.314L215.043 438.186L210.551 437.945C210.791 438.988 211.112 441.154 211.513 444.202Z" fill="#2D2D30"/>
<path d="M234.697 443.481L207.263 440.834L205.578 428.721L234.136 433.213L234.697 443.481Z" fill="white" stroke="#2D2D30" stroke-miterlimit="10" stroke-linecap="round" stroke-linejoin="round"/>
<path d="M228.84 474.445C228.84 474.445 236.541 477.494 240.391 487.12C234.455 490.89 203.972 510.303 203.972 510.303C203.972 510.303 199.32 504.607 208.465 497.227C217.93 489.607 217.449 482.226 217.449 482.226C217.449 482.226 225.07 480.943 228.84 474.445Z" fill="#2D2D30"/>
<path d="M236.859 481.424C235.335 483.429 233.811 485.515 232.287 487.52L229.96 490.488C229.158 491.531 228.356 492.494 227.634 493.457V493.537H227.554L221.617 497.387L215.601 501.157C213.596 502.441 211.59 503.644 209.585 504.847C207.579 506.051 205.574 507.254 203.488 508.457C205.414 507.094 207.339 505.73 209.344 504.446C211.269 503.163 213.275 501.799 215.2 500.516L221.136 496.665L227.153 492.895L227.072 492.975C227.875 492.013 228.677 490.97 229.479 490.007L231.966 487.119C233.57 485.274 235.255 483.349 236.859 481.424Z" fill="white"/>
<path d="M324.946 405.779C324.946 405.779 252.991 414.202 255.638 416.929C259.328 420.699 261.895 424.71 263.579 428.641C266.467 435.459 273.045 453.107 273.045 453.107L252.429 461.771C252.429 461.771 214.326 417.33 211.277 413.4C208.229 409.469 207.186 394.067 214.566 390.377C221.946 386.687 259.408 380.27 259.408 380.27L324.946 405.779Z" fill="#2D2D30"/>
<path d="M252.504 461.691L241.434 448.936L230.444 436.182L219.454 423.347L214 416.93L211.272 413.721C210.791 413.159 210.39 412.518 210.149 411.796C209.828 411.154 209.668 410.432 209.427 409.71C208.705 406.902 208.545 404.095 208.705 401.207C208.946 398.399 209.507 395.511 211.112 393.025C211.914 391.821 212.957 390.698 214.24 389.976C214.882 389.655 215.524 389.415 216.246 389.094L218.251 388.452C220.979 387.65 223.706 386.928 226.433 386.286C237.423 383.8 248.493 381.794 259.563 380.029C254.028 381.072 248.493 382.115 243.039 383.238C237.504 384.361 232.049 385.484 226.594 386.848C223.866 387.49 221.139 388.212 218.492 389.014L216.486 389.655C215.845 389.976 215.203 390.137 214.641 390.458C213.438 391.099 212.556 392.142 211.834 393.265C210.39 395.592 209.828 398.399 209.588 401.127C209.427 403.854 209.588 406.662 210.31 409.389C210.631 410.753 211.112 412.036 211.994 413.079L214.722 416.288L220.176 422.705L231.086 435.54L241.915 448.455L252.504 461.691Z" fill="white"/>
<path d="M260.128 396.072L239.432 403.212L236.865 404.094L235.582 404.575C235.421 404.656 235.181 404.736 235.02 404.816C234.86 404.896 234.699 405.057 234.699 405.137C234.619 405.217 234.699 405.378 234.619 405.698C234.619 406.019 234.459 406.26 234.298 406.501C233.977 406.902 233.576 407.223 233.095 407.463C232.854 407.543 232.614 407.704 232.293 407.704C232.132 407.704 231.972 407.704 231.892 407.704C231.812 407.704 231.731 407.704 231.731 407.704C231.651 407.704 231.571 407.704 231.731 407.704C231.812 407.704 231.892 407.624 231.892 407.543L231.972 407.463C231.972 407.383 231.972 407.463 231.972 407.463C231.972 407.463 231.972 407.543 231.972 407.624L232.052 407.944C232.132 408.185 232.213 408.346 232.293 408.506C233.175 410.03 234.218 411.554 235.181 413.078L238.229 417.651L250.342 435.941L256.358 445.085L262.375 454.23C258.123 448.294 253.952 442.278 249.861 436.261C245.769 430.245 241.678 424.149 237.587 418.132L234.619 413.56C233.657 412.036 232.614 410.511 231.731 408.827C231.651 408.586 231.491 408.346 231.41 408.185L231.33 407.864C231.33 407.784 231.33 407.784 231.25 407.624C231.25 407.543 231.25 407.543 231.25 407.463C231.25 407.383 231.25 407.303 231.33 407.303C231.411 407.223 231.491 407.142 231.571 407.142C231.812 407.142 231.812 407.142 231.892 407.142C231.972 407.142 231.972 407.142 232.052 407.142C232.132 407.142 232.213 407.142 232.293 407.142C232.453 407.142 232.614 407.062 232.854 406.982C233.175 406.821 233.576 406.501 233.817 406.26C233.897 406.1 233.977 405.939 234.058 405.779C234.058 405.618 234.058 405.378 234.218 404.976C234.619 404.335 235.1 404.254 235.502 404.094C235.903 403.934 236.384 403.773 236.785 403.613L239.352 402.73C246.171 400.324 253.149 398.158 260.128 396.072Z" fill="white"/>
<path d="M344.677 341.766C344.677 341.766 360.319 367.435 350.693 388.292C341.067 409.149 318.285 411.074 293.337 402.811C268.389 394.549 214.002 376.741 214.002 376.741L195.07 362.221C195.07 362.221 195.07 346.819 207.183 344.413C219.296 342.006 314.996 353.157 314.996 353.157" fill="#2D2D30"/>
<path d="M207.184 344.331C209.43 343.93 211.676 343.93 213.922 343.85C216.168 343.85 218.414 343.85 220.66 343.93C225.152 344.09 229.645 344.331 234.217 344.652C243.201 345.294 252.186 346.096 261.17 346.898C270.155 347.78 279.139 348.743 288.123 349.706C297.108 350.748 306.092 351.791 314.996 352.994L288.043 350.267C279.059 349.385 270.074 348.422 261.09 347.62C252.106 346.737 243.121 345.935 234.137 345.213C229.645 344.812 225.152 344.491 220.66 344.251C218.414 344.09 216.168 344.01 213.922 343.93C211.676 344.09 209.43 344.01 207.184 344.331Z" fill="white"/>
<path d="M350.695 388.211C348.288 393.586 344.598 398.479 339.625 401.768C337.138 403.453 334.41 404.736 331.603 405.619C328.795 406.501 325.827 407.063 322.859 407.383C316.923 407.945 310.987 407.383 305.131 406.26C302.243 405.699 299.355 404.977 296.467 404.175C293.66 403.373 290.852 402.41 288.044 401.447L254.433 390.297L237.668 384.682L221.062 378.986L237.908 384.361L254.754 389.816L288.365 400.806C291.173 401.688 293.981 402.651 296.788 403.533C299.596 404.335 302.484 405.057 305.371 405.699C311.147 406.822 317.003 407.383 322.859 406.902C325.747 406.661 328.715 406.18 331.442 405.298C334.25 404.415 336.897 403.212 339.384 401.608C344.357 398.319 348.208 393.586 350.695 388.211Z" fill="white"/>
<path d="M338.339 342.969C339.141 347.22 339.943 351.472 340.665 355.723C341.066 357.889 341.387 359.975 341.708 362.141C342.029 364.307 342.35 366.392 342.43 368.558C342.51 370.724 342.27 372.89 341.949 375.056C341.548 377.222 340.986 379.307 339.863 381.233C339.302 382.195 338.66 383.078 337.778 383.8C336.895 384.441 335.933 385.083 334.81 385.244C333.686 385.484 332.644 385.564 331.521 385.484C330.397 385.404 329.274 385.083 328.312 384.602C327.83 384.361 327.349 384.04 326.948 383.719C326.547 383.399 326.066 383.158 325.665 383.158C325.264 383.158 324.862 383.559 324.542 383.96C324.141 384.361 323.82 384.762 323.499 385.163C323.098 385.564 322.777 386.046 322.215 386.286C321.894 386.447 321.493 386.447 321.253 386.286C320.932 386.206 320.691 386.046 320.451 385.885C319.568 385.163 318.846 384.361 318.044 383.639C317.643 383.238 317.242 382.917 316.841 382.596C316.44 382.276 315.958 382.115 315.557 382.195C315.477 382.195 315.397 382.276 315.236 382.356C315.076 382.436 314.915 382.436 314.915 382.436H314.675C314.354 382.436 314.113 382.356 313.873 382.356C313.311 382.276 312.83 382.195 312.268 382.115C310.102 381.714 308.017 381.313 305.931 380.832C297.508 378.987 289.085 377.061 280.662 375.136L230.286 363.023L217.691 360.055L214.563 359.333L213.761 359.173C213.6 359.173 213.52 359.093 213.36 359.093C213.279 359.093 213.119 359.093 213.039 359.093C212.557 359.173 212.237 359.574 211.916 359.975C210.632 361.66 210.231 363.825 209.91 365.911C209.67 367.997 209.67 370.163 209.83 372.329C209.991 374.494 210.311 376.58 210.552 378.746C211.114 382.997 211.836 387.249 212.718 391.501C211.755 387.249 211.033 382.997 210.392 378.746C210.071 376.58 209.75 374.494 209.589 372.329C209.429 370.163 209.349 367.997 209.589 365.831C209.91 363.665 210.311 361.499 211.675 359.654C211.996 359.253 212.477 358.772 213.039 358.611C213.199 358.611 213.36 358.531 213.52 358.531C213.681 358.531 213.761 358.611 213.921 358.611L214.723 358.772L217.852 359.494L230.446 362.462L280.903 374.334C289.326 376.339 297.669 378.265 306.172 380.11C308.257 380.591 310.423 380.992 312.509 381.393C313.07 381.473 313.552 381.554 314.113 381.634C314.354 381.714 314.675 381.714 314.915 381.714C314.996 381.714 315.236 381.714 315.156 381.714C315.236 381.634 315.477 381.554 315.637 381.554C316.359 381.393 316.921 381.714 317.402 382.035C317.883 382.356 318.285 382.757 318.686 383.158C319.488 383.88 320.21 384.762 321.012 385.324C321.413 385.645 321.894 385.805 322.215 385.645C322.616 385.484 322.937 385.083 323.338 384.682C323.659 384.281 324.06 383.88 324.461 383.479C324.702 383.318 324.862 383.078 325.103 382.917C325.344 382.757 325.665 382.596 325.986 382.516C326.708 382.516 327.189 382.917 327.59 383.158C328.071 383.479 328.472 383.8 328.954 384.04C330.799 385.083 333.045 385.163 335.05 384.682C336.093 384.522 336.975 383.96 337.858 383.318C338.66 382.677 339.302 381.794 339.863 380.912C340.906 379.067 341.548 376.981 341.869 374.895C342.27 372.81 342.43 370.644 342.35 368.478C342.27 366.312 342.029 364.227 341.788 362.061C341.548 359.895 341.147 357.809 340.826 355.643C339.863 351.472 339.141 347.22 338.339 342.969Z" fill="white"/>
<path d="M276.494 447.092L280.184 455.515L255.316 468.911L247.375 461.371L276.494 447.092Z" fill="white" stroke="#2D2D30" stroke-miterlimit="10" stroke-linecap="round" stroke-linejoin="round"/>
<path d="M290.211 479.016C290.211 479.016 297.03 474.283 307.137 476.288C307.057 483.347 306.495 519.445 306.495 519.445C306.495 519.445 299.115 520.167 298.072 508.536C296.949 496.423 290.532 492.813 290.532 492.813C290.532 492.813 293.58 485.674 290.211 479.016Z" fill="#2D2D30"/>
<path d="M300.477 476.049C301.359 478.455 302.241 480.782 303.043 483.188L304.247 486.798C304.648 488.001 305.049 489.205 305.45 490.408V490.488V490.568L305.37 497.627L305.209 504.687C305.209 507.013 305.049 509.419 304.969 511.746C304.889 514.072 304.808 516.479 304.648 518.805C304.568 516.479 304.487 514.072 304.487 511.746C304.487 509.419 304.407 507.013 304.487 504.687V497.627L304.648 490.568V490.648C304.247 489.445 303.846 488.242 303.525 487.039L302.482 483.429C301.84 480.942 301.199 478.536 300.477 476.049Z" fill="white"/>
<path d="M306.253 208.843C306.253 208.843 309.301 198.495 326.388 200.58C344.196 202.746 348.448 224.084 344.116 235.636C339.704 247.187 327.35 253.203 327.35 253.203C327.35 253.203 329.035 270.771 298.793 268.284C294.301 257.615 291.653 251.519 296.306 230.662C294.702 215.902 299.194 208.763 306.253 208.843Z" fill="#2D2D30"/>
<path d="M343.713 223.604C343.713 223.604 359.436 255.209 360.96 267.563C362.163 277.51 351.895 288.58 351.895 288.58L321.814 280.719C321.814 280.719 318.926 244.941 320.129 237.882C321.493 230.903 343.713 223.604 343.713 223.604Z" fill="#2D2D30"/>
<path d="M330.157 241.412C330.157 241.412 329.916 258.258 329.916 260.584C329.916 262.91 334.649 264.916 339.462 264.435C334.729 273.339 324.863 282.083 314.675 281.28C304.487 280.478 302.562 271.975 303.444 264.675C309.381 264.595 314.835 262.991 314.996 255.45C315.076 247.99 330.157 241.412 330.157 241.412Z" fill="white" stroke="#2D2D30" stroke-miterlimit="10"/>
<path d="M326.866 246.145L320.369 247.268C317.481 249.594 314.994 252.482 314.914 255.45C314.833 258.979 313.63 261.145 311.785 262.509C327.668 262.108 326.866 246.145 326.866 246.145Z" fill="#2D2D30"/>
<path d="M304.186 253.418C306.729 253.051 308.473 250.549 308.08 247.831C307.688 245.112 305.308 243.206 302.765 243.573C300.222 243.941 298.478 246.442 298.871 249.161C299.263 251.879 301.643 253.785 304.186 253.418Z" stroke="#FF6679" stroke-miterlimit="10"/>
<path d="M333.687 235.635C334.248 230.662 328.392 214.618 321.895 213.094C315.397 211.57 306.974 215.18 306.974 215.18C306.974 215.18 299.434 220.073 300.717 231.865C299.995 241.251 304.086 256.332 312.269 256.412C317.082 256.492 322.456 252.24 326.628 247.427" fill="white"/>
<path d="M333.687 235.635C334.248 230.662 328.392 214.618 321.895 213.094C315.397 211.57 306.974 215.18 306.974 215.18C306.974 215.18 299.434 220.073 300.717 231.865C299.995 241.251 304.086 256.332 312.269 256.412C317.082 256.492 322.456 252.24 326.628 247.427" stroke="#2D2D30" stroke-miterlimit="10" stroke-linecap="round" stroke-linejoin="round"/>
<path d="M309.46 230.902C309.701 231.624 309.781 232.587 309.541 233.389C308.979 235.234 307.696 240.769 307.615 241.25C307.535 241.652 308.257 242.775 310.503 242.694C312.749 242.614 313.07 241.892 313.07 241.892" fill="white"/>
<path d="M309.46 230.902C309.701 231.624 309.781 232.587 309.541 233.389C308.979 235.234 307.696 240.769 307.615 241.25C307.535 241.652 308.257 242.775 310.503 242.694C312.749 242.614 313.07 241.892 313.07 241.892" stroke="#2D2D30" stroke-miterlimit="10" stroke-linecap="round" stroke-linejoin="round"/>
<path d="M307.375 245.743C307.375 245.743 313.712 245.743 315.718 245.021C313.873 248.551 309.942 249.193 307.375 245.743Z" fill="white" stroke="#2D2D30" stroke-miterlimit="10" stroke-linecap="round" stroke-linejoin="round"/>
<path d="M314.195 229.218C314.195 229.218 318.286 224.806 323.099 228.335" stroke="#2D2D30" stroke-miterlimit="10" stroke-linecap="round" stroke-linejoin="round"/>
<path d="M308.178 228.657C308.178 228.657 305.611 225.528 301.359 228.015" stroke="#2D2D30" stroke-miterlimit="10" stroke-linecap="round" stroke-linejoin="round"/>
<path d="M304.569 233.792C305.277 233.792 305.852 233.217 305.852 232.508C305.852 231.799 305.277 231.225 304.569 231.225C303.86 231.225 303.285 231.799 303.285 232.508C303.285 233.217 303.86 233.792 304.569 233.792Z" fill="#2D2D30"/>
<path d="M317.643 233.792C318.352 233.792 318.926 233.217 318.926 232.508C318.926 231.799 318.352 231.225 317.643 231.225C316.934 231.225 316.359 231.799 316.359 232.508C316.359 233.217 316.934 233.792 317.643 233.792Z" fill="#2D2D30"/>
<path d="M315.316 232.587C315.316 232.587 316.841 229.859 320.691 232.266" stroke="#2D2D30" stroke-miterlimit="10" stroke-linecap="round" stroke-linejoin="round"/>
<path d="M306.895 232.427C306.895 232.427 304.89 230.021 302.082 232.106" stroke="#2D2D30" stroke-miterlimit="10" stroke-linecap="round" stroke-linejoin="round"/>
<path d="M304.968 219.993C304.968 219.993 308.017 230.101 319.167 230.903C330.317 231.705 332.242 243.016 332.242 243.016L344.195 234.352C344.195 234.352 342.029 211.811 334.007 210.126C325.985 208.442 307.375 208.923 307.375 208.923C307.375 208.923 303.765 211.971 304.968 219.993Z" fill="#2D2D30"/>
<path d="M299.596 264.195C299.596 264.195 284.996 259.381 278.178 273.66C276.573 276.949 274.648 281.281 272.562 286.094C276.333 287.618 285.558 291.95 290.13 299.33L297.189 282.805C297.189 282.725 304.65 270.131 299.596 264.195Z" fill="#FF6679" stroke="#BA3E53" stroke-miterlimit="10"/>
<path d="M299.595 264.194L305.612 264.113C305.612 264.113 302.483 278.071 313.794 277.831C327.19 277.51 333.688 267.884 336.335 264.434C340.907 264.194 352.138 264.274 355.026 264.996C357.914 265.718 363.85 272.296 360.721 283.125C357.512 293.954 344.678 339.117 344.678 339.117H290.29V329.571C290.29 329.571 282.348 315.854 282.83 305.506C283.231 297.564 286.68 288.339 290.45 280.638" fill="#FF6679"/>
<path d="M299.595 264.194L305.612 264.113C305.612 264.113 302.483 278.071 313.794 277.831C327.19 277.51 333.688 267.884 336.335 264.434C340.907 264.194 352.138 264.274 355.026 264.996C357.914 265.718 363.85 272.296 360.721 283.125C357.512 293.954 344.678 339.117 344.678 339.117H290.29V329.571C290.29 329.571 282.348 315.854 282.83 305.506C283.231 297.564 286.68 288.339 290.45 280.638" stroke="#BA3E53" stroke-miterlimit="10" stroke-linecap="round"/>
<path d="M344.677 339.117C344.677 339.117 351.335 315.773 356.228 298.607L350.292 289.943C350.292 289.943 350.533 317.939 339.703 325.64C341.147 331.817 340.906 336.229 340.265 339.117H344.677Z" fill="#2D2D30"/>
<path d="M355.025 264.996C355.025 264.996 370.988 266.28 368.1 280.237C365.453 292.992 345.318 335.668 342.029 339.358C335.612 338.235 328.473 327.245 328.473 327.245L343.634 285.291" fill="white"/>
<path d="M355.025 264.996C355.025 264.996 370.988 266.28 368.1 280.237C365.453 292.992 345.318 335.668 342.029 339.358C335.612 338.235 328.473 327.245 328.473 327.245L343.634 285.291" stroke="#2D2D30" stroke-miterlimit="10" stroke-linecap="round" stroke-linejoin="round"/>
<path d="M342.59 288.18L340.184 294.838C341.066 294.998 353.099 297.004 359.436 303.983C361.04 300.293 362.564 296.603 363.848 293.233L342.59 288.18Z" fill="#2D2D30"/>
<path d="M344.354 283.125L340.504 293.955C344.515 294.035 355.665 294.917 361.361 299.329C364.649 291.388 367.216 284.329 368.099 280.237C370.987 266.28 355.023 264.996 355.023 264.996" fill="#FF6679"/>
<path d="M344.354 283.125L340.504 293.955C344.515 294.035 355.665 294.917 361.361 299.329C364.649 291.388 367.216 284.329 368.099 280.237C370.987 266.28 355.023 264.996 355.023 264.996" stroke="#BA3E53" stroke-miterlimit="10" stroke-linecap="round" stroke-linejoin="round"/>
<path d="M290.051 342.807C293.58 342.647 297.11 342.567 300.639 342.486C304.169 342.406 307.699 342.406 311.228 342.406C314.758 342.406 318.287 342.406 321.817 342.486L327.111 342.567C328.876 342.647 330.641 342.647 332.406 342.727C330.641 342.807 328.876 342.888 327.111 342.888L321.817 342.968C318.287 343.048 314.758 343.048 311.228 343.048C307.699 343.048 304.169 343.048 300.639 342.968C297.11 343.048 293.58 342.968 290.051 342.807Z" fill="white"/>
<path d="M344.677 334.383C344.677 334.383 339.944 345.213 332.243 343.849C324.543 342.485 285.477 326.361 285.477 326.361L287.562 319.543C287.562 319.543 313.553 324.035 322.296 324.436C328.634 324.677 336.655 325.399 336.655 325.399" fill="white"/>
<path d="M344.677 334.383C344.677 334.383 339.944 345.213 332.243 343.849C324.543 342.485 285.477 326.361 285.477 326.361L287.562 319.543C287.562 319.543 313.553 324.035 322.296 324.436C328.634 324.677 336.655 325.399 336.655 325.399" stroke="#2D2D30" stroke-miterlimit="10" stroke-linecap="round" stroke-linejoin="round"/>
<path d="M285.719 326.524C281.628 328.369 278.901 326.363 278.901 326.363C278.901 326.363 276.254 328.449 280.264 329.652C281.628 330.053 281.387 332.219 279.061 331.818C276.574 331.417 274.007 329.652 274.007 329.652C274.007 329.652 271.761 329.652 270.718 327.807C268.954 327.807 268.312 326.524 268.312 326.524C268.312 326.524 265.264 333.823 263.579 332.62C262.055 331.577 265.745 321.39 267.59 317.058C269.435 312.806 272.323 311.764 274.569 312.245C278.419 313.127 288.928 319.785 288.928 319.785" fill="white"/>
<path d="M285.719 326.524C281.628 328.369 278.901 326.363 278.901 326.363C278.901 326.363 276.254 328.449 280.264 329.652C281.628 330.053 281.387 332.219 279.061 331.818C276.574 331.417 274.007 329.652 274.007 329.652C274.007 329.652 271.761 329.652 270.718 327.807C268.954 327.807 268.312 326.524 268.312 326.524C268.312 326.524 265.264 333.823 263.579 332.62C262.055 331.577 265.745 321.39 267.59 317.058C269.435 312.806 272.323 311.764 274.569 312.245C278.419 313.127 288.928 319.785 288.928 319.785" stroke="#2D2D30" stroke-miterlimit="10" stroke-linecap="round" stroke-linejoin="round"/>
<path d="M268.314 326.523C268.314 326.523 267.511 323.956 268.314 321.148C269.196 318.341 272.565 316.736 272.565 316.736" fill="white"/>
<path d="M268.314 326.523C268.314 326.523 267.511 323.956 268.314 321.148C269.196 318.341 272.565 316.736 272.565 316.736" stroke="#2D2D30" stroke-miterlimit="10" stroke-linecap="round" stroke-linejoin="round"/>
<path d="M270.72 327.807C270.72 327.807 270.318 325 271.281 322.433C272.244 319.866 275.452 318.502 275.452 318.502" fill="white"/>
<path d="M270.72 327.807C270.72 327.807 270.318 325 271.281 322.433C272.244 319.866 275.452 318.502 275.452 318.502" stroke="#2D2D30" stroke-miterlimit="10" stroke-linecap="round" stroke-linejoin="round"/>
<path d="M274.008 329.652C274.008 329.652 273.206 327.566 274.569 324.839C275.933 322.111 278.821 320.988 278.821 320.988" fill="white"/>
<path d="M274.008 329.652C274.008 329.652 273.206 327.566 274.569 324.839C275.933 322.111 278.821 320.988 278.821 320.988" stroke="#2D2D30" stroke-miterlimit="10" stroke-linecap="round" stroke-linejoin="round"/>
<path d="M307.133 536.612V417.89L311.625 417.088L316.197 417.89V536.612L341.947 545.677H311.625H281.383L307.133 536.612Z" fill="white" stroke="#2D2D30" stroke-miterlimit="10" stroke-linecap="round" stroke-linejoin="round"/>
<path d="M307.135 417.89L311.627 417.088L316.119 417.89V433.372C313.472 429.843 309.862 426.634 307.055 424.468V417.89H307.135Z" fill="#2D2D30"/>
<path d="M270.153 418.13H353.098C357.59 418.13 361.12 414.52 361.12 410.108V406.338H262.051V410.108C262.131 414.52 265.741 418.13 270.153 418.13Z" fill="white" stroke="#2D2D30" stroke-miterlimit="10" stroke-linecap="round" stroke-linejoin="round"/>
<path d="M302.803 342.967C303.043 344.17 303.123 345.373 303.043 346.657C302.963 347.86 302.883 349.063 302.482 350.267C302.241 349.063 302.161 347.86 302.241 346.577C302.321 345.373 302.482 344.17 302.803 342.967Z" fill="white"/>
<path d="M330.799 250.714C328.232 251.116 325.825 249.19 325.424 246.463C325.023 243.735 326.788 241.249 329.355 240.848" stroke="#FF6679" stroke-miterlimit="10" stroke-linecap="round"/>
<path d="M326.867 235.073C326.867 235.073 329.274 229.698 332.884 231.463C336.814 233.469 333.285 240.688 330.236 242.132C327.188 243.496 327.348 240.287 327.348 240.287" fill="white"/>
<path d="M326.867 235.073C326.867 235.073 329.274 229.698 332.884 231.463C336.814 233.469 333.285 240.688 330.236 242.132C327.188 243.496 327.348 240.287 327.348 240.287" stroke="#2D2D30" stroke-miterlimit="10" stroke-linecap="round" stroke-linejoin="round"/>
<path d="M329.355 240.85C331.922 240.449 334.329 242.374 334.73 245.101C335.131 247.829 333.366 250.315 330.799 250.717" stroke="#FF6679" stroke-miterlimit="10" stroke-linecap="round"/>
<path d="M328.793 235.554C328.793 235.554 330.317 232.265 332.082 232.345L328.793 235.554Z" fill="white"/>
<path d="M328.793 235.554C328.793 235.554 330.317 232.265 332.082 232.345" stroke="#2D2D30" stroke-miterlimit="10" stroke-linecap="round" stroke-linejoin="round"/>
<path d="M122.234 505.57C122.234 505.57 121.592 487.682 119.506 480.542C117.501 473.483 115.656 468.75 115.094 465.14C114.613 461.611 113.249 456.718 110.201 451.985C107.153 447.252 106.11 442.679 104.265 438.669C102.42 434.577 102.42 435.299 100.174 432.893C97.9276 430.486 98.3287 427.679 95.7617 427.117" stroke="#2D2D30" stroke-miterlimit="10" stroke-linecap="round" stroke-linejoin="round"/>
<path d="M117.02 504.527C117.02 504.527 119.907 489.526 118.864 483.911C117.822 478.376 119.907 462.332 120.71 456.717C121.592 451.182 124.4 437.144 125.122 428.32C125.442 423.828 125.603 417.33 125.603 417.33" stroke="#2D2D30" stroke-miterlimit="10" stroke-linecap="round" stroke-linejoin="round"/>
<path d="M125.12 504.848C125.12 504.848 127.847 497.548 127.446 484.553C127.125 471.558 125.601 451.262 124.237 448.214C122.874 445.166 124.237 441.155 122.713 437.545C121.189 434.016 118.622 427.277 117.98 422.143C117.339 417.009 119.023 413.56 119.344 410.672C119.665 407.784 118.462 401.527 118.462 401.527" stroke="#2D2D30" stroke-miterlimit="10" stroke-linecap="round" stroke-linejoin="round"/>
<path d="M135.39 505.73C135.39 505.73 135.711 491.692 135.39 484.151C135.069 476.531 134.749 469.953 135.23 464.739C135.711 459.524 136.433 451.743 135.711 441.235C135.069 430.726 135.551 419.416 136.593 414.522C137.636 409.629 136.433 390.537 136.433 390.537" stroke="#2D2D30" stroke-miterlimit="10" stroke-linecap="round" stroke-linejoin="round"/>
<path d="M139.797 505.329C139.797 505.329 142.685 489.446 142.364 484.071C142.043 478.697 141.883 474.124 142.524 466.985C143.166 459.926 145.091 449.578 144.53 446.208C144.048 442.839 143.888 433.053 143.888 433.053" stroke="#2D2D30" stroke-miterlimit="10" stroke-linecap="round" stroke-linejoin="round"/>
<path d="M147.017 505.17C147.017 505.17 147.899 494.902 147.659 490.49C147.418 486.078 147.498 472.12 147.177 467.708C146.857 463.296 146.857 462.173 148.06 458.563C149.263 454.953 148.381 444.685 148.381 440.193C148.381 435.701 153.755 426.877 154.959 423.668C156.162 420.46 154.638 412.839 158.488 410.031" stroke="#2D2D30" stroke-miterlimit="10" stroke-linecap="round" stroke-linejoin="round"/>
<path d="M96.8827 428.722C96.8827 428.722 96.6421 426.316 95.4388 426.075C94.2356 425.835 87.9786 426.075 86.9358 425.835C85.8929 425.594 86.2137 423.268 84.0478 421.663C81.8017 419.979 80.9996 421.102 78.7535 419.578C76.5074 418.053 74.9833 417.011 74.502 417.813C74.0207 418.535 74.9833 418.936 78.5931 422.947C82.2029 426.958 81.0798 428.241 84.2885 428.963C87.4972 429.685 95.5993 429.444 96.1608 429.444C96.7223 429.444 96.8025 429.123 96.8827 428.722Z" fill="#2D2D30"/>
<path d="M118.221 402.409C118.221 402.409 119.264 402.81 119.264 401.046C119.264 399.281 118.542 396.954 118.301 394.708C118.061 392.462 117.74 388.211 117.98 387.248C118.221 386.205 118.622 379.387 118.221 377.301C117.74 375.296 117.419 374.253 116.697 374.253C115.975 374.253 114.13 372.648 114.531 377.462C114.932 382.275 115.734 382.676 115.253 385.403C114.852 388.131 113.248 389.334 114.05 391.339C114.932 393.345 116.055 394.307 116.055 396.473C116.055 398.639 116.537 402.73 118.221 402.409Z" fill="#2D2D30"/>
<path d="M124.156 414.605C124.156 414.605 124.156 418.776 126.803 417.974C129.451 417.172 130.253 413.642 130.654 411.637C131.055 409.631 131.777 396.636 131.617 395.753C131.456 394.871 129.691 392.144 128.488 391.823C127.285 391.502 124.397 398.802 124.237 402.171C124.076 405.54 124.638 411.235 124.156 414.605Z" fill="#2D2D30"/>
<path d="M134.827 355.643C134.827 355.643 135.308 361.018 134.506 363.103C133.623 365.109 132.982 366.713 132.821 370.804C132.661 374.895 132.34 379.468 132.982 381.794C133.623 384.04 134.586 385.163 134.586 387.65C134.586 390.137 135.308 391.5 137.153 391.26C138.918 391.019 138.116 366.793 137.554 359.253C136.993 351.712 137.073 351.712 135.869 351.552C134.666 351.391 134.827 352.354 134.827 355.643Z" fill="#2D2D30"/>
<path d="M144.451 433.374C144.451 433.374 143.488 433.614 142.605 432.491C141.723 431.368 142.124 424.55 141.723 422.945C141.322 421.341 141.322 410.592 141.563 408.747C141.884 406.902 142.606 402.891 143.568 402.089C144.531 401.286 145.654 401.206 145.413 404.174C145.172 407.142 145.894 414.923 145.333 419.015C144.852 423.186 145.894 432.892 144.451 433.374Z" fill="#2D2D30"/>
<path d="M164.989 404.496C164.989 404.496 162.582 408.506 161.218 410.432C159.855 412.357 158.491 413.64 157.689 412.598C156.887 411.555 157.448 410.271 157.849 408.105C158.25 405.939 158.571 404.736 159.855 402.169C161.218 399.602 163.705 393.345 166.112 393.185C168.518 393.024 167.315 396.634 167.155 398.559C167.074 400.565 166.192 402.971 164.989 404.496Z" fill="#2D2D30"/>
<path d="M100.25 501.961V516.801L119.181 545.519H145.733L164.585 516.801V501.961H100.25Z" fill="white" stroke="#2D2D30" stroke-miterlimit="10" stroke-linecap="round" stroke-linejoin="round"/>
<path d="M100.25 516.801H164.344" stroke="#2D2D30" stroke-miterlimit="10" stroke-linecap="round" stroke-linejoin="round"/>
</svg>
