<svg width="667" height="577" viewBox="0 0 667 577" fill="none" xmlns="http://www.w3.org/2000/svg">
<path d="M419.574 348.984V432.01" stroke="#2D2D30" stroke-miterlimit="10" stroke-linecap="round" stroke-linejoin="round"/>
<path d="M397.434 355.723V408.827L376.176 431.448" stroke="#2D2D30" stroke-miterlimit="10" stroke-linecap="round" stroke-linejoin="round"/>
<path d="M352.429 332.219L342.883 341.444V378.344" stroke="#2D2D30" stroke-miterlimit="10" stroke-linecap="round" stroke-linejoin="round"/>
<path d="M312.563 351.23V385.644L274.219 424.229" stroke="#2D2D30" stroke-miterlimit="10" stroke-linecap="round" stroke-linejoin="round"/>
<path d="M293.713 380.832L251.277 423.347" stroke="#2D2D30" stroke-miterlimit="10" stroke-linecap="round" stroke-linejoin="round"/>
<path d="M309.032 307.271L254.083 362.301V393.586L223.359 424.39" stroke="#2D2D30" stroke-miterlimit="10" stroke-linecap="round" stroke-linejoin="round"/>
<path d="M310.318 289.863H297.884L251.037 337.192H217.586" stroke="#2D2D30" stroke-miterlimit="10" stroke-linecap="round" stroke-linejoin="round"/>
<path d="M297.241 249.033H230.259L183.652 295.72" stroke="#2D2D30" stroke-miterlimit="10" stroke-linecap="round" stroke-linejoin="round"/>
<path d="M296.441 231.785H220.796L197.773 255.289" stroke="#2D2D30" stroke-miterlimit="10" stroke-linecap="round" stroke-linejoin="round"/>
<path d="M395.109 95.4157V56.4298L437.464 16" stroke="#2D2D30" stroke-miterlimit="10" stroke-linecap="round" stroke-linejoin="round"/>
<path d="M417.488 96.8585V72.0711L467.304 23.3789" stroke="#2D2D30" stroke-miterlimit="10" stroke-linecap="round" stroke-linejoin="round"/>
<path d="M502.359 112.904V95.8982L581.775 17.5254" stroke="#2D2D30" stroke-miterlimit="10" stroke-linecap="round" stroke-linejoin="round"/>
<path d="M521.688 100.79L603.028 19.5293" stroke="#2D2D30" stroke-miterlimit="10" stroke-linecap="round" stroke-linejoin="round"/>
<path d="M613.059 36.2949L560.757 88.5969V119.641L501.797 179.484" stroke="#2D2D30" stroke-miterlimit="10" stroke-linecap="round" stroke-linejoin="round"/>
<path d="M597.574 144.91H564.524L517.116 192.078H505.645" stroke="#2D2D30" stroke-miterlimit="10" stroke-linecap="round" stroke-linejoin="round"/>
<path d="M505.406 232.346H585.945L666.805 151.246" stroke="#2D2D30" stroke-miterlimit="10" stroke-linecap="round" stroke-linejoin="round"/>
<path d="M504.605 249.675H594.61L617.312 226.492" stroke="#2D2D30" stroke-miterlimit="10" stroke-linecap="round" stroke-linejoin="round"/>
<path d="M519.924 105.363C521.386 105.363 522.572 104.178 522.572 102.716C522.572 101.254 521.386 100.068 519.924 100.068C518.462 100.068 517.277 101.254 517.277 102.716C517.277 104.178 518.462 105.363 519.924 105.363Z" stroke="#2D2D30" stroke-miterlimit="10" stroke-linecap="round" stroke-linejoin="round"/>
<path d="M600.303 147.558C601.765 147.558 602.951 146.373 602.951 144.911C602.951 143.449 601.765 142.264 600.303 142.264C598.841 142.264 597.656 143.449 597.656 144.911C597.656 146.373 598.841 147.558 600.303 147.558Z" stroke="#2D2D30" stroke-miterlimit="10" stroke-linecap="round" stroke-linejoin="round"/>
<path d="M619.155 227.052C620.617 227.052 621.802 225.867 621.802 224.405C621.802 222.943 620.617 221.758 619.155 221.758C617.693 221.758 616.508 222.943 616.508 224.405C616.508 225.867 617.693 227.052 619.155 227.052Z" stroke="#2D2D30" stroke-miterlimit="10" stroke-linecap="round" stroke-linejoin="round"/>
<path d="M196.007 260.103C197.469 260.103 198.654 258.918 198.654 257.456C198.654 255.994 197.469 254.809 196.007 254.809C194.545 254.809 193.359 255.994 193.359 257.456C193.359 258.918 194.545 260.103 196.007 260.103Z" stroke="#2D2D30" stroke-miterlimit="10" stroke-linecap="round" stroke-linejoin="round"/>
<path d="M214.936 340.001C216.398 340.001 217.583 338.816 217.583 337.354C217.583 335.892 216.398 334.707 214.936 334.707C213.474 334.707 212.289 335.892 212.289 337.354C212.289 338.816 213.474 340.001 214.936 340.001Z" stroke="#2D2D30" stroke-miterlimit="10" stroke-linecap="round" stroke-linejoin="round"/>
<path d="M310.878 308.074C312.34 308.074 313.525 306.889 313.525 305.427C313.525 303.964 312.34 302.779 310.878 302.779C309.416 302.779 308.23 303.964 308.23 305.427C308.23 306.889 309.416 308.074 310.878 308.074Z" stroke="#2D2D30" stroke-miterlimit="10" stroke-linecap="round" stroke-linejoin="round"/>
<path d="M295.557 381.552C297.019 381.552 298.205 380.367 298.205 378.905C298.205 377.443 297.019 376.258 295.557 376.258C294.095 376.258 292.91 377.443 292.91 378.905C292.91 380.367 294.095 381.552 295.557 381.552Z" stroke="#2D2D30" stroke-miterlimit="10" stroke-linecap="round" stroke-linejoin="round"/>
<path d="M312.561 351.15C314.023 351.15 315.208 349.965 315.208 348.503C315.208 347.041 314.023 345.855 312.561 345.855C311.099 345.855 309.914 347.041 309.914 348.503C309.914 349.965 311.099 351.15 312.561 351.15Z" stroke="#2D2D30" stroke-miterlimit="10" stroke-linecap="round" stroke-linejoin="round"/>
<path d="M342.886 383.72C344.348 383.72 345.533 382.535 345.533 381.073C345.533 379.611 344.348 378.426 342.886 378.426C341.424 378.426 340.238 379.611 340.238 381.073C340.238 382.535 341.424 383.72 342.886 383.72Z" stroke="#2D2D30" stroke-miterlimit="10" stroke-linecap="round" stroke-linejoin="round"/>
<path d="M476.37 87.0737C477.832 87.0737 479.017 85.8885 479.017 84.4265C479.017 82.9645 477.832 81.7793 476.37 81.7793C474.908 81.7793 473.723 82.9645 473.723 84.4265C473.723 85.8885 474.908 87.0737 476.37 87.0737Z" stroke="#2D2D30" stroke-miterlimit="10" stroke-linecap="round" stroke-linejoin="round"/>
<path d="M476.289 112.902V87.1523" stroke="#2D2D30" stroke-miterlimit="10" stroke-linecap="round" stroke-linejoin="round"/>
<path d="M507.809 241.172V112.342C507.809 112.342 448.448 100.951 429.437 97.1807C415.479 94.3731 407.056 93.1699 403.526 92.7688C402.243 92.6083 401.039 92.6083 399.756 92.7688C396.226 93.2501 387.803 94.4533 373.846 97.1807C354.834 100.951 295.473 112.342 295.473 112.342V241.172C295.473 241.172 295.072 293.233 339.512 326.363C379.381 352.354 395.986 364.386 401.601 364.386C407.216 364.386 423.821 352.354 463.69 326.363C508.21 293.153 507.809 241.172 507.809 241.172Z" fill="#ECC91A"/>
<path d="M494.094 239.566V127.261C494.094 127.261 442.353 117.314 425.828 114.025C413.635 111.619 406.335 110.576 403.287 110.175C402.164 110.015 401.121 110.015 399.998 110.175C396.95 110.576 389.57 111.619 377.457 114.025C360.852 117.314 309.192 127.261 309.192 127.261V239.486C309.192 239.486 308.791 284.809 347.616 313.688C382.35 336.389 396.87 346.818 401.683 346.818C406.576 346.818 421.095 336.309 455.75 313.688C494.495 284.889 494.094 239.566 494.094 239.566Z" fill="white" stroke="#2D2D30" stroke-miterlimit="10" stroke-linecap="round" stroke-linejoin="round"/>
<path d="M487.835 238.766V134.242C487.835 134.242 439.624 124.937 424.223 121.888C412.912 119.642 406.013 118.68 403.205 118.279C402.163 118.118 401.2 118.118 400.157 118.279C397.35 118.68 390.451 119.642 379.14 121.888C363.738 124.937 315.527 134.242 315.527 134.242V238.766C315.527 238.766 315.207 280.96 351.305 307.914C383.632 329.011 397.189 338.797 401.681 338.797C406.254 338.797 419.73 329.011 452.058 307.914C488.156 281.041 487.835 238.766 487.835 238.766Z" fill="#ECC91A"/>
<path d="M485.827 238.525V136.327C485.827 136.327 438.739 127.262 423.658 124.294C412.588 122.129 405.849 121.166 403.122 120.765C402.159 120.604 401.117 120.604 400.154 120.765C397.346 121.086 390.688 122.048 379.618 124.294C364.537 127.262 317.449 136.327 317.449 136.327V238.525C317.449 238.525 317.129 279.757 352.424 306.068C384.03 326.684 397.266 336.23 401.678 336.23C406.09 336.23 419.326 326.684 450.932 306.068C486.147 279.837 485.827 238.525 485.827 238.525Z" fill="white" stroke="#2D2D30" stroke-miterlimit="10" stroke-linecap="round" stroke-linejoin="round"/>
<path d="M444.197 233.551V181.89C444.197 181.89 420.373 177.318 412.752 175.794C407.137 174.671 403.768 174.189 402.324 174.029C401.842 173.949 401.281 173.949 400.8 174.029C399.436 174.189 395.986 174.671 390.371 175.794C382.75 177.318 358.926 181.89 358.926 181.89V233.551C358.926 233.551 358.765 254.407 376.574 267.723C392.537 278.152 399.195 282.965 401.441 282.965C403.687 282.965 410.345 278.152 426.309 267.723C444.358 254.407 444.197 233.551 444.197 233.551Z" fill="#2D2D30"/>
<path d="M414.358 219.193H412.513V215.503C412.513 209.567 407.62 204.674 401.684 204.674C395.748 204.674 390.855 209.567 390.855 215.503V219.193H389.01C386.603 219.193 384.598 221.199 384.598 223.605V236.841C384.598 239.248 386.603 241.253 389.01 241.253H414.358C416.765 241.253 418.77 239.248 418.77 236.841V223.605C418.69 221.199 416.765 219.193 414.358 219.193ZM395.748 215.503C395.748 212.214 398.395 209.567 401.684 209.567C404.973 209.567 407.62 212.214 407.62 215.503V219.193H395.748V215.503Z" fill="white" stroke="#2D2D30" stroke-miterlimit="10" stroke-linecap="round" stroke-linejoin="round"/>
<path d="M76.3984 561.001C76.3984 498.752 126.855 448.375 189.024 448.375C251.273 448.375 301.65 498.832 301.65 561.001" fill="#8AC186"/>
<path d="M717.925 560.84C377.808 560.84 350.117 560.84 10 560.84" stroke="#2D2D30" stroke-miterlimit="10" stroke-linejoin="round"/>
<path d="M309.596 279.193C309.596 279.193 294.996 274.38 288.178 288.658C281.359 302.937 267.321 336.709 267.321 336.709C267.321 336.709 264.754 348.501 272.455 351.549C280.236 354.597 286.012 347.137 286.012 347.137L307.189 297.803C307.189 297.723 314.649 285.129 309.596 279.193Z" fill="white" stroke="#2D2D30" stroke-miterlimit="10"/>
<path d="M285.767 347.378C283.922 350.105 280.954 352.592 278.628 353.314C275.419 354.356 271.007 354.918 266.274 348.902C263.065 344.891 247.984 304.862 247.984 304.862C247.984 304.862 251.594 298.525 254.482 299.728C254.482 299.728 262.103 310.156 270.285 320.023C273.093 323.473 276.221 326.922 278.868 330.131" fill="white"/>
<path d="M285.767 347.378C283.922 350.105 280.954 352.592 278.628 353.314C275.419 354.356 271.007 354.918 266.274 348.902C263.065 344.891 247.984 304.862 247.984 304.862C247.984 304.862 251.594 298.525 254.482 299.728C254.482 299.728 262.103 310.156 270.285 320.023C273.093 323.473 276.221 326.922 278.868 330.131" stroke="#2D2D30" stroke-miterlimit="10" stroke-linecap="round" stroke-linejoin="round"/>
<path d="M282.562 301.012C282.562 301.012 294.274 312.964 295.558 319.863C295.879 321.628 296.601 321.547 297.483 320.424L303.901 305.424C302.457 303.98 288.017 289.781 282.562 301.012Z" fill="#2D2D30"/>
<path d="M249.269 305.823C249.269 305.823 246.381 305.742 242.451 301.972C238.52 298.202 238.199 292.988 238.199 292.988L242.932 286.57C242.932 286.57 239.082 272.372 240.365 270.928C241.649 269.404 242.531 275.821 244.216 278.789C245.9 281.757 249.991 287.613 249.991 287.613L255.125 300.288" fill="white"/>
<path d="M249.269 305.823C249.269 305.823 246.381 305.742 242.451 301.972C238.52 298.202 238.199 292.988 238.199 292.988L242.932 286.57C242.932 286.57 239.082 272.372 240.365 270.928C241.649 269.404 242.531 275.821 244.216 278.789C245.9 281.757 249.991 287.613 249.991 287.613L255.125 300.288" stroke="#2D2D30" stroke-miterlimit="10"/>
<path d="M251.035 281.839C251.035 281.839 231.382 272.212 227.531 267.961C223.521 275.421 207.477 290.743 203.867 291.385C214.616 299.807 224.884 311.198 224.884 311.198C224.884 311.198 242.292 301.412 251.035 281.839Z" fill="white" stroke="#2D2D30" stroke-miterlimit="10"/>
<path d="M227.051 276.305L243.255 287.455" stroke="#2D2D30" stroke-miterlimit="10"/>
<path d="M223.121 281.277L238.523 292.187" stroke="#2D2D30" stroke-miterlimit="10"/>
<path d="M219.191 284.967L234.834 296.278" stroke="#2D2D30" stroke-miterlimit="10"/>
<path d="M216.141 288.016L232.345 301.011" stroke="#2D2D30" stroke-miterlimit="10"/>
<path d="M255.688 301.974C255.688 301.974 255.367 296.76 254.404 293.791C253.442 290.823 252.399 286.171 251.677 285.93C250.955 285.689 241.971 282.481 240.366 281.518C238.762 280.556 238.922 284.406 241.168 285.609C243.415 286.813 246.944 288.497 246.944 288.497C246.944 288.497 244.457 294.273 248.468 298.685" fill="white"/>
<path d="M255.688 301.974C255.688 301.974 255.367 296.76 254.404 293.791C253.442 290.823 252.399 286.171 251.677 285.93C250.955 285.689 241.971 282.481 240.366 281.518C238.762 280.556 238.922 284.406 241.168 285.609C243.415 286.813 246.944 288.497 246.944 288.497C246.944 288.497 244.457 294.273 248.468 298.685" stroke="#2D2D30" stroke-miterlimit="10"/>
<path d="M300.207 354.198L292.105 374.734L360.531 373.53L354.756 357.326L354.515 353.877L300.207 354.198Z" fill="#2D2D30"/>
<path d="M318.1 357.566C318.1 359.411 318.019 361.176 317.859 363.021C317.699 364.866 317.458 366.631 317.217 368.396V368.637L317.057 368.717C316.495 368.877 315.854 368.957 315.292 369.118C314.65 369.198 314.089 369.358 313.527 369.439C314.089 369.198 314.65 368.957 315.212 368.717C315.773 368.476 316.335 368.316 316.896 368.075L316.656 368.316C316.736 366.471 316.977 364.706 317.217 362.941C317.378 361.176 317.699 359.411 318.1 357.566Z" fill="white"/>
<path d="M305.907 364.949L201.383 356.606C200.26 356.526 199.378 355.483 199.458 354.36C199.538 353.237 200.581 352.355 201.704 352.435L306.148 360.777C307.271 360.858 308.153 361.9 308.073 363.024C307.993 364.227 307.03 365.029 305.907 364.949Z" fill="#2D2D30"/>
<path d="M306.87 365.91L198.817 357.327C197.694 357.247 196.812 356.204 196.892 355.081C196.972 353.958 198.015 353.075 199.138 353.155L307.191 361.739C308.314 361.819 309.197 362.862 309.117 363.985C309.036 365.188 307.993 365.99 306.87 365.91Z" fill="white" stroke="#2D2D30" stroke-miterlimit="10" stroke-linejoin="round"/>
<path d="M250.234 304.945L187.664 299.971C185.579 299.811 183.012 301.977 183.413 303.501L198.013 350.188C198.253 351.07 199.055 351.792 200.018 351.872L262.989 358.37C264.593 358.53 267.321 356.766 266.679 354.118L252.24 306.629C251.919 305.667 251.197 305.025 250.234 304.945Z" fill="#2D2D30"/>
<path d="M248.388 306.307L185.818 301.334C184.294 301.173 183.091 302.698 183.492 304.142L196.166 351.47C196.407 352.352 197.209 353.074 198.172 353.155L262.507 358.289C264.111 358.449 265.314 356.925 264.833 355.401L250.394 307.912C250.073 307.029 249.351 306.388 248.388 306.307Z" fill="white" stroke="#2D2D30" stroke-miterlimit="10" stroke-linejoin="round"/>
<path d="M227.868 332.507C228.245 330.145 226.103 327.839 223.084 327.358C220.066 326.876 217.313 328.401 216.936 330.763C216.559 333.126 218.701 335.431 221.72 335.913C224.738 336.394 227.491 334.869 227.868 332.507Z" fill="#8AC186"/>
<path d="M285.13 470.594L300.452 493.857C300.452 493.857 306.869 507.494 300.933 507.574L268.766 480.701L285.13 470.594Z" fill="white" stroke="#2D2D30" stroke-miterlimit="10" stroke-linecap="round" stroke-linejoin="round"/>
<path d="M288.018 475.086L285.13 470.594L268.766 480.781L274.301 485.594L288.018 475.086Z" fill="#2D2D30"/>
<path d="M205.07 377.141L220.472 453.027H239.805C239.805 453.027 243.013 419.897 240.847 407.784C238.682 395.43 234.911 390.056 234.911 390.056" fill="#2D2D30"/>
<path d="M230.58 391.338L236.918 393.905C238.121 396.793 239.725 401.285 240.848 407.863C243.014 419.976 239.805 453.106 239.805 453.106H220.473L215.82 430.163C217.344 423.585 220.553 410.67 221.917 408.825C223.842 406.339 230.58 391.338 230.58 391.338Z" fill="#2D2D30"/>
<path d="M240.284 456.316L238.84 489.927C238.84 489.927 235.15 501.799 227.931 497.708C224 473.001 220.551 452.305 220.551 452.305L240.284 456.316Z" fill="white" stroke="#2D2D30" stroke-miterlimit="10" stroke-linecap="round" stroke-linejoin="round"/>
<path d="M221.513 459.202L239.963 462.17L240.204 456.314L225.043 453.186L220.551 452.945C220.791 453.988 221.112 456.154 221.513 459.202Z" fill="#2D2D30"/>
<path d="M244.697 458.481L217.263 455.834L215.578 443.721L244.136 448.213L244.697 458.481Z" fill="white" stroke="#2D2D30" stroke-miterlimit="10" stroke-linecap="round" stroke-linejoin="round"/>
<path d="M238.84 489.445C238.84 489.445 246.541 492.494 250.391 502.12C244.455 505.89 213.972 525.303 213.972 525.303C213.972 525.303 209.32 519.607 218.465 512.227C227.93 504.607 227.449 497.226 227.449 497.226C227.449 497.226 235.07 495.943 238.84 489.445Z" fill="#2D2D30"/>
<path d="M246.859 496.424C245.335 498.429 243.811 500.515 242.287 502.52L239.96 505.488C239.158 506.531 238.356 507.494 237.634 508.457V508.537H237.554L231.617 512.387L225.601 516.157C223.596 517.441 221.59 518.644 219.585 519.847C217.579 521.051 215.574 522.254 213.488 523.457C215.414 522.094 217.339 520.73 219.344 519.446C221.269 518.163 223.275 516.799 225.2 515.516L231.136 511.665L237.153 507.895L237.072 507.975C237.875 507.013 238.677 505.97 239.479 505.007L241.966 502.119C243.57 500.274 245.255 498.349 246.859 496.424Z" fill="white"/>
<path d="M334.946 420.779C334.946 420.779 262.991 429.202 265.638 431.929C269.328 435.699 271.895 439.71 273.579 443.641C276.467 450.459 283.045 468.107 283.045 468.107L262.429 476.771C262.429 476.771 224.326 432.33 221.277 428.4C218.229 424.469 217.186 409.067 224.566 405.377C231.946 401.687 269.408 395.27 269.408 395.27L334.946 420.779Z" fill="#2D2D30"/>
<path d="M262.504 476.691L251.434 463.936L240.444 451.182L229.454 438.347L224 431.93L221.272 428.721C220.791 428.159 220.39 427.518 220.149 426.796C219.828 426.154 219.668 425.432 219.427 424.71C218.705 421.902 218.545 419.095 218.705 416.207C218.946 413.399 219.507 410.511 221.112 408.025C221.914 406.821 222.957 405.698 224.24 404.976C224.882 404.655 225.524 404.415 226.246 404.094L228.251 403.452C230.979 402.65 233.706 401.928 236.433 401.286C247.423 398.8 258.493 396.794 269.563 395.029C264.028 396.072 258.493 397.115 253.039 398.238C247.504 399.361 242.049 400.484 236.594 401.848C233.866 402.49 231.139 403.212 228.492 404.014L226.486 404.655C225.845 404.976 225.203 405.137 224.641 405.458C223.438 406.099 222.556 407.142 221.834 408.265C220.39 410.592 219.828 413.399 219.588 416.127C219.427 418.854 219.588 421.662 220.31 424.389C220.631 425.753 221.112 427.036 221.994 428.079L224.722 431.288L230.176 437.705L241.086 450.54L251.915 463.455L262.504 476.691Z" fill="white"/>
<path d="M270.128 411.072L249.432 418.212L246.865 419.094L245.582 419.575C245.421 419.656 245.181 419.736 245.02 419.816C244.86 419.896 244.699 420.057 244.699 420.137C244.619 420.217 244.699 420.378 244.619 420.698C244.619 421.019 244.459 421.26 244.298 421.501C243.977 421.902 243.576 422.223 243.095 422.463C242.854 422.543 242.614 422.704 242.293 422.704C242.132 422.704 241.972 422.704 241.892 422.704C241.812 422.704 241.731 422.704 241.731 422.704C241.651 422.704 241.571 422.704 241.731 422.704C241.812 422.704 241.892 422.624 241.892 422.543L241.972 422.463C241.972 422.383 241.972 422.463 241.972 422.463C241.972 422.463 241.972 422.543 241.972 422.624L242.052 422.944C242.132 423.185 242.213 423.346 242.293 423.506C243.175 425.03 244.218 426.554 245.181 428.078L248.229 432.651L260.342 450.941L266.358 460.085L272.375 469.23C268.123 463.294 263.952 457.278 259.861 451.261C255.769 445.245 251.678 439.149 247.587 433.132L244.619 428.56C243.657 427.036 242.614 425.511 241.731 423.827C241.651 423.586 241.491 423.346 241.41 423.185L241.33 422.864C241.33 422.784 241.33 422.784 241.25 422.624C241.25 422.543 241.25 422.543 241.25 422.463C241.25 422.383 241.25 422.303 241.33 422.303C241.411 422.223 241.491 422.142 241.571 422.142C241.812 422.142 241.812 422.142 241.892 422.142C241.972 422.142 241.972 422.142 242.052 422.142C242.132 422.142 242.213 422.142 242.293 422.142C242.453 422.142 242.614 422.062 242.854 421.982C243.175 421.821 243.576 421.501 243.817 421.26C243.897 421.1 243.977 420.939 244.058 420.779C244.058 420.618 244.058 420.378 244.218 419.976C244.619 419.335 245.1 419.254 245.502 419.094C245.903 418.934 246.384 418.773 246.785 418.613L249.352 417.73C256.171 415.324 263.149 413.158 270.128 411.072Z" fill="white"/>
<path d="M354.677 356.766C354.677 356.766 370.319 382.435 360.693 403.292C351.067 424.149 328.285 426.074 303.337 417.811C278.389 409.549 224.002 391.741 224.002 391.741L205.07 377.221C205.07 377.221 205.07 361.819 217.183 359.413C229.296 357.006 324.996 368.157 324.996 368.157" fill="#2D2D30"/>
<path d="M217.184 359.331C219.43 358.93 221.676 358.93 223.922 358.85C226.168 358.85 228.414 358.85 230.66 358.93C235.152 359.09 239.645 359.331 244.217 359.652C253.201 360.294 262.186 361.096 271.17 361.898C280.155 362.78 289.139 363.743 298.123 364.706C307.108 365.748 316.092 366.791 324.996 367.994L298.043 365.267C289.059 364.385 280.074 363.422 271.09 362.62C262.106 361.737 253.121 360.935 244.137 360.213C239.645 359.812 235.152 359.491 230.66 359.251C228.414 359.09 226.168 359.01 223.922 358.93C221.676 359.09 219.43 359.01 217.184 359.331Z" fill="white"/>
<path d="M360.695 403.211C358.288 408.586 354.598 413.479 349.625 416.768C347.138 418.453 344.41 419.736 341.603 420.619C338.795 421.501 335.827 422.063 332.859 422.383C326.923 422.945 320.987 422.383 315.131 421.26C312.243 420.699 309.355 419.977 306.467 419.175C303.66 418.373 300.852 417.41 298.044 416.447L264.433 405.297L247.668 399.682L231.062 393.986L247.908 399.361L264.754 404.816L298.365 415.806C301.173 416.688 303.981 417.651 306.788 418.533C309.596 419.335 312.484 420.057 315.371 420.699C321.147 421.822 327.003 422.383 332.859 421.902C335.747 421.661 338.715 421.18 341.442 420.298C344.25 419.415 346.897 418.212 349.384 416.608C354.357 413.319 358.208 408.586 360.695 403.211Z" fill="white"/>
<path d="M348.339 357.969C349.141 362.22 349.943 366.472 350.665 370.723C351.066 372.889 351.387 374.975 351.708 377.141C352.029 379.307 352.35 381.392 352.43 383.558C352.51 385.724 352.27 387.89 351.949 390.056C351.548 392.222 350.986 394.307 349.863 396.233C349.302 397.195 348.66 398.078 347.778 398.8C346.895 399.441 345.933 400.083 344.81 400.244C343.686 400.484 342.644 400.564 341.521 400.484C340.397 400.404 339.274 400.083 338.312 399.602C337.83 399.361 337.349 399.04 336.948 398.719C336.547 398.399 336.066 398.158 335.665 398.158C335.264 398.158 334.862 398.559 334.542 398.96C334.141 399.361 333.82 399.762 333.499 400.163C333.098 400.564 332.777 401.046 332.215 401.286C331.894 401.447 331.493 401.447 331.253 401.286C330.932 401.206 330.691 401.046 330.451 400.885C329.568 400.163 328.846 399.361 328.044 398.639C327.643 398.238 327.242 397.917 326.841 397.596C326.44 397.276 325.958 397.115 325.557 397.195C325.477 397.195 325.397 397.276 325.236 397.356C325.076 397.436 324.915 397.436 324.915 397.436H324.675C324.354 397.436 324.113 397.356 323.873 397.356C323.311 397.276 322.83 397.195 322.268 397.115C320.102 396.714 318.017 396.313 315.931 395.832C307.508 393.987 299.085 392.061 290.662 390.136L240.286 378.023L227.691 375.055L224.563 374.333L223.761 374.173C223.6 374.173 223.52 374.093 223.36 374.093C223.279 374.093 223.119 374.093 223.039 374.093C222.557 374.173 222.237 374.574 221.916 374.975C220.632 376.66 220.231 378.825 219.91 380.911C219.67 382.997 219.67 385.163 219.83 387.329C219.991 389.494 220.311 391.58 220.552 393.746C221.114 397.997 221.836 402.249 222.718 406.501C221.755 402.249 221.033 397.997 220.392 393.746C220.071 391.58 219.75 389.494 219.589 387.329C219.429 385.163 219.349 382.997 219.589 380.831C219.91 378.665 220.311 376.499 221.675 374.654C221.996 374.253 222.477 373.772 223.039 373.611C223.199 373.611 223.36 373.531 223.52 373.531C223.681 373.531 223.761 373.611 223.921 373.611L224.723 373.772L227.852 374.494L240.446 377.462L290.903 389.334C299.326 391.339 307.669 393.265 316.172 395.11C318.257 395.591 320.423 395.992 322.509 396.393C323.07 396.473 323.552 396.554 324.113 396.634C324.354 396.714 324.675 396.714 324.915 396.714C324.996 396.714 325.236 396.714 325.156 396.714C325.236 396.634 325.477 396.554 325.637 396.554C326.359 396.393 326.921 396.714 327.402 397.035C327.883 397.356 328.285 397.757 328.686 398.158C329.488 398.88 330.21 399.762 331.012 400.324C331.413 400.645 331.894 400.805 332.215 400.645C332.616 400.484 332.937 400.083 333.338 399.682C333.659 399.281 334.06 398.88 334.461 398.479C334.702 398.318 334.862 398.078 335.103 397.917C335.344 397.757 335.665 397.596 335.986 397.516C336.708 397.516 337.189 397.917 337.59 398.158C338.071 398.479 338.472 398.8 338.954 399.04C340.799 400.083 343.045 400.163 345.05 399.682C346.093 399.522 346.975 398.96 347.858 398.318C348.66 397.677 349.302 396.794 349.863 395.912C350.906 394.067 351.548 391.981 351.869 389.895C352.27 387.81 352.43 385.644 352.35 383.478C352.27 381.312 352.029 379.227 351.788 377.061C351.548 374.895 351.147 372.809 350.826 370.643C349.863 366.472 349.141 362.22 348.339 357.969Z" fill="white"/>
<path d="M286.494 462.092L290.184 470.515L265.316 483.911L257.375 476.371L286.494 462.092Z" fill="white" stroke="#2D2D30" stroke-miterlimit="10" stroke-linecap="round" stroke-linejoin="round"/>
<path d="M300.211 494.016C300.211 494.016 307.03 489.283 317.137 491.288C317.057 498.347 316.495 534.445 316.495 534.445C316.495 534.445 309.115 535.167 308.072 523.536C306.949 511.423 300.532 507.813 300.532 507.813C300.532 507.813 303.58 500.674 300.211 494.016Z" fill="#2D2D30"/>
<path d="M310.477 491.049C311.359 493.455 312.241 495.782 313.043 498.188L314.247 501.798C314.648 503.001 315.049 504.205 315.45 505.408V505.488V505.568L315.37 512.627L315.209 519.687C315.209 522.013 315.049 524.419 314.969 526.746C314.889 529.072 314.808 531.479 314.648 533.805C314.568 531.479 314.487 529.072 314.487 526.746C314.487 524.419 314.407 522.013 314.487 519.687V512.627L314.648 505.568V505.648C314.247 504.445 313.846 503.242 313.525 502.039L312.482 498.429C311.84 495.942 311.199 493.536 310.477 491.049Z" fill="white"/>
<path d="M316.253 223.843C316.253 223.843 319.301 213.495 336.388 215.58C354.196 217.746 358.448 239.084 354.116 250.636C349.704 262.187 337.35 268.203 337.35 268.203C337.35 268.203 339.035 285.771 308.793 283.284C304.301 272.615 301.653 266.519 306.306 245.662C304.702 230.902 309.194 223.763 316.253 223.843Z" fill="#2D2D30"/>
<path d="M353.713 238.604C353.713 238.604 369.436 270.209 370.96 282.563C372.163 292.51 361.895 303.58 361.895 303.58L331.814 295.719C331.814 295.719 328.926 259.941 330.129 252.882C331.493 245.903 353.713 238.604 353.713 238.604Z" fill="#2D2D30"/>
<path d="M340.157 256.412C340.157 256.412 339.916 273.258 339.916 275.584C339.916 277.91 344.649 279.916 349.462 279.435C344.729 288.339 334.863 297.083 324.675 296.28C314.487 295.478 312.562 286.975 313.444 279.675C319.381 279.595 324.835 277.991 324.996 270.45C325.076 262.99 340.157 256.412 340.157 256.412Z" fill="white" stroke="#2D2D30" stroke-miterlimit="10"/>
<path d="M336.866 261.145L330.369 262.268C327.481 264.594 324.994 267.482 324.914 270.45C324.833 273.979 323.63 276.145 321.785 277.509C337.668 277.108 336.866 261.145 336.866 261.145Z" fill="#2D2D30"/>
<path d="M314.186 268.418C316.729 268.051 318.473 265.549 318.08 262.831C317.688 260.112 315.308 258.206 312.765 258.573C310.222 258.941 308.478 261.442 308.871 264.161C309.263 266.879 311.643 268.785 314.186 268.418Z" stroke="#FF6679" stroke-miterlimit="10"/>
<path d="M343.687 250.635C344.248 245.662 338.392 229.618 331.895 228.094C325.397 226.57 316.974 230.18 316.974 230.18C316.974 230.18 309.434 235.073 310.717 246.865C309.995 256.251 314.086 271.332 322.269 271.412C327.082 271.492 332.456 267.24 336.628 262.427" fill="white"/>
<path d="M343.687 250.635C344.248 245.662 338.392 229.618 331.895 228.094C325.397 226.57 316.974 230.18 316.974 230.18C316.974 230.18 309.434 235.073 310.717 246.865C309.995 256.251 314.086 271.332 322.269 271.412C327.082 271.492 332.456 267.24 336.628 262.427" stroke="#2D2D30" stroke-miterlimit="10" stroke-linecap="round" stroke-linejoin="round"/>
<path d="M319.46 245.902C319.701 246.624 319.781 247.587 319.541 248.389C318.979 250.234 317.696 255.769 317.615 256.25C317.535 256.652 318.257 257.775 320.503 257.694C322.749 257.614 323.07 256.892 323.07 256.892" fill="white"/>
<path d="M319.46 245.902C319.701 246.624 319.781 247.587 319.541 248.389C318.979 250.234 317.696 255.769 317.615 256.25C317.535 256.652 318.257 257.775 320.503 257.694C322.749 257.614 323.07 256.892 323.07 256.892" stroke="#2D2D30" stroke-miterlimit="10" stroke-linecap="round" stroke-linejoin="round"/>
<path d="M317.375 260.743C317.375 260.743 323.712 260.743 325.718 260.021C323.873 263.551 319.942 264.193 317.375 260.743Z" fill="white" stroke="#2D2D30" stroke-miterlimit="10" stroke-linecap="round" stroke-linejoin="round"/>
<path d="M324.195 244.218C324.195 244.218 328.286 239.806 333.099 243.335" stroke="#2D2D30" stroke-miterlimit="10" stroke-linecap="round" stroke-linejoin="round"/>
<path d="M318.178 243.657C318.178 243.657 315.611 240.528 311.359 243.015" stroke="#2D2D30" stroke-miterlimit="10" stroke-linecap="round" stroke-linejoin="round"/>
<path d="M314.569 248.792C315.277 248.792 315.852 248.217 315.852 247.508C315.852 246.799 315.277 246.225 314.569 246.225C313.86 246.225 313.285 246.799 313.285 247.508C313.285 248.217 313.86 248.792 314.569 248.792Z" fill="#2D2D30"/>
<path d="M327.643 248.792C328.352 248.792 328.926 248.217 328.926 247.508C328.926 246.799 328.352 246.225 327.643 246.225C326.934 246.225 326.359 246.799 326.359 247.508C326.359 248.217 326.934 248.792 327.643 248.792Z" fill="#2D2D30"/>
<path d="M325.316 247.587C325.316 247.587 326.841 244.859 330.691 247.266" stroke="#2D2D30" stroke-miterlimit="10" stroke-linecap="round" stroke-linejoin="round"/>
<path d="M316.895 247.427C316.895 247.427 314.89 245.021 312.082 247.106" stroke="#2D2D30" stroke-miterlimit="10" stroke-linecap="round" stroke-linejoin="round"/>
<path d="M314.968 234.993C314.968 234.993 318.017 245.101 329.167 245.903C340.317 246.705 342.242 258.016 342.242 258.016L354.195 249.352C354.195 249.352 352.029 226.811 344.007 225.126C335.985 223.442 317.375 223.923 317.375 223.923C317.375 223.923 313.765 226.971 314.968 234.993Z" fill="#2D2D30"/>
<path d="M309.596 279.195C309.596 279.195 294.996 274.381 288.178 288.66C286.573 291.949 284.648 296.281 282.562 301.094C286.333 302.618 295.558 306.95 300.13 314.33L307.189 297.805C307.189 297.725 314.65 285.131 309.596 279.195Z" fill="#FF6679" stroke="#BA3E53" stroke-miterlimit="10"/>
<path d="M309.595 279.194L315.612 279.113C315.612 279.113 312.483 293.071 323.794 292.831C337.19 292.51 343.688 282.884 346.335 279.434C350.907 279.194 362.138 279.274 365.026 279.996C367.914 280.718 373.85 287.296 370.721 298.125C367.512 308.954 354.678 354.117 354.678 354.117H300.29V344.571C300.29 344.571 292.348 330.854 292.83 320.506C293.231 312.564 296.68 303.339 300.45 295.638" fill="#FF6679"/>
<path d="M309.595 279.194L315.612 279.113C315.612 279.113 312.483 293.071 323.794 292.831C337.19 292.51 343.688 282.884 346.335 279.434C350.907 279.194 362.138 279.274 365.026 279.996C367.914 280.718 373.85 287.296 370.721 298.125C367.512 308.954 354.678 354.117 354.678 354.117H300.29V344.571C300.29 344.571 292.348 330.854 292.83 320.506C293.231 312.564 296.68 303.339 300.45 295.638" stroke="#BA3E53" stroke-miterlimit="10" stroke-linecap="round"/>
<path d="M354.677 354.117C354.677 354.117 361.335 330.773 366.228 313.607L360.292 304.943C360.292 304.943 360.533 332.939 349.703 340.64C351.147 346.817 350.906 351.229 350.265 354.117H354.677Z" fill="#2D2D30"/>
<path d="M365.025 279.996C365.025 279.996 380.988 281.28 378.1 295.237C375.453 307.992 355.318 350.668 352.029 354.358C345.612 353.235 338.473 342.245 338.473 342.245L353.634 300.291" fill="white"/>
<path d="M365.025 279.996C365.025 279.996 380.988 281.28 378.1 295.237C375.453 307.992 355.318 350.668 352.029 354.358C345.612 353.235 338.473 342.245 338.473 342.245L353.634 300.291" stroke="#2D2D30" stroke-miterlimit="10" stroke-linecap="round" stroke-linejoin="round"/>
<path d="M352.59 303.18L350.184 309.838C351.066 309.998 363.099 312.004 369.436 318.983C371.04 315.293 372.564 311.603 373.848 308.233L352.59 303.18Z" fill="#2D2D30"/>
<path d="M354.354 298.125L350.504 308.955C354.515 309.035 365.665 309.917 371.361 314.329C374.649 306.388 377.216 299.329 378.099 295.237C380.987 281.28 365.023 279.996 365.023 279.996" fill="#FF6679"/>
<path d="M354.354 298.125L350.504 308.955C354.515 309.035 365.665 309.917 371.361 314.329C374.649 306.388 377.216 299.329 378.099 295.237C380.987 281.28 365.023 279.996 365.023 279.996" stroke="#BA3E53" stroke-miterlimit="10" stroke-linecap="round" stroke-linejoin="round"/>
<path d="M300.051 357.807C303.58 357.647 307.11 357.567 310.639 357.486C314.169 357.406 317.699 357.406 321.228 357.406C324.758 357.406 328.287 357.406 331.817 357.486L337.111 357.567C338.876 357.647 340.641 357.647 342.406 357.727C340.641 357.807 338.876 357.888 337.111 357.888L331.817 357.968C328.287 358.048 324.758 358.048 321.228 358.048C317.699 358.048 314.169 358.048 310.639 357.968C307.11 358.048 303.58 357.968 300.051 357.807Z" fill="white"/>
<path d="M354.677 349.383C354.677 349.383 349.944 360.213 342.243 358.849C334.543 357.485 295.477 341.361 295.477 341.361L297.562 334.543C297.562 334.543 323.553 339.035 332.296 339.436C338.634 339.677 346.655 340.399 346.655 340.399" fill="white"/>
<path d="M354.677 349.383C354.677 349.383 349.944 360.213 342.243 358.849C334.543 357.485 295.477 341.361 295.477 341.361L297.562 334.543C297.562 334.543 323.553 339.035 332.296 339.436C338.634 339.677 346.655 340.399 346.655 340.399" stroke="#2D2D30" stroke-miterlimit="10" stroke-linecap="round" stroke-linejoin="round"/>
<path d="M295.719 341.524C291.628 343.369 288.901 341.363 288.901 341.363C288.901 341.363 286.254 343.449 290.264 344.652C291.628 345.053 291.387 347.219 289.061 346.818C286.574 346.417 284.007 344.652 284.007 344.652C284.007 344.652 281.761 344.652 280.718 342.807C278.954 342.807 278.312 341.524 278.312 341.524C278.312 341.524 275.264 348.823 273.579 347.62C272.055 346.577 275.745 336.39 277.59 332.058C279.435 327.806 282.323 326.764 284.569 327.245C288.419 328.127 298.928 334.785 298.928 334.785" fill="white"/>
<path d="M295.719 341.524C291.628 343.369 288.901 341.363 288.901 341.363C288.901 341.363 286.254 343.449 290.264 344.652C291.628 345.053 291.387 347.219 289.061 346.818C286.574 346.417 284.007 344.652 284.007 344.652C284.007 344.652 281.761 344.652 280.718 342.807C278.954 342.807 278.312 341.524 278.312 341.524C278.312 341.524 275.264 348.823 273.579 347.62C272.055 346.577 275.745 336.39 277.59 332.058C279.435 327.806 282.323 326.764 284.569 327.245C288.419 328.127 298.928 334.785 298.928 334.785" stroke="#2D2D30" stroke-miterlimit="10" stroke-linecap="round" stroke-linejoin="round"/>
<path d="M278.314 341.523C278.314 341.523 277.511 338.956 278.314 336.148C279.196 333.341 282.565 331.736 282.565 331.736" fill="white"/>
<path d="M278.314 341.523C278.314 341.523 277.511 338.956 278.314 336.148C279.196 333.341 282.565 331.736 282.565 331.736" stroke="#2D2D30" stroke-miterlimit="10" stroke-linecap="round" stroke-linejoin="round"/>
<path d="M280.72 342.807C280.72 342.807 280.318 340 281.281 337.433C282.244 334.866 285.452 333.502 285.452 333.502" fill="white"/>
<path d="M280.72 342.807C280.72 342.807 280.318 340 281.281 337.433C282.244 334.866 285.452 333.502 285.452 333.502" stroke="#2D2D30" stroke-miterlimit="10" stroke-linecap="round" stroke-linejoin="round"/>
<path d="M284.008 344.652C284.008 344.652 283.206 342.566 284.569 339.839C285.933 337.111 288.821 335.988 288.821 335.988" fill="white"/>
<path d="M284.008 344.652C284.008 344.652 283.206 342.566 284.569 339.839C285.933 337.111 288.821 335.988 288.821 335.988" stroke="#2D2D30" stroke-miterlimit="10" stroke-linecap="round" stroke-linejoin="round"/>
<path d="M317.133 551.612V432.89L321.625 432.088L326.197 432.89V551.612L351.947 560.677H321.625H291.383L317.133 551.612Z" fill="white" stroke="#2D2D30" stroke-miterlimit="10" stroke-linecap="round" stroke-linejoin="round"/>
<path d="M317.135 432.89L321.627 432.088L326.119 432.89V448.372C323.472 444.843 319.862 441.634 317.055 439.468V432.89H317.135Z" fill="#2D2D30"/>
<path d="M280.153 433.13H363.098C367.59 433.13 371.12 429.52 371.12 425.108V421.338H272.051V425.108C272.131 429.52 275.741 433.13 280.153 433.13Z" fill="white" stroke="#2D2D30" stroke-miterlimit="10" stroke-linecap="round" stroke-linejoin="round"/>
<path d="M312.803 357.967C313.043 359.17 313.123 360.373 313.043 361.657C312.963 362.86 312.883 364.063 312.482 365.267C312.241 364.063 312.161 362.86 312.241 361.577C312.321 360.373 312.482 359.17 312.803 357.967Z" fill="white"/>
<path d="M340.799 265.714C338.232 266.116 335.825 264.19 335.424 261.463C335.023 258.735 336.788 256.249 339.355 255.848" stroke="#FF6679" stroke-miterlimit="10" stroke-linecap="round"/>
<path d="M336.867 250.073C336.867 250.073 339.274 244.698 342.884 246.463C346.814 248.469 343.285 255.688 340.236 257.132C337.188 258.496 337.348 255.287 337.348 255.287" fill="white"/>
<path d="M336.867 250.073C336.867 250.073 339.274 244.698 342.884 246.463C346.814 248.469 343.285 255.688 340.236 257.132C337.188 258.496 337.348 255.287 337.348 255.287" stroke="#2D2D30" stroke-miterlimit="10" stroke-linecap="round" stroke-linejoin="round"/>
<path d="M339.355 255.85C341.922 255.449 344.329 257.374 344.73 260.101C345.131 262.829 343.366 265.315 340.799 265.717" stroke="#FF6679" stroke-miterlimit="10" stroke-linecap="round"/>
<path d="M338.793 250.554C338.793 250.554 340.317 247.265 342.082 247.345L338.793 250.554Z" fill="white"/>
<path d="M338.793 250.554C338.793 250.554 340.317 247.265 342.082 247.345" stroke="#2D2D30" stroke-miterlimit="10" stroke-linecap="round" stroke-linejoin="round"/>
<path d="M132.234 520.57C132.234 520.57 131.592 502.682 129.506 495.542C127.501 488.483 125.656 483.75 125.094 480.14C124.613 476.611 123.249 471.718 120.201 466.985C117.153 462.252 116.11 457.679 114.265 453.669C112.42 449.577 112.42 450.299 110.174 447.893C107.928 445.486 108.329 442.679 105.762 442.117" stroke="#2D2D30" stroke-miterlimit="10" stroke-linecap="round" stroke-linejoin="round"/>
<path d="M127.02 519.527C127.02 519.527 129.907 504.526 128.864 498.911C127.822 493.376 129.907 477.332 130.71 471.717C131.592 466.182 134.4 452.144 135.122 443.32C135.442 438.828 135.603 432.33 135.603 432.33" stroke="#2D2D30" stroke-miterlimit="10" stroke-linecap="round" stroke-linejoin="round"/>
<path d="M135.12 519.848C135.12 519.848 137.847 512.548 137.446 499.553C137.125 486.558 135.601 466.262 134.237 463.214C132.874 460.166 134.237 456.155 132.713 452.545C131.189 449.016 128.622 442.277 127.98 437.143C127.339 432.009 129.023 428.56 129.344 425.672C129.665 422.784 128.462 416.527 128.462 416.527" stroke="#2D2D30" stroke-miterlimit="10" stroke-linecap="round" stroke-linejoin="round"/>
<path d="M145.39 520.73C145.39 520.73 145.711 506.692 145.39 499.151C145.069 491.531 144.749 484.953 145.23 479.739C145.711 474.524 146.433 466.743 145.711 456.235C145.069 445.726 145.551 434.416 146.593 429.522C147.636 424.629 146.433 405.537 146.433 405.537" stroke="#2D2D30" stroke-miterlimit="10" stroke-linecap="round" stroke-linejoin="round"/>
<path d="M149.797 520.329C149.797 520.329 152.685 504.446 152.364 499.071C152.043 493.697 151.883 489.124 152.524 481.985C153.166 474.926 155.091 464.578 154.53 461.208C154.048 457.839 153.888 448.053 153.888 448.053" stroke="#2D2D30" stroke-miterlimit="10" stroke-linecap="round" stroke-linejoin="round"/>
<path d="M157.017 520.17C157.017 520.17 157.899 509.902 157.659 505.49C157.418 501.078 157.498 487.12 157.177 482.708C156.857 478.296 156.857 477.173 158.06 473.563C159.263 469.953 158.381 459.685 158.381 455.193C158.381 450.701 163.755 441.877 164.959 438.668C166.162 435.46 164.638 427.839 168.488 425.031" stroke="#2D2D30" stroke-miterlimit="10" stroke-linecap="round" stroke-linejoin="round"/>
<path d="M106.883 443.722C106.883 443.722 106.642 441.316 105.439 441.075C104.236 440.835 97.9786 441.075 96.9358 440.835C95.8929 440.594 96.2137 438.268 94.0478 436.663C91.8017 434.979 90.9996 436.102 88.7535 434.578C86.5074 433.053 84.9833 432.011 84.502 432.813C84.0207 433.535 84.9833 433.936 88.5931 437.947C92.2029 441.958 91.0798 443.241 94.2885 443.963C97.4972 444.685 105.599 444.444 106.161 444.444C106.722 444.444 106.802 444.123 106.883 443.722Z" fill="#2D2D30"/>
<path d="M128.221 417.409C128.221 417.409 129.264 417.81 129.264 416.046C129.264 414.281 128.542 411.954 128.301 409.708C128.061 407.462 127.74 403.211 127.98 402.248C128.221 401.205 128.622 394.387 128.221 392.301C127.74 390.296 127.419 389.253 126.697 389.253C125.975 389.253 124.13 387.648 124.531 392.462C124.932 397.275 125.734 397.676 125.253 400.403C124.852 403.131 123.248 404.334 124.05 406.339C124.932 408.345 126.055 409.307 126.055 411.473C126.055 413.639 126.537 417.73 128.221 417.409Z" fill="#2D2D30"/>
<path d="M134.156 429.605C134.156 429.605 134.156 433.776 136.803 432.974C139.451 432.172 140.253 428.642 140.654 426.637C141.055 424.631 141.777 411.636 141.617 410.753C141.456 409.871 139.691 407.144 138.488 406.823C137.285 406.502 134.397 413.802 134.237 417.171C134.076 420.54 134.638 426.235 134.156 429.605Z" fill="#2D2D30"/>
<path d="M144.827 370.643C144.827 370.643 145.308 376.018 144.506 378.103C143.623 380.109 142.982 381.713 142.821 385.804C142.661 389.895 142.34 394.468 142.982 396.794C143.623 399.04 144.586 400.163 144.586 402.65C144.586 405.137 145.308 406.5 147.153 406.26C148.918 406.019 148.116 381.793 147.554 374.253C146.993 366.712 147.073 366.712 145.869 366.552C144.666 366.391 144.827 367.354 144.827 370.643Z" fill="#2D2D30"/>
<path d="M154.451 448.374C154.451 448.374 153.488 448.614 152.605 447.491C151.723 446.368 152.124 439.55 151.723 437.945C151.322 436.341 151.322 425.592 151.563 423.747C151.884 421.902 152.606 417.891 153.568 417.089C154.531 416.286 155.654 416.206 155.413 419.174C155.172 422.142 155.894 429.923 155.333 434.015C154.852 438.186 155.894 447.892 154.451 448.374Z" fill="#2D2D30"/>
<path d="M174.989 419.496C174.989 419.496 172.582 423.506 171.218 425.432C169.855 427.357 168.491 428.64 167.689 427.598C166.887 426.555 167.448 425.271 167.849 423.105C168.25 420.939 168.571 419.736 169.855 417.169C171.218 414.602 173.705 408.345 176.112 408.185C178.518 408.024 177.315 411.634 177.155 413.559C177.074 415.565 176.192 417.971 174.989 419.496Z" fill="#2D2D30"/>
<path d="M110.25 516.961V531.801L129.181 560.519H155.733L174.585 531.801V516.961H110.25Z" fill="white" stroke="#2D2D30" stroke-miterlimit="10" stroke-linecap="round" stroke-linejoin="round"/>
<path d="M110.25 531.801H174.344" stroke="#2D2D30" stroke-miterlimit="10" stroke-linecap="round" stroke-linejoin="round"/>
</svg>
